<svg width="96" height="58" viewBox="0 0 96 58" fill="none" xmlns="http://www.w3.org/2000/svg">
<path fill-rule="evenodd" clip-rule="evenodd" d="M92.2951 13.4115C93.1054 13.4115 93.8839 13.7557 94.4292 14.3555C94.9746 14.9553 95.2433 15.7621 95.1663 16.5696L92.5986 43.5341C92.3836 45.7918 90.5109 47.4939 88.2438 47.4939H87.9424L89.2052 56.3342C89.2619 56.7343 89.1428 57.1395 88.8777 57.4445C88.6127 57.7495 88.2285 57.9252 87.8248 57.9252H84.8446C84.2869 57.9252 83.7823 57.5926 83.563 57.08L79.4543 47.4939H17.7858H15.7249L11.6163 57.08C11.397 57.5926 10.893 57.9252 10.3353 57.9252H7.35445C6.9507 57.9252 6.56656 57.7495 6.30151 57.4445C6.03647 57.1395 5.91737 56.7343 5.97474 56.3342L7.23754 47.4939H6.93545C4.66838 47.4939 2.7956 45.7918 2.58066 43.5341L0.0129527 16.5696C-0.0640205 15.7628 0.204659 14.9553 0.750007 14.3555C1.29535 13.7557 2.0738 13.4115 2.8842 13.4115H4.86734C5.2435 13.4115 5.61021 13.4616 5.96022 13.5516V5.86448C5.96022 2.63088 8.5911 0 11.8254 0H43.1194C44.9094 0 46.5135 0.806766 47.5896 2.07464C48.6665 0.806766 50.2706 0 52.0599 0H83.3538C86.5881 0 89.219 2.63088 89.219 5.86448V13.5516C89.5698 13.4616 89.9358 13.4115 90.3119 13.4115H92.2951ZM14.5405 44.7054H17.7858H88.2438C89.0658 44.7054 89.7448 44.0882 89.8225 43.2698L92.3909 16.3052L92.391 16.3042C92.3918 16.2918 92.3937 16.2622 92.3662 16.2312C92.3372 16.1999 92.3067 16.1999 92.2951 16.1999H90.3119C89.5451 16.1999 88.8886 16.7475 88.7514 17.5027L86.2381 31.3237V32.6882C86.2381 35.1005 84.276 37.0626 81.8637 37.0626H50.5698C49.4196 37.0626 48.3717 36.6153 47.5896 35.8862C46.8083 36.6153 45.7604 37.0626 44.6095 37.0626H13.3155C10.9032 37.0626 8.94111 35.1005 8.94111 32.6882V31.3237L6.42787 17.5027C6.29062 16.7482 5.63417 16.1999 4.86734 16.1999H2.8842C2.87258 16.1999 2.84208 16.1999 2.81303 16.2312C2.78555 16.2622 2.78747 16.2918 2.78827 16.3042L2.78834 16.3052L5.35678 43.2698C5.43448 44.0882 6.11344 44.7054 6.93545 44.7054H14.5405ZM8.96217 55.1367H9.41602L12.691 47.4939H10.0543L8.96217 55.1367ZM11.8254 2.78846H43.1194C44.8157 2.78846 46.1954 4.1689 46.1954 5.86448V22.2569C46.1954 23.1312 45.4838 23.8428 44.6095 23.8428H13.3155C12.2851 23.8428 11.3374 24.2015 10.5888 24.7999L9.17131 17.0038C9.09143 16.5652 8.94474 16.1542 8.74868 15.7751V5.86448C8.74868 4.16817 10.1291 2.78846 11.8254 2.78846ZM13.3155 34.2741H44.6095C45.4838 34.2741 46.1954 33.5625 46.1954 32.6882V28.2179C46.1954 27.3429 45.4838 26.6313 44.6095 26.6313H13.3155C12.4412 26.6313 11.7296 27.3429 11.7296 28.2179V32.6882C11.7296 33.5625 12.4405 34.2741 13.3155 34.2741ZM81.8637 34.2741H50.5698C49.6955 34.2741 48.9839 33.5625 48.9839 32.6882V28.2172C48.9839 27.3429 49.6955 26.6313 50.5698 26.6313H80.3744C79.6039 26.6313 78.9801 26.0075 78.9801 25.237C78.9801 24.4673 79.6039 23.8428 80.3744 23.8428H50.5698C49.6955 23.8428 48.9839 23.1312 48.9839 22.2569V5.86521C48.9839 4.16889 50.3636 2.78846 52.0599 2.78846H83.3538C85.0501 2.78846 86.4298 4.16889 86.4298 5.86521V15.7751C86.2338 16.1542 86.0871 16.5652 86.0079 17.0038L84.5905 24.8006C83.8418 24.2022 82.8942 23.8428 81.8637 23.8428H80.857C81.6268 23.8428 82.2513 24.4673 82.2513 25.237C82.2513 26.0075 81.6268 26.6313 80.857 26.6313H81.8637C82.7388 26.6313 83.4497 27.3429 83.4497 28.2172V32.6882C83.4504 33.5625 82.7388 34.2741 81.8637 34.2741ZM85.7632 55.1367H86.2171L85.1249 47.4939H82.4882L85.7632 55.1367Z" fill="#232323"/>
<path d="M20.7814 13.2201C21.5511 13.2201 22.1756 12.5956 22.1756 11.8259C22.1756 11.0561 21.5511 10.4316 20.7814 10.4316H20.7661C19.9964 10.4316 19.3799 11.0561 19.3799 11.8259C19.3799 12.5956 20.0116 13.2201 20.7814 13.2201Z" fill="#232323"/>
<path d="M74.413 10.4316H74.3977C73.6273 10.4316 73.0107 11.0561 73.0107 11.8259C73.0107 12.5956 73.6425 13.2201 74.413 13.2201C75.1827 13.2201 75.8072 12.5956 75.8072 11.8259C75.8072 11.0561 75.1827 10.4316 74.413 10.4316Z" fill="#232323"/>
<path d="M34.1925 13.2201C34.963 13.2201 35.5867 12.5956 35.5867 11.8259C35.5867 11.0561 34.963 10.4316 34.1925 10.4316H34.178C33.4075 10.4316 32.791 11.0561 32.791 11.8259C32.791 12.5956 33.4228 13.2201 34.1925 13.2201Z" fill="#232323"/>
<path d="M61.0165 10.4316H61.0012C60.2315 10.4316 59.6143 11.0561 59.6143 11.8259C59.6143 12.5956 60.246 13.2201 61.0165 13.2201C61.7862 13.2201 62.4107 12.5956 62.4107 11.8259C62.4107 11.0561 61.7862 10.4316 61.0165 10.4316Z" fill="#232323"/>
</svg>
