<svg width="58" height="72" viewBox="0 0 58 72" fill="none" xmlns="http://www.w3.org/2000/svg">
<path d="M39.5361 33.666L46.5361 40.666L39.5361 33.666Z" fill="#FFC7CC"/>
<path fill-rule="evenodd" clip-rule="evenodd" d="M50.1392 19.7863L56.4955 38.8551C56.8731 39.9904 56.9542 41.2033 56.7309 42.3786L52.6126 64H53.5361C54.1804 64 54.7028 64.5223 54.7028 65.1667V71H52.3695V66.3333H27.8695V71H25.5361V65.1667C25.5362 64.5223 26.0585 64 26.7028 64H29.6463L23.5796 48.8333H10.3695C9.72515 48.8333 9.20283 48.311 9.2028 47.6667V8H2.2028C1.55848 7.99997 1.03616 7.47765 1.03613 6.83333V1H3.36947V5.66667H50.0361V1H52.3695V6.83333C52.3694 7.47765 51.8471 7.99997 51.2028 8H44.2028V15.0365C46.945 15.311 49.2699 17.1711 50.1392 19.7863ZM26.7028 16.1667C31.4059 16.1667 35.3739 12.6664 35.9606 8H17.445C18.0317 12.6664 21.9997 16.1667 26.7028 16.1667ZM15.0946 8C15.6938 13.9615 20.7113 18.5 26.7028 18.5C32.6943 18.5 37.7118 13.9615 38.311 8H41.8695V34.3501L39.4776 31.9581C37.0889 29.5699 33.2165 29.57 30.828 31.9585C28.4395 34.347 28.4393 38.2194 30.8276 40.6081L32.6233 42.4039C31.9759 43.6839 31.5707 45.0726 31.4281 46.5H21.9777C21.4152 40.983 17.0531 36.621 11.5361 36.0585V8H15.0946ZM33.7768 46.5H36.7195L34.3837 44.1642C34.0809 44.9132 33.8769 45.6984 33.7768 46.5ZM11.5361 38.4088C15.7615 38.9476 19.0885 42.2746 19.6273 46.5H11.5361V38.4088ZM50.2374 64L54.4389 41.942C54.5876 41.1585 54.5336 40.3499 54.2818 39.5931L47.9255 20.5243C47.3732 18.8617 45.9349 17.6493 44.2028 17.3863V36.6833L47.3611 39.8417L45.7111 41.4917L42.2111 37.9917L37.8276 33.6081C36.8719 32.6525 35.479 32.2792 34.1735 32.629C32.868 32.9788 31.8483 33.9985 31.4985 35.304C31.1487 36.6095 31.5219 38.0024 32.4776 38.9581L40.3611 46.8417C40.8167 47.2973 40.8167 48.036 40.3611 48.4917C37.6103 51.2325 36.6239 55.2819 37.8061 58.9807L35.5818 59.686C34.4132 56.0275 34.966 52.0364 37.0852 48.8333H26.0926L32.1593 64H50.2374Z" fill="#232323"/>
<path d="M56.4955 38.8551L56.8751 38.7289L56.875 38.7286L56.4955 38.8551ZM50.1392 19.7863L49.7597 19.9125L49.7598 19.9128L50.1392 19.7863ZM56.7309 42.3786L57.1239 42.4535L57.1239 42.4533L56.7309 42.3786ZM52.6126 64L52.2197 63.9252L52.1293 64.4H52.6126V64ZM53.5361 64L53.5361 63.6H53.5361V64ZM54.7028 65.1667H55.1028V65.1666L54.7028 65.1667ZM54.7028 71V71.4H55.1028V71H54.7028ZM52.3695 71H51.9695V71.4H52.3695V71ZM52.3695 66.3333H52.7695V65.9333H52.3695V66.3333ZM27.8695 66.3333V65.9333H27.4695V66.3333H27.8695ZM27.8695 71V71.4H28.2695V71H27.8695ZM25.5361 71H25.1361V71.4H25.5361V71ZM25.5361 65.1667L25.1361 65.1666V65.1667H25.5361ZM26.7028 64V63.6H26.7028L26.7028 64ZM29.6463 64V64.4H30.2371L30.0177 63.8514L29.6463 64ZM23.5796 48.8333L23.951 48.6848L23.8504 48.4333H23.5796V48.8333ZM10.3695 48.8333L10.3694 49.2333H10.3695V48.8333ZM9.2028 47.6667H8.8028V47.6667L9.2028 47.6667ZM9.2028 8H9.6028V7.6H9.2028V8ZM2.2028 8L2.20278 8.4H2.2028V8ZM1.03613 6.83333H0.636133V6.83335L1.03613 6.83333ZM1.03613 1V0.6H0.636133V1H1.03613ZM3.36947 1H3.76947V0.6H3.36947V1ZM3.36947 5.66667H2.96947V6.06667H3.36947V5.66667ZM50.0361 5.66667V6.06667H50.4361V5.66667H50.0361ZM50.0361 1V0.6H49.6361V1H50.0361ZM52.3695 1H52.7695V0.6H52.3695V1ZM52.3695 6.83333L52.7695 6.83335V6.83333H52.3695ZM51.2028 8V8.4H51.2028L51.2028 8ZM44.2028 8V7.6H43.8028V8H44.2028ZM44.2028 15.0365H43.8028V15.3985L44.163 15.4345L44.2028 15.0365ZM35.9606 8L36.3575 8.0499L36.4141 7.6H35.9606V8ZM17.445 8V7.6H16.9915L17.0481 8.0499L17.445 8ZM15.0946 8L15.4926 7.96L15.4564 7.6H15.0946V8ZM38.311 8V7.6H37.9492L37.913 7.96L38.311 8ZM41.8695 8H42.2695V7.6H41.8695V8ZM41.8695 34.3501L41.5866 34.6329L42.2695 35.3158V34.3501H41.8695ZM39.4776 31.9581L39.7604 31.6753L39.7604 31.6752L39.4776 31.9581ZM30.828 31.9585L31.1108 32.2414L30.828 31.9585ZM30.8276 40.6081L30.5447 40.891L30.5447 40.891L30.8276 40.6081ZM32.6233 42.4039L32.9803 42.5844L33.111 42.3259L32.9062 42.121L32.6233 42.4039ZM31.4281 46.5V46.9H31.7902L31.8262 46.5398L31.4281 46.5ZM21.9777 46.5L21.5797 46.5406L21.6164 46.9H21.9777V46.5ZM11.5361 36.0585H11.1361V36.4198L11.4956 36.4564L11.5361 36.0585ZM11.5361 8V7.6H11.1361V8H11.5361ZM36.7195 46.5V46.9H37.6852L37.0024 46.2172L36.7195 46.5ZM33.7768 46.5L33.3799 46.4504L33.3237 46.9H33.7768V46.5ZM34.3837 44.1642L34.6665 43.8813L34.2393 43.4541L34.0128 44.0143L34.3837 44.1642ZM19.6273 46.5V46.9H20.0815L20.0241 46.4494L19.6273 46.5ZM11.5361 38.4088L11.5867 38.0121L11.1361 37.9546V38.4088H11.5361ZM11.5361 46.5H11.1361V46.9H11.5361V46.5ZM54.4389 41.942L54.8318 42.0168L54.8319 42.0166L54.4389 41.942ZM50.2374 64V64.4H50.5684L50.6304 64.0748L50.2374 64ZM54.2818 39.5931L54.6614 39.4669L54.6613 39.4666L54.2818 39.5931ZM47.9255 20.5243L47.5459 20.6504L47.5461 20.6508L47.9255 20.5243ZM44.2028 17.3863L44.2629 16.9908L43.8028 16.921V17.3863H44.2028ZM44.2028 36.6833H43.8028V36.849L43.92 36.9662L44.2028 36.6833ZM47.3611 39.8417L47.644 40.1245L47.9268 39.8417L47.644 39.5588L47.3611 39.8417ZM45.7111 41.4917L45.4283 41.7745L45.7111 42.0574L45.994 41.7745L45.7111 41.4917ZM42.2111 37.9917L41.9283 38.2745V38.2745L42.2111 37.9917ZM37.8276 33.6081L38.1104 33.3253V33.3253L37.8276 33.6081ZM34.1735 32.629L34.07 32.2427L34.1735 32.629ZM32.4776 38.9581L32.7604 38.6753L32.4776 38.9581ZM40.3611 46.8417L40.644 46.5588L40.644 46.5588L40.3611 46.8417ZM40.3611 48.4917L40.6435 48.775L40.644 48.7745L40.3611 48.4917ZM37.8061 58.9807L37.927 59.362L38.3091 59.2408L38.1871 58.8589L37.8061 58.9807ZM35.5818 59.686L35.2008 59.8077L35.3222 60.1879L35.7027 60.0673L35.5818 59.686ZM37.0852 48.8333L37.4188 49.054L37.8295 48.4333H37.0852V48.8333ZM26.0926 48.8333V48.4333H25.5018L25.7212 48.9819L26.0926 48.8333ZM32.1593 64L31.7879 64.1486L31.8885 64.4H32.1593V64ZM56.875 38.7286L50.5187 19.6598L49.7598 19.9128L56.116 38.9816L56.875 38.7286ZM57.1239 42.4533C57.3599 41.2109 57.2742 39.9288 56.8751 38.7289L56.116 38.9814C56.4721 40.0519 56.5485 41.1957 56.338 42.304L57.1239 42.4533ZM53.0056 64.0748L57.1239 42.4535L56.338 42.3038L52.2197 63.9252L53.0056 64.0748ZM53.5361 63.6H52.6126V64.4H53.5361V63.6ZM55.1028 65.1666C55.1028 64.3014 54.4014 63.6 53.5361 63.6L53.5361 64.4C53.9595 64.4 54.3028 64.7433 54.3028 65.1667L55.1028 65.1666ZM55.1028 71V65.1667H54.3028V71H55.1028ZM52.3695 71.4H54.7028V70.6H52.3695V71.4ZM51.9695 66.3333V71H52.7695V66.3333H51.9695ZM27.8695 66.7333H52.3695V65.9333H27.8695V66.7333ZM28.2695 71V66.3333H27.4695V71H28.2695ZM25.5361 71.4H27.8695V70.6H25.5361V71.4ZM25.1361 65.1667V71H25.9361V65.1667H25.1361ZM26.7028 63.6C25.8376 63.6 25.1362 64.3014 25.1361 65.1666L25.9361 65.1667C25.9361 64.7433 26.2794 64.4 26.7028 64.4L26.7028 63.6ZM29.6463 63.6H26.7028V64.4H29.6463V63.6ZM23.2082 48.9819L29.2749 64.1486L30.0177 63.8514L23.951 48.6848L23.2082 48.9819ZM10.3695 49.2333H23.5796V48.4333H10.3695V49.2333ZM8.8028 47.6667C8.80284 48.5319 9.50423 49.2333 10.3694 49.2333L10.3695 48.4333C9.94606 48.4333 9.60282 48.0901 9.6028 47.6666L8.8028 47.6667ZM8.8028 8V47.6667H9.6028V8H8.8028ZM2.2028 8.4H9.2028V7.6H2.2028V8.4ZM0.636133 6.83335C0.636175 7.69857 1.33756 8.39996 2.20278 8.4L2.20282 7.6C1.7794 7.59998 1.43615 7.25673 1.43613 6.83331L0.636133 6.83335ZM0.636133 1V6.83333H1.43613V1H0.636133ZM3.36947 0.6H1.03613V1.4H3.36947V0.6ZM3.76947 5.66667V1H2.96947V5.66667H3.76947ZM50.0361 5.26667H3.36947V6.06667H50.0361V5.26667ZM49.6361 1V5.66667H50.4361V1H49.6361ZM52.3695 0.6H50.0361V1.4H52.3695V0.6ZM52.7695 6.83333V1H51.9695V6.83333H52.7695ZM51.2028 8.4C52.068 8.39996 52.7694 7.69857 52.7695 6.83335L51.9695 6.83331C51.9694 7.25673 51.6262 7.59998 51.2028 7.6L51.2028 8.4ZM44.2028 8.4H51.2028V7.6H44.2028V8.4ZM44.6028 15.0365V8H43.8028V15.0365H44.6028ZM50.5188 19.6601C49.5997 16.8953 47.1417 14.9287 44.2426 14.6385L44.163 15.4345C46.7482 15.6933 48.9401 17.447 49.7597 19.9125L50.5188 19.6601ZM35.5637 7.9501C35.0022 12.4164 31.2043 15.7667 26.7028 15.7667V16.5667C31.6075 16.5667 35.7456 12.9163 36.3575 8.0499L35.5637 7.9501ZM17.445 8.4H35.9606V7.6H17.445V8.4ZM26.7028 15.7667C22.2013 15.7667 18.4034 12.4164 17.8419 7.9501L17.0481 8.0499C17.66 12.9163 21.798 16.5667 26.7028 16.5667V15.7667ZM26.7028 18.1C20.9167 18.1 16.0712 13.7171 15.4926 7.96L14.6966 8.04C15.3163 14.2059 20.5058 18.9 26.7028 18.9V18.1ZM37.913 7.96C37.3344 13.7171 32.4889 18.1 26.7028 18.1V18.9C32.8998 18.9 38.0893 14.2059 38.709 8.04L37.913 7.96ZM41.8695 7.6H38.311V8.4H41.8695V7.6ZM42.2695 34.3501V8H41.4695V34.3501H42.2695ZM39.1947 32.2409L41.5866 34.6329L42.1523 34.0673L39.7604 31.6753L39.1947 32.2409ZM31.1108 32.2414C33.3431 30.0091 36.9623 30.0089 39.1948 32.241L39.7604 31.6752C37.2155 29.1308 33.0898 29.131 30.5451 31.6757L31.1108 32.2414ZM31.1104 40.3253C28.8784 38.0928 28.8785 34.4736 31.1108 32.2414L30.5451 31.6757C28.0005 34.2203 28.0003 38.346 30.5447 40.891L31.1104 40.3253ZM32.9062 42.121L31.1104 40.3253L30.5447 40.891L32.3405 42.6867L32.9062 42.121ZM31.8262 46.5398C31.9638 45.1614 32.3551 43.8204 32.9803 42.5844L32.2664 42.2233C31.5967 43.5474 31.1776 44.9838 31.0301 46.4602L31.8262 46.5398ZM21.9777 46.9H31.4281V46.1H21.9777V46.9ZM11.4956 36.4564C16.8237 36.9996 21.0365 41.2124 21.5797 46.5406L22.3756 46.4594C21.7938 40.7537 17.2825 36.2423 11.5767 35.6605L11.4956 36.4564ZM11.1361 8V36.0585H11.9361V8H11.1361ZM15.0946 7.6H11.5361V8.4H15.0946V7.6ZM36.7195 46.1H33.7768V46.9H36.7195V46.1ZM34.1008 44.447L36.4367 46.7828L37.0024 46.2172L34.6665 43.8813L34.1008 44.447ZM34.1737 46.5496C34.2695 45.7824 34.4648 45.0309 34.7545 44.3141L34.0128 44.0143C33.6971 44.7954 33.4843 45.6144 33.3799 46.4504L34.1737 46.5496ZM20.0241 46.4494C19.4622 42.0432 15.9929 38.5739 11.5867 38.0121L11.4855 38.8056C15.5302 39.3214 18.7148 42.506 19.2305 46.5506L20.0241 46.4494ZM11.5361 46.9H19.6273V46.1H11.5361V46.9ZM11.1361 38.4088V46.5H11.9361V38.4088H11.1361ZM54.046 41.8672L49.8445 63.9252L50.6304 64.0748L54.8318 42.0168L54.046 41.8672ZM53.9023 39.7194C54.1325 40.4114 54.1819 41.1509 54.0459 41.8674L54.8319 42.0166C54.9933 41.1661 54.9346 40.2883 54.6614 39.4669L53.9023 39.7194ZM47.5461 20.6508L53.9023 39.7196L54.6613 39.4666L48.305 20.3978L47.5461 20.6508ZM44.1427 17.7818C45.7262 18.0222 47.041 19.1305 47.5459 20.6504L48.3051 20.3982C47.7053 18.5928 46.1437 17.2765 44.2629 16.9908L44.1427 17.7818ZM44.6028 36.6833V17.3863H43.8028V36.6833H44.6028ZM47.644 39.5588L44.4856 36.4005L43.92 36.9662L47.0783 40.1245L47.644 39.5588ZM45.994 41.7745L47.644 40.1245L47.0783 39.5588L45.4283 41.2088L45.994 41.7745ZM41.9283 38.2745L45.4283 41.7745L45.994 41.2088L42.494 37.7088L41.9283 38.2745ZM37.5447 33.891L41.9283 38.2745L42.494 37.7088L38.1104 33.3253L37.5447 33.891ZM34.277 33.0154C35.4445 32.7026 36.6901 33.0364 37.5447 33.891L38.1104 33.3253C37.0537 32.2686 35.5135 31.8559 34.07 32.2427L34.277 33.0154ZM31.8849 35.4075C32.1977 34.2401 33.1096 33.3282 34.277 33.0154L34.07 32.2427C32.6264 32.6294 31.4989 33.757 31.1121 35.2005L31.8849 35.4075ZM32.7604 38.6753C31.9058 37.8206 31.572 36.575 31.8849 35.4075L31.1121 35.2005C30.7253 36.644 31.138 38.1842 32.1948 39.241L32.7604 38.6753ZM40.644 46.5588L32.7604 38.6753L32.1948 39.241L40.0783 47.1245L40.644 46.5588ZM40.644 48.7745C41.2558 48.1626 41.2558 47.1707 40.644 46.5588L40.0783 47.1245C40.3777 47.4239 40.3777 47.9094 40.0783 48.2089L40.644 48.7745ZM38.1871 58.8589C37.0506 55.3029 37.9989 51.41 40.6435 48.775L40.0788 48.2083C37.2217 51.055 36.1972 55.2608 37.4251 59.1025L38.1871 58.8589ZM35.7027 60.0673L37.927 59.362L37.6852 58.5994L35.4609 59.3047L35.7027 60.0673ZM36.7516 48.6126C34.5656 51.9167 33.9953 56.0337 35.2008 59.8077L35.9629 59.5642C34.8311 56.0212 35.3665 52.156 37.4188 49.054L36.7516 48.6126ZM26.0926 49.2333H37.0852V48.4333H26.0926V49.2333ZM32.5307 63.8514L26.464 48.6848L25.7212 48.9819L31.7879 64.1486L32.5307 63.8514ZM50.2374 63.6H32.1593V64.4H50.2374V63.6Z" fill="#232323"/>
</svg>
