<svg width="22" height="20" viewBox="0 0 22 20" fill="none" xmlns="http://www.w3.org/2000/svg">
<path fill-rule="evenodd" clip-rule="evenodd" d="M21.262 15.1618C20.8796 17.4308 19.2047 19.1785 17.0943 19.5107H17.0942C12.9078 20.1696 8.7045 20.1566 4.60065 19.5107C2.49022 19.1785 0.81535 17.4308 0.432934 15.1618C-0.144311 11.7367 -0.144311 8.26326 0.432934 4.83814C0.81535 2.56911 2.49022 0.821398 4.60065 0.48928C8.74573 -0.163093 12.9492 -0.163093 17.0942 0.48928C19.2047 0.821441 20.8796 2.56911 21.262 4.83814C21.8392 8.26331 21.8392 11.7367 21.262 15.1618ZM13.4332 12.0044C13.7642 12.3354 13.7642 12.8721 13.4332 13.2031C13.1021 13.5342 12.5655 13.5341 12.2345 13.2031L10.2483 11.2168C10.0948 11.0634 9.99988 10.8514 9.99988 10.6172V7.39619C9.99988 6.92805 10.3794 6.54856 10.8475 6.54856C11.3156 6.54856 11.6951 6.92805 11.6951 7.39619V10.2661L13.4332 12.0044ZM16.8307 2.16394C18.2202 2.38267 19.3292 3.57055 19.5903 5.11992C20.1361 8.35809 20.1361 11.6419 19.5904 14.88C19.3293 16.4294 18.2203 17.6173 16.8308 17.836C12.8606 18.4608 8.83442 18.4609 4.86425 17.836C3.47476 17.6172 2.36573 16.4294 2.10463 14.88C1.55887 11.6419 1.55887 8.35809 2.10463 5.11992C2.36573 3.57055 3.47471 2.38263 4.86425 2.16394C8.83421 1.53907 12.8606 1.53907 16.8307 2.16394Z" fill="#232323"/>
</svg>
