<svg width="20" height="20" viewBox="0 0 20 20" fill="none" xmlns="http://www.w3.org/2000/svg">
<path d="M13.2889 9.99232L19.4711 3.81019C20.1541 3.12713 20.1541 2.01972 19.4711 1.33773L18.6469 0.513576C17.9636 -0.169698 16.8562 -0.169698 16.1742 0.513576L9.99232 6.69548L3.81019 0.512295C3.12713 -0.170765 2.01972 -0.170765 1.33773 0.512295L0.512295 1.33645C-0.170765 2.01972 -0.170765 3.12713 0.512295 3.80913L6.69548 9.99232L0.513576 16.1742C-0.169698 16.8575 -0.169698 17.9649 0.513576 18.6469L1.33773 19.4711C2.02079 20.1541 3.1282 20.1541 3.81019 19.4711L9.99232 13.2889L16.1742 19.4711C16.8575 20.1541 17.9649 20.1541 18.6469 19.4711L19.4711 18.6469C20.1541 17.9636 20.1541 16.8562 19.4711 16.1742L13.2889 9.99232Z" fill="#232323"/>
</svg>
