<svg width="82" height="62" viewBox="0 0 82 62" fill="none" xmlns="http://www.w3.org/2000/svg">
<path fill-rule="evenodd" clip-rule="evenodd" d="M23.1698 1H20.5597V6.22016H23.1698V1ZM37.5442 8.03561L35.6986 6.19003L32.0074 9.8812L33.853 11.7268L37.5442 8.03561ZM1 20.5756H6.22016V23.1857H1V20.5756ZM8.03627 6.1915L6.19043 8.03683L9.88108 11.7285L11.7269 9.8832L8.03627 6.1915ZM76.6446 37.5093C76.6446 38.7825 76.5332 40.0716 76.3263 41.3448C79.7162 43.1432 81.8647 46.6446 81.8647 50.5597C81.8488 56.305 77.1698 61 71.4244 61H11.4244C5.67905 61 1 56.305 1 50.5597C1 45.7851 4.31035 41.6154 8.86207 40.4536C9.07939 36.8614 10.4005 33.5773 12.4863 30.9331C10.1379 28.513 8.81432 25.278 8.81432 21.8806C8.81432 14.687 14.6711 8.84615 21.8488 8.84615C29.0265 8.84615 34.8833 14.7029 34.8833 21.8806C34.8833 22.208 34.8711 22.5335 34.8469 22.8568C39.2406 17.3279 45.9 14.0345 53.1698 14.0345C66.1088 14.0345 76.6446 24.5703 76.6446 37.5093ZM32.8684 28.9506L33.8806 29.504L34.4854 28.2785C38.0345 21.1008 45.1963 16.6446 53.1698 16.6446C64.6764 16.6446 74.0345 26.0027 74.0345 37.5093C74.0345 38.9416 73.8913 40.3899 73.5889 41.8223L73.366 42.8886L74.3687 43.3024C77.3448 44.496 79.2546 47.3448 79.2546 50.5438C79.2546 54.8568 75.7374 58.374 71.4244 58.374H11.4403C7.12732 58.374 3.61008 54.8568 3.61008 50.5438C3.61008 46.6764 6.50663 43.3501 10.3263 42.809L11.4403 42.5544V41.4244C11.4403 37.9229 12.7003 34.7114 14.791 32.2194L15.244 31.7321C17.9973 28.7401 21.7374 27.1008 25.7639 27.1008C27.8011 27.1008 29.8064 27.5464 31.7321 28.4377L32.8621 28.9629L32.8684 28.9506ZM31.6454 25.5178C32.0851 24.3473 32.305 23.1295 32.305 21.8647C32.2891 16.1194 27.6101 11.4403 21.8647 11.4403C16.1194 11.4403 11.4403 16.1194 11.4403 21.8647C11.4403 24.5349 12.4562 27.0781 14.266 29.003C17.2918 26.1898 21.3399 24.4748 25.7798 24.4748C27.7829 24.4748 29.775 24.8286 31.6454 25.5178Z" fill="#232323"/>
<path d="M20.5597 1V0.5H20.0597V1H20.5597ZM23.1698 1H23.6698V0.5H23.1698V1ZM20.5597 6.22016H20.0597V6.72016H20.5597V6.22016ZM23.1698 6.22016V6.72016H23.6698V6.22016H23.1698ZM35.6986 6.19003L36.0522 5.83647L35.6986 5.48292L35.345 5.83647L35.6986 6.19003ZM37.5442 8.03561L37.8977 8.38917L38.2513 8.03561L37.8977 7.68206L37.5442 8.03561ZM32.0074 9.8812L31.6539 9.52765L31.3003 9.8812L31.6539 10.2348L32.0074 9.8812ZM33.853 11.7268L33.4995 12.0803L33.853 12.4339L34.2066 12.0803L33.853 11.7268ZM6.22016 20.5756H6.72016V20.0756H6.22016V20.5756ZM1 20.5756V20.0756H0.5V20.5756H1ZM6.22016 23.1857V23.6857H6.72016V23.1857H6.22016ZM1 23.1857H0.5V23.6857H1V23.1857ZM6.19043 8.03683L5.83692 7.68323L5.48332 8.03673L5.83682 8.39033L6.19043 8.03683ZM8.03627 6.1915L8.38988 5.838L8.03637 5.4844L7.68277 5.8379L8.03627 6.1915ZM9.88108 11.7285L9.52748 12.082L9.88098 12.4356L10.2346 12.0821L9.88108 11.7285ZM11.7269 9.8832L12.0804 10.2368L12.434 9.8833L12.0805 9.5297L11.7269 9.8832ZM76.3263 41.3448L75.8327 41.2646L75.7752 41.6185L76.0919 41.7865L76.3263 41.3448ZM81.8647 50.5597L82.3647 50.5611V50.5597H81.8647ZM8.86207 40.4536L8.98573 40.938L9.33913 40.8478L9.36116 40.4838L8.86207 40.4536ZM12.4863 30.9331L12.8789 31.2428L13.15 30.8991L12.8452 30.5849L12.4863 30.9331ZM34.8469 22.8568L34.3483 22.8194L34.2269 24.4407L35.2384 23.1679L34.8469 22.8568ZM32.8684 28.9506L33.1082 28.5119L32.6583 28.2659L32.4237 28.7219L32.8684 28.9506ZM33.8806 29.504L33.6408 29.9427L34.0983 30.1928L34.329 29.7253L33.8806 29.504ZM34.4854 28.2785L34.0372 28.0569L34.037 28.0572L34.4854 28.2785ZM73.5889 41.8223L73.0996 41.719L73.0994 41.72L73.5889 41.8223ZM73.366 42.8886L72.8766 42.7863L72.7917 43.1925L73.1753 43.3508L73.366 42.8886ZM74.3687 43.3024L74.1779 43.7646L74.1826 43.7665L74.3687 43.3024ZM10.3263 42.809L10.3964 43.3041L10.4172 43.3011L10.4377 43.2964L10.3263 42.809ZM11.4403 42.5544L11.5517 43.0418L11.9403 42.953V42.5544H11.4403ZM14.791 32.2194L14.4248 31.8789L14.4161 31.8882L14.4079 31.898L14.791 32.2194ZM15.244 31.7321L15.6102 32.0726L15.612 32.0707L15.244 31.7321ZM31.7321 28.4377L31.9428 27.9842L31.9421 27.9839L31.7321 28.4377ZM32.8621 28.9629L32.6513 29.4163L33.087 29.6188L33.3067 29.1915L32.8621 28.9629ZM31.6454 25.5178L31.4725 25.987L31.9387 26.1588L32.1134 25.6937L31.6454 25.5178ZM32.305 21.8647H32.805L32.805 21.8633L32.305 21.8647ZM14.266 29.003L13.9017 29.3455L14.2423 29.7077L14.6065 29.3692L14.266 29.003ZM20.5597 1.5H23.1698V0.5H20.5597V1.5ZM21.0597 6.22016V1H20.0597V6.22016H21.0597ZM23.1698 5.72016H20.5597V6.72016H23.1698V5.72016ZM22.6698 1V6.22016H23.6698V1H22.6698ZM35.345 6.54358L37.1906 8.38917L37.8977 7.68206L36.0522 5.83647L35.345 6.54358ZM32.361 10.2348L36.0522 6.54358L35.345 5.83647L31.6539 9.52765L32.361 10.2348ZM34.2066 11.3732L32.361 9.52765L31.6539 10.2348L33.4995 12.0803L34.2066 11.3732ZM37.1906 7.68206L33.4995 11.3732L34.2066 12.0803L37.8977 8.38917L37.1906 7.68206ZM6.22016 20.0756H1V21.0756H6.22016V20.0756ZM6.72016 23.1857V20.5756H5.72016V23.1857H6.72016ZM1 23.6857H6.22016V22.6857H1V23.6857ZM0.5 20.5756V23.1857H1.5V20.5756H0.5ZM6.54393 8.39043L8.38978 6.54511L7.68277 5.8379L5.83692 7.68323L6.54393 8.39043ZM10.2347 11.375L6.54403 7.68333L5.83682 8.39033L9.52748 12.082L10.2347 11.375ZM11.3734 9.5296L9.52758 11.3749L10.2346 12.0821L12.0804 10.2368L11.3734 9.5296ZM7.68267 6.54501L11.3733 10.2367L12.0805 9.5297L8.38988 5.838L7.68267 6.54501ZM76.8198 41.425C77.0307 40.1274 77.1446 38.8114 77.1446 37.5093H76.1446C76.1446 38.7536 76.0357 40.0158 75.8327 41.2646L76.8198 41.425ZM82.3647 50.5597C82.3647 46.4578 80.1125 42.7875 76.5606 40.9031L76.0919 41.7865C79.3199 43.499 81.3647 46.8313 81.3647 50.5597H82.3647ZM71.4244 61.5C77.4472 61.5 82.348 56.5802 82.3647 50.5611L81.3647 50.5583C81.3496 56.0299 76.8924 60.5 71.4244 60.5V61.5ZM11.4244 61.5H71.4244V60.5H11.4244V61.5ZM0.5 50.5597C0.5 56.5802 5.40191 61.5 11.4244 61.5V60.5C5.95618 60.5 1.5 56.0299 1.5 50.5597H0.5ZM8.73841 39.9691C3.96822 41.1867 0.5 45.5536 0.5 50.5597H1.5C1.5 46.0167 4.65247 42.0441 8.98573 40.938L8.73841 39.9691ZM12.0938 30.6235C9.94671 33.3453 8.58665 36.7263 8.36298 40.4234L9.36116 40.4838C9.57213 36.9965 10.8544 33.8093 12.8789 31.2428L12.0938 30.6235ZM12.8452 30.5849C10.5867 28.2576 9.31432 25.1473 9.31432 21.8806H8.31432C8.31432 25.4087 9.68898 28.7684 12.1275 31.2813L12.8452 30.5849ZM9.31432 21.8806C9.31432 14.9635 14.9468 9.34615 21.8488 9.34615V8.34615C14.3953 8.34615 8.31432 14.4105 8.31432 21.8806H9.31432ZM21.8488 9.34615C28.7504 9.34615 34.3833 14.9791 34.3833 21.8806H35.3833C35.3833 14.4268 29.3027 8.34615 21.8488 8.34615V9.34615ZM34.3833 21.8806C34.3833 22.1956 34.3716 22.5086 34.3483 22.8194L35.3455 22.8941C35.3707 22.5583 35.3833 22.2204 35.3833 21.8806H34.3833ZM53.1698 13.5345C45.7462 13.5345 38.9432 16.8985 34.4555 22.5457L35.2384 23.1679C39.5381 17.7572 46.0539 14.5345 53.1698 14.5345V13.5345ZM77.1446 37.5093C77.1446 24.2941 66.3849 13.5345 53.1698 13.5345V14.5345C65.8326 14.5345 76.1446 24.8464 76.1446 37.5093H77.1446ZM32.6285 29.3893L33.6408 29.9427L34.1205 29.0653L33.1082 28.5119L32.6285 29.3893ZM34.329 29.7253L34.9338 28.4998L34.037 28.0572L33.4323 29.2827L34.329 29.7253ZM34.9336 28.5001C38.3988 21.4922 45.3873 17.1446 53.1698 17.1446V16.1446C45.0053 16.1446 37.6702 20.7094 34.0372 28.0569L34.9336 28.5001ZM53.1698 17.1446C64.4002 17.1446 73.5345 26.2788 73.5345 37.5093H74.5345C74.5345 25.7265 64.9525 16.1446 53.1698 16.1446V17.1446ZM73.5345 37.5093C73.5345 38.9084 73.3946 40.322 73.0996 41.719L74.0781 41.9256C74.3879 40.4578 74.5345 38.9749 74.5345 37.5093H73.5345ZM73.0994 41.72L72.8766 42.7863L73.8555 42.9909L74.0783 41.9246L73.0994 41.72ZM73.1753 43.3508L74.178 43.7646L74.5594 42.8402L73.5568 42.4264L73.1753 43.3508ZM74.1826 43.7665C76.9676 44.8835 78.7546 47.5475 78.7546 50.5438H79.7546C79.7546 47.1421 77.722 44.1086 74.5548 42.8383L74.1826 43.7665ZM78.7546 50.5438C78.7546 54.5806 75.4613 57.874 71.4244 57.874V58.874C76.0135 58.874 79.7546 55.1329 79.7546 50.5438H78.7546ZM71.4244 57.874H11.4403V58.874H71.4244V57.874ZM11.4403 57.874C7.40346 57.874 4.11008 54.5806 4.11008 50.5438H3.11008C3.11008 55.1329 6.85118 58.874 11.4403 58.874V57.874ZM4.11008 50.5438C4.11008 46.9258 6.82298 43.8103 10.3964 43.3041L10.2561 42.314C6.19029 42.89 3.11008 46.427 3.11008 50.5438H4.11008ZM10.4377 43.2964L11.5517 43.0418L11.3289 42.0669L10.2148 42.3216L10.4377 43.2964ZM11.9403 42.5544V41.4244H10.9403V42.5544H11.9403ZM11.9403 41.4244C11.9403 38.045 13.1559 34.9463 15.174 32.5407L14.4079 31.898C12.2447 34.4765 10.9403 37.8007 10.9403 41.4244H11.9403ZM14.8779 31.3916L14.4248 31.8789L15.1571 32.5598L15.6102 32.0726L14.8779 31.3916ZM25.7639 26.6008C21.597 26.6008 17.7237 28.299 14.8761 31.3935L15.612 32.0707C18.271 29.1811 21.8778 27.6008 25.7639 27.6008V26.6008ZM31.9421 27.9839C29.9526 27.0631 27.8758 26.6008 25.7639 26.6008V27.6008C27.7264 27.6008 29.6602 28.0297 31.5221 28.8914L31.9421 27.9839ZM33.0728 28.5094L31.9428 27.9842L31.5214 28.8911L32.6513 29.4163L33.0728 28.5094ZM32.4237 28.7219L32.4174 28.7342L33.3067 29.1915L33.313 29.1793L32.4237 28.7219ZM32.1134 25.6937C32.5746 24.4662 32.805 23.1889 32.805 21.8647H31.805C31.805 23.0702 31.5957 24.2283 31.1773 25.342L32.1134 25.6937ZM32.805 21.8633C32.7884 15.8432 27.8865 10.9403 21.8647 10.9403V11.9403C27.3337 11.9403 31.7899 16.3955 31.805 21.8661L32.805 21.8633ZM21.8647 10.9403C15.8432 10.9403 10.9403 15.8432 10.9403 21.8647H11.9403C11.9403 16.3955 16.3955 11.9403 21.8647 11.9403V10.9403ZM10.9403 21.8647C10.9403 24.6625 12.005 27.3281 13.9017 29.3455L14.6303 28.6605C12.9074 26.8281 11.9403 24.4073 11.9403 21.8647H10.9403ZM25.7798 23.9748C21.2086 23.9748 17.0402 25.7411 13.9256 28.6368L14.6065 29.3692C17.5435 26.6386 21.4712 24.9748 25.7798 24.9748V23.9748ZM31.8183 25.0487C29.8921 24.3389 27.8415 23.9748 25.7798 23.9748V24.9748C27.7243 24.9748 29.6578 25.3183 31.4725 25.987L31.8183 25.0487Z" fill="#232323"/>
</svg>
