<svg width="68" height="72" viewBox="0 0 68 72" fill="none" xmlns="http://www.w3.org/2000/svg">
<path d="M63.2763 51.8598C63.0641 51.2622 62.4074 50.9496 61.81 51.162C61.2124 51.374 60.8998 52.0305 61.112 52.6283C61.7725 54.4894 61.1035 56.5831 59.4852 57.7199C57.4912 59.1202 54.7297 58.6377 53.3292 56.6438C52.6508 55.6779 52.3891 54.5055 52.5923 53.3428C52.7954 52.18 53.4395 51.1661 54.4053 50.4875C55.8657 49.4619 57.7861 49.4122 59.2976 50.3612C59.8349 50.6985 60.5434 50.5363 60.8807 49.9993C61.2178 49.4623 61.0558 48.7535 60.5188 48.4162C58.2221 46.9743 55.3043 47.0496 53.0854 48.6082C50.0552 50.7365 49.3214 54.9332 51.4498 57.9634C52.7555 59.8224 54.8391 60.817 56.9548 60.8168C58.2878 60.8168 59.634 60.4216 60.8052 59.5989C63.2644 57.8717 64.2805 54.6893 63.2763 51.8598Z" fill="#232323"/>
<path fill-rule="evenodd" clip-rule="evenodd" d="M65.5441 47.5685C63.9491 45.4663 61.6316 44.0264 59.0188 43.5144C56.4051 43.0021 53.716 43.4616 51.4465 44.8075C50.728 45.2338 50.0675 45.735 49.472 46.3056L40.371 33.3484L44.4883 9.79873C46.7803 13.7191 47.636 18.3584 46.8444 22.886L44.5036 36.275C44.3945 36.8997 44.8123 37.4947 45.4371 37.6038C45.504 37.6155 45.5707 37.6213 45.6362 37.6213C46.1838 37.6213 46.6684 37.2282 46.7659 36.6705L49.1067 23.2815C50.1694 17.2031 48.5783 10.9451 44.7417 6.11211C44.4606 5.75801 43.9982 5.6016 43.5595 5.7133C43.1213 5.82473 42.7892 6.18293 42.7113 6.62836L38.5044 30.6907L29.9187 18.4609C29.9001 18.4344 29.8806 18.4089 29.8602 18.3844C29.8549 18.3765 29.8495 18.3686 29.844 18.3607L24.9214 11.3524C24.6616 10.9823 24.2084 10.8002 23.7644 10.8856C23.3204 10.9712 22.9676 11.3102 22.8638 11.7504C21.4471 17.7556 22.6686 24.0954 26.215 29.1446L36.2715 43.4623L35.3554 48.7033C34.8384 48.5294 34.3081 48.3944 33.7681 48.3002C30.9268 47.8035 28.0616 48.4432 25.7004 50.1016C23.3394 51.76 21.7655 54.2381 21.2687 57.0796C20.7717 59.9216 21.4116 62.7871 23.07 65.1481C24.7282 67.5087 27.2064 69.0823 30.0482 69.579C30.6769 69.6889 31.3066 69.7433 31.9318 69.7433C34.1332 69.7433 36.2779 69.0699 38.1165 67.7786C40.4771 66.1204 42.0508 63.642 42.5477 60.7997L43.7239 54.0724L48.017 60.1845C49.7149 62.602 52.2518 64.2109 55.1604 64.7152C55.7877 64.8239 56.4151 64.8778 57.0373 64.8778C59.2329 64.8778 61.3627 64.2086 63.1786 62.9257C65.5911 61.221 67.1686 58.6738 67.6198 55.753C68.0707 52.8334 67.3336 49.9268 65.5441 47.5685ZM27.9646 19.6806C27.9833 19.7071 28.0028 19.7326 28.0232 19.7571C28.0254 19.7605 28.0277 19.7638 28.03 19.7672C28.0331 19.7718 28.0362 19.7763 28.0394 19.7808L44.6769 43.4743L41.8596 47.4228L28.0941 27.8246C25.4537 24.0653 24.2552 19.5055 24.6621 14.9787L27.9646 19.6806ZM40.2852 60.4039C39.894 62.642 38.6549 64.5934 36.7963 65.8989C34.9376 67.2043 32.6817 67.708 30.4435 67.3164C28.2061 66.9253 26.2548 65.6862 24.9492 63.8275C23.6434 61.9687 23.1397 59.7126 23.531 57.4747C23.9221 55.2375 25.1613 53.2864 27.0204 51.9806C28.8796 50.6748 31.1357 50.1712 33.3728 50.5622C34.1923 50.7055 34.9836 50.9669 35.7242 51.3389C36.0489 51.5021 36.4312 51.5019 36.7558 51.3388C37.0802 51.1756 37.3084 50.8685 37.371 50.5107L38.1387 46.1201L41.8572 51.4144L40.2852 60.4039ZM61.853 61.0494C63.7525 59.7074 64.9945 57.7016 65.3498 55.4018C65.705 53.1034 65.1244 50.8145 63.7152 48.9566C62.4614 47.304 60.6369 46.1715 58.5777 45.7681C56.5189 45.3643 54.4022 45.7249 52.6186 46.7828C51.7052 47.3245 50.9114 48.0194 50.2591 48.8485C50.0345 49.1337 49.6898 49.2976 49.3254 49.2864C48.9624 49.2765 48.6256 49.0957 48.4169 48.7984L46.0767 45.4667L43.2595 49.4152L44.0075 50.4804L44.0117 50.4864L49.896 58.8641C51.2404 60.7784 53.2495 62.0528 55.5524 62.452C57.787 62.8393 60.0246 62.3413 61.853 61.0494Z" fill="#232323"/>
<path d="M59.0188 43.5144L58.9803 43.7107H58.9803L59.0188 43.5144ZM65.5441 47.5685L65.3848 47.6894L65.3848 47.6894L65.5441 47.5685ZM51.4465 44.8075L51.3445 44.6355L51.3444 44.6355L51.4465 44.8075ZM49.472 46.3056L49.3083 46.4206L49.4422 46.6112L49.6104 46.4501L49.472 46.3056ZM40.371 33.3484L40.174 33.314L40.1598 33.3956L40.2074 33.4634L40.371 33.3484ZM44.4883 9.79873L44.661 9.69779L44.3854 9.22634L44.2913 9.76429L44.4883 9.79873ZM46.8444 22.886L46.6474 22.8516V22.8516L46.8444 22.886ZM44.5036 36.275L44.3066 36.2406L44.3066 36.2406L44.5036 36.275ZM45.4371 37.6038L45.4718 37.4068L45.4716 37.4067L45.4371 37.6038ZM46.7659 36.6705L46.5689 36.6361V36.6361L46.7659 36.6705ZM49.1067 23.2815L48.9097 23.2471V23.2471L49.1067 23.2815ZM44.7417 6.11211L44.585 6.23646V6.23646L44.7417 6.11211ZM43.5595 5.7133L43.6087 5.90713L43.6088 5.90712L43.5595 5.7133ZM42.7113 6.62836L42.5142 6.59389L42.5142 6.59392L42.7113 6.62836ZM38.5044 30.6907L38.3407 30.8056L38.6182 31.201L38.7014 30.7252L38.5044 30.6907ZM29.9187 18.4609L30.0824 18.346L30.0824 18.346L29.9187 18.4609ZM29.8602 18.3844L29.6937 18.4953L29.6997 18.5043L29.7066 18.5125L29.8602 18.3844ZM29.844 18.3607L30.0076 18.2458L30.0076 18.2458L29.844 18.3607ZM24.9214 11.3524L24.7577 11.4673L24.7577 11.4674L24.9214 11.3524ZM23.7644 10.8856L23.7266 10.6892L23.7265 10.6893L23.7644 10.8856ZM22.8638 11.7504L23.0584 11.7963L23.0585 11.7963L22.8638 11.7504ZM26.215 29.1446L26.3787 29.0296L26.3787 29.0296L26.215 29.1446ZM36.2715 43.4623L36.4685 43.4967L36.4828 43.4151L36.4352 43.3474L36.2715 43.4623ZM35.3554 48.7033L35.2916 48.8928L35.5123 48.9671L35.5524 48.7377L35.3554 48.7033ZM33.7681 48.3002L33.7336 48.4972L33.7337 48.4973L33.7681 48.3002ZM25.7004 50.1016L25.5855 49.938H25.5855L25.7004 50.1016ZM21.2687 57.0796L21.4657 57.1141L21.4657 57.1141L21.2687 57.0796ZM23.07 65.1481L22.9063 65.263L22.9063 65.2631L23.07 65.1481ZM30.0482 69.579L30.0827 69.382L30.0827 69.382L30.0482 69.579ZM38.1165 67.7786L38.2315 67.9422L38.2315 67.9422L38.1165 67.7786ZM42.5477 60.7997L42.7447 60.8342V60.8342L42.5477 60.7997ZM43.7239 54.0724L43.8876 53.9574L43.6101 53.5623L43.5269 54.0379L43.7239 54.0724ZM48.017 60.1845L48.1807 60.0696L48.1807 60.0696L48.017 60.1845ZM55.1604 64.7152L55.1263 64.9123L55.1263 64.9123L55.1604 64.7152ZM63.1786 62.9257L63.294 63.0891L63.294 63.0891L63.1786 62.9257ZM67.6198 55.753L67.8174 55.7836L67.8174 55.7836L67.6198 55.753ZM28.0232 19.7571L28.1896 19.6462L28.1837 19.6372L28.1768 19.629L28.0232 19.7571ZM27.9646 19.6806L28.1283 19.5657L28.1283 19.5657L27.9646 19.6806ZM28.03 19.7672L27.8648 19.8799L27.8648 19.8799L28.03 19.7672ZM28.0394 19.7808L28.2031 19.6659L28.2031 19.6658L28.0394 19.7808ZM44.6769 43.4743L44.8397 43.5905L44.9219 43.4753L44.8405 43.3594L44.6769 43.4743ZM41.8596 47.4228L41.696 47.5377L41.8583 47.7689L42.0224 47.5389L41.8596 47.4228ZM28.0941 27.8246L28.2578 27.7096L28.2578 27.7096L28.0941 27.8246ZM24.6621 14.9787L24.8257 14.8638L24.5118 14.4168L24.4629 14.9608L24.6621 14.9787ZM36.7963 65.8989L36.9112 66.0626L36.9112 66.0626L36.7963 65.8989ZM40.2852 60.4039L40.0882 60.3695L40.0882 60.3695L40.2852 60.4039ZM30.4435 67.3164L30.4779 67.1194L30.4779 67.1194L30.4435 67.3164ZM24.9492 63.8275L25.1128 63.7126H25.1128L24.9492 63.8275ZM23.531 57.4747L23.728 57.5092L23.728 57.5092L23.531 57.4747ZM27.0204 51.9806L27.1354 52.1442L27.0204 51.9806ZM33.3728 50.5622L33.4073 50.3652L33.4072 50.3652L33.3728 50.5622ZM35.7242 51.3389L35.814 51.1602H35.814L35.7242 51.3389ZM36.7558 51.3388L36.8456 51.5175L36.8457 51.5175L36.7558 51.3388ZM37.371 50.5107L37.568 50.5452L37.568 50.5452L37.371 50.5107ZM38.1387 46.1201L38.3024 46.0052L38.0248 45.61L37.9417 46.0857L38.1387 46.1201ZM41.8572 51.4144L42.0542 51.4489L42.0684 51.3673L42.0208 51.2995L41.8572 51.4144ZM65.3498 55.4018L65.1522 55.3713V55.3713L65.3498 55.4018ZM61.853 61.0494L61.7376 60.8861L61.7376 60.8861L61.853 61.0494ZM63.7152 48.9566L63.8746 48.8358L63.8745 48.8357L63.7152 48.9566ZM58.5777 45.7681L58.5392 45.9643L58.5393 45.9643L58.5777 45.7681ZM52.6186 46.7828L52.7206 46.9548L52.7206 46.9548L52.6186 46.7828ZM50.2591 48.8485L50.4162 48.9722L50.4163 48.9721L50.2591 48.8485ZM49.3254 49.2864L49.3316 49.0865L49.3309 49.0865L49.3254 49.2864ZM48.4169 48.7984L48.5806 48.6835L48.5806 48.6835L48.4169 48.7984ZM46.0767 45.4667L46.2404 45.3518L46.078 45.1206L45.9139 45.3506L46.0767 45.4667ZM43.2595 49.4152L43.0967 49.299L43.0145 49.4143L43.0958 49.5301L43.2595 49.4152ZM44.0075 50.4804L43.8438 50.5953L43.844 50.5955L44.0075 50.4804ZM44.0117 50.4864L44.1754 50.3714L44.1752 50.3712L44.0117 50.4864ZM49.896 58.8641L50.0596 58.7491L50.0596 58.7491L49.896 58.8641ZM55.5524 62.452L55.5183 62.6491L55.5183 62.6491L55.5524 62.452ZM58.9803 43.7107C61.5455 44.2133 63.8198 45.6267 65.3848 47.6894L65.7034 47.4476C64.0785 45.3059 61.7178 43.8395 59.0573 43.3181L58.9803 43.7107ZM51.5485 44.9795C53.7754 43.659 56.4144 43.2077 58.9803 43.7107L59.0573 43.3181C56.3959 42.7965 53.6567 43.2643 51.3445 44.6355L51.5485 44.9795ZM49.6104 46.4501C50.1948 45.8901 50.843 45.3981 51.5485 44.9795L51.3444 44.6355C50.613 45.0695 49.9403 45.5799 49.3336 46.1612L49.6104 46.4501ZM40.2074 33.4634L49.3083 46.4206L49.6357 46.1907L40.5347 33.2334L40.2074 33.4634ZM44.2913 9.76429L40.174 33.314L40.568 33.3828L44.6853 9.83318L44.2913 9.76429ZM47.0414 22.9204C47.8412 18.3459 46.9766 13.6587 44.661 9.69779L44.3157 9.89967C46.5839 13.7796 47.4308 18.3709 46.6474 22.8516L47.0414 22.9204ZM44.7006 36.3094L47.0414 22.9204L46.6474 22.8516L44.3066 36.2406L44.7006 36.3094ZM45.4716 37.4067C44.9556 37.3167 44.6105 36.8253 44.7007 36.3094L44.3066 36.2406C44.1785 36.974 44.6691 37.6727 45.4027 37.8008L45.4716 37.4067ZM45.6362 37.4213C45.5824 37.4213 45.5273 37.4165 45.4718 37.4068L45.4025 37.8007C45.4808 37.8145 45.5591 37.8213 45.6362 37.8213V37.4213ZM46.5689 36.6361C46.4884 37.0964 46.0882 37.4213 45.6362 37.4213V37.8213C46.2793 37.8213 46.8484 37.36 46.9629 36.705L46.5689 36.6361ZM48.9097 23.2471L46.5689 36.6361L46.9629 36.705L49.3037 23.316L48.9097 23.2471ZM44.585 6.23646C48.3861 11.0247 49.9625 17.225 48.9097 23.2471L49.3037 23.316C50.3762 17.1813 48.7704 10.8655 44.8983 5.98776L44.585 6.23646ZM43.6088 5.90712C43.9711 5.81488 44.3528 5.94399 44.585 6.23646L44.8983 5.98776C44.5683 5.57203 44.0253 5.38832 43.5101 5.51948L43.6088 5.90712ZM42.9083 6.66283C42.9726 6.29498 43.2469 5.99915 43.6087 5.90713L43.5102 5.51947C42.9957 5.6503 42.6057 6.07088 42.5142 6.59389L42.9083 6.66283ZM38.7014 30.7252L42.9083 6.6628L42.5142 6.59392L38.3074 30.6563L38.7014 30.7252ZM29.755 18.5758L38.3407 30.8056L38.6681 30.5758L30.0824 18.346L29.755 18.5758ZM29.7066 18.5125C29.7234 18.5327 29.7396 18.5538 29.7551 18.5758L30.0824 18.346C30.0606 18.3149 30.0377 18.285 30.0138 18.2563L29.7066 18.5125ZM29.6803 18.4757C29.6849 18.4822 29.6893 18.4887 29.6937 18.4953L30.0266 18.2735C30.0204 18.2642 30.0141 18.255 30.0076 18.2458L29.6803 18.4757ZM24.7577 11.4674L29.6803 18.4757L30.0076 18.2458L25.0851 11.2374L24.7577 11.4674ZM23.8021 11.082C24.1693 11.0114 24.5434 11.162 24.7577 11.4673L25.0851 11.2375C24.7799 10.8026 24.2476 10.589 23.7266 10.6892L23.8021 11.082ZM23.0585 11.7963C23.1442 11.4326 23.4357 11.1527 23.8022 11.082L23.7265 10.6893C23.2051 10.7898 22.7909 11.1877 22.6691 11.7045L23.0585 11.7963ZM26.3787 29.0296C22.865 24.0272 21.6549 17.746 23.0584 11.7963L22.6691 11.7045C21.2393 17.7653 22.4721 24.1636 26.0514 29.2595L26.3787 29.0296ZM36.4352 43.3474L26.3787 29.0296L26.0514 29.2595L36.1079 43.5773L36.4352 43.3474ZM35.5524 48.7377L36.4685 43.4967L36.0745 43.4279L35.1584 48.6688L35.5524 48.7377ZM33.7337 48.4973C34.2637 48.5897 34.7842 48.7222 35.2916 48.8928L35.4191 48.5137C34.8927 48.3366 34.3525 48.1992 33.8024 48.1032L33.7337 48.4973ZM25.8154 50.2653C28.1331 48.6374 30.9446 48.0097 33.7336 48.4972L33.8025 48.1032C30.909 47.5974 27.99 48.2491 25.5855 49.938L25.8154 50.2653ZM21.4657 57.1141C21.9534 54.3248 23.4978 51.8932 25.8154 50.2653L25.5855 49.938C23.1811 51.6269 21.5777 54.1514 21.0717 57.0452L21.4657 57.1141ZM23.2336 65.0331C21.6057 62.7155 20.9779 59.9038 21.4657 57.1141L21.0717 57.0452C20.5656 59.9394 21.2174 62.8587 22.9063 65.263L23.2336 65.0331ZM30.0827 69.382C27.2931 68.8944 24.8614 67.3503 23.2336 65.0331L22.9063 65.2631C24.5951 67.667 27.1197 69.2702 30.0138 69.776L30.0827 69.382ZM31.9318 69.5433C31.3182 69.5433 30.7 69.4899 30.0827 69.382L30.0138 69.776C30.6537 69.8879 31.295 69.9433 31.9318 69.9433V69.5433ZM38.0016 67.6149C36.1965 68.8826 34.0919 69.5433 31.9318 69.5433V69.9433C34.1746 69.9433 36.3594 69.2571 38.2315 67.9422L38.0016 67.6149ZM42.3507 60.7653C41.8629 63.5553 40.3188 65.9873 38.0016 67.6149L38.2315 67.9422C40.6355 66.2536 42.2386 63.7287 42.7447 60.8342L42.3507 60.7653ZM43.5269 54.0379L42.3507 60.7653L42.7447 60.8342L43.9209 54.1068L43.5269 54.0379ZM48.1807 60.0696L43.8876 53.9574L43.5603 54.1873L47.8534 60.2995L48.1807 60.0696ZM55.1946 64.5182C52.3383 64.0229 49.8481 62.4436 48.1807 60.0696L47.8534 60.2995C49.5818 62.7604 52.1652 64.3988 55.1263 64.9123L55.1946 64.5182ZM57.0373 64.6778C56.4267 64.6778 55.8107 64.6249 55.1946 64.5182L55.1263 64.9123C55.7647 65.0229 56.4036 65.0778 57.0373 65.0778V64.6778ZM63.0632 62.7624C61.2812 64.0213 59.1917 64.6778 57.0373 64.6778V65.0778C59.274 65.0778 61.4442 64.3959 63.294 63.0891L63.0632 62.7624ZM67.4221 55.7225C66.9792 58.5897 65.4314 61.0889 63.0632 62.7624L63.294 63.0891C65.7508 61.353 67.358 58.7579 67.8174 55.7836L67.4221 55.7225ZM65.3848 47.6894C67.1416 50.0046 67.8647 52.8566 67.4221 55.7225L67.8174 55.7836C68.2766 52.8102 67.5256 49.849 65.7034 47.4476L65.3848 47.6894ZM28.1768 19.629C28.1599 19.6088 28.1437 19.5877 28.1283 19.5657L27.801 19.7956C27.8228 19.8266 27.8457 19.8565 27.8696 19.8852L28.1768 19.629ZM28.1953 19.6546C28.1934 19.6518 28.1915 19.649 28.1896 19.6462L27.8567 19.868C27.8594 19.872 27.8621 19.8759 27.8648 19.8799L28.1953 19.6546ZM28.2031 19.6658C28.2004 19.6621 28.1978 19.6583 28.1953 19.6546L27.8648 19.8799C27.8684 19.8852 27.872 19.8905 27.8757 19.8957L28.2031 19.6658ZM44.8405 43.3594L28.2031 19.6659L27.8757 19.8957L44.5132 43.5893L44.8405 43.3594ZM42.0224 47.5389L44.8397 43.5905L44.514 43.3582L41.6968 47.3066L42.0224 47.5389ZM27.9304 27.9395L41.696 47.5377L42.0233 47.3078L28.2578 27.7096L27.9304 27.9395ZM24.4629 14.9608C24.0518 19.5343 25.2626 24.1413 27.9304 27.9395L28.2578 27.7096C25.6447 23.9894 24.4586 19.4767 24.8612 14.9966L24.4629 14.9608ZM28.1283 19.5657L24.8257 14.8638L24.4984 15.0937L27.801 19.7956L28.1283 19.5657ZM36.9112 66.0626C38.8133 64.7266 40.0819 62.7287 40.4822 60.4384L40.0882 60.3695C39.7061 62.5554 38.4966 64.4603 36.6813 65.7353L36.9112 66.0626ZM30.409 67.5135C32.6995 67.9142 35.0091 67.3985 36.9112 66.0626L36.6813 65.7353C34.866 67.0102 32.6639 67.5019 30.4779 67.1194L30.409 67.5135ZM24.7855 63.9425C26.1217 65.8446 28.1194 67.1132 30.409 67.5135L30.4779 67.1194C28.2928 66.7374 26.388 65.5279 25.1128 63.7126L24.7855 63.9425ZM23.334 57.4403C22.9335 59.7304 23.4492 62.0402 24.7855 63.9425L25.1128 63.7126C23.8375 61.8971 23.3458 59.6948 23.728 57.5092L23.334 57.4403ZM26.9055 51.8169C25.003 53.1532 23.7343 55.1508 23.334 57.4403L23.728 57.5092C24.11 55.3242 25.3197 53.4196 27.1354 52.1442L26.9055 51.8169ZM33.4072 50.3652C31.1179 49.9651 28.808 50.4806 26.9055 51.8169L27.1354 52.1442C28.9511 50.8689 31.1535 50.3774 33.3384 50.7593L33.4072 50.3652ZM35.814 51.1602C35.0559 50.7794 34.2459 50.5119 33.4073 50.3652L33.3384 50.7593C34.1387 50.8992 34.9114 51.1544 35.6345 51.5177L35.814 51.1602ZM36.666 51.1601C36.3979 51.2948 36.0822 51.2949 35.814 51.1602L35.6345 51.5177C36.0157 51.7092 36.4646 51.709 36.8456 51.5175L36.666 51.1601ZM37.174 50.4762C37.1223 50.7717 36.9338 51.0253 36.6659 51.1602L36.8457 51.5175C37.2266 51.3258 37.4945 50.9653 37.568 50.5452L37.174 50.4762ZM37.9417 46.0857L37.174 50.4763L37.568 50.5452L38.3357 46.1546L37.9417 46.0857ZM42.0208 51.2995L38.3024 46.0052L37.975 46.2351L41.6935 51.5294L42.0208 51.2995ZM40.4822 60.4384L42.0542 51.4489L41.6602 51.38L40.0882 60.3695L40.4822 60.4384ZM65.1522 55.3713C64.8051 57.6175 63.5928 59.5753 61.7376 60.8861L61.9684 61.2127C63.9123 59.8394 65.1839 57.7857 65.5475 55.4324L65.1522 55.3713ZM63.5559 49.0775C64.9324 50.8923 65.4991 53.1266 65.1522 55.3713L65.5475 55.4324C65.911 53.0802 65.3164 50.7367 63.8746 48.8358L63.5559 49.0775ZM58.5393 45.9643C60.5508 46.3585 62.3321 47.4645 63.5559 49.0775L63.8745 48.8357C62.5907 47.1435 60.7229 45.9846 58.6162 45.5718L58.5393 45.9643ZM52.7206 46.9548C54.4614 45.9223 56.528 45.5699 58.5392 45.9643L58.6162 45.5718C56.5098 45.1587 54.343 45.5275 52.5165 46.6108L52.7206 46.9548ZM50.4163 48.9721C51.0532 48.1626 51.8282 47.484 52.7206 46.9548L52.5166 46.6108C51.5821 47.1649 50.7695 47.8762 50.1019 48.7248L50.4163 48.9721ZM49.3193 49.4863C49.7481 49.4995 50.153 49.3064 50.4162 48.9722L50.102 48.7247C49.9159 48.9609 49.6315 49.0957 49.3316 49.0865L49.3193 49.4863ZM48.2532 48.9133C48.4982 49.2624 48.8938 49.4748 49.32 49.4863L49.3309 49.0865C49.0311 49.0783 48.7529 48.929 48.5806 48.6835L48.2532 48.9133ZM45.9131 45.5817L48.2533 48.9134L48.5806 48.6835L46.2404 45.3518L45.9131 45.5817ZM43.4223 49.5313L46.2395 45.5829L45.9139 45.3506L43.0967 49.299L43.4223 49.5313ZM44.1712 50.3654L43.4232 49.3002L43.0958 49.5301L43.8438 50.5953L44.1712 50.3654ZM44.1752 50.3712L44.171 50.3652L43.844 50.5955L43.8482 50.6016L44.1752 50.3712ZM50.0596 58.7491L44.1754 50.3714L43.8481 50.6013L49.7323 58.979L50.0596 58.7491ZM55.5866 62.2549C53.3361 61.8648 51.3736 60.62 50.0596 58.7491L49.7323 58.979C51.1073 60.9368 53.163 62.2407 55.5183 62.6491L55.5866 62.2549ZM61.7376 60.8861C59.9533 62.1468 57.7695 62.6333 55.5866 62.2549L55.5183 62.6491C57.8044 63.0453 60.096 62.5357 61.9684 61.2127L61.7376 60.8861Z" fill="#232323"/>
<path d="M22.3142 44.4431L22.306 44.3971C22.0277 42.8493 20.6843 41.7258 19.1117 41.7258H13.2743C12.2141 41.7258 11.2402 41.3244 10.6408 40.7061H18.142C18.7761 40.7061 19.2903 40.1921 19.2903 39.5578C19.2903 38.9236 18.7762 38.4095 18.142 38.4095H9.78916C9.65163 37.7538 9.52393 37.0974 9.40622 36.4406H17.4912C18.1253 36.4406 18.6395 35.9266 18.6395 35.2923C18.6395 34.6581 18.1255 34.144 17.4912 34.144H9.03338C8.93891 33.4886 8.8536 32.8329 8.77868 32.1767H17.2309C17.865 32.1767 18.3792 31.6626 18.3792 31.0284C18.3792 30.3943 17.8651 29.8801 17.2309 29.8801H8.55801C8.50592 29.2241 8.46368 28.5677 8.43114 27.9112H17.2309C17.865 27.9112 18.3792 27.3971 18.3792 26.7629C18.3792 26.1286 17.8651 25.6146 17.2309 25.6146H8.35567C8.34582 24.9582 8.34582 24.3021 8.35567 23.6457H17.3168C17.9509 23.6457 18.4651 23.1316 18.4651 22.4974C18.4651 21.8631 17.951 21.3491 17.3168 21.3491H8.43114C8.46354 20.6932 8.50579 20.0373 8.55788 19.3817H17.4912C18.1253 19.3817 18.6395 18.8676 18.6395 18.2334C18.6395 17.5992 18.1255 17.0851 17.4912 17.0851H8.77854C8.8536 16.4284 8.93877 15.7723 9.03352 15.1162H17.7623C18.3964 15.1162 18.9106 14.6021 18.9106 13.9679C18.9106 13.3337 18.3966 12.8196 17.7623 12.8196H9.40622C9.52407 12.1628 9.65162 11.5064 9.7893 10.8507H18.142C18.7761 10.8507 19.2903 10.3367 19.2903 9.70242C19.2903 9.06832 18.7762 8.55412 18.142 8.55412H10.6405C11.2399 7.93588 12.2141 7.53434 13.2741 7.53434H19.1116C20.6855 7.53434 22.0289 6.41037 22.3062 4.86148L22.3137 4.81951C22.4846 3.87123 22.228 2.90299 21.6097 2.16348C20.9914 1.42424 20.0837 1 19.1193 1H8.17944C5.53215 1 3.19672 2.79197 2.50014 5.35764C1.19516 10.1658 0.252485 25.1552 1.81122 51.1442C1.84922 51.7771 2.39377 52.2609 3.0261 52.2216C3.65911 52.1836 4.14159 51.6397 4.10358 51.0065C2.88473 30.6815 2.90948 12.6167 4.71663 5.9592C5.14209 4.39158 6.56629 3.2966 8.17944 3.2966H19.1193C19.5054 3.2966 19.7415 3.51002 19.8478 3.6373C19.9539 3.76432 20.1218 4.03393 20.0509 4.42822L20.0455 4.45816C19.9646 4.91057 19.5718 5.23883 19.1116 5.23883H13.2741C10.6282 5.23883 8.34022 6.8383 7.83395 9.04207C5.45668 19.3861 5.45668 29.8755 7.83395 40.2194C8.34022 42.4232 10.6282 44.0227 13.2741 44.0227H19.1116C19.5714 44.0227 19.9642 44.3512 20.0455 44.8032L20.0537 44.8493C20.122 45.2287 19.9542 45.4981 19.848 45.6249C19.7419 45.7517 19.5063 45.9647 19.1209 45.9647H15.2791C13.0673 45.9647 11.2089 47.6927 11.0483 49.899L9.83373 66.5998C9.74801 67.7796 8.75407 68.7038 7.57118 68.7038C6.39334 68.7038 5.42237 67.8196 5.31258 66.6471C4.99047 63.2081 4.51565 57.7663 4.08334 51.3714C4.04069 50.7387 3.49122 50.2599 2.86026 50.3032C2.22752 50.3459 1.74942 50.8936 1.79207 51.5263C2.22616 57.9458 2.70276 63.4088 3.0261 66.8613C3.24704 69.221 5.20102 71.0004 7.57118 71.0004C9.95159 71.0004 11.9514 69.1406 12.1243 66.7665L13.3389 50.0658C13.4125 49.054 14.2648 48.2615 15.2792 48.2615H19.121C20.0845 48.2611 20.9918 47.8371 21.6099 47.0979C22.2278 46.3586 22.4846 45.3908 22.3142 44.4431Z" fill="#232323" stroke="#232323" stroke-width="0.4"/>
<path fill-rule="evenodd" clip-rule="evenodd" d="M28.0483 53.4425C29.5161 52.4115 31.2974 52.0138 33.0647 52.3228C36.7122 52.9606 39.1609 56.4468 38.5233 60.0947C38.2143 61.8617 37.2358 63.4026 35.7679 64.4336C34.6245 65.2364 33.2909 65.6553 31.9222 65.6553C31.5337 65.6553 31.1423 65.6214 30.7515 65.5532C27.1041 64.9156 24.6552 61.4291 25.2929 57.7814C25.6019 56.0145 26.5804 54.4735 28.0483 53.4425ZM31.1469 63.2909C33.5481 63.7115 35.8414 62.0993 36.261 59.6991C36.6807 57.2988 35.0694 55.0047 32.6691 54.585C30.2684 54.1652 27.9746 55.7766 27.555 58.1768C27.1353 60.5772 28.7467 62.8713 31.1469 63.2909Z" fill="#232323"/>
<path d="M41.5334 40.9788C41.1008 40.7495 40.5561 40.8208 40.2009 41.1594C39.8001 41.5415 39.7349 42.1677 40.0384 42.6284C40.5977 43.478 41.9489 43.1809 42.1225 42.1874C42.2067 41.7056 41.9663 41.2082 41.5334 40.9788Z" fill="black"/>
</svg>
