<svg width="22" height="20" viewBox="0 0 22 20" fill="none" xmlns="http://www.w3.org/2000/svg">
<path fill-rule="evenodd" clip-rule="evenodd" d="M13.2792 0.0175781H1.99379C0.900721 0.0175781 0.0114228 0.906833 0.0114228 1.9999C0.0114228 5.30133 0.00702338 7.80275 0.00368509 9.70083C-0.00624725 15.3482 -0.00678602 15.6545 0.145889 15.7994C0.154646 15.8077 0.163907 15.8155 0.173699 15.8237L0.173717 15.8237L0.173755 15.8238C0.187214 15.8351 0.201676 15.8472 0.217212 15.8628C1.20907 16.8546 1.95334 17.6001 2.5135 18.1612L2.51365 18.1613L2.51375 18.1614C4.15109 19.8015 4.21529 19.8658 4.29265 19.9019L4.30229 19.9063L4.30231 19.9063C4.30832 19.909 4.31477 19.9119 4.3223 19.9156C4.33354 19.9213 4.34254 19.9265 4.35092 19.9314L4.36346 19.9386C4.46869 19.9969 4.60629 19.9968 8.2241 19.9929H8.22422H8.22433H8.22501H8.22584C9.45993 19.9916 11.0988 19.9899 13.2791 19.9899C14.3722 19.9899 15.2615 19.1006 15.2615 18.0075V1.9999C15.2616 0.906833 14.3723 0.0175781 13.2792 0.0175781ZM3.93331 17.594L2.40739 16.0681H3.93331V17.594ZM13.2792 18.5863C13.5984 18.5863 13.858 18.3267 13.858 18.0075V1.9999C13.858 1.68074 13.5984 1.42109 13.2792 1.42109H1.99379C1.67458 1.42109 1.41493 1.68074 1.41493 1.9999V14.6645H4.63506C5.02261 14.6645 5.33682 14.9787 5.33682 15.3663V18.5863H13.2792ZM18.5137 1.9999V18.0076C18.5137 19.1006 17.6244 19.9899 16.5313 19.9899C16.1438 19.9899 15.8296 19.6757 15.8296 19.2881C15.8296 18.9006 16.1438 18.5864 16.5313 18.5864C16.8505 18.5864 17.1102 18.3267 17.1102 18.0076V1.9999C17.1102 1.68074 16.8505 1.42109 16.5313 1.42109C16.1438 1.42109 15.8296 1.10692 15.8296 0.719333C15.8296 0.331745 16.1438 0.0175781 16.5313 0.0175781C17.6244 0.0175781 18.5137 0.906833 18.5137 1.9999ZM21.7658 18.0076V1.9999C21.7658 0.906833 20.8766 0.0175781 19.7834 0.0175781C19.3959 0.0175781 19.0817 0.331745 19.0817 0.719333C19.0817 1.10692 19.3959 1.42109 19.7834 1.42109C20.1027 1.42109 20.3623 1.68074 20.3623 1.9999V18.0076C20.3623 18.3267 20.1026 18.5864 19.7834 18.5864C19.3959 18.5864 19.0817 18.9006 19.0817 19.2881C19.0817 19.6757 19.3959 19.9899 19.7834 19.9899C20.8766 19.9899 21.7658 19.1006 21.7658 18.0076Z" fill="#232323"/>
</svg>
