<svg width="80" height="95" viewBox="0 0 80 95" fill="none" xmlns="http://www.w3.org/2000/svg">
<path fill-rule="evenodd" clip-rule="evenodd" d="M39.0142 45.7433C45.2984 45.7433 50.7394 43.4894 55.1864 39.0424C59.6319 34.5962 61.8865 29.1559 61.8865 22.8709C61.8865 16.5881 59.6326 11.1471 55.1856 6.69942C50.7387 2.25391 45.2977 0 39.0142 0C32.7291 0 27.2889 2.25391 22.8427 6.70015C18.3964 11.1464 16.1418 16.5874 16.1418 22.8709C16.1418 29.1559 18.3964 34.5969 22.8427 39.0431C27.2903 43.4886 32.7313 45.7433 39.0142 45.7433ZM26.7781 10.6349C30.1898 7.22323 34.1919 5.56486 39.0142 5.56486C43.8357 5.56486 47.8385 7.22323 51.2509 10.6349C54.6626 14.0473 56.3217 18.0501 56.3217 22.8709C56.3217 27.6932 54.6626 31.6953 51.2509 35.1077C47.8385 38.52 43.8357 40.1784 39.0142 40.1784C34.1934 40.1784 30.1912 38.5193 26.7781 35.1077C23.3657 31.696 21.7066 27.6932 21.7066 22.8709C21.7066 18.0501 23.3657 14.0473 26.7781 10.6349ZM79.0346 73.0206C78.9064 71.1702 78.647 69.1518 78.2652 67.0203C77.8798 64.8729 77.3835 62.8428 76.7894 60.9874C76.175 59.0697 75.3411 57.1758 74.3087 55.361C73.2387 53.4773 71.9809 51.837 70.5696 50.4873C69.0938 49.0752 67.2869 47.9399 65.1975 47.1119C63.1153 46.2881 60.8077 45.8708 58.3394 45.8708C57.37 45.8708 56.4325 46.2685 54.622 47.4473C53.5077 48.174 52.2043 49.0144 50.7495 49.9439C49.5056 50.7365 47.8204 51.4791 45.7389 52.1515C43.7082 52.8086 41.6462 53.1418 39.6104 53.1418C37.576 53.1418 35.5141 52.8086 33.4819 52.1515C31.4026 51.4798 29.7167 50.7372 28.4749 49.9446C27.0339 49.0238 25.7298 48.1834 24.5988 47.4466C22.7898 46.2678 21.8523 45.8701 20.8829 45.8701C18.4138 45.8701 16.107 46.2881 14.0255 47.1126C11.9375 47.9392 10.1299 49.0745 8.65267 50.488C7.24135 51.8385 5.98362 53.478 4.91426 55.361C3.8833 57.1758 3.04868 59.0689 2.43431 60.9881C1.84095 62.8436 1.34467 64.8729 0.959234 67.0203C0.576699 69.1489 0.318054 71.168 0.189818 73.0228C0.0637557 74.8362 0 76.7235 0 78.6304C0 83.5874 1.57578 87.6004 4.68315 90.5599C7.75212 93.4804 11.8122 94.9612 16.7511 94.9612H62.4755C67.413 94.9612 71.4731 93.4804 74.5427 90.5599C77.6508 87.6025 79.2266 83.5881 79.2266 78.6296C79.2259 76.7162 79.1614 74.8289 79.0346 73.0206ZM70.7058 86.5281C68.6779 88.4582 65.9857 89.3964 62.4748 89.3964H16.7511C13.2395 89.3964 10.5472 88.4582 8.52008 86.5288C6.53134 84.6357 5.56486 82.0514 5.56486 78.6304C5.56486 76.851 5.62354 75.0941 5.74091 73.4075C5.85538 71.7527 6.0894 69.935 6.43643 68.0034C6.77912 66.0958 7.21526 64.3056 7.734 62.6849C8.23173 61.1309 8.91059 59.592 9.75245 58.1097C10.5559 56.6969 11.4804 55.4849 12.5005 54.5082C13.4546 53.5947 14.6573 52.847 16.0744 52.2862C17.385 51.7675 18.8579 51.4835 20.4569 51.4407C20.6518 51.5443 20.9988 51.7421 21.561 52.1087C22.705 52.8542 24.0236 53.7048 25.4813 54.6357C27.1244 55.6834 29.2414 56.6296 31.7706 57.4461C34.3564 58.2821 36.9935 58.7067 39.6111 58.7067C42.2287 58.7067 44.8666 58.2821 47.4509 57.4468C49.9823 56.6288 52.0986 55.6834 53.7439 54.6343C55.2356 53.6809 56.5173 52.8549 57.6612 52.1087C58.2235 51.7428 58.5705 51.5443 58.7654 51.4407C60.3651 51.4835 61.838 51.7675 63.1493 52.2862C64.5657 52.847 65.7684 53.5954 66.7225 54.5082C67.7426 55.4841 68.6671 56.6962 69.4705 58.1104C70.3131 59.592 70.9927 61.1316 71.4897 62.6842C72.0092 64.3071 72.4461 66.0966 72.788 68.0027C73.1343 69.9379 73.3691 71.7563 73.4835 73.4082V73.4096C73.6016 75.0897 73.661 76.8459 73.6618 78.6304C73.661 82.0522 72.6946 84.6357 70.7058 86.5281Z" fill="white"/>
</svg>
