<svg width="54" height="50" viewBox="0 0 54 50" fill="none" xmlns="http://www.w3.org/2000/svg">
<path fill-rule="evenodd" clip-rule="evenodd" d="M50.0655 13.2853H39.505C40.2627 12.768 40.9135 12.2539 41.3675 11.7933C44.0576 9.08647 44.0576 4.68071 41.3675 1.97383C38.754 -0.656275 34.1947 -0.659613 31.578 1.97383C30.1328 3.42573 26.2911 9.3368 26.8218 13.2853H26.5814C27.1088 9.3368 23.2704 3.42573 21.8252 1.97383C19.2085 -0.659613 14.6492 -0.656275 12.0357 1.97383C9.34556 4.68071 9.34556 9.08647 12.0324 11.7933C12.4897 12.2539 13.1405 12.768 13.8982 13.2853H3.3377C1.49863 13.2853 0 14.7839 0 16.623V24.9672C0 25.8885 0.747645 26.6361 1.66885 26.6361H3.3377V46.6623C3.3377 48.5014 4.83633 50 6.6754 50H46.7278C48.5669 50 50.0655 48.5014 50.0655 46.6623V26.6361H51.7344C52.6556 26.6361 53.4032 25.8885 53.4032 24.9672V16.623C53.4032 14.7839 51.9046 13.2853 50.0655 13.2853ZM14.4022 4.32691C15.0797 3.64602 15.9776 3.2722 16.9322 3.2722C17.8834 3.2722 18.7812 3.64602 19.4588 4.32691C21.7084 6.58987 23.9447 12.3708 23.167 13.1752C23.167 13.1752 23.0268 13.2853 22.5495 13.2853C20.2432 13.2853 15.8407 10.8888 14.4022 9.44027C13.0037 8.03176 13.0037 5.73542 14.4022 4.32691ZM6.6754 46.6623H25.0328V26.6361H6.6754V46.6623ZM25.0328 23.2984H3.3377V16.623H22.5495H25.0328V23.2984ZM39.001 4.32691C37.6493 2.97181 35.2995 2.96847 33.9444 4.32691C31.6948 6.58987 29.4585 12.3708 30.2329 13.1752C30.2362 13.1785 30.3764 13.2853 30.8537 13.2853C33.16 13.2853 37.5625 10.8888 39.001 9.44027C40.3995 8.03176 40.3995 5.73542 39.001 4.32691ZM46.7278 46.6623H28.3705V26.6361H46.7278V46.6623ZM28.3705 23.2984H50.0655V16.623H30.8537H28.3705V23.2984Z" fill="white"/>
</svg>
