<svg width="106" height="96" viewBox="0 0 106 96" fill="none" xmlns="http://www.w3.org/2000/svg">
<path fill-rule="evenodd" clip-rule="evenodd" d="M94.3274 0.34082H11.525C5.25446 0.34082 0.152344 4.94043 0.152344 10.595V70.3216C0.152344 75.9755 5.25446 80.5758 11.525 80.5758H28.9001L17.6184 90.7479C16.4113 91.8363 16.4113 93.6021 17.6184 94.6905C18.2224 95.235 19.0139 95.5073 19.8047 95.5073C20.5963 95.5073 21.3878 95.235 21.9918 94.6905L37.646 80.5758H68.2056L83.8598 94.6905C84.4637 95.235 85.2553 95.5073 86.0461 95.5073C86.8376 95.5073 87.6292 95.235 88.2332 94.6905C89.4402 93.6021 89.4402 91.837 88.2332 90.7479L76.9507 80.5758H94.3265C100.597 80.5758 105.698 75.9755 105.698 70.3216V10.595C105.699 4.94043 100.598 0.34082 94.3274 0.34082ZM100.201 70.2102C100.201 72.7792 97.8672 74.8688 94.9985 74.8688H11.9525C9.08302 74.8688 6.74897 72.7792 6.74897 70.2102V10.7323C6.74897 8.16332 9.08302 6.07374 11.9525 6.07374H94.9985C97.8672 6.07374 100.201 8.16332 100.201 10.7323V70.2102ZM60.1404 41.7081C61.5706 40.5091 61.5706 38.3092 60.1404 37.1102L49.887 28.5139C47.9347 26.8771 44.9596 28.2652 44.9596 30.8129V48.0055C44.9596 50.5531 47.9347 51.9412 49.887 50.3044L60.1404 41.7081Z" fill="white"/>
</svg>
