<svg width="89" height="82" viewBox="0 0 89 82" fill="none" xmlns="http://www.w3.org/2000/svg">
<g filter="url(#filter0_d)">
<mask id="path-1-inside-1" fill="white">
<path fill-rule="evenodd" clip-rule="evenodd" d="M17.9792 23.6589V27.0052H12.9792H11.9896C10.3354 27.0052 8.99479 28.3458 8.99479 30C8.99479 31.6542 10.3354 32.9948 11.9896 32.9948H12.9792H17.9792V37.9948V66.7057C17.9792 66.7385 17.9814 66.7706 17.9835 66.8026C17.9847 66.8202 17.9859 66.8378 17.9868 66.8555C17.9859 66.8731 17.9847 66.8907 17.9835 66.9083C17.9814 66.9403 17.9792 66.9724 17.9792 67.0052C17.9792 68.6594 19.3198 70 20.974 70H60.2057C61.8599 70 63.2005 68.6594 63.2005 67.0052C63.2005 65.3511 61.8599 64.0104 60.2057 64.0104H28.9688H23.9688V59.0104V37.9948V32.9948H28.9688H42.8359H48.8255H63.2005C64.8547 32.9948 66.1953 31.6542 66.1953 30C66.1953 29.9095 66.1913 29.82 66.1834 29.7315C66.1484 29.3365 66.0366 28.9635 65.8631 28.6276C65.3655 27.6639 64.36 27.0052 63.2005 27.0052H28.9688H23.9688V23.6589V22.9688V22.0052V17.9688H28.9688H73.6823C78.6366 17.9688 82.6667 13.9387 82.6667 8.98438C82.6667 4.0301 78.6366 0 73.6823 0H14.9844C10.0301 0 6 4.0301 6 8.98438C6 13.9387 10.0301 17.9688 14.9844 17.9688H17.9792V22.0052V22.9688V23.6589ZM71.0197 28.3255C70.8462 27.9896 70.7345 27.6167 70.6994 27.2216C70.6915 27.1332 70.6875 27.0436 70.6875 26.9531C70.6875 25.299 72.0281 23.9583 73.6823 23.9583C75.3364 23.9583 76.6771 25.299 76.6771 26.9531C76.6771 28.0796 76.0553 29.0607 75.1363 29.572C74.7057 29.8115 74.21 29.9479 73.6823 29.9479C73.1546 29.9479 72.6588 29.8115 72.2283 29.572C71.7128 29.2852 71.2909 28.8506 71.0197 28.3255ZM73.6823 34.4401C74.21 34.4401 74.7057 34.5765 75.1363 34.816C76.0553 35.3273 76.6771 36.3084 76.6771 37.4349C76.6771 38.5614 76.0553 39.5425 75.1363 40.0538C74.7057 40.2933 74.21 40.4297 73.6823 40.4297C73.1546 40.4297 72.6588 40.2933 72.2283 40.0538C71.3092 39.5425 70.6875 38.5614 70.6875 37.4349C70.6875 36.3084 71.3092 35.3273 72.2283 34.816C72.6588 34.5765 73.1546 34.4401 73.6823 34.4401ZM73.6823 44.9219C74.21 44.9219 74.7057 45.0583 75.1363 45.2978C76.0553 45.8091 76.6771 46.7902 76.6771 47.9167C76.6771 48.6241 76.4318 49.2743 76.0217 49.7867C75.473 50.4724 74.629 50.9115 73.6823 50.9115C72.7356 50.9115 71.8916 50.4724 71.3429 49.7867C70.9327 49.2743 70.6875 48.6241 70.6875 47.9167C70.6875 46.7902 71.3092 45.8091 72.2283 45.2978C72.6588 45.0583 73.1546 44.9219 73.6823 44.9219ZM75.6875 47.9167C75.6875 48.6084 75.337 49.2185 74.8039 49.579C74.4356 49.5388 74.0613 49.5182 73.6823 49.5182C73.3032 49.5182 72.929 49.5388 72.5606 49.579C72.0276 49.2185 71.6771 48.6084 71.6771 47.9167C71.6771 46.8094 72.575 45.9115 73.6823 45.9115C74.7896 45.9115 75.6875 46.8094 75.6875 47.9167ZM73.6823 54.5182C74.7449 54.5182 75.7336 54.8345 76.5595 55.3781C77.9833 56.3151 78.9232 57.9275 78.9232 59.7591C78.9232 62.6533 76.5765 65 73.6823 65C70.7881 65 68.4414 62.6533 68.4414 59.7591C68.4414 57.9275 69.3813 56.3151 70.805 55.3781C71.631 54.8345 72.6197 54.5182 73.6823 54.5182ZM73.9232 59.7591C73.9232 59.8919 73.8151 60 73.6823 60C73.5495 60 73.4414 59.8919 73.4414 59.7591C73.4414 59.6264 73.5495 59.5182 73.6823 59.5182C73.8151 59.5182 73.9232 59.6264 73.9232 59.7591ZM75.6875 37.4349C75.6875 38.5422 74.7896 39.4401 73.6823 39.4401C72.575 39.4401 71.6771 38.5422 71.6771 37.4349C71.6771 36.3276 72.575 35.4297 73.6823 35.4297C74.7896 35.4297 75.6875 36.3276 75.6875 37.4349ZM75.6875 26.9531C75.6875 28.0604 74.7896 28.9583 73.6823 28.9583C72.575 28.9583 71.6771 28.0604 71.6771 26.9531C71.6771 25.8459 72.575 24.9479 73.6823 24.9479C74.7896 24.9479 75.6875 25.8459 75.6875 26.9531ZM73.6823 11.9792H14.9844C13.3331 11.9792 11.9896 10.6356 11.9896 8.98438C11.9896 7.33315 13.3331 5.98958 14.9844 5.98958H73.6823C75.3335 5.98958 76.6771 7.33315 76.6771 8.98438C76.6771 10.6356 75.3335 11.9792 73.6823 11.9792ZM50.949 46.3974L46.3737 50.9727V39.6437C46.3737 38.1844 45.1893 37 43.73 37C42.2707 37 41.0863 38.1844 41.0863 39.6437V50.9714L36.5145 46.3974C35.4817 45.3646 33.8074 45.3646 32.7746 46.3974C31.7418 47.4302 31.7418 49.1045 32.7746 50.1373L41.8618 59.2245C42.3764 59.7427 43.0532 60 43.73 60C44.4068 60 45.0836 59.7427 45.5982 59.2245L54.6889 50.1373C55.7217 49.1045 55.7217 47.4302 54.6889 46.3974C53.6561 45.3646 51.9818 45.3646 50.949 46.3974Z"/>
</mask>
<path d="M17.9792 27.0052V32.0052H22.9792V27.0052H17.9792ZM17.9792 32.9948H22.9792V27.9948H17.9792V32.9948ZM17.9835 66.8026L22.9719 66.4623L22.9719 66.4623L17.9835 66.8026ZM17.9868 66.8555L22.9812 67.0905L22.9923 66.8555L22.9812 66.6205L17.9868 66.8555ZM17.9835 66.9083L22.9719 67.2487L22.9719 67.2486L17.9835 66.9083ZM23.9688 64.0104H18.9688V69.0104H23.9688V64.0104ZM23.9688 32.9948V27.9948H18.9688V32.9948H23.9688ZM66.1834 29.7315L61.2031 30.1739L61.2031 30.174L66.1834 29.7315ZM65.8631 28.6276L70.3057 26.3334L70.3057 26.3334L65.8631 28.6276ZM23.9688 27.0052H18.9688V32.0052H23.9688V27.0052ZM23.9688 17.9688V12.9688H18.9688V17.9688H23.9688ZM17.9792 17.9688H22.9792V12.9688H17.9792V17.9688ZM70.6994 27.2216L75.6798 26.7793L75.6798 26.7791L70.6994 27.2216ZM71.0197 28.3255L75.4623 26.0313L75.4623 26.0313L71.0197 28.3255ZM75.1363 29.572L77.567 33.9414L77.567 33.9414L75.1363 29.572ZM72.2283 29.572L69.7976 33.9414L69.7976 33.9414L72.2283 29.572ZM75.1363 34.816L77.567 30.4467L77.567 30.4467L75.1363 34.816ZM75.1363 40.0538L77.567 44.4231L77.567 44.4231L75.1363 40.0538ZM72.2283 40.0538L74.6591 35.6844L74.6591 35.6844L72.2283 40.0538ZM72.2283 34.816L74.6591 39.1854L74.6591 39.1854L72.2283 34.816ZM75.1363 45.2978L77.567 40.9284L77.567 40.9284L75.1363 45.2978ZM76.0217 49.7867L72.1181 46.6624L76.0217 49.7867ZM71.3429 49.7867L75.2465 46.6624L71.3429 49.7867ZM72.2283 45.2978L74.6591 49.6672L74.6591 49.6672L72.2283 45.2978ZM74.8039 49.579L74.2624 54.5495L76.0855 54.7482L77.6046 53.721L74.8039 49.579ZM72.5606 49.579L69.7599 53.721L71.2791 54.7482L73.1022 54.5495L72.5606 49.579ZM76.5595 55.3781L79.3083 51.2015L79.3083 51.2015L76.5595 55.3781ZM70.805 55.3781L68.0562 51.2015L68.0562 51.2015L70.805 55.3781ZM46.3737 50.9727H41.3737V63.0438L49.9092 54.5083L46.3737 50.9727ZM50.949 46.3974L54.4845 49.9329L54.4845 49.9329L50.949 46.3974ZM41.0863 50.9714L37.5499 54.5061L46.0863 63.0467V50.9714H41.0863ZM36.5145 46.3974L40.0509 42.8627L40.0501 42.8619L36.5145 46.3974ZM32.7746 46.3974L36.3101 49.9329L36.3101 49.9329L32.7746 46.3974ZM32.7746 50.1373L36.3101 46.6018L36.3101 46.6018L32.7746 50.1373ZM41.8618 59.2245L45.4094 55.7011L45.4034 55.695L45.3973 55.689L41.8618 59.2245ZM45.5982 59.2245L42.0634 55.6883L42.057 55.6947L42.0506 55.7011L45.5982 59.2245ZM54.6889 50.1373L58.2238 53.6735L58.2245 53.6729L54.6889 50.1373ZM54.6889 46.3974L51.1534 49.9329L51.1534 49.9329L54.6889 46.3974ZM22.9792 27.0052V23.6589H12.9792V27.0052H22.9792ZM12.9792 32.0052H17.9792V22.0052H12.9792V32.0052ZM11.9896 32.0052H12.9792V22.0052H11.9896V32.0052ZM13.9948 30C13.9948 31.1073 13.0969 32.0052 11.9896 32.0052V22.0052C7.57401 22.0052 3.99479 25.5844 3.99479 30H13.9948ZM11.9896 27.9948C13.0969 27.9948 13.9948 28.8927 13.9948 30H3.99479C3.99479 34.4156 7.574 37.9948 11.9896 37.9948V27.9948ZM12.9792 27.9948H11.9896V37.9948H12.9792V27.9948ZM17.9792 27.9948H12.9792V37.9948H17.9792V27.9948ZM22.9792 37.9948V32.9948H12.9792V37.9948H22.9792ZM22.9792 66.7057V37.9948H12.9792V66.7057H22.9792ZM22.9719 66.4623C22.9704 66.4393 22.9723 66.4663 22.9741 66.5005C22.9761 66.5398 22.9792 66.6126 22.9792 66.7057H12.9792C12.9792 66.9364 12.9947 67.1367 12.9951 67.1429L22.9719 66.4623ZM22.9812 66.6205C22.9775 66.5414 22.9726 66.4712 22.9719 66.4623L12.9951 67.1429C12.9955 67.1478 12.9955 67.149 12.9956 67.1495C12.9956 67.1497 12.9954 67.1472 12.9952 67.143C12.9947 67.1349 12.9935 67.116 12.9923 67.0905L22.9812 66.6205ZM22.9719 67.2486C22.9726 67.2397 22.9775 67.1695 22.9812 67.0905L12.9923 66.6205C12.9935 66.595 12.9947 66.576 12.9952 66.568C12.9954 66.5638 12.9956 66.5612 12.9956 66.5614C12.9955 66.562 12.9955 66.5631 12.9951 66.5681L22.9719 67.2486ZM22.9792 67.0052C22.9792 67.0984 22.9761 67.1711 22.9741 67.2105C22.9723 67.2447 22.9704 67.2717 22.9719 67.2487L12.9951 66.568C12.9947 66.5742 12.9792 66.7745 12.9792 67.0052H22.9792ZM20.974 65C22.0812 65 22.9792 65.8979 22.9792 67.0052H12.9792C12.9792 71.4208 16.5584 75 20.974 75V65ZM60.2057 65H20.974V75H60.2057V65ZM58.2005 67.0052C58.2005 65.8979 59.0985 65 60.2057 65V75C64.6213 75 68.2005 71.4208 68.2005 67.0052H58.2005ZM60.2057 69.0104C59.0984 69.0104 58.2005 68.1125 58.2005 67.0052H68.2005C68.2005 62.5897 64.6213 59.0104 60.2057 59.0104V69.0104ZM28.9688 69.0104H60.2057V59.0104H28.9688V69.0104ZM23.9688 69.0104H28.9688V59.0104H23.9688V69.0104ZM18.9688 59.0104V64.0104H28.9688V59.0104H18.9688ZM18.9688 37.9948V59.0104H28.9688V37.9948H18.9688ZM18.9688 32.9948V37.9948H28.9688V32.9948H18.9688ZM28.9688 27.9948H23.9688V37.9948H28.9688V27.9948ZM42.8359 27.9948H28.9688V37.9948H42.8359V27.9948ZM48.8255 27.9948H42.8359V37.9948H48.8255V27.9948ZM63.2005 27.9948H48.8255V37.9948H63.2005V27.9948ZM61.1953 30C61.1953 28.8927 62.0933 27.9948 63.2005 27.9948V37.9948C67.6161 37.9948 71.1953 34.4156 71.1953 30H61.1953ZM61.2031 30.174C61.1979 30.1154 61.1953 30.0573 61.1953 30H71.1953C71.1953 29.7617 71.1848 29.5246 71.1638 29.289L61.2031 30.174ZM61.4205 30.9218C61.3025 30.6933 61.2266 30.4386 61.2031 30.1739L71.1638 29.2891C71.0702 28.2344 70.7707 27.2337 70.3057 26.3334L61.4205 30.9218ZM63.2005 32.0052C62.4176 32.0052 61.7475 31.555 61.4205 30.9218L70.3057 26.3334C68.9834 23.7729 66.3025 22.0052 63.2005 22.0052V32.0052ZM28.9688 32.0052H63.2005V22.0052H28.9688V32.0052ZM23.9688 32.0052H28.9688V22.0052H23.9688V32.0052ZM18.9688 23.6589V27.0052H28.9688V23.6589H18.9688ZM18.9688 22.9688V23.6589H28.9688V22.9688H18.9688ZM18.9688 22.0052V22.9688H28.9688V22.0052H18.9688ZM18.9688 17.9688V22.0052H28.9688V17.9688H18.9688ZM28.9688 12.9688H23.9688V22.9688H28.9688V12.9688ZM73.6823 12.9688H28.9688V22.9688H73.6823V12.9688ZM77.6667 8.98438C77.6667 11.1772 75.8751 12.9688 73.6823 12.9688V22.9688C81.398 22.9688 87.6667 16.7001 87.6667 8.98438H77.6667ZM73.6823 5C75.8751 5 77.6667 6.79152 77.6667 8.98438H87.6667C87.6667 1.26868 81.398 -5 73.6823 -5V5ZM14.9844 5H73.6823V-5H14.9844V5ZM11 8.98438C11 6.79152 12.7915 5 14.9844 5V-5C7.26868 -5 1 1.26868 1 8.98438H11ZM14.9844 12.9688C12.7915 12.9688 11 11.1772 11 8.98438H1C1 16.7001 7.26868 22.9688 14.9844 22.9688V12.9688ZM17.9792 12.9688H14.9844V22.9688H17.9792V12.9688ZM22.9792 22.0052V17.9688H12.9792V22.0052H22.9792ZM22.9792 22.9688V22.0052H12.9792V22.9688H22.9792ZM22.9792 23.6589V22.9688H12.9792V23.6589H22.9792ZM65.719 27.664C65.8127 28.7187 66.1121 29.7194 66.5771 30.6198L75.4623 26.0313C75.5803 26.2599 75.6562 26.5146 75.6798 26.7793L65.719 27.664ZM65.6875 26.9531C65.6875 27.1915 65.6981 27.4287 65.719 27.6641L75.6798 26.7791C75.685 26.8376 75.6875 26.8957 75.6875 26.9531H65.6875ZM73.6823 18.9583C69.2667 18.9583 65.6875 22.5375 65.6875 26.9531H75.6875C75.6875 28.0604 74.7896 28.9583 73.6823 28.9583V18.9583ZM81.6771 26.9531C81.6771 22.5375 78.0979 18.9583 73.6823 18.9583V28.9583C72.575 28.9583 71.6771 28.0604 71.6771 26.9531H81.6771ZM77.567 33.9414C80.008 32.5834 81.6771 29.9665 81.6771 26.9531H71.6771C71.6771 26.1928 72.1027 25.538 72.7055 25.2026L77.567 33.9414ZM73.6823 34.9479C75.0821 34.9479 76.4121 34.5839 77.567 33.9414L72.7055 25.2026C72.9994 25.0391 73.3378 24.9479 73.6823 24.9479V34.9479ZM69.7976 33.9414C70.9525 34.5839 72.2825 34.9479 73.6823 34.9479V24.9479C74.0268 24.9479 74.3652 25.0391 74.6591 25.2026L69.7976 33.9414ZM66.5771 30.6197C67.3008 32.0212 68.4234 33.1769 69.7976 33.9414L74.6591 25.2026C75.0022 25.3935 75.2809 25.6801 75.4623 26.0313L66.5771 30.6197ZM77.567 30.4467C76.4121 29.8042 75.0822 29.4401 73.6823 29.4401V39.4401C73.3378 39.4401 72.9994 39.3489 72.7055 39.1854L77.567 30.4467ZM81.6771 37.4349C81.6771 34.4216 80.008 31.8046 77.567 30.4467L72.7055 39.1854C72.1027 38.85 71.6771 38.1953 71.6771 37.4349H81.6771ZM77.567 44.4231C80.008 43.0652 81.6771 40.4482 81.6771 37.4349H71.6771C71.6771 36.6745 72.1027 36.0197 72.7055 35.6844L77.567 44.4231ZM73.6823 45.4297C75.0822 45.4297 76.4121 45.0656 77.567 44.4231L72.7055 35.6844C72.9994 35.5209 73.3378 35.4297 73.6823 35.4297V45.4297ZM69.7976 44.4231C70.9525 45.0657 72.2825 45.4297 73.6823 45.4297V35.4297C74.0268 35.4297 74.3652 35.5209 74.6591 35.6844L69.7976 44.4231ZM65.6875 37.4349C65.6875 40.4482 67.3565 43.0652 69.7976 44.4231L74.6591 35.6844C75.2619 36.0198 75.6875 36.6745 75.6875 37.4349H65.6875ZM69.7976 30.4467C67.3565 31.8046 65.6875 34.4216 65.6875 37.4349H75.6875C75.6875 38.1952 75.2619 38.85 74.6591 39.1854L69.7976 30.4467ZM73.6823 29.4401C72.2825 29.4401 70.9525 29.8041 69.7976 30.4467L74.6591 39.1854C74.3652 39.3489 74.0268 39.4401 73.6823 39.4401V29.4401ZM77.567 40.9284C76.4121 40.2859 75.0822 39.9219 73.6823 39.9219V49.9219C73.3378 49.9219 72.9994 49.8307 72.7055 49.6672L77.567 40.9284ZM81.6771 47.9167C81.6771 44.9033 80.008 42.2864 77.567 40.9284L72.7055 49.6672C72.1027 49.3318 71.6771 48.677 71.6771 47.9167H81.6771ZM79.9254 52.911C81.0197 51.5438 81.6771 49.8001 81.6771 47.9167H71.6771C71.6771 47.4482 71.844 47.0048 72.1181 46.6624L79.9254 52.911ZM73.6823 55.9115C76.2113 55.9115 78.4683 54.7315 79.9254 52.911L72.1181 46.6624C72.4776 46.2132 73.0466 45.9115 73.6823 45.9115V55.9115ZM67.4392 52.911C68.8963 54.7315 71.1533 55.9115 73.6823 55.9115V45.9115C74.3179 45.9115 74.887 46.2132 75.2465 46.6624L67.4392 52.911ZM65.6875 47.9167C65.6875 49.8001 66.3449 51.5438 67.4392 52.911L75.2465 46.6624C75.5206 47.0048 75.6875 47.4482 75.6875 47.9167H65.6875ZM69.7976 40.9284C67.3565 42.2864 65.6875 44.9034 65.6875 47.9167H75.6875C75.6875 48.677 75.2619 49.3318 74.6591 49.6672L69.7976 40.9284ZM73.6823 39.9219C72.2825 39.9219 70.9525 40.2859 69.7976 40.9284L74.6591 49.6672C74.3652 49.8307 74.0268 49.9219 73.6823 49.9219V39.9219ZM77.6046 53.721C79.4538 52.4706 80.6875 50.3388 80.6875 47.9167H70.6875C70.6875 46.8781 71.2202 45.9664 72.0033 45.437L77.6046 53.721ZM73.6823 54.5182C73.8801 54.5182 74.0735 54.529 74.2624 54.5495L75.3455 44.6084C74.7976 44.5487 74.2426 44.5182 73.6823 44.5182V54.5182ZM73.1022 54.5495C73.291 54.529 73.4845 54.5182 73.6823 54.5182V44.5182C73.122 44.5182 72.567 44.5487 72.0191 44.6084L73.1022 54.5495ZM66.6771 47.9167C66.6771 50.3388 67.9108 52.4706 69.7599 53.721L75.3613 45.437C76.1444 45.9664 76.6771 46.8781 76.6771 47.9167H66.6771ZM73.6823 40.9115C69.8136 40.9115 66.6771 44.048 66.6771 47.9167H76.6771C76.6771 49.5708 75.3365 50.9115 73.6823 50.9115V40.9115ZM80.6875 47.9167C80.6875 44.048 77.551 40.9115 73.6823 40.9115V50.9115C72.0281 50.9115 70.6875 49.5708 70.6875 47.9167H80.6875ZM79.3083 51.2015C77.6915 50.1374 75.7516 49.5182 73.6823 49.5182V59.5182C73.715 59.5182 73.7376 59.5228 73.7543 59.5278C73.7723 59.5333 73.7912 59.5419 73.8108 59.5547L79.3083 51.2015ZM83.9232 59.7591C83.9232 56.1746 82.0773 53.0239 79.3083 51.2015L73.8107 59.5547C73.8468 59.5785 73.8771 59.6118 73.8964 59.6468C73.9123 59.6756 73.9232 59.7087 73.9232 59.7591H83.9232ZM73.6823 70C79.3379 70 83.9232 65.4147 83.9232 59.7591H73.9232C73.9232 59.8919 73.8151 60 73.6823 60V70ZM63.4414 59.7591C63.4414 65.4147 68.0267 70 73.6823 70V60C73.5495 60 73.4414 59.8919 73.4414 59.7591H63.4414ZM68.0562 51.2015C65.2873 53.0239 63.4414 56.1746 63.4414 59.7591H73.4414C73.4414 59.7087 73.4523 59.6756 73.4682 59.6468C73.4875 59.6118 73.5177 59.5785 73.5538 59.5547L68.0562 51.2015ZM73.6823 49.5182C71.613 49.5182 69.6731 50.1374 68.0562 51.2015L73.5538 59.5547C73.5734 59.5419 73.5923 59.5333 73.6103 59.5278C73.627 59.5228 73.6496 59.5182 73.6823 59.5182V49.5182ZM73.6823 65C76.5764 65 78.9232 62.6534 78.9232 59.7591H68.9232C68.9232 57.1303 71.0537 55 73.6823 55V65ZM68.4414 59.7591C68.4414 62.6533 70.7881 65 73.6823 65V55C76.311 55 78.4414 57.1305 78.4414 59.7591H68.4414ZM73.6823 54.5182C70.7881 54.5182 68.4414 56.865 68.4414 59.7591H78.4414C78.4414 62.3877 76.311 64.5182 73.6823 64.5182V54.5182ZM78.9232 59.7591C78.9232 56.8649 76.5764 54.5182 73.6823 54.5182V64.5182C71.0537 64.5182 68.9232 62.3878 68.9232 59.7591H78.9232ZM73.6823 44.4401C77.551 44.4401 80.6875 41.3036 80.6875 37.4349H70.6875C70.6875 35.7807 72.0281 34.4401 73.6823 34.4401V44.4401ZM66.6771 37.4349C66.6771 41.3036 69.8136 44.4401 73.6823 44.4401V34.4401C75.3365 34.4401 76.6771 35.7808 76.6771 37.4349H66.6771ZM73.6823 30.4297C69.8136 30.4297 66.6771 33.5662 66.6771 37.4349H76.6771C76.6771 39.089 75.3365 40.4297 73.6823 40.4297V30.4297ZM80.6875 37.4349C80.6875 33.5662 77.551 30.4297 73.6823 30.4297V40.4297C72.0281 40.4297 70.6875 39.0891 70.6875 37.4349H80.6875ZM73.6823 33.9583C77.551 33.9583 80.6875 30.8218 80.6875 26.9531H70.6875C70.6875 25.299 72.0281 23.9583 73.6823 23.9583V33.9583ZM66.6771 26.9531C66.6771 30.8218 69.8136 33.9583 73.6823 33.9583V23.9583C75.3365 23.9583 76.6771 25.299 76.6771 26.9531H66.6771ZM73.6823 19.9479C69.8136 19.9479 66.6771 23.0844 66.6771 26.9531H76.6771C76.6771 28.6073 75.3365 29.9479 73.6823 29.9479V19.9479ZM80.6875 26.9531C80.6875 23.0844 77.551 19.9479 73.6823 19.9479V29.9479C72.0281 29.9479 70.6875 28.6073 70.6875 26.9531H80.6875ZM14.9844 16.9792H73.6823V6.97917H14.9844V16.9792ZM6.98958 8.98438C6.98958 13.397 10.5717 16.9792 14.9844 16.9792V6.97917C16.0946 6.97917 16.9896 7.87418 16.9896 8.98438H6.98958ZM14.9844 0.989583C10.5717 0.989583 6.98958 4.57172 6.98958 8.98438H16.9896C16.9896 10.0946 16.0946 10.9896 14.9844 10.9896V0.989583ZM73.6823 0.989583H14.9844V10.9896H73.6823V0.989583ZM81.6771 8.98438C81.6771 4.57171 78.0949 0.989583 73.6823 0.989583V10.9896C72.5721 10.9896 71.6771 10.0946 71.6771 8.98438H81.6771ZM73.6823 16.9792C78.0949 16.9792 81.6771 13.397 81.6771 8.98438H71.6771C71.6771 7.87417 72.5721 6.97917 73.6823 6.97917V16.9792ZM49.9092 54.5083L54.4845 49.9329L47.4135 42.8619L42.8381 47.4372L49.9092 54.5083ZM41.3737 39.6437V50.9727H51.3737V39.6437H41.3737ZM43.73 42C42.4279 42 41.3737 40.9458 41.3737 39.6437H51.3737C51.3737 35.4229 47.9507 32 43.73 32V42ZM46.0863 39.6437C46.0863 40.9458 45.0321 42 43.73 42V32C39.5093 32 36.0863 35.4229 36.0863 39.6437H46.0863ZM46.0863 50.9714V39.6437H36.0863V50.9714H46.0863ZM32.9781 49.9321L37.5499 54.5061L44.6227 47.4368L40.0509 42.8627L32.9781 49.9321ZM36.3101 49.9329C35.3903 50.8528 33.8988 50.8528 32.979 49.9329L40.0501 42.8619C37.0646 39.8764 32.2245 39.8764 29.2391 42.8619L36.3101 49.9329ZM36.3101 46.6018C37.23 47.5216 37.23 49.0131 36.3101 49.9329L29.2391 42.8619C26.2536 45.8473 26.2536 50.6874 29.2391 53.6729L36.3101 46.6018ZM45.3973 55.689L36.3101 46.6018L29.2391 53.6729L38.3263 62.7601L45.3973 55.689ZM43.73 55C44.3203 55 44.9406 55.2291 45.4094 55.7011L38.3142 62.748C39.8123 64.2563 41.7861 65 43.73 65V55ZM42.0506 55.7011C42.5194 55.2291 43.1397 55 43.73 55V65C45.6739 65 47.6477 64.2563 49.1458 62.748L42.0506 55.7011ZM51.1541 46.6011L42.0634 55.6883L49.133 62.7607L58.2238 53.6735L51.1541 46.6011ZM51.1534 49.9329C50.2336 49.0131 50.2336 47.5216 51.1534 46.6018L58.2245 53.6729C61.2099 50.6874 61.2099 45.8473 58.2245 42.8619L51.1534 49.9329ZM54.4845 49.9329C53.5647 50.8528 52.0732 50.8527 51.1534 49.9329L58.2245 42.8619C55.239 39.8764 50.3989 39.8764 47.4135 42.8619L54.4845 49.9329Z" fill="white" mask="url(#path-1-inside-1)"/>
</g>
<defs>
<filter id="filter0_d" x="0" y="0" width="88.6667" height="82" filterUnits="userSpaceOnUse" color-interpolation-filters="sRGB">
<feFlood flood-opacity="0" result="BackgroundImageFix"/>
<feColorMatrix in="SourceAlpha" type="matrix" values="0 0 0 0 0 0 0 0 0 0 0 0 0 0 0 0 0 0 127 0"/>
<feOffset dy="6"/>
<feGaussianBlur stdDeviation="3"/>
<feColorMatrix type="matrix" values="0 0 0 0 0 0 0 0 0 0 0 0 0 0 0 0 0 0 0.37 0"/>
<feBlend mode="normal" in2="BackgroundImageFix" result="effect1_dropShadow"/>
<feBlend mode="normal" in="SourceGraphic" in2="effect1_dropShadow" result="shape"/>
</filter>
</defs>
</svg>
