<svg width="87" height="82" viewBox="0 0 87 82" fill="none" xmlns="http://www.w3.org/2000/svg">
<g filter="url(#filter0_d)">
<mask id="path-1-inside-1" fill="white">
<path fill-rule="evenodd" clip-rule="evenodd" d="M46.9383 0.547897C47.6883 -0.0570775 48.7132 -0.167073 49.5832 0.24791C50.4481 0.667892 50.9981 1.54286 50.9981 2.50282V67.5001C50.9981 68.4601 50.4481 69.335 49.5832 69.755C49.2382 69.92 48.8682 70 48.4982 70C47.9432 70 47.3883 69.815 46.9333 69.455L22.6193 50.0008H10.9998C8.24491 50.0008 6 47.7559 6 45.001V25.0019C6 22.247 8.24491 20.0021 10.9998 20.0021H22.6193L46.9383 0.547897ZM10.9998 45.001H20.9994V25.0019H10.9998V45.001ZM45.9983 62.2953L25.9992 46.296V23.7069L45.9983 7.7076V62.2953ZM80.395 28.3824L73.2845 35.4928L80.395 42.6031C81.1806 43.3875 81.1806 44.6612 80.395 45.447L79.447 46.395C78.6626 47.1806 77.3889 47.1806 76.6031 46.395L69.4928 39.2845L62.3824 46.395C61.598 47.1806 60.3242 47.1806 59.5386 46.395L58.5907 45.447C57.8048 44.6626 57.8048 43.3889 58.5907 42.6031L65.7009 35.4928L58.5892 28.3811C57.8036 27.5967 57.8036 26.323 58.5892 25.5371L59.5386 24.5892C60.323 23.8036 61.5967 23.8036 62.3824 24.5892L69.4928 31.7009L76.6031 24.5907C77.3875 23.8048 78.6612 23.8048 79.447 24.5907L80.395 25.5386C81.1806 26.323 81.1806 27.5967 80.395 28.3824Z"/>
</mask>
<path d="M49.5832 0.24791L51.7671 -4.24992L51.7515 -4.25749L51.7359 -4.26495L49.5832 0.24791ZM46.9383 0.547897L50.0617 4.45232L50.0696 4.44595L50.0776 4.43956L46.9383 0.547897ZM49.5832 69.755L51.7405 74.2657L51.7538 74.2593L51.7671 74.2528L49.5832 69.755ZM46.9333 69.455L43.8095 73.3591L43.8202 73.3677L43.8309 73.3761L46.9333 69.455ZM22.6193 50.0008L25.7431 46.0967L24.3734 45.0008H22.6193V50.0008ZM22.6193 20.0021V25.0021H24.3731L25.7427 23.9065L22.6193 20.0021ZM20.9994 45.001V50.001H25.9994V45.001H20.9994ZM10.9998 45.001H5.99979V50.001H10.9998V45.001ZM20.9994 25.0019H25.9994V20.0019H20.9994V25.0019ZM10.9998 25.0019V20.0019H5.99979V25.0019H10.9998ZM25.9992 46.296H20.9992V48.6991L22.8757 50.2003L25.9992 46.296ZM45.9983 62.2953L42.8749 66.1997L50.9983 72.6984V62.2953H45.9983ZM25.9992 23.7069L22.8757 19.8026L20.9992 21.3038V23.7069H25.9992ZM45.9983 7.7076H50.9983V-2.69553L42.8749 3.80325L45.9983 7.7076ZM73.2845 35.4928L69.749 31.9573L66.2134 35.4929L69.749 39.0284L73.2845 35.4928ZM80.395 28.3824L83.9305 31.9179L83.9305 31.9179L80.395 28.3824ZM80.395 42.6031L76.8595 46.1386L76.8622 46.1413L80.395 42.6031ZM80.395 45.447L83.9305 48.9826L83.9311 48.982L80.395 45.447ZM79.447 46.395L75.9115 42.8594L75.9088 42.8622L79.447 46.395ZM76.6031 46.395L73.0675 49.9304L73.0681 49.931L76.6031 46.395ZM69.4928 39.2845L73.0284 35.749L69.4929 32.2134L65.9573 35.749L69.4928 39.2845ZM62.3824 46.395L58.8468 42.8594L58.8441 42.8622L62.3824 46.395ZM58.5907 45.447L62.1262 41.9115L62.1229 41.9082L58.5907 45.447ZM58.5907 42.6031L55.0552 39.0675L55.0552 39.0675L58.5907 42.6031ZM65.7009 35.4928L69.2365 39.0284L72.772 35.4928L69.2365 31.9573L65.7009 35.4928ZM58.5892 28.3811L62.1248 24.8456L62.122 24.8428L58.5892 28.3811ZM58.5892 25.5371L55.0564 21.9989L55.0531 22.0022L58.5892 25.5371ZM59.5386 24.5892L63.0714 28.1275L63.0769 28.122L59.5386 24.5892ZM62.3824 24.5892L65.9182 21.054L65.9179 21.0537L62.3824 24.5892ZM69.4928 31.7009L65.957 35.2361L69.4925 38.7723L73.0284 35.2365L69.4928 31.7009ZM76.6031 24.5907L80.1386 28.1262L80.1419 28.1229L76.6031 24.5907ZM79.447 24.5907L82.9826 21.0552L82.9826 21.0552L79.447 24.5907ZM80.395 25.5386L76.8594 29.0741L76.8622 29.0769L80.395 25.5386ZM51.7359 -4.26495C49.1693 -5.48924 46.0807 -5.18431 43.799 -3.34376L50.0776 4.43956C49.2958 5.07015 48.2571 5.15509 47.4305 4.76077L51.7359 -4.26495ZM55.9981 2.50282C55.9981 -0.381541 54.3459 -2.99777 51.7671 -4.24992L47.3993 4.74574C46.5504 4.33355 45.9981 3.46725 45.9981 2.50282H55.9981ZM55.9981 67.5001V2.50282H45.9981V67.5001H55.9981ZM51.7671 74.2528C54.3459 73.0007 55.9981 70.3845 55.9981 67.5001H45.9981C45.9981 66.5357 46.5504 65.6694 47.3993 65.2572L51.7671 74.2528ZM48.4982 75C49.5921 75 50.7018 74.7625 51.7405 74.2657L47.4259 65.2443C47.7746 65.0776 48.1443 65 48.4982 65V75ZM43.8309 73.3761C45.1858 74.4482 46.8388 75 48.4982 75V65C49.0477 65 49.5907 65.1818 50.0357 65.5339L43.8309 73.3761ZM19.4955 53.9049L43.8095 73.3591L50.0571 65.5509L25.7431 46.0967L19.4955 53.9049ZM10.9998 55.0008H22.6193V45.0008H10.9998V55.0008ZM1 45.001C1 50.5173 5.48348 55.0008 10.9998 55.0008V45.0008L11 45.001H1ZM1 25.0019V45.001H11V25.0019H1ZM10.9998 15.0021C5.48348 15.0021 1 19.4856 1 25.0019H11L10.9998 25.0021V15.0021ZM22.6193 15.0021H10.9998V25.0021H22.6193V15.0021ZM43.8149 -3.35653L19.4959 16.0977L25.7427 23.9065L50.0617 4.45232L43.8149 -3.35653ZM20.9994 40.001H10.9998V50.001H20.9994V40.001ZM15.9994 25.0019V45.001H25.9994V25.0019H15.9994ZM10.9998 30.0019H20.9994V20.0019H10.9998V30.0019ZM15.9998 45.001V25.0019H5.99979V45.001H15.9998ZM22.8757 50.2003L42.8749 66.1997L49.1218 58.391L29.1226 42.3916L22.8757 50.2003ZM20.9992 23.7069V46.296H30.9992V23.7069H20.9992ZM42.8749 3.80325L22.8757 19.8026L29.1226 27.6113L49.1218 11.6119L42.8749 3.80325ZM50.9983 62.2953V7.7076H40.9983V62.2953H50.9983ZM76.82 39.0284L83.9305 31.9179L76.8594 24.8468L69.749 31.9573L76.82 39.0284ZM83.9304 39.0675L76.82 31.9572L69.749 39.0284L76.8595 46.1386L83.9304 39.0675ZM83.9311 48.982C86.6667 46.2455 86.6715 41.8043 83.9277 39.0648L76.8622 46.1413C75.6897 44.9707 75.6945 43.0769 76.8589 41.9121L83.9311 48.982ZM82.9826 49.9305L83.9305 48.9826L76.8594 41.9115L75.9115 42.8594L82.9826 49.9305ZM73.0681 49.931C75.8046 52.6667 80.2458 52.6715 82.9853 49.9277L75.9088 42.8622C77.0794 41.6897 78.9732 41.6945 80.138 42.8589L73.0681 49.931ZM65.9572 42.82L73.0675 49.9304L80.1386 42.8595L73.0284 35.749L65.9572 42.82ZM65.9179 49.9305L73.0284 42.82L65.9573 35.749L58.8468 42.8594L65.9179 49.9305ZM56.0031 49.9305C58.7398 52.6672 63.1815 52.6712 65.9207 49.9277L58.8441 42.8622C60.0144 41.69 61.9087 41.694 63.0741 42.8594L56.0031 49.9305ZM55.0552 48.9826L56.0031 49.9305L63.0741 42.8594L62.1262 41.9115L55.0552 48.9826ZM55.0552 39.0675C52.3185 41.8042 52.3137 46.2463 55.0585 48.9859L62.1229 41.9082C63.2959 43.079 63.2911 44.9737 62.1262 46.1386L55.0552 39.0675ZM62.1654 31.9573L55.0552 39.0675L62.1262 46.1386L69.2365 39.0284L62.1654 31.9573ZM55.0537 31.9167L62.1654 39.0284L69.2365 31.9573L62.1248 24.8456L55.0537 31.9167ZM55.0531 22.0022C52.3175 24.7387 52.3127 29.1799 55.0565 31.9194L62.122 24.8428C63.2945 26.0135 63.2897 27.9073 62.1253 29.0721L55.0531 22.0022ZM56.0058 21.051L55.0564 21.9989L62.122 29.0754L63.0714 28.1275L56.0058 21.051ZM65.9179 21.0537C63.1812 18.317 58.7395 18.313 56.0003 21.0565L63.0769 28.122C61.9065 29.2942 60.0123 29.2902 58.8468 28.1248L65.9179 21.0537ZM73.0287 28.1657L65.9182 21.054L58.8465 28.1245L65.957 35.2361L73.0287 28.1657ZM73.0675 21.0552L65.9573 28.1654L73.0284 35.2365L80.1386 28.1262L73.0675 21.0552ZM82.9826 21.0552C80.2459 18.3185 75.8038 18.3137 73.0642 21.0585L80.1419 28.1229C78.9711 29.2959 77.0764 29.2911 75.9115 28.1262L82.9826 21.0552ZM83.9305 22.0031L82.9826 21.0552L75.9115 28.1262L76.8594 29.0741L83.9305 22.0031ZM83.9305 31.9179C86.6672 29.1812 86.6712 24.7395 83.9277 22.0003L76.8622 29.0769C75.69 27.9065 75.694 26.0123 76.8594 24.8468L83.9305 31.9179Z" fill="white" mask="url(#path-1-inside-1)"/>
</g>
<defs>
<filter id="filter0_d" x="0" y="0" width="86.9842" height="82" filterUnits="userSpaceOnUse" color-interpolation-filters="sRGB">
<feFlood flood-opacity="0" result="BackgroundImageFix"/>
<feColorMatrix in="SourceAlpha" type="matrix" values="0 0 0 0 0 0 0 0 0 0 0 0 0 0 0 0 0 0 127 0"/>
<feOffset dy="6"/>
<feGaussianBlur stdDeviation="3"/>
<feColorMatrix type="matrix" values="0 0 0 0 0 0 0 0 0 0 0 0 0 0 0 0 0 0 0.37 0"/>
<feBlend mode="normal" in2="BackgroundImageFix" result="effect1_dropShadow"/>
<feBlend mode="normal" in="SourceGraphic" in2="effect1_dropShadow" result="shape"/>
</filter>
</defs>
</svg>
