<svg width="74" height="74" viewBox="0 0 74 74" fill="none" xmlns="http://www.w3.org/2000/svg">
<path fill-rule="evenodd" clip-rule="evenodd" d="M66.1666 2H7.83338C4.56662 2 2 4.56662 2 7.83338V66.1668C2 69.4334 4.56662 72 7.83338 72H34.6668H48.6668H66.1668C69.4334 72 72 69.4334 72 66.1666V7.83338C72 4.56662 69.4334 2 66.1666 2ZM37 69.6666V46.3334H27.6666V37H37V28.8334C37 22.1834 42.1334 16.5834 48.6666 16H59.1666V25.3334H49.8332C47.8499 25.3334 46.3332 26.85 46.3332 28.8334V37H58V46.3334H46.3334V69.6668H37V69.6666ZM66.1666 69.6666C68.15 69.6666 69.6666 68.15 69.6666 66.1666H69.6668V7.83338C69.6668 5.85 68.1501 4.33338 66.1668 4.33338H7.83338C5.85 4.33338 4.33338 5.85 4.33338 7.83338V66.1666C4.33338 68.15 5.85 69.6666 7.83338 69.6666H34.6666V48.6666H25.3332V34.6666H34.6666V28.8332C34.6666 21.0166 40.7334 14.3666 48.55 13.6666H61.5V27.6666H49.8332C49.1332 27.6666 48.6666 28.1332 48.6666 28.8332V34.6666H60.3332V48.6666H48.6666V69.6666H66.1666Z" fill="#232323"/>
<path d="M37 46.3334H38.05V45.2834H37V46.3334ZM27.6666 46.3334H26.6166V47.3834H27.6666V46.3334ZM27.6666 37V35.95H26.6166V37H27.6666ZM37 37V38.05H38.05V37H37ZM48.6666 16V14.95H48.6198L48.5732 14.9542L48.6666 16ZM59.1666 16H60.2166V14.95H59.1666V16ZM59.1666 25.3334V26.3834H60.2166V25.3334H59.1666ZM46.3332 37H45.2832V38.05H46.3332V37ZM58 37H59.05V35.95H58V37ZM58 46.3334V47.3834H59.05V46.3334H58ZM46.3334 46.3334V45.2834H45.2834V46.3334H46.3334ZM46.3334 69.6668V70.7168H47.3834V69.6668H46.3334ZM37 69.6668H35.95V70.7168H37V69.6668ZM69.6666 66.1666V65.1166H68.6166V66.1666H69.6666ZM69.6668 66.1666V67.2166H70.7168V66.1666H69.6668ZM34.6666 69.6666V70.7166H35.7166V69.6666H34.6666ZM34.6666 48.6666H35.7166V47.6166H34.6666V48.6666ZM25.3332 48.6666H24.2832V49.7166H25.3332V48.6666ZM25.3332 34.6666V33.6166H24.2832V34.6666H25.3332ZM34.6666 34.6666V35.7166H35.7166V34.6666H34.6666ZM48.55 13.6666V12.6166H48.5031L48.4563 12.6208L48.55 13.6666ZM61.5 13.6666H62.55V12.6166H61.5V13.6666ZM61.5 27.6666V28.7166H62.55V27.6666H61.5ZM48.6666 34.6666H47.6166V35.7166H48.6666V34.6666ZM60.3332 34.6666H61.3832V33.6166H60.3332V34.6666ZM60.3332 48.6666V49.7166H61.3832V48.6666H60.3332ZM48.6666 48.6666V47.6166H47.6166V48.6666H48.6666ZM48.6666 69.6666H47.6166V70.7166H48.6666V69.6666ZM7.83338 3.05H66.1666V0.95H7.83338V3.05ZM3.05 7.83338C3.05 5.14652 5.14652 3.05 7.83338 3.05V0.95C3.98672 0.95 0.95 3.98672 0.95 7.83338H3.05ZM3.05 66.1668V7.83338H0.95V66.1668H3.05ZM7.83338 70.95C5.1465 70.95 3.05 68.8535 3.05 66.1668H0.95C0.95 70.0133 3.98674 73.05 7.83338 73.05V70.95ZM34.6668 70.95H7.83338V73.05H34.6668V70.95ZM48.6668 70.95H34.6668V73.05H48.6668V70.95ZM66.1668 70.95H48.6668V73.05H66.1668V70.95ZM70.95 66.1666C70.95 68.8535 68.8535 70.95 66.1668 70.95V73.05C70.0133 73.05 73.05 70.0133 73.05 66.1666H70.95ZM70.95 7.83338V66.1666H73.05V7.83338H70.95ZM66.1666 3.05C68.8535 3.05 70.95 5.14652 70.95 7.83338H73.05C73.05 3.98672 70.0133 0.95 66.1666 0.95V3.05ZM35.95 46.3334V69.6666H38.05V46.3334H35.95ZM27.6666 47.3834H37V45.2834H27.6666V47.3834ZM26.6166 37V46.3334H28.7166V37H26.6166ZM37 35.95H27.6666V38.05H37V35.95ZM35.95 28.8334V37H38.05V28.8334H35.95ZM48.5732 14.9542C41.495 15.5862 35.95 21.6431 35.95 28.8334H38.05C38.05 22.7237 42.7717 17.5806 48.76 17.0458L48.5732 14.9542ZM59.1666 14.95H48.6666V17.05H59.1666V14.95ZM60.2166 25.3334V16H58.1166V25.3334H60.2166ZM49.8332 26.3834H59.1666V24.2834H49.8332V26.3834ZM47.3832 28.8334C47.3832 27.4299 48.4298 26.3834 49.8332 26.3834V24.2834C47.27 24.2834 45.2832 26.2701 45.2832 28.8334H47.3832ZM47.3832 37V28.8334H45.2832V37H47.3832ZM58 35.95H46.3332V38.05H58V35.95ZM59.05 46.3334V37H56.95V46.3334H59.05ZM46.3334 47.3834H58V45.2834H46.3334V47.3834ZM47.3834 69.6668V46.3334H45.2834V69.6668H47.3834ZM37 70.7168H46.3334V68.6168H37V70.7168ZM35.95 69.6666V69.6668H38.05V69.6666H35.95ZM68.6166 66.1666C68.6166 67.5701 67.5701 68.6166 66.1666 68.6166V70.7166C68.7299 70.7166 70.7166 68.7299 70.7166 66.1666H68.6166ZM69.6668 65.1166H69.6666V67.2166H69.6668V65.1166ZM68.6168 7.83338V66.1666H70.7168V7.83338H68.6168ZM66.1668 5.38338C67.5702 5.38338 68.6168 6.4299 68.6168 7.83338H70.7168C70.7168 5.2701 68.73 3.28338 66.1668 3.28338V5.38338ZM7.83338 5.38338H66.1668V3.28338H7.83338V5.38338ZM5.38338 7.83338C5.38338 6.4299 6.4299 5.38338 7.83338 5.38338V3.28338C5.2701 3.28338 3.28338 5.2701 3.28338 7.83338H5.38338ZM5.38338 66.1666V7.83338H3.28338V66.1666H5.38338ZM7.83338 68.6166C6.4299 68.6166 5.38338 67.5701 5.38338 66.1666H3.28338C3.28338 68.7299 5.2701 70.7166 7.83338 70.7166V68.6166ZM34.6666 68.6166H7.83338V70.7166H34.6666V68.6166ZM33.6166 48.6666V69.6666H35.7166V48.6666H33.6166ZM25.3332 49.7166H34.6666V47.6166H25.3332V49.7166ZM24.2832 34.6666V48.6666H26.3832V34.6666H24.2832ZM34.6666 33.6166H25.3332V35.7166H34.6666V33.6166ZM33.6166 28.8332V34.6666H35.7166V28.8332H33.6166ZM48.4563 12.6208C40.0983 13.3693 33.6166 20.473 33.6166 28.8332H35.7166C35.7166 21.5602 41.3685 15.3639 48.6437 14.7124L48.4563 12.6208ZM61.5 12.6166H48.55V14.7166H61.5V12.6166ZM62.55 27.6666V13.6666H60.45V27.6666H62.55ZM49.8332 28.7166H61.5V26.6166H49.8332V28.7166ZM49.7166 28.8332C49.7166 28.7751 49.7262 28.7437 49.7305 28.7326C49.7344 28.7223 49.7355 28.7242 49.7299 28.7299C49.7242 28.7355 49.7223 28.7344 49.7326 28.7305C49.7437 28.7262 49.7751 28.7166 49.8332 28.7166V26.6166C49.2447 26.6166 48.6726 26.8174 48.245 27.245C47.8174 27.6726 47.6166 28.2447 47.6166 28.8332H49.7166ZM49.7166 34.6666V28.8332H47.6166V34.6666H49.7166ZM60.3332 33.6166H48.6666V35.7166H60.3332V33.6166ZM61.3832 48.6666V34.6666H59.2832V48.6666H61.3832ZM48.6666 49.7166H60.3332V47.6166H48.6666V49.7166ZM49.7166 69.6666V48.6666H47.6166V69.6666H49.7166ZM66.1666 68.6166H48.6666V70.7166H66.1666V68.6166Z" fill="#232323"/>
</svg>
