<svg width="156" height="30" viewBox="0 0 156 30" fill="none" xmlns="http://www.w3.org/2000/svg">
<path fill-rule="evenodd" clip-rule="evenodd" d="M154.884 10.7109C155.588 10.8239 155.939 11.1125 155.939 11.5769C155.939 11.853 155.776 12.1543 155.45 12.4811L148.617 19.1449L150.235 28.5566C150.248 28.6451 150.254 28.7706 150.254 28.9335C150.254 29.5613 149.997 29.8745 149.482 29.8745C149.244 29.8745 148.993 29.799 148.729 29.6483L140.277 25.2057L131.825 29.6488C131.549 29.7995 131.298 29.8745 131.072 29.8745C130.808 29.8745 130.611 29.7837 130.479 29.6014C130.347 29.4193 130.282 29.1966 130.282 28.9331C130.282 28.8581 130.294 28.7322 130.319 28.5564L131.938 19.1444L125.086 12.4806C124.772 12.1418 124.615 11.8406 124.615 11.5769C124.615 11.1125 124.967 10.8239 125.669 10.7109L135.119 9.33692L139.355 0.771692C139.593 0.257143 139.901 0 140.277 0C140.654 0 140.961 0.257143 141.2 0.771692L145.435 9.33692L154.884 10.7109ZM147.374 26.2226L146.019 18.2974L151.779 12.7062L143.834 11.5392L140.277 4.34815L136.719 11.5392L128.775 12.7062L134.535 18.2974L133.161 26.2226L140.277 22.4762L147.374 26.2226Z" fill="#232323"/>
<path fill-rule="evenodd" clip-rule="evenodd" d="M31.3236 11.5769C31.3236 11.1125 30.9723 10.8239 30.2692 10.7109L20.8197 9.33692L16.5843 0.771692C16.346 0.257143 16.0383 0 15.6619 0C15.2856 0 14.978 0.257143 14.7396 0.771692L10.504 9.33692L1.05402 10.7109C0.351429 10.8239 0 11.1125 0 11.5769C0 11.8406 0.156923 12.1418 0.470703 12.4806L7.32283 19.1444L5.70396 28.5564C5.67884 28.7322 5.66637 28.8581 5.66637 28.9331C5.66637 29.1966 5.73218 29.4193 5.86391 29.6014C5.99558 29.7837 6.19312 29.8745 6.45679 29.8745C6.68281 29.8745 6.93369 29.7995 7.20976 29.6488L15.6617 25.2057L24.1141 29.6483C24.3778 29.799 24.6287 29.8745 24.8668 29.8745C25.3818 29.8745 25.6391 29.5613 25.6391 28.9335C25.6391 28.7706 25.6328 28.6451 25.6202 28.5566L24.0015 19.1449L30.8345 12.4811C31.1607 12.1543 31.3236 11.853 31.3236 11.5769Z" fill="#232323"/>
<path fill-rule="evenodd" clip-rule="evenodd" d="M62.3236 11.5769C62.3236 11.1125 61.9723 10.8239 61.2692 10.7109L51.8197 9.33692L47.5843 0.771692C47.346 0.257143 47.0383 0 46.6619 0C46.2856 0 45.978 0.257143 45.7396 0.771692L41.504 9.33692L32.054 10.7109C31.3514 10.8239 31 11.1125 31 11.5769C31 11.8406 31.1569 12.1418 31.4707 12.4806L38.3228 19.1444L36.704 28.5564C36.6788 28.7322 36.6664 28.8581 36.6664 28.9331C36.6664 29.1966 36.7322 29.4193 36.8639 29.6014C36.9956 29.7837 37.1931 29.8745 37.4568 29.8745C37.6828 29.8745 37.9337 29.7995 38.2098 29.6488L46.6617 25.2057L55.1141 29.6483C55.3778 29.799 55.6287 29.8745 55.8668 29.8745C56.3818 29.8745 56.6391 29.5613 56.6391 28.9335C56.6391 28.7706 56.6328 28.6451 56.6202 28.5566L55.0015 19.1449L61.8345 12.4811C62.1607 12.1543 62.3236 11.853 62.3236 11.5769Z" fill="#232323"/>
<path fill-rule="evenodd" clip-rule="evenodd" d="M93.3236 11.5769C93.3236 11.1125 92.9723 10.8239 92.2692 10.7109L82.8197 9.33692L78.5843 0.771692C78.346 0.257143 78.0383 0 77.6619 0C77.2856 0 76.978 0.257143 76.7396 0.771692L72.504 9.33692L63.054 10.7109C62.3514 10.8239 62 11.1125 62 11.5769C62 11.8406 62.1569 12.1418 62.4707 12.4806L69.3228 19.1444L67.704 28.5564C67.6788 28.7322 67.6664 28.8581 67.6664 28.9331C67.6664 29.1966 67.7322 29.4193 67.8639 29.6014C67.9956 29.7837 68.1931 29.8745 68.4568 29.8745C68.6828 29.8745 68.9337 29.7995 69.2098 29.6488L77.6617 25.2057L86.1141 29.6483C86.3778 29.799 86.6287 29.8745 86.8668 29.8745C87.3818 29.8745 87.6391 29.5613 87.6391 28.9335C87.6391 28.7706 87.6328 28.6451 87.6202 28.5566L86.0015 19.1449L92.8345 12.4811C93.1607 12.1543 93.3236 11.853 93.3236 11.5769Z" fill="#232323"/>
<path fill-rule="evenodd" clip-rule="evenodd" d="M124.324 11.5769C124.324 11.1125 123.972 10.8239 123.269 10.7109L113.82 9.33692L109.584 0.771692C109.346 0.257143 109.038 0 108.662 0C108.286 0 107.978 0.257143 107.74 0.771692L103.504 9.33692L94.054 10.7109C93.3514 10.8239 93 11.1125 93 11.5769C93 11.8406 93.1569 12.1418 93.4707 12.4806L100.323 19.1444L98.704 28.5564C98.6788 28.7322 98.6664 28.8581 98.6664 28.9331C98.6664 29.1966 98.7322 29.4193 98.8639 29.6014C98.9956 29.7837 99.1931 29.8745 99.4568 29.8745C99.6828 29.8745 99.9337 29.7995 100.21 29.6488L108.662 25.2057L117.114 29.6483C117.378 29.799 117.629 29.8745 117.867 29.8745C118.382 29.8745 118.639 29.5613 118.639 28.9335C118.639 28.7706 118.633 28.6451 118.62 28.5566L117.001 19.1449L123.834 12.4811C124.161 12.1543 124.324 11.853 124.324 11.5769ZM114.403 18.2974L115.758 26.2226L108.662 22.4762V4.34849L112.219 11.5392L120.164 12.7062L114.403 18.2974Z" fill="#232323"/>
</svg>
