<svg width="79" height="72" viewBox="0 0 79 72" fill="none" xmlns="http://www.w3.org/2000/svg">
<path fill-rule="evenodd" clip-rule="evenodd" d="M71 13.5V1H51.8215C47.3324 1 43.0911 2.60278 39.75 5.53735C36.4089 2.60278 32.1676 1 27.6785 1H8.5V13.5H1V63.5H31.0885C31.6964 67.7352 35.3488 71 39.75 71C44.1512 71 47.8024 67.7352 48.4115 63.5H78.5V13.5H71ZM11 3.5H27.6785C31.7385 3.5 35.5563 5.03259 38.5 7.80115V31H41V7.80115C43.9437 5.03259 47.7615 3.5 51.8215 3.5H68.5V53.5H41V33.5H38.5V53.5H11V3.5ZM46 61H76V16H71V56H8.5V16H3.5V61H33.5V62.25C33.5 65.696 36.304 68.5 39.75 68.5C43.196 68.5 46 65.696 46 62.25V61Z" fill="#232323"/>
<path d="M71 1H71.25V0.75H71V1ZM71 13.5H70.75V13.75H71V13.5ZM39.75 5.53735L39.585 5.72519L39.75 5.8701L39.915 5.72519L39.75 5.53735ZM8.5 1V0.75H8.25V1H8.5ZM8.5 13.5V13.75H8.75V13.5H8.5ZM1 13.5V13.25H0.75V13.5H1ZM1 63.5H0.75V63.75H1V63.5ZM31.0885 63.5L31.336 63.4645L31.3052 63.25H31.0885V63.5ZM48.4115 63.5V63.25H48.1949L48.164 63.4644L48.4115 63.5ZM78.5 63.5V63.75H78.75V63.5H78.5ZM78.5 13.5H78.75V13.25H78.5V13.5ZM11 3.5V3.25H10.75V3.5H11ZM38.5 7.80115H38.75V7.69308L38.6713 7.61904L38.5 7.80115ZM38.5 31H38.25V31.25H38.5V31ZM41 31V31.25H41.25V31H41ZM41 7.80115L40.8287 7.61904L40.75 7.69308V7.80115H41ZM68.5 3.5H68.75V3.25H68.5V3.5ZM68.5 53.5V53.75H68.75V53.5H68.5ZM41 53.5H40.75V53.75H41V53.5ZM41 33.5H41.25V33.25H41V33.5ZM38.5 33.5V33.25H38.25V33.5H38.5ZM38.5 53.5V53.75H38.75V53.5H38.5ZM11 53.5H10.75V53.75H11V53.5ZM76 61V61.25H76.25V61H76ZM46 61V60.75H45.75V61H46ZM76 16H76.25V15.75H76V16ZM71 16V15.75H70.75V16H71ZM71 56V56.25H71.25V56H71ZM8.5 56H8.25V56.25H8.5V56ZM8.5 16H8.75V15.75H8.5V16ZM3.5 16V15.75H3.25V16H3.5ZM3.5 61H3.25V61.25H3.5V61ZM33.5 61H33.75V60.75H33.5V61ZM70.75 1V13.5H71.25V1H70.75ZM51.8215 1.25H71V0.75H51.8215V1.25ZM39.915 5.72519C43.2103 2.83077 47.393 1.25 51.8215 1.25V0.75C47.2718 0.75 42.9718 2.3748 39.585 5.34952L39.915 5.72519ZM27.6785 1.25C32.107 1.25 36.2897 2.83077 39.585 5.72519L39.915 5.34952C36.5282 2.3748 32.2282 0.75 27.6785 0.75V1.25ZM8.5 1.25H27.6785V0.75H8.5V1.25ZM8.75 13.5V1H8.25V13.5H8.75ZM1 13.75H8.5V13.25H1V13.75ZM1.25 63.5V13.5H0.75V63.5H1.25ZM31.0885 63.25H1V63.75H31.0885V63.25ZM39.75 70.75C35.475 70.75 31.9265 67.5785 31.336 63.4645L30.841 63.5355C31.4663 67.892 35.2225 71.25 39.75 71.25V70.75ZM48.164 63.4644C47.5723 67.5785 44.025 70.75 39.75 70.75V71.25C44.2775 71.25 48.0324 67.8919 48.659 63.5356L48.164 63.4644ZM78.5 63.25H48.4115V63.75H78.5V63.25ZM78.25 13.5V63.5H78.75V13.5H78.25ZM71 13.75H78.5V13.25H71V13.75ZM27.6785 3.25H11V3.75H27.6785V3.25ZM38.6713 7.61904C35.6817 4.80733 31.8028 3.25 27.6785 3.25V3.75C31.6742 3.75 35.4309 5.25786 38.3287 7.98326L38.6713 7.61904ZM38.75 31V7.80115H38.25V31H38.75ZM41 30.75H38.5V31.25H41V30.75ZM40.75 7.80115V31H41.25V7.80115H40.75ZM51.8215 3.25C47.6972 3.25 43.8183 4.80733 40.8287 7.61904L41.1713 7.98326C44.0691 5.25786 47.8258 3.75 51.8215 3.75V3.25ZM68.5 3.25H51.8215V3.75H68.5V3.25ZM68.75 53.5V3.5H68.25V53.5H68.75ZM41 53.75H68.5V53.25H41V53.75ZM40.75 33.5V53.5H41.25V33.5H40.75ZM38.5 33.75H41V33.25H38.5V33.75ZM38.75 53.5V33.5H38.25V53.5H38.75ZM11 53.75H38.5V53.25H11V53.75ZM10.75 3.5V53.5H11.25V3.5H10.75ZM76 60.75H46V61.25H76V60.75ZM75.75 16V61H76.25V16H75.75ZM71 16.25H76V15.75H71V16.25ZM71.25 56V16H70.75V56H71.25ZM8.5 56.25H71V55.75H8.5V56.25ZM8.25 16V56H8.75V16H8.25ZM3.5 16.25H8.5V15.75H3.5V16.25ZM3.75 61V16H3.25V61H3.75ZM33.5 60.75H3.5V61.25H33.5V60.75ZM33.75 62.25V61H33.25V62.25H33.75ZM39.75 68.25C36.442 68.25 33.75 65.558 33.75 62.25H33.25C33.25 65.8341 36.1659 68.75 39.75 68.75V68.25ZM45.75 62.25C45.75 65.558 43.058 68.25 39.75 68.25V68.75C43.3341 68.75 46.25 65.8341 46.25 62.25H45.75ZM45.75 61V62.25H46.25V61H45.75Z" fill="#232323"/>
<path fill-rule="evenodd" clip-rule="evenodd" d="M16 21.5863C16 17.5012 18.8473 10 23.5 10C28.1527 10 31 17.5012 31 21.5863C31 24.0015 29.8226 26.2823 27.8488 27.6874C27.4685 27.959 27.25 28.3478 27.25 28.75V46.25C27.25 48.3173 25.5673 50 23.5 50C21.4327 50 19.75 48.3173 19.75 46.25V28.75C19.75 28.3478 19.5315 27.959 19.1512 27.6886C17.1774 26.2836 16 24.0027 16 21.5863ZM24.75 28.75C24.75 27.5452 25.3665 26.3873 26.3986 25.6512C27.7151 24.7137 28.5 23.1952 28.5 21.5863C28.5 18.515 26.2362 12.5 23.5 12.5C20.7638 12.5 18.5 18.515 18.5 21.5863C18.5 23.1952 19.2849 24.7137 20.6014 25.6512C21.6335 26.3873 22.25 27.5452 22.25 28.75V46.25C22.25 46.9397 22.8103 47.5 23.5 47.5C24.1897 47.5 24.75 46.9397 24.75 46.25V28.75Z" fill="#232323"/>
<path fill-rule="evenodd" clip-rule="evenodd" d="M52.25 46.25V33.0035C52.25 30.7062 51.459 28.4528 50.024 26.6577C48.2351 24.4226 47.25 21.6138 47.25 18.75V10H49.75V18.75C49.75 21.0486 50.541 23.3026 51.976 25.0952C53.7649 27.3328 54.75 30.1398 54.75 33.0035V46.25C54.75 46.9397 55.3103 47.5 56 47.5C56.6897 47.5 57.25 46.9397 57.25 46.25V33.0035C57.25 30.1398 58.2351 27.3328 60.024 25.0952C61.459 23.3026 62.25 21.0486 62.25 18.75V10H64.75V18.75C64.75 21.6138 63.7649 24.4226 61.976 26.6577C60.541 28.4515 59.75 30.7062 59.75 33.0035V46.25C59.75 48.3173 58.0673 50 56 50C53.9327 50 52.25 48.3173 52.25 46.25ZM52.25 10H54.75V22.7515H52.25V10ZM57.25 10H59.75V22.7515H57.25V10Z" fill="#232323"/>
</svg>
