<svg width="30" height="30" viewBox="0 0 30 30" fill="none" xmlns="http://www.w3.org/2000/svg">
<path fill-rule="evenodd" clip-rule="evenodd" d="M26.25 0H3.75C1.68251 0 0 1.68251 0 3.75V26.25C0 28.3175 1.68251 30 3.75 30H26.25C28.3175 30 30 28.3175 30 26.25V3.75C30 1.68251 28.3175 0 26.25 0ZM27.4999 26.25C27.4999 26.9401 26.9401 27.4999 26.25 27.4999H11.25V20.625C11.25 19.59 10.41 18.75 9.375 18.75H2.50008V3.75C2.50008 3.05992 3.05992 2.50008 3.75 2.50008H26.25C26.9401 2.50008 27.4999 3.05992 27.4999 3.75V26.25ZM16.2499 4.99992H23.7499C24.4411 4.99992 25.0001 5.55885 25.0001 6.25008V13.7501C25.0001 14.255 24.6964 14.7125 24.2287 14.905C24.0738 14.97 23.9113 15 23.7499 15C23.4249 15 23.1049 14.8725 22.8662 14.6338L19.9999 11.7675L14.6338 17.1336C14.39 17.3774 14.0701 17.5001 13.7501 17.5001C13.4301 17.5001 13.1099 17.3774 12.8664 17.1336C12.3775 16.645 12.3775 15.8551 12.8664 15.3662L18.2325 10.0001L15.3662 7.13379C15.0087 6.77628 14.9014 6.23886 15.095 5.77126C15.2875 5.30365 15.745 4.99992 16.2499 4.99992Z" fill="white"/>
</svg>
