<svg width="56" height="70" viewBox="0 0 56 70" fill="none" xmlns="http://www.w3.org/2000/svg">
<path fill-rule="evenodd" clip-rule="evenodd" d="M53.4234 10.2592C53.8848 10.1012 54.3949 10.2005 54.7628 10.5199C55.1313 10.8392 55.3017 11.3306 55.2104 11.8091L54.5919 15.0487C53.4437 21.0659 50.2986 26.564 45.7714 30.625H52.2266C52.9817 30.625 53.5938 31.237 53.5938 31.9922V38.0078C53.5938 38.763 52.9817 39.375 52.2266 39.375H51.2146L44.9282 68.9175C44.7936 69.5487 44.236 70 43.5909 70H11.6441C10.9984 70 10.4409 69.5487 10.3068 68.9175L4.02041 39.375H3.00784C2.25268 39.375 1.64065 38.763 1.64065 38.0078V31.9922C1.64065 31.237 2.25268 30.625 3.00784 30.625H9.46299C4.93632 26.5646 1.79072 21.0659 0.642497 15.0487L0.0240587 11.8091C-0.0667311 11.3306 0.103099 10.8392 0.471599 10.5199C0.839565 10.2005 1.35012 10.1012 1.81102 10.2592C5.24768 11.4384 8.49368 13.0524 11.4801 15.0407C10.4969 12.5034 9.98263 9.77966 9.98263 6.97693V5.87891C9.98263 5.42709 10.2064 5.00412 10.5792 4.74937C10.953 4.49516 11.4278 4.44122 11.8486 4.60571C15.547 6.05408 18.8528 8.25386 21.5914 11.0069C22.188 7.29469 23.7843 3.78487 26.2345 0.885467L26.5731 0.484924C26.8327 0.177307 27.2145 0 27.6172 0C28.0199 0 28.4017 0.177307 28.6613 0.484924L28.9999 0.885467C31.4501 3.7854 33.0475 7.29576 33.6435 11.0085C36.3822 8.25546 39.6891 6.05461 43.3885 4.60571C43.8093 4.44122 44.2841 4.49516 44.6574 4.74937C45.0307 5.00412 45.2539 5.42709 45.2539 5.87891V6.97693C45.2539 9.77913 44.7402 12.5018 43.7575 15.0385C46.7429 13.0518 49.9878 11.4379 53.4234 10.2592ZM31.1634 13.8593C31.0731 10.1353 29.8309 6.52458 27.6172 3.54134C25.4041 6.52405 24.1619 10.1343 24.0716 13.8572C25.4954 15.7291 26.6912 17.7788 27.6183 19.9657C28.5443 17.7804 29.7396 15.7307 31.1634 13.8593ZM26.2938 24.5341C26.4503 25.153 27.0057 25.5648 27.6167 25.5648C27.7267 25.5648 27.8388 25.5515 27.9505 25.5237C28.4562 25.3971 28.8247 25.0024 28.9443 24.5293C30.8333 17.2949 35.8289 11.2403 42.4945 7.98256C42.2504 12.8286 40.2471 17.3499 36.7918 20.8058C36.7202 20.8774 36.6588 20.9554 36.6065 21.0371C34.4377 23.3089 32.5156 25.8297 30.8894 28.5609L29.6605 30.625H25.5744L24.3456 28.5609C22.7204 25.8313 20.8 23.3132 18.6338 21.0424C18.581 20.9586 18.5185 20.879 18.4453 20.8058C14.9894 17.3499 12.9862 12.8281 12.7426 7.98256C19.4093 11.2408 24.4059 17.2976 26.2938 24.5341ZM3.16752 13.6927L3.32827 14.536C4.57209 21.0515 8.41143 26.8919 13.8861 30.625H22.392L21.9957 29.9596C17.6362 22.6366 11.0096 16.9296 3.16752 13.6927ZM50.8594 36.6406H50.1208H50.1112H34.4825C35.2377 36.6406 35.8497 37.2527 35.8497 38.0078C35.8497 38.763 35.2377 39.375 34.4825 39.375H48.4188L42.4838 67.2656H12.7507L6.81567 39.375H33.7872C33.032 39.375 32.42 38.763 32.42 38.0078C32.42 37.2527 33.032 36.6406 33.7872 36.6406H5.12378H5.11363H4.37503V33.3594H13.4802H24.7953H24.8017H30.4328H41.751H50.8594V36.6406ZM41.3489 30.625C46.8235 26.8919 50.6629 21.0515 51.9062 14.536L52.0669 13.6932C44.2248 16.9302 37.5982 22.6371 33.2387 29.9596L32.8424 30.625H41.3489Z" fill="black"/>
</svg>
