<svg width="89" height="61" viewBox="0 0 89 61" fill="none" xmlns="http://www.w3.org/2000/svg">
<path fill-rule="evenodd" clip-rule="evenodd" d="M85.9665 46.8321C87.1002 46.8321 88.126 47.4567 88.6439 48.4655C89.1619 49.4722 89.0764 50.6711 88.4192 51.5937L84.8891 56.5331C82.9442 59.2574 79.7848 60.8819 76.4393 60.8819H12.5412C9.19581 60.8819 6.03637 59.2567 4.09143 56.5331L0.563373 51.5937C-0.0958042 50.6711 -0.182699 49.4736 0.335275 48.4655C0.853926 47.4567 1.87901 46.8321 3.01271 46.8321H3.16071C3.88505 27.7954 17.7753 12.0811 35.9716 8.55437C35.9654 8.49894 35.9586 8.44338 35.9518 8.38776L35.9517 8.38673L35.9517 8.38663C35.9281 8.19261 35.9044 7.99787 35.9044 7.80558C35.9044 3.50158 39.4059 0 43.7099 0C48.0139 0 51.5155 3.50158 51.5155 7.80558C51.5155 7.98828 51.4934 8.17209 51.4711 8.35673L51.4711 8.35723C51.4632 8.42284 51.4552 8.48856 51.4483 8.55437C69.6425 12.0831 83.5334 27.7947 84.2571 46.8321H85.9665ZM39.0264 7.80558C39.0264 7.89315 39.0298 7.98344 39.0359 8.07373C39.0727 8.0693 39.1095 8.06658 39.1464 8.06386L39.1465 8.06385L39.1465 8.06385C39.1831 8.06115 39.2197 8.05844 39.2566 8.05404C39.7936 7.99634 40.3333 7.95221 40.8764 7.91488C40.9555 7.90924 41.0343 7.90266 41.1129 7.89608C41.2334 7.88601 41.3537 7.87596 41.4744 7.86939C42.2144 7.82866 42.9605 7.80558 43.7099 7.80558C44.4594 7.80558 45.2041 7.82866 45.9468 7.87075C46.0687 7.87736 46.1898 7.88749 46.3109 7.89762C46.3888 7.90413 46.4667 7.91065 46.5449 7.91623C47.088 7.95357 47.6283 7.99566 48.1653 8.0554C48.2017 8.05918 48.2385 8.06192 48.2754 8.06466C48.3115 8.06735 48.3477 8.07004 48.3839 8.07373C48.39 7.98344 48.3934 7.89451 48.3934 7.80558C48.3934 5.22318 46.2916 3.1221 43.7099 3.1221C41.1275 3.1221 39.0264 5.22318 39.0264 7.80558ZM38.0998 11.3479C38.9348 11.223 39.778 11.132 40.6204 11.0634C40.7922 11.0492 40.9639 11.037 41.1357 11.0261C42.8498 10.9107 44.5714 10.9107 46.2862 11.0261L46.3432 11.0302C46.4956 11.041 46.6487 11.052 46.8008 11.0634C47.6439 11.1327 48.4851 11.223 49.3221 11.3479C66.8232 13.9873 80.3998 28.7818 81.1432 46.8328H6.27533C7.02005 28.7818 20.5953 13.9873 38.0998 11.3479ZM76.438 57.7605C78.778 57.7605 80.987 56.622 82.3482 54.7178L85.7513 49.9549H3.22791L6.63106 54.7192C7.99218 56.622 10.2012 57.7605 12.5412 57.7605H76.438Z" fill="#232323"/>
<path d="M26.7724 18.5755C18.6485 23.388 12.7356 32.0958 10.9529 41.868C10.7981 42.7173 11.3602 43.5285 12.2095 43.6833C12.3031 43.7023 12.3968 43.7098 12.4905 43.7098C13.2305 43.7098 13.8876 43.1823 14.0247 42.4301C15.6465 33.535 21.0075 25.6201 28.3651 21.2618C29.1064 20.8232 29.3514 19.8647 28.9129 19.1233C28.471 18.3814 27.5151 18.1363 26.7724 18.5755Z" fill="#232323"/>
</svg>
