<svg width="46" height="44" viewBox="0 0 46 44" fill="none" xmlns="http://www.w3.org/2000/svg">
<path fill-rule="evenodd" clip-rule="evenodd" d="M1.00098 20.1306L23.0302 1L45.0593 20.1307L42.8043 22.7274L40.742 20.9363V37.8412C40.742 40.6858 38.4277 43 35.5832 43H26.1254V26.148H20.1069V43H10.4772C7.63262 43 5.31844 40.6857 5.31844 37.8412V20.9362L3.25604 22.7273L1.00098 20.1306ZM35.5832 39.5608C36.5314 39.5608 37.3027 38.7894 37.3027 37.8412V17.9496L23.0302 5.55505L8.75757 17.9496V37.8413C8.75757 38.7895 9.52894 39.5609 10.4771 39.5609H16.6677V22.7089H29.5646V39.5608H35.5832Z" fill="#232323"/>
<path d="M23.0302 1L23.1941 0.811242L23.0302 0.668888L22.8662 0.811242L23.0302 1ZM1.00098 20.1306L0.837055 19.9419L0.648295 20.1058L0.81222 20.2945L1.00098 20.1306ZM45.0593 20.1307L45.2481 20.2946L45.412 20.1059L45.2232 19.9419L45.0593 20.1307ZM42.8043 22.7274L42.6404 22.9161L42.8292 23.0801L42.9931 22.8913L42.8043 22.7274ZM40.742 20.9363L40.9059 20.7476L40.492 20.3881V20.9363H40.742ZM26.1254 43H25.8754V43.25H26.1254V43ZM26.1254 26.148H26.3754V25.898H26.1254V26.148ZM20.1069 26.148V25.898H19.8569V26.148H20.1069ZM20.1069 43V43.25H20.3569V43H20.1069ZM5.31844 20.9362H5.56844V20.388L5.15451 20.7475L5.31844 20.9362ZM3.25604 22.7273L3.06728 22.8912L3.23121 23.08L3.41997 22.9161L3.25604 22.7273ZM37.3027 17.9496H37.5527V17.8356L37.4667 17.7609L37.3027 17.9496ZM23.0302 5.55505L23.1941 5.36629L23.0302 5.22394L22.8662 5.36629L23.0302 5.55505ZM8.75757 17.9496L8.59365 17.7609L8.50757 17.8356V17.9496H8.75757ZM16.6677 39.5609V39.8109H16.9177V39.5609H16.6677ZM16.6677 22.7089V22.4589H16.4177V22.7089H16.6677ZM29.5646 22.7089H29.8146V22.4589H29.5646V22.7089ZM29.5646 39.5608H29.3146V39.8108H29.5646V39.5608ZM22.8662 0.811242L0.837055 19.9419L1.1649 20.3194L23.1941 1.18876L22.8662 0.811242ZM45.2232 19.9419L23.1941 0.811242L22.8662 1.18876L44.8954 20.3195L45.2232 19.9419ZM42.9931 22.8913L45.2481 20.2946L44.8706 19.9668L42.6156 22.5635L42.9931 22.8913ZM40.578 21.1251L42.6404 22.9161L42.9683 22.5386L40.9059 20.7476L40.578 21.1251ZM40.992 37.8412V20.9363H40.492V37.8412H40.992ZM35.5832 43.25C38.5658 43.25 40.992 40.8239 40.992 37.8412H40.492C40.492 40.5477 38.2896 42.75 35.5832 42.75V43.25ZM26.1254 43.25H35.5832V42.75H26.1254V43.25ZM25.8754 26.148V43H26.3754V26.148H25.8754ZM20.1069 26.398H26.1254V25.898H20.1069V26.398ZM20.3569 43V26.148H19.8569V43H20.3569ZM10.4772 43.25H20.1069V42.75H10.4772V43.25ZM5.06844 37.8412C5.06844 40.8238 7.49454 43.25 10.4772 43.25V42.75C7.77069 42.75 5.56844 40.5477 5.56844 37.8412H5.06844ZM5.06844 20.9362V37.8412H5.56844V20.9362H5.06844ZM3.41997 22.9161L5.48236 21.125L5.15451 20.7475L3.09212 22.5385L3.41997 22.9161ZM0.81222 20.2945L3.06728 22.8912L3.4448 22.5634L1.18973 19.9667L0.81222 20.2945ZM37.0527 37.8412C37.0527 38.6513 36.3933 39.3108 35.5832 39.3108V39.8108C36.6694 39.8108 37.5527 38.9275 37.5527 37.8412H37.0527ZM37.0527 17.9496V37.8412H37.5527V17.9496H37.0527ZM22.8662 5.74381L37.1388 18.1384L37.4667 17.7609L23.1941 5.36629L22.8662 5.74381ZM8.92149 18.1384L23.1941 5.74381L22.8662 5.36629L8.59365 17.7609L8.92149 18.1384ZM9.00757 37.8413V17.9496H8.50757V37.8413H9.00757ZM10.4771 39.3109C9.66701 39.3109 9.00757 38.6514 9.00757 37.8413H8.50757C8.50757 38.9276 9.39086 39.8109 10.4771 39.8109V39.3109ZM16.6677 39.3109H10.4771V39.8109H16.6677V39.3109ZM16.4177 22.7089V39.5609H16.9177V22.7089H16.4177ZM29.5646 22.4589H16.6677V22.9589H29.5646V22.4589ZM29.8146 39.5608V22.7089H29.3146V39.5608H29.8146ZM35.5832 39.3108H29.5646V39.8108H35.5832V39.3108Z" fill="#232323"/>
</svg>
