<svg width="56" height="40" viewBox="0 0 56 40" fill="none" xmlns="http://www.w3.org/2000/svg">
<path fill-rule="evenodd" clip-rule="evenodd" d="M24.7905 10.4737H50.1589C52.7707 10.4737 54.8957 12.5987 54.8957 15.2105V37.4211C54.8957 38.2932 54.1889 39 53.3168 39C52.4446 39 51.7378 38.2932 51.7378 37.4211V32.5789H4.15887V37.4211C4.15887 38.2932 3.45205 39 2.57992 39C1.7078 39 1.00098 38.2932 1.00098 37.4211V2.57895C1.00098 1.70683 1.7078 1 2.57992 1C3.45205 1 4.15887 1.70683 4.15887 2.57895V16.7895H8.27154C7.73247 15.8598 7.42203 14.7817 7.42203 13.6316C7.42203 10.1488 10.2551 7.31579 13.7378 7.31579C17.2205 7.31579 20.0536 10.1488 20.0536 13.6316C20.0536 14.7817 19.7432 15.8598 19.2041 16.7895H20.0536V15.2105C20.0536 12.5987 22.1786 10.4737 24.7905 10.4737ZM24.7904 13.6316C23.92 13.6316 23.2115 14.34 23.2115 15.2105V23.1053H51.7378V15.2105C51.7378 14.34 51.0293 13.6316 50.1589 13.6316H24.7904ZM10.5799 13.6316C10.5799 11.8902 11.9965 10.4737 13.7378 10.4737C15.4792 10.4737 16.8957 11.8902 16.8957 13.6316C16.8957 15.3729 15.4792 16.7895 13.7378 16.7895C11.9965 16.7895 10.5799 15.3729 10.5799 13.6316ZM4.15887 19.9474V29.4211H51.7378V26.2632H21.6326C20.7604 26.2632 20.0536 25.5563 20.0536 24.6842V19.9474H4.15887Z" fill="#232323"/>
<path d="M51.7378 32.5789H51.9878V32.3289H51.7378V32.5789ZM4.15887 32.5789V32.3289H3.90887V32.5789H4.15887ZM4.15887 16.7895H3.90887V17.0395H4.15887V16.7895ZM8.27154 16.7895V17.0395H8.70548L8.48781 16.6641L8.27154 16.7895ZM19.2041 16.7895L18.9878 16.6641L18.7702 17.0395H19.2041V16.7895ZM20.0536 16.7895V17.0395H20.3036V16.7895H20.0536ZM23.2115 23.1053H22.9615V23.3553H23.2115V23.1053ZM51.7378 23.1053V23.3553H51.9878V23.1053H51.7378ZM4.15887 29.4211H3.90887V29.6711H4.15887V29.4211ZM4.15887 19.9474V19.6974H3.90887V19.9474H4.15887ZM51.7378 29.4211V29.6711H51.9878V29.4211H51.7378ZM51.7378 26.2632H51.9878V26.0132H51.7378V26.2632ZM20.0536 19.9474H20.3036V19.6974H20.0536V19.9474ZM50.1589 10.2237H24.7905V10.7237H50.1589V10.2237ZM55.1457 15.2105C55.1457 12.4606 52.9088 10.2237 50.1589 10.2237V10.7237C52.6326 10.7237 54.6457 12.7368 54.6457 15.2105H55.1457ZM55.1457 37.4211V15.2105H54.6457V37.4211H55.1457ZM53.3168 39.25C54.327 39.25 55.1457 38.4312 55.1457 37.4211H54.6457C54.6457 38.1551 54.0508 38.75 53.3168 38.75V39.25ZM51.4878 37.4211C51.4878 38.4312 52.3066 39.25 53.3168 39.25V38.75C52.5827 38.75 51.9878 38.1551 51.9878 37.4211H51.4878ZM51.4878 32.5789V37.4211H51.9878V32.5789H51.4878ZM4.15887 32.8289H51.7378V32.3289H4.15887V32.8289ZM4.40887 37.4211V32.5789H3.90887V37.4211H4.40887ZM2.57992 39.25C3.59012 39.25 4.40887 38.4312 4.40887 37.4211H3.90887C3.90887 38.1551 3.31397 38.75 2.57992 38.75V39.25ZM0.750977 37.4211C0.750977 38.4312 1.56973 39.25 2.57992 39.25V38.75C1.84587 38.75 1.25098 38.1551 1.25098 37.4211H0.750977ZM0.750977 2.57895V37.4211H1.25098V2.57895H0.750977ZM2.57992 0.75C1.56973 0.75 0.750977 1.56875 0.750977 2.57895H1.25098C1.25098 1.8449 1.84587 1.25 2.57992 1.25V0.75ZM4.40887 2.57895C4.40887 1.56875 3.59012 0.75 2.57992 0.75V1.25C3.31397 1.25 3.90887 1.8449 3.90887 2.57895H4.40887ZM4.40887 16.7895V2.57895H3.90887V16.7895H4.40887ZM8.27154 16.5395H4.15887V17.0395H8.27154V16.5395ZM7.17203 13.6316C7.17203 14.8273 7.4949 15.9485 8.05526 16.9149L8.48781 16.6641C7.97004 15.7711 7.67203 14.7361 7.67203 13.6316H7.17203ZM13.7378 7.06579C10.117 7.06579 7.17203 10.0108 7.17203 13.6316H7.67203C7.67203 10.2869 10.3932 7.56579 13.7378 7.56579V7.06579ZM20.3036 13.6316C20.3036 10.0108 17.3586 7.06579 13.7378 7.06579V7.56579C17.0825 7.56579 19.8036 10.2869 19.8036 13.6316H20.3036ZM19.4204 16.9149C19.9807 15.9485 20.3036 14.8273 20.3036 13.6316H19.8036C19.8036 14.7361 19.5056 15.7711 18.9878 16.6641L19.4204 16.9149ZM20.0536 16.5395H19.2041V17.0395H20.0536V16.5395ZM19.8036 15.2105V16.7895H20.3036V15.2105H19.8036ZM24.7905 10.2237C22.0405 10.2237 19.8036 12.4606 19.8036 15.2105H20.3036C20.3036 12.7368 22.3167 10.7237 24.7905 10.7237V10.2237ZM23.4615 15.2105C23.4615 14.4781 24.058 13.8816 24.7904 13.8816V13.3816C23.7819 13.3816 22.9615 14.202 22.9615 15.2105H23.4615ZM23.4615 23.1053V15.2105H22.9615V23.1053H23.4615ZM51.7378 22.8553H23.2115V23.3553H51.7378V22.8553ZM51.4878 15.2105V23.1053H51.9878V15.2105H51.4878ZM50.1589 13.8816C50.8913 13.8816 51.4878 14.4781 51.4878 15.2105H51.9878C51.9878 14.202 51.1674 13.3816 50.1589 13.3816V13.8816ZM24.7904 13.8816H50.1589V13.3816H24.7904V13.8816ZM13.7378 10.2237C11.8584 10.2237 10.3299 11.7521 10.3299 13.6316H10.8299C10.8299 12.0283 12.1345 10.7237 13.7378 10.7237V10.2237ZM17.1457 13.6316C17.1457 11.7521 15.6173 10.2237 13.7378 10.2237V10.7237C15.3411 10.7237 16.6457 12.0283 16.6457 13.6316H17.1457ZM13.7378 17.0395C15.6173 17.0395 17.1457 15.511 17.1457 13.6316H16.6457C16.6457 15.2349 15.3411 16.5395 13.7378 16.5395V17.0395ZM10.3299 13.6316C10.3299 15.511 11.8584 17.0395 13.7378 17.0395V16.5395C12.1345 16.5395 10.8299 15.2349 10.8299 13.6316H10.3299ZM4.40887 29.4211V19.9474H3.90887V29.4211H4.40887ZM51.7378 29.1711H4.15887V29.6711H51.7378V29.1711ZM51.4878 26.2632V29.4211H51.9878V26.2632H51.4878ZM21.6326 26.5132H51.7378V26.0132H21.6326V26.5132ZM19.8036 24.6842C19.8036 25.6944 20.6224 26.5132 21.6326 26.5132V26.0132C20.8985 26.0132 20.3036 25.4183 20.3036 24.6842H19.8036ZM19.8036 19.9474V24.6842H20.3036V19.9474H19.8036ZM4.15887 20.1974H20.0536V19.6974H4.15887V20.1974Z" fill="#232323"/>
</svg>
