<svg width="101" height="72" viewBox="0 0 101 72" fill="none" xmlns="http://www.w3.org/2000/svg">
<path fill-rule="evenodd" clip-rule="evenodd" d="M44.8227 18.4515H91.554C96.3653 18.4515 100.28 22.366 100.28 27.1773V68.0914C100.28 69.698 98.9777 71 97.3712 71C95.7647 71 94.4626 69.698 94.4626 68.0914V59.1717H6.81717V68.0914C6.81717 69.698 5.51513 71 3.90859 71C2.30205 71 1 69.698 1 68.0914V3.90859C1 2.30205 2.30205 1 3.90859 1C5.51513 1 6.81717 2.30205 6.81717 3.90859V30.0859H14.3931C13.4001 28.3733 12.8283 26.3873 12.8283 24.2687C12.8283 17.8531 18.047 12.6343 24.4626 12.6343C30.8782 12.6343 36.097 17.8531 36.097 24.2687C36.097 26.3873 35.5251 28.3733 34.5321 30.0859H36.097V27.1773C36.097 22.366 40.0114 18.4515 44.8227 18.4515ZM44.8227 24.2687C43.2192 24.2687 41.9141 25.5738 41.9141 27.1773V41.7202H94.4626V27.1773C94.4626 25.5738 93.1575 24.2687 91.554 24.2687H44.8227ZM18.6454 24.2687C18.6454 21.0609 21.2548 18.4515 24.4626 18.4515C27.6704 18.4515 30.2798 21.0609 30.2798 24.2687C30.2798 27.4765 27.6704 30.0859 24.4626 30.0859C21.2548 30.0859 18.6454 27.4765 18.6454 24.2687ZM6.81717 35.903V53.3546H94.4626V47.5374H39.0055C37.399 47.5374 36.097 46.2353 36.097 44.6288V35.903H6.81717Z" fill="#232323"/>
<path d="M94.4626 59.1717H94.7126V58.9217H94.4626V59.1717ZM6.81717 59.1717V58.9217H6.56717V59.1717H6.81717ZM6.81717 30.0859H6.56717V30.3359H6.81717V30.0859ZM14.3931 30.0859V30.3359H14.8271L14.6094 29.9605L14.3931 30.0859ZM34.5321 30.0859L34.3158 29.9605L34.0981 30.3359H34.5321V30.0859ZM36.097 30.0859V30.3359H36.347V30.0859H36.097ZM41.9141 41.7202H41.6641V41.9702H41.9141V41.7202ZM94.4626 41.7202V41.9702H94.7126V41.7202H94.4626ZM6.81717 53.3546H6.56717V53.6046H6.81717V53.3546ZM6.81717 35.903V35.653H6.56717V35.903H6.81717ZM94.4626 53.3546V53.6046H94.7126V53.3546H94.4626ZM94.4626 47.5374H94.7126V47.2874H94.4626V47.5374ZM36.097 35.903H36.347V35.653H36.097V35.903ZM91.554 18.2015H44.8227V18.7015H91.554V18.2015ZM100.53 27.1773C100.53 22.2279 96.5034 18.2015 91.554 18.2015V18.7015C96.2272 18.7015 100.03 22.5041 100.03 27.1773H100.53ZM100.53 68.0914V27.1773H100.03V68.0914H100.53ZM97.3712 71.25C99.1158 71.25 100.53 69.836 100.53 68.0914H100.03C100.03 69.5599 98.8397 70.75 97.3712 70.75V71.25ZM94.2126 68.0914C94.2126 69.836 95.6266 71.25 97.3712 71.25V70.75C95.9027 70.75 94.7126 69.5599 94.7126 68.0914H94.2126ZM94.2126 59.1717V68.0914H94.7126V59.1717H94.2126ZM6.81717 59.4217H94.4626V58.9217H6.81717V59.4217ZM7.06717 68.0914V59.1717H6.56717V68.0914H7.06717ZM3.90859 71.25C5.6532 71.25 7.06717 69.836 7.06717 68.0914H6.56717C6.56717 69.5599 5.37706 70.75 3.90859 70.75V71.25ZM0.75 68.0914C0.75 69.836 2.16398 71.25 3.90859 71.25V70.75C2.44012 70.75 1.25 69.5599 1.25 68.0914H0.75ZM0.75 3.90859V68.0914H1.25V3.90859H0.75ZM3.90859 0.75C2.16398 0.75 0.75 2.16398 0.75 3.90859H1.25C1.25 2.44012 2.44012 1.25 3.90859 1.25V0.75ZM7.06717 3.90859C7.06717 2.16398 5.6532 0.75 3.90859 0.75V1.25C5.37706 1.25 6.56717 2.44012 6.56717 3.90859H7.06717ZM7.06717 30.0859V3.90859H6.56717V30.0859H7.06717ZM14.3931 29.8359H6.81717V30.3359H14.3931V29.8359ZM12.5783 24.2687C12.5783 26.4329 13.1626 28.462 14.1769 30.2113L14.6094 29.9605C13.6377 28.2846 13.0783 26.3417 13.0783 24.2687H12.5783ZM24.4626 12.3843C17.909 12.3843 12.5783 17.7151 12.5783 24.2687H13.0783C13.0783 17.9912 18.1851 12.8843 24.4626 12.8843V12.3843ZM36.347 24.2687C36.347 17.7151 31.0162 12.3843 24.4626 12.3843V12.8843C30.7401 12.8843 35.847 17.9912 35.847 24.2687H36.347ZM34.7483 30.2113C35.7627 28.462 36.347 26.4329 36.347 24.2687H35.847C35.847 26.3417 35.2875 28.2846 34.3158 29.9605L34.7483 30.2113ZM36.097 29.8359H34.5321V30.3359H36.097V29.8359ZM35.847 27.1773V30.0859H36.347V27.1773H35.847ZM44.8227 18.2015C39.8734 18.2015 35.847 22.2279 35.847 27.1773H36.347C36.347 22.5041 40.1495 18.7015 44.8227 18.7015V18.2015ZM42.1641 27.1773C42.1641 25.7118 43.3573 24.5187 44.8227 24.5187V24.0187C43.0811 24.0187 41.6641 25.4357 41.6641 27.1773H42.1641ZM42.1641 41.7202V27.1773H41.6641V41.7202H42.1641ZM94.4626 41.4702H41.9141V41.9702H94.4626V41.4702ZM94.2126 27.1773V41.7202H94.7126V27.1773H94.2126ZM91.554 24.5187C93.0195 24.5187 94.2126 25.7118 94.2126 27.1773H94.7126C94.7126 25.4357 93.2956 24.0187 91.554 24.0187V24.5187ZM44.8227 24.5187H91.554V24.0187H44.8227V24.5187ZM24.4626 18.2015C21.1168 18.2015 18.3954 20.9228 18.3954 24.2687H18.8954C18.8954 21.199 21.3929 18.7015 24.4626 18.7015V18.2015ZM30.5298 24.2687C30.5298 20.9228 27.8085 18.2015 24.4626 18.2015V18.7015C27.5323 18.7015 30.0298 21.199 30.0298 24.2687H30.5298ZM24.4626 30.3359C27.8085 30.3359 30.5298 27.6145 30.5298 24.2687H30.0298C30.0298 27.3384 27.5323 29.8359 24.4626 29.8359V30.3359ZM18.3954 24.2687C18.3954 27.6145 21.1168 30.3359 24.4626 30.3359V29.8359C21.3929 29.8359 18.8954 27.3384 18.8954 24.2687H18.3954ZM7.06717 53.3546V35.903H6.56717V53.3546H7.06717ZM94.4626 53.1046H6.81717V53.6046H94.4626V53.1046ZM94.2126 47.5374V53.3546H94.7126V47.5374H94.2126ZM39.0055 47.7874H94.4626V47.2874H39.0055V47.7874ZM35.847 44.6288C35.847 46.3734 37.2609 47.7874 39.0055 47.7874V47.2874C37.5371 47.2874 36.347 46.0973 36.347 44.6288H35.847ZM35.847 35.903V44.6288H36.347V35.903H35.847ZM6.81717 36.153H36.097V35.653H6.81717V36.153Z" fill="#232323"/>
</svg>
