<svg width="57" height="72" viewBox="0 0 57 72" fill="none" xmlns="http://www.w3.org/2000/svg">
<path fill-rule="evenodd" clip-rule="evenodd" d="M54.7799 8.04362H47.7366V1.95253C47.7323 1.67202 47.5932 1.40706 47.3555 1.22654C47.1178 1.04603 46.805 0.967789 46.4984 1.01217L1.87476 8.05726C1.37316 8.14385 1.00782 8.53682 1 8.99817V69.8616C1.00033 70.3887 1.47314 70.8159 2.05647 70.8162H54.7799C55.3634 70.8162 55.8364 70.3888 55.8364 69.8616V8.99817C55.8366 8.74496 55.7253 8.50209 55.5272 8.32304C55.329 8.144 55.0602 8.04348 54.7799 8.04362ZM45.6236 3.31175V8.79576H14.2403L45.6236 3.31175ZM3.11295 68.524H53.7235V10.9087H3.11295V68.524Z" fill="#232323"/>
<path d="M47.7366 8.04362H46.7366V9.04362H47.7366V8.04362ZM54.7799 8.04362V9.04362L54.7805 9.04362L54.7799 8.04362ZM47.7366 1.95253H48.7366V1.94482L48.7365 1.9371L47.7366 1.95253ZM46.4984 1.01217L46.3551 0.022406L46.3424 0.024406L46.4984 1.01217ZM1.87476 8.05726L1.71881 7.0695L1.71172 7.07061L1.70465 7.07184L1.87476 8.05726ZM1 8.99817L0.000143468 8.98123L0 8.9897V8.99817H1ZM1 69.8616H-2.38419e-07L1.78814e-07 69.8622L1 69.8616ZM2.05647 70.8162L2.05596 71.8162H2.05647V70.8162ZM55.8364 8.99817L54.8364 8.99754V8.99817H55.8364ZM45.6236 8.79576V9.79576H46.6236V8.79576H45.6236ZM45.6236 3.31175H46.6236V2.12186L45.4515 2.32668L45.6236 3.31175ZM14.2403 8.79576L14.0682 7.81068L14.2403 9.79576V8.79576ZM53.7235 68.524V69.524H54.7235V68.524H53.7235ZM3.11295 68.524H2.11295V69.524H3.11295V68.524ZM53.7235 10.9087H54.7235V9.9087H53.7235V10.9087ZM3.11295 10.9087V9.9087H2.11295V10.9087H3.11295ZM47.7366 9.04362H54.7799V7.04362H47.7366V9.04362ZM46.7366 1.95253V8.04362H48.7366V1.95253H46.7366ZM46.7507 2.02291C46.7565 2.02735 46.7533 2.02677 46.7481 2.01683C46.7427 2.00654 46.737 1.98949 46.7367 1.96797L48.7365 1.9371C48.7271 1.32744 48.4246 0.782791 47.9603 0.430176L46.7507 2.02291ZM46.6417 2.00186C46.6943 1.99423 46.7353 2.01121 46.7507 2.02291L47.9603 0.430176C47.5003 0.080843 46.9156 -0.0586536 46.3551 0.0224875L46.6417 2.00186ZM2.03071 9.04503L46.6543 1.99994L46.3424 0.024406L1.71881 7.0695L2.03071 9.04503ZM1.99986 9.01511C1.9996 9.03052 1.99616 9.04462 1.99175 9.05515C1.98759 9.06509 1.98388 9.06884 1.98459 9.06807C1.98638 9.06615 2.00364 9.0498 2.04487 9.04269L1.70465 7.07184C0.800685 7.22788 0.0172551 7.97119 0.000143468 8.98123L1.99986 9.01511ZM2 69.8616V8.99817H0V69.8616H2ZM2.05698 69.8162C2.00948 69.8161 1.98502 69.7989 1.98002 69.7944C1.97797 69.7926 1.98286 69.7963 1.98874 69.8088C1.99514 69.8225 1.99999 69.8412 2 69.861L1.78814e-07 69.8622C0.000740647 71.034 1.01848 71.8156 2.05596 71.8162L2.05698 69.8162ZM54.7799 69.8162H2.05647V71.8162H54.7799V69.8162ZM54.8364 69.8616C54.8364 69.8417 54.8413 69.8229 54.8477 69.8092C54.8536 69.7966 54.8586 69.7928 54.8566 69.7946C54.8517 69.799 54.8273 69.8162 54.7799 69.8162V71.8162C55.8178 71.8162 56.8364 71.0341 56.8364 69.8616H54.8364ZM54.8364 8.99817V69.8616H56.8364V8.99817H54.8364ZM54.8568 9.06504C54.8578 9.06602 54.8527 9.06162 54.847 9.04926C54.8412 9.03664 54.8364 9.01869 54.8364 8.99754L56.8364 8.9988C56.8368 8.44551 56.5927 7.9381 56.1976 7.58105L54.8568 9.06504ZM54.7805 9.04362C54.8262 9.0436 54.8522 9.06096 54.8568 9.06504L56.1976 7.58105C55.8058 7.22705 55.2942 7.04336 54.7794 7.04362L54.7805 9.04362ZM46.6236 8.79576V3.31175H44.6236V8.79576H46.6236ZM14.2403 9.79576H45.6236V7.79576H14.2403V9.79576ZM45.4515 2.32668L14.0682 7.81068L14.4125 9.78083L45.7958 4.29683L45.4515 2.32668ZM53.7235 67.524H3.11295V69.524H53.7235V67.524ZM52.7235 10.9087V68.524H54.7235V10.9087H52.7235ZM3.11295 11.9087H53.7235V9.9087H3.11295V11.9087ZM4.11295 68.524V10.9087H2.11295V68.524H4.11295Z" fill="#232323"/>
<path fill-rule="evenodd" clip-rule="evenodd" d="M34.7203 42.6243H32.2851C32.1398 42.6243 32.014 42.5711 31.9084 42.4651C31.8024 42.3591 31.7492 42.2333 31.7492 42.088V28.677C31.7492 27.202 32.2746 25.9391 33.3248 24.8883C34.3752 23.838 35.6381 23.3125 37.1135 23.3125H37.8845C38.1749 23.3125 38.4262 23.419 38.6386 23.6311C38.8507 23.8436 38.9571 24.0954 38.9571 24.3853V53.5249C38.9571 54.1061 38.7447 54.6092 38.32 55.0337C37.902 55.4513 37.4074 55.6617 36.8385 55.6683C36.2691 55.6617 35.7749 55.4513 35.357 55.0337C34.9323 54.6092 34.7203 54.1061 34.7203 53.5249V42.6243ZM21.0201 53.0848V37.2687C20.3829 37.0452 17.5544 34.9162 17.5542 34.2338V25.2654C17.5542 24.9754 17.6607 24.7241 17.8728 24.5112C18.0848 24.2991 18.3361 24.1926 18.627 24.1926C18.9174 24.1926 19.1691 24.2991 19.3812 24.5112C19.5938 24.7237 19.6998 24.9754 19.6998 25.2654V32.2391C19.6998 32.5295 19.8059 32.7813 20.0184 32.9934C20.2305 33.2059 20.4818 33.3115 20.7726 33.3115C21.0631 33.3115 21.3144 33.2059 21.5269 32.9934C21.739 32.7813 21.8455 32.53 21.8455 32.2391V25.2654C21.8455 24.9754 21.9515 24.7241 22.1641 24.5112C22.3762 24.2991 22.6275 24.1926 22.9183 24.1926C23.2087 24.1926 23.4604 24.2991 23.6725 24.5112C23.8846 24.7237 23.9911 24.9754 23.9911 25.2654V32.2391C23.9911 32.5295 24.0976 32.7813 24.3097 32.9934C24.5218 33.2059 24.7731 33.3115 25.0639 33.3115C25.3543 33.3115 25.6056 33.2059 25.8182 32.9934C26.0303 32.7813 26.1368 32.53 26.1368 32.2391V25.2654C26.1368 24.9754 26.2428 24.7241 26.4554 24.5112C26.6675 24.2991 26.9188 24.1926 27.2096 24.1926C27.4996 24.1926 27.7513 24.2991 27.9639 24.5112C28.176 24.7237 28.2825 24.9754 28.2825 25.2654V34.2342C28.2825 34.9167 25.894 37.0456 25.2568 37.2687V53.0848C25.2568 53.6662 25.0447 54.1691 24.6201 54.5937C24.2021 55.0113 23.7075 55.2215 23.1385 55.2282C22.5691 55.2215 22.0749 55.0114 21.6573 54.5937C21.2322 54.1691 21.0201 53.6662 21.0201 53.0848Z" fill="#232323"/>
<path d="M34.7203 42.6243H34.9703V42.3743H34.7203V42.6243ZM31.9084 42.4651L32.0856 42.2887L32.0852 42.2884L31.9084 42.4651ZM33.3248 24.8883L33.1481 24.7115L33.148 24.7116L33.3248 24.8883ZM38.6386 23.6311L38.8156 23.4545L38.8152 23.4542L38.6386 23.6311ZM38.32 55.0337L38.4967 55.2105L38.4968 55.2105L38.32 55.0337ZM36.8385 55.6683L36.8356 55.9183L36.8414 55.9183L36.8385 55.6683ZM35.357 55.0337L35.1802 55.2105L35.1802 55.2105L35.357 55.0337ZM21.0201 37.2687H21.2701V37.0915L21.1029 37.0328L21.0201 37.2687ZM17.5542 34.2338H17.3042L17.3042 34.2339L17.5542 34.2338ZM17.8728 24.5112L17.696 24.3344L17.6957 24.3347L17.8728 24.5112ZM19.3812 24.5112L19.558 24.3344L19.3812 24.5112ZM20.0184 32.9934L20.1954 32.8168L20.195 32.8164L20.0184 32.9934ZM21.5269 32.9934L21.7037 33.1701L21.5269 32.9934ZM22.1641 24.5112L21.9873 24.3344L21.9871 24.3346L22.1641 24.5112ZM23.6725 24.5112L23.8495 24.3346L23.8493 24.3344L23.6725 24.5112ZM24.3097 32.9934L24.4866 32.8168L24.4865 32.8166L24.3097 32.9934ZM25.8182 32.9934L25.995 33.1701V33.1701L25.8182 32.9934ZM26.4554 24.5112L26.2786 24.3344L26.2784 24.3346L26.4554 24.5112ZM27.9639 24.5112L28.1408 24.3346L28.1405 24.3342L27.9639 24.5112ZM25.2568 37.2687L25.1742 37.0327L25.0068 37.0913V37.2687H25.2568ZM24.6201 54.5937L24.7968 54.7706L24.7969 54.7705L24.6201 54.5937ZM23.1385 55.2282L23.1356 55.4782L23.1414 55.4781L23.1385 55.2282ZM21.6573 54.5937L21.8341 54.4169L21.834 54.4168L21.6573 54.5937ZM32.2851 42.8743H34.7203V42.3743H32.2851V42.8743ZM31.7313 42.6416C31.8822 42.793 32.0711 42.8743 32.2851 42.8743V42.3743C32.2085 42.3743 32.1458 42.3492 32.0856 42.2887L31.7313 42.6416ZM31.4992 42.088C31.4992 42.3021 31.5805 42.4908 31.7317 42.6419L32.0852 42.2884C32.0242 42.2274 31.9992 42.1645 31.9992 42.088H31.4992ZM31.4992 28.677V42.088H31.9992V28.677H31.4992ZM33.148 24.7116C32.0513 25.8088 31.4992 27.1352 31.4992 28.677H31.9992C31.9992 27.2689 32.4978 26.0693 33.5016 25.065L33.148 24.7116ZM37.1135 23.0625C35.5713 23.0625 34.245 23.6147 33.1481 24.7115L33.5016 25.0651C34.5055 24.0612 35.7049 23.5625 37.1135 23.5625V23.0625ZM37.8845 23.0625H37.1135V23.5625H37.8845V23.0625ZM38.8152 23.4542C38.5579 23.1973 38.2439 23.0625 37.8845 23.0625V23.5625C38.1059 23.5625 38.2944 23.6407 38.462 23.808L38.8152 23.4542ZM39.2071 24.3853C39.2071 24.0265 39.0725 23.712 38.8156 23.4545L38.4617 23.8077C38.6289 23.9753 38.7071 24.1643 38.7071 24.3853H39.2071ZM39.2071 53.5249V24.3853H38.7071V53.5249H39.2071ZM38.4968 55.2105C38.9666 54.7408 39.2071 54.1749 39.2071 53.5249H38.7071C38.7071 54.0374 38.5228 54.4775 38.1433 54.8569L38.4968 55.2105ZM36.8414 55.9183C37.4776 55.9109 38.034 55.6728 38.4967 55.2105L38.1433 54.8568C37.77 55.2298 37.3372 55.4125 36.8356 55.4183L36.8414 55.9183ZM35.1802 55.2105C35.6428 55.6728 36.1989 55.9109 36.8356 55.9183L36.8414 55.4183C36.3393 55.4125 35.9069 55.2298 35.5337 54.8568L35.1802 55.2105ZM34.4703 53.5249C34.4703 54.1748 34.7103 54.7407 35.1802 55.2105L35.5337 54.8569C35.1543 54.4776 34.9703 54.0375 34.9703 53.5249H34.4703ZM34.4703 42.6243V53.5249H34.9703V42.6243H34.4703ZM20.7701 37.2687V53.0848H21.2701V37.2687H20.7701ZM17.3042 34.2339C17.3042 34.3933 17.3817 34.552 17.4659 34.6849C17.5556 34.8263 17.6795 34.9786 17.8223 35.1337C18.1085 35.4448 18.4918 35.7902 18.8897 36.1166C19.2886 36.4438 19.7079 36.7567 20.069 37.0028C20.4206 37.2423 20.7426 37.4363 20.9374 37.5046L21.1029 37.0328C20.9791 36.9894 20.7085 36.8334 20.3505 36.5895C20.0022 36.3522 19.5948 36.0483 19.2069 35.73C18.818 35.411 18.4543 35.0822 18.1902 34.7952C18.0578 34.6513 17.9557 34.5235 17.8882 34.4171C17.8546 34.3641 17.8322 34.3206 17.8188 34.2864C17.8122 34.2697 17.8084 34.2567 17.8063 34.2474C17.8042 34.238 17.8042 34.2337 17.8042 34.2337L17.3042 34.2339ZM17.3042 25.2654V34.2338H17.8042V25.2654H17.3042ZM17.6957 24.3347C17.439 24.5924 17.3042 24.9064 17.3042 25.2654H17.8042C17.8042 25.0445 17.8824 24.8558 18.0499 24.6876L17.6957 24.3347ZM18.627 23.9426C18.2672 23.9426 17.9531 24.0773 17.696 24.3344L18.0496 24.6879C18.2166 24.5209 18.405 24.4426 18.627 24.4426V23.9426ZM19.558 24.3344C19.3008 24.0772 18.9863 23.9426 18.627 23.9426V24.4426C18.8486 24.4426 19.0374 24.5209 19.2044 24.6879L19.558 24.3344ZM19.9498 25.2654C19.9498 24.9067 19.8157 24.5921 19.558 24.3344L19.2044 24.6879C19.3718 24.8553 19.4498 25.0441 19.4498 25.2654H19.9498ZM19.9498 32.2391V25.2654H19.4498V32.2391H19.9498ZM20.195 32.8164C20.0278 32.6496 19.9498 32.4609 19.9498 32.2391H19.4498C19.4498 32.5982 19.5839 32.9129 19.8418 33.1703L20.195 32.8164ZM20.7726 33.0615C20.5502 33.0615 20.362 32.9838 20.1954 32.8168L19.8414 33.17C20.099 33.428 20.4134 33.5615 20.7726 33.5615V33.0615ZM21.3501 32.8166C21.1829 32.9838 20.9945 33.0615 20.7726 33.0615V33.5615C21.1316 33.5615 21.4458 33.428 21.7037 33.1701L21.3501 32.8166ZM21.5955 32.2391C21.5955 32.4611 21.5172 32.6495 21.3501 32.8166L21.7037 33.1701C21.9608 32.913 22.0955 32.5989 22.0955 32.2391H21.5955ZM21.5955 25.2654V32.2391H22.0955V25.2654H21.5955ZM21.9871 24.3346C21.7297 24.5925 21.5955 24.9066 21.5955 25.2654H22.0955C22.0955 25.0443 22.1734 24.8558 22.341 24.6878L21.9871 24.3346ZM22.9183 23.9426C22.5586 23.9426 22.2444 24.0773 21.9873 24.3344L22.3409 24.6879C22.508 24.5209 22.6964 24.4426 22.9183 24.4426V23.9426ZM23.8493 24.3344C23.5921 24.0772 23.2776 23.9426 22.9183 23.9426V24.4426C23.1399 24.4426 23.3287 24.5209 23.4957 24.6879L23.8493 24.3344ZM24.2411 25.2654C24.2411 24.9065 24.1064 24.592 23.8495 24.3346L23.4955 24.6878C23.6628 24.8554 23.7411 25.0444 23.7411 25.2654H24.2411ZM24.2411 32.2391V25.2654H23.7411V32.2391H24.2411ZM24.4865 32.8166C24.3194 32.6495 24.2411 32.4607 24.2411 32.2391H23.7411C23.7411 32.5984 23.8757 32.913 24.1329 33.1701L24.4865 32.8166ZM25.0639 33.0615C24.8415 33.0615 24.6533 32.9838 24.4866 32.8168L24.1327 33.17C24.3903 33.428 24.7047 33.5615 25.0639 33.5615V33.0615ZM25.6414 32.8166C25.4742 32.9838 25.2858 33.0615 25.0639 33.0615V33.5615C25.4229 33.5615 25.7371 33.428 25.995 33.1701L25.6414 32.8166ZM25.8868 32.2391C25.8868 32.4611 25.8085 32.6495 25.6414 32.8166L25.995 33.1701C26.2521 32.913 26.3868 32.5989 26.3868 32.2391H25.8868ZM25.8868 25.2654V32.2391H26.3868V25.2654H25.8868ZM26.2784 24.3346C26.021 24.5925 25.8868 24.9066 25.8868 25.2654H26.3868C26.3868 25.0443 26.4647 24.8558 26.6323 24.6878L26.2784 24.3346ZM27.2096 23.9426C26.8499 23.9426 26.5357 24.0773 26.2786 24.3344L26.6321 24.6879C26.7992 24.5209 26.9877 24.4426 27.2096 24.4426V23.9426ZM28.1405 24.3342C27.883 24.0773 27.5685 23.9426 27.2096 23.9426V24.4426C27.4307 24.4426 27.6196 24.5208 27.7873 24.6881L28.1405 24.3342ZM28.5325 25.2654C28.5325 24.9065 28.3977 24.592 28.1408 24.3346L27.7869 24.6878C27.9542 24.8554 28.0325 25.0444 28.0325 25.2654H28.5325ZM28.5325 34.2342V25.2654H28.0325V34.2342H28.5325ZM25.3394 37.5046C25.5419 37.4337 25.8402 37.2339 26.151 36.9944C26.4722 36.7469 26.8371 36.4327 27.1811 36.1046C27.5244 35.7772 27.8522 35.4309 28.0962 35.1189C28.218 34.9632 28.3231 34.8108 28.3988 34.6696C28.4711 34.5351 28.5325 34.3825 28.5325 34.2342H28.0325C28.0325 34.2565 28.0192 34.3197 27.9583 34.4331C27.901 34.5399 27.8145 34.6676 27.7024 34.8109C27.4786 35.097 27.1695 35.4248 26.836 35.7428C26.5033 36.0601 26.1516 36.3627 25.8457 36.5984C25.5294 36.8421 25.2903 36.9921 25.1742 37.0327L25.3394 37.5046ZM25.5068 53.0848V37.2687H25.0068V53.0848H25.5068ZM24.7969 54.7705C25.2667 54.3006 25.5068 53.7348 25.5068 53.0848H25.0068C25.0068 53.5975 24.8228 54.0375 24.4433 54.4169L24.7969 54.7705ZM23.1414 55.4781C23.7777 55.4707 24.334 55.2328 24.7968 54.7706L24.4434 54.4168C24.0701 54.7898 23.6373 54.9723 23.1356 54.9782L23.1414 55.4781ZM21.4805 54.7705C21.9429 55.2329 22.4989 55.4707 23.1356 55.4781L23.1414 54.9782C22.6393 54.9723 22.207 54.7898 21.8341 54.4169L21.4805 54.7705ZM20.7701 53.0848C20.7701 53.7349 21.0103 54.3007 21.4806 54.7706L21.834 54.4168C21.4542 54.0374 21.2701 53.5975 21.2701 53.0848H20.7701Z" fill="#232323"/>
</svg>
