<svg width="72" height="68" viewBox="0 0 72 68" fill="none" xmlns="http://www.w3.org/2000/svg">
<path d="M71.19 40.838C71.19 39.0413 69.8227 37.5947 68.1147 37.5037L68.1193 37.4127C68.1567 36.8737 68.1963 36.3183 68.1963 35.763C68.1963 25.2607 64.659 16.247 57.9927 9.667C51.653 3.42767 45.1407 0 35.602 0C26.0727 0 19.5603 3.42767 13.2207 9.66933C6.54967 16.24 3.01233 25.2607 3.01233 35.7653C3.01233 36.169 3.04033 36.5773 3.05433 36.9833L3.06833 37.506C1.36267 37.6063 0 39.0413 0 40.838V63.2053C0 65.0697 1.44433 66.5863 3.23633 66.5863H4.34C4.97233 67.277 5.845 67.6737 6.76433 67.6737H10.0637C11.942 67.6737 13.4773 66.087 13.4773 64.1247V39.928C13.4773 37.9633 11.942 36.3767 10.0637 36.3767H7.84233C8.04767 19.6583 18.0413 4.844 36.281 4.844C52.6097 4.844 63.1003 19.6023 63.3523 36.3743H61.1333C59.255 36.3743 57.7243 37.9633 57.7243 39.9257V64.1223C57.7243 66.0847 59.255 67.6713 61.1333 67.6713H64.4373C65.3543 67.6713 66.2153 67.284 66.8383 66.584H67.9583C69.7457 66.584 71.19 65.0673 71.19 63.203V40.838Z" fill="#232323"/>
</svg>
