<svg width="98" height="82" viewBox="0 0 98 82" fill="none" xmlns="http://www.w3.org/2000/svg">
<g filter="url(#filter0_d)">
<mask id="path-1-inside-1" fill="white">
<path fill-rule="evenodd" clip-rule="evenodd" d="M46.9383 0.547897C47.6883 -0.0570775 48.7132 -0.167073 49.5832 0.24791C50.4481 0.667892 50.9981 1.54286 50.9981 2.50282V67.5001C50.9981 68.4601 50.4481 69.335 49.5832 69.755C49.2382 69.92 48.8682 70 48.4982 70C47.9432 70 47.3883 69.815 46.9333 69.455L22.6193 50.0008H10.9998C8.24491 50.0008 6 47.7559 6 45.001V25.0019C6 22.247 8.24491 20.0021 10.9998 20.0021H22.6193L46.9383 0.547897ZM10.9998 45.001H20.9994V25.0019H10.9998V45.001ZM45.9983 62.2953L25.9992 46.296V23.7069L45.9983 7.7076V62.2953ZM66.725 17.7432C67.695 16.7632 69.2749 16.7482 70.2599 17.7232C74.9947 22.403 77.5996 28.6777 77.5996 35.4024C77.5996 42.1271 74.9947 48.4019 70.2599 53.0767C69.7699 53.5617 69.1349 53.8016 68.4999 53.8016C67.86 53.8016 67.215 53.5567 66.725 53.0617C65.7501 52.0767 65.7601 50.4968 66.745 49.5268C70.5199 45.792 72.5998 40.7772 72.5998 35.4024C72.5998 30.0276 70.5199 25.0128 66.745 21.278C65.7651 20.308 65.7551 18.7281 66.725 17.7432ZM60.2035 24.4323C59.694 23.8495 58.8767 23.8584 58.375 24.4443C57.8733 25.0331 57.8785 25.9775 58.3854 26.5574C60.3379 28.7901 61.4138 31.7879 61.4138 35.001C61.4138 38.214 60.3379 41.2118 58.3854 43.4445C57.8759 44.0244 57.8707 44.9688 58.375 45.5576C58.6285 45.8535 58.9621 46 59.2931 46C59.6216 46 59.95 45.8565 60.2035 45.5666C62.6526 42.772 64 39.021 64 35.001C64 30.9809 62.6526 27.2299 60.2035 24.4323ZM77.7237 10.7387C78.6937 9.75878 80.2786 9.75378 81.2586 10.7237C87.8933 17.3035 91.5482 26.0831 91.5482 35.4477C91.5482 44.8123 87.8933 53.5919 81.2586 60.1717C80.7686 60.6567 80.1336 60.8966 79.4987 60.8966C78.8537 60.8966 78.2137 60.6517 77.7237 60.1567C76.7538 59.1767 76.7588 57.5918 77.7387 56.6218C83.4185 50.9871 86.5484 43.4674 86.5484 35.4477C86.5484 27.428 83.4185 19.9084 77.7387 14.2736C76.7588 13.3036 76.7538 11.7187 77.7237 10.7387Z"/>
</mask>
<path d="M49.5832 0.24791L51.7671 -4.24992L51.7515 -4.25749L51.7359 -4.26495L49.5832 0.24791ZM46.9383 0.547897L50.0617 4.45232L50.0696 4.44595L50.0776 4.43956L46.9383 0.547897ZM49.5832 69.755L51.7405 74.2657L51.7538 74.2593L51.7671 74.2528L49.5832 69.755ZM46.9333 69.455L43.8095 73.3591L43.8202 73.3677L43.8309 73.3761L46.9333 69.455ZM22.6193 50.0008L25.7431 46.0967L24.3734 45.0008H22.6193V50.0008ZM22.6193 20.0021V25.0021H24.3731L25.7427 23.9065L22.6193 20.0021ZM20.9994 45.001V50.001H25.9994V45.001H20.9994ZM10.9998 45.001H5.99979V50.001H10.9998V45.001ZM20.9994 25.0019H25.9994V20.0019H20.9994V25.0019ZM10.9998 25.0019V20.0019H5.99979V25.0019H10.9998ZM25.9992 46.296H20.9992V48.6991L22.8757 50.2003L25.9992 46.296ZM45.9983 62.2953L42.8749 66.1997L50.9983 72.6984V62.2953H45.9983ZM25.9992 23.7069L22.8757 19.8026L20.9992 21.3038V23.7069H25.9992ZM45.9983 7.7076H50.9983V-2.69553L42.8749 3.80325L45.9983 7.7076ZM70.2599 17.7232L66.7424 21.2767L66.745 21.2793L70.2599 17.7232ZM66.725 17.7432L63.1714 14.2258L63.1625 14.2348L66.725 17.7432ZM70.2599 53.0767L66.7469 49.5187L66.7425 49.5231L70.2599 53.0767ZM66.725 53.0617L63.1715 56.5791L63.1716 56.5792L66.725 53.0617ZM66.745 49.5268L70.2533 53.0894L70.2617 53.0811L66.745 49.5268ZM66.745 21.278L63.2276 24.8316L63.2284 24.8323L66.745 21.278ZM58.375 24.4443L54.5774 21.1918L54.5693 21.2014L58.375 24.4443ZM60.2035 24.4323L56.439 27.723L56.4414 27.7258L60.2035 24.4323ZM58.3854 26.5574L54.621 29.8482L54.6216 29.8489L58.3854 26.5574ZM58.3854 43.4445L62.1414 46.7448L62.1491 46.7361L58.3854 43.4445ZM58.375 45.5576L54.5775 48.8102L54.5776 48.8103L58.375 45.5576ZM60.2035 45.5666L56.4431 42.2711L56.4391 42.2758L60.2035 45.5666ZM81.2586 10.7237L84.7794 7.17352L84.7759 7.17012L81.2586 10.7237ZM77.7237 10.7387L81.2774 14.2561L81.2774 14.2561L77.7237 10.7387ZM81.2586 60.1717L84.776 63.7253L84.7794 63.7219L81.2586 60.1717ZM77.7237 60.1567L74.1701 63.674L74.1703 63.6742L77.7237 60.1567ZM77.7387 56.6218L81.2561 60.1754L81.2602 60.1714L77.7387 56.6218ZM77.7387 14.2736L81.2602 10.724L81.2561 10.72L77.7387 14.2736ZM51.7359 -4.26495C49.1693 -5.48924 46.0807 -5.18431 43.799 -3.34376L50.0776 4.43956C49.2958 5.07015 48.2571 5.15509 47.4305 4.76077L51.7359 -4.26495ZM55.9981 2.50282C55.9981 -0.381541 54.3459 -2.99777 51.7671 -4.24992L47.3993 4.74574C46.5504 4.33355 45.9981 3.46725 45.9981 2.50282H55.9981ZM55.9981 67.5001V2.50282H45.9981V67.5001H55.9981ZM51.7671 74.2528C54.3459 73.0007 55.9981 70.3845 55.9981 67.5001H45.9981C45.9981 66.5357 46.5504 65.6694 47.3993 65.2572L51.7671 74.2528ZM48.4982 75C49.5921 75 50.7018 74.7625 51.7405 74.2657L47.4259 65.2443C47.7746 65.0776 48.1443 65 48.4982 65V75ZM43.8309 73.3761C45.1858 74.4482 46.8388 75 48.4982 75V65C49.0477 65 49.5907 65.1818 50.0357 65.5339L43.8309 73.3761ZM19.4955 53.9049L43.8095 73.3591L50.0571 65.5509L25.7431 46.0967L19.4955 53.9049ZM10.9998 55.0008H22.6193V45.0008H10.9998V55.0008ZM1 45.001C1 50.5173 5.48348 55.0008 10.9998 55.0008V45.0008L11 45.001H1ZM1 25.0019V45.001H11V25.0019H1ZM10.9998 15.0021C5.48348 15.0021 1 19.4856 1 25.0019H11L10.9998 25.0021V15.0021ZM22.6193 15.0021H10.9998V25.0021H22.6193V15.0021ZM43.8149 -3.35653L19.4959 16.0977L25.7427 23.9065L50.0617 4.45232L43.8149 -3.35653ZM20.9994 40.001H10.9998V50.001H20.9994V40.001ZM15.9994 25.0019V45.001H25.9994V25.0019H15.9994ZM10.9998 30.0019H20.9994V20.0019H10.9998V30.0019ZM15.9998 45.001V25.0019H5.99979V45.001H15.9998ZM22.8757 50.2003L42.8749 66.1997L49.1218 58.391L29.1226 42.3916L22.8757 50.2003ZM20.9992 23.7069V46.296H30.9992V23.7069H20.9992ZM42.8749 3.80325L22.8757 19.8026L29.1226 27.6113L49.1218 11.6119L42.8749 3.80325ZM50.9983 62.2953V7.7076H40.9983V62.2953H50.9983ZM73.7773 14.1696C70.8182 11.2406 66.0725 11.2948 63.1714 14.2258L70.2786 21.2605C69.3174 22.2316 67.7316 22.2558 66.7424 21.2767L73.7773 14.1696ZM82.5996 35.4024C82.5996 27.3568 79.4707 19.7969 73.7747 14.167L66.745 21.2793C70.5186 25.009 72.5996 29.9986 72.5996 35.4024H82.5996ZM73.7728 56.6347C79.4709 51.0087 82.5996 43.4475 82.5996 35.4024H72.5996C72.5996 40.8068 70.5184 45.795 66.7469 49.5187L73.7728 56.6347ZM68.4999 58.8016C70.4004 58.8016 72.3149 58.0777 73.7772 56.6303L66.7425 49.5231C67.2248 49.0457 67.8694 48.8016 68.4999 48.8016V58.8016ZM63.1716 56.5792C64.6444 58.067 66.5885 58.8016 68.4999 58.8016V48.8016C69.1314 48.8016 69.7856 49.0463 70.2785 49.5441L63.1716 56.5792ZM63.2367 45.9643C60.2771 48.8788 60.2538 53.6316 63.1715 56.5791L70.2785 49.5442C71.2463 50.5219 71.243 52.1148 70.2533 53.0894L63.2367 45.9643ZM67.5998 35.4024C67.5998 39.4589 66.0419 43.1888 63.2284 45.9725L70.2617 53.0811C74.9978 48.3952 77.5998 42.0955 77.5998 35.4024H67.5998ZM63.2284 24.8323C66.0419 27.6161 67.5998 31.3459 67.5998 35.4024H77.5998C77.5998 28.7094 74.9978 22.4096 70.2617 17.7237L63.2284 24.8323ZM63.1625 14.2348C60.2619 17.1802 60.285 21.919 63.2276 24.8316L70.2624 17.7244C71.2451 18.6971 71.2482 20.276 70.2876 21.2515L63.1625 14.2348ZM62.1726 27.6967C61.5329 28.4436 60.5173 28.9905 59.3259 28.9999C58.1297 29.0093 57.0954 28.4739 56.439 27.723L63.9679 21.1416C61.4337 18.2426 57.0426 18.3135 54.5774 21.1918L62.1726 27.6967ZM62.1498 23.2666C62.7748 23.9816 62.9985 24.7996 63.0019 25.4788C63.0053 26.1586 62.7899 26.9723 62.1808 27.6871L54.5693 21.2014C52.4668 23.6687 52.4752 27.3936 54.621 29.8482L62.1498 23.2666ZM66.4138 35.001C66.4138 30.6852 64.967 26.4879 62.1491 23.2658L54.6216 29.8489C55.7089 31.0922 56.4138 32.8907 56.4138 35.001H66.4138ZM62.1491 46.7361C64.967 43.514 66.4138 39.3167 66.4138 35.001H56.4138C56.4138 37.1112 55.7089 38.9097 54.6216 40.153L62.1491 46.7361ZM62.1725 42.3051C62.7843 43.0194 63.0034 43.8365 63 44.5231C62.9965 45.2091 62.7691 46.0304 62.1414 46.7448L54.6293 40.1442C52.4699 42.6019 52.4614 46.3396 54.5775 48.8102L62.1725 42.3051ZM59.2931 41C60.4836 41 61.5166 41.5393 62.1724 42.305L54.5776 48.8103C55.7404 50.1678 57.4406 51 59.2931 51V41ZM56.4391 42.2758C57.0884 41.533 58.1095 41 59.2931 41V51C61.1336 51 62.8116 50.18 63.9679 48.8574L56.4391 42.2758ZM59 35.001C59 37.9165 58.0247 40.4665 56.4432 42.2711L63.9638 48.8621C67.2805 45.0775 69 40.1254 69 35.001H59ZM56.4414 27.7258C58.025 29.5347 59 32.0859 59 35.001H69C69 29.8759 67.2802 24.9251 63.9655 21.1388L56.4414 27.7258ZM84.7759 7.17012C81.8416 4.26569 77.0908 4.27063 74.1701 7.22139L81.2774 14.2561C80.2966 15.2469 78.7157 15.2419 77.7412 14.2774L84.7759 7.17012ZM96.5482 35.4477C96.5482 24.7526 92.3628 14.694 84.7794 7.17352L77.7378 14.274C83.4239 19.9129 86.5482 27.4136 86.5482 35.4477H96.5482ZM84.7794 63.7219C92.3628 56.2014 96.5482 46.1429 96.5482 35.4477H86.5482C86.5482 43.4818 83.4239 50.9825 77.7378 56.6215L84.7794 63.7219ZM79.4987 65.8966C81.3991 65.8966 83.3137 65.1727 84.776 63.7253L77.7412 56.6181C78.2235 56.1407 78.8682 55.8966 79.4987 55.8966V65.8966ZM74.1703 63.6742C75.6395 65.1584 77.5769 65.8966 79.4987 65.8966V55.8966C80.1305 55.8966 80.788 56.1449 81.2772 56.6391L74.1703 63.6742ZM74.2214 53.0682C71.2706 55.9888 71.2657 60.7397 74.1701 63.674L81.2774 56.6393C82.2419 57.6138 82.2469 59.1947 81.2561 60.1754L74.2214 53.0682ZM81.5484 35.4477C81.5484 42.1371 78.9488 48.3782 74.2173 53.0723L81.2602 60.1714C87.8882 53.5959 91.5484 44.7976 91.5484 35.4477H81.5484ZM74.2173 17.8232C78.9488 22.5172 81.5484 28.7583 81.5484 35.4477H91.5484C91.5484 26.0978 87.8882 17.2995 81.2602 10.724L74.2173 17.8232ZM74.1701 7.22138C71.2657 10.1558 71.2706 14.9066 74.2214 17.8272L81.2561 10.72C82.2469 11.7007 82.2419 13.2816 81.2774 14.2561L74.1701 7.22138Z" fill="white" mask="url(#path-1-inside-1)"/>
</g>
<defs>
<filter id="filter0_d" x="0" y="0" width="97.5482" height="82" filterUnits="userSpaceOnUse" color-interpolation-filters="sRGB">
<feFlood flood-opacity="0" result="BackgroundImageFix"/>
<feColorMatrix in="SourceAlpha" type="matrix" values="0 0 0 0 0 0 0 0 0 0 0 0 0 0 0 0 0 0 127 0"/>
<feOffset dy="6"/>
<feGaussianBlur stdDeviation="3"/>
<feColorMatrix type="matrix" values="0 0 0 0 0 0 0 0 0 0 0 0 0 0 0 0 0 0 0.37 0"/>
<feBlend mode="normal" in2="BackgroundImageFix" result="effect1_dropShadow"/>
<feBlend mode="normal" in="SourceGraphic" in2="effect1_dropShadow" result="shape"/>
</filter>
</defs>
</svg>
