<svg width="86" height="70" viewBox="0 0 86 70" fill="none" xmlns="http://www.w3.org/2000/svg">
<path d="M64.9765 20.6992H12.2882C9.1758 20.6992 6.64307 23.232 6.64307 26.3444V30.1078C6.64307 43.5357 14.0608 55.7142 25.9984 61.89C26.9205 62.3642 28.0569 62.0066 28.535 61.0808C29.0092 60.1587 28.6516 59.0223 27.7258 58.5442C17.0452 53.0195 10.4064 42.1244 10.4064 30.1076V26.3442C10.4064 25.3055 11.2495 24.4624 12.2882 24.4624H64.9765C66.0152 24.4624 66.8582 25.3055 66.8582 26.3442V30.1076C66.8582 42.1242 60.2195 53.0194 49.5352 58.5403C48.6094 59.0182 48.2518 60.1548 48.726 61.0769C49.061 61.7242 49.7195 62.0968 50.4007 62.0968C50.6942 62.0968 50.9877 62.029 51.2624 61.886C63.2039 55.7139 70.6216 43.5392 70.6216 30.1074V26.344C70.6216 23.232 68.0887 20.6992 64.9765 20.6992Z" fill="#232323" stroke="#232323"/>
<path fill-rule="evenodd" clip-rule="evenodd" d="M74.3887 58.3301C75.1489 58.3301 75.8339 58.7893 76.1274 59.493C76.421 60.1967 76.2592 61.0059 75.7212 61.5441L71.5023 65.7667C69.0071 68.2544 65.6991 69.6243 62.1802 69.6243H15.0845C11.5657 69.6243 8.26148 68.2543 5.77003 65.7667L1.55115 61.5441C1.01292 61.0059 0.851151 60.1967 1.1447 59.493C1.43825 58.7893 2.12325 58.3301 2.88341 58.3301H74.3887ZM63.2743 65.8607C65.4273 65.8607 67.4577 64.8822 68.9813 63.1059L69.8463 62.0973H6.62051L7.48555 63.1059C9.00909 64.8822 11.0395 65.8607 13.1925 65.8607H63.2743Z" fill="#232323"/>
<path d="M76.1274 59.493L76.312 59.416L76.1274 59.493ZM75.7212 61.5441L75.5797 61.4027L75.5797 61.4028L75.7212 61.5441ZM71.5023 65.7667L71.6435 65.9083L71.6438 65.9081L71.5023 65.7667ZM5.77003 65.7667L5.62854 65.9081L5.62872 65.9082L5.77003 65.7667ZM1.55115 61.5441L1.69263 61.4028L1.69257 61.4027L1.55115 61.5441ZM1.1447 59.493L0.960115 59.416L1.1447 59.493ZM68.9813 63.1059L68.8295 62.9757V62.9757L68.9813 63.1059ZM69.8463 62.0973L69.9981 62.2275L70.2813 61.8973H69.8463V62.0973ZM6.62051 62.0973V61.8973H6.18547L6.4687 62.2275L6.62051 62.0973ZM7.48555 63.1059L7.63736 62.9757L7.63736 62.9757L7.48555 63.1059ZM76.312 59.416C75.9876 58.6384 75.2302 58.1301 74.3887 58.1301V58.5301C75.0675 58.5301 75.6801 58.9402 75.9428 59.57L76.312 59.416ZM75.8626 61.6855C76.4577 61.0902 76.6369 60.1948 76.312 59.416L75.9428 59.57C76.2051 60.1986 76.0607 60.9216 75.5797 61.4027L75.8626 61.6855ZM71.6438 65.9081L75.8626 61.6855L75.5797 61.4028L71.3608 65.6253L71.6438 65.9081ZM62.1802 69.8243C65.7521 69.8243 69.1109 68.4334 71.6435 65.9083L71.3611 65.6251C68.9033 68.0755 65.646 69.4243 62.1802 69.4243V69.8243ZM15.0845 69.8243H62.1802V69.4243H15.0845V69.8243ZM5.62872 65.9082C8.15758 68.4332 11.5126 69.8243 15.0845 69.8243V69.4243C11.6188 69.4243 8.36539 68.0754 5.91134 65.6252L5.62872 65.9082ZM1.40967 61.6855L5.62854 65.9081L5.91151 65.6253L1.69263 61.4028L1.40967 61.6855ZM0.960115 59.416C0.63523 60.1948 0.814398 61.0902 1.40973 61.6855L1.69257 61.4027C1.21144 60.9216 1.06707 60.1986 1.32928 59.57L0.960115 59.416ZM2.88341 58.1301C2.0419 58.1301 1.28449 58.6384 0.960115 59.416L1.32928 59.57C1.59201 58.9402 2.2046 58.5301 2.88341 58.5301V58.1301ZM74.3887 58.1301H2.88341V58.5301H74.3887V58.1301ZM68.8295 62.9757C67.3403 64.7119 65.3636 65.6607 63.2743 65.6607V66.0607C65.491 66.0607 67.5752 65.0524 69.1331 63.2361L68.8295 62.9757ZM69.6945 61.9671L68.8295 62.9757L69.1331 63.2361L69.9981 62.2275L69.6945 61.9671ZM6.62051 62.2973H69.8463V61.8973H6.62051V62.2973ZM7.63736 62.9757L6.77231 61.9671L6.4687 62.2275L7.33374 63.2361L7.63736 62.9757ZM13.1925 65.6607C11.1032 65.6607 9.12654 64.7119 7.63736 62.9757L7.33374 63.2361C8.89165 65.0524 10.9758 66.0607 13.1925 66.0607V65.6607ZM63.2743 65.6607H13.1925V66.0607H63.2743V65.6607Z" fill="#232323"/>
<path d="M82.0359 29.584C76.9666 26.3248 68.8677 29.8625 67.9606 30.2727C67.0159 30.7054 66.5945 31.8194 67.0272 32.7678C67.46 33.7162 68.5703 34.134 69.5224 33.7012C71.3364 32.877 77.1546 30.9238 79.9998 32.7565C81.2832 33.5807 81.9116 35.1802 81.9116 37.634C81.9116 45.1683 66.7148 49.7222 60.8475 50.8436L59.5153 51.107C58.4954 51.3065 57.833 52.2962 58.0325 53.3162C58.2095 54.2119 58.9959 54.8328 59.8766 54.8328C59.997 54.8328 60.1174 54.8215 60.2416 54.7952L61.5625 54.5356C62.5485 54.3473 85.6749 49.8125 85.6749 37.634C85.6751 33.848 84.4484 31.142 82.0359 29.584Z" fill="#232323" stroke="#232323" stroke-width="0.5"/>
<path d="M53.2834 9.22187C56.3431 6.76356 56.3431 2.91407 53.2834 0.455755C52.6323 -0.0668709 51.4544 -0.153975 50.6378 0.267029C49.8249 0.685651 49.6931 1.44532 50.3442 1.96794C52.2824 3.52369 52.2824 6.15383 50.3405 7.71445C47.2771 10.1728 47.2771 14.0223 50.3405 16.4806C50.7131 16.7806 51.2587 16.9355 51.812 16.9355C52.2221 16.9355 52.6399 16.8484 52.9861 16.6693C53.799 16.2507 53.9308 15.4885 53.2797 14.9684C51.3378 13.4125 51.3378 10.7825 53.2834 9.22187Z" fill="#232323"/>
<path d="M41.9779 9.22142C45.0413 6.76296 45.0413 2.91324 41.9779 0.454781C41.3306 -0.067876 40.1451 -0.152604 39.3322 0.266044C38.5193 0.684691 38.3876 1.4469 39.0387 1.96706C40.9806 3.52289 40.9806 6.15319 39.035 7.7139C35.9753 10.1724 35.9753 14.0221 39.035 16.4805C39.4076 16.7805 39.9532 16.9355 40.5064 16.9355C40.9166 16.9355 41.3306 16.8484 41.6806 16.6693C42.4935 16.2506 42.6253 15.4909 41.9742 14.9683C40.036 13.4123 40.036 10.7821 41.9779 9.22142Z" fill="#232323"/>
<path d="M30.7028 9.22317C33.7625 6.76451 33.7625 2.91448 30.7028 0.455819C30.0556 -0.0668803 28.8738 -0.153997 28.0572 0.267067C27.248 0.683252 27.1164 1.44552 27.7636 1.96584C29.7019 3.5218 29.7019 6.15231 27.7599 7.71315C24.6966 10.1718 24.6966 14.0218 27.7599 16.4805C28.1325 16.7805 28.6782 16.9355 29.2314 16.9355C29.6415 16.9355 30.0593 16.8484 30.4056 16.6718C31.2185 16.2531 31.3503 15.4908 30.6991 14.9706C28.7572 13.412 28.7572 10.784 30.7028 9.22317Z" fill="#232323"/>
</svg>
