<svg width="72" height="72" viewBox="0 0 72 72" fill="none" xmlns="http://www.w3.org/2000/svg">
<path fill-rule="evenodd" clip-rule="evenodd" d="M17.771 18.5C16.5635 18.5 15.5835 17.52 15.5835 16.3125V11.2085H9.02101C7.01135 11.2085 5.375 12.8443 5.375 14.854V24.3335H66.625V14.854C66.625 12.8443 64.9886 11.2085 62.979 11.2085H56.4165V16.3125C56.4165 17.52 55.4365 18.5 54.229 18.5C53.0215 18.5 52.0415 17.52 52.0415 16.3125V11.2085H19.9585V16.3125C19.9585 17.52 18.9785 18.5 17.771 18.5ZM52.0415 6.83351H19.9585V3.1875C19.9585 1.98 18.9785 1 17.771 1C16.5635 1 15.5835 1.98 15.5835 3.1875V6.83351H9.02101C4.59634 6.83351 1 10.4293 1 14.854V26.521V62.979C1 67.4037 4.59634 71 9.02101 71H62.979C67.4037 71 71 67.4037 71 62.979V26.521V14.854C71 10.4293 67.4037 6.83351 62.979 6.83351H56.4165V3.1875C56.4165 1.98 55.4365 1 54.229 1C53.0215 1 52.0415 1.98 52.0415 3.1875V6.83351ZM5.375 28.7085H66.625V62.979C66.625 64.9886 64.9886 66.625 62.979 66.625H9.02101C7.01135 66.625 5.375 64.9886 5.375 62.979V28.7085ZM9.84583 37.3833C9.84583 36.831 10.2935 36.3833 10.8458 36.3833H16.9545C17.5068 36.3833 17.9545 36.831 17.9545 37.3833V42.7548C17.9545 43.3071 17.5068 43.7548 16.9545 43.7548H10.8458C10.2935 43.7548 9.84583 43.3071 9.84583 42.7548V37.3833Z" fill="#232323"/>
<path d="M15.5835 11.2085H15.9835V10.8085H15.5835V11.2085ZM5.375 24.3335H4.975V24.7335H5.375V24.3335ZM66.625 24.3335V24.7335H67.025V24.3335H66.625ZM56.4165 11.2085V10.8085H56.0165V11.2085H56.4165ZM52.0415 11.2085H52.4415V10.8085H52.0415V11.2085ZM19.9585 11.2085V10.8085H19.5585V11.2085H19.9585ZM52.0415 6.83351V7.23351H52.4415V6.83351H52.0415ZM19.9585 6.83351H19.5585V7.23351H19.9585V6.83351ZM15.5835 6.83351V7.23351H15.9835V6.83351H15.5835ZM56.4165 6.83351H56.0165V7.23351H56.4165V6.83351ZM66.625 28.7085H67.025V28.3085H66.625V28.7085ZM5.375 28.7085V28.3085H4.975V28.7085H5.375ZM15.1835 16.3125C15.1835 17.7409 16.3426 18.9 17.771 18.9V18.1C16.7844 18.1 15.9835 17.2991 15.9835 16.3125H15.1835ZM15.1835 11.2085V16.3125H15.9835V11.2085H15.1835ZM9.02101 11.6085H15.5835V10.8085H9.02101V11.6085ZM5.775 14.854C5.775 13.0653 7.23219 11.6085 9.02101 11.6085V10.8085C6.79051 10.8085 4.975 12.6233 4.975 14.854H5.775ZM5.775 24.3335V14.854H4.975V24.3335H5.775ZM66.625 23.9335H5.375V24.7335H66.625V23.9335ZM66.225 14.854V24.3335H67.025V14.854H66.225ZM62.979 11.6085C64.7678 11.6085 66.225 13.0653 66.225 14.854H67.025C67.025 12.6233 65.2095 10.8085 62.979 10.8085V11.6085ZM56.4165 11.6085H62.979V10.8085H56.4165V11.6085ZM56.0165 11.2085V16.3125H56.8165V11.2085H56.0165ZM56.0165 16.3125C56.0165 17.2991 55.2156 18.1 54.229 18.1V18.9C55.6574 18.9 56.8165 17.7409 56.8165 16.3125H56.0165ZM54.229 18.1C53.2424 18.1 52.4415 17.2991 52.4415 16.3125H51.6415C51.6415 17.7409 52.8006 18.9 54.229 18.9V18.1ZM52.4415 16.3125V11.2085H51.6415V16.3125H52.4415ZM19.9585 11.6085H52.0415V10.8085H19.9585V11.6085ZM20.3585 16.3125V11.2085H19.5585V16.3125H20.3585ZM17.771 18.9C19.1994 18.9 20.3585 17.7409 20.3585 16.3125H19.5585C19.5585 17.2991 18.7576 18.1 17.771 18.1V18.9ZM52.0415 6.43351H19.9585V7.23351H52.0415V6.43351ZM20.3585 6.83351V3.1875H19.5585V6.83351H20.3585ZM20.3585 3.1875C20.3585 1.75908 19.1994 0.6 17.771 0.6V1.4C18.7576 1.4 19.5585 2.20091 19.5585 3.1875H20.3585ZM17.771 0.6C16.3426 0.6 15.1835 1.75908 15.1835 3.1875H15.9835C15.9835 2.20091 16.7844 1.4 17.771 1.4V0.6ZM15.1835 3.1875V6.83351H15.9835V3.1875H15.1835ZM15.5835 6.43351H9.02101V7.23351H15.5835V6.43351ZM9.02101 6.43351C4.37546 6.43351 0.6 10.2084 0.6 14.854H1.4C1.4 10.6503 4.81722 7.23351 9.02101 7.23351V6.43351ZM0.6 14.854V26.521H1.4V14.854H0.6ZM0.6 26.521V62.979H1.4V26.521H0.6ZM0.6 62.979C0.6 67.6246 4.37543 71.4 9.02101 71.4V70.6C4.81726 70.6 1.4 67.1827 1.4 62.979H0.6ZM9.02101 71.4H62.979V70.6H9.02101V71.4ZM62.979 71.4C67.6246 71.4 71.4 67.6246 71.4 62.979H70.6C70.6 67.1827 67.1827 70.6 62.979 70.6V71.4ZM71.4 62.979V26.521H70.6V62.979H71.4ZM71.4 26.521V14.854H70.6V26.521H71.4ZM71.4 14.854C71.4 10.2084 67.6245 6.43351 62.979 6.43351V7.23351C67.1828 7.23351 70.6 10.6503 70.6 14.854H71.4ZM62.979 6.43351H56.4165V7.23351H62.979V6.43351ZM56.0165 3.1875V6.83351H56.8165V3.1875H56.0165ZM54.229 1.4C55.2156 1.4 56.0165 2.20091 56.0165 3.1875H56.8165C56.8165 1.75908 55.6574 0.6 54.229 0.6V1.4ZM52.4415 3.1875C52.4415 2.20091 53.2424 1.4 54.229 1.4V0.6C52.8006 0.6 51.6415 1.75908 51.6415 3.1875H52.4415ZM52.4415 6.83351V3.1875H51.6415V6.83351H52.4415ZM66.625 28.3085H5.375V29.1085H66.625V28.3085ZM67.025 62.979V28.7085H66.225V62.979H67.025ZM62.979 67.025C65.2096 67.025 67.025 65.2096 67.025 62.979H66.225C66.225 64.7677 64.7677 66.225 62.979 66.225V67.025ZM9.02101 67.025H62.979V66.225H9.02101V67.025ZM4.975 62.979C4.975 65.2096 6.79044 67.025 9.02101 67.025V66.225C7.23227 66.225 5.775 64.7677 5.775 62.979H4.975ZM4.975 28.7085V62.979H5.775V28.7085H4.975ZM10.8458 35.9833C10.0726 35.9833 9.44583 36.6101 9.44583 37.3833H10.2458C10.2458 37.0519 10.5145 36.7833 10.8458 36.7833V35.9833ZM16.9545 35.9833H10.8458V36.7833H16.9545V35.9833ZM18.3545 37.3833C18.3545 36.6101 17.7277 35.9833 16.9545 35.9833V36.7833C17.2859 36.7833 17.5545 37.0519 17.5545 37.3833H18.3545ZM18.3545 42.7548V37.3833H17.5545V42.7548H18.3545ZM16.9545 44.1548C17.7277 44.1548 18.3545 43.528 18.3545 42.7548H17.5545C17.5545 43.0862 17.2859 43.3548 16.9545 43.3548V44.1548ZM10.8458 44.1548H16.9545V43.3548H10.8458V44.1548ZM9.44583 42.7548C9.44583 43.528 10.0726 44.1548 10.8458 44.1548V43.3548C10.5145 43.3548 10.2458 43.0862 10.2458 42.7548H9.44583ZM9.44583 37.3833V42.7548H10.2458V37.3833H9.44583Z" fill="#232323"/>
</svg>
