<svg width="78" height="70" viewBox="0 0 78 70" fill="none" xmlns="http://www.w3.org/2000/svg">
<path fill-rule="evenodd" clip-rule="evenodd" d="M77.7479 21.6741L70.4256 7.24439V1.52174C70.4256 0.681435 69.7445 0 68.9039 0H9.00839C8.16809 0 7.48665 0.681435 7.48665 1.52174V7.24515L0.164652 21.6741C0.0564565 21.8875 0 22.1235 0 22.3627V26.1063C0 30.5547 3.24191 34.258 7.48665 34.9837V66.9562H5.92946C5.089 66.9562 4.40772 67.6377 4.40772 68.478C4.40772 69.3183 5.089 69.9997 5.92946 69.9997H8.99667L9.00242 70L9.00571 70.0002L9.00839 70.0003H50.6432H62.8172H68.9042H71.9831C72.8234 70.0003 73.5049 69.3189 73.5049 68.4786C73.5049 67.6383 72.8234 66.9568 71.9831 66.9568H70.4259V34.9837C74.6708 34.258 77.9127 30.5548 77.9127 26.1063V22.3627C77.9127 22.1235 77.8563 21.8875 77.7479 21.6741ZM10.5301 3.04348H67.3821V6.08741H56.9252H44.9459H32.967H20.9875H10.5301V3.04348ZM53.9303 32.0713C57.2195 32.0713 59.8955 29.3954 59.8955 26.1063V22.5892L55.7979 9.13089H46.63L47.9572 22.209C47.9623 22.2602 47.9649 22.3114 47.9649 22.3627V26.1063C47.9649 29.3954 50.641 32.0713 53.9303 32.0713ZM44.9213 26.1063C44.9213 29.3954 42.2455 32.0713 38.9565 32.0713C35.6673 32.0713 32.9912 29.3954 32.9912 26.1063V22.4397L34.3422 9.13089H43.5709L44.9214 22.4397V26.1063H44.9213ZM29.9477 26.1063V22.3627C29.9477 22.3114 29.9503 22.2602 29.9556 22.2092L31.2832 9.13104H22.1153L18.0175 22.5893V26.1063C18.0175 29.3954 20.6934 32.0713 23.9826 32.0713C27.2718 32.0713 29.9477 29.3954 29.9477 26.1063ZM3.04348 26.1063V22.7267L9.94274 9.13089H18.9336L15.04 21.9194C14.9963 22.0631 14.9739 22.2125 14.9739 22.3627V26.1063C14.9739 29.3954 12.2978 32.0713 9.00839 32.0713C5.7193 32.0713 3.04348 29.3954 3.04348 26.1063ZM16.4957 31.1101C15.1469 33.1214 13.0097 34.5599 10.5301 34.9837V66.9568H49.1214V63.913H15.0955C14.2549 63.913 13.5738 63.2318 13.5738 62.3913V41.0873C13.5738 40.247 14.2549 39.5655 15.0955 39.5655H50.6429H62.8169C63.6574 39.5655 64.3387 40.247 64.3387 41.0873V66.9568H67.3821V34.9837C64.9028 34.5599 62.7655 33.1214 61.4169 31.1101C59.799 33.5228 57.0471 35.1147 53.93 35.1147C50.8128 35.1147 48.0609 33.523 46.4429 31.1101C44.8251 33.523 42.0732 35.1147 38.9564 35.1147C35.8392 35.1147 33.0873 33.5228 31.4693 31.1101C29.8512 33.5228 27.0996 35.1147 23.9825 35.1147C20.8653 35.1147 18.1136 33.5228 16.4957 31.1101ZM16.6172 57.4507L31.4589 42.609H36.7607L33.8671 45.5021C33.2728 46.0962 33.2728 47.0598 33.8669 47.6542C34.1641 47.9514 34.5535 48.1 34.9431 48.1C35.3325 48.1 35.7218 47.9514 36.019 47.6543L41.0649 42.609H49.1213V60.8696H16.6172V57.4507ZM16.6172 42.609V53.1464L27.1547 42.609H16.6172ZM52.1649 66.9568V62.3913V56.3043V53.2609V42.609H61.2955V66.9568H52.1649ZM68.9042 32.0713C72.1933 32.0713 74.8693 29.3954 74.8693 26.1063V22.7267L67.97 9.13089H58.9793L62.8729 21.9194C62.9168 22.0631 62.939 22.2125 62.939 22.3627V26.1063C62.939 29.3954 65.615 32.0713 68.9042 32.0713Z" fill="#232323"/>
</svg>
