<svg width="17" height="21" viewBox="0 0 17 21" fill="none" xmlns="http://www.w3.org/2000/svg">
<path fill-rule="evenodd" clip-rule="evenodd" d="M15.5 0C14.6716 0 14 0.671573 14 1.5V19.5C14 20.3284 14.6716 21 15.5 21C16.3284 21 17 20.3284 17 19.5V1.5C17 0.671573 16.3284 0 15.5 0ZM8.5 0C7.67157 0 7 0.671573 7 1.5V19.5C7 20.3284 7.67157 21 8.5 21C9.32843 21 10 20.3284 10 19.5V1.5C10 0.671573 9.32843 0 8.5 0ZM0 1.5C0 0.671573 0.671574 0 1.5 0C2.32843 0 3 0.671573 3 1.5V19.5C3 20.3284 2.32843 21 1.5 21C0.671574 21 0 20.3284 0 19.5V1.5Z" fill="#232323"/>
</svg>
