<svg width="113" height="115" viewBox="0 0 113 115" fill="none" xmlns="http://www.w3.org/2000/svg">
<g filter="url(#filter0_d)">
<mask id="path-1-inside-1" fill="white">
<path fill-rule="evenodd" clip-rule="evenodd" d="M45.0474 11.5234C49.5247 10.1979 52.4977 10 52.4977 10C52.4977 10 50.5769 12.1934 48.1451 15.8565C40.5391 27.3141 27.935 53.1499 53.4794 71.2156C70.9496 83.5703 89.2495 73.4361 97.8346 67.086C100.996 64.7476 102.84 62.9223 102.84 62.9223C102.84 62.9223 103.223 65.609 102.514 69.8011C101.505 75.7736 98.2817 84.8017 88.5844 93.4696C80.1115 101.043 68.9573 104.96 57.5793 104.96C44.8703 104.96 32.9221 100.011 23.9355 91.0245C14.949 82.0379 10 70.0897 10 57.3815C10 46.0063 13.9173 34.308 21.6729 26.0061C29.7478 17.3631 38.8423 13.3604 45.0474 11.5234ZM40.726 18.4384C35.9411 20.5682 30.412 23.9762 25.3266 29.4194C18.5701 36.6518 15 47.0626 15 57.3815C15 68.7636 19.4222 79.4401 27.471 87.489C35.5199 95.5378 46.1963 99.96 57.5793 99.96C67.832 99.96 77.7707 96.4288 85.2524 89.7417C91.3625 84.2801 94.5327 78.762 96.1795 74.2408C94.0961 75.5274 91.7402 76.8197 89.1665 77.9718C78.919 82.5589 64.5304 85.1547 50.5924 75.2979L50.5923 75.2978C41.2825 68.7137 36.2331 60.9225 34.2465 52.7772C32.2879 44.7465 33.4225 36.858 35.5875 30.1346C36.9878 25.7862 38.8544 21.8131 40.726 18.4384ZM84.9062 89.1919C77.3129 95.7224 67.6084 99.3188 57.5793 99.3188C46.3773 99.3188 35.8454 94.9559 27.9246 87.0351C20.0037 79.1143 15.6416 68.5824 15.6416 57.3811C15.6416 47.3542 19.2358 37.6519 25.7627 30.0592C27.4951 28.0446 29.404 26.2105 31.4578 24.5749C33.4605 22.9799 35.6009 21.5736 37.8497 20.3726C37.8497 20.3726 37.8497 20.3726 37.8498 20.3726C38.7109 19.9126 39.5879 19.4828 40.4792 19.084C39.9757 19.7549 39.4924 20.4424 39.0295 21.1473C37.6353 23.2706 36.4724 25.4799 35.5348 27.7452C28.4202 44.9343 34.2723 65.3515 50.3829 75.9309C58.9297 81.5428 69.1725 83.6184 79.2248 81.7753C81.9897 81.2682 84.663 80.4797 87.2106 79.431C90.301 78.159 93.2064 76.5042 95.8655 74.5051C94.4254 77.7182 92.5817 80.7461 90.3779 83.5113C88.7457 85.5594 86.9159 87.4634 84.9062 89.1919ZM28.2482 34.9276C23.3303 41.3473 20.6416 49.2422 20.6416 57.3811C20.6416 67.2564 24.477 76.5165 31.4601 83.4996C38.4433 90.4828 47.7034 94.3188 57.5793 94.3188C65.7184 94.3188 73.6138 91.6294 80.0337 86.7103C68.7454 88.7557 57.2337 86.4106 47.6386 80.1104L47.6384 80.1103C32.2659 70.0157 25.1853 51.9767 28.2482 34.9276Z"/>
</mask>
<path d="M45.0474 11.5234L46.4667 16.3177L45.0474 11.5234ZM52.4977 10L56.2592 13.2941L64.2154 4.20888L52.1656 5.01104L52.4977 10ZM48.1451 15.8565L52.3108 18.6219L48.1451 15.8565ZM53.4794 71.2156L50.5923 75.2978L50.5924 75.2979L53.4794 71.2156ZM97.8346 67.086L94.8613 63.0662V63.0662L97.8346 67.086ZM102.84 62.9223L107.79 62.2178L106.389 52.3742L99.3228 59.3688L102.84 62.9223ZM102.514 69.8011L107.444 70.6342V70.6342L102.514 69.8011ZM88.5844 93.4696L91.9165 97.1976L91.9166 97.1975L88.5844 93.4696ZM21.6729 26.0061L18.0194 22.5927L18.0192 22.5928L21.6729 26.0061ZM25.3266 29.4194L21.6731 26.006L21.6729 26.0061L25.3266 29.4194ZM40.726 18.4384L45.0985 20.8636L52.3482 7.79252L38.6929 13.8705L40.726 18.4384ZM27.471 87.489L31.0066 83.9534L31.0066 83.9534L27.471 87.489ZM85.2524 89.7417L88.5844 93.4696L88.5845 93.4695L85.2524 89.7417ZM96.1795 74.2408L100.878 75.952L105.807 62.4185L93.5523 69.9866L96.1795 74.2408ZM89.1665 77.9718L87.1237 73.4081L87.1237 73.4081L89.1665 77.9718ZM50.5924 75.2979L53.4794 71.2155L53.3892 71.1517L53.2962 71.092L50.5924 75.2979ZM50.5923 75.2978L47.7052 79.3801L47.7955 79.4439L47.8885 79.5037L50.5923 75.2978ZM34.2465 52.7772L39.1041 51.5925L34.2465 52.7772ZM35.5875 30.1346L30.8282 28.6021L35.5875 30.1346ZM84.9062 89.1919L88.1665 92.9828L88.1666 92.9826L84.9062 89.1919ZM27.9246 87.0351L31.4601 83.4996L31.4601 83.4996L27.9246 87.0351ZM25.7627 30.0592L21.9716 26.7993L21.9711 26.7998L25.7627 30.0592ZM31.4578 24.5749L34.5727 28.4861L31.4578 24.5749ZM37.8497 20.3726L35.5309 15.9428L35.5125 15.9524L35.4941 15.9622L37.8497 20.3726ZM37.8498 20.3726L40.1685 24.8024L40.1869 24.7927L40.2053 24.7829L37.8498 20.3726ZM40.4792 19.084L44.4782 22.0854L56.0821 6.62457L38.437 14.52L40.4792 19.084ZM39.0295 21.1473L34.8502 18.4026L34.85 18.4029L39.0295 21.1473ZM35.5348 27.7452L30.9149 25.8331V25.8331L35.5348 27.7452ZM50.3829 75.9309L47.6384 80.1103L47.6386 80.1104L50.3829 75.9309ZM79.2248 81.7753L80.1265 86.6933L80.1267 86.6933L79.2248 81.7753ZM87.2106 79.431L89.1138 84.0547L87.2106 79.431ZM95.8655 74.5051L100.428 76.55L92.8609 70.5085L95.8655 74.5051ZM90.3779 83.5113L94.288 86.6275L94.2881 86.6275L90.3779 83.5113ZM28.2482 34.9276L33.1694 35.8117L24.279 31.887L28.2482 34.9276ZM31.4601 83.4996L34.9956 79.964L34.9956 79.964L31.4601 83.4996ZM80.0337 86.7103L83.0748 90.6791L79.1422 81.7904L80.0337 86.7103ZM47.6386 80.1104L44.8863 84.2848L44.8943 84.29L47.6386 80.1104ZM47.6384 80.1103L50.3907 75.936L50.3829 75.9309L47.6384 80.1103ZM46.4667 16.3177C48.4831 15.7208 50.1415 15.3836 51.2662 15.1978C51.8279 15.1051 52.2541 15.0505 52.5227 15.0202C52.657 15.0051 52.7516 14.9961 52.8038 14.9915C52.8298 14.9892 52.8453 14.9879 52.8498 14.9876C52.852 14.9874 52.8515 14.9875 52.8482 14.9877C52.8465 14.9878 52.8442 14.988 52.8411 14.9882C52.8396 14.9883 52.8379 14.9884 52.836 14.9885C52.835 14.9886 52.8341 14.9887 52.833 14.9887C52.8325 14.9888 52.8317 14.9888 52.8315 14.9888C52.8306 14.9889 52.8298 14.989 52.4977 10C52.1656 5.01104 52.1647 5.0111 52.1639 5.01116C52.1636 5.01118 52.1627 5.01124 52.1621 5.01128C52.1609 5.01136 52.1596 5.01144 52.1583 5.01153C52.1557 5.01171 52.1529 5.0119 52.15 5.0121C52.144 5.01252 52.1373 5.01299 52.1299 5.01352C52.1151 5.01459 52.0973 5.01591 52.0767 5.01751C52.0354 5.02071 51.9826 5.02503 51.9187 5.03072C51.7908 5.04208 51.6181 5.05889 51.4037 5.08304C50.9749 5.13132 50.3781 5.20904 49.6369 5.33146C48.1557 5.57606 46.089 6.00055 43.628 6.7291L46.4667 16.3177ZM52.4977 10C48.7362 6.70593 48.7358 6.70631 48.7355 6.70669C48.7354 6.70683 48.735 6.70723 48.7348 6.70751C48.7343 6.70806 48.7338 6.70866 48.7332 6.70928C48.7321 6.71054 48.7309 6.71192 48.7296 6.71345C48.7269 6.7165 48.7238 6.72009 48.7202 6.72422C48.713 6.73248 48.704 6.74289 48.6931 6.75544C48.6714 6.78055 48.6425 6.8142 48.6066 6.85622C48.5349 6.94026 48.4356 7.05784 48.3114 7.20754C48.0631 7.50685 47.715 7.93518 47.2895 8.48114C46.4395 9.57182 45.2754 11.139 43.9795 13.0912L52.3108 18.6219C53.4466 16.9109 54.4588 15.5499 55.1771 14.6281C55.5359 14.1678 55.8199 13.8188 56.0078 13.5924C56.1016 13.4792 56.1714 13.3968 56.2142 13.3466C56.2356 13.3215 56.2503 13.3044 56.2579 13.2956C56.2617 13.2912 56.2638 13.2889 56.264 13.2886C56.2641 13.2885 56.2638 13.2888 56.263 13.2898C56.2626 13.2902 56.2621 13.2908 56.2615 13.2915C56.2611 13.2919 56.2608 13.2923 56.2604 13.2927C56.2602 13.2929 56.2599 13.2933 56.2599 13.2934C56.2595 13.2937 56.2592 13.2941 52.4977 10ZM43.9795 13.0912C40.008 19.0737 34.4197 29.2322 33.4008 40.6121C32.3427 52.4298 36.2806 65.1762 50.5923 75.2978L56.3665 67.1333C45.1338 59.1892 42.6016 49.9849 43.3609 41.5039C44.1595 32.5851 48.6763 24.0969 52.3108 18.6219L43.9795 13.0912ZM50.5924 75.2979C60.7004 82.4461 71.1599 83.0754 80.0988 81.0404C88.8775 79.0419 96.2412 74.4838 100.808 71.1059L94.8613 63.0662C90.843 66.0384 84.7642 69.7224 77.8791 71.2898C71.1542 72.8208 63.7286 72.3398 56.3664 67.1332L50.5924 75.2979ZM100.808 71.1059C102.513 69.8444 103.871 68.716 104.814 67.8914C105.286 67.4785 105.656 67.1403 105.916 66.8977C106.046 66.7764 106.148 66.6789 106.222 66.6077C106.259 66.5722 106.289 66.5432 106.312 66.5211C106.323 66.5101 106.332 66.5008 106.34 66.4932C106.344 66.4894 106.347 66.4861 106.35 66.4832C106.352 66.4818 106.353 66.4805 106.354 66.4792C106.355 66.4786 106.355 66.4781 106.356 66.4775C106.356 66.4772 106.357 66.4768 106.357 66.4767C106.357 66.4763 106.358 66.4759 102.84 62.9223C99.3228 59.3688 99.3231 59.3684 99.3235 59.368C99.3236 59.3679 99.324 59.3676 99.3242 59.3674C99.3246 59.3669 99.325 59.3665 99.3254 59.3661C99.3262 59.3653 99.3269 59.3647 99.3275 59.3641C99.3286 59.363 99.3293 59.3623 99.3295 59.3621C99.33 59.3616 99.3288 59.3628 99.3258 59.3657C99.3199 59.3715 99.307 59.384 99.2874 59.403C99.2481 59.4408 99.1817 59.5041 99.0893 59.5904C98.9044 59.7632 98.6158 60.0274 98.2318 60.3632C97.4626 61.0358 96.3173 61.9892 94.8613 63.0662L100.808 71.1059ZM102.84 62.9223C97.89 63.6269 97.8899 63.6257 97.8897 63.6246C97.8897 63.6242 97.8895 63.6231 97.8894 63.6224C97.8892 63.6209 97.889 63.6195 97.8888 63.6181C97.8884 63.6154 97.888 63.6128 97.8877 63.6103C97.887 63.6055 97.8865 63.6012 97.886 63.5976C97.885 63.5903 97.8844 63.5855 97.8841 63.5832C97.8835 63.5785 97.8842 63.5836 97.8858 63.5981C97.889 63.6273 97.896 63.6943 97.904 63.7968C97.92 64.0022 97.9401 64.3488 97.9429 64.8192C97.9484 65.761 97.8845 67.1896 97.584 68.968L107.444 70.6342C107.852 68.2205 107.951 66.2097 107.943 64.7602C107.938 64.0349 107.907 63.4479 107.874 63.0184C107.857 62.8036 107.84 62.628 107.825 62.4938C107.817 62.4268 107.81 62.37 107.804 62.3239C107.802 62.3009 107.799 62.2805 107.796 62.2628C107.795 62.2539 107.794 62.2458 107.793 62.2383C107.793 62.2345 107.792 62.2309 107.792 62.2275C107.791 62.2258 107.791 62.2242 107.791 62.2226C107.791 62.2217 107.791 62.2206 107.791 62.2202C107.79 62.219 107.79 62.2178 102.84 62.9223ZM97.584 68.968C96.738 73.9748 93.9955 81.9266 85.2523 89.7418L91.9166 97.1975C102.568 87.6767 106.272 77.5723 107.444 70.6342L97.584 68.968ZM85.2524 89.7417C77.7707 96.4288 67.832 99.96 57.5793 99.96V109.96C70.0826 109.96 82.4523 105.657 91.9165 97.1976L85.2524 89.7417ZM57.5793 99.96C46.1963 99.96 35.5199 95.5378 27.471 87.489L20.4 94.56C30.3242 104.484 43.5443 109.96 57.5793 109.96V99.96ZM27.471 87.489C19.4222 79.4401 15 68.7636 15 57.3815H5C5 71.4158 10.4758 84.6358 20.4 94.56L27.471 87.489ZM15 57.3815C15 47.0626 18.5701 36.6518 25.3266 29.4194L18.0192 22.5928C9.26449 31.9642 5 44.95 5 57.3815H15ZM25.3265 29.4195C32.6343 21.5975 40.8616 17.9771 46.4667 16.3177L43.628 6.7291C36.823 8.74371 26.8613 13.1286 18.0194 22.5927L25.3265 29.4195ZM28.9802 32.8328C33.5336 27.959 38.4778 24.912 42.7592 23.0064L38.6929 13.8705C33.4043 16.2244 27.2904 19.9934 21.6731 26.006L28.9802 32.8328ZM20 57.3815C20 48.1202 23.2221 38.9965 28.9803 32.8327L21.6729 26.0061C13.9181 34.3071 10 46.0049 10 57.3815H20ZM31.0066 83.9534C23.8954 76.8423 20 67.4375 20 57.3815H10C10 70.0897 14.949 82.0379 23.9355 91.0245L31.0066 83.9534ZM57.5793 94.96C47.5224 94.96 38.1177 91.0645 31.0066 83.9534L23.9355 91.0245C32.9221 100.011 44.8703 104.96 57.5793 104.96V94.96ZM81.9203 86.0138C75.4295 91.8153 66.7061 94.96 57.5793 94.96V104.96C68.958 104.96 80.112 101.042 88.5844 93.4696L81.9203 86.0138ZM91.4815 72.5296C90.106 76.3059 87.3927 81.1223 81.9202 86.0139L88.5845 93.4695C95.3324 87.4379 98.9595 81.218 100.878 75.952L91.4815 72.5296ZM91.2093 82.5354C94.0143 81.2798 96.5657 79.8789 98.8068 78.4949L93.5523 69.9866C91.6266 71.1759 89.4661 72.3596 87.1237 73.4081L91.2093 82.5354ZM47.7054 79.3802C63.6355 90.6457 80.0758 87.5192 91.2093 82.5354L87.1237 73.4081C77.7623 77.5986 65.4254 79.6637 53.4794 71.2155L47.7054 79.3802ZM47.8885 79.5037L47.8886 79.5038L53.2962 71.092L53.2961 71.0919L47.8885 79.5037ZM29.3889 53.962C31.6899 63.3968 37.5141 72.1726 47.7052 79.3801L53.4794 71.2156C45.0509 65.2547 40.7762 58.4483 39.1041 51.5925L29.3889 53.962ZM30.8282 28.6021C28.4825 35.8864 27.1438 44.7565 29.3889 53.962L39.1041 51.5925C37.432 44.7365 38.3624 37.8297 40.3469 31.6672L30.8282 28.6021ZM36.3535 16.0133C34.3635 19.6013 32.3502 23.8756 30.8282 28.6021L40.3469 31.6672C41.6254 27.6968 43.3452 24.0249 45.0985 20.8636L36.3535 16.0133ZM57.5793 104.319C68.803 104.319 79.6647 100.295 88.1665 92.9828L81.6459 85.401C74.961 91.1503 66.4137 94.3188 57.5793 94.3188V104.319ZM24.389 90.5706C33.2474 99.4291 45.0511 104.319 57.5793 104.319V94.3188C47.7034 94.3188 38.4433 90.4828 31.4601 83.4996L24.389 90.5706ZM10.6416 57.3811C10.6416 69.9084 15.5305 81.7121 24.389 90.5706L31.4601 83.4996C24.477 76.5165 20.6416 67.2564 20.6416 57.3811H10.6416ZM21.9711 26.7998C14.6633 35.3009 10.6416 46.1601 10.6416 57.3811H20.6416C20.6416 48.5484 23.8083 40.0029 29.5543 33.3186L21.9711 26.7998ZM28.3429 20.6637C26.0454 22.4934 23.9098 24.5453 21.9716 26.7993L29.5538 33.3192C31.0804 31.5439 32.7627 29.9276 34.5727 28.4861L28.3429 20.6637ZM35.4941 15.9622C32.9778 17.3062 30.5832 18.8795 28.3429 20.6637L34.5727 28.4861C36.3378 27.0804 38.224 25.8411 40.2052 24.783L35.4941 15.9622ZM35.531 15.9427C35.5123 15.9525 35.4972 15.9606 35.4877 15.9657C35.4828 15.9683 35.479 15.9704 35.4766 15.9716C35.4754 15.9723 35.4744 15.9728 35.4738 15.9731C35.4735 15.9733 35.4733 15.9734 35.4731 15.9735C35.473 15.9736 35.473 15.9736 35.4729 15.9736C35.4729 15.9736 35.4729 15.9736 35.4729 15.9736C35.4729 15.9736 35.4729 15.9736 35.4729 15.9736C35.4729 15.9736 35.4729 15.9736 35.4729 15.9736C35.4729 15.9736 35.4729 15.9736 35.4729 15.9736C35.4726 15.9738 35.4744 15.9728 35.4766 15.9716C35.4789 15.9704 35.4828 15.9683 35.4876 15.9657C35.4971 15.9606 35.5122 15.9525 35.5309 15.9428L40.1684 24.8024C40.1871 24.7926 40.2023 24.7846 40.2118 24.7795C40.2166 24.7769 40.2205 24.7748 40.2228 24.7735C40.2241 24.7729 40.225 24.7723 40.2256 24.772C40.2259 24.7718 40.2262 24.7717 40.2263 24.7716C40.2264 24.7716 40.2265 24.7716 40.2265 24.7715C40.2265 24.7715 40.2265 24.7715 40.2265 24.7715C40.2265 24.7715 40.2266 24.7715 40.2266 24.7715C40.2266 24.7715 40.2266 24.7715 40.2266 24.7715C40.2266 24.7715 40.2266 24.7715 40.2266 24.7715C40.2269 24.7713 40.225 24.7723 40.2229 24.7735C40.2205 24.7748 40.2166 24.7769 40.2118 24.7794C40.2023 24.7845 40.1872 24.7926 40.1685 24.8024L35.531 15.9427ZM38.437 14.52C37.4394 14.9664 36.4579 15.4475 35.4942 15.9622L40.2053 24.7829C40.964 24.3777 41.7365 23.9991 42.5214 23.6479L38.437 14.52ZM43.2088 23.892C43.6142 23.2747 44.0373 22.6728 44.4782 22.0854L36.4802 16.0826C35.9141 16.8369 35.3707 17.6101 34.8502 18.4026L43.2088 23.892ZM40.1547 29.6574C40.9727 27.681 41.9884 25.7505 43.209 23.8917L34.85 18.4029C33.2821 20.7907 31.9721 23.2788 30.9149 25.8331L40.1547 29.6574ZM53.1274 71.7514C39.0632 62.5159 33.9393 44.674 40.1547 29.6574L30.9149 25.8331C22.9011 45.1947 29.4813 68.1871 47.6384 80.1103L53.1274 71.7514ZM78.3231 76.8573C69.5366 78.4683 60.5995 76.6576 53.1273 71.7513L47.6386 80.1104C57.2599 86.4279 68.8085 88.7685 80.1265 86.6933L78.3231 76.8573ZM85.3074 74.8074C83.0829 75.7231 80.7451 76.4131 78.3228 76.8573L80.1267 86.6933C83.2343 86.1234 86.2432 85.2362 89.1138 84.0547L85.3074 74.8074ZM92.8609 70.5085C90.5412 72.2525 88.006 73.6966 85.3074 74.8074L89.1138 84.0547C92.5961 82.6213 95.8716 80.7559 98.8701 78.5016L92.8609 70.5085ZM94.2881 86.6275C96.7533 83.5343 98.8163 80.1466 100.428 76.55L91.3028 72.4601C90.0346 75.2899 88.4102 77.9579 86.4678 80.395L94.2881 86.6275ZM88.1666 92.9826C90.415 91.0488 92.462 88.9187 94.288 86.6275L86.4678 80.395C85.0293 82.2 83.4167 83.878 81.6458 85.4012L88.1666 92.9826ZM25.6416 57.3811C25.6416 50.3429 27.9671 43.5164 32.2173 37.9683L24.279 31.887C18.6934 39.1782 15.6416 48.1415 15.6416 57.3811H25.6416ZM34.9956 79.964C28.9503 73.9187 25.6416 65.9304 25.6416 57.3811H15.6416C15.6416 68.5824 20.0037 79.1143 27.9246 87.0351L34.9956 79.964ZM57.5793 89.3188C49.0296 89.3188 41.0412 86.0096 34.9956 79.964L27.9246 87.0351C35.8454 94.9559 46.3773 99.3188 57.5793 99.3188V89.3188ZM76.9926 82.7414C71.4443 86.9927 64.6174 89.3188 57.5793 89.3188V99.3188C66.8194 99.3188 75.7834 96.2661 83.0748 90.6791L76.9926 82.7414ZM44.8943 84.29C55.5609 91.2937 68.3741 93.9044 80.9252 91.6301L79.1422 81.7904C69.1166 83.607 58.9064 81.5275 50.3829 75.9309L44.8943 84.29ZM44.8861 84.2846L44.8863 84.2847L50.3909 75.9361L50.3907 75.936L44.8861 84.2846ZM23.3269 34.0435C19.9234 52.9891 27.7842 73.0544 44.8939 84.2898L50.3829 75.9309C36.7475 66.977 30.4472 50.9644 33.1694 35.8117L23.3269 34.0435Z" fill="url(#paint0_linear)" mask="url(#path-1-inside-1)"/>
</g>
<defs>
<filter id="filter0_d" x="0" y="0" width="112.943" height="114.96" filterUnits="userSpaceOnUse" color-interpolation-filters="sRGB">
<feFlood flood-opacity="0" result="BackgroundImageFix"/>
<feColorMatrix in="SourceAlpha" type="matrix" values="0 0 0 0 0 0 0 0 0 0 0 0 0 0 0 0 0 0 127 0"/>
<feOffset/>
<feGaussianBlur stdDeviation="5"/>
<feColorMatrix type="matrix" values="0 0 0 0 0.976471 0 0 0 0 0.698039 0 0 0 0 0.2 0 0 0 0.458233 0"/>
<feBlend mode="normal" in2="BackgroundImageFix" result="effect1_dropShadow"/>
<feBlend mode="normal" in="SourceGraphic" in2="effect1_dropShadow" result="shape"/>
</filter>
<linearGradient id="paint0_linear" x1="10" y1="10" x2="10" y2="104.96" gradientUnits="userSpaceOnUse">
<stop stop-color="#F29810"/>
<stop offset="0.999023" stop-color="#E94F1B"/>
</linearGradient>
</defs>
</svg>
