<svg width="115" height="115" viewBox="0 0 115 115" fill="none" xmlns="http://www.w3.org/2000/svg">
<g filter="url(#filter0_d)">
<mask id="path-1-inside-1" fill="white">
<path fill-rule="evenodd" clip-rule="evenodd" d="M57.4052 27.777C59.0429 27.777 60.368 26.4518 60.368 24.8141V12.9629C60.368 11.3251 59.0429 10 57.4052 10C55.7674 10 54.4423 11.3251 54.4423 12.9629V24.8141C54.4423 26.4518 55.7674 27.777 57.4052 27.777ZM57.4052 87.0334C55.7674 87.0334 54.4423 88.3585 54.4423 89.9962V101.847C54.4423 103.485 55.7674 104.81 57.4052 104.81C59.0429 104.81 60.368 103.485 60.368 101.847V89.9962C60.368 88.3585 59.0429 87.0334 57.4052 87.0334ZM89.9962 54.4423H101.847C103.485 54.4423 104.81 55.7674 104.81 57.4052C104.81 59.0429 103.485 60.368 101.847 60.368H89.9962C88.3585 60.368 87.0334 59.0429 87.0334 57.4052C87.0334 55.7674 88.3585 54.4423 89.9962 54.4423ZM27.777 57.4052C27.777 55.7674 26.4518 54.4423 24.8141 54.4423H12.9629C11.3251 54.4423 10 55.7674 10 57.4052C10 59.0429 11.3251 60.368 12.9629 60.368H24.8141C26.4518 60.368 27.777 59.0429 27.777 57.4052ZM82.5457 36.4541C81.9669 37.0328 81.209 37.3222 80.4509 37.3222C79.6927 37.3222 78.9346 37.0328 78.3561 36.4541C77.1987 35.2967 77.1987 33.4219 78.3561 32.2645L86.7353 23.8853C87.8927 22.7279 89.7674 22.7279 90.9249 23.8853C92.0823 25.0427 92.0823 26.9175 90.9249 28.0749L82.5457 36.4541ZM32.2647 78.3559L23.8853 86.7353C22.7279 87.8927 22.7279 89.7674 23.8853 90.9248C24.464 91.5035 25.222 91.7929 25.9801 91.7929C26.7382 91.7929 27.4962 91.5035 28.0749 90.9248L36.4541 82.5457C37.6115 81.3882 37.6115 79.5135 36.4541 78.3561C35.2967 77.1987 33.4219 77.1987 32.2647 78.3559ZM78.3561 82.5455C77.1987 81.3881 77.1987 79.5133 78.3561 78.3559C79.5135 77.1985 81.3882 77.1985 82.5457 78.3559C82.5457 78.3559 90.9249 86.7353 90.9249 86.7351C92.0823 87.8925 92.0823 89.7673 90.9249 90.9247C90.3461 91.5034 89.5882 91.7927 88.83 91.7927C88.0719 91.7927 87.314 91.5034 86.7353 90.9247L78.3561 82.5455ZM32.2645 36.4543C32.8432 37.033 33.6012 37.3223 34.3593 37.3223C35.1174 37.3223 35.8754 37.033 36.4541 36.4543C37.6115 35.2969 37.6115 33.4221 36.4541 32.2647L28.0749 23.8855C26.9175 22.7281 25.0427 22.7281 23.8853 23.8855C22.7279 25.0429 22.7279 26.9177 23.8853 28.0751L32.2645 36.4543ZM57.4052 33.7027C44.3358 33.7027 33.7025 44.3358 33.7025 57.4053C33.7025 70.4749 44.3356 81.108 57.4052 81.108C70.4747 81.108 81.1078 70.4749 81.1078 57.4053C81.1078 44.3358 70.4746 33.7027 57.4052 33.7027ZM57.4052 75.1821C47.6024 75.1821 39.6282 67.2079 39.6282 57.4052C39.6282 47.6024 47.6023 39.6282 57.4052 39.6282C67.2081 39.6282 75.1821 47.6023 75.1821 57.4052C75.1821 67.2081 67.2079 75.1821 57.4052 75.1821Z"/>
</mask>
<path d="M82.5457 36.4541L86.0812 39.9897L86.0812 39.9896L82.5457 36.4541ZM78.3561 36.4541L81.8921 32.9191L81.8916 32.9186L78.3561 36.4541ZM78.3561 32.2645L74.8205 28.729L74.8205 28.729L78.3561 32.2645ZM86.7353 23.8853L90.2708 27.4209L90.2708 27.4209L86.7353 23.8853ZM90.9249 23.8853L94.4604 20.3498L94.4604 20.3498L90.9249 23.8853ZM23.8853 86.7353L27.4209 90.2708L27.4209 90.2708L23.8853 86.7353ZM32.2647 78.3559L28.7292 74.8203L28.7291 74.8204L32.2647 78.3559ZM23.8853 90.9248L20.3498 94.4604H20.3498L23.8853 90.9248ZM36.4541 82.5457L32.9186 79.0101H32.9186L36.4541 82.5457ZM78.3561 82.5455L74.8205 86.081L74.8205 86.081L78.3561 82.5455ZM82.5457 78.3559L86.0812 74.8204L86.0812 74.8203L82.5457 78.3559ZM90.9249 86.7351L94.4604 83.1995L85.9249 74.664V86.7351H90.9249ZM86.7353 90.9247L90.2708 87.3892L90.2708 87.3891L86.7353 90.9247ZM32.2645 36.4543L28.729 39.9898L32.2645 36.4543ZM36.4541 32.2647L39.9896 28.7291L36.4541 32.2647ZM28.0749 23.8855L24.5394 27.421L24.5394 27.421L28.0749 23.8855ZM23.8853 28.0751L27.4209 24.5396L27.4209 24.5395L23.8853 28.0751ZM55.368 24.8141C55.368 23.6904 56.2815 22.777 57.4052 22.777V32.777C61.8043 32.777 65.368 29.2132 65.368 24.8141H55.368ZM55.368 12.9629V24.8141H65.368V12.9629H55.368ZM57.4052 15C56.2815 15 55.368 14.0866 55.368 12.9629H65.368C65.368 8.56372 61.8043 5 57.4052 5V15ZM59.4423 12.9629C59.4423 14.0866 58.5289 15 57.4052 15V5C53.006 5 49.4423 8.56372 49.4423 12.9629H59.4423ZM59.4423 24.8141V12.9629H49.4423V24.8141H59.4423ZM57.4052 22.777C58.5289 22.777 59.4423 23.6904 59.4423 24.8141H49.4423C49.4423 29.2132 53.006 32.777 57.4052 32.777V22.777ZM59.4423 89.9962C59.4423 91.1199 58.5289 92.0334 57.4052 92.0334V82.0334C53.006 82.0334 49.4423 85.5971 49.4423 89.9962H59.4423ZM59.4423 101.847V89.9962H49.4423V101.847H59.4423ZM57.4052 99.8103C58.5289 99.8103 59.4423 100.724 59.4423 101.847H49.4423C49.4423 106.247 53.006 109.81 57.4052 109.81V99.8103ZM55.368 101.847C55.368 100.724 56.2815 99.8103 57.4052 99.8103V109.81C61.8043 109.81 65.368 106.247 65.368 101.847H55.368ZM55.368 89.9962V101.847H65.368V89.9962H55.368ZM57.4052 92.0334C56.2815 92.0334 55.368 91.1199 55.368 89.9962H65.368C65.368 85.5971 61.8043 82.0334 57.4052 82.0334V92.0334ZM101.847 49.4423H89.9962V59.4423H101.847V49.4423ZM109.81 57.4052C109.81 53.006 106.247 49.4423 101.847 49.4423V59.4423C100.724 59.4423 99.8103 58.5289 99.8103 57.4052H109.81ZM101.847 65.368C106.247 65.368 109.81 61.8043 109.81 57.4052H99.8103C99.8103 56.2815 100.724 55.368 101.847 55.368V65.368ZM89.9962 65.368H101.847V55.368H89.9962V65.368ZM82.0334 57.4052C82.0334 61.8043 85.5971 65.368 89.9962 65.368V55.368C91.1199 55.368 92.0334 56.2815 92.0334 57.4052H82.0334ZM89.9962 49.4423C85.5971 49.4423 82.0334 53.006 82.0334 57.4052H92.0334C92.0334 58.5289 91.1199 59.4423 89.9962 59.4423V49.4423ZM24.8141 59.4423C23.6904 59.4423 22.777 58.5289 22.777 57.4052H32.777C32.777 53.006 29.2132 49.4423 24.8141 49.4423V59.4423ZM12.9629 59.4423H24.8141V49.4423H12.9629V59.4423ZM15 57.4052C15 58.5289 14.0866 59.4423 12.9629 59.4423V49.4423C8.56372 49.4423 5 53.006 5 57.4052H15ZM12.9629 55.368C14.0866 55.368 15 56.2815 15 57.4052H5C5 61.8043 8.56372 65.368 12.9629 65.368V55.368ZM24.8141 55.368H12.9629V65.368H24.8141V55.368ZM22.777 57.4052C22.777 56.2815 23.6904 55.368 24.8141 55.368V65.368C29.2132 65.368 32.777 61.8043 32.777 57.4052H22.777ZM80.4509 42.3222C82.4821 42.3222 84.528 41.5428 86.0812 39.9897L79.0102 32.9185C79.4059 32.5228 79.9359 32.3222 80.4509 32.3222V42.3222ZM74.82 39.9891C76.3735 41.5431 78.42 42.3222 80.4509 42.3222V32.3222C80.9654 32.3222 81.4957 32.5225 81.8921 32.9191L74.82 39.9891ZM74.8205 28.729C71.7105 31.839 71.7105 36.8796 74.8205 39.9896L81.8916 32.9186C82.6868 33.7138 82.6868 35.0048 81.8916 35.8L74.8205 28.729ZM83.1997 20.3498L74.8205 28.729L81.8916 35.8L90.2708 27.4209L83.1997 20.3498ZM94.4604 20.3498C91.3503 17.2398 86.3098 17.2397 83.1997 20.3498L90.2708 27.4209C89.4756 28.2161 88.1845 28.2161 87.3893 27.4209L94.4604 20.3498ZM94.4604 31.6104C97.5704 28.5004 97.5704 23.4598 94.4604 20.3498L87.3893 27.4209C86.5941 26.6256 86.5941 25.3346 87.3893 24.5394L94.4604 31.6104ZM86.0812 39.9896L94.4604 31.6104L87.3893 24.5394L79.0101 32.9186L86.0812 39.9896ZM27.4209 90.2708L35.8002 81.8914L28.7291 74.8204L20.3498 83.1997L27.4209 90.2708ZM27.4209 87.3893C28.2161 88.1845 28.2161 89.4756 27.4209 90.2708L20.3498 83.1997C17.2398 86.3097 17.2398 91.3503 20.3498 94.4604L27.4209 87.3893ZM25.9801 86.7929C26.4951 86.7929 27.0251 86.9936 27.4209 87.3893L20.3498 94.4604C21.9029 96.0135 23.9488 96.7929 25.9801 96.7929V86.7929ZM24.5394 87.3893C24.9351 86.9936 25.4651 86.7929 25.9801 86.7929V96.7929C28.0114 96.7929 30.0573 96.0135 31.6104 94.4604L24.5394 87.3893ZM32.9186 79.0101L24.5394 87.3893L31.6104 94.4604L39.9896 86.0812L32.9186 79.0101ZM32.9186 81.8916C32.1234 81.0964 32.1234 79.8053 32.9186 79.0101L39.9896 86.0812C43.0997 82.9712 43.0997 77.9306 39.9896 74.8205L32.9186 81.8916ZM35.8002 81.8914C35.0046 82.687 33.7136 82.6866 32.9186 81.8916L39.9896 74.8205C36.8798 71.7107 31.8392 71.7103 28.7292 74.8203L35.8002 81.8914ZM74.8205 74.8204C71.7105 77.9304 71.7105 82.971 74.8205 86.081L81.8916 79.01C82.6868 79.8052 82.6868 81.0962 81.8916 81.8914L74.8205 74.8204ZM86.0812 74.8203C82.9712 71.7103 77.9306 71.7103 74.8205 74.8204L81.8916 81.8914C81.0964 82.6866 79.8053 82.6866 79.0101 81.8914L86.0812 74.8203ZM85.9249 86.7351C88.999 82.1208 94.4461 83.1853 94.4508 83.19C94.4524 83.1915 94.4546 83.1938 94.4553 83.1945C94.4563 83.1954 94.4569 83.196 94.4565 83.1957C94.4561 83.1953 94.4551 83.1943 94.4532 83.1924C94.4495 83.1886 94.4437 83.1829 94.4358 83.175C94.4201 83.1593 94.3967 83.1359 94.366 83.1052C94.3047 83.0439 94.2148 82.954 94.1003 82.8395C93.8712 82.6104 93.5439 82.2831 93.1511 81.8904C92.3656 81.1048 91.3182 80.0574 90.2708 79.01C89.2234 77.9626 88.176 76.9152 87.3905 76.1297C86.9977 75.7369 86.6704 75.4096 86.4413 75.1804C86.3267 75.0659 86.2367 74.9759 86.1753 74.9145C86.1446 74.8838 86.1211 74.8603 86.1053 74.8444C86.0973 74.8365 86.0913 74.8305 86.0873 74.8265C86.0853 74.8244 86.0838 74.8229 86.0828 74.8219C86.0823 74.8214 86.0819 74.821 86.0816 74.8208C86.0815 74.8206 86.0814 74.8205 86.0813 74.8205C86.0813 74.8204 86.0812 74.8204 82.5457 78.3559C79.0101 81.8914 79.0101 81.8914 79.0102 81.8915C79.0103 81.8915 79.0103 81.8916 79.0105 81.8918C79.0107 81.892 79.0111 81.8924 79.0116 81.8929C79.0126 81.8939 79.0142 81.8954 79.0162 81.8975C79.0202 81.9015 79.0262 81.9075 79.0341 81.9154C79.05 81.9313 79.0735 81.9548 79.1042 81.9855C79.1656 82.0469 79.2556 82.1369 79.3701 82.2514C79.5993 82.4806 79.9266 82.8079 80.3193 83.2007C81.1049 83.9862 82.1523 85.0336 83.1997 86.0811C84.2471 87.1285 85.2945 88.1759 86.0801 88.9615C86.4729 89.3542 86.8002 89.6816 87.0294 89.9107C87.1439 90.0253 87.234 90.1153 87.2955 90.1768C87.3262 90.2075 87.3498 90.2311 87.3658 90.2471C87.3738 90.2551 87.38 90.2613 87.3844 90.2657C87.3865 90.2678 87.3885 90.2698 87.3901 90.2714C87.3908 90.2721 87.3921 90.2734 87.3936 90.2749C87.3945 90.2758 87.397 90.2783 87.3987 90.28C87.4035 90.2848 92.8507 91.3493 95.9249 86.7351H85.9249ZM94.4604 94.4602C97.5704 91.3502 97.5704 86.3096 94.4604 83.1995L87.3893 90.2706C86.5941 89.4754 86.5941 88.1843 87.3893 87.3891L94.4604 94.4602ZM88.83 96.7927C90.8613 96.7927 92.9072 96.0134 94.4604 94.4602L87.3893 87.3891C87.7851 86.9934 88.315 86.7927 88.83 86.7927V96.7927ZM83.1997 94.4602C84.7529 96.0134 86.7988 96.7927 88.83 96.7927V86.7927C89.345 86.7927 89.875 86.9934 90.2708 87.3892L83.1997 94.4602ZM74.8205 86.081L83.1997 94.4602L90.2708 87.3891L81.8916 79.0099L74.8205 86.081ZM34.3593 32.3223C34.8743 32.3223 35.4043 32.523 35.8 32.9187L28.729 39.9898C30.2822 41.543 32.328 42.3223 34.3593 42.3223V32.3223ZM32.9186 32.9187C33.3143 32.523 33.8443 32.3223 34.3593 32.3223V42.3223C36.3906 42.3223 38.4365 41.543 39.9896 39.9898L32.9186 32.9187ZM32.9186 35.8002C32.1234 35.005 32.1234 33.7139 32.9186 32.9187L39.9896 39.9898C43.0997 36.8798 43.0997 31.8392 39.9896 28.7291L32.9186 35.8002ZM24.5394 27.421L32.9186 35.8002L39.9896 28.7291L31.6104 20.35L24.5394 27.421ZM27.4209 27.421C26.6256 28.2162 25.3346 28.2162 24.5394 27.421L31.6104 20.35C28.5004 17.2399 23.4598 17.2399 20.3498 20.35L27.4209 27.421ZM27.4209 24.5395C28.2161 25.3348 28.2161 26.6258 27.4209 27.421L20.3498 20.35C17.2398 23.46 17.2398 28.5006 20.3498 31.6106L27.4209 24.5395ZM35.8 32.9187L27.4209 24.5396L20.3498 31.6106L28.729 39.9898L35.8 32.9187ZM38.7025 57.4053C38.7025 47.0972 47.0972 38.7027 57.4052 38.7027V28.7027C41.5744 28.7027 28.7025 41.5743 28.7025 57.4053H38.7025ZM57.4052 76.108C47.097 76.108 38.7025 67.7135 38.7025 57.4053H28.7025C28.7025 73.2363 41.5742 86.108 57.4052 86.108V76.108ZM76.1078 57.4053C76.1078 67.7135 67.7133 76.108 57.4052 76.108V86.108C73.2361 86.108 86.1078 73.2363 86.1078 57.4053H76.1078ZM57.4052 38.7027C67.7132 38.7027 76.1078 47.0972 76.1078 57.4053H86.1078C86.1078 41.5743 73.236 28.7027 57.4052 28.7027V38.7027ZM34.6282 57.4052C34.6282 69.9693 44.841 80.1821 57.4052 80.1821V70.1821C50.3639 70.1821 44.6282 64.4465 44.6282 57.4052H34.6282ZM57.4052 34.6282C44.8408 34.6282 34.6282 44.841 34.6282 57.4052H44.6282C44.6282 50.3638 50.3637 44.6282 57.4052 44.6282V34.6282ZM80.1821 57.4052C80.1821 44.8408 69.9695 34.6282 57.4052 34.6282V44.6282C64.4466 44.6282 70.1821 50.3637 70.1821 57.4052H80.1821ZM57.4052 80.1821C69.9693 80.1821 80.1821 69.9695 80.1821 57.4052H70.1821C70.1821 64.4466 64.4465 70.1821 57.4052 70.1821V80.1821Z" fill="url(#paint0_linear)" mask="url(#path-1-inside-1)"/>
</g>
<defs>
<filter id="filter0_d" x="0" y="0" width="114.81" height="114.81" filterUnits="userSpaceOnUse" color-interpolation-filters="sRGB">
<feFlood flood-opacity="0" result="BackgroundImageFix"/>
<feColorMatrix in="SourceAlpha" type="matrix" values="0 0 0 0 0 0 0 0 0 0 0 0 0 0 0 0 0 0 127 0"/>
<feOffset/>
<feGaussianBlur stdDeviation="5"/>
<feColorMatrix type="matrix" values="0 0 0 0 0.976471 0 0 0 0 0.698039 0 0 0 0 0.2 0 0 0 0.458233 0"/>
<feBlend mode="normal" in2="BackgroundImageFix" result="effect1_dropShadow"/>
<feBlend mode="normal" in="SourceGraphic" in2="effect1_dropShadow" result="shape"/>
</filter>
<linearGradient id="paint0_linear" x1="10" y1="10" x2="10" y2="104.81" gradientUnits="userSpaceOnUse">
<stop stop-color="#F29810"/>
<stop offset="0.999023" stop-color="#E94F1B"/>
</linearGradient>
</defs>
</svg>
