<svg width="52" height="70" viewBox="0 0 52 70" fill="none" xmlns="http://www.w3.org/2000/svg">
<path fill-rule="evenodd" clip-rule="evenodd" d="M37.7373 9.3962C37.6368 9.06102 37.4804 8.73701 37.2793 8.44652C36.8435 7.80968 36.1843 7.3516 35.4358 7.1505C35.1564 7.07229 34.866 7.03877 34.5755 7.03877H32.6426V6.75945C32.5979 3.02779 29.5254 0 25.7938 0H25.6932C23.7939 0 22.0844 0.75974 20.8331 1.97756C19.5929 3.20655 18.8109 4.89362 18.7885 6.75945V7.03877H16.8556C16.5652 7.03877 16.2747 7.07229 15.9954 7.1505C15.2468 7.3516 14.5876 7.80968 14.1519 8.44652C13.9508 8.73701 13.7943 9.06102 13.6938 9.3962C13.6379 9.58613 13.5932 9.79841 13.5821 10.0107V13.8094C13.5932 14.0328 13.6379 14.234 13.6938 14.4239C14.0848 15.7981 15.3138 16.7478 16.7327 16.8037H34.676C36.1173 16.7478 37.3463 15.7981 37.7373 14.4239C37.7932 14.234 37.8379 14.0328 37.8491 13.8317V9.98835C37.8379 9.79841 37.7932 9.59731 37.7373 9.3962ZM29.3914 7.03877H22.0398V6.74828C22.0956 4.81541 23.7045 3.25124 25.6374 3.25124H25.7938C27.7266 3.25124 29.3355 4.81541 29.3914 6.74828V7.03877ZM51.416 53.0947L51.4194 53.7259C51.4216 54.3868 51.4239 54.9156 51.4258 55.3536L51.4258 55.3639L51.4259 55.3759L51.4259 55.3813L51.4259 55.3828L51.4259 55.385L51.4259 55.3877C51.43 56.3272 51.4322 56.845 51.4285 57.3629C51.4239 57.9974 51.4102 58.6319 51.38 60.0422L51.3568 61.1278C51.3043 63.4618 50.3378 65.6762 48.634 67.3633C46.9157 69.0626 44.6733 70 42.3159 70H42.279C37.2547 69.9777 32.3566 69.9765 27.3646 69.9765H25.7156H24.0676C19.0745 69.9765 14.1764 69.9777 9.15323 70H9.11636C6.75893 70 4.51546 69.0626 2.79822 67.3633C1.09439 65.6773 0.12796 63.4629 0.0754483 61.1278L0.0511651 60.0182C0.0205202 58.6247 0.00664694 57.9938 0.00195298 57.3629C-0.00192985 56.8409 0.000468301 56.319 0.00485019 55.3652C0.00687302 54.925 0.00931858 54.3927 0.0117642 53.7259L0.0151159 53.0947L0.0168617 52.523C0.0208992 51.2125 0.025029 49.8721 0.0240541 48.553C0.0222663 45.7185 0.0233391 42.8834 0.0244118 40.0487L0.0251713 37.9233V36.1022L0.0254839 34.6463C0.0265954 29.6041 0.0277365 24.4276 0.019585 19.3421C0.0139987 15.1792 1.75358 12.1201 5.19364 10.2531C6.37682 9.61407 7.70972 9.32581 9.51969 9.32022L10.4582 9.31911V13.6988L10.2481 13.6999C9.65376 13.7055 9.1454 13.72 8.69403 13.7502C6.38129 13.8977 4.4015 15.8629 4.28195 18.1299C4.16687 20.3387 4.17134 22.6559 4.17581 24.7027C4.17693 25.1541 4.17693 25.6066 4.17693 26.058C4.17134 33.6934 4.17134 41.3265 4.17134 48.9597C4.17134 51.6227 4.17134 52.8743 4.1712 54.1259L4.17022 59.2921C4.17022 60.5044 4.17022 61.7579 4.74897 62.8395C5.75115 64.7075 7.18907 65.6147 9.14876 65.6147C11.7967 65.6147 14.4446 65.6147 17.0914 65.6136L25.0351 65.6125H25.7156H26.396L34.3397 65.6136C36.9865 65.6147 39.6344 65.6147 42.2824 65.6147C44.242 65.6147 45.68 64.7064 46.6822 62.8395C47.2609 61.7579 47.2609 60.5044 47.2609 59.2921L47.2599 54.1259C47.2598 52.8743 47.2598 51.6227 47.2598 48.9597C47.2598 41.3265 47.2598 33.6922 47.2542 26.058V26.0534C47.2542 25.6035 47.2542 25.1526 47.2553 24.7027C47.2598 22.657 47.2631 20.3387 47.1492 18.1299C47.0296 15.8629 45.0509 13.8988 42.7371 13.7502C42.2857 13.7211 41.7774 13.7055 41.183 13.6999L40.9729 13.6988V9.31911L41.9114 9.32022C43.7203 9.32581 45.0543 9.61407 46.2375 10.2531C49.6764 12.1212 51.4171 15.1792 51.4115 19.3421C51.4034 24.4284 51.4045 29.6038 51.4056 34.6457L51.406 36.1022V37.9233C51.4071 41.4662 51.4082 45.0101 51.4071 48.553C51.4061 49.8727 51.4102 51.2137 51.4143 52.5247L51.416 53.0947ZM38.963 53.4209C39.198 53.6588 39.4303 53.8929 39.6603 54.1247L39.6612 54.1256C40.1591 54.6274 40.6466 55.1187 41.1293 55.6152C41.9617 56.4722 41.698 57.7358 40.6087 58.1268C39.9841 58.3514 39.4736 58.1358 39.0177 57.7067C38.3649 57.0907 37.7095 56.4764 37.0215 55.8317L37.0192 55.8296L37.0167 55.8272L37.0138 55.8245L37.0118 55.8226L36.7631 55.5895L36.0735 56.2845L36.0703 56.2877L36.0679 56.2901C35.5613 56.8007 35.0703 57.2956 34.5788 57.7894C34.1375 58.233 33.6247 58.4564 32.9979 58.252C31.9231 57.9011 31.6024 56.661 32.3845 55.7962C32.9208 55.2041 33.4973 54.6465 34.0749 54.0946C34.1081 54.063 34.1483 54.0253 34.1915 53.9849L34.1915 53.9848L34.1916 53.9848C34.3694 53.8182 34.5961 53.6058 34.5755 53.5851C34.3312 53.3452 34.1036 53.1227 33.8874 52.9113L33.8873 52.9111C33.3344 52.3704 32.8558 51.9024 32.3611 51.402C31.6996 50.735 31.6784 49.8077 32.2873 49.2099C32.8929 48.6155 33.7398 48.6088 34.428 49.2759C34.9324 49.7648 35.4073 50.2845 35.8988 50.8225L35.8992 50.8228L35.9015 50.8254L35.902 50.826L35.9041 50.8282L35.9044 50.8286C36.1187 51.0631 36.3363 51.3012 36.5609 51.5417C36.8529 51.2496 37.1256 50.973 37.3866 50.7083L37.3869 50.708C37.9426 50.1445 38.4449 49.635 38.9663 49.1462C39.8948 48.2759 41.1662 48.6468 41.4902 49.8658C41.6466 50.4534 41.3785 50.9138 40.9852 51.316C40.5885 51.7222 40.1893 52.1264 39.7902 52.5305L39.7879 52.5329L39.7856 52.5352C39.5331 52.7908 39.2807 53.0464 39.0289 53.3025C39.0085 53.3229 38.9963 53.3499 38.9832 53.3788C38.977 53.3926 38.9706 53.4068 38.963 53.4209ZM39.6604 27.5774C39.4303 27.3456 39.198 27.1115 38.963 26.8736C38.9706 26.8595 38.977 26.8453 38.9832 26.8315L38.9832 26.8314C38.9963 26.8026 39.0085 26.7755 39.0289 26.7551C39.2819 26.4978 39.5355 26.241 39.7892 25.9842L39.7903 25.9831C40.1894 25.579 40.5886 25.1749 40.9852 24.7686C41.3785 24.3664 41.6466 23.9061 41.4902 23.3184C41.1662 22.0995 39.8948 21.7286 38.9663 22.5989C38.4449 23.0877 37.9425 23.5972 37.3869 24.1607L37.3868 24.1608L37.3867 24.1609L37.3866 24.161C37.1256 24.4257 36.8529 24.7023 36.5609 24.9943C36.3344 24.7518 36.115 24.5118 35.899 24.2753L35.8989 24.2752C35.4073 23.7371 34.9325 23.2175 34.428 22.7285C33.7398 22.0615 32.8929 22.0682 32.2873 22.6626C31.6784 23.2603 31.6996 24.1877 32.3611 24.8547C32.8559 25.3551 33.3345 25.8232 33.8875 26.364L33.8875 26.364C34.1037 26.5754 34.3312 26.7979 34.5755 27.0378C34.5962 27.0585 34.3693 27.271 34.1915 27.4376C34.1483 27.478 34.1081 27.5157 34.0749 27.5473C33.4973 28.0992 32.9208 28.6567 32.3845 29.2489C31.6024 30.1136 31.9231 31.3538 32.9979 31.7046C33.6247 31.9091 34.1375 31.6856 34.5788 31.2421C35.0716 30.747 35.5638 30.2508 36.0718 29.7388L36.0731 29.7375L36.7631 29.0422L37.0123 29.2758L37.0128 29.2762C37.704 29.9239 38.3622 30.5408 39.0177 31.1594C39.4736 31.5884 39.9841 31.8041 40.6087 31.5795C41.698 31.1885 41.9617 29.9248 41.1293 29.0679C40.6463 28.5711 40.1586 28.0795 39.6604 27.5774ZM42.069 35.5022C42.0377 35.5022 42.0064 35.5044 41.9829 35.5078C41.8444 35.5234 41.7327 35.5771 41.6511 35.6195L41.307 35.8016C41.0992 35.9145 40.8534 36.0508 40.6065 36.2128C38.9709 37.2987 37.4176 38.5282 35.9145 39.718L35.9142 39.7182L35.9141 39.7183L35.905 39.7255L35.8134 39.7981C35.4503 40.0852 35.0838 40.3802 34.7285 40.6684L34.5151 40.8405L34.1252 40.5154L34.1115 40.5039L34.1114 40.5038L34.1114 40.5038C33.6802 40.1424 33.1937 39.7347 32.6985 39.3467C32.3957 39.1099 32.0538 38.9501 31.7588 38.8238C31.4449 38.6931 31.1164 38.7579 30.9332 38.9858C30.7958 39.1545 30.7511 39.3892 30.8069 39.6461C30.8483 39.8327 30.9008 40.0528 30.9879 40.2662C31.4628 41.4237 32.1253 42.5901 33.0716 43.9387C33.3956 44.399 33.8895 44.6638 34.4269 44.6638C34.8704 44.6638 35.3006 44.4817 35.6369 44.151C35.9329 43.8616 36.2368 43.5555 36.5419 43.2415C37.5362 42.2136 38.6904 41.0137 39.7931 39.7713C40.0734 39.4571 40.3504 39.1405 40.6277 38.8235L40.628 38.823L40.63 38.8207L40.6311 38.8195L40.7573 38.6752L40.9418 38.4646C41.1179 38.2634 41.294 38.0623 41.4712 37.8619L41.526 37.8004C42.3405 36.9021 42.7069 36.3078 42.679 35.9279C42.6667 35.7681 42.5717 35.5022 42.069 35.5022ZM27.8238 25.2759H9.44483V28.6277H27.8238V25.2759ZM9.44483 38.4071H27.8238V41.7589H9.44483V38.4071ZM27.8238 51.8232H9.44483V55.175H27.8238V51.8232Z" fill="#232323"/>
</svg>
