<svg width="79" height="72" viewBox="0 0 79 72" fill="none" xmlns="http://www.w3.org/2000/svg">
<path fill-rule="evenodd" clip-rule="evenodd" d="M70.1335 1H9.34863C4.74544 1 1 4.38326 1 8.5425V52.4746C1 56.6333 4.74544 60.0171 9.34863 60.0171H22.1036L13.8218 67.4993C12.9356 68.2998 12.9356 69.5986 13.8218 70.3992C14.2651 70.7997 14.8462 71 15.4267 71C16.0078 71 16.5889 70.7997 17.0322 70.3992L28.5239 60.0171H50.9576L62.4493 70.3992C62.8926 70.7997 63.4737 71 64.0542 71C64.6353 71 65.2164 70.7997 65.6597 70.3992C66.5459 69.5986 66.5459 68.3003 65.6597 67.4993L57.3773 60.0171H70.1329C74.7361 60.0171 78.4809 56.6333 78.4809 52.4746V8.5425C78.4815 4.38326 74.7366 1 70.1335 1ZM74.4455 52.3927C74.4455 54.2823 72.732 55.8193 70.6261 55.8193H9.66246C7.55597 55.8193 5.84256 54.2823 5.84256 52.3927V8.64347C5.84256 6.75387 7.55597 5.21687 9.66246 5.21687H70.6261C72.732 5.21687 74.4455 6.75387 74.4455 8.64347V52.3927ZM44.4867 32.4193C45.9139 31.2204 45.9139 29.0239 44.4867 27.825L38.7922 23.0416C36.8404 21.4021 33.8626 22.7897 33.8626 25.3387V34.9056C33.8626 37.4546 36.8404 38.8422 38.7922 37.2027L44.4867 32.4193Z" fill="#232323"/>
<path d="M22.1036 60.0171L22.2712 60.2026L22.7532 59.7671H22.1036V60.0171ZM13.8218 67.4993L13.6542 67.3137L13.8218 67.4993ZM13.8218 70.3992L13.6542 70.5847L13.8218 70.3992ZM17.0322 70.3992L16.8646 70.2137L17.0322 70.3992ZM28.5239 60.0171V59.7671H28.4277L28.3563 59.8316L28.5239 60.0171ZM50.9576 60.0171L51.1252 59.8316L51.0538 59.7671H50.9576V60.0171ZM62.4493 70.3992L62.6169 70.2137L62.4493 70.3992ZM65.6597 70.3992L65.4921 70.2137L65.6597 70.3992ZM65.6597 67.4993L65.8274 67.3138L65.8273 67.3137L65.6597 67.4993ZM57.3773 60.0171V59.7671H56.7276L57.2097 60.2026L57.3773 60.0171ZM78.4809 8.5425L78.2309 8.54246V8.5425H78.4809ZM44.4867 27.825L44.6475 27.6336L44.4867 27.825ZM44.4867 32.4193L44.6475 32.6107L44.4867 32.4193ZM38.7922 23.0416L38.6314 23.233L38.7922 23.0416ZM38.7922 37.2027L38.953 37.3941L38.7922 37.2027ZM9.34863 1.25H70.1335V0.75H9.34863V1.25ZM1.25 8.5425C1.25 4.54461 4.85902 1.25 9.34863 1.25V0.75C4.63187 0.75 0.75 4.2219 0.75 8.5425H1.25ZM1.25 52.4746V8.5425H0.75V52.4746H1.25ZM9.34863 59.7671C4.85903 59.7671 1.25 56.472 1.25 52.4746H0.75C0.75 56.7947 4.63186 60.2671 9.34863 60.2671V59.7671ZM22.1036 59.7671H9.34863V60.2671H22.1036V59.7671ZM13.9894 67.6848L22.2712 60.2026L21.936 59.8316L13.6542 67.3137L13.9894 67.6848ZM13.9894 70.2137C13.2131 69.5124 13.2131 68.386 13.9894 67.6848L13.6542 67.3137C12.6582 68.2136 12.6582 69.6849 13.6542 70.5847L13.9894 70.2137ZM15.4267 70.75C14.9023 70.75 14.3826 70.5689 13.9894 70.2137L13.6542 70.5847C14.1476 71.0305 14.7901 71.25 15.4267 71.25V70.75ZM16.8646 70.2137C16.4714 70.5689 15.9518 70.75 15.4267 70.75V71.25C16.0638 71.25 16.7063 71.0305 17.1998 70.5847L16.8646 70.2137ZM28.3563 59.8316L16.8646 70.2137L17.1998 70.5847L28.6915 60.2026L28.3563 59.8316ZM50.9576 59.7671H28.5239V60.2671H50.9576V59.7671ZM62.6169 70.2137L51.1252 59.8316L50.79 60.2026L62.2817 70.5847L62.6169 70.2137ZM64.0542 70.75C63.5298 70.75 63.0101 70.5689 62.6169 70.2137L62.2817 70.5847C62.7752 71.0305 63.4177 71.25 64.0542 71.25V70.75ZM65.4921 70.2137C65.0989 70.5689 64.5793 70.75 64.0542 70.75V71.25C64.6913 71.25 65.3338 71.0305 65.8273 70.5847L65.4921 70.2137ZM65.4921 67.6847C66.2684 68.3866 66.2684 69.5124 65.4921 70.2137L65.8273 70.5847C66.8234 69.6848 66.8233 68.2141 65.8274 67.3138L65.4921 67.6847ZM57.2097 60.2026L65.4922 67.6848L65.8273 67.3137L57.5449 59.8316L57.2097 60.2026ZM70.1329 59.7671H57.3773V60.2671H70.1329V59.7671ZM78.2309 52.4746C78.2309 56.472 74.6225 59.7671 70.1329 59.7671V60.2671C74.8497 60.2671 78.7309 56.7946 78.7309 52.4746H78.2309ZM78.2309 8.5425V52.4746H78.7309V8.5425H78.2309ZM70.1335 1.25C74.6231 1.25 78.2315 4.54459 78.2309 8.54246L78.7309 8.54253C78.7315 4.22192 74.8502 0.75 70.1335 0.75V1.25ZM70.6261 56.0693C72.8439 56.0693 74.6955 54.4452 74.6955 52.3927H74.1955C74.1955 54.1194 72.6202 55.5693 70.6261 55.5693V56.0693ZM9.66246 56.0693H70.6261V55.5693H9.66246V56.0693ZM5.59256 52.3927C5.59256 54.4452 7.44414 56.0693 9.66246 56.0693V55.5693C7.6678 55.5693 6.09256 54.1194 6.09256 52.3927H5.59256ZM5.59256 8.64347V52.3927H6.09256V8.64347H5.59256ZM9.66246 4.96687C7.44414 4.96687 5.59256 6.59094 5.59256 8.64347H6.09256C6.09256 6.91679 7.6678 5.46687 9.66246 5.46687V4.96687ZM70.6261 4.96687H9.66246V5.46687H70.6261V4.96687ZM74.6955 8.64347C74.6955 6.59097 72.8439 4.96687 70.6261 4.96687V5.46687C72.6202 5.46687 74.1955 6.91677 74.1955 8.64347H74.6955ZM74.6955 52.3927V8.64347H74.1955V52.3927H74.6955ZM44.3259 28.0164C45.6342 29.1154 45.6342 31.1289 44.3259 32.2278L44.6475 32.6107C46.1937 31.3119 46.1937 28.9324 44.6475 27.6336L44.3259 28.0164ZM38.6314 23.233L44.3259 28.0164L44.6475 27.6336L38.953 22.8502L38.6314 23.233ZM34.1126 25.3387C34.1126 23.0021 36.8422 21.7301 38.6314 23.233L38.953 22.8502C36.8385 21.074 33.6126 22.5773 33.6126 25.3387H34.1126ZM34.1126 34.9056V25.3387H33.6126V34.9056H34.1126ZM38.6314 37.0112C36.8422 38.5141 34.1126 37.2422 34.1126 34.9056H33.6126C33.6126 37.667 36.8385 39.1702 38.953 37.3941L38.6314 37.0112ZM44.3259 32.2278L38.6314 37.0112L38.953 37.3941L44.6475 32.6107L44.3259 32.2278Z" fill="#232323"/>
</svg>
