<svg width="77" height="72" viewBox="0 0 77 72" fill="none" xmlns="http://www.w3.org/2000/svg">
<path fill-rule="evenodd" clip-rule="evenodd" d="M44.5832 1.24791C43.7132 0.832927 42.6883 0.942922 41.9383 1.5479L17.6193 21.0021H5.99979C3.24491 21.0021 1 23.247 1 26.0019V46.001C1 48.7559 3.24491 51.0008 5.99979 51.0008H17.6193L41.9333 70.455C42.3883 70.815 42.9432 71 43.4982 71C43.8682 71 44.2382 70.92 44.5832 70.755C45.4481 70.335 45.9981 69.4601 45.9981 68.5001V3.50282C45.9981 2.54286 45.4481 1.66789 44.5832 1.24791ZM15.9994 46.001H5.99979V26.0019H15.9994V46.001ZM20.9992 47.296L40.9983 63.2953V8.7076L20.9992 24.7069V47.296ZM58.6576 18.3222C57.6726 17.3472 56.0927 17.3622 55.1227 18.3422C54.1528 19.3272 54.1628 20.9071 55.1427 21.8771C58.9176 25.6119 60.9975 30.6267 60.9975 36.0015C60.9975 41.3762 58.9176 46.391 55.1427 50.1259C54.1578 51.0958 54.1478 52.6758 55.1227 53.6607C55.6127 54.1557 56.2577 54.4007 56.8977 54.4007C57.5326 54.4007 58.1676 54.1607 58.6576 53.6757C63.3924 49.0009 65.9973 42.7262 65.9973 36.0015C65.9973 29.2767 63.3924 23.002 58.6576 18.3222ZM62.1724 11.2925C63.1424 10.3125 64.7273 10.3075 65.7073 11.2775C72.342 17.8572 75.9969 26.6369 75.9969 36.0015C75.9969 45.3661 72.342 54.1457 65.7073 60.7254C65.2173 61.2104 64.5823 61.4504 63.9474 61.4504C63.3024 61.4504 62.6624 61.2054 62.1724 60.7104C61.2025 59.7305 61.2075 58.1455 62.1874 57.1756C67.8672 51.5408 70.9971 44.0211 70.9971 36.0015C70.9971 27.9818 67.8672 20.4621 62.1874 14.8273C61.2075 13.8574 61.2025 12.2724 62.1724 11.2925Z" fill="#232323"/>
<path d="M41.9383 1.5479L42.3756 2.09452L42.3778 2.09273L41.9383 1.5479ZM44.5832 1.24791L44.8889 0.618198L44.8846 0.616109L44.5832 1.24791ZM17.6193 21.0021V21.7021H17.8648L18.0566 21.5487L17.6193 21.0021ZM17.6193 51.0008L18.0566 50.4543L17.8649 50.3008H17.6193V51.0008ZM41.9333 70.455L41.496 71.0016L41.499 71.004L41.9333 70.455ZM44.5832 70.755L44.8852 71.3865L44.8889 71.3847L44.5832 70.755ZM5.99979 46.001H5.29979V46.701H5.99979V46.001ZM15.9994 46.001V46.701H16.6994V46.001H15.9994ZM5.99979 26.0019V25.3019H5.29979V26.0019H5.99979ZM15.9994 26.0019H16.6994V25.3019H15.9994V26.0019ZM40.9983 63.2953L40.561 63.8419L41.6983 64.7518V63.2953H40.9983ZM20.9992 47.296H20.2992V47.6324L20.5619 47.8426L20.9992 47.296ZM40.9983 8.7076H41.6983V7.25116L40.561 8.16099L40.9983 8.7076ZM20.9992 24.7069L20.5619 24.1603L20.2992 24.3705V24.7069H20.9992ZM55.1227 18.3422L54.6252 17.8498L54.624 17.851L55.1227 18.3422ZM58.6576 18.3222L58.1651 18.8197L58.1655 18.8201L58.6576 18.3222ZM55.1427 21.8771L54.6503 22.3746L54.6504 22.3747L55.1427 21.8771ZM55.1427 50.1259L55.6339 50.6246L55.6351 50.6235L55.1427 50.1259ZM55.1227 53.6607L54.6252 54.1532L54.6253 54.1532L55.1227 53.6607ZM58.6576 53.6757L58.1658 53.1776L58.1652 53.1782L58.6576 53.6757ZM65.7073 11.2775L66.2002 10.7805L66.1997 10.78L65.7073 11.2775ZM62.1724 11.2925L61.6749 10.8001L62.1724 11.2925ZM65.7073 60.7254L66.1997 61.2229L66.2002 61.2225L65.7073 60.7254ZM62.1724 60.7104L61.6749 61.2029L61.675 61.2029L62.1724 60.7104ZM62.1874 57.1756L62.6799 57.6731L62.6805 57.6725L62.1874 57.1756ZM62.1874 14.8273L62.6805 14.3304L62.6799 14.3298L62.1874 14.8273ZM42.3778 2.09273C42.9133 1.66073 43.6494 1.57803 44.2818 1.87971L44.8846 0.616109C43.7771 0.0878241 42.4632 0.22511 41.4988 1.00307L42.3778 2.09273ZM18.0566 21.5487L42.3756 2.09452L41.501 1.00128L17.182 20.4555L18.0566 21.5487ZM5.99979 21.7021H17.6193V20.3021H5.99979V21.7021ZM1.7 26.0019C1.7 23.6336 3.63151 21.7021 5.99979 21.7021V20.3021C2.85831 20.3021 0.3 22.8604 0.3 26.0019H1.7ZM1.7 46.001V26.0019H0.3V46.001H1.7ZM5.99979 50.3008C3.63151 50.3008 1.7 48.3693 1.7 46.001H0.3C0.3 49.1425 2.85831 51.7008 5.99979 51.7008V50.3008ZM17.6193 50.3008H5.99979V51.7008H17.6193V50.3008ZM42.3706 69.9084L18.0566 50.4543L17.182 51.5474L41.496 71.0016L42.3706 69.9084ZM43.4982 70.3C43.0979 70.3 42.6966 70.1664 42.3676 69.9061L41.499 71.004C42.0799 71.4637 42.7886 71.7 43.4982 71.7V70.3ZM44.2812 70.1235C44.0333 70.2421 43.7669 70.3 43.4982 70.3V71.7C43.9696 71.7 44.4431 71.5979 44.8852 71.3865L44.2812 70.1235ZM45.2981 68.5001C45.2981 69.1907 44.9025 69.8218 44.2774 70.1253L44.8889 71.3847C45.9938 70.8482 46.6981 69.7295 46.6981 68.5001H45.2981ZM45.2981 3.50282V68.5001H46.6981V3.50282H45.2981ZM44.2774 1.87761C44.9025 2.18108 45.2981 2.81227 45.2981 3.50282H46.6981C46.6981 2.27344 45.9938 1.1547 44.8889 0.618213L44.2774 1.87761ZM5.99979 46.701H15.9994V45.301H5.99979V46.701ZM5.29979 26.0019V46.001H6.69979V26.0019H5.29979ZM15.9994 25.3019H5.99979V26.7019H15.9994V25.3019ZM16.6994 46.001V26.0019H15.2994V46.001H16.6994ZM41.4356 62.7487L21.4365 46.7494L20.5619 47.8426L40.561 63.8419L41.4356 62.7487ZM40.2983 8.7076V63.2953H41.6983V8.7076H40.2983ZM21.4365 25.2535L41.4356 9.25421L40.561 8.16099L20.5619 24.1603L21.4365 25.2535ZM21.6992 47.296V24.7069H20.2992V47.296H21.6992ZM55.6202 18.8346C56.3198 18.1278 57.4566 18.1183 58.1651 18.8197L59.15 17.8247C57.8887 16.5762 55.8656 16.5967 54.6252 17.8498L55.6202 18.8346ZM55.6352 21.3795C54.93 20.6816 54.9218 19.5439 55.6215 18.8334L54.624 17.851C53.3837 19.1105 53.3956 21.1326 54.6503 22.3746L55.6352 21.3795ZM61.6975 36.0015C61.6975 30.4421 59.5445 25.2474 55.6351 21.3794L54.6504 22.3747C58.2907 25.9763 60.2975 30.8112 60.2975 36.0015H61.6975ZM55.6351 50.6235C59.5445 46.7555 61.6975 41.5608 61.6975 36.0015H60.2975C60.2975 41.1917 58.2907 46.0266 54.6504 49.6283L55.6351 50.6235ZM55.6202 53.1683C54.9173 52.4581 54.9254 51.3223 55.6339 50.6246L54.6516 49.6271C53.3902 50.8693 53.3783 52.8934 54.6252 54.1532L55.6202 53.1683ZM56.8977 53.7007C56.4357 53.7007 55.9726 53.5243 55.6202 53.1683L54.6253 54.1532C55.2528 54.7872 56.0797 55.1007 56.8977 55.1007V53.7007ZM58.1652 53.1782C57.8113 53.5285 57.3555 53.7007 56.8977 53.7007V55.1007C57.7098 55.1007 58.5239 54.7929 59.15 54.1732L58.1652 53.1782ZM65.2973 36.0015C65.2973 42.5413 62.7657 48.636 58.1658 53.1776L59.1494 54.1738C64.0191 49.3659 66.6973 42.911 66.6973 36.0015H65.2973ZM58.1655 18.8201C62.7658 23.3669 65.2973 29.4617 65.2973 36.0015H66.6973C66.6973 29.0918 64.019 22.6371 59.1497 17.8243L58.1655 18.8201ZM66.1997 10.78C64.9462 9.5392 62.918 9.54419 61.6749 10.8001L62.67 11.7849C63.3668 11.0809 64.5085 11.0759 65.2149 11.775L66.1997 10.78ZM76.6969 36.0015C76.6969 26.4506 72.9678 17.4919 66.2002 10.7805L65.2144 11.7745C71.7163 18.2225 75.2969 26.8231 75.2969 36.0015H76.6969ZM66.2002 61.2225C72.9678 54.511 76.6969 45.5523 76.6969 36.0015H75.2969C75.2969 45.1798 71.7163 53.7804 65.2144 60.2284L66.2002 61.2225ZM63.9474 62.1504C64.7595 62.1504 65.5736 61.8426 66.1997 61.2229L65.2149 60.2279C64.861 60.5782 64.4052 60.7504 63.9474 60.7504V62.1504ZM61.675 61.2029C62.302 61.8364 63.1236 62.1504 63.9474 62.1504V60.7504C63.4811 60.7504 63.0228 60.5745 62.6699 60.218L61.675 61.2029ZM61.695 56.6781C60.4391 57.9211 60.4342 59.9493 61.6749 61.2029L62.67 60.218C61.9708 59.5117 61.9758 58.3699 62.6799 57.6731L61.695 56.6781ZM70.2971 36.0015C70.2971 43.8349 67.2415 51.1756 61.6944 56.6786L62.6805 57.6725C68.493 51.9061 71.6971 44.2074 71.6971 36.0015H70.2971ZM61.6944 15.3243C67.2415 20.8273 70.2971 28.168 70.2971 36.0015H71.6971C71.6971 27.7956 68.493 20.0969 62.6805 14.3304L61.6944 15.3243ZM61.6749 10.8001C60.4342 12.0536 60.4391 14.0818 61.695 15.3249L62.6799 14.3298C61.9758 13.633 61.9708 12.4913 62.67 11.7849L61.6749 10.8001Z" fill="#232323"/>
</svg>
