<svg width="71" height="71" viewBox="0 0 71 71" fill="none" xmlns="http://www.w3.org/2000/svg">
<path fill-rule="evenodd" clip-rule="evenodd" d="M44.2154 13.1093V17.655C58.6433 21.6664 68.6347 34.7947 68.6558 49.77C68.6558 50.3835 68.1584 50.8809 67.5449 50.8809H50.8267C50.2577 59.0209 43.489 65.3333 35.329 65.3333C27.1695 65.3333 20.4003 59.0209 19.8313 50.8809H3.11093C2.49742 50.8809 2 50.3835 2 49.77C2.02116 34.7947 12.0125 21.6664 26.4405 17.655V13.1093C26.4405 12.4958 26.9379 11.9984 27.5514 11.9984H34.217V2H36.4388V11.9984H43.1044C43.7179 11.9984 44.2154 12.4958 44.2154 13.1093ZM41.9935 14.2202H28.6623V17.1088C33.061 16.2137 37.5948 16.2137 41.9935 17.1088V14.2202ZM35.3279 63.1012C28.402 63.0903 22.6357 57.7825 22.0532 50.8809H48.6048C48.0222 57.783 42.2544 63.0919 35.3279 63.1012ZM35.3279 18.6683C18.5826 18.6683 4.84242 31.9246 4.24193 48.6591H66.4139C65.8134 31.9246 52.0732 18.6683 35.3279 18.6683Z" fill="#232323"/>
<path d="M44.2154 17.655H42.2154V19.1748L43.6796 19.5819L44.2154 17.655ZM68.6558 49.77H70.6558V49.7672L68.6558 49.77ZM50.8267 50.8809V48.8809H48.9616L48.8316 50.7415L50.8267 50.8809ZM19.8313 50.8809L21.8264 50.7415L21.6964 48.8809H19.8313V50.8809ZM2 49.77L0 49.7672V49.77H2ZM26.4405 17.655L26.9762 19.5819L28.4405 19.1748V17.655H26.4405ZM34.217 11.9984V13.9984H36.217V11.9984H34.217ZM34.217 2V0H32.217V2H34.217ZM36.4388 2H38.4388V0H36.4388V2ZM36.4388 11.9984H34.4388V13.9984H36.4388V11.9984ZM28.6623 14.2202V12.2202H26.6623V14.2202H28.6623ZM41.9935 14.2202H43.9935V12.2202H41.9935V14.2202ZM28.6623 17.1088H26.6623V19.5567L29.0611 19.0686L28.6623 17.1088ZM41.9935 17.1088L41.5947 19.0686L43.9935 19.5567V17.1088H41.9935ZM22.0532 50.8809V48.8809H19.8772L20.0602 51.0492L22.0532 50.8809ZM35.3279 63.1012L35.3248 65.1012L35.3306 65.1012L35.3279 63.1012ZM48.6048 50.8809L50.5977 51.0491L50.7808 48.8809H48.6048V50.8809ZM4.24193 48.6591L2.24322 48.5874L2.16888 50.6591H4.24193V48.6591ZM66.4139 48.6591V50.6591H68.4869L68.4126 48.5874L66.4139 48.6591ZM46.2154 17.655V13.1093H42.2154V17.655H46.2154ZM70.6558 49.7672C70.6334 33.8946 60.0434 19.9798 44.7511 15.7281L43.6796 19.5819C57.2432 23.353 66.6359 35.6947 66.6558 49.7728L70.6558 49.7672ZM67.5449 52.8809C69.263 52.8809 70.6558 51.4881 70.6558 49.77H66.6558C66.6558 49.2789 67.0538 48.8809 67.5449 48.8809V52.8809ZM50.8267 52.8809H67.5449V48.8809H50.8267V52.8809ZM35.329 67.3333C44.5395 67.3333 52.1795 60.2082 52.8218 51.0204L48.8316 50.7415C48.3358 57.8336 42.4385 63.3333 35.329 63.3333V67.3333ZM17.8362 51.0204C18.4784 60.2082 26.1191 67.3333 35.329 67.3333V63.3333C28.22 63.3333 22.3222 57.8335 21.8264 50.7415L17.8362 51.0204ZM3.11093 52.8809H19.8313V48.8809H3.11093V52.8809ZM0 49.77C0 51.4881 1.39286 52.8809 3.11093 52.8809V48.8809C3.60199 48.8809 4 49.2789 4 49.77H0ZM25.9047 15.7281C10.6124 19.9798 0.0224249 33.8946 2.02656e-06 49.7672L4 49.7728C4.01989 35.6947 13.4126 23.353 26.9762 19.5819L25.9047 15.7281ZM24.4405 13.1093V17.655H28.4405V13.1093H24.4405ZM27.5514 9.99837C25.8333 9.99837 24.4405 11.3912 24.4405 13.1093H28.4405C28.4405 13.6004 28.0425 13.9984 27.5514 13.9984V9.99837ZM34.217 9.99837H27.5514V13.9984H34.217V9.99837ZM32.217 2V11.9984H36.217V2H32.217ZM36.4388 0H34.217V4H36.4388V0ZM38.4388 11.9984V2H34.4388V11.9984H38.4388ZM43.1044 9.99837H36.4388V13.9984H43.1044V9.99837ZM46.2154 13.1093C46.2154 11.3912 44.8225 9.99837 43.1044 9.99837V13.9984C42.6134 13.9984 42.2154 13.6004 42.2154 13.1093H46.2154ZM28.6623 16.2202H41.9935V12.2202H28.6623V16.2202ZM30.6623 17.1088V14.2202H26.6623V17.1088H30.6623ZM42.3923 15.1489C37.7304 14.2003 32.9254 14.2003 28.2635 15.1489L29.0611 19.0686C33.1966 18.2271 37.4592 18.2271 41.5947 19.0686L42.3923 15.1489ZM39.9935 14.2202V17.1088H43.9935V14.2202H39.9935ZM20.0602 51.0492C20.7302 58.9853 27.3608 65.0887 35.3248 65.1012L35.331 61.1012C29.4432 61.0919 24.5413 56.5797 24.0461 50.7127L20.0602 51.0492ZM48.6048 48.8809H22.0532V52.8809H48.6048V48.8809ZM35.3306 65.1012C43.2955 65.0906 49.9278 58.9858 50.5977 51.0491L46.6119 50.7127C46.1167 56.5802 41.2133 61.0933 35.3252 61.1012L35.3306 65.1012ZM6.24064 48.7308C6.80252 33.0723 19.6593 20.6683 35.3279 20.6683V16.6683C17.5059 16.6683 2.88231 30.7769 2.24322 48.5874L6.24064 48.7308ZM66.4139 46.6591H4.24193V50.6591H66.4139V46.6591ZM35.3279 20.6683C50.9965 20.6683 63.8533 33.0723 64.4152 48.7308L68.4126 48.5874C67.7735 30.7769 53.1499 16.6683 35.3279 16.6683V20.6683Z" fill="#232323"/>
<path fill-rule="evenodd" clip-rule="evenodd" d="M8.7618 57L3.66699 60.2828L5.6766 63.4019L10.7719 60.1195L8.7618 57ZM14.3345 63.4526L11.4329 68.774L14.6911 70.5507L17.5927 65.2288L14.3345 63.4526Z" fill="#232323"/>
<path fill-rule="evenodd" clip-rule="evenodd" d="M60.831 57L65.9258 60.2828L63.9162 63.4019L58.8209 60.1195L60.831 57ZM55.2583 63.4526L58.1599 68.774L54.9017 70.5507L52.0001 65.2288L55.2583 63.4526Z" fill="#232323"/>
</svg>
