<svg width="71" height="72" viewBox="0 0 71 72" fill="none" xmlns="http://www.w3.org/2000/svg">
<path fill-rule="evenodd" clip-rule="evenodd" d="M64.5645 38.1182C64.6687 36.7039 64.6688 35.2977 64.5645 33.8816L69.8521 28.9757C70.7882 28.1072 70.9984 26.7065 70.3587 25.6014L62.1339 11.3932C61.4962 10.2919 60.1837 9.77555 58.9667 10.1485L52.0576 12.2644C50.88 11.4632 49.6456 10.7508 48.3672 10.1342L46.7527 3.12105C46.467 1.87965 45.3619 1 44.0881 1H27.6386C26.3648 1 25.2597 1.87965 24.9739 3.12105L23.3596 10.1342C22.081 10.7508 20.8467 11.4632 19.6691 12.2644L12.7601 10.1485C11.5429 9.77555 10.2304 10.2919 9.59284 11.3932L1.36799 25.6014C0.728287 26.7065 0.93856 28.1072 1.87467 28.9757L7.16226 33.8816C7.05808 35.296 7.05794 36.7021 7.16226 38.1182L1.87467 43.0241C0.93856 43.8927 0.728287 45.2934 1.36799 46.3985L9.5927 60.6068C10.2302 61.7081 11.5429 62.2243 12.7599 61.8515L19.669 59.7356C20.8465 60.5368 22.081 61.2492 23.3594 61.8658L24.9739 68.879C25.2597 70.1204 26.3648 71 27.6386 71H44.088C45.3618 71 46.4669 70.1204 46.7527 68.879L48.3672 61.8658C49.6457 61.2492 50.88 60.5368 52.0576 59.7356L58.9667 61.8515C60.1837 62.2242 61.4964 61.7081 62.1339 60.6068L70.3586 46.3985C70.9983 45.2934 70.788 43.8927 69.8519 43.0241L64.5645 38.1182ZM58.9976 33.1331C59.2326 35.0419 59.2326 36.9572 58.9976 38.8668C58.8901 39.7382 59.2078 40.6083 59.8515 41.2055L64.5319 45.5481L58.4898 55.986L52.3659 54.1106C51.5275 53.8536 50.6175 54.0144 49.918 54.5426C48.3799 55.7035 46.706 56.6696 44.9429 57.4137C44.1342 57.7551 43.5385 58.464 43.3415 59.3195L41.9117 65.5311H29.8151L28.3852 59.3195C28.1883 58.4639 27.5925 57.7551 26.7838 57.4137C25.0208 56.6696 23.3469 55.7035 21.8088 54.5426C21.1092 54.0145 20.1989 53.8536 19.3608 54.1106L13.2369 55.986L7.1948 45.5481L11.8752 41.2055C12.5189 40.6083 12.8366 39.7382 12.7292 38.8668C12.4941 36.9579 12.4941 35.0426 12.7292 33.1331C12.8366 32.2616 12.5189 31.3916 11.8752 30.7944L7.1948 26.4518L13.2369 16.0139L19.3608 17.8892C20.1988 18.146 21.109 17.9854 21.8088 17.4572C23.3469 16.2963 25.0207 15.3303 26.7838 14.5861C27.5925 14.2447 28.1882 13.5359 28.3852 12.6804L29.815 6.46874H41.9116L43.3415 12.6804C43.5384 13.536 44.1342 14.2447 44.9429 14.5861C46.7059 15.3303 48.3799 16.2963 49.918 17.4572C50.6175 17.9854 51.5278 18.1461 52.3659 17.8892L58.4898 16.0139L64.5319 26.4518L59.8515 30.7944C59.2077 31.3916 58.89 32.2616 58.9976 33.1331ZM35.8633 25.0625C29.8324 25.0625 24.9258 29.969 24.9258 35.9999C24.9258 42.0309 29.8324 46.9374 35.8633 46.9374C41.8942 46.9374 46.8008 42.0309 46.8008 35.9999C46.8008 29.969 41.8942 25.0625 35.8633 25.0625ZM35.8633 41.4687C32.8478 41.4687 30.3946 39.0154 30.3946 35.9999C30.3946 32.9845 32.8478 30.5312 35.8633 30.5312C38.8788 30.5312 41.332 32.9845 41.332 35.9999C41.332 39.0154 38.8789 41.4687 35.8633 41.4687Z" fill="#232323"/>
<path d="M64.5645 33.8816L64.3944 33.6983L64.3063 33.7801L64.3151 33.9L64.5645 33.8816ZM64.5645 38.1182L64.3151 38.0999L64.3063 38.2198L64.3944 38.3015L64.5645 38.1182ZM69.8521 28.9757L70.0221 29.159L70.0221 29.159L69.8521 28.9757ZM70.3587 25.6014L70.5751 25.4762V25.4761L70.3587 25.6014ZM62.1339 11.3932L62.3503 11.268L62.3502 11.2679L62.1339 11.3932ZM58.9667 10.1485L59.0399 10.3876L59.0399 10.3875L58.9667 10.1485ZM52.0576 12.2644L51.917 12.4711L52.0161 12.5385L52.1308 12.5034L52.0576 12.2644ZM48.3672 10.1342L48.1235 10.1902L48.1505 10.3072L48.2586 10.3593L48.3672 10.1342ZM46.7527 3.12105L46.509 3.1771L46.509 3.17714L46.7527 3.12105ZM24.9739 3.12105L25.2176 3.17713V3.17713L24.9739 3.12105ZM23.3596 10.1342L23.4682 10.3593L23.5763 10.3072L23.6032 10.1902L23.3596 10.1342ZM19.6691 12.2644L19.5959 12.5034L19.7106 12.5385L19.8098 12.4711L19.6691 12.2644ZM12.7601 10.1485L12.6868 10.3875L12.6869 10.3876L12.7601 10.1485ZM9.59284 11.3932L9.37648 11.268L9.37648 11.268L9.59284 11.3932ZM1.36799 25.6014L1.15163 25.4761L1.15163 25.4762L1.36799 25.6014ZM1.87467 28.9757L1.70463 29.159L1.70463 29.159L1.87467 28.9757ZM7.16226 33.8816L7.41158 33.9L7.42041 33.7801L7.3323 33.6983L7.16226 33.8816ZM7.16226 38.1182L7.3323 38.3015L7.42041 38.2198L7.41158 38.0999L7.16226 38.1182ZM1.87467 43.0241L1.70463 42.8408L1.70463 42.8409L1.87467 43.0241ZM1.36799 46.3985L1.58436 46.2732L1.58436 46.2732L1.36799 46.3985ZM9.5927 60.6068L9.37634 60.732L9.37634 60.732L9.5927 60.6068ZM12.7599 61.8515L12.6867 61.6124L12.6867 61.6124L12.7599 61.8515ZM19.669 59.7356L19.8096 59.5289L19.7105 59.4615L19.5958 59.4966L19.669 59.7356ZM23.3594 61.8658L23.6031 61.8097L23.5761 61.6928L23.468 61.6407L23.3594 61.8658ZM24.9739 68.879L25.2176 68.8229L25.2176 68.8229L24.9739 68.879ZM46.7527 68.879L46.509 68.8229L46.509 68.8229L46.7527 68.879ZM48.3672 61.8658L48.2586 61.6407L48.1505 61.6928L48.1235 61.8097L48.3672 61.8658ZM52.0576 59.7356L52.1308 59.4966L52.0161 59.4615L51.917 59.5289L52.0576 59.7356ZM58.9667 61.8515L58.8935 62.0905L58.8935 62.0905L58.9667 61.8515ZM62.1339 60.6068L62.3503 60.732L62.3503 60.732L62.1339 60.6068ZM70.3586 46.3985L70.1422 46.2732V46.2732L70.3586 46.3985ZM69.8519 43.0241L70.022 42.8409H70.022L69.8519 43.0241ZM58.9976 38.8668L59.2457 38.8974L59.2457 38.8973L58.9976 38.8668ZM58.9976 33.1331L59.2457 33.1025L59.2457 33.1024L58.9976 33.1331ZM59.8515 41.2055L60.0216 41.0222L60.0215 41.0222L59.8515 41.2055ZM64.5319 45.5481L64.7483 45.6733L64.8483 45.5006L64.702 45.3648L64.5319 45.5481ZM58.4898 55.986L58.4166 56.225L58.6066 56.2832L58.7062 56.1112L58.4898 55.986ZM52.3659 54.1106L52.2926 54.3496L52.2927 54.3497L52.3659 54.1106ZM49.918 54.5426L50.0686 54.7422L50.0686 54.7422L49.918 54.5426ZM44.9429 57.4137L44.8457 57.1834L44.8457 57.1834L44.9429 57.4137ZM43.3415 59.3195L43.0979 59.2633L43.0979 59.2634L43.3415 59.3195ZM41.9117 65.5311V65.7811H42.1107L42.1553 65.5872L41.9117 65.5311ZM29.8151 65.5311L29.5715 65.5872L29.6162 65.7811H29.8151V65.5311ZM28.3852 59.3195L28.1416 59.3755L28.1416 59.3755L28.3852 59.3195ZM26.7838 57.4137L26.8811 57.1834L26.881 57.1834L26.7838 57.4137ZM21.8088 54.5426L21.6581 54.7422L21.6582 54.7422L21.8088 54.5426ZM19.3608 54.1106L19.434 54.3497L19.4341 54.3496L19.3608 54.1106ZM13.2369 55.986L13.0206 56.1112L13.1201 56.2832L13.3101 56.225L13.2369 55.986ZM7.1948 45.5481L7.02476 45.3648L6.87843 45.5006L6.97843 45.6733L7.1948 45.5481ZM11.8752 41.2055L11.7052 41.0222L11.7052 41.0222L11.8752 41.2055ZM12.7292 38.8668L12.481 38.8973L12.481 38.8974L12.7292 38.8668ZM12.7292 33.1331L12.481 33.1025L12.481 33.1025L12.7292 33.1331ZM11.8752 30.7944L11.7052 30.9776L11.7052 30.9776L11.8752 30.7944ZM7.1948 26.4518L6.97843 26.3265L6.87843 26.4993L7.02476 26.6351L7.1948 26.4518ZM13.2369 16.0139L13.3101 15.7748L13.1201 15.7166L13.0206 15.8886L13.2369 16.0139ZM19.3608 17.8892L19.4341 17.6502L19.434 17.6502L19.3608 17.8892ZM21.8088 17.4572L21.6582 17.2577L21.6582 17.2577L21.8088 17.4572ZM26.7838 14.5861L26.881 14.8165L26.8811 14.8164L26.7838 14.5861ZM28.3852 12.6804L28.6288 12.7365L28.6288 12.7365L28.3852 12.6804ZM29.815 6.46874V6.21874H29.616L29.5714 6.41266L29.815 6.46874ZM41.9116 6.46874L42.1552 6.41266L42.1106 6.21874H41.9116V6.46874ZM43.3415 12.6804L43.5852 12.6243L43.5852 12.6243L43.3415 12.6804ZM44.9429 14.5861L44.8457 14.8164L44.8457 14.8164L44.9429 14.5861ZM49.918 17.4572L50.0686 17.2577L50.0686 17.2577L49.918 17.4572ZM52.3659 17.8892L52.2927 17.6502L52.2926 17.6502L52.3659 17.8892ZM58.4898 16.0139L58.7062 15.8886L58.6066 15.7166L58.4166 15.7748L58.4898 16.0139ZM64.5319 26.4518L64.702 26.6351L64.8483 26.4993L64.7483 26.3265L64.5319 26.4518ZM59.8515 30.7944L60.0215 30.9777L60.0216 30.9776L59.8515 30.7944ZM64.3151 33.9C64.4186 35.3039 64.4184 36.6978 64.3151 38.0999L64.8138 38.1366C64.9189 36.71 64.919 35.2916 64.8138 33.8632L64.3151 33.9ZM69.682 28.7925L64.3944 33.6983L64.7345 34.0649L70.0221 29.159L69.682 28.7925ZM70.1424 25.7266C70.7236 26.7307 70.5325 28.0033 69.682 28.7925L70.0221 29.159C71.0438 28.211 71.2733 26.6823 70.5751 25.4762L70.1424 25.7266ZM61.9175 11.5185L70.1424 25.7266L70.5751 25.4761L62.3503 11.268L61.9175 11.5185ZM59.0399 10.3875C60.1456 10.0487 61.3381 10.5178 61.9175 11.5185L62.3502 11.2679C61.6543 10.0661 60.2218 9.5024 58.8934 9.90949L59.0399 10.3875ZM52.1308 12.5034L59.0399 10.3876L58.8935 9.90948L51.9844 12.0253L52.1308 12.5034ZM48.2586 10.3593C49.5259 10.9706 50.7496 11.6768 51.917 12.4711L52.1982 12.0577C51.0105 11.2496 49.7654 10.531 48.4758 9.90898L48.2586 10.3593ZM46.509 3.17714L48.1235 10.1902L48.6108 10.0781L46.9963 3.06496L46.509 3.17714ZM44.0881 1.25C45.2455 1.25 46.2495 2.04922 46.509 3.1771L46.9963 3.065C46.6846 1.71008 45.4784 0.75 44.0881 0.75V1.25ZM27.6386 1.25H44.0881V0.75H27.6386V1.25ZM25.2176 3.17713C25.4772 2.04922 26.4813 1.25 27.6386 1.25V0.75C26.2483 0.75 25.0422 1.71008 24.7303 3.06497L25.2176 3.17713ZM23.6032 10.1902L25.2176 3.17713L24.7303 3.06497L23.1159 10.0781L23.6032 10.1902ZM19.8098 12.4711C20.9771 11.6768 22.2007 10.9706 23.4682 10.3593L23.251 9.90898C21.9612 10.531 20.7162 11.2496 19.5285 12.0577L19.8098 12.4711ZM12.6869 10.3876L19.5959 12.5034L19.7423 12.0253L12.8333 9.90948L12.6869 10.3876ZM9.8092 11.5185C10.3885 10.5178 11.5809 10.0487 12.6868 10.3875L12.8333 9.90949C11.5048 9.50241 10.0722 10.0661 9.37648 11.268L9.8092 11.5185ZM1.58436 25.7266L9.8092 11.5185L9.37648 11.268L1.15163 25.4761L1.58436 25.7266ZM2.04471 28.7925C1.19418 28.0033 1.00314 26.7307 1.58436 25.7266L1.15163 25.4762C0.453435 26.6823 0.682936 28.211 1.70463 29.159L2.04471 28.7925ZM7.3323 33.6983L2.04471 28.7925L1.70463 29.159L6.99222 34.0649L7.3323 33.6983ZM7.41158 38.0999C7.30817 36.696 7.3083 35.3021 7.41158 33.9L6.91293 33.8633C6.80785 35.2898 6.80772 36.7082 6.91293 38.1366L7.41158 38.0999ZM2.04471 43.2074L7.3323 38.3015L6.99222 37.935L1.70463 42.8408L2.04471 43.2074ZM1.58436 46.2732C1.00314 45.2692 1.19418 43.9965 2.04471 43.2074L1.70463 42.8409C0.682936 43.7888 0.453435 45.3176 1.15163 46.5237L1.58436 46.2732ZM9.80907 60.4816L1.58436 46.2732L1.15163 46.5237L9.37634 60.732L9.80907 60.4816ZM12.6867 61.6124C11.5809 61.9512 10.3883 61.4822 9.80906 60.4815L9.37634 60.732C10.0721 61.934 11.5048 62.4974 12.8331 62.0905L12.6867 61.6124ZM19.5958 59.4966L12.6867 61.6124L12.8331 62.0905L19.7422 59.9747L19.5958 59.4966ZM23.468 61.6407C22.2007 61.0294 20.977 60.3232 19.8096 59.5289L19.5284 59.9423C20.7161 60.7504 21.9612 61.469 23.2508 62.091L23.468 61.6407ZM25.2176 68.8229L23.6031 61.8097L23.1158 61.9219L24.7303 68.935L25.2176 68.8229ZM27.6386 70.75C26.4813 70.75 25.4772 69.9508 25.2176 68.8229L24.7303 68.935C25.0422 70.2899 26.2483 71.25 27.6386 71.25V70.75ZM44.088 70.75H27.6386V71.25H44.088V70.75ZM46.509 68.8229C46.2494 69.9508 45.2453 70.75 44.088 70.75V71.25C45.4783 71.25 46.6844 70.2899 46.9963 68.935L46.509 68.8229ZM48.1235 61.8097L46.509 68.8229L46.9963 68.935L48.6108 61.9219L48.1235 61.8097ZM51.917 59.5289C50.7496 60.3232 49.526 61.0294 48.2586 61.6407L48.4757 62.091C49.7655 61.469 51.0105 60.7504 52.1982 59.9423L51.917 59.5289ZM59.0399 61.6124L52.1308 59.4966L51.9844 59.9747L58.8935 62.0905L59.0399 61.6124ZM61.9175 60.4815C61.3383 61.4822 60.1457 61.9511 59.0399 61.6124L58.8935 62.0905C60.2218 62.4973 61.6545 61.934 62.3503 60.732L61.9175 60.4815ZM70.1422 46.2732L61.9175 60.4816L62.3503 60.732L70.575 46.5237L70.1422 46.2732ZM69.6819 43.2074C70.5324 43.9965 70.7235 45.2692 70.1422 46.2732L70.575 46.5237C71.2732 45.3176 71.0437 43.7888 70.022 42.8409L69.6819 43.2074ZM64.3944 38.3015L69.6819 43.2074L70.022 42.8409L64.7345 37.935L64.3944 38.3015ZM59.2457 38.8973C59.4832 36.9675 59.4832 35.0317 59.2457 33.1025L58.7494 33.1636C58.982 35.0522 58.982 36.947 58.7494 38.8362L59.2457 38.8973ZM60.0215 41.0222C59.4367 40.4796 59.1481 39.6891 59.2457 38.8974L58.7494 38.8362C58.6322 39.7873 58.979 40.737 59.6815 41.3888L60.0215 41.0222ZM64.702 45.3648L60.0216 41.0222L59.6815 41.3888L64.3619 45.7313L64.702 45.3648ZM58.7062 56.1112L64.7483 45.6733L64.3156 45.4228L58.2734 55.8607L58.7062 56.1112ZM52.2927 54.3497L58.4166 56.225L58.563 55.7469L52.4391 53.8716L52.2927 54.3497ZM50.0686 54.7422C50.7042 54.2622 51.531 54.1161 52.2926 54.3496L52.4392 53.8716C51.5241 53.5911 50.5309 53.7666 49.7673 54.3431L50.0686 54.7422ZM45.0401 57.6441C46.8224 56.8918 48.5141 55.9154 50.0686 54.7422L49.7673 54.3431C48.2456 55.4916 46.5897 56.4473 44.8457 57.1834L45.0401 57.6441ZM43.5851 59.3756C43.7641 58.5983 44.3054 57.9542 45.0401 57.6441L44.8457 57.1834C43.9631 57.556 43.3129 58.3297 43.0979 59.2633L43.5851 59.3756ZM42.1553 65.5872L43.5852 59.3755L43.0979 59.2634L41.6681 65.4751L42.1553 65.5872ZM29.8151 65.7811H41.9117V65.2811H29.8151V65.7811ZM28.1416 59.3755L29.5715 65.5872L30.0588 65.475L28.6288 59.2634L28.1416 59.3755ZM26.6866 57.6441C27.4214 57.9543 27.9627 58.5982 28.1416 59.3755L28.6288 59.2634C28.414 58.3295 27.7636 57.556 26.8811 57.1834L26.6866 57.6441ZM21.6582 54.7422C23.2126 55.9154 24.9045 56.8918 26.6866 57.6441L26.881 57.1834C25.1372 56.4473 23.4811 55.4916 21.9594 54.3431L21.6582 54.7422ZM19.4341 54.3496C20.1955 54.1161 21.0225 54.2623 21.6581 54.7422L21.9594 54.3431C21.1959 53.7667 20.2024 53.591 19.2875 53.8716L19.4341 54.3496ZM13.3101 56.225L19.434 54.3497L19.2876 53.8716L13.1637 55.7469L13.3101 56.225ZM6.97843 45.6733L13.0206 56.1112L13.4533 55.8607L7.41116 45.4228L6.97843 45.6733ZM11.7052 41.0222L7.02476 45.3648L7.36484 45.7313L12.0453 41.3888L11.7052 41.0222ZM12.481 38.8974C12.5787 39.6891 12.29 40.4796 11.7052 41.0222L12.0453 41.3888C12.7478 40.737 13.0946 39.7873 12.9773 38.8362L12.481 38.8974ZM12.481 33.1025C12.2435 35.0324 12.2435 36.9682 12.481 38.8973L12.9773 38.8362C12.7448 36.9477 12.7448 35.0529 12.9773 33.1636L12.481 33.1025ZM11.7052 30.9776C12.29 31.5202 12.5787 32.3107 12.481 33.1025L12.9773 33.1637C13.0946 32.2125 12.7478 31.2629 12.0453 30.6111L11.7052 30.9776ZM7.02476 26.6351L11.7052 30.9776L12.0453 30.6111L7.36484 26.2685L7.02476 26.6351ZM13.0206 15.8886L6.97843 26.3265L7.41116 26.577L13.4533 16.1391L13.0206 15.8886ZM19.434 17.6502L13.3101 15.7748L13.1637 16.2529L19.2876 18.1283L19.434 17.6502ZM21.6582 17.2577C21.0224 17.7375 20.1954 17.8835 19.4341 17.6502L19.2876 18.1283C20.2022 18.4085 21.1957 18.2332 21.9594 17.6568L21.6582 17.2577ZM26.6866 14.3558C24.9043 15.108 23.2126 16.0845 21.6582 17.2577L21.9594 17.6568C23.4811 16.5082 25.1371 15.5525 26.881 14.8165L26.6866 14.3558ZM28.1416 12.6243C27.9626 13.4016 27.4213 14.0456 26.6866 14.3558L26.8811 14.8164C27.7637 14.4438 28.4138 13.6702 28.6288 12.7365L28.1416 12.6243ZM29.5714 6.41266L28.1416 12.6243L28.6288 12.7365L30.0586 6.52482L29.5714 6.41266ZM41.9116 6.21874H29.815V6.71874H41.9116V6.21874ZM43.5852 12.6243L42.1552 6.41266L41.668 6.52482L43.0979 12.7365L43.5852 12.6243ZM45.0401 14.3558C44.3053 14.0456 43.764 13.4017 43.5852 12.6243L43.0979 12.7365C43.3128 13.6703 43.9631 14.4439 44.8457 14.8164L45.0401 14.3558ZM50.0686 17.2577C48.5141 16.0845 46.8222 15.108 45.0401 14.3558L44.8457 14.8164C46.5895 15.5525 48.2456 16.5082 49.7673 17.6568L50.0686 17.2577ZM52.2926 17.6502C51.5312 17.8836 50.7042 17.7376 50.0686 17.2577L49.7673 17.6567C50.5309 18.2332 51.5244 18.4087 52.4392 18.1283L52.2926 17.6502ZM58.4166 15.7748L52.2927 17.6502L52.4391 18.1283L58.563 16.2529L58.4166 15.7748ZM64.7483 26.3265L58.7062 15.8886L58.2734 16.1391L64.3156 26.577L64.7483 26.3265ZM60.0216 30.9776L64.702 26.6351L64.3619 26.2685L59.6815 30.6111L60.0216 30.9776ZM59.2457 33.1024C59.1479 32.3107 59.4366 31.5202 60.0215 30.9777L59.6815 30.6111C58.9788 31.2629 58.632 32.2125 58.7495 33.1637L59.2457 33.1024ZM25.1758 35.9999C25.1758 30.1071 29.9704 25.3125 35.8633 25.3125V24.8125C29.6943 24.8125 24.6758 29.8309 24.6758 35.9999H25.1758ZM35.8633 46.6874C29.9704 46.6874 25.1758 41.8928 25.1758 35.9999H24.6758C24.6758 42.1689 29.6943 47.1874 35.8633 47.1874V46.6874ZM46.5508 35.9999C46.5508 41.8928 41.7561 46.6874 35.8633 46.6874V47.1874C42.0323 47.1874 47.0508 42.1689 47.0508 35.9999H46.5508ZM35.8633 25.3125C41.7561 25.3125 46.5508 30.1071 46.5508 35.9999H47.0508C47.0508 29.8309 42.0323 24.8125 35.8633 24.8125V25.3125ZM30.1446 35.9999C30.1446 39.1535 32.7098 41.7187 35.8633 41.7187V41.2187C32.9859 41.2187 30.6446 38.8773 30.6446 35.9999H30.1446ZM35.8633 30.2812C32.7098 30.2812 30.1446 32.8464 30.1446 35.9999H30.6446C30.6446 33.1225 32.9859 30.7812 35.8633 30.7812V30.2812ZM41.582 35.9999C41.582 32.8464 39.0168 30.2812 35.8633 30.2812V30.7812C38.7407 30.7812 41.082 33.1225 41.082 35.9999H41.582ZM35.8633 41.7187C39.017 41.7187 41.582 39.1535 41.582 35.9999H41.082C41.082 38.8773 38.7408 41.2187 35.8633 41.2187V41.7187Z" fill="#232323"/>
</svg>
