<svg width="77" height="70" viewBox="0 0 77 70" fill="none" xmlns="http://www.w3.org/2000/svg">
<path fill-rule="evenodd" clip-rule="evenodd" d="M8.98438 0H67.6823C72.6366 0 76.6667 4.0301 76.6667 8.98438C76.6667 13.9387 72.6366 17.9688 67.6823 17.9688H17.9688V23.6589V27.0052H57.2005C58.8547 27.0052 60.1953 28.3458 60.1953 30C60.1953 31.6542 58.8547 32.9948 57.2005 32.9948H42.8255V46.1292L46.6977 42.2576C47.8669 41.0877 49.7633 41.0877 50.9325 42.2576C52.1024 43.4268 52.1024 45.3232 50.9325 46.4924L41.9481 55.4768C41.3638 56.0617 40.597 56.3542 39.8307 56.3542C39.0645 56.3542 38.2977 56.0617 37.7133 55.4768L28.7289 46.4924C27.5591 45.3232 27.5591 43.4268 28.7289 42.2576C29.8982 41.0877 31.7945 41.0877 32.9638 42.2576L36.8359 46.1292V32.9948H17.9688V64.0104H54.2057C55.8599 64.0104 57.2005 65.3511 57.2005 67.0052C57.2005 68.6594 55.8599 70 54.2057 70H14.974C13.3198 70 11.9792 68.6594 11.9792 67.0052C11.9792 66.9724 11.9814 66.9403 11.9835 66.9083C11.9847 66.8907 11.9859 66.8731 11.9868 66.8555C11.9859 66.8378 11.9847 66.8202 11.9835 66.8026C11.9814 66.7706 11.9792 66.7385 11.9792 66.7057V32.9948H5.98958C4.33543 32.9948 2.99479 31.6542 2.99479 30C2.99479 28.3458 4.33543 27.0052 5.98958 27.0052H11.9792V23.6589V17.9688H8.98438C4.0301 17.9688 0 13.9387 0 8.98438C0 4.0301 4.0301 0 8.98438 0ZM8.98438 11.9792H67.6823C69.3335 11.9792 70.6771 10.6356 70.6771 8.98438C70.6771 7.33315 69.3335 5.98958 67.6823 5.98958H8.98438C7.33315 5.98958 5.98958 7.33315 5.98958 8.98438C5.98958 10.6356 7.33315 11.9792 8.98438 11.9792ZM72.9232 59.7591C72.9232 62.6533 70.5765 65 67.6823 65C64.7881 65 62.4414 62.6533 62.4414 59.7591C62.4414 56.8649 64.7881 54.5182 67.6823 54.5182C70.5765 54.5182 72.9232 56.8649 72.9232 59.7591ZM67.6823 44.9219C66.0281 44.9219 64.6875 46.2625 64.6875 47.9167C64.6875 49.5708 66.0281 50.9115 67.6823 50.9115C69.3364 50.9115 70.6771 49.5708 70.6771 47.9167C70.6771 46.2625 69.3364 44.9219 67.6823 44.9219ZM64.6875 37.4349C64.6875 35.7807 66.0281 34.4401 67.6823 34.4401C69.3364 34.4401 70.6771 35.7807 70.6771 37.4349C70.6771 39.0891 69.3364 40.4297 67.6823 40.4297C66.0281 40.4297 64.6875 39.0891 64.6875 37.4349ZM67.6823 23.9583C66.0281 23.9583 64.6875 25.299 64.6875 26.9531C64.6875 28.6073 66.0281 29.9479 67.6823 29.9479C69.3364 29.9479 70.6771 28.6073 70.6771 26.9531C70.6771 25.299 69.3364 23.9583 67.6823 23.9583Z" fill="#232323"/>
</svg>
