<svg width="88" height="107" viewBox="0 0 88 107" fill="none" xmlns="http://www.w3.org/2000/svg">
<g filter="url(#filter0_d)">
<path fill-rule="evenodd" clip-rule="evenodd" d="M61.1864 39.0424C56.7394 43.4894 51.2984 45.7433 45.0142 45.7433C38.7313 45.7433 33.2903 43.4886 28.8427 39.0431C24.3964 34.5969 22.1418 29.1559 22.1418 22.8709C22.1418 16.5874 24.3964 11.1464 28.8427 6.70015C33.2889 2.25391 38.7291 0 45.0142 0C51.2977 0 56.7387 2.25391 61.1856 6.69942C65.6326 11.1471 67.8865 16.5881 67.8865 22.8709C67.8865 29.1559 65.6319 34.5962 61.1864 39.0424ZM45.0142 5.56486C40.1919 5.56486 36.1898 7.22323 32.7781 10.6349C29.3657 14.0473 27.7066 18.0501 27.7066 22.8709C27.7066 27.6932 29.3657 31.696 32.7781 35.1077C36.1912 38.5193 40.1934 40.1784 45.0142 40.1784C49.8357 40.1784 53.8385 38.52 57.2509 35.1077C60.6626 31.6953 62.3217 27.6932 62.3217 22.8709C62.3217 18.0501 60.6626 14.0473 57.2509 10.6349C53.8385 7.22323 49.8357 5.56486 45.0142 5.56486ZM62.7784 94.9612H22.7511C17.8122 94.9612 13.7521 93.4804 10.6831 90.5599C7.57578 87.6004 6 83.5874 6 78.6304C6 76.7235 6.06376 74.8362 6.18982 73.0228C6.31805 71.168 6.5767 69.1489 6.95923 67.0203C7.34467 64.8729 7.84095 62.8436 8.43431 60.9881C9.04868 59.0689 9.8833 57.1758 10.9143 55.361C11.9836 53.478 13.2413 51.8385 14.6527 50.488C16.1299 49.0745 17.9375 47.9392 20.0255 47.1126C22.107 46.2881 24.4138 45.8701 26.8829 45.8701C27.8523 45.8701 28.7898 46.2678 30.5988 47.4466C31.7298 48.1834 33.0339 49.0238 34.4749 49.9446C35.7167 50.7372 37.4026 51.4798 39.4819 52.1515C41.5141 52.8086 43.576 53.1418 45.6104 53.1418C47.6462 53.1418 49.7082 52.8086 51.7389 52.1515C53.8204 51.4791 55.5056 50.7365 56.7495 49.9439C58.2043 49.0144 59.5077 48.174 60.622 47.4473C62.4325 46.2685 63.37 45.8708 64.3394 45.8708C66.8077 45.8708 69.1153 46.2881 71.1975 47.1119C72.9015 47.7872 74.4176 48.6668 75.7194 49.7343C73.3835 50.2908 71.1654 51.1508 69.1089 52.2703C67.8078 51.7617 66.3487 51.483 64.7654 51.4407C64.5705 51.5443 64.2235 51.7428 63.6612 52.1087C62.5173 52.8549 61.2356 53.6809 59.7439 54.6343C58.0986 55.6834 55.9823 56.6288 53.4509 57.4468C50.8666 58.2821 48.2287 58.7067 45.6111 58.7067C42.9935 58.7067 40.3564 58.2821 37.7706 57.4461C35.2414 56.6296 33.1244 55.6834 31.4813 54.6357C30.0236 53.7048 28.705 52.8542 27.561 52.1087C26.9988 51.7421 26.6518 51.5443 26.4569 51.4407C24.8579 51.4835 23.385 51.7675 22.0744 52.2862C20.6573 52.847 19.4546 53.5947 18.5005 54.5082C17.4804 55.4849 16.5559 56.6969 15.7525 58.1097C14.9106 59.592 14.2317 61.1309 13.734 62.6849C13.2153 64.3056 12.7791 66.0958 12.4364 68.0034C12.0894 69.935 11.8554 71.7527 11.7409 73.4075C11.6235 75.0941 11.5649 76.851 11.5649 78.6304C11.5649 82.0514 12.5313 84.6357 14.5201 86.5288C16.5472 88.4582 19.2395 89.3964 22.7511 89.3964H58.5525C59.7183 91.4325 61.1418 93.3023 62.7784 94.9612Z" fill="white"/>
</g>
<g filter="url(#filter1_d)">
<path fill-rule="evenodd" clip-rule="evenodd" d="M76.6045 64.401C76.6045 65.727 75.5295 66.802 74.2035 66.802C72.8775 66.802 71.8025 65.727 71.8025 64.401C71.8025 63.075 72.8775 62 74.2035 62C75.5295 62 76.6045 63.075 76.6045 64.401ZM72.4026 90.814H68.8009C67.8068 90.814 67 91.6207 67 92.6148C67 93.6089 67.8068 94.4157 68.8009 94.4157H74.2035H79.6061C80.6002 94.4157 81.407 93.6089 81.407 92.6148C81.407 91.6207 80.6002 90.814 79.6061 90.814H76.0044V73.4054C76.0044 72.4113 75.1976 71.6045 74.2035 71.6045H70.0016C69.0075 71.6045 68.2007 72.4113 68.2007 73.4054C68.2007 74.3995 69.0075 75.2062 70.0016 75.2062H72.4026V90.814Z" fill="white"/>
<path d="M72.4026 90.814V91.064H72.6526V90.814H72.4026ZM76.0044 90.814H75.7544V91.064H76.0044V90.814ZM72.4026 75.2062H72.6526V74.9562H72.4026V75.2062ZM74.2035 67.052C75.6676 67.052 76.8545 65.8651 76.8545 64.401H76.3545C76.3545 65.589 75.3914 66.552 74.2035 66.552V67.052ZM71.5525 64.401C71.5525 65.8651 72.7394 67.052 74.2035 67.052V66.552C73.0155 66.552 72.0525 65.589 72.0525 64.401H71.5525ZM74.2035 61.75C72.7394 61.75 71.5525 62.9369 71.5525 64.401H72.0525C72.0525 63.2131 73.0155 62.25 74.2035 62.25V61.75ZM76.8545 64.401C76.8545 62.9369 75.6676 61.75 74.2035 61.75V62.25C75.3914 62.25 76.3545 63.2131 76.3545 64.401H76.8545ZM68.8009 91.064H72.4026V90.564H68.8009V91.064ZM67.25 92.6148C67.25 91.7588 67.9449 91.064 68.8009 91.064V90.564C67.6687 90.564 66.75 91.4827 66.75 92.6148H67.25ZM68.8009 94.1657C67.9449 94.1657 67.25 93.4708 67.25 92.6148H66.75C66.75 93.747 67.6687 94.6657 68.8009 94.6657V94.1657ZM74.2035 94.1657H68.8009V94.6657H74.2035V94.1657ZM79.6061 94.1657H74.2035V94.6657H79.6061V94.1657ZM81.157 92.6148C81.157 93.4708 80.4621 94.1657 79.6061 94.1657V94.6657C80.7383 94.6657 81.657 93.747 81.657 92.6148H81.157ZM79.6061 91.064C80.4621 91.064 81.157 91.7588 81.157 92.6148H81.657C81.657 91.4827 80.7383 90.564 79.6061 90.564V91.064ZM76.0044 91.064H79.6061V90.564H76.0044V91.064ZM76.2544 90.814V73.4054H75.7544V90.814H76.2544ZM76.2544 73.4054C76.2544 72.2732 75.3356 71.3545 74.2035 71.3545V71.8545C75.0595 71.8545 75.7544 72.5494 75.7544 73.4054H76.2544ZM74.2035 71.3545H70.0016V71.8545H74.2035V71.3545ZM70.0016 71.3545C68.8694 71.3545 67.9507 72.2732 67.9507 73.4054H68.4507C68.4507 72.5494 69.1456 71.8545 70.0016 71.8545V71.3545ZM67.9507 73.4054C67.9507 74.5375 68.8694 75.4562 70.0016 75.4562V74.9562C69.1456 74.9562 68.4507 74.2614 68.4507 73.4054H67.9507ZM70.0016 75.4562H72.4026V74.9562H70.0016V75.4562ZM72.1526 75.2062V90.814H72.6526V75.2062H72.1526Z" fill="white"/>
</g>
<defs>
<filter id="filter0_d" x="0" y="0" width="81.7194" height="106.961" filterUnits="userSpaceOnUse" color-interpolation-filters="sRGB">
<feFlood flood-opacity="0" result="BackgroundImageFix"/>
<feColorMatrix in="SourceAlpha" type="matrix" values="0 0 0 0 0 0 0 0 0 0 0 0 0 0 0 0 0 0 127 0"/>
<feOffset dy="6"/>
<feGaussianBlur stdDeviation="3"/>
<feColorMatrix type="matrix" values="0 0 0 0 0.043733 0 0 0 0 0.043733 0 0 0 0 0.043733 0 0 0 0.37093 0"/>
<feBlend mode="normal" in2="BackgroundImageFix" result="effect1_dropShadow"/>
<feBlend mode="normal" in="SourceGraphic" in2="effect1_dropShadow" result="shape"/>
</filter>
<filter id="filter1_d" x="60.75" y="61.75" width="26.907" height="44.9157" filterUnits="userSpaceOnUse" color-interpolation-filters="sRGB">
<feFlood flood-opacity="0" result="BackgroundImageFix"/>
<feColorMatrix in="SourceAlpha" type="matrix" values="0 0 0 0 0 0 0 0 0 0 0 0 0 0 0 0 0 0 127 0"/>
<feOffset dy="6"/>
<feGaussianBlur stdDeviation="3"/>
<feColorMatrix type="matrix" values="0 0 0 0 0.043733 0 0 0 0 0.043733 0 0 0 0 0.043733 0 0 0 0.37093 0"/>
<feBlend mode="normal" in2="BackgroundImageFix" result="effect1_dropShadow"/>
<feBlend mode="normal" in="SourceGraphic" in2="effect1_dropShadow" result="shape"/>
</filter>
</defs>
</svg>
