<svg width="114" height="107" viewBox="0 0 114 107" fill="none" xmlns="http://www.w3.org/2000/svg">
<g filter="url(#filter0_d)">
<path fill-rule="evenodd" clip-rule="evenodd" d="M98.3882 0H14.9025C9.99366 0 6 3.99366 6 8.9025V68.2525C6 73.1613 9.99366 77.155 14.9025 77.155H24.0028V91.9925C24.0028 93.1928 24.7259 94.2749 25.8348 94.7341C26.9438 95.1932 28.22 94.9394 29.0688 94.0907L46.0045 77.155H98.3882C103.297 77.155 107.291 73.1613 107.291 68.2525V8.9025C107.291 3.99366 103.297 0 98.3882 0ZM101.356 68.2525C101.356 69.8888 100.024 71.22 98.3882 71.22H44.7753C43.9883 71.22 43.2336 71.5328 42.6771 72.0893L29.9378 84.8282V74.1875C29.9378 72.5487 28.6092 71.22 26.9703 71.22H14.9025C13.2662 71.22 11.935 69.8888 11.935 68.2525V8.9025C11.935 7.26622 13.2662 5.935 14.9025 5.935H98.3882C100.024 5.935 101.356 7.26622 101.356 8.9025V68.2525ZM80.2441 31.6357C79.8971 30.5518 78.9611 29.762 77.8347 29.6022L65.0143 27.7833L59.2937 16.4663C58.7887 15.4672 57.7647 14.8375 56.6453 14.8375C55.526 14.8375 54.502 15.4674 53.9969 16.4663L48.2764 27.7833L35.456 29.6022C34.3295 29.762 33.3936 30.5518 33.0466 31.6353C32.6996 32.7189 33.0029 33.9055 33.827 34.6897L43.0611 43.4778L40.8845 55.8687C40.6897 56.9782 41.1397 58.1025 42.0466 58.7707C42.9533 59.439 44.1603 59.5366 45.1625 59.0222L56.6453 53.1283L68.1282 59.0226C69.1304 59.5369 70.3374 59.4396 71.244 58.7711C72.1507 58.1027 72.6008 56.9786 72.4061 55.8691L70.2296 43.4782L79.4636 34.6901C80.2878 33.9057 80.5911 32.7193 80.2441 31.6357ZM64.9858 40.2753C64.2661 40.9602 63.9369 41.9599 64.1088 42.9383L65.5279 51.0165L58.0005 47.1526C57.5751 46.9342 57.1102 46.8252 56.6453 46.8252C56.1804 46.8252 55.7155 46.9344 55.2902 47.1526L47.7628 51.0165L49.1819 42.9383C49.3538 41.9599 49.0246 40.9602 48.3049 40.2753L42.3596 34.6171L50.6431 33.4417C51.6036 33.3056 52.437 32.7082 52.8746 31.8425L56.6453 24.383L60.416 31.8425C60.8536 32.7084 61.6869 33.3056 62.6476 33.4417L70.9311 34.6171L64.9858 40.2753Z" fill="white"/>
</g>
<defs>
<filter id="filter0_d" x="0" y="0" width="113.291" height="106.96" filterUnits="userSpaceOnUse" color-interpolation-filters="sRGB">
<feFlood flood-opacity="0" result="BackgroundImageFix"/>
<feColorMatrix in="SourceAlpha" type="matrix" values="0 0 0 0 0 0 0 0 0 0 0 0 0 0 0 0 0 0 127 0"/>
<feOffset dy="6"/>
<feGaussianBlur stdDeviation="3"/>
<feColorMatrix type="matrix" values="0 0 0 0 0.043733 0 0 0 0 0.043733 0 0 0 0 0.043733 0 0 0 0.37093 0"/>
<feBlend mode="normal" in2="BackgroundImageFix" result="effect1_dropShadow"/>
<feBlend mode="normal" in="SourceGraphic" in2="effect1_dropShadow" result="shape"/>
</filter>
</defs>
</svg>
