<svg width="107" height="107" viewBox="0 0 107 107" fill="none" xmlns="http://www.w3.org/2000/svg">
<g filter="url(#filter0_d)">
<path fill-rule="evenodd" clip-rule="evenodd" d="M17.875 16.8229C17.875 18.4617 19.205 19.7917 20.8438 19.7917C22.4825 19.7917 23.8125 18.4617 23.8125 16.8229V13.8542H36.6771V16.8229C36.6771 18.4617 38.0071 19.7917 39.6458 19.7917C41.2846 19.7917 42.6146 18.4617 42.6146 16.8229V13.8542H55.4792V16.8229C55.4792 18.4617 56.8092 19.7917 58.4479 19.7917C60.0867 19.7917 61.4167 18.4617 61.4167 16.8229V13.8542H62.4062C65.1335 13.8542 67.3542 16.0748 67.3542 18.8021V50.7063C67.3542 52.345 68.6842 53.675 70.3229 53.675C71.9617 53.675 73.2917 52.345 73.2917 50.7063V18.8021C73.2917 12.7973 68.411 7.91667 62.4062 7.91667H61.4167V2.96875C61.4167 1.33 60.0867 0 58.4479 0C56.8092 0 55.4792 1.33 55.4792 2.96875V7.91667H42.6146V2.96875C42.6146 1.33 41.2846 0 39.6458 0C38.0071 0 36.6771 1.33 36.6771 2.96875V7.91667H23.8125V2.96875C23.8125 1.33 22.4825 0 20.8438 0C19.205 0 17.875 1.33 17.875 2.96875V7.91667H16.8854C10.8806 7.91667 6 12.7973 6 18.8021V72.2396C6 78.2444 10.8806 83.125 16.8854 83.125H45.6229C47.2617 83.125 48.5917 81.795 48.5917 80.1562C48.5917 78.5175 47.2617 77.1875 45.6229 77.1875H16.8854C14.1581 77.1875 11.9375 74.9669 11.9375 72.2396V18.8021C11.9375 16.0748 14.1581 13.8542 16.8854 13.8542H17.875V16.8229ZM53.4881 94.1292C54.0462 94.6913 54.8063 95 55.586 95C55.7602 95 55.9304 94.9842 56.1046 94.9525L67.9994 92.8546C68.5971 92.7517 69.1513 92.4588 69.5827 92.0312L98.9694 62.6406C101.669 59.9371 101.669 55.5473 98.9694 52.8438L94.0729 47.9473C92.636 46.5104 90.8033 45.9365 88.9192 46.3323C87.5535 46.6133 86.2275 47.3971 84.9767 48.6479L55.586 78.0385C55.1585 78.466 54.8696 79.0202 54.7627 79.6219L52.6648 91.5167C52.4946 92.4667 52.8033 93.4444 53.4881 94.1292ZM58.1525 89.2743L59.4252 82.1381L89.9076 51.9684C90.148 51.7305 90.3533 51.5647 90.4937 51.4513L90.4939 51.4512L90.494 51.4511C90.6013 51.3645 90.6707 51.3085 90.6889 51.2743L95.8469 56.3781C96.2544 56.7854 96.2544 57.442 95.8469 57.8494L65.3646 88.0149L58.1525 89.2743ZM50.6562 53.9375H20.9688C19.33 53.9375 18 52.6075 18 50.9688C18 49.33 19.33 48 20.9688 48H50.6562C52.295 48 53.625 49.33 53.625 50.9688C53.625 52.6075 52.295 53.9375 50.6562 53.9375ZM38.7812 37.9375H20.9688C19.33 37.9375 18 36.6075 18 34.9688C18 33.33 19.33 32 20.9688 32H38.7812C40.42 32 41.75 33.33 41.75 34.9688C41.75 36.6075 40.42 37.9375 38.7812 37.9375Z" fill="white"/>
</g>
<defs>
<filter id="filter0_d" x="0" y="0" width="106.994" height="107" filterUnits="userSpaceOnUse" color-interpolation-filters="sRGB">
<feFlood flood-opacity="0" result="BackgroundImageFix"/>
<feColorMatrix in="SourceAlpha" type="matrix" values="0 0 0 0 0 0 0 0 0 0 0 0 0 0 0 0 0 0 127 0"/>
<feOffset dy="6"/>
<feGaussianBlur stdDeviation="3"/>
<feColorMatrix type="matrix" values="0 0 0 0 0.043733 0 0 0 0 0.043733 0 0 0 0 0.043733 0 0 0 0.37093 0"/>
<feBlend mode="normal" in2="BackgroundImageFix" result="effect1_dropShadow"/>
<feBlend mode="normal" in="SourceGraphic" in2="effect1_dropShadow" result="shape"/>
</filter>
</defs>
</svg>
