<svg width="107" height="107" viewBox="0 0 107 107" fill="none" xmlns="http://www.w3.org/2000/svg">
<g filter="url(#filter0_d)">
<path fill-rule="evenodd" clip-rule="evenodd" d="M28.7511 23.74C27.113 23.74 25.7836 22.4106 25.7836 20.7725V13.8486H16.8811C14.1548 13.8486 11.935 16.0677 11.935 18.7939V31.6536H95.025V18.7939C95.025 16.0677 92.8052 13.8486 90.0789 13.8486H81.1764V20.7725C81.1764 22.4106 79.847 23.74 78.2089 23.74C76.5709 23.74 75.2414 22.4106 75.2414 20.7725V13.8486H31.7186V20.7725C31.7186 22.4106 30.3891 23.74 28.7511 23.74ZM75.2414 7.91357H31.7186V2.9675C31.7186 1.32943 30.3891 0 28.7511 0C27.113 0 25.7836 1.32943 25.7836 2.9675V7.91357H16.8811C10.8787 7.91357 6 12.7915 6 18.7939V34.6211V84.0789C6 90.0813 10.8787 94.96 16.8811 94.96H90.0789C96.0813 94.96 100.96 90.0813 100.96 84.0789V34.6211V18.7939C100.96 12.7915 96.0813 7.91357 90.0789 7.91357H81.1764V2.9675C81.1764 1.32943 79.847 0 78.2089 0C76.5709 0 75.2414 1.32943 75.2414 2.9675V7.91357ZM11.935 37.5886H95.025V84.0789C95.025 86.8052 92.8052 89.025 90.0789 89.025H16.8811C14.1548 89.025 11.935 86.8052 11.935 84.0789V37.5886ZM18 49C18 48.4477 18.4477 48 19 48H28C28.5523 48 29 48.4477 29 49V57C29 57.5523 28.5523 58 28 58H19C18.4477 58 18 57.5523 18 57V49Z" fill="white"/>
</g>
<defs>
<filter id="filter0_d" x="0" y="0" width="106.96" height="106.96" filterUnits="userSpaceOnUse" color-interpolation-filters="sRGB">
<feFlood flood-opacity="0" result="BackgroundImageFix"/>
<feColorMatrix in="SourceAlpha" type="matrix" values="0 0 0 0 0 0 0 0 0 0 0 0 0 0 0 0 0 0 127 0"/>
<feOffset dy="6"/>
<feGaussianBlur stdDeviation="3"/>
<feColorMatrix type="matrix" values="0 0 0 0 0.043733 0 0 0 0 0.043733 0 0 0 0 0.043733 0 0 0 0.37093 0"/>
<feBlend mode="normal" in2="BackgroundImageFix" result="effect1_dropShadow"/>
<feBlend mode="normal" in="SourceGraphic" in2="effect1_dropShadow" result="shape"/>
</filter>
</defs>
</svg>
