<svg width="61" height="72" viewBox="0 0 61 72" fill="none" xmlns="http://www.w3.org/2000/svg">
<path fill-rule="evenodd" clip-rule="evenodd" d="M41.6802 29.7798C38.4022 33.0579 34.3914 34.7193 29.759 34.7193C25.1277 34.7193 21.1169 33.0573 17.8383 29.7804C14.5608 26.5029 12.8988 22.4921 12.8988 17.8591C12.8988 13.2272 14.5608 9.21648 17.8383 5.93896C21.1158 2.66145 25.1261 1 29.759 1C34.3909 1 38.4017 2.66145 41.6797 5.93843C44.9577 9.21701 46.6192 13.2278 46.6192 17.8591C46.6192 22.4921 44.9572 26.5023 41.6802 29.7798ZM29.759 5.1021C26.2043 5.1021 23.2542 6.32455 20.7393 8.83943C18.2239 11.3548 17.0009 14.3055 17.0009 17.8591C17.0009 21.4138 18.2239 24.3645 20.7393 26.8794C23.2552 29.3942 26.2054 30.6172 29.759 30.6172C33.3132 30.6172 36.2638 29.3948 38.7792 26.8794C41.2941 24.364 42.5171 21.4138 42.5171 17.8591C42.5171 14.3055 41.2941 11.3548 38.7792 8.83943C36.2638 6.32455 33.3132 5.1021 29.759 5.1021ZM39.3314 58.1286C39.3314 57.1108 40.1565 56.2857 41.1743 56.2857H47.8086C48.8264 56.2857 49.6514 57.1108 49.6514 58.1286C49.6514 59.1464 48.8264 59.9714 47.8086 59.9714H41.1743C40.1565 59.9714 39.3314 59.1464 39.3314 58.1286ZM59.2598 54.8266C59.1653 53.4626 58.9741 51.9747 58.6926 50.4035C58.4085 48.8206 58.0427 47.3242 57.6048 45.9564C57.1519 44.5428 56.5372 43.1468 55.7762 41.8089C54.9874 40.4204 54.0602 39.2113 53.0199 38.2163C51.932 37.1755 50.6001 36.3386 49.0598 35.7282C47.525 35.1209 45.824 34.8133 44.0045 34.8133C43.2899 34.8133 42.5988 35.1065 41.2642 35.9754C40.4428 36.5111 39.4821 37.1306 38.4097 37.8158C37.4927 38.4001 36.2505 38.9475 34.7161 39.4431C33.2192 39.9275 31.6992 40.1731 30.1985 40.1731C28.6989 40.1731 27.179 39.9275 25.6809 39.4431C24.1482 38.948 22.9054 38.4006 21.9901 37.8163C20.9278 37.1375 19.9665 36.518 19.1329 35.9749C17.7993 35.106 17.1082 34.8128 16.3937 34.8128C14.5736 34.8128 12.8732 35.1209 11.3388 35.7287C9.79967 36.3381 8.46719 37.1749 7.37825 38.2169C6.33791 39.2124 5.41078 40.4209 4.62251 41.8089C3.86255 43.1468 3.24731 44.5423 2.79443 45.957C2.35704 47.3247 1.99121 48.8206 1.70709 50.4035C1.42511 51.9726 1.23445 53.461 1.13992 54.8282C1.047 56.1649 1 57.5562 1 58.9618C1 62.6158 2.16158 65.574 4.45215 67.7556C6.71442 69.9084 9.70728 71 13.3479 71H47.0534C50.693 71 53.6859 69.9084 55.9487 67.7556C58.2398 65.5756 59.4013 62.6164 59.4013 58.9613C59.4008 57.5508 59.3533 56.1596 59.2598 54.8266ZM53.1203 64.7836C51.6255 66.2063 49.6409 66.8979 47.0529 66.8979H13.3479C10.7594 66.8979 8.77481 66.2063 7.28052 64.7841C5.81453 63.3886 5.1021 61.4836 5.1021 58.9618C5.1021 57.6502 5.14536 56.3551 5.23187 55.1118C5.31625 53.892 5.48875 52.552 5.74457 51.1283C5.99718 49.7221 6.31868 48.4024 6.70107 47.2077C7.06796 46.0622 7.56837 44.9278 8.18895 43.8352C8.78122 42.7937 9.46268 41.9003 10.2146 41.1804C10.918 40.5069 11.8045 39.9558 12.8491 39.5424C13.8152 39.16 14.901 38.9507 16.0797 38.9192C16.2233 38.9955 16.4791 39.1413 16.8936 39.4116C17.7368 39.9611 18.7088 40.5881 19.7833 41.2744C20.9946 42.0466 22.5551 42.7441 24.4195 43.346C26.3255 43.9623 28.2695 44.2752 30.1991 44.2752C32.1286 44.2752 34.0731 43.9623 35.9781 43.3465C37.8441 42.7435 39.4041 42.0466 40.6169 41.2733C41.7166 40.5705 42.6613 39.9616 43.5046 39.4116C43.919 39.1419 44.1748 38.9955 44.3185 38.9192C45.4977 38.9507 46.5834 39.16 47.5501 39.5424C48.5941 39.9558 49.4807 40.5074 50.184 41.1804C50.936 41.8997 51.6174 42.7932 52.2097 43.8357C52.8308 44.9278 53.3318 46.0627 53.6981 47.2072C54.0811 48.4035 54.4031 49.7226 54.6552 51.1277C54.9104 52.5542 55.0835 53.8947 55.1679 55.1123V55.1134C55.2549 56.3519 55.2987 57.6464 55.2992 58.9618C55.2987 61.4842 54.5863 63.3886 53.1203 64.7836Z" fill="#232323"/>
<path d="M41.6802 29.7798L42.3873 30.4869L42.3874 30.4869L41.6802 29.7798ZM17.8383 29.7804L17.1312 30.4875L17.1314 30.4876L17.8383 29.7804ZM41.6797 5.93843L42.3869 5.23138L42.3867 5.23121L41.6797 5.93843ZM20.7393 26.8794L20.0323 27.5865L20.0323 27.5866L20.7393 26.8794ZM38.7792 26.8794L39.4863 27.5865L39.4864 27.5864L38.7792 26.8794ZM38.7792 8.83943L39.4864 8.1324L39.4863 8.13225L38.7792 8.83943ZM58.6926 50.4035L59.677 50.2272L59.6769 50.2269L58.6926 50.4035ZM59.2598 54.8266L58.2622 54.8957L58.2623 54.8965L59.2598 54.8266ZM57.6048 45.9564L58.5571 45.6515L58.5571 45.6513L57.6048 45.9564ZM55.7762 41.8089L54.9067 42.3029L54.907 42.3034L55.7762 41.8089ZM53.0199 38.2163L52.3286 38.9389L52.3287 38.939L53.0199 38.2163ZM49.0598 35.7282L49.4283 34.7985L49.4277 34.7983L49.0598 35.7282ZM41.2642 35.9754L40.7186 35.1374L40.718 35.1378L41.2642 35.9754ZM38.4097 37.8158L38.947 38.6592L38.9481 38.6585L38.4097 37.8158ZM34.7161 39.4431L34.4088 38.4915L34.4083 38.4916L34.7161 39.4431ZM25.6809 39.4431L25.9886 38.4916L25.9883 38.4915L25.6809 39.4431ZM21.9901 37.8163L21.4516 38.659L21.452 38.6593L21.9901 37.8163ZM19.1329 35.9749L18.5869 36.8127L18.587 36.8128L19.1329 35.9749ZM11.3388 35.7287L11.7069 36.6585L11.7071 36.6584L11.3388 35.7287ZM7.37825 38.2169L6.68691 37.4943L6.68689 37.4944L7.37825 38.2169ZM4.62251 41.8089L5.49201 42.3029L5.49207 42.3028L4.62251 41.8089ZM2.79443 45.957L1.84204 45.6521L1.84195 45.6524L2.79443 45.957ZM1.70709 50.4035L2.69132 50.5804L2.69136 50.5802L1.70709 50.4035ZM1.13992 54.8282L2.13752 54.8975L2.13754 54.8972L1.13992 54.8282ZM4.45215 67.7556L3.76247 68.4797L3.76279 68.48L4.45215 67.7556ZM55.9487 67.7556L56.6379 68.4801L56.638 68.48L55.9487 67.7556ZM59.4013 58.9613H60.4013V58.9609L59.4013 58.9613ZM53.1203 64.7836L52.4309 64.0591L52.4309 64.0592L53.1203 64.7836ZM7.28052 64.7841L6.59104 65.5084L6.5911 65.5085L7.28052 64.7841ZM5.23187 55.1118L6.22946 55.1812L6.22949 55.1808L5.23187 55.1118ZM5.74457 51.1283L6.72881 51.3051L6.72881 51.3051L5.74457 51.1283ZM6.70107 47.2077L5.74872 46.9027L5.74866 46.9029L6.70107 47.2077ZM8.18895 43.8352L7.31969 43.3408L7.3194 43.3413L8.18895 43.8352ZM10.2146 41.1804L10.9062 41.9027L10.9062 41.9027L10.2146 41.1804ZM12.8491 39.5424L13.2171 40.4723L13.2172 40.4722L12.8491 39.5424ZM16.0797 38.9192L16.549 38.0362L16.3164 37.9125L16.0529 37.9195L16.0797 38.9192ZM16.8936 39.4116L16.3474 40.2492L16.3476 40.2494L16.8936 39.4116ZM19.7833 41.2744L19.2451 42.1171L19.2457 42.1176L19.7833 41.2744ZM24.4195 43.346L24.7272 42.3945L24.7267 42.3943L24.4195 43.346ZM35.9781 43.3465L35.6706 42.3949L35.6705 42.395L35.9781 43.3465ZM40.6169 41.2733L41.1545 42.1165L41.1555 42.1159L40.6169 41.2733ZM43.5046 39.4116L42.9591 38.5734L42.9582 38.574L43.5046 39.4116ZM44.3185 38.9192L44.3452 37.9195L44.0818 37.9125L43.8491 38.0362L44.3185 38.9192ZM47.5501 39.5424L47.9182 38.6126L47.9179 38.6125L47.5501 39.5424ZM50.184 41.1804L49.4927 41.9029L49.4928 41.9029L50.184 41.1804ZM52.2097 43.8357L51.3402 44.3297L51.3405 44.33L52.2097 43.8357ZM53.6981 47.2072L54.6505 46.9023L54.6505 46.9023L53.6981 47.2072ZM54.6552 51.1277L55.6395 50.9516L55.6395 50.9511L54.6552 51.1277ZM55.1679 55.1123H56.1679V55.0777L56.1655 55.0432L55.1679 55.1123ZM55.1679 55.1134H54.1679V55.1485L54.1703 55.1835L55.1679 55.1134ZM55.2992 58.9618L56.2992 58.962V58.9614L55.2992 58.9618ZM29.759 35.7193C34.6568 35.7193 38.9219 33.9524 42.3873 30.4869L40.9731 29.0727C37.8825 32.1633 34.1261 33.7193 29.759 33.7193V35.7193ZM17.1314 30.4876C20.5972 33.9518 24.8622 35.7193 29.759 35.7193V33.7193C25.3931 33.7193 21.6365 32.1629 18.5452 29.0731L17.1314 30.4876ZM11.8988 17.8591C11.8988 22.7575 13.6663 27.0225 17.1312 30.4875L18.5454 29.0733C15.4553 25.9832 13.8988 22.2267 13.8988 17.8591H11.8988ZM17.1312 5.23186C13.6663 8.69676 11.8988 12.9618 11.8988 17.8591H13.8988C13.8988 13.4927 15.4553 9.73619 18.5454 6.64607L17.1312 5.23186ZM29.759 0C24.8607 0 20.5962 1.7669 17.1312 5.23186L18.5454 6.64607C21.6355 3.55601 25.3914 2 29.759 2V0ZM42.3867 5.23121C38.9213 1.7669 34.6562 0 29.759 0V2C34.1255 2 37.8821 3.55601 40.9727 6.64565L42.3867 5.23121ZM47.6192 17.8591C47.6192 12.9624 45.8523 8.69735 42.3869 5.23138L40.9725 6.64548C44.0632 9.73667 45.6192 13.4932 45.6192 17.8591H47.6192ZM42.3874 30.4869C45.8517 27.022 47.6192 22.7575 47.6192 17.8591H45.6192C45.6192 22.2267 44.0627 25.9826 40.9731 29.0728L42.3874 30.4869ZM21.4464 9.54654C23.7739 7.21907 26.4697 6.1021 29.759 6.1021V4.1021C25.9389 4.1021 22.7345 5.43004 20.0322 8.13233L21.4464 9.54654ZM18.0009 17.8591C18.0009 14.571 19.1183 11.8746 21.4464 9.54654L20.0322 8.13233C17.3295 10.835 16.0009 14.04 16.0009 17.8591H18.0009ZM21.4463 26.1722C19.1184 23.8447 18.0009 21.1483 18.0009 17.8591H16.0009C16.0009 21.6793 17.3294 24.8843 20.0323 27.5865L21.4463 26.1722ZM29.759 29.6172C26.471 29.6172 23.775 28.4999 21.4463 26.1721L20.0323 27.5866C22.7355 30.2886 25.9398 31.6172 29.759 31.6172V29.6172ZM38.0721 26.1723C35.7441 28.5003 33.0478 29.6172 29.759 29.6172V31.6172C33.5786 31.6172 36.7835 30.2893 39.4863 27.5865L38.0721 26.1723ZM41.5171 17.8591C41.5171 21.1483 40.3997 23.8442 38.0721 26.1723L39.4864 27.5864C42.1885 24.8837 43.5171 21.6793 43.5171 17.8591H41.5171ZM38.0721 9.54646C40.3997 11.8746 41.5171 14.571 41.5171 17.8591H43.5171C43.5171 14.04 42.1885 10.8351 39.4864 8.1324L38.0721 9.54646ZM29.759 6.1021C33.0478 6.1021 35.7442 7.21908 38.0722 9.54661L39.4863 8.13225C36.7835 5.43003 33.5785 4.1021 29.759 4.1021V6.1021ZM41.1743 55.2857C39.6042 55.2857 38.3314 56.5585 38.3314 58.1286H40.3314C40.3314 57.6631 40.7088 57.2857 41.1743 57.2857V55.2857ZM47.8086 55.2857H41.1743V57.2857H47.8086V55.2857ZM50.6514 58.1286C50.6514 56.5585 49.3786 55.2857 47.8086 55.2857V57.2857C48.2741 57.2857 48.6514 57.6631 48.6514 58.1286H50.6514ZM47.8086 60.9714C49.3786 60.9714 50.6514 59.6986 50.6514 58.1286H48.6514C48.6514 58.5941 48.2741 58.9714 47.8086 58.9714V60.9714ZM41.1743 60.9714H47.8086V58.9714H41.1743V60.9714ZM38.3314 58.1286C38.3314 59.6986 39.6042 60.9714 41.1743 60.9714V58.9714C40.7088 58.9714 40.3314 58.5941 40.3314 58.1286H38.3314ZM57.7083 50.5799C57.9845 52.1216 58.1706 53.5733 58.2622 54.8957L60.2574 54.7575C60.16 53.3519 59.9637 51.8279 59.677 50.2272L57.7083 50.5799ZM56.6524 46.2614C57.0753 47.5823 57.4311 49.0354 57.7084 50.5802L59.6769 50.2269C59.3859 48.6057 59.01 47.066 58.5571 45.6515L56.6524 46.2614ZM54.907 42.3034C55.6348 43.5829 56.2213 44.9156 56.6524 46.2615L58.5571 45.6513C58.0825 44.1699 57.4396 42.7106 56.6454 41.3145L54.907 42.3034ZM52.3287 38.939C53.2914 39.8597 54.1605 40.9895 54.9067 42.3029L56.6456 41.315C55.8142 39.8513 54.829 38.5628 53.711 37.4936L52.3287 38.939ZM48.6914 36.6578C50.1237 37.2255 51.3429 37.9958 52.3286 38.9389L53.7112 37.4938C52.5211 36.3551 51.0764 35.4517 49.4283 34.7985L48.6914 36.6578ZM44.0045 35.8133C45.7111 35.8133 47.2857 36.1017 48.692 36.658L49.4277 34.7983C47.7642 34.1402 45.9369 33.8133 44.0045 33.8133V35.8133ZM41.8098 36.8135C43.1379 35.9488 43.6102 35.8133 44.0045 35.8133V33.8133C42.9696 33.8133 42.0598 34.2642 40.7186 35.1374L41.8098 36.8135ZM38.9481 38.6585C40.0224 37.972 40.9859 37.3508 41.8105 36.8131L40.718 35.1378C39.8998 35.6714 38.9417 36.2892 37.8712 36.9731L38.9481 38.6585ZM35.0235 40.3947C36.6039 39.8842 37.9329 39.3053 38.947 38.6592L37.8723 36.9724C37.0525 37.4948 35.897 38.0108 34.4088 38.4915L35.0235 40.3947ZM30.1985 41.1731C31.8088 41.1731 33.4324 40.9095 35.024 40.3945L34.4083 38.4916C33.0059 38.9454 31.5897 39.1731 30.1985 39.1731V41.1731ZM25.3733 40.3946C26.9657 40.9095 28.5893 41.1731 30.1985 41.1731V39.1731C28.8085 39.1731 27.3923 38.9454 25.9886 38.4916L25.3733 40.3946ZM21.452 38.6593C22.4651 39.3059 23.795 39.8848 25.3736 40.3947L25.9883 38.4915C24.5014 38.0112 23.3458 37.4953 22.5281 36.9734L21.452 38.6593ZM18.587 36.8128C19.4237 37.3579 20.3875 37.979 21.4516 38.659L22.5285 36.9737C21.4681 36.2961 20.5094 35.6782 19.6787 35.137L18.587 36.8128ZM16.3937 35.8128C16.7879 35.8128 17.2602 35.9482 18.5869 36.8127L19.6788 35.1371C18.3384 34.2637 17.4286 33.8128 16.3937 33.8128V35.8128ZM11.7071 36.6584C13.1127 36.1016 14.6867 35.8128 16.3937 35.8128V33.8128C14.4605 33.8128 12.6336 34.1402 10.9706 34.799L11.7071 36.6584ZM8.06959 38.9394C9.05631 37.9953 10.2759 37.225 11.7069 36.6585L10.9707 34.7989C9.32342 35.4511 7.87808 36.3546 6.68691 37.4943L8.06959 38.9394ZM5.49207 42.3028C6.23753 40.9901 7.10663 39.8608 8.06961 38.9394L6.68689 37.4944C5.56918 38.5639 4.58403 39.8517 3.75295 41.3151L5.49207 42.3028ZM3.74682 46.2618C4.17789 44.9153 4.76484 43.583 5.49201 42.3029L3.75301 41.315C2.96026 42.7105 2.31674 44.1692 1.84204 45.6521L3.74682 46.2618ZM2.69136 50.5802C2.96861 49.0355 3.32439 47.5828 3.74691 46.2616L1.84195 45.6524C1.38969 47.0666 1.01381 48.6057 0.722821 50.2269L2.69136 50.5802ZM2.13754 54.8972C2.22921 53.5714 2.41477 52.1193 2.69132 50.5804L0.72286 50.2267C0.435452 51.8259 0.239693 53.3507 0.142305 54.7592L2.13754 54.8972ZM2 58.9618C2 57.5781 2.04627 56.2101 2.13752 54.8975L0.142331 54.7589C0.0477195 56.1198 0 57.5342 0 58.9618H2ZM5.14182 67.0315C3.08058 65.0683 2 62.3884 2 58.9618H0C0 62.8433 1.24257 66.0797 3.76247 68.4797L5.14182 67.0315ZM13.3479 70C9.91833 70 7.18728 68.978 5.14151 67.0312L3.76279 68.48C6.24155 70.8388 9.49622 72 13.3479 72V70ZM47.0534 70H13.3479V72H47.0534V70ZM55.2594 67.0311C53.213 68.978 50.4819 70 47.0534 70V72C50.9041 72 54.1587 70.8388 56.6379 68.4801L55.2594 67.0311ZM58.4013 58.9613C58.4013 62.3892 57.3206 65.0698 55.2593 67.0312L56.638 68.48C59.1589 66.0814 60.4013 62.8436 60.4013 58.9613H58.4013ZM58.2623 54.8965C58.354 56.2051 58.4008 57.5731 58.4013 58.9617L60.4013 58.9609C60.4008 57.5286 60.3525 56.1141 60.2574 54.7567L58.2623 54.8965ZM47.0529 67.8979C49.8293 67.8979 52.0848 67.1497 53.8097 65.5079L52.4309 64.0592C51.1661 65.2629 49.4525 65.8979 47.0529 65.8979V67.8979ZM13.3479 67.8979H47.0529V65.8979H13.3479V67.8979ZM6.5911 65.5085C8.31555 67.1497 10.5711 67.8979 13.3479 67.8979V65.8979C10.9477 65.8979 9.23408 65.2629 7.96993 64.0597L6.5911 65.5085ZM4.1021 58.9618C4.1021 61.6855 4.88008 63.8797 6.59104 65.5084L7.97 64.0598C6.74898 62.8975 6.1021 61.2818 6.1021 58.9618H4.1021ZM4.23429 55.0424C4.14606 56.3102 4.1021 57.6285 4.1021 58.9618H6.1021C6.1021 57.6718 6.14465 56.3999 6.22946 55.1812L4.23429 55.0424ZM4.76033 50.9514C4.49923 52.4046 4.32154 53.781 4.23426 55.0428L6.22949 55.1808C6.31096 54.003 6.47827 52.6995 6.72881 51.3051L4.76033 50.9514ZM5.74866 46.9029C5.35107 48.1451 5.01961 49.5081 4.76032 50.9514L6.72881 51.3051C6.97475 49.936 7.28629 48.6597 7.65347 47.5126L5.74866 46.9029ZM7.3194 43.3413C6.6663 44.4913 6.13755 45.6887 5.74872 46.9027L7.65341 47.5127C7.99838 46.4357 8.47045 45.3644 9.0585 44.329L7.3194 43.3413ZM9.52308 40.458C8.6914 41.2543 7.95267 42.2278 7.31969 43.3408L9.05821 44.3295C9.60977 43.3597 10.234 42.5463 10.9062 41.9027L9.52308 40.458ZM12.4812 38.6126C11.3346 39.0663 10.3331 39.6825 9.52305 40.4581L10.9062 41.9027C11.5029 41.3314 12.2744 40.8453 13.2171 40.4723L12.4812 38.6126ZM16.0529 37.9195C14.773 37.9537 13.5697 38.1817 12.4811 38.6126L13.2172 40.4722C14.0608 40.1383 15.029 39.9476 16.1064 39.9188L16.0529 37.9195ZM17.4398 38.5739C17.0059 38.291 16.7242 38.1293 16.549 38.0362L15.6103 39.8021C15.7224 39.8618 15.9523 39.9916 16.3474 40.2492L17.4398 38.5739ZM20.3216 40.4316C19.2493 39.7467 18.2799 39.1214 17.4395 38.5738L16.3476 40.2494C17.1937 40.8008 18.1683 41.4294 19.2451 42.1171L20.3216 40.4316ZM24.7267 42.3943C22.9163 41.8099 21.4397 41.1445 20.3209 40.4312L19.2457 42.1176C20.5494 42.9487 22.1939 43.6783 24.1123 44.2976L24.7267 42.3943ZM30.1991 43.2752C28.3781 43.2752 26.5378 42.9799 24.7272 42.3945L24.1118 44.2975C26.1133 44.9446 28.1609 45.2752 30.1991 45.2752V43.2752ZM35.6705 42.395C33.8609 42.9799 32.0201 43.2752 30.1991 43.2752V45.2752C32.2372 45.2752 34.2853 44.9446 36.2857 44.298L35.6705 42.395ZM40.0793 40.4301C38.959 41.1444 37.4829 41.8093 35.6706 42.3949L36.2856 44.2981C38.2053 43.6777 39.8492 42.9488 41.1545 42.1165L40.0793 40.4301ZM42.9582 38.574C42.1183 39.1219 41.1763 39.729 40.0784 40.4307L41.1555 42.1159C42.2568 41.412 43.2043 40.8014 44.0509 40.2491L42.9582 38.574ZM43.8491 38.0362C43.6733 38.1296 43.3917 38.2919 42.9591 38.5734L44.05 40.2497C44.4463 39.9918 44.6763 39.8615 44.7879 39.8021L43.8491 38.0362ZM47.9179 38.6125C46.8289 38.1817 45.6257 37.9537 44.3452 37.9195L44.2918 39.9188C45.3697 39.9476 46.338 40.1383 47.1822 40.4723L47.9179 38.6125ZM50.8753 40.4578C50.0657 39.6832 49.0644 39.0664 47.9182 38.6126L47.182 40.4722C48.1239 40.8451 48.8957 41.3317 49.4927 41.9029L50.8753 40.4578ZM53.0792 43.3417C52.4461 42.2274 51.7073 41.2537 50.8753 40.4578L49.4928 41.9029C50.1647 42.5458 50.7888 43.359 51.3402 44.3297L53.0792 43.3417ZM54.6505 46.9023C54.2622 45.6891 53.7327 44.4909 53.079 43.3413L51.3405 44.33C51.9289 45.3648 52.4014 46.4363 52.7457 47.5121L54.6505 46.9023ZM55.6395 50.9511C55.3806 49.5083 55.0486 48.1458 54.6505 46.9023L52.7457 47.5121C53.1135 48.6611 53.4256 49.9369 53.6709 51.3043L55.6395 50.9511ZM56.1655 55.0432C56.0782 53.7834 55.8999 52.4067 55.6395 50.9516L53.6708 51.3039C53.921 52.7017 54.0888 54.006 54.1703 55.1815L56.1655 55.0432ZM56.1679 55.1134V55.1123H54.1679V55.1134H56.1679ZM56.2992 58.9614C56.2987 57.6244 56.2542 56.3066 56.1654 55.0433L54.1703 55.1835C54.2556 56.3972 54.2987 57.6684 54.2992 58.9622L56.2992 58.9614ZM53.8096 65.508C55.5207 63.8798 56.2987 61.686 56.2992 58.962L54.2992 58.9616C54.2987 61.2823 53.6518 62.8974 52.4309 64.0591L53.8096 65.508Z" fill="#232323"/>
</svg>
