<svg width="84" height="81" viewBox="0 0 84 81" fill="none" xmlns="http://www.w3.org/2000/svg">
<path fill-rule="evenodd" clip-rule="evenodd" d="M77.0973 19.1586H51.3984L60.5238 4.18566C61.3151 2.88753 60.904 1.19377 59.6059 0.402678C58.3079 -0.388784 56.614 0.0224535 55.8229 1.32058L44.9515 19.1586H38.1771L27.3057 1.32058C26.5146 0.0228205 24.8208 -0.388233 23.5227 0.402678C22.2246 1.19396 21.8135 2.88753 22.6048 4.18566L31.7302 19.1586H6.03093C2.70543 19.1586 0 21.8641 0 25.1894V74.9693C0 78.2946 2.70543 81 6.03093 81H77.0975C80.423 81 83.1284 78.2946 83.1284 74.9693V25.1894C83.1282 21.8641 80.4228 19.1586 77.0973 19.1586ZM78.5642 75.5417C78.564 75.8381 78.3221 76.0793 78.0246 76.0793H5.10367C4.80617 76.0793 4.56421 75.8381 4.56421 75.5417V24.617C4.56421 24.3206 4.80617 24.0793 5.10367 24.0793H78.0247C78.3223 24.0793 78.5642 24.3206 78.5642 24.617V75.5417ZM51.2969 33H16.7032C15.2104 33 14 34.1921 14 35.6623V64.3376C14 65.8079 15.2102 67 16.7032 67H51.2968C52.7896 67 54 65.8079 54 64.3376V35.6623C54 34.1919 52.7898 33 51.2969 33ZM51 64H17V36H51V64ZM67.0426 33.4721C63.9059 33.4721 61.3539 36.024 61.3539 39.1608C61.3539 42.2977 63.9059 44.8495 67.0426 44.8495C70.1792 44.8495 72.7313 42.2977 72.7313 39.1608C72.7313 36.024 70.1792 33.4721 67.0426 33.4721ZM61.3539 60.998C61.3539 57.8612 63.9059 55.3093 67.0426 55.3093C70.1792 55.3093 72.7313 57.8612 72.7313 60.998C72.7313 64.1349 70.1792 66.6867 67.0426 66.6867C63.9059 66.6867 61.3539 64.1349 61.3539 60.998Z" fill="white"/>
</svg>
