<svg width="68" height="81" viewBox="0 0 68 81" fill="none" xmlns="http://www.w3.org/2000/svg">
<path fill-rule="evenodd" clip-rule="evenodd" d="M23.5231 17.1918V55.8547C21.0309 53.7324 17.8008 52.4516 14.2742 52.4516C6.38908 52.4516 0 58.849 0 66.7258C0 74.6109 6.38908 81 14.2742 81C22.1593 81 28.5484 74.6109 28.5484 66.7258C28.5484 66.2039 28.5203 65.6886 28.4657 65.1812V35.4129L63.0395 21.5646V49.849C60.8745 48.145 58.1422 47.1288 55.1709 47.1288C48.1371 47.1288 42.4423 52.8318 42.4423 59.8573C42.4423 66.8911 48.1454 72.5859 55.1709 72.5859C62.2047 72.5859 67.8995 66.8829 67.8995 59.8573C67.8995 59.5713 67.8901 59.2874 67.8715 59.006H67.9821V0L23.5231 17.1918ZM63.0395 16.2423V7.20735L28.4657 20.5723V30.0907L63.0395 16.2423ZM14.2742 57.386C18.9806 57.386 22.8861 60.8868 23.5231 65.4207V66.42H23.609C23.6123 66.5215 23.614 66.6235 23.614 66.7258C23.614 71.8751 19.4235 76.0656 14.2742 76.0656C9.1249 76.0656 4.93439 71.8751 4.93439 66.7258C4.93439 61.5765 9.1249 57.386 14.2742 57.386ZM55.1709 51.8069C59.0244 51.8069 62.2549 54.5295 63.0395 58.1519V59.006H63.1766C63.2062 59.2858 63.2213 59.5699 63.2213 59.8573C63.2213 64.2958 59.6094 67.9078 55.1709 67.9078C50.7325 67.9078 47.1205 64.2958 47.1205 59.8573C47.1205 55.4189 50.7242 51.8069 55.1709 51.8069Z" fill="white"/>
</svg>
