<svg width="83" height="83" viewBox="0 0 83 83" fill="none" xmlns="http://www.w3.org/2000/svg">
<path fill-rule="evenodd" clip-rule="evenodd" d="M75.2499 1H7.75005C3.96995 1 1 3.96995 1 7.75005V75.2501C1 79.0301 3.96995 82 7.75005 82H38.8001H55.0001H75.2501C79.0301 82 82 79.0301 82 75.2499V7.75005C82 3.96995 79.0301 1 75.2499 1ZM41.5 79.2999V52.3001H30.6999V41.5H41.5V32.0501C41.5 24.3551 47.4401 17.8751 54.9999 17.2H67.1499V28.0001H56.3499C54.0548 28.0001 52.2999 29.755 52.2999 32.0501V41.5H65.8V52.3001H52.3001V79.3001H41.5V79.2999ZM75.2499 79.2999C77.545 79.2999 79.2999 77.545 79.2999 75.2499H79.3001V7.75005C79.3001 5.455 77.5452 3.70005 75.2501 3.70005H7.75005C5.455 3.70005 3.70005 5.455 3.70005 7.75005V75.2499C3.70005 77.545 5.455 79.2999 7.75005 79.2999H38.7999V55H27.9999V38.7999H38.7999V32.0499C38.7999 23.0049 45.8201 15.3099 54.865 14.4999H69.85V30.6999H56.3499C55.5399 30.6999 55 31.2399 55 32.0499V38.7999H68.4999V55H55V79.2999H75.2499Z" fill="white"/>
<path d="M41.5 52.3001H42V51.8001H41.5V52.3001ZM30.6999 52.3001H30.1999V52.8001H30.6999V52.3001ZM30.6999 41.5V41H30.1999V41.5H30.6999ZM41.5 41.5V42H42V41.5H41.5ZM54.9999 17.2V16.7H54.9777L54.9555 16.702L54.9999 17.2ZM67.1499 17.2H67.6499V16.7H67.1499V17.2ZM67.1499 28.0001V28.5001H67.6499V28.0001H67.1499ZM52.2999 41.5H51.7999V42H52.2999V41.5ZM65.8 41.5H66.3V41H65.8V41.5ZM65.8 52.3001V52.8001H66.3V52.3001H65.8ZM52.3001 52.3001V51.8001H51.8001V52.3001H52.3001ZM52.3001 79.3001V79.8001H52.8001V79.3001H52.3001ZM41.5 79.3001H41V79.8001H41.5V79.3001ZM79.2999 75.2499V74.7499H78.7999V75.2499H79.2999ZM79.3001 75.2499V75.7499H79.8001V75.2499H79.3001ZM38.7999 79.2999V79.7999H39.2999V79.2999H38.7999ZM38.7999 55H39.2999V54.5H38.7999V55ZM27.9999 55H27.4999V55.5H27.9999V55ZM27.9999 38.7999V38.2999H27.4999V38.7999H27.9999ZM38.7999 38.7999V39.2999H39.2999V38.7999H38.7999ZM54.865 14.4999V13.9999H54.8427L54.8204 14.0019L54.865 14.4999ZM69.85 14.4999H70.35V13.9999H69.85V14.4999ZM69.85 30.6999V31.1999H70.35V30.6999H69.85ZM55 38.7999H54.5V39.2999H55V38.7999ZM68.4999 38.7999H68.9999V38.2999H68.4999V38.7999ZM68.4999 55V55.5H68.9999V55H68.4999ZM55 55V54.5H54.5V55H55ZM55 79.2999H54.5V79.7999H55V79.2999ZM7.75005 1.5H75.2499V0.5H7.75005V1.5ZM1.5 7.75005C1.5 4.24609 4.24609 1.5 7.75005 1.5V0.5C3.69381 0.5 0.5 3.69381 0.5 7.75005H1.5ZM1.5 75.2501V7.75005H0.5V75.2501H1.5ZM7.75005 81.5C4.24608 81.5 1.5 78.7539 1.5 75.2501H0.5C0.5 79.3062 3.69381 82.5 7.75005 82.5V81.5ZM38.8001 81.5H7.75005V82.5H38.8001V81.5ZM55.0001 81.5H38.8001V82.5H55.0001V81.5ZM75.2501 81.5H55.0001V82.5H75.2501V81.5ZM81.5 75.2499C81.5 78.7539 78.7539 81.5 75.2501 81.5V82.5C79.3062 82.5 82.5 79.3062 82.5 75.2499H81.5ZM81.5 7.75005V75.2499H82.5V7.75005H81.5ZM75.2499 1.5C78.7539 1.5 81.5 4.24609 81.5 7.75005H82.5C82.5 3.69381 79.3062 0.5 75.2499 0.5V1.5ZM41 52.3001V79.2999H42V52.3001H41ZM30.6999 52.8001H41.5V51.8001H30.6999V52.8001ZM30.1999 41.5V52.3001H31.1999V41.5H30.1999ZM41.5 41H30.6999V42H41.5V41ZM41 32.0501V41.5H42V32.0501H41ZM54.9555 16.702C47.1361 17.4002 41 24.0978 41 32.0501H42C42 24.6123 47.744 18.3499 55.0444 17.698L54.9555 16.702ZM67.1499 16.7H54.9999V17.7H67.1499V16.7ZM67.6499 28.0001V17.2H66.6499V28.0001H67.6499ZM56.3499 28.5001H67.1499V27.5001H56.3499V28.5001ZM52.7999 32.0501C52.7999 30.0311 54.331 28.5001 56.3499 28.5001V27.5001C53.7787 27.5001 51.7999 29.4789 51.7999 32.0501H52.7999ZM52.7999 41.5V32.0501H51.7999V41.5H52.7999ZM65.8 41H52.2999V42H65.8V41ZM66.3 52.3001V41.5H65.3V52.3001H66.3ZM52.3001 52.8001H65.8V51.8001H52.3001V52.8001ZM52.8001 79.3001V52.3001H51.8001V79.3001H52.8001ZM41.5 79.8001H52.3001V78.8001H41.5V79.8001ZM41 79.2999V79.3001H42V79.2999H41ZM78.7999 75.2499C78.7999 77.2689 77.2689 78.7999 75.2499 78.7999V79.7999C77.8211 79.7999 79.7999 77.8211 79.7999 75.2499H78.7999ZM79.3001 74.7499H79.2999V75.7499H79.3001V74.7499ZM78.8001 7.75005V75.2499H79.8001V7.75005H78.8001ZM75.2501 4.20005C77.269 4.20005 78.8001 5.73114 78.8001 7.75005H79.8001C79.8001 5.17886 77.8213 3.20005 75.2501 3.20005V4.20005ZM7.75005 4.20005H75.2501V3.20005H7.75005V4.20005ZM4.20005 7.75005C4.20005 5.73114 5.73114 4.20005 7.75005 4.20005V3.20005C5.17886 3.20005 3.20005 5.17886 3.20005 7.75005H4.20005ZM4.20005 75.2499V7.75005H3.20005V75.2499H4.20005ZM7.75005 78.7999C5.73114 78.7999 4.20005 77.2689 4.20005 75.2499H3.20005C3.20005 77.8211 5.17886 79.7999 7.75005 79.7999V78.7999ZM38.7999 78.7999H7.75005V79.7999H38.7999V78.7999ZM38.2999 55V79.2999H39.2999V55H38.2999ZM27.9999 55.5H38.7999V54.5H27.9999V55.5ZM27.4999 38.7999V55H28.4999V38.7999H27.4999ZM38.7999 38.2999H27.9999V39.2999H38.7999V38.2999ZM38.2999 32.0499V38.7999H39.2999V32.0499H38.2999ZM54.8204 14.0019C45.5176 14.835 38.2999 22.7461 38.2999 32.0499H39.2999C39.2999 23.2638 46.1225 15.7849 54.9096 14.998L54.8204 14.0019ZM69.85 13.9999H54.865V14.9999H69.85V13.9999ZM70.35 30.6999V14.4999H69.35V30.6999H70.35ZM56.3499 31.1999H69.85V30.1999H56.3499V31.1999ZM55.5 32.0499C55.5 31.7585 55.5949 31.5546 55.7247 31.4247C55.8546 31.2949 56.0585 31.1999 56.3499 31.1999V30.1999C55.8313 30.1999 55.3603 30.375 55.0176 30.7176C54.675 31.0603 54.5 31.5313 54.5 32.0499H55.5ZM55.5 38.7999V32.0499H54.5V38.7999H55.5ZM68.4999 38.2999H55V39.2999H68.4999V38.2999ZM68.9999 55V38.7999H67.9999V55H68.9999ZM55 55.5H68.4999V54.5H55V55.5ZM55.5 79.2999V55H54.5V79.2999H55.5ZM75.2499 78.7999H55V79.7999H75.2499V78.7999Z" fill="white"/>
</svg>
