<svg width="108" height="82" viewBox="0 0 108 82" fill="none" xmlns="http://www.w3.org/2000/svg">
<path fill-rule="evenodd" clip-rule="evenodd" d="M49.4667 9.55319C50.7491 6.94564 52.9991 5.36926 57.2872 4.10771C58.142 3.85741 59.0863 3.55477 60.0252 3.25389C63.6578 2.08977 67.2082 0.951958 65.1702 2.97343C63.1726 4.96996 61.1344 6.12618 58.1067 6.98842C53.9863 8.14465 52.3047 9.38535 51.8 11.6133C51.4852 13.001 51.7792 14.9767 52.5153 16.5959L53.0199 17.7313L56.9932 17.8574C61.5337 18.0044 65.0243 18.3829 70.4687 19.266C85.9209 21.8307 97.7564 27.4232 103.371 34.8224C104.758 36.6511 106.357 39.9728 106.924 42.18C107.513 44.5341 107.66 49.328 107.344 55.0038C106.546 68.9005 103.834 77.2673 99.1035 80.4212C97.401 81.5566 96.1186 81.9142 93.7216 81.9142C89.1384 81.9142 85.481 80.5056 82.2219 77.4779C80.3723 75.7546 79.0263 73.9039 75.8099 68.6066C74.4222 66.3149 72.8239 63.8544 72.2776 63.1402C68.3251 57.9679 63.7847 55.6138 56.5314 54.983C50.2873 54.4367 44.527 55.6346 40.4067 58.2838C36.9797 60.5118 35.1718 62.5303 30.5886 69.2999C26.0679 75.9641 24.4915 77.7719 21.5482 79.6434C17.8492 81.9987 12.7822 82.6294 9.71278 81.1156C3.76269 78.1943 0.0416858 65.7697 0 48.8036C0 44.2412 0.0416858 43.5688 0.462931 41.9079C2.37499 34.4659 7.31585 29.0632 16.1456 24.8365C23.6929 21.2208 33.7841 18.8875 45.7249 18.0044L45.9967 17.986C47.4554 17.8872 48.8336 17.7938 49.1311 17.7938H49.6982L49.2572 16.5751C48.8996 15.6492 48.7943 14.8714 48.7943 13.1689C48.7734 11.067 48.8151 10.8773 49.4667 9.55319ZM102.928 44.1787C100.952 32.8479 86.6987 25.0899 63.1737 22.5251C60.2513 22.2092 50.5177 21.9569 47.6172 22.1258C29.915 23.1768 17.0286 27.172 10.1329 33.7518C6.93739 36.8003 5.31822 39.7008 4.49877 43.8639C4.37262 44.4946 4.28815 46.9124 4.28815 49.2249C4.32983 61.7756 6.3483 71.971 9.56469 75.861C10.4061 76.891 12.1086 77.7105 13.3702 77.7105C16.818 77.7105 20.1189 76.0277 22.7034 72.9177C23.355 72.1389 25.0367 69.8056 26.4244 67.7246C29.8514 62.6159 31.0076 61.1229 33.1095 58.9157C37.1672 54.6901 41.6035 52.2723 47.5316 51.0744C50.1798 50.5489 57.4331 50.5489 60.124 51.0952C65.8427 52.2306 69.4583 54.101 73.2638 57.9273C75.5554 60.2398 77.2163 62.4897 79.8864 66.9885C83.0402 72.2859 84.8481 74.5139 87.1605 75.8807C89.1998 77.0797 91.0494 77.5843 93.5516 77.6052C95.4856 77.6052 95.7379 77.5624 96.6418 77.0369C99.6268 75.2719 101.497 70.4144 102.612 61.5222C103.054 57.9273 103.264 46.1335 102.928 44.1787Z" fill="white"/>
<path d="M85.3538 35.6437C83.987 36.2537 82.936 37.83 82.936 39.2386C82.936 39.9527 83.399 41.1517 83.9244 41.7617C86.6154 44.9572 91.9336 42.4133 90.9254 38.4191C90.2727 35.8544 87.708 34.572 85.3538 35.6437Z" fill="white"/>
<path d="M18.9211 37.8086C18.0589 38.2704 17.7649 38.8803 17.7649 40.1847C17.7649 42.5596 16.9026 43.401 14.4432 43.4219C13.8333 43.4427 13.14 43.548 12.9085 43.6533C12.236 44.0318 11.8784 44.9983 11.8784 46.5121C11.8784 47.8153 11.9201 47.9415 12.5937 48.614C13.2453 49.2656 13.4131 49.3292 14.5693 49.3292C15.2846 49.3292 16.0832 49.4137 16.3772 49.5398C17.2603 49.8766 17.7649 50.9275 17.7649 52.4194C17.7649 53.5757 17.8494 53.828 18.3748 54.4171C18.9639 55.0895 19.0264 55.1104 20.7081 55.1104C22.3898 55.1104 22.4534 55.0895 23.0414 54.4171C23.5669 53.828 23.6514 53.5757 23.6514 52.4194C23.6514 50.9264 24.156 49.8755 25.0391 49.5398C25.333 49.4137 26.1317 49.3292 26.8469 49.3292C28.0031 49.3292 28.171 49.2667 28.8226 48.614C29.495 47.9415 29.5378 47.8153 29.5378 46.5121C29.5378 44.9983 29.1802 44.0318 28.5077 43.6533C28.2763 43.548 27.583 43.4427 26.9731 43.4219C24.5136 43.401 23.6514 42.5596 23.6514 40.1847C23.6514 38.8606 23.3365 38.2507 22.4534 37.7877C21.8644 37.4937 19.4674 37.4937 18.9211 37.8086Z" fill="white"/>
<path d="M47.4704 37.8727C46.2297 38.3981 46.0202 39.5544 46.9658 40.5219L47.5758 41.1318H52.3477H57.1196L57.7295 40.5219C58.6543 39.5763 58.4865 38.4826 57.2885 37.8727C56.4471 37.4306 48.4797 37.4306 47.4704 37.8727Z" fill="white"/>
<path d="M77.8899 43.0643C76.5658 43.7576 75.7453 44.8722 75.6191 46.1337C75.3877 48.6985 77.0485 50.5908 79.5716 50.5908C81.8632 50.5908 83.5658 48.93 83.5658 46.7228C83.5658 44.9994 82.7463 43.7379 81.148 43.0018C80.0345 42.4753 79.0045 42.4972 77.8899 43.0643Z" fill="white"/>
<path d="M93.342 43.0017C90.2518 44.3894 90.084 48.615 93.0272 50.1914C94.0156 50.7377 95.739 50.7168 96.8118 50.1705C99.1879 48.9507 99.5653 45.4611 97.5479 43.6741C96.3061 42.6013 94.7714 42.349 93.342 43.0017Z" fill="white"/>
<path d="M85.8573 50.4653C83.0819 51.4745 82.1363 54.3541 83.818 56.7511C84.4279 57.5925 85.7937 58.2441 87.0344 58.2441C90.5667 58.2649 92.3745 53.8287 89.8098 51.412C88.738 50.4017 87.098 50.0024 85.8573 50.4653Z" fill="white"/>
</svg>
