<svg width="81" height="81" viewBox="0 0 81 81" fill="none" xmlns="http://www.w3.org/2000/svg">
<path fill-rule="evenodd" clip-rule="evenodd" d="M58.2208 81H78.4708C79.8677 81 81 79.8677 81 78.4708V12.6542C81 11.2573 79.8677 10.125 78.4708 10.125H60.75V2.52918C60.75 1.13235 59.6177 0 58.2208 0H2.52918C1.13235 0 0 1.13235 0 2.52918V78.4708C0 79.8677 1.13235 81 2.52918 81H58.2208ZM60.75 15.1916H75.9334V75.9416H63.2792H60.75H55.6834H53.1542H5.05837V5.06663H55.6834V12.6542V60.75H60.75V15.1916ZM15.1916 60.75H45.5666V65.8166H15.1916V60.75ZM45.5666 45.5666H15.1916V50.6333H45.5666V45.5666Z" fill="white"/>
<rect x="17.458" y="20.5498" width="26.2977" height="13.313" stroke="white" stroke-width="4"/>
</svg>
