<?xml version="1.0" encoding="UTF-8"?>
<svg width="24px" height="18px" viewBox="0 0 24 18" version="1.1" xmlns="http://www.w3.org/2000/svg" xmlns:xlink="http://www.w3.org/1999/xlink">
    <!-- Generator: Sketch 60.1 (88133) - https://sketch.com -->
    <title>Combined Shape</title>
    <desc>Created with Sketch.</desc>
    <g id="Page-1" stroke="none" stroke-width="1" fill="none" fill-rule="evenodd">
        <g id="personal-info-mobile" transform="translate(-333.000000, -44.000000)" fill="#232323" fill-rule="nonzero">
            <path d="M355.5,58.4 C356.328427,58.4 357,59.0715729 357,59.9 L357,60.5 C357,61.3284271 356.328427,62 355.5,62 L334.5,62 C333.671573,62 333,61.3284271 333,60.5 L333,59.9 C333,59.0715729 333.671573,58.4 334.5,58.4 L355.5,58.4 Z M355.5,51.2 C356.328427,51.2 357,51.8715729 357,52.7 L357,53.3 C357,54.1284271 356.328427,54.8 355.5,54.8 L334.5,54.8 C333.671573,54.8 333,54.1284271 333,53.3 L333,52.7 C333,51.8715729 333.671573,51.2 334.5,51.2 L355.5,51.2 Z M355.5,44 C356.328427,44 357,44.6715729 357,45.5 L357,46.1 C357,46.9284271 356.328427,47.6 355.5,47.6 L334.5,47.6 C333.671573,47.6 333,46.9284271 333,46.1 L333,45.5 C333,44.6715729 333.671573,44 334.5,44 L355.5,44 Z" id="Combined-Shape"></path>
        </g>
    </g>
</svg>