<svg width="18" height="25" viewBox="0 0 18 25" fill="none" xmlns="http://www.w3.org/2000/svg">
<path fill-rule="evenodd" clip-rule="evenodd" d="M16.6308 8.15962C15.8409 6.53957 14.4846 5.63201 13.1719 4.75373L13.1692 4.75192C12.1904 4.09615 11.2673 3.47692 10.6135 2.59038L10.4923 2.42692L10.4833 2.41478L10.4833 2.41477C10.1009 1.90044 9.6687 1.31922 9.60192 0.830769C9.59857 0.807311 9.58938 0.786448 9.58 0.765165L9.58 0.765154C9.57323 0.749801 9.56637 0.73423 9.56154 0.717308C9.54423 0.65 9.525 0.586538 9.49423 0.525C9.47115 0.475 9.43846 0.430769 9.40385 0.384615L9.40096 0.38091C9.36162 0.330316 9.32381 0.281685 9.275 0.240385C9.23393 0.204247 9.19006 0.177931 9.14458 0.15065L9.12115 0.136538L9.11788 0.134647C9.06913 0.106517 9.02378 0.0803482 8.96923 0.0615385C8.90192 0.0365385 8.83269 0.0269231 8.75961 0.0192308C8.74257 0.0183339 8.72679 0.0140908 8.71089 0.00981774L8.71089 0.00981704C8.6927 0.00492802 8.67437 0 8.65385 0C8.64104 0 8.62942 0.00355138 8.618 0.00704201C8.60884 0.00984325 8.5998 0.0126054 8.59038 0.0134615C8.57971 0.0143508 8.56945 0.0127727 8.55922 0.0111994L8.55922 0.0111991C8.54733 0.00937022 8.53548 0.00754789 8.52308 0.00961538C8.49808 0.0130235 8.47645 0.0224717 8.4546 0.032013L8.45459 0.0320146C8.43946 0.0386241 8.42422 0.0452782 8.40769 0.05C8.34231 0.0673077 8.28077 0.0846154 8.22308 0.115385C8.16923 0.142308 8.12308 0.176923 8.07692 0.215385C8.02692 0.253846 7.97885 0.292308 7.93846 0.340385C7.90025 0.384055 7.87237 0.431169 7.84341 0.480098L7.83846 0.488462C7.80769 0.542308 7.77885 0.594231 7.75769 0.653846C7.73654 0.713462 7.72885 0.775 7.72115 0.840385C7.71815 0.852415 7.7142 0.864446 7.71019 0.876654C7.70139 0.903472 7.69231 0.931143 7.69231 0.961538V18.0962C6.88654 17.6077 5.89423 17.3077 4.80769 17.3077C2.15577 17.3077 0 19.0327 0 21.1538C0 23.275 2.15577 25 4.80769 25C7.45962 25 9.61539 23.275 9.61539 21.1538V9.94615C11.0596 10.4981 13.4231 11.9038 14.0731 15.1865C14.0425 15.2317 14.0123 15.2778 13.9821 15.324L13.982 15.324C13.8925 15.4607 13.8026 15.598 13.7019 15.7115C13.35 16.1096 13.3904 16.7173 13.7885 17.0673C13.9712 17.2288 14.1981 17.3077 14.4231 17.3077C14.6904 17.3077 14.9538 17.1962 15.1442 16.9808C15.4 16.6904 15.6288 16.3462 15.8481 15.9923C15.8731 15.9615 15.8923 15.9327 15.9135 15.9C16.6904 14.6 17.2058 12.9558 17.3038 11.3308C17.3673 10.2865 17.1346 9.19038 16.6308 8.15962ZM4.80769 23.0769C3.24423 23.0769 1.92308 22.1962 1.92308 21.1538C1.92308 20.1115 3.24423 19.2308 4.80769 19.2308C6.37115 19.2308 7.69231 20.1115 7.69231 21.1538C7.69231 22.1962 6.37115 23.0769 4.80769 23.0769ZM15.1923 12.55C15.2904 12.1096 15.3596 11.6596 15.3865 11.2096C15.4288 10.5096 15.2596 9.72308 14.9058 9.00192C14.3423 7.84615 13.2538 7.11731 12.1019 6.34615C11.2442 5.77308 10.3692 5.17115 9.61539 4.36731V7.9C11.3885 8.42308 13.8404 9.83654 15.1923 12.55Z" fill="#232323"/>
</svg>
