<svg width="59" height="70" viewBox="0 0 59 70" fill="none" xmlns="http://www.w3.org/2000/svg">
<path fill-rule="evenodd" clip-rule="evenodd" d="M20.3286 14.8571V48.2695C18.1749 46.4354 15.3834 45.3286 12.3357 45.3286C5.52143 45.3286 0 50.8571 0 57.6643C0 64.4786 5.52143 70 12.3357 70C19.15 70 24.6714 64.4786 24.6714 57.6643C24.6714 57.2133 24.6472 56.7679 24.6 56.3294V30.6038L54.4786 18.636V43.0794C52.6076 41.6068 50.2463 40.7286 47.6786 40.7286C41.6 40.7286 36.6786 45.6571 36.6786 51.7286C36.6786 57.8071 41.6071 62.7286 47.6786 62.7286C53.7571 62.7286 58.6786 57.8 58.6786 51.7286C58.6786 51.4813 58.6704 51.236 58.6544 50.9929H58.75V0L20.3286 14.8571ZM54.4786 14.0366V6.22857L24.6 17.7786V26.0043L54.4786 14.0366ZM12.3357 49.5929C16.403 49.5929 19.7781 52.6182 20.3286 56.5364V57.4H20.4029C20.4057 57.4878 20.4071 57.5759 20.4071 57.6643C20.4071 62.1143 16.7857 65.7357 12.3357 65.7357C7.88571 65.7357 4.26429 62.1143 4.26429 57.6643C4.26429 53.2143 7.88571 49.5929 12.3357 49.5929ZM47.6786 44.7714C51.0088 44.7714 53.8005 47.1243 54.4786 50.2548V50.9929H54.5971C54.6226 51.2347 54.6357 51.4801 54.6357 51.7286C54.6357 55.5643 51.5143 58.6857 47.6786 58.6857C43.8429 58.6857 40.7214 55.5643 40.7214 51.7286C40.7214 47.8929 43.8357 44.7714 47.6786 44.7714Z" fill="#232323"/>
</svg>
