<svg width="33" height="32" viewBox="0 0 33 32" fill="none" xmlns="http://www.w3.org/2000/svg">
<path fill-rule="evenodd" clip-rule="evenodd" d="M19.5963 1.17219C19.2251 0.995119 18.7877 1.04205 18.4677 1.30019L8.0912 9.60099H3.13333C1.95787 9.60099 1 10.5589 1 11.7343V20.2677C1 21.4431 1.95787 22.401 3.13333 22.401H8.0912L18.4656 30.7018C18.6597 30.8554 18.8965 30.9343 19.1333 30.9343C19.2912 30.9343 19.4491 30.9002 19.5963 30.8298C19.9653 30.6506 20.2 30.2773 20.2 29.8677V2.13432C20.2 1.72472 19.9653 1.35139 19.5963 1.17219ZM7.4 20.2677H3.13333V11.7343H7.4V20.2677ZM9.53333 20.8202L18.0667 27.6469V4.35512L9.53333 11.1818V20.8202Z" fill="white"/>
<path d="M18.4677 1.30019L18.7801 1.69063L18.7817 1.68935L18.4677 1.30019ZM19.5963 1.17219L19.8147 0.722391L19.8115 0.720899L19.5963 1.17219ZM8.0912 9.60099V10.101H8.26658L8.40354 9.99143L8.0912 9.60099ZM8.0912 22.401L8.40358 22.0106L8.26661 21.901H8.0912V22.401ZM18.4656 30.7018L18.1532 31.0922L18.1554 31.0939L18.4656 30.7018ZM19.5963 30.8298L19.812 31.2809L19.8147 31.2796L19.5963 30.8298ZM3.13333 20.2677H2.63333V20.7677H3.13333V20.2677ZM7.4 20.2677V20.7677H7.9V20.2677H7.4ZM3.13333 11.7343V11.2343H2.63333V11.7343H3.13333ZM7.4 11.7343H7.9V11.2343H7.4V11.7343ZM18.0667 27.6469L17.7543 28.0373L18.5667 28.6872V27.6469H18.0667ZM9.53333 20.8202H9.03333V21.0605L9.22099 21.2106L9.53333 20.8202ZM18.0667 4.35512H18.5667V3.31481L17.7543 3.96468L18.0667 4.35512ZM9.53333 11.1818L9.22099 10.7914L9.03333 10.9415V11.1818H9.53333ZM18.7817 1.68935C18.9485 1.55478 19.1795 1.52734 19.381 1.62347L19.8115 0.720899C19.2707 0.462902 18.627 0.529329 18.1538 0.91102L18.7817 1.68935ZM8.40354 9.99143L18.7801 1.69063L18.1554 0.909743L7.77886 9.21054L8.40354 9.99143ZM3.13333 10.101H8.0912V9.10099H3.13333V10.101ZM1.5 11.7343C1.5 10.835 2.23401 10.101 3.13333 10.101V9.10099C1.68172 9.10099 0.5 10.2827 0.5 11.7343H1.5ZM1.5 20.2677V11.7343H0.5V20.2677H1.5ZM3.13333 21.901C2.23401 21.901 1.5 21.167 1.5 20.2677H0.5C0.5 21.7193 1.68172 22.901 3.13333 22.901V21.901ZM8.0912 21.901H3.13333V22.901H8.0912V21.901ZM18.778 30.3114L8.40358 22.0106L7.77882 22.7914L18.1532 31.0922L18.778 30.3114ZM19.1333 30.4343C19.007 30.4343 18.88 30.3921 18.7758 30.3097L18.1554 31.0939C18.4395 31.3187 18.7861 31.4343 19.1333 31.4343V30.4343ZM19.3805 30.3787C19.3027 30.4159 19.2188 30.4343 19.1333 30.4343V31.4343C19.3636 31.4343 19.5954 31.3844 19.812 31.2809L19.3805 30.3787ZM19.7 29.8677C19.7 30.0848 19.5756 30.284 19.3779 30.38L19.8147 31.2796C20.3551 31.0172 20.7 30.4697 20.7 29.8677H19.7ZM19.7 2.13432V29.8677H20.7V2.13432H19.7ZM19.3779 1.62197C19.5756 1.71795 19.7 1.91716 19.7 2.13432H20.7C20.7 1.53228 20.3551 0.984819 19.8147 0.722402L19.3779 1.62197ZM3.13333 20.7677H7.4V19.7677H3.13333V20.7677ZM2.63333 11.7343V20.2677H3.63333V11.7343H2.63333ZM7.4 11.2343H3.13333V12.2343H7.4V11.2343ZM7.9 20.2677V11.7343H6.9V20.2677H7.9ZM18.379 27.2564L9.84568 20.4298L9.22099 21.2106L17.7543 28.0373L18.379 27.2564ZM17.5667 4.35512V27.6469H18.5667V4.35512H17.5667ZM9.84568 11.5722L18.379 4.74555L17.7543 3.96468L9.22099 10.7914L9.84568 11.5722ZM10.0333 20.8202V11.1818H9.03333V20.8202H10.0333Z" fill="white"/>
<path d="M24.6018 8.457C24.1815 8.041 23.5074 8.0474 23.0935 8.46553C22.6797 8.8858 22.6839 9.55993 23.1021 9.9738C24.7127 11.5674 25.6002 13.7071 25.6002 16.0005C25.6002 18.2938 24.7127 20.4335 23.1021 22.0271C22.6818 22.441 22.6775 23.1151 23.0935 23.5354C23.3026 23.7466 23.5778 23.8511 23.8509 23.8511C24.1218 23.8511 24.3927 23.7487 24.6018 23.5418C26.6221 21.5471 27.7335 18.8698 27.7335 16.0005C27.7335 13.1311 26.6221 10.4538 24.6018 8.457Z" fill="white"/>
<path d="M28.6096 5.45139C28.1914 5.03752 27.5152 5.03965 27.1013 5.45779C26.6874 5.87592 26.6896 6.55219 27.1077 6.96605C29.5312 9.37032 30.8666 12.5789 30.8666 16.0007C30.8666 19.4226 29.5312 22.6311 27.1077 25.0354C26.6896 25.4493 26.6874 26.1255 27.1013 26.5437C27.3104 26.7549 27.5834 26.8594 27.8586 26.8594C28.1296 26.8594 28.4005 26.757 28.6096 26.5501C31.4405 23.7426 33 19.9965 33 16.0007C33 12.005 31.4405 8.25885 28.6096 5.45139Z" fill="white"/>
</svg>
