<svg width="66" height="70" viewBox="0 0 66 70" fill="none" xmlns="http://www.w3.org/2000/svg">
<path fill-rule="evenodd" clip-rule="evenodd" d="M10.9357 39.3786V0H65.6286V61.25C65.6286 66.0786 61.7071 70 56.8786 70H15.3143H10.9357H8.75C3.92143 70 0 63.8929 0 59.0643V39.3786H10.9357ZM7.65714 63.4429C10.0643 63.4429 10.9357 61.4714 10.9357 59.0643H10.9429V43.75H4.37857V59.0643C4.37857 61.4786 5.24286 63.4429 7.65714 63.4429ZM61.25 61.25C61.25 63.6571 59.2857 65.6286 56.8786 65.6286H14.1C14.85 64.3357 15.3143 62.85 15.3143 61.25V4.37143H61.25V61.25ZM21.8786 37.1857H50.3143V41.5643H21.8786V37.1857ZM39.3786 45.9357H21.8786V50.3143H39.3786V45.9357ZM54.6929 15.3143H21.8786V32.8143H54.6929V15.3143ZM50.3143 28.4357H26.25V19.6857H50.3143V28.4357Z" fill="#232323"/>
</svg>
