<svg width="70" height="70" viewBox="0 0 70 70" fill="none" xmlns="http://www.w3.org/2000/svg">
<path fill-rule="evenodd" clip-rule="evenodd" d="M8.75 12.3958C8.75 13.6033 9.73 14.5833 10.9375 14.5833C12.145 14.5833 13.125 13.6033 13.125 12.3958V10.2083H22.6042V12.3958C22.6042 13.6033 23.5842 14.5833 24.7917 14.5833C25.9992 14.5833 26.9792 13.6033 26.9792 12.3958V10.2083H36.4583V12.3958C36.4583 13.6033 37.4383 14.5833 38.6458 14.5833C39.8533 14.5833 40.8333 13.6033 40.8333 12.3958V10.2083H41.5625C43.5721 10.2083 45.2083 11.8446 45.2083 13.8542V37.3625C45.2083 38.57 46.1883 39.55 47.3958 39.55C48.6033 39.55 49.5833 38.57 49.5833 37.3625V13.8542C49.5833 9.42958 45.9871 5.83333 41.5625 5.83333H40.8333V2.1875C40.8333 0.98 39.8533 0 38.6458 0C37.4383 0 36.4583 0.98 36.4583 2.1875V5.83333H26.9792V2.1875C26.9792 0.98 25.9992 0 24.7917 0C23.5842 0 22.6042 0.98 22.6042 2.1875V5.83333H13.125V2.1875C13.125 0.98 12.145 0 10.9375 0C9.73 0 8.75 0.98 8.75 2.1875V5.83333H8.02083C3.59625 5.83333 0 9.42958 0 13.8542V53.2292C0 57.6537 3.59625 61.25 8.02083 61.25H29.1958C30.4033 61.25 31.3833 60.27 31.3833 59.0625C31.3833 57.855 30.4033 56.875 29.1958 56.875H8.02083C6.01125 56.875 4.375 55.2388 4.375 53.2292V13.8542C4.375 11.8446 6.01125 10.2083 8.02083 10.2083H8.75V12.3958ZM34.9913 69.3583C35.4025 69.7725 35.9625 70 36.5371 70C36.6654 70 36.7908 69.9883 36.9192 69.965L45.6838 68.4192C46.1242 68.3433 46.5325 68.1275 46.8504 67.8125L68.5038 46.1562C70.4929 44.1642 70.4929 40.9296 68.5038 38.9375L64.8958 35.3296C63.8371 34.2708 62.4867 33.8479 61.0983 34.1396C60.0921 34.3467 59.115 34.9242 58.1933 35.8458L36.5371 57.5021C36.2221 57.8171 36.0092 58.2254 35.9304 58.6688L34.3846 67.4333C34.2592 68.1333 34.4867 68.8537 34.9913 69.3583ZM39.235 65.1146L40.1188 60.1067L61.285 38.9346C61.452 38.7676 61.5947 38.6512 61.6922 38.5716C61.7667 38.5108 61.8149 38.4715 61.8275 38.4475L65.4092 42.0292C65.6921 42.315 65.6921 42.7758 65.4092 43.0617L44.2429 64.2308L39.235 65.1146ZM32.8125 39.375H10.9375C9.73 39.375 8.75 38.395 8.75 37.1875C8.75 35.98 9.73 35 10.9375 35H32.8125C34.02 35 35 35.98 35 37.1875C35 38.395 34.02 39.375 32.8125 39.375ZM10.9375 27.7083H24.0625C25.27 27.7083 26.25 26.7283 26.25 25.5208C26.25 24.3133 25.27 23.3333 24.0625 23.3333H10.9375C9.73 23.3333 8.75 24.3133 8.75 25.5208C8.75 26.7283 9.73 27.7083 10.9375 27.7083Z" fill="#232323"/>
</svg>
