<svg width="42" height="38" viewBox="0 0 42 38" fill="none" xmlns="http://www.w3.org/2000/svg">
<path fill-rule="evenodd" clip-rule="evenodd" d="M4.87821 0H36.7428C39.4323 0 41.62 2.18777 41.62 4.87723C41.62 7.5667 39.4323 9.75446 36.7428 9.75446H9.75544V12.8434V14.66H31.0527C31.9507 14.66 32.6784 15.3877 32.6784 16.2857C32.6784 17.1837 31.9507 17.9115 31.0527 17.9115H23.2491V25.0416L25.3512 22.9398C25.9859 22.3048 27.0153 22.3048 27.6501 22.9398C28.2851 23.5746 28.2851 24.604 27.6501 25.2387L22.7728 30.116C22.4556 30.4335 22.0393 30.5923 21.6234 30.5923C21.2074 30.5923 20.7911 30.4335 20.4739 30.116L15.5967 25.2387C14.9616 24.604 14.9616 23.5746 15.5967 22.9398C16.2314 22.3048 17.2609 22.3048 17.8956 22.9398L19.9976 25.0416V17.9115H9.75544V34.7485H29.4269C30.3249 34.7485 31.0527 35.4763 31.0527 36.3743C31.0527 37.2722 30.3249 38 29.4269 38H8.1297C7.23173 38 6.50395 37.2722 6.50395 36.3743C6.50395 36.3564 6.50514 36.339 6.50633 36.3217L6.50703 36.3111L6.50808 36.293C6.50763 36.2834 6.50698 36.2738 6.50633 36.2643C6.50514 36.2469 6.50395 36.2295 6.50395 36.2117V17.9115H3.25246C2.3545 17.9115 1.62672 17.1837 1.62672 16.2857C1.62672 15.3877 2.3545 14.66 3.25246 14.66H6.50395V12.8434V9.75446H4.87821C2.18875 9.75446 0.000976562 7.5667 0.000976562 4.87723C0.000976562 2.18777 2.18875 0 4.87821 0ZM4.87821 6.50298H36.7428C37.6392 6.50298 38.3685 5.77361 38.3685 4.87723C38.3685 3.98085 37.6392 3.25149 36.7428 3.25149H4.87821C3.98183 3.25149 3.25246 3.98085 3.25246 4.87723C3.25246 5.77361 3.98183 6.50298 4.87821 6.50298ZM39.5878 32.4407C39.5878 34.0118 38.3139 35.2857 36.7428 35.2857C35.1717 35.2857 33.8977 34.0118 33.8977 32.4407C33.8977 30.8695 35.1717 29.5956 36.7428 29.5956C38.3139 29.5956 39.5878 30.8695 39.5878 32.4407ZM36.7428 24.3862C35.8448 24.3862 35.117 25.1139 35.117 26.0119C35.117 26.9099 35.8448 27.6376 36.7428 27.6376C37.6408 27.6376 38.3685 26.9099 38.3685 26.0119C38.3685 25.1139 37.6408 24.3862 36.7428 24.3862ZM35.117 20.3218C35.117 19.4238 35.8448 18.6961 36.7428 18.6961C37.6408 18.6961 38.3685 19.4238 38.3685 20.3218C38.3685 21.2198 37.6408 21.9475 36.7428 21.9475C35.8448 21.9475 35.117 21.2198 35.117 20.3218ZM36.7428 13.006C35.8448 13.006 35.117 13.7337 35.117 14.6317C35.117 15.5297 35.8448 16.2574 36.7428 16.2574C37.6408 16.2574 38.3685 15.5297 38.3685 14.6317C38.3685 13.7337 37.6408 13.006 36.7428 13.006Z" fill="url(#paint0_linear)"/>
<defs>
<linearGradient id="paint0_linear" x1="0.0212983" y1="0" x2="0.0212983" y2="37.9629" gradientUnits="userSpaceOnUse">
<stop stop-color="#F29810"/>
<stop offset="0.999023" stop-color="#E94F1B"/>
</linearGradient>
</defs>
</svg>
