<svg width="40" height="40" viewBox="0 0 40 40" fill="none" xmlns="http://www.w3.org/2000/svg">
<path fill-rule="evenodd" clip-rule="evenodd" d="M35.5074 21.1499C35.564 20.3821 35.564 19.6188 35.5074 18.85L38.3778 16.1868C38.886 15.7153 39.0001 14.955 38.6529 14.355L34.1879 6.64202C33.8418 6.04419 33.1293 5.76387 32.4686 5.96634L28.718 7.11494C28.0787 6.68002 27.4086 6.29327 26.7146 5.95855L25.8381 2.15143C25.6831 1.47752 25.0832 1 24.3917 1H15.4619C14.7704 1 14.1705 1.47752 14.0154 2.15143L13.139 5.95855C12.4449 6.29327 11.7749 6.68002 11.1356 7.11494L7.38501 5.96634C6.72424 5.76387 6.01174 6.04419 5.66566 6.64202L1.20074 14.355C0.853475 14.955 0.967623 15.7153 1.4758 16.1868L4.3462 18.85C4.28965 19.6178 4.28957 20.3811 4.3462 21.1499L1.4758 23.8131C0.967623 24.2846 0.853475 25.045 1.20074 25.6449L5.66559 33.358C6.01167 33.9558 6.72424 34.2361 7.38493 34.0337L11.1356 32.8851C11.7748 33.32 12.4449 33.7067 13.139 34.0415L14.0154 37.8486C14.1705 38.5225 14.7704 39 15.4619 39H24.3916C25.0831 39 25.683 38.5225 25.8381 37.8486L26.7146 34.0415C27.4087 33.7067 28.0787 33.32 28.718 32.8851L32.4686 34.0337C33.1293 34.236 33.8419 33.9558 34.1879 33.358L38.6528 25.6449C39.0001 25.045 38.8859 24.2846 38.3777 23.8131L35.5074 21.1499ZM32.4854 18.4437C32.613 19.4799 32.613 20.5196 32.4854 21.5563C32.427 22.0293 32.5995 22.5016 32.9489 22.8258L35.4897 25.1832L32.2097 30.8495L28.8853 29.8315C28.4302 29.6919 27.9362 29.7792 27.5564 30.066C26.7215 30.6962 25.8128 31.2206 24.8557 31.6246C24.4167 31.8099 24.0933 32.1947 23.9864 32.6591L23.2102 36.0312H16.6435L15.8672 32.6591C15.7604 32.1947 15.4369 31.8099 14.9979 31.6246C14.0409 31.2206 13.1321 30.6962 12.2972 30.066C11.9174 29.7793 11.4232 29.6919 10.9683 29.8315L7.64388 30.8495L4.36387 25.1832L6.90467 22.8258C7.25409 22.5016 7.42657 22.0293 7.36824 21.5563C7.24065 20.52 7.24065 19.4803 7.36824 18.4437C7.42657 17.9706 7.25409 17.4983 6.90467 17.1741L4.36387 14.8167L7.64388 9.15039L10.9683 10.1684C11.4232 10.3078 11.9173 10.2206 12.2972 9.93392C13.1321 9.30373 14.0408 8.7793 14.9979 8.37533C15.4369 8.19 15.7603 7.80518 15.8672 7.34079L16.6434 3.96874H23.2101L23.9864 7.34079C24.0933 7.80525 24.4167 8.19 24.8557 8.37533C25.8127 8.7793 26.7215 9.30373 27.5564 9.93392C27.9362 10.2206 28.4304 10.3079 28.8853 10.1684L32.2097 9.15039L35.4897 14.8167L32.9489 17.1741C32.5994 17.4983 32.427 17.9706 32.4854 18.4437ZM19.9268 14.0625C16.6528 14.0625 13.9893 16.726 13.9893 20C13.9893 23.2739 16.6528 25.9375 19.9268 25.9375C23.2007 25.9375 25.8643 23.2739 25.8643 20C25.8643 16.726 23.2007 14.0625 19.9268 14.0625ZM19.9268 22.9687C18.2898 22.9687 16.958 21.6369 16.958 20C16.958 18.363 18.2898 17.0312 19.9268 17.0312C21.5637 17.0312 22.8955 18.363 22.8955 20C22.8955 21.6369 21.5638 22.9687 19.9268 22.9687Z" fill="url(#paint0_linear)"/>
<path d="M35.5074 18.85L35.3374 18.6668L35.2492 18.7485L35.2581 18.8684L35.5074 18.85ZM35.5074 21.1499L35.2581 21.1315L35.2492 21.2514L35.3374 21.3332L35.5074 21.1499ZM38.3778 16.1868L38.5478 16.3701L38.5478 16.3701L38.3778 16.1868ZM38.6529 14.355L38.8692 14.2298L38.8692 14.2298L38.6529 14.355ZM34.1879 6.64202L34.4043 6.51678L34.4043 6.51675L34.1879 6.64202ZM32.4686 5.96634L32.5418 6.20538L32.5418 6.20537L32.4686 5.96634ZM28.718 7.11494L28.5773 7.32164L28.6765 7.38911L28.7912 7.35399L28.718 7.11494ZM26.7146 5.95855L26.4709 6.01463L26.4979 6.13159L26.606 6.18372L26.7146 5.95855ZM25.8381 2.15143L25.5945 2.20748L25.5945 2.20751L25.8381 2.15143ZM14.0154 2.15143L14.259 2.20751L14.259 2.20751L14.0154 2.15143ZM13.139 5.95855L13.2476 6.18373L13.3557 6.13159L13.3827 6.01463L13.139 5.95855ZM11.1356 7.11494L11.0624 7.35399L11.1771 7.38911L11.2763 7.32164L11.1356 7.11494ZM7.38501 5.96634L7.31177 6.20537L7.3118 6.20538L7.38501 5.96634ZM5.66566 6.64202L5.4493 6.51677L5.4493 6.51678L5.66566 6.64202ZM1.20074 14.355L0.984381 14.2298L0.98438 14.2298L1.20074 14.355ZM1.4758 16.1868L1.30576 16.3701L1.30576 16.3701L1.4758 16.1868ZM4.3462 18.85L4.59553 18.8684L4.60436 18.7485L4.51624 18.6668L4.3462 18.85ZM4.3462 21.1499L4.51624 21.3332L4.60436 21.2514L4.59553 21.1315L4.3462 21.1499ZM1.4758 23.8131L1.30576 23.6298L1.30576 23.6298L1.4758 23.8131ZM1.20074 25.6449L1.41711 25.5196H1.41711L1.20074 25.6449ZM5.66559 33.358L5.44922 33.4832L5.44922 33.4832L5.66559 33.358ZM7.38493 34.0337L7.31173 33.7946L7.31171 33.7946L7.38493 34.0337ZM11.1356 32.8851L11.2762 32.6784L11.177 32.6109L11.0624 32.646L11.1356 32.8851ZM13.139 34.0415L13.3826 33.9854L13.3557 33.8684L13.2476 33.8163L13.139 34.0415ZM14.0154 37.8486L14.259 37.7925L14.259 37.7925L14.0154 37.8486ZM25.8381 37.8486L25.5945 37.7925L25.5945 37.7925L25.8381 37.8486ZM26.7146 34.0415L26.606 33.8163L26.4979 33.8684L26.4709 33.9854L26.7146 34.0415ZM28.718 32.8851L28.7912 32.646L28.6765 32.6109L28.5773 32.6784L28.718 32.8851ZM32.4686 34.0337L32.3954 34.2727L32.3954 34.2727L32.4686 34.0337ZM34.1879 33.358L34.4043 33.4832L34.4043 33.4832L34.1879 33.358ZM38.6528 25.6449L38.4364 25.5196L38.6528 25.6449ZM38.3777 23.8131L38.5478 23.6298V23.6298L38.3777 23.8131ZM32.4854 21.5563L32.7335 21.5869L32.7335 21.5868L32.4854 21.5563ZM32.4854 18.4437L32.7335 18.4131L32.7335 18.413L32.4854 18.4437ZM32.9489 22.8258L33.119 22.6426L33.119 22.6426L32.9489 22.8258ZM35.4897 25.1832L35.7061 25.3085L35.8061 25.1357L35.6598 25L35.4897 25.1832ZM32.2097 30.8495L32.1365 31.0886L32.3265 31.1468L32.4261 30.9748L32.2097 30.8495ZM28.8853 29.8315L28.812 30.0705L28.8121 30.0705L28.8853 29.8315ZM27.5564 30.066L27.707 30.2656L27.7071 30.2655L27.5564 30.066ZM24.8557 31.6246L24.7585 31.3943L24.7585 31.3943L24.8557 31.6246ZM23.9864 32.6591L23.7428 32.603L23.7427 32.6031L23.9864 32.6591ZM23.2102 36.0312V36.2812H23.4092L23.4538 36.0873L23.2102 36.0312ZM16.6435 36.0312L16.3999 36.0873L16.4445 36.2812H16.6435V36.0312ZM15.8672 32.6591L15.6236 32.7152L15.6236 32.7152L15.8672 32.6591ZM14.9979 31.6246L15.0951 31.3943L15.0951 31.3943L14.9979 31.6246ZM12.2972 30.066L12.1465 30.2655L12.1466 30.2656L12.2972 30.066ZM10.9683 29.8315L11.0415 30.0705L11.0416 30.0705L10.9683 29.8315ZM7.64388 30.8495L7.42752 30.9748L7.52708 31.1468L7.71709 31.0886L7.64388 30.8495ZM4.36387 25.1832L4.19383 25L4.0475 25.1357L4.1475 25.3085L4.36387 25.1832ZM6.90467 22.8258L6.73463 22.6426L6.73463 22.6426L6.90467 22.8258ZM7.36824 21.5563L7.12011 21.5868L7.12011 21.5868L7.36824 21.5563ZM7.36824 18.4437L7.12011 18.4131L7.12011 18.4131L7.36824 18.4437ZM6.90467 17.1741L6.73463 17.3574L6.73463 17.3574L6.90467 17.1741ZM4.36387 14.8167L4.1475 14.6914L4.0475 14.8642L4.19383 15L4.36387 14.8167ZM7.64388 9.15039L7.71709 8.91135L7.52708 8.85316L7.42752 9.02514L7.64388 9.15039ZM10.9683 10.1684L11.0415 9.92942L11.0415 9.92941L10.9683 10.1684ZM12.2972 9.93392L12.1466 9.73437L12.1466 9.73438L12.2972 9.93392ZM14.9979 8.37533L15.0951 8.60565L15.0951 8.60564L14.9979 8.37533ZM15.8672 7.34079L16.1109 7.3969L16.1109 7.39687L15.8672 7.34079ZM16.6434 3.96874V3.71874H16.4444L16.3998 3.91267L16.6434 3.96874ZM23.2101 3.96874L23.4538 3.91266L23.4091 3.71874H23.2101V3.96874ZM23.9864 7.34079L24.23 7.28473L24.23 7.28471L23.9864 7.34079ZM24.8557 8.37533L24.7585 8.60564L24.7585 8.60565L24.8557 8.37533ZM27.5564 9.93392L27.7071 9.73439L27.707 9.73437L27.5564 9.93392ZM28.8853 10.1684L28.8121 9.92941L28.8121 9.92942L28.8853 10.1684ZM32.2097 9.15039L32.4261 9.02514L32.3265 8.85316L32.1365 8.91135L32.2097 9.15039ZM35.4897 14.8167L35.6598 15L35.8061 14.8642L35.7061 14.6914L35.4897 14.8167ZM32.9489 17.1741L33.119 17.3574L33.119 17.3574L32.9489 17.1741ZM35.2581 18.8684C35.3138 19.6249 35.3137 20.376 35.2581 21.1315L35.7567 21.1683C35.8142 20.3883 35.8143 19.6126 35.7567 18.8317L35.2581 18.8684ZM38.2078 16.0036L35.3374 18.6668L35.6774 19.0333L38.5478 16.3701L38.2078 16.0036ZM38.4365 14.4803C38.7253 14.9792 38.6304 15.6115 38.2078 16.0036L38.5478 16.3701C39.1416 15.8192 39.275 14.9307 38.8692 14.2298L38.4365 14.4803ZM33.9716 6.76727L38.4365 14.4803L38.8692 14.2298L34.4043 6.51678L33.9716 6.76727ZM32.5418 6.20537C33.0912 6.03702 33.6837 6.27005 33.9716 6.7673L34.4043 6.51675C33.9999 5.81833 33.1674 5.49072 32.3953 5.72731L32.5418 6.20537ZM28.7912 7.35399L32.5418 6.20538L32.3954 5.7273L28.6448 6.8759L28.7912 7.35399ZM26.606 6.18372C27.2888 6.51308 27.9483 6.89365 28.5773 7.32164L28.8586 6.90825C28.2092 6.4664 27.5283 6.07347 26.8232 5.73337L26.606 6.18372ZM25.5945 2.20751L26.4709 6.01463L26.9582 5.90246L26.0818 2.09534L25.5945 2.20751ZM24.3917 1.25C24.9667 1.25 25.4656 1.64709 25.5945 2.20748L26.0818 2.09538C25.9006 1.30795 25.1996 0.75 24.3917 0.75V1.25ZM15.4619 1.25H24.3917V0.75H15.4619V1.25ZM14.259 2.20751C14.388 1.64709 14.8869 1.25 15.4619 1.25V0.75C14.654 0.75 13.953 1.30795 13.7718 2.09535L14.259 2.20751ZM13.3827 6.01463L14.259 2.20751L13.7718 2.09535L12.8954 5.90246L13.3827 6.01463ZM11.2763 7.32164C11.9053 6.89364 12.5647 6.51307 13.2476 6.18373L13.0304 5.73336C12.3252 6.07347 11.6444 6.4664 10.995 6.90825L11.2763 7.32164ZM7.3118 6.20538L11.0624 7.35399L11.2089 6.8759L7.45821 5.7273L7.3118 6.20538ZM5.88202 6.76727C6.16985 6.27007 6.76233 6.03701 7.31177 6.20537L7.45825 5.72731C6.68615 5.49073 5.85363 5.81832 5.4493 6.51677L5.88202 6.76727ZM1.41711 14.4803L5.88202 6.76727L5.4493 6.51678L0.984381 14.2298L1.41711 14.4803ZM1.64584 16.0036C1.22325 15.6115 1.12833 14.9792 1.41711 14.4803L0.98438 14.2298C0.578624 14.9307 0.712 15.8192 1.30576 16.3701L1.64584 16.0036ZM4.51624 18.6668L1.64584 16.0036L1.30576 16.3701L4.17616 19.0333L4.51624 18.6668ZM4.59553 21.1315C4.5398 20.375 4.53987 19.624 4.59553 18.8684L4.09688 18.8317C4.03942 19.6117 4.03935 20.3873 4.09688 21.1683L4.59553 21.1315ZM1.64584 23.9964L4.51624 21.3332L4.17616 20.9666L1.30576 23.6298L1.64584 23.9964ZM1.41711 25.5196C1.12833 25.0208 1.22325 24.3885 1.64584 23.9964L1.30576 23.6298C0.712 24.1807 0.578624 25.0692 0.98438 25.7701L1.41711 25.5196ZM5.88195 33.2327L1.41711 25.5196L0.98438 25.7701L5.44922 33.4832L5.88195 33.2327ZM7.31171 33.7946C6.76232 33.9629 6.16977 33.7299 5.88195 33.2327L5.44922 33.4832C5.85357 34.1817 6.68617 34.5092 7.45816 34.2727L7.31171 33.7946ZM11.0624 32.646L7.31173 33.7946L7.45814 34.2727L11.2088 33.1241L11.0624 32.646ZM13.2476 33.8163C12.5647 33.4869 11.9053 33.1064 11.2762 32.6784L10.9949 33.0918C11.6444 33.5336 12.3252 33.9265 13.0304 34.2666L13.2476 33.8163ZM14.259 37.7925L13.3826 33.9854L12.8953 34.0975L13.7718 37.9047L14.259 37.7925ZM15.4619 38.75C14.8869 38.75 14.388 38.3529 14.259 37.7925L13.7718 37.9046C13.953 38.692 14.654 39.25 15.4619 39.25V38.75ZM24.3916 38.75H15.4619V39.25H24.3916V38.75ZM25.5945 37.7925C25.4655 38.3529 24.9666 38.75 24.3916 38.75V39.25C25.1996 39.25 25.9005 38.692 26.0818 37.9046L25.5945 37.7925ZM26.4709 33.9854L25.5945 37.7925L26.0818 37.9047L26.9582 34.0975L26.4709 33.9854ZM28.5773 32.6784C27.9483 33.1064 27.2889 33.4869 26.606 33.8163L26.8232 34.2666C27.5284 33.9265 28.2092 33.5336 28.8586 33.0918L28.5773 32.6784ZM32.5418 33.7946L28.7912 32.646L28.6448 33.1241L32.3954 34.2727L32.5418 33.7946ZM33.9716 33.2327C33.6838 33.7299 33.0912 33.9629 32.5418 33.7946L32.3954 34.2727C33.1674 34.5091 34 34.1817 34.4043 33.4832L33.9716 33.2327ZM38.4364 25.5196L33.9716 33.2327L34.4043 33.4832L38.8692 25.7701L38.4364 25.5196ZM38.2077 23.9964C38.6303 24.3885 38.7252 25.0208 38.4364 25.5196L38.8692 25.7701C39.2749 25.0692 39.1415 24.1807 38.5478 23.6298L38.2077 23.9964ZM35.3374 21.3332L38.2077 23.9964L38.5478 23.6298L35.6774 20.9666L35.3374 21.3332ZM32.7335 21.5868C32.8636 20.5299 32.8636 19.4697 32.7335 18.4131L32.2372 18.4742C32.3623 19.4902 32.3623 20.5094 32.2372 21.5257L32.7335 21.5868ZM33.119 22.6426C32.8284 22.373 32.685 21.9802 32.7335 21.5869L32.2372 21.5257C32.1691 22.0784 32.3706 22.6303 32.7789 23.0091L33.119 22.6426ZM35.6598 25L33.119 22.6426L32.7789 23.0091L35.3197 25.3665L35.6598 25ZM32.4261 30.9748L35.7061 25.3085L35.2734 25.058L31.9934 30.7243L32.4261 30.9748ZM28.8121 30.0705L32.1365 31.0886L32.2829 30.6105L28.9585 29.5924L28.8121 30.0705ZM27.7071 30.2655C28.0229 30.027 28.4336 29.9545 28.812 30.0705L28.9586 29.5925C28.4268 29.4294 27.8495 29.5314 27.4058 29.8665L27.7071 30.2655ZM24.9529 31.8549C25.9292 31.4429 26.8557 30.9081 27.707 30.2656L27.4058 29.8665C26.5872 30.4843 25.6965 30.9984 24.7585 31.3943L24.9529 31.8549ZM24.23 32.7152C24.3189 32.3291 24.5879 32.009 24.9529 31.8549L24.7585 31.3943C24.2455 31.6108 23.8677 32.0604 23.7428 32.603L24.23 32.7152ZM23.4538 36.0873L24.23 32.7152L23.7427 32.6031L22.9666 35.9751L23.4538 36.0873ZM16.6435 36.2812H23.2102V35.7812H16.6435V36.2812ZM15.6236 32.7152L16.3999 36.0873L16.8871 35.9751L16.1109 32.6031L15.6236 32.7152ZM14.9007 31.8549C15.2658 32.009 15.5347 32.329 15.6236 32.7152L16.1109 32.6031C15.986 32.0603 15.608 31.6108 15.0951 31.3943L14.9007 31.8549ZM12.1466 30.2656C12.9979 30.9081 13.9245 31.4429 14.9007 31.8549L15.0951 31.3943C14.1572 30.9984 13.2664 30.4843 12.4478 29.8665L12.1466 30.2656ZM11.0416 30.0705C11.4198 29.9545 11.8307 30.0271 12.1465 30.2655L12.4478 29.8665C12.0041 29.5315 11.4267 29.4294 10.895 29.5925L11.0416 30.0705ZM7.71709 31.0886L11.0415 30.0705L10.8951 29.5924L7.57068 30.6105L7.71709 31.0886ZM4.1475 25.3085L7.42752 30.9748L7.86025 30.7243L4.58023 25.058L4.1475 25.3085ZM6.73463 22.6426L4.19383 25L4.53391 25.3665L7.0747 23.0091L6.73463 22.6426ZM7.12011 21.5868C7.16862 21.9802 7.0252 22.373 6.73463 22.6426L7.0747 23.0091C7.48298 22.6303 7.68452 22.0784 7.61636 21.5257L7.12011 21.5868ZM7.12011 18.4131C6.99003 19.47 6.99003 20.5303 7.12011 21.5868L7.61636 21.5257C7.49128 20.5098 7.49128 19.4905 7.61636 18.4742L7.12011 18.4131ZM6.73463 17.3574C7.0252 17.6269 7.16862 18.0197 7.12011 18.4131L7.61636 18.4743C7.68452 17.9215 7.48298 17.3696 7.0747 16.9908L6.73463 17.3574ZM4.19383 15L6.73463 17.3574L7.0747 16.9908L4.53391 14.6334L4.19383 15ZM7.42752 9.02514L4.1475 14.6914L4.58023 14.9419L7.86025 9.27564L7.42752 9.02514ZM11.0415 9.92941L7.71709 8.91135L7.57068 9.38943L10.8951 10.4075L11.0415 9.92941ZM12.1466 9.73438C11.8307 9.97281 11.4198 10.0453 11.0415 9.92942L10.895 10.4075C11.4266 10.5703 12.004 10.4684 12.4478 10.1335L12.1466 9.73438ZM14.9007 8.145C13.9244 8.55705 12.9979 9.09185 12.1466 9.73437L12.4478 10.1335C13.2664 9.5156 14.1571 9.00154 15.0951 8.60565L14.9007 8.145ZM15.6236 7.28469C15.5347 7.67087 15.2657 7.99089 14.9007 8.14501L15.0951 8.60564C15.6081 8.38911 15.9859 7.93948 16.1109 7.3969L15.6236 7.28469ZM16.3998 3.91267L15.6236 7.28471L16.1109 7.39687L16.887 4.02482L16.3998 3.91267ZM23.2101 3.71874H16.6434V4.21874H23.2101V3.71874ZM24.23 7.28471L23.4538 3.91266L22.9665 4.02483L23.7427 7.39688L24.23 7.28471ZM24.9529 8.14501C24.5878 7.99088 24.3189 7.67092 24.23 7.28473L23.7427 7.39685C23.8676 7.93958 24.2456 8.38912 24.7585 8.60564L24.9529 8.14501ZM27.707 9.73437C26.8557 9.09185 25.9291 8.55705 24.9529 8.145L24.7585 8.60565C25.6964 9.00154 26.5872 9.5156 27.4058 10.1335L27.707 9.73437ZM28.8121 9.92942C28.4338 10.0454 28.0229 9.97282 27.7071 9.73439L27.4058 10.1334C27.8495 10.4684 28.4269 10.5704 28.9586 10.4075L28.8121 9.92942ZM32.1365 8.91135L28.8121 9.92941L28.9585 10.4075L32.2829 9.38943L32.1365 8.91135ZM35.7061 14.6914L32.4261 9.02514L31.9934 9.27564L35.2734 14.9419L35.7061 14.6914ZM33.119 17.3574L35.6598 15L35.3197 14.6334L32.7789 16.9908L33.119 17.3574ZM32.7335 18.413C32.6849 18.0197 32.8283 17.627 33.119 17.3574L32.7789 16.9908C32.3706 17.3696 32.169 17.9215 32.2373 18.4743L32.7335 18.413ZM14.2393 20C14.2393 16.8641 16.7909 14.3125 19.9268 14.3125V13.8125C16.5148 13.8125 13.7393 16.588 13.7393 20H14.2393ZM19.9268 25.6875C16.7909 25.6875 14.2393 23.1358 14.2393 20H13.7393C13.7393 23.412 16.5148 26.1875 19.9268 26.1875V25.6875ZM25.6143 20C25.6143 23.1358 23.0626 25.6875 19.9268 25.6875V26.1875C23.3388 26.1875 26.1143 23.412 26.1143 20H25.6143ZM19.9268 14.3125C23.0626 14.3125 25.6143 16.8641 25.6143 20H26.1143C26.1143 16.588 23.3388 13.8125 19.9268 13.8125V14.3125ZM16.708 20C16.708 21.775 18.1517 23.2187 19.9268 23.2187V22.7187C18.4279 22.7187 17.208 21.4989 17.208 20H16.708ZM19.9268 16.7812C18.1517 16.7812 16.708 18.2249 16.708 20H17.208C17.208 18.5011 18.4279 17.2812 19.9268 17.2812V16.7812ZM23.1455 20C23.1455 18.2249 21.7018 16.7812 19.9268 16.7812V17.2812C21.4257 17.2812 22.6455 18.5011 22.6455 20H23.1455ZM19.9268 23.2187C21.7019 23.2187 23.1455 21.775 23.1455 20H22.6455C22.6455 21.4989 21.4257 22.7187 19.9268 22.7187V23.2187Z" fill="url(#paint1_linear)"/>
<defs>
<linearGradient id="paint0_linear" x1="1.00098" y1="1" x2="1.00098" y2="39" gradientUnits="userSpaceOnUse">
<stop stop-color="#F29810"/>
<stop offset="0.999023" stop-color="#E94F1B"/>
</linearGradient>
<linearGradient id="paint1_linear" x1="1.01946" y1="1" x2="1.01946" y2="38.9629" gradientUnits="userSpaceOnUse">
<stop stop-color="#F29810"/>
<stop offset="0.999023" stop-color="#E94F1B"/>
</linearGradient>
</defs>
</svg>
