<svg width="39" height="39" viewBox="0 0 39 39" fill="none" xmlns="http://www.w3.org/2000/svg">
<path fill-rule="evenodd" clip-rule="evenodd" d="M23.9179 7.03076V9.49843C31.7502 11.676 37.1741 18.8028 37.1856 26.9323C37.1856 27.2653 36.9155 27.5354 36.5825 27.5354H27.5069C27.198 31.9542 23.5236 35.381 19.0939 35.381C14.6644 35.381 10.9897 31.9542 10.6808 27.5354H1.60405C1.27101 27.5354 1.00098 27.2653 1.00098 26.9323C1.01246 18.8028 6.43632 11.676 14.2687 9.49843V7.03076C14.2687 6.69772 14.5387 6.42769 14.8717 6.42769H18.4902V1H19.6963V6.42769H23.3148C23.6479 6.42769 23.9179 6.69772 23.9179 7.03076ZM22.7117 7.63384H15.4748V9.2019C17.8627 8.71602 20.3239 8.71602 22.7117 9.2019V7.63384ZM19.0933 34.1692C15.3335 34.1633 12.2032 31.2819 11.887 27.5354H26.3007C25.9845 31.2822 22.8534 34.1642 19.0933 34.1692ZM19.0933 10.0485C10.003 10.0485 2.544 17.2448 2.21802 26.3292H35.9685C35.6425 17.2448 28.1836 10.0485 19.0933 10.0485Z" fill="url(#paint0_linear)"/>
<path d="M23.9179 9.49843H22.9179V10.2583L23.65 10.4619L23.9179 9.49843ZM37.1856 26.9323H38.1856V26.9309L37.1856 26.9323ZM27.5069 27.5354V26.5354H26.5744L26.5093 27.4656L27.5069 27.5354ZM10.6808 27.5354L11.6784 27.4656L11.6134 26.5354H10.6808V27.5354ZM1.00098 26.9323L0.000976562 26.9309V26.9323H1.00098ZM14.2687 9.49843L14.5365 10.4619L15.2687 10.2583V9.49843H14.2687ZM18.4902 6.42769V7.42769H19.4902V6.42769H18.4902ZM18.4902 1V0H17.4902V1H18.4902ZM19.6963 1H20.6963V0H19.6963V1ZM19.6963 6.42769H18.6963V7.42769H19.6963V6.42769ZM15.4748 7.63384V6.63384H14.4748V7.63384H15.4748ZM22.7117 7.63384H23.7117V6.63384H22.7117V7.63384ZM15.4748 9.2019H14.4748V10.4259L15.6742 10.1818L15.4748 9.2019ZM22.7117 9.2019L22.5123 10.1818L23.7117 10.4259V9.2019H22.7117ZM11.887 27.5354V26.5354H10.799L10.8905 27.6195L11.887 27.5354ZM19.0933 34.1692L19.0917 35.1692L19.0946 35.1692L19.0933 34.1692ZM26.3007 27.5354L27.2972 27.6195L27.3887 26.5354H26.3007V27.5354ZM2.21802 26.3292L1.21867 26.2934L1.1815 27.3292H2.21802V26.3292ZM35.9685 26.3292V27.3292H37.005L36.9679 26.2934L35.9685 26.3292ZM24.9179 9.49843V7.03076H22.9179V9.49843H24.9179ZM38.1856 26.9309C38.1734 18.3528 32.4503 10.8327 24.1857 8.53498L23.65 10.4619C31.0502 12.5193 36.1747 19.2529 36.1856 26.9337L38.1856 26.9309ZM36.5825 28.5354C37.4678 28.5354 38.1856 27.8176 38.1856 26.9323H36.1856C36.1856 26.713 36.3632 26.5354 36.5825 26.5354V28.5354ZM27.5069 28.5354H36.5825V26.5354H27.5069V28.5354ZM19.0939 36.381C24.0488 36.381 28.1589 32.5478 28.5045 27.6051L26.5093 27.4656C26.2371 31.3605 22.9983 34.381 19.0939 34.381V36.381ZM9.68326 27.6051C10.0288 32.5479 14.1392 36.381 19.0939 36.381V34.381C15.1897 34.381 11.9507 31.3605 11.6784 27.4656L9.68326 27.6051ZM1.60405 28.5354H10.6808V26.5354H1.60405V28.5354ZM0.000976562 26.9323C0.000976562 27.8176 0.71872 28.5354 1.60405 28.5354V26.5354C1.82329 26.5354 2.00098 26.7131 2.00098 26.9323H0.000976562ZM14.0008 8.53498C5.73627 10.8327 0.0130957 18.3528 0.000977576 26.9309L2.00098 26.9337C2.01183 19.2529 7.13637 12.5193 14.5365 10.4619L14.0008 8.53498ZM13.2687 7.03076V9.49843H15.2687V7.03076H13.2687ZM14.8717 5.42769C13.9864 5.42769 13.2687 6.14543 13.2687 7.03076H15.2687C15.2687 7.25 15.091 7.42769 14.8717 7.42769V5.42769ZM18.4902 5.42769H14.8717V7.42769H18.4902V5.42769ZM17.4902 1V6.42769H19.4902V1H17.4902ZM19.6963 0H18.4902V2H19.6963V0ZM20.6963 6.42769V1H18.6963V6.42769H20.6963ZM23.3148 5.42769H19.6963V7.42769H23.3148V5.42769ZM24.9179 7.03076C24.9179 6.14544 24.2001 5.42769 23.3148 5.42769V7.42769C23.0956 7.42769 22.9179 7.25 22.9179 7.03076H24.9179ZM15.4748 8.63384H22.7117V6.63384H15.4748V8.63384ZM16.4748 9.2019V7.63384H14.4748V9.2019H16.4748ZM22.9111 8.22198C20.3917 7.70933 17.7949 7.70933 15.2754 8.22198L15.6742 10.1818C17.9305 9.72272 20.2561 9.72272 22.5123 10.1818L22.9111 8.22198ZM21.7117 7.63384V9.2019H23.7117V7.63384H21.7117ZM10.8905 27.6195C11.2504 31.8833 14.8129 35.1625 19.0917 35.1692L19.0948 33.1692C15.8541 33.1641 13.156 30.6805 12.8834 27.4513L10.8905 27.6195ZM26.3007 26.5354H11.887V28.5354H26.3007V26.5354ZM19.0946 35.1692C23.3739 35.1635 26.9373 31.8836 27.2972 27.6195L25.3043 27.4513C25.0317 30.6808 22.3328 33.1649 19.0919 33.1692L19.0946 35.1692ZM3.21738 26.3651C3.52406 17.8186 10.5413 11.0485 19.0933 11.0485V9.0485C9.46461 9.0485 1.56395 16.671 1.21867 26.2934L3.21738 26.3651ZM35.9685 25.3292H2.21802V27.3292H35.9685V25.3292ZM19.0933 11.0485C27.6452 11.0485 34.6625 17.8186 34.9692 26.3651L36.9679 26.2934C36.6226 16.671 28.7219 9.0485 19.0933 9.0485V11.0485Z" fill="url(#paint1_linear)"/>
<path fill-rule="evenodd" clip-rule="evenodd" d="M4.67103 30.8574L1.90527 32.6395L2.9962 34.3327L5.76222 32.5509L4.67103 30.8574ZM7.6962 34.3603L6.12105 37.249L7.88978 38.2135L9.46493 35.3245L7.6962 34.3603Z" fill="url(#paint2_linear)"/>
<path fill-rule="evenodd" clip-rule="evenodd" d="M32.9374 30.8574L35.7031 32.6395L34.6122 34.3327L31.8462 32.5509L32.9374 30.8574ZM29.9122 34.3603L31.4873 37.249L29.7186 38.2135L28.1435 35.3245L29.9122 34.3603Z" fill="url(#paint3_linear)"/>
<defs>
<linearGradient id="paint0_linear" x1="1.00098" y1="1" x2="1.00098" y2="35.381" gradientUnits="userSpaceOnUse">
<stop stop-color="#F29810"/>
<stop offset="0.999023" stop-color="#E94F1B"/>
</linearGradient>
<linearGradient id="paint1_linear" x1="1.01864" y1="1" x2="1.01864" y2="35.3474" gradientUnits="userSpaceOnUse">
<stop stop-color="#F29810"/>
<stop offset="0.999023" stop-color="#E94F1B"/>
</linearGradient>
<linearGradient id="paint2_linear" x1="1.90896" y1="30.8574" x2="1.90896" y2="38.2063" gradientUnits="userSpaceOnUse">
<stop stop-color="#F29810"/>
<stop offset="0.999023" stop-color="#E94F1B"/>
</linearGradient>
<linearGradient id="paint3_linear" x1="35.7031" y1="30.8574" x2="35.7031" y2="38.2135" gradientUnits="userSpaceOnUse">
<stop stop-color="#F29810"/>
<stop offset="0.999023" stop-color="#E94F1B"/>
</linearGradient>
</defs>
</svg>
