<svg width="39" height="37" viewBox="0 0 39 37" fill="none" xmlns="http://www.w3.org/2000/svg">
<path fill-rule="evenodd" clip-rule="evenodd" d="M22.6884 1.12336C22.2555 0.916863 21.7455 0.971598 21.3723 1.27264L9.27091 10.9532H3.48892C2.11806 10.9532 1.00098 12.0703 1.00098 13.4412V23.393C1.00098 24.7638 2.11806 25.8809 3.48892 25.8809H9.27091L21.3698 35.5615C21.5962 35.7406 21.8724 35.8327 22.1485 35.8327C22.3326 35.8327 22.5167 35.7929 22.6884 35.7108C23.1188 35.5018 23.3925 35.0664 23.3925 34.5887V2.24543C23.3925 1.76774 23.1188 1.33235 22.6884 1.12336ZM8.46481 23.393H3.48892V13.4412H8.46481V23.393ZM10.9528 24.0373L20.9045 31.9988V4.83538L10.9528 12.7968V24.0373ZM29.692 9.6197C29.2018 9.13455 28.4156 9.14201 27.933 9.62965C27.4503 10.1198 27.4553 10.906 27.9429 11.3886C29.8213 13.2471 30.8563 15.7425 30.8563 18.4171C30.8563 21.0916 29.8213 23.587 27.9429 25.4455C27.4528 25.9282 27.4478 26.7144 27.933 27.2045C28.1768 27.4508 28.4977 27.5727 28.8162 27.5727C29.1322 27.5727 29.4481 27.4533 29.692 27.212C32.048 24.8857 33.3443 21.7634 33.3443 18.4171C33.3443 15.0708 32.048 11.9484 29.692 9.6197ZM31.441 6.12164C31.9236 5.63401 32.7123 5.63152 33.2 6.11418C36.5015 9.38832 38.3202 13.7571 38.3202 18.4171C38.3202 23.077 36.5015 27.4458 33.2 30.72C32.9561 30.9613 32.6402 31.0807 32.3242 31.0807C32.0033 31.0807 31.6848 30.9588 31.441 30.7125C30.9583 30.2249 30.9608 29.4362 31.4485 28.9535C34.2748 26.1496 35.8322 22.4077 35.8322 18.4171C35.8322 14.4264 34.2748 10.6845 31.4485 7.88062C30.9608 7.39796 30.9583 6.60928 31.441 6.12164Z" fill="url(#paint0_linear)"/>
<path d="M21.3723 1.27264L21.5597 1.50691L21.5606 1.50614L21.3723 1.27264ZM22.6884 1.12336L22.8194 0.853486L22.8176 0.85259L22.6884 1.12336ZM9.27091 10.9532V11.2532H9.37614L9.45831 11.1875L9.27091 10.9532ZM9.27091 25.8809L9.45833 25.6467L9.37615 25.5809H9.27091V25.8809ZM21.3698 35.5615L21.1824 35.7958L21.1836 35.7968L21.3698 35.5615ZM22.6884 35.7108L22.8178 35.9814L22.8194 35.9807L22.6884 35.7108ZM3.48892 23.393H3.18892V23.693H3.48892V23.393ZM8.46481 23.393V23.693H8.76481V23.393H8.46481ZM3.48892 13.4412V13.1412H3.18892V13.4412H3.48892ZM8.46481 13.4412H8.76481V13.1412H8.46481V13.4412ZM20.9045 31.9988L20.7171 32.233L21.2045 32.623V31.9988H20.9045ZM10.9528 24.0373H10.6528V24.1815L10.7653 24.2716L10.9528 24.0373ZM20.9045 4.83538H21.2045V4.21119L20.7171 4.60112L20.9045 4.83538ZM10.9528 12.7968L10.7653 12.5625L10.6528 12.6526V12.7968H10.9528ZM27.933 9.62965L27.7198 9.41861L27.7192 9.41915L27.933 9.62965ZM29.692 9.6197L29.4809 9.83291L29.4811 9.83306L29.692 9.6197ZM27.9429 11.3886L27.7319 11.6018L27.7319 11.6019L27.9429 11.3886ZM27.9429 25.4455L28.1534 25.6593L28.1539 25.6588L27.9429 25.4455ZM27.933 27.2045L27.7198 27.4155L27.7198 27.4155L27.933 27.2045ZM29.692 27.212L29.4812 26.9985L29.4809 26.9987L29.692 27.212ZM33.2 6.11418L33.4112 5.90117L33.411 5.90096L33.2 6.11418ZM31.441 6.12164L31.6542 6.33269L31.441 6.12164ZM33.2 30.72L33.411 30.9332L33.4112 30.933L33.2 30.72ZM31.441 30.7125L31.2278 30.9235L31.2278 30.9235L31.441 30.7125ZM31.4485 28.9535L31.6595 29.1667L31.6597 29.1665L31.4485 28.9535ZM31.4485 7.88062L31.6597 7.66765L31.6595 7.66741L31.4485 7.88062ZM21.5606 1.50614C21.8419 1.27923 22.2281 1.23619 22.5592 1.39413L22.8176 0.85259C22.2829 0.597533 21.649 0.663964 21.1839 1.03914L21.5606 1.50614ZM9.45831 11.1875L21.5597 1.5069L21.1849 1.03837L9.0835 10.719L9.45831 11.1875ZM3.48892 11.2532H9.27091V10.6532H3.48892V11.2532ZM1.30098 13.4412C1.30098 12.236 2.28375 11.2532 3.48892 11.2532V10.6532C1.95238 10.6532 0.700977 11.9046 0.700977 13.4412H1.30098ZM1.30098 23.393V13.4412H0.700977V23.393H1.30098ZM3.48892 25.5809C2.28375 25.5809 1.30098 24.5981 1.30098 23.393H0.700977C0.700977 24.9295 1.95238 26.1809 3.48892 26.1809V25.5809ZM9.27091 25.5809H3.48892V26.1809H9.27091V25.5809ZM21.5572 35.3273L9.45833 25.6467L9.08348 26.1152L21.1824 35.7957L21.5572 35.3273ZM22.1485 35.5327C21.9386 35.5327 21.7283 35.4626 21.5559 35.3262L21.1836 35.7968C21.464 36.0186 21.8061 36.1327 22.1485 36.1327V35.5327ZM22.559 35.4401C22.4289 35.5023 22.2892 35.5327 22.1485 35.5327V36.1327C22.3761 36.1327 22.6045 36.0834 22.8178 35.9814L22.559 35.4401ZM23.0925 34.5887C23.0925 34.9509 22.8849 35.2819 22.5574 35.4409L22.8194 35.9807C23.3527 35.7217 23.6925 35.1819 23.6925 34.5887H23.0925ZM23.0925 2.24543V34.5887H23.6925V2.24543H23.0925ZM22.5574 1.39323C22.8849 1.55229 23.0925 1.8832 23.0925 2.24543H23.6925C23.6925 1.65228 23.3527 1.11241 22.8194 0.853492L22.5574 1.39323ZM3.48892 23.693H8.46481V23.093H3.48892V23.693ZM3.18892 13.4412V23.393H3.78892V13.4412H3.18892ZM8.46481 13.1412H3.48892V13.7412H8.46481V13.1412ZM8.76481 23.393V13.4412H8.16481V23.393H8.76481ZM21.0919 31.7645L11.1402 23.8031L10.7653 24.2716L20.7171 32.233L21.0919 31.7645ZM20.6045 4.83538V31.9988H21.2045V4.83538H20.6045ZM11.1402 13.0311L21.0919 5.06964L20.7171 4.60112L10.7653 12.5625L11.1402 13.0311ZM11.2528 24.0373V12.7968H10.6528V24.0373H11.2528ZM28.1462 9.84069C28.513 9.47012 29.1092 9.465 29.4809 9.83291L29.903 9.40648C29.2944 8.80409 28.3183 8.81391 27.7198 9.41861L28.1462 9.84069ZM28.154 11.1754C27.7841 10.8093 27.7799 10.2126 28.1467 9.84015L27.7192 9.41915C27.1207 10.0269 27.1265 11.0026 27.7319 11.6018L28.154 11.1754ZM31.1563 18.4171C31.1563 15.6634 30.09 13.0909 28.1539 11.1754L27.7319 11.6019C29.5527 13.4033 30.5563 15.8216 30.5563 18.4171H31.1563ZM28.1539 25.6588C30.09 23.7432 31.1563 21.1707 31.1563 18.4171H30.5563C30.5563 21.0125 29.5527 23.4308 27.7319 25.2323L28.1539 25.6588ZM28.1462 26.9934C27.7776 26.6211 27.7818 26.0253 28.1534 25.6593L27.7324 25.2318C27.1238 25.8311 27.1181 26.8077 27.7198 27.4155L28.1462 26.9934ZM28.8162 27.2727C28.574 27.2727 28.331 27.1802 28.1462 26.9934L27.7198 27.4155C28.0226 27.7214 28.4215 27.8727 28.8162 27.8727V27.2727ZM29.4809 26.9987C29.2954 27.1823 29.0562 27.2727 28.8162 27.2727V27.8727C29.2081 27.8727 29.6008 27.7242 29.903 27.4252L29.4809 26.9987ZM33.0443 18.4171C33.0443 21.6841 31.7795 24.7293 29.4812 26.9985L29.9027 27.4254C32.3166 25.0421 33.6443 21.8426 33.6443 18.4171H33.0443ZM29.4811 9.83306C31.7795 12.1048 33.0443 15.15 33.0443 18.4171H33.6443C33.6443 14.9915 32.3166 11.792 29.9029 9.40633L29.4811 9.83306ZM33.411 5.90096C32.8061 5.30223 31.8275 5.30472 31.2278 5.9106L31.6542 6.33269C32.0198 5.9633 32.6186 5.9608 32.9889 6.3274L33.411 5.90096ZM38.6202 18.4171C38.6202 13.6773 36.7696 9.23175 33.4112 5.90117L32.9887 6.32719C36.2333 9.54488 38.0202 13.837 38.0202 18.4171H38.6202ZM33.4112 30.933C36.7696 27.6024 38.6202 23.1568 38.6202 18.4171H38.0202C38.0202 22.9972 36.2333 27.2893 32.9887 30.5069L33.4112 30.933ZM32.3242 31.3807C32.7161 31.3807 33.1089 31.2323 33.411 30.9332L32.9889 30.5067C32.8034 30.6903 32.5642 30.7807 32.3242 30.7807V31.3807ZM31.2278 30.9235C31.5304 31.2292 31.9267 31.3807 32.3242 31.3807V30.7807C32.0799 30.7807 31.8393 30.6884 31.6542 30.5014L31.2278 30.9235ZM31.2374 28.7403C30.6315 29.34 30.629 30.3186 31.2278 30.9235L31.6542 30.5015C31.2876 30.1311 31.2901 29.5324 31.6595 29.1667L31.2374 28.7403ZM35.5322 18.4171C35.5322 22.3279 34.0066 25.9931 31.2372 28.7405L31.6597 29.1665C34.5429 26.3061 36.1322 22.4876 36.1322 18.4171H35.5322ZM31.2372 8.0936C34.0066 10.8411 35.5322 14.5062 35.5322 18.4171H36.1322C36.1322 14.3466 34.5429 10.528 31.6597 7.66765L31.2372 8.0936ZM31.2278 5.9106C30.629 6.51551 30.6315 7.49414 31.2374 8.09384L31.6595 7.66741C31.2901 7.30178 31.2876 6.70306 31.6542 6.33269L31.2278 5.9106Z" fill="url(#paint1_linear)"/>
<defs>
<linearGradient id="paint0_linear" x1="1.00098" y1="1" x2="1.00098" y2="35.8327" gradientUnits="userSpaceOnUse">
<stop stop-color="#F29810"/>
<stop offset="0.999023" stop-color="#E94F1B"/>
</linearGradient>
<linearGradient id="paint1_linear" x1="1.0192" y1="1" x2="1.0192" y2="35.7987" gradientUnits="userSpaceOnUse">
<stop stop-color="#F29810"/>
<stop offset="0.999023" stop-color="#E94F1B"/>
</linearGradient>
</defs>
</svg>
