<svg width="57" height="72" viewBox="0 0 57 72" fill="none" xmlns="http://www.w3.org/2000/svg">
<path fill-rule="evenodd" clip-rule="evenodd" d="M41.6636 29.7681C38.3869 33.0448 34.3778 34.7056 29.7473 34.7056C25.1178 34.7056 21.1087 33.0443 17.8314 29.7686C14.5553 26.4924 12.8939 22.4833 12.8939 17.8523C12.8939 13.2223 14.5553 9.21312 17.8314 5.93695C21.1076 2.66078 25.1162 1 29.7473 1C34.3773 1 38.3864 2.66078 41.6631 5.93642C44.9398 9.21366 46.6006 13.2228 46.6006 17.8523C46.6006 22.4833 44.9393 26.4919 41.6636 29.7681ZM29.7473 5.10042C26.194 5.10042 23.2451 6.32238 20.7313 8.83623C18.2169 11.3506 16.9944 14.3001 16.9944 17.8523C16.9944 21.4055 18.2169 24.355 20.7313 26.8688C23.2462 29.3827 26.1951 30.6051 29.7473 30.6051C33.3 30.6051 36.2494 29.3832 38.7638 26.8688C41.2777 24.3544 42.5002 21.4055 42.5002 17.8523C42.5002 14.3001 41.2777 11.3506 38.7638 8.83623C36.2494 6.32238 33.3 5.10042 29.7473 5.10042ZM42.8367 70.9714H13.3429C9.70372 70.9714 6.71208 69.8803 4.45074 67.7284C2.1611 65.5476 1 62.5907 1 58.9382C1 57.5331 1.04698 56.1424 1.13987 54.8062C1.23436 53.4396 1.42494 51.9518 1.7068 50.3834C1.99081 48.8011 2.35649 47.3058 2.7937 45.9386C3.2464 44.5245 3.86138 43.1296 4.62103 41.7923C5.40898 40.4048 6.33573 39.1968 7.37565 38.2017C8.46415 37.1602 9.79608 36.3236 11.3346 35.7145C12.8683 35.107 14.5681 34.799 16.3874 34.799C17.1017 34.799 17.7925 35.0921 19.1255 35.9606C19.9588 36.5035 20.9197 37.1228 21.9815 37.8013C22.8965 38.3853 24.1388 38.9325 25.6709 39.4274C27.1683 39.9116 28.6876 40.1571 30.1866 40.1571C31.6867 40.1571 33.206 39.9116 34.7024 39.4274C36.2361 38.932 37.4778 38.3848 38.3944 37.8008C39.4664 37.1159 40.4267 36.4966 41.2478 35.9612C42.5818 35.0926 43.2726 34.7995 43.9869 34.7995C45.8057 34.7995 47.506 35.107 49.0402 35.714C50.2958 36.2116 51.4129 36.8598 52.3722 37.6463C50.651 38.0564 49.0166 38.6901 47.5013 39.515C46.5426 39.1402 45.4674 38.9349 44.3008 38.9037C44.1572 38.98 43.9015 39.1263 43.4872 39.3959C42.6443 39.9457 41.6999 40.5543 40.6008 41.2569C39.3884 42.0299 37.8291 42.7265 35.9638 43.3292C34.0596 43.9447 32.1159 44.2576 30.1872 44.2576C28.2584 44.2576 26.3152 43.9447 24.4099 43.3287C22.5463 42.7271 20.9864 42.0299 19.7757 41.2579C18.7016 40.5719 17.73 39.9452 16.8871 39.3959C16.4728 39.1258 16.2171 38.98 16.0735 38.9037C14.8953 38.9352 13.81 39.1445 12.8443 39.5267C11.8001 39.9399 10.9139 40.4908 10.2109 41.164C9.45922 41.8836 8.77804 42.7767 8.18602 43.8177C7.56569 44.9099 7.06549 46.0438 6.69874 47.1889C6.31651 48.3831 5.99514 49.7022 5.74263 51.1078C5.48692 52.531 5.31449 53.8704 5.23015 55.0897C5.14366 56.3325 5.10042 57.6271 5.10042 58.9382C5.10042 61.459 5.81256 63.3632 7.27796 64.7581C8.77164 66.1797 10.7554 66.871 13.3429 66.871H39.7229C40.5819 68.3714 41.6308 69.7491 42.8367 70.9714Z" fill="#232323"/>
<path d="M41.6636 29.7681L41.9465 30.0509L41.9465 30.0509L41.6636 29.7681ZM17.8314 29.7686L17.5486 30.0515L17.5487 30.0515L17.8314 29.7686ZM17.8314 5.93695L17.5486 5.65411L17.8314 5.93695ZM41.6631 5.93642L41.946 5.6536L41.9459 5.65353L41.6631 5.93642ZM20.7313 26.8688L20.4484 27.1517L20.4485 27.1517L20.7313 26.8688ZM38.7638 26.8688L39.0467 27.1516L39.0467 27.1516L38.7638 26.8688ZM38.7638 8.83623L39.0467 8.55342L39.0466 8.55336L38.7638 8.83623ZM42.8367 70.9714V71.3714H43.7932L43.1214 70.6905L42.8367 70.9714ZM4.45074 67.7284L4.17487 68.018L4.175 68.0181L4.45074 67.7284ZM1.13987 54.8062L1.5389 54.834L1.53891 54.8338L1.13987 54.8062ZM1.7068 50.3834L2.1005 50.4541L2.10051 50.454L1.7068 50.3834ZM2.7937 45.9386L2.41275 45.8167L2.41271 45.8168L2.7937 45.9386ZM4.62103 41.7923L4.96884 41.9899L4.96886 41.9898L4.62103 41.7923ZM7.37565 38.2017L7.09911 37.9127L7.0991 37.9127L7.37565 38.2017ZM11.3346 35.7145L11.4818 36.0864L11.4819 36.0864L11.3346 35.7145ZM19.1255 35.9606L18.9071 36.2958L18.9071 36.2958L19.1255 35.9606ZM21.9815 37.8013L21.7661 38.1384L21.7663 38.1385L21.9815 37.8013ZM25.6709 39.4274L25.7939 39.0468L25.7938 39.0467L25.6709 39.4274ZM34.7024 39.4274L34.5794 39.0468L34.5792 39.0468L34.7024 39.4274ZM38.3944 37.8008L38.6093 38.1381L38.6098 38.1378L38.3944 37.8008ZM41.2478 35.9612L41.0295 35.6259L41.0293 35.6261L41.2478 35.9612ZM49.0402 35.714L49.1876 35.3421L49.1874 35.342L49.0402 35.714ZM52.3722 37.6463L52.4649 38.0354L53.2496 37.8485L52.6258 37.337L52.3722 37.6463ZM47.5013 39.515L47.3557 39.8875L47.5291 39.9553L47.6926 39.8663L47.5013 39.515ZM44.3008 38.9037L44.3115 38.5038L44.2061 38.501L44.113 38.5505L44.3008 38.9037ZM43.4872 39.3959L43.2691 39.0606L43.2687 39.0609L43.4872 39.3959ZM40.6008 41.2569L40.8158 41.5941L40.8162 41.5939L40.6008 41.2569ZM35.9638 43.3292L35.8408 42.9486L35.8408 42.9486L35.9638 43.3292ZM24.4099 43.3287L24.533 42.9481L24.5328 42.948L24.4099 43.3287ZM19.7757 41.2579L19.5604 41.595L19.5606 41.5952L19.7757 41.2579ZM16.8871 39.3959L16.6686 39.7309L16.6687 39.731L16.8871 39.3959ZM16.0735 38.9037L16.2613 38.5505L16.1682 38.501L16.0628 38.5038L16.0735 38.9037ZM12.8443 39.5267L12.9915 39.8986L12.9915 39.8986L12.8443 39.5267ZM10.2109 41.164L10.4875 41.4529L10.4875 41.4529L10.2109 41.164ZM8.18602 43.8177L7.83831 43.6199L7.8382 43.6201L8.18602 43.8177ZM6.69874 47.1889L6.3178 47.0669L6.31778 47.0669L6.69874 47.1889ZM5.74263 51.1078L6.13633 51.1785L6.13633 51.1785L5.74263 51.1078ZM5.23015 55.0897L5.62918 55.1175L5.62919 55.1173L5.23015 55.0897ZM7.27796 64.7581L7.00216 65.0478L7.00219 65.0478L7.27796 64.7581ZM39.7229 66.871L40.07 66.6723L39.9548 66.471H39.7229V66.871ZM29.7473 35.1056C34.4839 35.1056 38.5948 33.4026 41.9465 30.0509L41.3808 29.4852C38.1791 32.687 34.2717 34.3056 29.7473 34.3056V35.1056ZM17.5487 30.0515C20.9008 33.4021 25.0116 35.1056 29.7473 35.1056V34.3056C25.224 34.3056 21.3165 32.6865 18.1142 29.4857L17.5487 30.0515ZM12.4939 17.8523C12.4939 22.5895 14.1975 26.7003 17.5486 30.0515L18.1143 29.4858C14.9131 26.2846 13.2939 22.3772 13.2939 17.8523H12.4939ZM17.5486 5.65411C14.1975 9.00524 12.4939 13.1161 12.4939 17.8523H13.2939C13.2939 13.3284 14.9131 9.42101 18.1143 6.21979L17.5486 5.65411ZM29.7473 0.6C25.0101 0.6 20.8997 2.30295 17.5486 5.65411L18.1143 6.21979C21.3155 3.0186 25.2223 1.4 29.7473 1.4V0.6ZM41.9459 5.65353C38.5942 2.30295 34.4834 0.6 29.7473 0.6V1.4C34.2711 1.4 38.1786 3.0186 41.3803 6.21931L41.9459 5.65353ZM47.0006 17.8523C47.0006 13.1166 45.2976 9.00579 41.946 5.6536L41.3802 6.21924C44.582 9.42152 46.2006 13.329 46.2006 17.8523H47.0006ZM41.9465 30.0509C45.2971 26.6998 47.0006 22.5895 47.0006 17.8523H46.2006C46.2006 22.3771 44.5815 26.284 41.3808 29.4853L41.9465 30.0509ZM21.0141 9.11908C23.453 6.68019 26.3002 5.50042 29.7473 5.50042V4.70042C26.0879 4.70042 23.0372 5.96457 20.4484 8.55339L21.0141 9.11908ZM17.3944 17.8523C17.3944 14.4063 18.5746 11.5585 21.0141 9.11908L20.4484 8.55339C17.8591 11.1427 16.5944 14.1939 16.5944 17.8523H17.3944ZM21.0141 26.5859C18.5746 24.147 17.3944 21.2993 17.3944 17.8523H16.5944C16.5944 21.5117 17.8591 24.5629 20.4484 27.1517L21.0141 26.5859ZM29.7473 30.2051C26.3013 30.2051 23.4541 29.0249 21.014 26.5859L20.4485 27.1517C23.0383 29.7404 26.0889 31.0051 29.7473 31.0051V30.2051ZM38.481 26.586C36.0416 29.0254 33.1938 30.2051 29.7473 30.2051V31.0051C33.4061 31.0051 36.4573 29.741 39.0467 27.1516L38.481 26.586ZM42.1002 17.8523C42.1002 21.2993 40.9199 24.1465 38.481 26.586L39.0467 27.1516C41.6354 24.5623 42.9002 21.5117 42.9002 17.8523H42.1002ZM38.481 9.11905C40.9199 11.5585 42.1002 14.4063 42.1002 17.8523H42.9002C42.9002 14.1939 41.6354 11.1427 39.0467 8.55342L38.481 9.11905ZM29.7473 5.50042C33.1938 5.50042 36.0416 6.68019 38.481 9.11911L39.0466 8.55336C36.4573 5.96457 33.4061 4.70042 29.7473 4.70042V5.50042ZM13.3429 71.3714H42.8367V70.5714H13.3429V71.3714ZM4.175 68.0181C6.52294 70.2525 9.6193 71.3714 13.3429 71.3714V70.5714C9.78815 70.5714 6.90123 69.5081 4.72648 67.4386L4.175 68.0181ZM0.6 58.9382C0.6 62.6817 1.7935 65.7499 4.17487 68.018L4.72661 67.4387C2.5287 65.3454 1.4 62.4997 1.4 58.9382H0.6ZM0.740829 54.7785C0.647267 56.1244 0.6 57.5243 0.6 58.9382H1.4C1.4 57.5419 1.44669 56.1605 1.5389 54.834L0.740829 54.7785ZM1.31311 50.3126C1.02907 51.8931 0.836452 53.3955 0.740819 54.7787L1.53891 54.8338C1.63226 53.4838 1.8208 52.0105 2.1005 50.4541L1.31311 50.3126ZM2.41271 45.8168C1.96955 47.2026 1.59985 48.7151 1.3131 50.3127L2.10051 50.454C2.38177 48.8871 2.74343 47.409 3.17469 46.0605L2.41271 45.8168ZM4.27323 41.5947C3.50046 42.9551 2.87417 44.3753 2.41275 45.8167L3.17466 46.0606C3.61863 44.6737 4.2223 43.3041 4.96884 41.9899L4.27323 41.5947ZM7.0991 37.9127C6.02824 38.9374 5.07828 40.1772 4.27321 41.5948L4.96886 41.9898C5.73968 40.6325 6.64322 39.4562 7.65219 38.4907L7.0991 37.9127ZM11.1874 35.3426C9.60558 35.9689 8.2285 36.832 7.09911 37.9127L7.65219 38.4907C8.69979 37.4883 9.98657 36.6784 11.4818 36.0864L11.1874 35.3426ZM16.3874 34.399C14.5228 34.399 12.7725 34.7147 11.1873 35.3426L11.4819 36.0864C12.9642 35.4993 14.6133 35.199 16.3874 35.199V34.399ZM19.3438 35.6255C18.0081 34.7552 17.2298 34.399 16.3874 34.399V35.199C16.9735 35.199 17.5768 35.429 18.9071 36.2958L19.3438 35.6255ZM22.1969 37.4643C21.1358 36.7862 20.1759 36.1676 19.3438 35.6255L18.9071 36.2958C19.7416 36.8395 20.7036 37.4594 21.7661 38.1384L22.1969 37.4643ZM25.7938 39.0467C24.28 38.5578 23.0726 38.0232 22.1967 37.4641L21.7663 38.1385C22.7204 38.7474 23.9975 39.3072 25.5479 39.808L25.7938 39.0467ZM30.1866 39.7571C28.7314 39.7571 27.2536 39.5188 25.7939 39.0468L25.5478 39.808C27.083 40.3044 28.6438 40.5571 30.1866 40.5571V39.7571ZM34.5792 39.0468C33.1207 39.5188 31.6429 39.7571 30.1866 39.7571V40.5571C31.7305 40.5571 33.2913 40.3044 34.8255 39.808L34.5792 39.0468ZM38.1795 37.4634C37.3017 38.0227 36.0947 38.5573 34.5794 39.0468L34.8253 39.808C36.3775 39.3067 37.6539 38.7469 38.6093 38.1381L38.1795 37.4634ZM41.0293 35.6261C40.2095 36.1607 39.2502 36.7793 38.179 37.4637L38.6098 38.1378C39.6825 37.4524 40.644 36.8325 41.4663 36.2962L41.0293 35.6261ZM43.9869 34.3995C43.1445 34.3995 42.3662 34.7557 41.0295 35.6259L41.466 36.2964C42.7975 35.4295 43.4008 35.1995 43.9869 35.1995V34.3995ZM49.1874 35.342C47.6017 34.7147 45.8509 34.3995 43.9869 34.3995V35.1995C45.7605 35.1995 47.4103 35.4993 48.8931 36.0859L49.1874 35.342ZM52.6258 37.337C51.632 36.5221 50.4783 35.8537 49.1876 35.3421L48.8929 36.0859C50.1133 36.5696 51.1939 37.1975 52.1186 37.9556L52.6258 37.337ZM52.2795 37.2572C50.5234 37.6756 48.8559 38.3221 47.3101 39.1637L47.6926 39.8663C49.1773 39.058 50.7786 38.4372 52.4649 38.0354L52.2795 37.2572ZM44.2901 39.3035C45.4167 39.3336 46.4453 39.5317 47.3557 39.8875L47.6469 39.1424C46.6398 38.7487 45.5182 38.5361 44.3115 38.5038L44.2901 39.3035ZM43.7054 39.7311C44.1124 39.4663 44.3578 39.3264 44.4886 39.2569L44.113 38.5505C43.9566 38.6337 43.6906 38.7863 43.2691 39.0606L43.7054 39.7311ZM40.8162 41.5939C41.916 40.8909 42.8615 40.2816 43.7058 39.7309L43.2687 39.0609C42.4271 39.6098 41.4838 40.2177 40.3853 40.9198L40.8162 41.5939ZM36.0868 43.7098C37.9735 43.1002 39.5665 42.3907 40.8158 41.5941L40.3857 40.9196C39.2104 41.669 37.6846 42.3528 35.8408 42.9486L36.0868 43.7098ZM30.1872 44.6576C32.1593 44.6576 34.1445 44.3377 36.0869 43.7098L35.8408 42.9486C33.9747 43.5518 32.0725 43.8576 30.1872 43.8576V44.6576ZM24.2869 43.7093C26.2303 44.3377 28.2149 44.6576 30.1872 44.6576V43.8576C28.3018 43.8576 26.4001 43.5518 24.533 42.9481L24.2869 43.7093ZM19.5606 41.5952C20.8084 42.3907 22.4018 43.1007 24.2871 43.7093L24.5328 42.948C22.6908 42.3534 21.1645 41.669 19.9907 40.9206L19.5606 41.5952ZM16.6687 39.731C17.5128 40.2811 18.4854 40.9085 19.5604 41.595L19.991 40.9208C18.9178 40.2354 17.9472 39.6093 17.1055 39.0608L16.6687 39.731ZM15.8857 39.2569C16.0167 39.3265 16.2621 39.4659 16.6686 39.7309L17.1056 39.0608C16.6835 38.7857 16.4175 38.6335 16.2613 38.5505L15.8857 39.2569ZM12.9915 39.8986C13.9082 39.5358 14.9465 39.334 16.0842 39.3035L16.0628 38.5038C14.8441 38.5364 13.7118 38.7531 12.6971 39.1548L12.9915 39.8986ZM10.4875 41.4529C11.1479 40.8206 11.9881 40.2957 12.9915 39.8986L12.6971 39.1547C11.6121 39.5841 10.68 40.161 9.93424 40.875L10.4875 41.4529ZM8.53372 44.0154C9.10946 43.0031 9.76773 42.142 10.4875 41.4529L9.93425 40.875C9.15072 41.6252 8.44663 42.5503 7.83831 43.6199L8.53372 44.0154ZM7.07968 47.3109C7.43765 46.1932 7.92652 45.0845 8.53384 44.0152L7.8382 43.6201C7.20486 44.7353 6.69332 45.8944 6.3178 47.0669L7.07968 47.3109ZM6.13633 51.1785C6.38617 49.7878 6.70355 48.486 7.0797 47.3108L6.31778 47.0669C5.92947 48.2801 5.60411 49.6166 5.34893 51.0371L6.13633 51.1785ZM5.62919 55.1173C5.71238 53.9148 5.88273 52.59 6.13633 51.1785L5.34894 51.0371C5.09111 52.472 4.91661 53.826 4.8311 55.0621L5.62919 55.1173ZM5.50042 58.9382C5.50042 57.6357 5.54338 56.3504 5.62918 55.1175L4.83111 55.0619C4.74394 56.3145 4.70042 57.6184 4.70042 58.9382H5.50042ZM7.55375 64.4684C6.18634 63.1667 5.50042 61.3782 5.50042 58.9382H4.70042C4.70042 61.5397 5.43879 63.5596 7.00216 65.0478L7.55375 64.4684ZM13.3429 66.471C10.8307 66.471 8.95535 65.8023 7.55372 64.4683L7.00219 65.0478C8.58793 66.5571 10.6801 67.271 13.3429 67.271V66.471ZM39.7229 66.471H13.3429V67.271H39.7229V66.471ZM39.3758 67.0698C40.2521 68.6003 41.3219 70.0056 42.5519 71.2524L43.1214 70.6905C41.9396 69.4926 40.9118 68.1424 40.07 66.6723L39.3758 67.0698Z" fill="#232323"/>
<path fill-rule="evenodd" clip-rule="evenodd" d="M53.0243 46.2438C53.0243 47.2209 52.2322 48.0129 51.2551 48.0129C50.278 48.0129 49.4859 47.2209 49.4859 46.2438C49.4859 45.2667 50.278 44.4746 51.2551 44.4746C52.2322 44.4746 53.0243 45.2667 53.0243 46.2438ZM49.9281 65.7059H47.2742C46.5417 65.7059 45.9473 66.3004 45.9473 67.0329C45.9473 67.7654 46.5417 68.3599 47.2742 68.3599H51.2551H55.236C55.9685 68.3599 56.5629 67.7654 56.5629 67.0329C56.5629 66.3004 55.9685 65.7059 55.236 65.7059H52.5821V52.8786C52.5821 52.1461 51.9876 51.5516 51.2551 51.5516H48.159C47.4265 51.5516 46.832 52.1461 46.832 52.8786C46.832 53.6111 47.4265 54.2055 48.159 54.2055H49.9281V65.7059Z" fill="#232323"/>
<path d="M49.9281 65.7059V66.1059H50.3281V65.7059H49.9281ZM52.5821 65.7059H52.1821V66.1059H52.5821V65.7059ZM49.9281 54.2055H50.3281V53.8055H49.9281V54.2055ZM51.2551 48.4129C52.4531 48.4129 53.4243 47.4418 53.4243 46.2438H52.6243C52.6243 46.9999 52.0113 47.6129 51.2551 47.6129V48.4129ZM49.0859 46.2438C49.0859 47.4418 50.0571 48.4129 51.2551 48.4129V47.6129C50.4989 47.6129 49.8859 46.9999 49.8859 46.2438H49.0859ZM51.2551 44.0746C50.0571 44.0746 49.0859 45.0458 49.0859 46.2438H49.8859C49.8859 45.4876 50.4989 44.8746 51.2551 44.8746V44.0746ZM53.4243 46.2438C53.4243 45.0458 52.4531 44.0746 51.2551 44.0746V44.8746C52.0113 44.8746 52.6243 45.4876 52.6243 46.2438H53.4243ZM47.2742 66.1059H49.9281V65.3059H47.2742V66.1059ZM46.3473 67.0329C46.3473 66.5213 46.7627 66.1059 47.2742 66.1059V65.3059C46.3208 65.3059 45.5473 66.0795 45.5473 67.0329H46.3473ZM47.2742 67.9599C46.7627 67.9599 46.3473 67.5445 46.3473 67.0329H45.5473C45.5473 67.9863 46.3208 68.7599 47.2742 68.7599V67.9599ZM51.2551 67.9599H47.2742V68.7599H51.2551V67.9599ZM55.236 67.9599H51.2551V68.7599H55.236V67.9599ZM56.1629 67.0329C56.1629 67.5445 55.7475 67.9599 55.236 67.9599V68.7599C56.1894 68.7599 56.9629 67.9863 56.9629 67.0329H56.1629ZM55.236 66.1059C55.7475 66.1059 56.1629 66.5213 56.1629 67.0329H56.9629C56.9629 66.0795 56.1894 65.3059 55.236 65.3059V66.1059ZM52.5821 66.1059H55.236V65.3059H52.5821V66.1059ZM52.9821 65.7059V52.8786H52.1821V65.7059H52.9821ZM52.9821 52.8786C52.9821 51.9252 52.2085 51.1516 51.2551 51.1516V51.9516C51.7667 51.9516 52.1821 52.367 52.1821 52.8786H52.9821ZM51.2551 51.1516H48.159V51.9516H51.2551V51.1516ZM48.159 51.1516C47.2056 51.1516 46.432 51.9252 46.432 52.8786H47.232C47.232 52.367 47.6474 51.9516 48.159 51.9516V51.1516ZM46.432 52.8786C46.432 53.832 47.2056 54.6055 48.159 54.6055V53.8055C47.6474 53.8055 47.232 53.3901 47.232 52.8786H46.432ZM48.159 54.6055H49.9281V53.8055H48.159V54.6055ZM49.5281 54.2055V65.7059H50.3281V54.2055H49.5281Z" fill="#232323"/>
</svg>
