<svg width="22" height="22" viewBox="0 0 22 22" fill="none" xmlns="http://www.w3.org/2000/svg">
<path fill-rule="evenodd" clip-rule="evenodd" d="M15.3738 12.7301C15.897 12.7301 16.3907 12.9579 16.7999 13.3841L19.1164 15.709C19.5426 16.1309 19.7662 16.633 19.7662 17.1562C19.7662 17.6752 19.5468 18.1816 19.1291 18.6162C18.9476 18.806 18.762 18.9875 18.5805 19.1605C18.5608 19.1795 18.5412 19.1985 18.5217 19.2174C18.2774 19.4536 18.0453 19.678 17.8421 19.9242C17.84 19.9284 17.8369 19.9316 17.8337 19.9347C17.8305 19.9379 17.8274 19.9411 17.8253 19.9453C17.1839 20.6415 16.3653 20.9917 15.3907 20.9917C15.3063 20.9917 15.2134 20.9875 15.1248 20.9833C13.6776 20.8904 12.3822 20.3461 11.4118 19.8862C8.87167 18.6584 6.64804 16.9157 4.79994 14.709C3.27674 12.8778 2.25564 11.1689 1.5721 9.32503C1.29361 8.57397 0.930745 7.42629 1.03201 6.19422C1.09952 5.43051 1.40754 4.77228 1.94762 4.2322L3.38222 2.78494L3.39066 2.7765C3.8126 2.37144 4.31049 2.15625 4.82526 2.15625C5.34003 2.15625 5.82948 2.37144 6.23876 2.7765C6.51302 3.02967 6.77885 3.29971 7.03201 3.56131C7.15859 3.69633 7.29361 3.83135 7.42441 3.96215L7.42442 3.96216L8.57631 5.11406C9.46239 6.00013 9.46239 7.14781 8.57631 8.03389C8.51724 8.09296 8.45817 8.15309 8.3991 8.21321C8.34003 8.27334 8.28096 8.33347 8.22188 8.39254C8.19177 8.42306 8.16157 8.4537 8.13128 8.48444C7.84755 8.77237 7.5556 9.06863 7.24298 9.35456C7.50036 9.92418 7.8548 10.4854 8.38222 11.152C9.47083 12.4896 10.6059 13.5233 11.8548 14.3166C11.9772 14.3925 12.1206 14.4643 12.2725 14.5402L12.2725 14.5402C12.3083 14.5588 12.3445 14.5774 12.3811 14.5962C12.4524 14.6328 12.5249 14.67 12.5974 14.709L13.9307 13.3799C14.3569 12.9537 14.8548 12.7301 15.3738 12.7301ZM17.892 18.2482C18.0374 18.1068 18.1754 17.9726 18.3105 17.8271C18.7409 17.3799 18.7409 16.9368 18.3063 16.5065L15.9814 14.1816L15.9729 14.1731C15.8421 14.0297 15.6269 13.8651 15.3653 13.8651C15.0995 13.8651 14.8717 14.0381 14.7282 14.1816L13.2852 15.6246C13.2134 15.6963 12.994 15.9157 12.6438 15.9157C12.5046 15.9157 12.3696 15.882 12.2261 15.8103C12.2177 15.806 12.2092 15.8008 12.2008 15.7955C12.1923 15.7902 12.1839 15.7849 12.1755 15.7807C12.0531 15.7048 11.9096 15.633 11.7577 15.5571C11.589 15.4727 11.4118 15.3841 11.2388 15.2744C9.88433 14.4179 8.65648 13.2997 7.49193 11.8651L7.48771 11.8609C6.84636 11.0465 6.42442 10.363 6.12484 9.63726L6.11218 9.59929C6.03623 9.35878 5.96872 9.00435 6.33159 8.64148C6.33431 8.63603 6.3388 8.63234 6.34391 8.62814C6.34671 8.62583 6.3497 8.62337 6.35269 8.62039C6.71977 8.29127 7.05733 7.95372 7.41176 7.59085C7.49318 7.51224 7.57272 7.43176 7.65289 7.35066C7.69321 7.30987 7.73368 7.26892 7.77463 7.22798C8.22188 6.78072 8.22188 6.36722 7.77463 5.91996L6.62273 4.76806C6.55574 4.69899 6.48876 4.63095 6.42229 4.56343C6.35478 4.49485 6.28779 4.42682 6.22188 4.35878C5.9645 4.09296 5.71977 3.84401 5.46239 3.60351L5.44973 3.59085C5.31471 3.45583 5.09952 3.29549 4.8337 3.29549C4.61851 3.29549 4.3991 3.40098 4.19235 3.59507L2.75353 5.03389C2.40332 5.3841 2.21345 5.79338 2.17125 6.28705C2.10796 7.0592 2.25142 7.87777 2.64383 8.9284C3.28096 10.6499 4.24298 12.2533 5.6818 13.9875C7.42442 16.0676 9.52146 17.709 11.9096 18.8651C12.7831 19.2828 13.9476 19.7723 15.2008 19.8525C15.2641 19.8567 15.3316 19.8567 15.3949 19.8567C16.0531 19.8567 16.5552 19.6415 16.9814 19.1858C17.243 18.8778 17.5215 18.6035 17.7957 18.3419C17.8282 18.3102 17.8603 18.279 17.892 18.2482Z" fill="#232323"/>
<path d="M16.7999 13.3841L16.5475 13.6266L16.552 13.6311L16.7999 13.3841ZM19.1164 15.709L18.8685 15.956L18.8701 15.9577L19.1164 15.709ZM19.1291 18.6162L18.8767 18.3736L18.876 18.3744L19.1291 18.6162ZM18.5805 19.1605L18.339 18.9072L18.3371 18.909L18.5805 19.1605ZM18.5217 19.2174L18.765 19.469L18.765 19.469L18.5217 19.2174ZM17.8421 19.9242L17.5722 19.7014L17.5469 19.7321L17.5291 19.7677L17.8421 19.9242ZM17.8337 19.9347L17.5862 19.6872L17.5861 19.6873L17.8337 19.9347ZM17.8253 19.9453L18.0827 20.1824L18.1162 20.146L18.1383 20.1018L17.8253 19.9453ZM15.1248 20.9833L15.1024 21.3326L15.1082 21.3329L15.1248 20.9833ZM11.4118 19.8862L11.2594 20.2013L11.2619 20.2025L11.4118 19.8862ZM4.79994 14.709L4.53086 14.9328L4.53161 14.9337L4.79994 14.709ZM1.5721 9.32503L1.90027 9.20337L1.90026 9.20335L1.5721 9.32503ZM1.03201 6.19422L0.683364 6.16341L0.683187 6.16555L1.03201 6.19422ZM1.94762 4.2322L2.19511 4.47969L2.19619 4.4786L1.94762 4.2322ZM3.38222 2.78494L3.13473 2.53745L3.13365 2.53854L3.38222 2.78494ZM3.39066 2.7765L3.14822 2.52396L3.14317 2.52902L3.39066 2.7765ZM6.23876 2.7765L5.99241 3.02542L6.00136 3.03368L6.23876 2.7765ZM7.03201 3.56131L7.28738 3.3219L7.28352 3.31792L7.03201 3.56131ZM7.42441 3.96215L7.17679 4.20977L7.18503 4.21749L7.42441 3.96215ZM7.42442 3.96216L7.67203 3.71454L7.66379 3.70682L7.42442 3.96216ZM8.57631 5.11406L8.32883 5.36154L8.32883 5.36154L8.57631 5.11406ZM8.57631 8.03389L8.8238 8.28138L8.8238 8.28137L8.57631 8.03389ZM8.22188 8.39254L7.97439 8.14504L7.97274 8.14672L8.22188 8.39254ZM8.13128 8.48444L8.38058 8.73011L8.38058 8.73011L8.13128 8.48444ZM7.24298 9.35456L7.00676 9.0963L6.81957 9.26751L6.92403 9.49868L7.24298 9.35456ZM8.38222 11.152L8.10771 11.3692L8.11076 11.373L8.38222 11.152ZM11.8548 14.3166L11.6671 14.612L11.6702 14.614L11.8548 14.3166ZM12.2725 14.5402L12.116 14.8533L12.116 14.8533L12.2725 14.5402ZM12.2725 14.5402L12.434 14.2297L12.429 14.2272L12.2725 14.5402ZM12.3811 14.5962L12.2214 14.9076L12.2214 14.9076L12.3811 14.5962ZM12.5974 14.709L12.4315 15.0172L12.6604 15.1404L12.8445 14.9569L12.5974 14.709ZM13.9307 13.3799L14.1778 13.6278L14.1782 13.6274L13.9307 13.3799ZM18.3105 17.8271L18.0583 17.5844L18.054 17.589L18.3105 17.8271ZM17.892 18.2482L18.1359 18.4991L18.1359 18.4991L17.892 18.2482ZM18.3063 16.5065L18.0588 16.754L18.06 16.7552L18.3063 16.5065ZM15.9729 14.1731L15.7143 14.4089L15.7197 14.4149L15.7255 14.4206L15.9729 14.1731ZM14.7282 14.1816L14.4807 13.9341L14.4807 13.9341L14.7282 14.1816ZM13.2852 15.6246L13.0377 15.3771L13.0377 15.3771L13.2852 15.6246ZM12.2261 15.8103L12.0696 16.1233L12.0696 16.1233L12.2261 15.8103ZM12.2008 15.7955L12.3863 15.4987L12.3863 15.4987L12.2008 15.7955ZM12.1755 15.7807L11.9909 16.0781L12.0046 16.0866L12.0189 16.0938L12.1755 15.7807ZM11.7577 15.5571L11.9143 15.244L11.9143 15.244L11.7577 15.5571ZM11.2388 15.2744L11.4262 14.9788L11.4258 14.9786L11.2388 15.2744ZM7.49193 11.8651L7.76366 11.6445L7.75224 11.6304L7.73941 11.6176L7.49193 11.8651ZM7.48771 11.8609L7.21274 12.0774L7.22557 12.0937L7.24022 12.1084L7.48771 11.8609ZM6.12484 9.63726L5.7928 9.74794L5.79666 9.75952L5.80132 9.77081L6.12484 9.63726ZM6.11218 9.59929L5.77838 9.7047L5.78014 9.70997L6.11218 9.59929ZM6.33159 8.64148L6.57908 8.88897L6.61924 8.8488L6.64464 8.798L6.33159 8.64148ZM6.34391 8.62814L6.12152 8.35787L6.12151 8.35788L6.34391 8.62814ZM6.35269 8.62039L6.11905 8.35979L6.11194 8.36615L6.1052 8.3729L6.35269 8.62039ZM7.41176 7.59085L7.16855 7.33895L7.16138 7.34629L7.41176 7.59085ZM7.65289 7.35066L7.40397 7.10461L7.40397 7.10461L7.65289 7.35066ZM7.77463 7.22798L7.52714 6.98049H7.52714L7.77463 7.22798ZM7.77463 5.91996L7.52714 6.16745H7.52714L7.77463 5.91996ZM6.62273 4.76806L6.37143 5.01174L6.37524 5.01555L6.62273 4.76806ZM6.42229 4.56343L6.6717 4.31788L6.6717 4.31788L6.42229 4.56343ZM6.22188 4.35878L5.97044 4.60225L5.9705 4.60231L6.22188 4.35878ZM5.46239 3.60351L5.21476 3.85114L5.22343 3.85924L5.46239 3.60351ZM5.44973 3.59085L5.69722 3.34336L5.69722 3.34336L5.44973 3.59085ZM4.19235 3.59507L3.95268 3.33977L3.94486 3.34758L4.19235 3.59507ZM2.75353 5.03389L3.00102 5.28137H3.00102L2.75353 5.03389ZM2.17125 6.28705L1.82252 6.25725L1.82242 6.25846L2.17125 6.28705ZM2.64383 8.9284L2.97207 8.80692L2.9717 8.80594L2.64383 8.9284ZM5.6818 13.9875L5.41244 14.211L5.4135 14.2122L5.6818 13.9875ZM11.9096 18.8651L11.7571 19.1801L11.7586 19.1809L11.9096 18.8651ZM15.2008 19.8525L15.2241 19.5032L15.2231 19.5032L15.2008 19.8525ZM16.9814 19.1858L17.237 19.4248L17.2427 19.4187L17.2481 19.4124L16.9814 19.1858ZM17.7957 18.3419L18.0373 18.5952L18.0403 18.5923L17.7957 18.3419ZM17.0524 13.1417C16.5872 12.6573 16.0059 12.3801 15.3738 12.3801V13.0801C15.7881 13.0801 16.1941 13.2586 16.5475 13.6265L17.0524 13.1417ZM19.3643 15.462L17.0479 13.1371L16.552 13.6311L18.8685 15.956L19.3643 15.462ZM20.1162 17.1562C20.1162 16.5269 19.8456 15.9384 19.3627 15.4603L18.8701 15.9577C19.2396 16.3235 19.4162 16.7392 19.4162 17.1562H20.1162ZM19.3814 18.8587C19.8517 18.3694 20.1162 17.7793 20.1162 17.1562H19.4162C19.4162 17.5712 19.2419 17.9937 18.8767 18.3736L19.3814 18.8587ZM18.8221 19.4138C19.0055 19.2389 19.1954 19.0533 19.3821 18.858L18.876 18.3744C18.6998 18.5587 18.5185 18.736 18.339 18.9072L18.8221 19.4138ZM18.765 19.469C18.7845 19.4501 18.8042 19.4311 18.824 19.4119L18.3371 18.909C18.3175 18.928 18.2979 18.9469 18.2784 18.9658L18.765 19.469ZM18.1121 20.147C18.3005 19.9186 18.518 19.7078 18.765 19.469L18.2784 18.9658C18.0368 19.1994 17.7901 19.4375 17.5722 19.7014L18.1121 20.147ZM18.0812 20.1822C18.0815 20.1819 18.0849 20.1785 18.0886 20.1746C18.0927 20.1704 18.0987 20.164 18.1055 20.1559C18.1194 20.1395 18.1383 20.1144 18.1552 20.0807L17.5291 19.7677C17.5438 19.7382 17.5601 19.7168 17.5711 19.7038C17.5806 19.6925 17.5895 19.684 17.5862 19.6872L18.0812 20.1822ZM18.1383 20.1018C18.1236 20.1313 18.1073 20.1527 18.0963 20.1657C18.0868 20.1769 18.0779 20.1855 18.0813 20.1821L17.5861 19.6873C17.5858 19.6877 17.5824 19.691 17.5787 19.6949C17.5747 19.6991 17.5687 19.7055 17.5619 19.7135C17.548 19.73 17.5291 19.755 17.5122 19.7888L18.1383 20.1018ZM15.3907 21.3417C16.4592 21.3417 17.3724 20.9534 18.0827 20.1824L17.5678 19.7081C16.9954 20.3296 16.2715 20.6417 15.3907 20.6417V21.3417ZM15.1082 21.3329C15.1957 21.337 15.2967 21.3417 15.3907 21.3417V20.6417C15.3159 20.6417 15.2312 20.6379 15.1415 20.6336L15.1082 21.3329ZM11.2619 20.2025C12.2407 20.6663 13.5859 21.2353 15.1024 21.3325L15.1472 20.634C13.7692 20.5456 12.5238 20.0259 11.5616 19.5699L11.2619 20.2025ZM4.53161 14.9337C6.41079 17.1776 8.67366 18.9514 11.2594 20.2013L11.5641 19.5711C9.06968 18.3653 6.8853 16.6539 5.06827 14.4843L4.53161 14.9337ZM1.24392 9.44668C1.94364 11.3342 2.98716 13.0769 4.53086 14.9328L5.06902 14.4852C3.56632 12.6786 2.56764 11.0036 1.90027 9.20337L1.24392 9.44668ZM0.683187 6.16555C0.575381 7.47719 0.961424 8.6848 1.24393 9.44671L1.90026 9.20335C1.6258 8.46314 1.28611 7.3754 1.38083 6.2229L0.683187 6.16555ZM1.70014 3.98471C1.10198 4.58287 0.758122 5.31778 0.68337 6.16341L1.38065 6.22504C1.44092 5.54324 1.7131 4.9617 2.19511 4.47969L1.70014 3.98471ZM3.13365 2.53854L1.69905 3.9858L2.19619 4.4786L3.63079 3.03134L3.13365 2.53854ZM3.14317 2.52902L3.13473 2.53745L3.62971 3.03243L3.63815 3.02399L3.14317 2.52902ZM4.82526 1.80625C4.20769 1.80625 3.62583 2.06556 3.14827 2.52402L3.63305 3.02899C3.99937 2.67731 4.41329 2.50625 4.82526 2.50625V1.80625ZM6.48496 2.52774C6.01885 2.06643 5.44378 1.80625 4.82526 1.80625V2.50625C5.23627 2.50625 5.64011 2.67645 5.99256 3.02527L6.48496 2.52774ZM7.28352 3.31792C7.02952 3.05544 6.75803 2.77951 6.47616 2.51932L6.00136 3.03368C6.26802 3.27982 6.52818 3.54398 6.7805 3.80471L7.28352 3.31792ZM7.6719 3.71466C7.54037 3.58314 7.40941 3.45213 7.28735 3.32193L6.77667 3.80069C6.90778 3.94054 7.04685 4.07957 7.17692 4.20964L7.6719 3.71466ZM7.66379 3.70682L7.66379 3.70681L7.18503 4.21749L7.18504 4.2175L7.66379 3.70682ZM8.8238 4.86657L7.6719 3.71467L7.17693 4.20964L8.32883 5.36154L8.8238 4.86657ZM8.8238 8.28137C9.32127 7.78391 9.59087 7.18997 9.59087 6.57397C9.59087 5.95797 9.32127 5.36403 8.8238 4.86657L8.32883 5.36154C8.71744 5.75016 8.89087 6.1731 8.89087 6.57397C8.89087 6.97485 8.71744 7.39779 8.32883 7.7864L8.8238 8.28137ZM8.64877 8.4585C8.70803 8.39818 8.76601 8.33917 8.8238 8.28138L8.32883 7.7864C8.26848 7.84675 8.20831 7.90799 8.14943 7.96793L8.64877 8.4585ZM8.46937 8.64003C8.52972 8.57967 8.58988 8.51843 8.64877 8.4585L8.14943 7.96793C8.09017 8.02824 8.03219 8.08726 7.9744 8.14505L8.46937 8.64003ZM8.38058 8.73011C8.41088 8.69936 8.441 8.66879 8.47103 8.63836L7.97274 8.14672C7.94253 8.17733 7.91226 8.20805 7.88198 8.23878L8.38058 8.73011ZM7.4792 9.61283C7.79959 9.31979 8.09778 9.01709 8.38058 8.73011L7.88199 8.23878C7.59732 8.52765 7.31161 8.81747 7.00676 9.0963L7.4792 9.61283ZM8.65671 10.9349C8.14151 10.2837 7.80436 9.74696 7.56193 9.21044L6.92403 9.49868C7.19637 10.1014 7.56808 10.6871 8.10774 11.3692L8.65671 10.9349ZM12.0424 14.0211C10.8299 13.251 9.72231 12.2441 8.65368 10.9311L8.11076 11.373C9.21934 12.7351 10.3818 13.7956 11.6671 14.612L12.0424 14.0211ZM12.429 14.2272C12.2734 14.1493 12.1454 14.085 12.0394 14.0192L11.6702 14.614C11.8089 14.7001 11.9678 14.7792 12.116 14.8533L12.429 14.2272ZM12.429 14.2272L12.429 14.2272L12.116 14.8533L12.116 14.8533L12.429 14.2272ZM12.5409 14.2848C12.5042 14.2659 12.4688 14.2478 12.434 14.2297L12.111 14.8507C12.1478 14.8699 12.1849 14.8889 12.2214 14.9076L12.5409 14.2848ZM12.7633 14.4008C12.6873 14.3599 12.6117 14.3211 12.5409 14.2848L12.2214 14.9076C12.2931 14.9444 12.3625 14.98 12.4315 15.0172L12.7633 14.4008ZM13.6837 13.132L12.3503 14.4611L12.8445 14.9569L14.1778 13.6278L13.6837 13.132ZM15.3738 12.3801C14.7473 12.3801 14.1639 12.6518 13.6833 13.1324L14.1782 13.6274C14.5499 13.2557 14.9623 13.0801 15.3738 13.0801V12.3801ZM18.054 17.589C17.926 17.7269 17.7945 17.8548 17.648 17.9972L18.1359 18.4991C18.2804 18.3587 18.4248 18.2184 18.567 18.0653L18.054 17.589ZM18.06 16.7552C18.2368 16.9303 18.2825 17.0648 18.2827 17.1613C18.283 17.2595 18.2364 17.3994 18.0583 17.5845L18.5627 18.0698C18.815 17.8077 18.9836 17.5024 18.9827 17.1596C18.9819 16.8152 18.8103 16.513 18.5525 16.2578L18.06 16.7552ZM15.7339 14.4291L18.0588 16.7539L18.5538 16.259L16.2289 13.9341L15.7339 14.4291ZM15.7255 14.4206L15.7339 14.4291L16.2289 13.9341L16.2204 13.9256L15.7255 14.4206ZM15.3653 14.2151C15.4812 14.2151 15.6093 14.2937 15.7143 14.4089L16.2316 13.9373C16.075 13.7656 15.7727 13.5151 15.3653 13.5151V14.2151ZM14.9757 14.4291C15.0332 14.3716 15.1011 14.315 15.1733 14.2742C15.2452 14.2335 15.3092 14.2151 15.3653 14.2151V13.5151C14.9542 13.5151 14.6398 13.775 14.4807 13.9341L14.9757 14.4291ZM13.5327 15.8721L14.9757 14.4291L14.4807 13.9341L13.0377 15.3771L13.5327 15.8721ZM12.6438 16.2657C13.1463 16.2657 13.4548 15.9499 13.5327 15.8721L13.0377 15.3771C12.9721 15.4427 12.8418 15.5657 12.6438 15.5657V16.2657ZM12.0696 16.1233C12.255 16.216 12.4433 16.2657 12.6438 16.2657V15.5657C12.5659 15.5657 12.4841 15.5479 12.3826 15.4972L12.0696 16.1233ZM12.0153 16.0923C12.0208 16.0957 12.0436 16.1103 12.0696 16.1233L12.3826 15.4972C12.3885 15.5001 12.3921 15.5023 12.3921 15.5023C12.3923 15.5024 12.392 15.5022 12.3909 15.5016C12.3898 15.5009 12.3885 15.5001 12.3863 15.4987L12.0153 16.0923ZM12.0189 16.0938C12.0131 16.0908 12.0095 16.0887 12.0094 16.0887C12.0093 16.0886 12.0096 16.0888 12.0106 16.0894C12.0118 16.0901 12.0131 16.0909 12.0153 16.0923L12.3863 15.4987C12.3808 15.4952 12.358 15.4807 12.332 15.4677L12.0189 16.0938ZM11.6012 15.8701C11.7569 15.948 11.8849 16.0123 11.9909 16.0781L12.36 15.4833C12.2213 15.3973 12.0624 15.3181 11.9143 15.244L11.6012 15.8701ZM11.0513 15.57C11.2416 15.6907 11.4345 15.7868 11.6012 15.8701L11.9143 15.244C11.7434 15.1586 11.5819 15.0775 11.4262 14.9788L11.0513 15.57ZM7.22019 12.0857C8.405 13.5453 9.66054 14.6904 11.0517 15.5702L11.4258 14.9786C10.1081 14.1453 8.90796 13.0542 7.76366 11.6445L7.22019 12.0857ZM7.24022 12.1084L7.24444 12.1126L7.73941 11.6176L7.73519 11.6134L7.24022 12.1084ZM5.80132 9.77081C6.11672 10.5349 6.55815 11.2463 7.21274 12.0774L7.76267 11.6443C7.13456 10.8468 6.73211 10.1911 6.44836 9.50372L5.80132 9.77081ZM5.78014 9.70997L5.7928 9.74794L6.45688 9.52658L6.44422 9.48861L5.78014 9.70997ZM6.0841 8.39399C5.84998 8.62812 5.73821 8.87932 5.70965 9.12603C5.68219 9.36326 5.73531 9.56816 5.77843 9.70468L6.44593 9.49389C6.4131 9.38991 6.39449 9.29734 6.40501 9.20652C6.41442 9.12516 6.45033 9.01772 6.57908 8.88897L6.0841 8.39399ZM6.12151 8.35788C6.12089 8.35839 6.11623 8.3622 6.11119 8.36656C6.10578 8.37124 6.09732 8.37878 6.08768 8.38855C6.06767 8.40884 6.04075 8.44052 6.01853 8.48497L6.64464 8.798C6.62515 8.83699 6.60184 8.8641 6.58602 8.88014C6.57306 8.89328 6.56076 8.90296 6.5663 8.8984L6.12151 8.35788ZM6.1052 8.3729C6.11099 8.3671 6.11586 8.36276 6.11882 8.36019C6.12135 8.35799 6.12337 8.35635 6.12152 8.35787L6.56629 8.89841C6.568 8.897 6.58354 8.88451 6.60017 8.86787L6.1052 8.3729ZM7.16138 7.34629C6.8083 7.70777 6.47726 8.03862 6.11905 8.35979L6.58633 8.88098C6.96229 8.54392 7.30635 8.19967 7.66214 7.83541L7.16138 7.34629ZM7.40397 7.10461C7.32332 7.1862 7.24664 7.26376 7.16865 7.33906L7.65486 7.84264C7.73971 7.76072 7.82213 7.67732 7.90181 7.5967L7.40397 7.10461ZM7.52714 6.98049C7.48536 7.02227 7.44418 7.06394 7.40397 7.10461L7.90181 7.5967C7.94224 7.5558 7.98201 7.51558 8.02211 7.47547L7.52714 6.98049ZM7.52714 6.16745C7.71751 6.35782 7.76007 6.4891 7.76007 6.57397C7.76007 6.65885 7.71751 6.79012 7.52714 6.98049L8.02211 7.47547C8.279 7.21858 8.46007 6.91948 8.46007 6.57397C8.46007 6.22847 8.279 5.92936 8.02211 5.67248L7.52714 6.16745ZM6.37524 5.01555L7.52714 6.16745L8.02211 5.67248L6.87022 4.52058L6.37524 5.01555ZM6.17287 4.80898C6.23949 4.87664 6.30555 4.94374 6.37146 5.01172L6.87399 4.52441C6.80593 4.45423 6.73802 4.38525 6.6717 4.31788L6.17287 4.80898ZM5.9705 4.60231C6.03756 4.67153 6.10554 4.74058 6.17288 4.80898L6.6717 4.31788C6.60402 4.24913 6.53803 4.18211 6.47327 4.11525L5.9705 4.60231ZM5.22343 3.85924C5.47406 4.09343 5.71372 4.33711 5.97044 4.60225L6.47333 4.11532C6.21528 3.84881 5.96549 3.5946 5.70135 3.34778L5.22343 3.85924ZM5.20224 3.83834L5.2149 3.85099L5.70988 3.35602L5.69722 3.34336L5.20224 3.83834ZM4.8337 3.64549C4.95907 3.64549 5.08899 3.72508 5.20225 3.83834L5.69722 3.34336C5.54043 3.18658 5.23998 2.94549 4.8337 2.94549V3.64549ZM4.4319 3.85024C4.5986 3.69375 4.73656 3.64549 4.8337 3.64549V2.94549C4.50045 2.94549 4.1996 3.1082 3.9528 3.33989L4.4319 3.85024ZM3.00102 5.28137L4.43984 3.84256L3.94486 3.34758L2.50604 4.7864L3.00102 5.28137ZM2.51998 6.31686C2.55517 5.90516 2.70934 5.57305 3.00102 5.28137L2.50604 4.7864C2.0973 5.19515 1.87172 5.6816 1.82252 6.25725L2.51998 6.31686ZM2.9717 8.80594C2.59033 7.78485 2.46236 7.01981 2.52008 6.31564L1.82242 6.25846C1.75356 7.0986 1.91251 7.97069 2.31595 9.05086L2.9717 8.80594ZM5.95116 13.764C4.53214 12.0537 3.59279 10.4841 2.97207 8.80692L2.31558 9.04988C2.96912 10.8157 3.95383 12.4529 5.41244 14.211L5.95116 13.764ZM12.0622 18.5501C9.71944 17.416 7.6616 15.8057 5.9501 13.7627L5.4135 14.2122C7.18723 16.3295 9.32348 18.002 11.7571 19.1801L12.0622 18.5501ZM15.2231 19.5032C14.0403 19.4275 12.9263 18.9634 12.0607 18.5494L11.7586 19.1809C12.6398 19.6023 13.855 20.1171 15.1784 20.2017L15.2231 19.5032ZM15.3949 19.5067C15.3293 19.5067 15.2737 19.5065 15.2241 19.5032L15.1775 20.2017C15.2545 20.2068 15.3339 20.2067 15.3949 20.2067V19.5067ZM16.7257 18.9467C16.3686 19.3286 15.9604 19.5067 15.3949 19.5067V20.2067C16.1458 20.2067 16.7418 19.9543 17.237 19.4248L16.7257 18.9467ZM17.5541 18.0886C17.2779 18.3522 16.9885 18.6367 16.7146 18.9592L17.2481 19.4124C17.4974 19.1188 17.765 18.8549 18.0373 18.5952L17.5541 18.0886ZM17.648 17.9972C17.6163 18.028 17.584 18.0595 17.5512 18.0915L18.0403 18.5923C18.0724 18.5609 18.1042 18.53 18.1359 18.4991L17.648 17.9972Z" fill="#232323"/>
<path d="M11.8038 5.75499C12.9093 5.94064 13.9135 6.46385 14.7152 7.26554C15.5169 8.06723 16.0359 9.07144 16.2258 10.1769C16.2722 10.4554 16.5127 10.6495 16.787 10.6495C16.8207 10.6495 16.8502 10.6453 16.884 10.6411C17.1962 10.5904 17.403 10.2951 17.3524 9.98284C17.1245 8.64528 16.4916 7.42587 15.5254 6.45963C14.5591 5.49339 13.3397 4.86047 12.0021 4.63263C11.6899 4.58199 11.3988 4.78874 11.3439 5.09676C11.2891 5.40478 11.4916 5.70436 11.8038 5.75499Z" fill="#232323" stroke="#232323" stroke-width="0.2"/>
<path d="M20.9688 9.81881C20.5933 7.61628 19.5553 5.61206 17.9604 4.01712C16.3655 2.42219 14.3612 1.38421 12.1587 1.00868C11.8507 0.953832 11.5595 1.1648 11.5047 1.47282C11.4541 1.78506 11.6608 2.07619 11.973 2.13105C13.9393 2.46438 15.7325 3.39687 17.1587 4.81881C18.5849 6.24497 19.5131 8.03822 19.8465 10.0045C19.8929 10.2829 20.1334 10.477 20.4076 10.477C20.4414 10.477 20.4709 10.4728 20.5047 10.4686C20.8127 10.4222 21.0237 10.1268 20.9688 9.81881Z" fill="#232323" stroke="#232323" stroke-width="0.2"/>
</svg>
