<svg width="70" height="70" viewBox="0 0 70 70" fill="none" xmlns="http://www.w3.org/2000/svg">
<path fill-rule="evenodd" clip-rule="evenodd" d="M58.8649 15.1795H50.6004V11.8657H62.905C63.3974 11.8657 63.8519 11.6008 64.0944 11.1725C64.3369 10.7442 64.331 10.2181 64.0778 9.79622L61.7638 5.93285L64.0778 2.07001C64.331 1.64757 64.3374 1.12152 64.0944 0.693207C63.8514 0.264893 63.3974 0 62.905 0H49.2332C48.478 0 47.866 0.61203 47.866 1.36719V15.1795H20.7343C15.8439 15.1795 11.5773 18.3347 10.1204 22.9372H2.69806C1.21071 22.9372 0 24.1474 0 25.6353V47.2443C0 48.7317 1.21071 49.9419 2.69806 49.9419H9.59915V55.754C9.59915 56.5086 10.2112 57.1212 10.9663 57.1212H34.6443V68.6328C34.6443 69.388 35.2569 70 36.0115 70H45.7794C46.5346 70 47.1466 69.388 47.1466 68.6328V57.1212H68.6328C69.388 57.1212 70 56.5086 70 55.754V26.3146C70 20.1746 65.005 15.1795 58.8649 15.1795ZM50.6004 2.73438H60.4922L58.9973 5.23056C58.7383 5.66315 58.7383 6.20255 58.9973 6.63513L60.4922 9.13132H50.6004V2.73438ZM28.4258 22.9372C27.1232 19.9818 24.1656 17.9139 20.7343 17.9139C17.3457 17.9139 14.3544 19.9209 13.0374 22.9372H28.4258ZM29.135 42.0148L23.4323 36.4414L29.135 30.8675V42.0148ZM29.1344 26.3146C29.1344 26.0983 29.1264 25.8836 29.1104 25.6716H6.14807L18.3417 37.5934L29.1344 27.0441V26.3146ZM2.73438 26.1581L13.2521 36.4409L2.73438 46.721V26.1581ZM17.3857 40.4826L15.2078 38.3533L6.14861 47.208H29.1344V45.8382L21.4761 38.3533L19.2971 40.4826C19.0317 40.7427 18.6867 40.8725 18.3417 40.8725C17.9967 40.8725 17.6517 40.7422 17.3857 40.4826ZM29.135 49.9419V54.3868H12.3335V49.9419H29.135ZM37.3787 67.2656H44.4122V57.1212H37.3787V67.2656ZM67.2656 54.3868H31.8694V49.9419H56.8157C57.5709 49.9419 58.1829 49.3298 58.1829 48.5747C58.1829 47.8201 57.5709 47.2075 56.8157 47.2075H31.8694V26.3146C31.8694 22.9655 30.3831 19.9567 28.0354 17.9139H47.866V19.6453C45.2603 20.2637 43.3163 22.6104 43.3163 25.4025C43.3163 28.665 45.9706 31.3193 49.2332 31.3193C52.4957 31.3193 55.15 28.665 55.15 25.4025C55.15 22.6104 53.206 20.2637 50.6004 19.6453V17.9139H58.8649C63.4973 17.9139 67.2656 21.6822 67.2656 26.3146V54.3868ZM50.6004 24.447C50.6004 25.2022 49.9883 25.8142 49.2332 25.8142C48.478 25.8142 47.866 25.2022 47.866 24.447V22.5287C46.7936 23.0414 46.0507 24.1367 46.0507 25.4025C46.0507 27.1574 47.4783 28.5849 49.2332 28.5849C50.9875 28.5849 52.4156 27.1574 52.4156 25.4025C52.4156 24.1367 51.6727 23.0414 50.6004 22.5287V24.447Z" fill="#232323"/>
</svg>
