<svg width="28" height="27" viewBox="0 0 28 27" fill="none" xmlns="http://www.w3.org/2000/svg">
<path fill-rule="evenodd" clip-rule="evenodd" d="M3.44501 2.58953C3.39167 2.55759 3.60445 1.85592 3.87556 1.14342C3.90751 1.0637 3.94473 0.999813 3.96056 0.999813C3.97667 0.999813 8.11278 2.4087 13.1525 4.13648L22.3178 7.27315H23.5936C24.2956 7.27315 24.9972 7.29426 25.1514 7.3262C26.1245 7.50704 26.9803 8.36287 27.1664 9.3412C27.2408 9.73454 27.2408 23.5251 27.1664 23.9184C26.9803 24.8968 26.1245 25.7526 25.1514 25.9334C24.7528 26.0079 2.45612 26.0079 2.06806 25.9334C1.08973 25.7473 0.233895 24.8915 0.053062 23.9184C0.0213953 23.7376 6.41458e-06 21.0634 6.41458e-06 16.6084L3.11928e-06 16.2107C-7.71964e-05 9.80807 -8.3866e-05 9.27638 0.201644 8.83739C0.219914 8.79763 0.23984 8.75863 0.26157 8.71609L0.286951 8.6662C0.552784 8.13981 1.08973 7.66648 1.69584 7.42204L1.99362 7.29981L9.50028 7.27315L17.007 7.24648L10.2553 4.93398C6.53917 3.66343 3.47695 2.60537 3.44501 2.58953ZM25.3803 9.36787C25.3217 9.28815 25.2047 9.1712 25.125 9.11259L24.9808 9.00065L13.6731 8.99009C4.35362 8.97954 2.3389 8.99009 2.20584 9.0487C1.98806 9.14426 1.76473 9.41537 1.72751 9.62815C1.71167 9.72398 1.7064 12.9351 1.71167 16.7734L1.7117 16.7847C1.72751 23.7221 1.72757 23.7485 1.83917 23.892C1.89778 23.9718 2.01473 24.0887 2.09445 24.1473L2.23806 24.259H13.6097L24.9814 24.259L25.125 24.1473C25.2047 24.0887 25.3217 23.9718 25.3803 23.892C25.492 23.7487 25.492 23.7326 25.492 16.6301C25.492 9.52731 25.492 9.51148 25.3803 9.36787ZM16.8373 10.7756L16.8373 10.7756C16.9954 10.7468 17.1595 10.7169 17.225 10.7076C17.4906 10.6595 18.6975 10.7234 19.0589 10.8034C22.8494 11.6326 24.8803 15.7048 23.2322 19.1712C21.8236 22.1323 18.2775 23.4031 15.3217 21.9995C13.6097 21.1862 12.4189 19.6495 12.0042 17.7198C11.9192 17.3051 11.9192 15.9548 12.0042 15.5401C12.4083 13.6579 13.5567 12.1429 15.2047 11.3137C15.6672 11.0851 16.3158 10.867 16.7731 10.7873L16.8373 10.7756ZM21.9883 15.5718C21.5789 14.0779 20.42 12.9137 18.9528 12.5095C18.57 12.4087 17.5225 12.3609 17.1292 12.4298C15.5183 12.7223 14.1733 13.9665 13.7375 15.5665C13.6047 16.0501 13.6047 17.2145 13.7375 17.6876C14.1522 19.192 15.3006 20.3404 16.805 20.7551C17.2781 20.8879 18.4422 20.8879 18.9261 20.7551C20.3933 20.3562 21.5897 19.1601 21.9883 17.6929C22.1214 17.2093 22.1214 16.0448 21.9883 15.5718ZM3.57278 12.7381C3.65251 12.637 3.79584 12.5148 3.89167 12.467C4.04584 12.3873 4.38056 12.3768 6.79417 12.3768L7.04496 12.3767C9.30036 12.3765 9.68572 12.3765 9.89589 12.5683C9.9392 12.6079 9.97507 12.6556 10.0183 12.7131L10.0372 12.7381C10.2445 13.0093 10.2445 13.4454 10.0372 13.7165L10.0183 13.7416C9.97491 13.7993 9.93898 13.847 9.89558 13.8866C9.68562 14.0782 9.30091 14.0781 7.05486 14.0779L6.80501 14.0779L6.55516 14.0779C4.3091 14.0781 3.92439 14.0782 3.71443 13.8866C3.67103 13.8471 3.6351 13.7993 3.59175 13.7416L3.57278 13.7165C3.37084 13.4506 3.36528 13.0093 3.57278 12.7381ZM3.90751 15.8537C3.41306 16.0665 3.2589 16.7043 3.58862 17.1348C3.5938 17.1416 3.59885 17.1484 3.60381 17.1549C3.64366 17.2077 3.67704 17.252 3.71708 17.2891C3.92373 17.4804 4.3076 17.4804 6.67295 17.4804L6.80501 17.4804C6.88868 17.4804 6.96998 17.4804 7.04899 17.4804C9.30051 17.4806 9.68553 17.4806 9.89566 17.289C9.939 17.2494 9.9749 17.2017 10.0182 17.1442C10.0244 17.136 10.0307 17.1276 10.0372 17.119C10.2445 16.8479 10.2445 16.412 10.0372 16.1406C10.0308 16.1321 10.0245 16.1237 10.0183 16.1156C9.97507 16.0581 9.9392 16.0104 9.89589 15.9708C9.68572 15.779 9.30036 15.779 7.04496 15.7792C6.96381 15.7792 6.88024 15.7793 6.79417 15.7793C4.6464 15.7845 4.03501 15.8004 3.90751 15.8537ZM3.58862 20.5587C3.24834 20.1493 3.41306 19.469 3.90751 19.2562C4.03501 19.2029 4.6464 19.187 6.79417 19.1818C9.2724 19.1818 9.67816 19.1746 9.89589 19.3733C9.94534 19.4185 9.98509 19.4743 10.0372 19.5431C10.2445 19.8143 10.2445 20.2504 10.0372 20.5215C9.98499 20.5905 9.94518 20.6463 9.89566 20.6915C9.67816 20.8899 9.27328 20.8829 6.80501 20.8829C4.3207 20.8829 3.93862 20.8865 3.71943 20.6994C3.67455 20.661 3.63649 20.6147 3.58862 20.5587Z" fill="#232323"/>
<path d="M3.87556 1.14342L3.73535 1.09007L3.73632 1.08763L3.87556 1.14342ZM3.44501 2.58953L3.37818 2.72436L3.36793 2.71822L3.44501 2.58953ZM13.1525 4.13648L13.1039 4.2784L13.1039 4.27837L13.1525 4.13648ZM22.3178 7.27315V7.42315H22.2928L22.2692 7.41507L22.3178 7.27315ZM25.1514 7.3262L25.124 7.47371L25.121 7.47308L25.1514 7.3262ZM27.1664 9.3412L27.3138 9.31317L27.3138 9.31331L27.1664 9.3412ZM27.1664 23.9184L27.3138 23.9463L27.3138 23.9465L27.1664 23.9184ZM25.1514 25.9334L25.1239 25.786L25.124 25.7859L25.1514 25.9334ZM2.06806 25.9334L2.09609 25.7861L2.09632 25.7861L2.06806 25.9334ZM0.053062 23.9184L-0.094421 23.9458L-0.0946897 23.9443L0.053062 23.9184ZM6.41458e-06 16.6084L0.150006 16.6084V16.6084H6.41458e-06ZM3.11928e-06 16.2107L0.150003 16.2107V16.2107L3.11928e-06 16.2107ZM0.201644 8.83739L0.337942 8.90002H0.337942L0.201644 8.83739ZM0.26157 8.71609L0.395264 8.78411L0.395146 8.78434L0.26157 8.71609ZM0.286951 8.6662L0.420846 8.73382L0.420645 8.73421L0.286951 8.6662ZM1.69584 7.42204L1.7528 7.5608L1.75194 7.56115L1.69584 7.42204ZM1.99362 7.29981L1.93666 7.16105L1.96378 7.14992L1.99308 7.14981L1.99362 7.29981ZM9.50028 7.27315L9.50082 7.42315L9.50028 7.27315ZM17.007 7.24648L17.0556 7.10457L17.0075 7.39648L17.007 7.24648ZM10.2553 4.93398L10.3038 4.79205L10.3039 4.79207L10.2553 4.93398ZM25.125 9.11259L25.0361 9.23349L25.033 9.23107L25.125 9.11259ZM25.3803 9.36787L25.2618 9.45998L25.2594 9.45672L25.3803 9.36787ZM24.9808 9.00065L24.981 8.85065L25.0323 8.85069L25.0728 8.88217L24.9808 9.00065ZM13.6731 8.99009L13.6729 9.14009H13.6729L13.6731 8.99009ZM2.20584 9.0487L2.26631 9.18597L2.26611 9.18606L2.20584 9.0487ZM1.72751 9.62815L1.57951 9.60369L1.57975 9.6023L1.72751 9.62815ZM1.71167 16.7734L1.56167 16.7738L1.56167 16.7736L1.71167 16.7734ZM1.7117 16.7847L1.8617 16.7843V16.7843L1.7117 16.7847ZM1.83917 23.892L1.95763 23.7999L1.96003 23.8032L1.83917 23.892ZM2.09445 24.1473L2.18333 24.0264L2.18653 24.0289L2.09445 24.1473ZM2.23806 24.259V24.409H2.18661L2.14599 24.3774L2.23806 24.259ZM24.9814 24.259L25.0735 24.3774L25.0329 24.409H24.9814V24.259ZM25.125 24.1473L25.0329 24.0289L25.0362 24.0265L25.125 24.1473ZM25.3803 23.892L25.2594 23.8032L25.262 23.7998L25.3803 23.892ZM16.8373 10.7756L16.8642 10.9232L16.862 10.9236L16.8373 10.7756ZM16.8373 10.7756L16.8104 10.628L16.8126 10.6277L16.8373 10.7756ZM17.225 10.7076L17.2517 10.8553L17.2461 10.8561L17.225 10.7076ZM19.0589 10.8034L19.0268 10.95L19.0265 10.9499L19.0589 10.8034ZM23.2322 19.1712L23.3677 19.2356L23.3677 19.2356L23.2322 19.1712ZM15.3217 21.9995L15.2573 22.135L15.2573 22.135L15.3217 21.9995ZM12.0042 17.7198L11.8575 17.7513L11.8572 17.7499L12.0042 17.7198ZM12.0042 15.5401L11.8572 15.51L11.8575 15.5086L12.0042 15.5401ZM15.2047 11.3137L15.1373 11.1797L15.1383 11.1792L15.2047 11.3137ZM16.7731 10.7873L16.7999 10.9349L16.7988 10.9351L16.7731 10.7873ZM18.9528 12.5095L18.991 12.3645L18.9926 12.3649L18.9528 12.5095ZM21.9883 15.5718L21.8439 15.6124L21.8437 15.6114L21.9883 15.5718ZM17.1292 12.4298L17.1024 12.2822L17.1033 12.2821L17.1292 12.4298ZM13.7375 15.5665L13.8822 15.6059L13.8822 15.6062L13.7375 15.5665ZM13.7375 17.6876L13.8819 17.6471L13.8821 17.6477L13.7375 17.6876ZM16.805 20.7551L16.8449 20.6105L16.8455 20.6107L16.805 20.7551ZM18.9261 20.7551L18.8864 20.6104L18.8868 20.6103L18.9261 20.7551ZM21.9883 17.6929L21.8436 17.6535L21.8437 17.6531L21.9883 17.6929ZM3.89167 12.467L3.96058 12.6003L3.9586 12.6013L3.89167 12.467ZM3.57278 12.7381L3.45366 12.647L3.45499 12.6453L3.57278 12.7381ZM6.79417 12.3768L6.79418 12.5268H6.79417V12.3768ZM7.04496 12.3767L7.04497 12.5267H7.04497L7.04496 12.3767ZM9.89589 12.5683L9.79475 12.6791L9.89589 12.5683ZM10.0183 12.7131L9.89854 12.8034L9.89845 12.8032L10.0183 12.7131ZM10.0372 12.7381L9.91805 12.8292L9.91745 12.8284L10.0372 12.7381ZM10.0372 13.7165L9.91744 13.6262L9.91805 13.6254L10.0372 13.7165ZM10.0183 13.7416L9.89839 13.6515L9.89848 13.6514L10.0183 13.7416ZM9.89558 13.8866L9.99667 13.9975V13.9975L9.89558 13.8866ZM7.05486 14.0779L7.05487 13.9279H7.05487L7.05486 14.0779ZM6.80501 14.0779L6.805 13.9279H6.80502L6.80501 14.0779ZM6.55516 14.0779L6.55514 13.9279H6.55515L6.55516 14.0779ZM3.71443 13.8866L3.81552 13.7758L3.81552 13.7758L3.71443 13.8866ZM3.59175 13.7416L3.71153 13.6514L3.71162 13.6515L3.59175 13.7416ZM3.57278 13.7165L3.69223 13.6257L3.69257 13.6262L3.57278 13.7165ZM3.58862 17.1348L3.70771 17.0436L3.70817 17.0442L3.58862 17.1348ZM3.90751 15.8537L3.84821 15.7159L3.84962 15.7153L3.90751 15.8537ZM3.60381 17.1549L3.48406 17.2453L3.48405 17.2452L3.60381 17.1549ZM3.71708 17.2891L3.61516 17.3991L3.61516 17.3991L3.71708 17.2891ZM6.67295 17.4804L6.67294 17.3304H6.67294L6.67295 17.4804ZM6.80501 17.4804L6.805 17.3304H6.80501V17.4804ZM7.04899 17.4804L7.049 17.3304H7.049L7.04899 17.4804ZM9.89566 17.289L9.79457 17.1781V17.1781L9.89566 17.289ZM10.0182 17.1442L10.1381 17.2344L10.1381 17.2344L10.0182 17.1442ZM10.0372 17.119L9.91765 17.0284L9.91805 17.0279L10.0372 17.119ZM10.0372 16.1406L9.91801 16.2317L9.91761 16.2312L10.0372 16.1406ZM10.0183 16.1156L9.89845 16.2057L9.89845 16.2057L10.0183 16.1156ZM9.89589 15.9708L9.79475 16.0816L9.89589 15.9708ZM7.04496 15.7792L7.04494 15.6292L7.04496 15.7792ZM6.79417 15.7793L6.7938 15.6293H6.79417V15.7793ZM3.90751 19.2562L3.84821 19.1184L3.84962 19.1178L3.90751 19.2562ZM3.58862 20.5587L3.4746 20.6562L3.47326 20.6546L3.58862 20.5587ZM6.79417 19.1818L6.7938 19.0318H6.79417V19.1818ZM9.89589 19.3733L9.79475 19.4841V19.4841L9.89589 19.3733ZM10.0372 19.5431L9.91805 19.6342L9.91762 19.6337L10.0372 19.5431ZM10.0372 20.5215L9.91765 20.4309L9.91805 20.4304L10.0372 20.5215ZM9.89566 20.6915L9.79457 20.5806L9.79457 20.5806L9.89566 20.6915ZM3.71943 20.6994L3.62203 20.8134H3.62203L3.71943 20.6994ZM4.01576 1.19677C3.8812 1.55039 3.76148 1.90043 3.68231 2.16473C3.64256 2.29744 3.61396 2.40547 3.5986 2.48042C3.59074 2.51878 3.58752 2.54295 3.58687 2.55533C3.5865 2.56228 3.58738 2.55836 3.58558 2.54862C3.58547 2.54803 3.57785 2.49426 3.52208 2.46085L3.36793 2.71822C3.30549 2.68082 3.29329 2.61782 3.29057 2.60309C3.28616 2.57922 3.2864 2.55626 3.28728 2.53957C3.28912 2.50468 3.29589 2.46322 3.30471 2.42018C3.32272 2.33232 3.35426 2.21441 3.39493 2.07865C3.47659 1.806 3.59881 1.44896 3.73537 1.09008L4.01576 1.19677ZM3.96056 1.14981C3.98462 1.14981 4.00367 1.14383 4.01588 1.13866C4.02815 1.13346 4.03705 1.12758 4.04236 1.12369C4.05251 1.11625 4.05805 1.10975 4.05888 1.10878C4.06092 1.1064 4.05895 1.10835 4.05335 1.11785C4.0429 1.13559 4.02879 1.16429 4.0148 1.19922L3.73632 1.08763C3.75427 1.04284 3.77475 0.999735 3.79486 0.965595C3.80454 0.949162 3.81683 0.930155 3.83131 0.9133C3.83836 0.905098 3.84965 0.892984 3.86499 0.881739C3.87713 0.872841 3.91121 0.849813 3.96056 0.849813V1.14981ZM13.1039 4.27837C10.5841 3.41451 8.29019 2.63037 6.62426 2.0622C5.79129 1.77811 5.11535 1.54804 4.64669 1.38899C4.41233 1.30946 4.2299 1.24773 4.1056 1.20589C4.04341 1.18496 3.99596 1.16907 3.96389 1.15844C3.94779 1.15311 3.93592 1.14921 3.92812 1.1467C3.92411 1.14541 3.92179 1.14469 3.92073 1.14437C3.92006 1.14416 3.92075 1.14438 3.92214 1.14476C3.92271 1.14492 3.92479 1.14549 3.92763 1.14613C3.92912 1.14646 3.93307 1.14726 3.93545 1.14769C3.93952 1.14832 3.95209 1.14957 3.96056 1.14981V0.849813C3.9691 0.850054 3.98177 0.851313 3.98596 0.851971C3.98846 0.852419 3.99257 0.853249 3.99425 0.853624C3.99746 0.854355 4.00005 0.855053 4.00124 0.855379C4.00389 0.856104 4.00634 0.856836 4.00792 0.857315C4.01136 0.85836 4.01552 0.859682 4.01997 0.861111C4.02907 0.864038 4.04195 0.868267 4.05827 0.873672C4.09102 0.884527 4.139 0.900595 4.2013 0.921562C4.32596 0.963522 4.50867 1.02535 4.74309 1.1049C5.21197 1.26402 5.88806 1.49415 6.7211 1.77826C8.38719 2.34648 10.6812 3.13067 13.2012 3.99459L13.1039 4.27837ZM22.2692 7.41507L13.1039 4.2784L13.2011 3.99456L22.3664 7.13123L22.2692 7.41507ZM23.5936 7.42315H22.3178V7.12315H23.5936V7.42315ZM25.121 7.47308C25.0595 7.46034 24.8607 7.44706 24.573 7.43761C24.2925 7.42841 23.9433 7.42315 23.5936 7.42315V7.12315C23.9459 7.12315 24.2985 7.12844 24.5828 7.13778C24.86 7.14687 25.0891 7.16012 25.1818 7.17932L25.121 7.47308ZM27.019 9.36923C26.8444 8.45112 26.0358 7.64312 25.124 7.47368L25.1788 7.17873C26.2131 7.37095 27.1162 8.27462 27.3138 9.31317L27.019 9.36923ZM27.019 23.8905C27.0187 23.8919 27.0194 23.8886 27.0204 23.8769C27.0214 23.8665 27.0224 23.8524 27.0234 23.8344C27.0255 23.7986 27.0275 23.7501 27.0296 23.6892C27.0336 23.5678 27.0374 23.4002 27.0408 23.1927C27.0478 22.778 27.0536 22.2061 27.0583 21.5291C27.0676 20.1752 27.0722 18.4026 27.0722 16.6298C27.0722 14.857 27.0676 13.0844 27.0583 11.7305C27.0536 11.0536 27.0478 10.4816 27.0408 10.0669C27.0374 9.85942 27.0336 9.69187 27.0296 9.57038C27.0275 9.50956 27.0255 9.46105 27.0234 9.42519C27.0224 9.40723 27.0214 9.39317 27.0204 9.38273C27.0194 9.37107 27.0187 9.36769 27.019 9.3691L27.3138 9.31331C27.3182 9.3368 27.3208 9.37208 27.3229 9.40783C27.3252 9.44725 27.3273 9.49855 27.3294 9.56043C27.3335 9.68436 27.3373 9.85381 27.3408 10.0618C27.3478 10.4781 27.3536 11.0512 27.3583 11.7285C27.3676 13.0833 27.3722 14.8566 27.3722 16.6298C27.3722 18.403 27.3676 20.1764 27.3583 21.5311C27.3536 22.2085 27.3478 22.7815 27.3408 23.1978C27.3373 23.4058 27.3335 23.5753 27.3294 23.6992C27.3273 23.7611 27.3252 23.8124 27.3229 23.8518C27.3208 23.8875 27.3182 23.9228 27.3138 23.9463L27.019 23.8905ZM25.124 25.7859C26.0358 25.6165 26.8444 24.8085 27.019 23.8904L27.3138 23.9465C27.1162 24.985 26.2131 25.8887 25.1788 26.0809L25.124 25.7859ZM2.09632 25.7861C2.09478 25.7858 2.11477 25.7879 2.17339 25.7903C2.22559 25.7924 2.29815 25.7945 2.39017 25.7965C2.57404 25.8006 2.83298 25.8044 3.15661 25.8079C3.80371 25.8148 4.70768 25.8206 5.78314 25.8253C7.93396 25.8346 10.7696 25.8393 13.6058 25.8393C16.4419 25.8393 19.2782 25.8346 21.4304 25.8253C22.5065 25.8206 23.4113 25.8148 24.0594 25.8079C24.3835 25.8044 24.643 25.8006 24.8274 25.7965C24.9197 25.7945 24.9926 25.7924 25.0451 25.7903C25.1038 25.7879 25.1246 25.7858 25.1239 25.786L25.1789 26.0809C25.1533 26.0857 25.1064 26.0881 25.0573 26.0901C25.002 26.0923 24.927 26.0944 24.834 26.0965C24.6479 26.1006 24.3871 26.1044 24.0626 26.1078C23.4136 26.1148 22.508 26.1206 21.4317 26.1253C19.279 26.1346 16.4421 26.1393 13.6058 26.1393C10.7694 26.1393 7.93324 26.1346 5.78184 26.1253C4.70618 26.1206 3.80145 26.1148 3.15337 26.1078C2.8294 26.1044 2.56913 26.1006 2.38356 26.0965C2.29087 26.0944 2.21615 26.0923 2.16119 26.0901C2.11265 26.0881 2.0656 26.0857 2.0398 26.0807L2.09632 25.7861ZM0.200537 23.891C0.369982 24.8028 1.17798 25.6114 2.09609 25.7861L2.04003 26.0808C1.00148 25.8832 0.0978086 24.9802 -0.094413 23.9458L0.200537 23.891ZM0.150006 16.6084C0.150006 18.8358 0.155353 20.6176 0.164655 21.8651C0.169306 22.4889 0.174944 22.9787 0.181387 23.3236C0.184609 23.4962 0.188023 23.6318 0.191591 23.7297C0.193377 23.7786 0.195176 23.8174 0.196961 23.8462C0.197853 23.8606 0.198705 23.8719 0.199489 23.8804C0.200339 23.8896 0.200881 23.8929 0.200814 23.8926L-0.0946897 23.9443C-0.10085 23.9091 -0.104758 23.8352 -0.10821 23.7406C-0.111873 23.6402 -0.115326 23.5024 -0.118561 23.3292C-0.125035 22.9827 -0.130682 22.4916 -0.135337 21.8674C-0.144646 20.6188 -0.149994 18.8361 -0.149994 16.6084H0.150006ZM0.150003 16.2107L0.150006 16.6084L-0.149994 16.6084L-0.149997 16.2107L0.150003 16.2107ZM0.337942 8.90002C0.251778 9.08753 0.20039 9.2999 0.175097 10.2915C0.149955 11.2772 0.149963 13.0081 0.150003 16.2107L-0.149997 16.2107C-0.150037 13.0107 -0.150073 11.2744 -0.124806 10.2839C-0.0996903 9.29921 -0.0502179 9.02624 0.0653454 8.77476L0.337942 8.90002ZM0.395146 8.78434C0.373146 8.8274 0.354683 8.86359 0.337942 8.90002L0.065345 8.77476C0.0851454 8.73167 0.106533 8.68985 0.127994 8.64785L0.395146 8.78434ZM0.420645 8.73421L0.395264 8.78411L0.127875 8.64808L0.153256 8.59819L0.420645 8.73421ZM1.75194 7.56115C1.17549 7.79363 0.668393 8.24364 0.420845 8.73382L0.153056 8.59858C0.437175 8.03599 1.00397 7.53933 1.63974 7.28292L1.75194 7.56115ZM2.05057 7.43858L1.7528 7.5608L1.63888 7.28327L1.93666 7.16105L2.05057 7.43858ZM9.50082 7.42315L1.99415 7.44981L1.99308 7.14981L9.49975 7.12315L9.50082 7.42315ZM17.0075 7.39648L9.50082 7.42315L9.49975 7.12315L17.0064 7.09648L17.0075 7.39648ZM10.3039 4.79207L17.0556 7.10457L16.9583 7.38839L10.2067 5.07589L10.3039 4.79207ZM3.51162 2.45514C3.50315 2.45094 3.49628 2.44876 3.50836 2.45319C3.51457 2.45546 3.52381 2.45878 3.53622 2.4632C3.56094 2.472 3.597 2.48469 3.64396 2.50113C3.7378 2.53399 3.87439 2.58152 4.04917 2.64215C4.39868 2.76337 4.90048 2.93678 5.51746 3.14942C6.75141 3.5747 8.44587 4.15681 10.3038 4.79205L10.2068 5.07591C8.34858 4.4406 6.65388 3.8584 5.41971 3.43305C4.80263 3.22038 4.30062 3.0469 3.95086 2.92558C3.77599 2.86493 3.63908 2.81728 3.54482 2.78428C3.49773 2.76779 3.46109 2.75489 3.43563 2.74583C3.42295 2.74132 3.41273 2.73765 3.40525 2.73491C3.40364 2.73432 3.38886 2.72912 3.37839 2.72393L3.51162 2.45514ZM25.2139 8.99174C25.3058 9.05934 25.4335 9.18707 25.5011 9.27902L25.2594 9.45672C25.2098 9.38922 25.1037 9.28307 25.0362 9.23344L25.2139 8.99174ZM25.0728 8.88217L25.217 8.99411L25.033 9.23107L24.8888 9.11912L25.0728 8.88217ZM13.6732 8.84009L24.981 8.85065L24.9807 9.15065L13.6729 9.14009L13.6732 8.84009ZM2.14537 8.91143C2.17534 8.89823 2.21054 8.89281 2.23404 8.88962C2.2631 8.88569 2.29983 8.88231 2.34431 8.87927C2.43357 8.87317 2.56213 8.86793 2.73933 8.86338C3.0942 8.85427 3.65109 8.84778 4.49379 8.84346C6.17959 8.83481 9.01363 8.83481 13.6732 8.84009L13.6729 9.14009C9.01305 9.13481 6.18001 9.13482 4.49533 9.14346C3.65278 9.14778 3.09857 9.15426 2.74703 9.16328C2.57103 9.1678 2.44754 9.17292 2.36475 9.17857C2.3232 9.18141 2.29391 9.18426 2.27428 9.18691C2.2491 9.19032 2.25297 9.19185 2.26631 9.18597L2.14537 8.91143ZM1.57975 9.6023C1.6044 9.46138 1.68596 9.31695 1.78326 9.19901C1.88131 9.08015 2.00941 8.97109 2.14557 8.91134L2.26611 9.18606C2.18449 9.22187 2.09204 9.29614 2.01467 9.38992C1.93655 9.48462 1.88783 9.58214 1.87526 9.654L1.57975 9.6023ZM1.56167 16.7736C1.55903 14.8544 1.55903 13.0918 1.56167 11.797C1.56299 11.1497 1.56497 10.6191 1.56761 10.2442C1.56893 10.0568 1.57042 9.90802 1.57208 9.80289C1.57291 9.75039 1.57379 9.70826 1.57473 9.67744C1.57548 9.65295 1.57647 9.62212 1.57951 9.60369L1.8755 9.6526C1.87657 9.64615 1.87566 9.65164 1.87459 9.68659C1.87372 9.71522 1.87287 9.75564 1.87205 9.80762C1.87041 9.91143 1.86893 10.0592 1.86761 10.2463C1.86497 10.6204 1.86299 11.1505 1.86167 11.7977C1.85903 13.092 1.85903 14.8541 1.86167 16.7732L1.56167 16.7736ZM1.5617 16.785L1.56167 16.7738L1.86167 16.7731L1.8617 16.7843L1.5617 16.785ZM1.72076 23.9841C1.70455 23.9633 1.68109 23.9329 1.6622 23.8836C1.6451 23.8389 1.63406 23.785 1.62549 23.7146C1.60846 23.5746 1.59748 23.3334 1.58954 22.8887C1.57357 21.9955 1.5696 20.2528 1.5617 16.785L1.8617 16.7843C1.8696 20.2539 1.87357 21.9932 1.88949 22.8834C1.89748 23.3305 1.90844 23.5563 1.9233 23.6784C1.93068 23.7391 1.93807 23.7651 1.9424 23.7764C1.94494 23.783 1.94589 23.7849 1.95759 23.8L1.72076 23.9841ZM2.0056 24.2682C1.91365 24.2006 1.78592 24.0728 1.71832 23.9809L1.96003 23.8032C2.00965 23.8707 2.1158 23.9768 2.1833 24.0265L2.0056 24.2682ZM2.14599 24.3774L2.00238 24.2657L2.18653 24.0289L2.33014 24.1406L2.14599 24.3774ZM13.6097 24.409H2.23806L2.23806 24.109H13.6097V24.409ZM24.9814 24.409L13.6097 24.409V24.109L24.9814 24.109V24.409ZM25.2171 24.2657L25.0735 24.3774L24.8893 24.1406L25.0329 24.0289L25.2171 24.2657ZM25.5011 23.9809C25.4335 24.0728 25.3058 24.2006 25.2139 24.2682L25.0362 24.0265C25.1037 23.9768 25.2098 23.8707 25.2594 23.8032L25.5011 23.9809ZM25.642 16.6301C25.642 20.1805 25.642 21.9618 25.628 22.8731C25.621 23.3267 25.6106 23.5718 25.5938 23.7133C25.5854 23.7844 25.5744 23.8387 25.5573 23.8836C25.5383 23.9334 25.5145 23.9638 25.4986 23.9842L25.262 23.7998C25.2739 23.7845 25.2746 23.783 25.277 23.7767C25.2812 23.7656 25.2886 23.7396 25.2959 23.678C25.3105 23.5543 25.321 23.3246 25.328 22.8684C25.3419 21.9602 25.342 20.1822 25.342 16.6301H25.642ZM25.4987 9.27579C25.5146 9.29625 25.5384 9.32665 25.5573 9.37642C25.5744 9.42136 25.5854 9.47562 25.5938 9.54672C25.6106 9.68828 25.621 9.93338 25.628 10.387C25.642 11.2982 25.642 13.0796 25.642 16.6301H25.342C25.342 13.0778 25.3419 11.2999 25.328 10.3916C25.321 9.93545 25.3105 9.70574 25.2959 9.58198C25.2886 9.52042 25.2812 9.49438 25.277 9.48323C25.2746 9.47689 25.2739 9.47539 25.2619 9.45994L25.4987 9.27579ZM16.862 10.9236L16.8619 10.9236L16.8126 10.6277L16.8127 10.6276L16.862 10.9236ZM17.2461 10.8561C17.1844 10.8649 17.0244 10.894 16.8642 10.9232L16.8104 10.628C16.9663 10.5996 17.1347 10.5689 17.2039 10.5591L17.2461 10.8561ZM19.0265 10.9499C18.8595 10.9129 18.4792 10.8773 18.0981 10.8573C17.9098 10.8474 17.7253 10.8415 17.5723 10.841C17.4148 10.8406 17.3027 10.846 17.2517 10.8552L17.1983 10.56C17.2801 10.5452 17.4185 10.5406 17.5732 10.541C17.7325 10.5415 17.9221 10.5476 18.1139 10.5577C18.4931 10.5776 18.8969 10.6139 19.0913 10.657L19.0265 10.9499ZM23.0968 19.1068C24.7024 15.7296 22.7252 11.759 19.0268 10.95L19.0909 10.6569C22.9737 11.5062 25.0582 15.68 23.3677 19.2356L23.0968 19.1068ZM15.386 21.864C18.2666 23.2319 21.7235 21.9936 23.0968 19.1068L23.3677 19.2356C21.9237 22.271 18.2884 23.5744 15.2573 22.135L15.386 21.864ZM12.1508 17.6883C12.5562 19.5747 13.7182 21.0717 15.386 21.864L15.2573 22.135C13.5013 21.3007 12.2816 19.7244 11.8575 17.7513L12.1508 17.6883ZM12.1511 15.5702C12.1121 15.7607 12.0904 16.1876 12.0904 16.63C12.0904 17.0723 12.1121 17.4992 12.1511 17.6897L11.8572 17.7499C11.8113 17.5257 11.7904 17.0701 11.7904 16.63C11.7904 16.1898 11.8113 15.7342 11.8572 15.51L12.1511 15.5702ZM15.2721 11.4477C13.6666 12.2555 12.5459 13.7316 12.1508 15.5716L11.8575 15.5086C12.2708 13.5841 13.4468 12.0303 15.1373 11.1797L15.2721 11.4477ZM16.7988 10.9351C16.3573 11.0121 15.7223 11.2252 15.2712 11.4482L15.1383 11.1792C15.6121 10.945 16.2744 10.722 16.7473 10.6395L16.7988 10.9351ZM16.8642 10.9232L16.7999 10.9349L16.7462 10.6397L16.8104 10.628L16.8642 10.9232ZM18.9926 12.3649C20.5115 12.7833 21.7098 13.9879 22.133 15.5321L21.8437 15.6114C21.448 14.1678 20.3285 13.0441 18.913 12.6542L18.9926 12.3649ZM17.1033 12.2821C17.3174 12.2446 17.6918 12.2402 18.0516 12.2562C18.4115 12.2722 18.7829 12.3097 18.991 12.3645L18.9146 12.6546C18.7399 12.6086 18.3961 12.5718 18.0383 12.5559C17.6803 12.54 17.3343 12.5462 17.1551 12.5776L17.1033 12.2821ZM13.5928 15.5271C14.0435 13.8722 15.4337 12.5852 17.1024 12.2822L17.156 12.5774C15.603 12.8594 14.3031 14.0607 13.8822 15.6059L13.5928 15.5271ZM13.5931 17.7281C13.5209 17.4709 13.4879 17.0444 13.4879 16.631C13.4879 16.2173 13.5209 15.7887 13.5929 15.5268L13.8822 15.6062C13.8213 15.8279 13.7879 16.2233 13.7879 16.631C13.7879 17.039 13.8213 17.4312 13.8819 17.6471L13.5931 17.7281ZM16.7651 20.8997C15.2098 20.4709 14.0217 19.2828 13.5929 17.7275L13.8821 17.6477C14.2828 19.1013 15.3913 20.2098 16.8449 20.6105L16.7651 20.8997ZM18.9658 20.8997C18.7037 20.9717 18.2752 21.0047 17.8615 21.0047C17.4481 21.0047 17.0217 20.9717 16.7645 20.8995L16.8455 20.6107C17.0614 20.6713 17.4536 20.7047 17.8615 20.7047C18.2691 20.7047 18.6646 20.6713 18.8864 20.6104L18.9658 20.8997ZM22.1331 17.7322C21.7205 19.2508 20.484 20.487 18.9655 20.8998L18.8868 20.6103C20.3027 20.2254 21.4589 19.0694 21.8436 17.6535L22.1331 17.7322ZM22.1327 15.5311C22.2051 15.7884 22.2381 16.2149 22.2381 16.6284C22.2381 17.0421 22.205 17.4707 22.133 17.7327L21.8437 17.6531C21.9047 17.4314 21.9381 17.036 21.9381 16.6284C21.9381 16.2204 21.9046 15.8282 21.8439 15.6124L22.1327 15.5311ZM3.9586 12.6013C3.88644 12.6373 3.75956 12.7435 3.69057 12.831L3.45499 12.6453C3.54545 12.5305 3.70524 12.3924 3.82475 12.3328L3.9586 12.6013ZM6.79417 12.5268C5.58642 12.5268 4.90207 12.5294 4.5003 12.5419C4.08682 12.5548 4.00168 12.579 3.96057 12.6003L3.82277 12.3338C3.93583 12.2753 4.09514 12.2544 4.49096 12.2421C4.8985 12.2294 5.58832 12.2268 6.79417 12.2268V12.5268ZM7.04497 12.5267L6.79418 12.5268L6.79416 12.2268L7.04495 12.2267L7.04497 12.5267ZM9.79475 12.6791C9.73244 12.6222 9.63367 12.5742 9.22852 12.5502C8.82966 12.5266 8.17547 12.5266 7.04497 12.5267L7.04494 12.2267C8.16984 12.2266 8.83604 12.2265 9.24625 12.2508C9.65017 12.2747 9.84917 12.3226 9.99702 12.4576L9.79475 12.6791ZM9.89845 12.8032C9.85323 12.7431 9.8258 12.7075 9.79475 12.6791L9.99702 12.4576C10.0526 12.5083 10.0969 12.568 10.1382 12.6229L9.89845 12.8032ZM9.91745 12.8284L9.89854 12.8034L10.1381 12.6228L10.157 12.6479L9.91745 12.8284ZM9.91805 13.6254C10.0842 13.4081 10.0842 13.0466 9.91805 12.8292L10.1564 12.6471C10.4047 12.9719 10.4047 13.4827 10.1564 13.8076L9.91805 13.6254ZM9.89848 13.6514L9.91744 13.6262L10.157 13.8068L10.1381 13.8319L9.89848 13.6514ZM9.79449 13.7758C9.8256 13.7474 9.85307 13.7117 9.89839 13.6515L10.1381 13.8318C10.0968 13.8868 10.0524 13.9467 9.99667 13.9975L9.79449 13.7758ZM7.05487 13.9279C8.1807 13.928 8.83238 13.928 9.22988 13.9044C9.63361 13.8805 9.73225 13.8326 9.79449 13.7758L9.99667 13.9975C9.84896 14.1322 9.65026 14.18 9.24763 14.2039C8.83877 14.2281 8.17507 14.228 7.05484 14.2279L7.05487 13.9279ZM6.80502 13.9279L7.05487 13.9279L7.05485 14.2279L6.805 14.2279L6.80502 13.9279ZM6.55515 13.9279L6.805 13.9279L6.80502 14.2279L6.55517 14.2279L6.55515 13.9279ZM3.81552 13.7758C3.87777 13.8326 3.9764 13.8805 4.38013 13.9044C4.77763 13.928 5.42931 13.928 6.55514 13.9279L6.55517 14.2279C5.43495 14.228 4.77124 14.2281 4.36238 14.2039C3.95975 14.18 3.76105 14.1322 3.61334 13.9975L3.81552 13.7758ZM3.71162 13.6515C3.75694 13.7117 3.78442 13.7474 3.81552 13.7758L3.61334 13.9975C3.55765 13.9467 3.51326 13.8868 3.47187 13.8318L3.71162 13.6515ZM3.69257 13.6262L3.71153 13.6514L3.47196 13.8319L3.453 13.8068L3.69257 13.6262ZM3.6919 12.8293C3.61184 12.9339 3.56865 13.0781 3.56924 13.2287C3.56983 13.3795 3.61423 13.5231 3.69223 13.6257L3.45334 13.8072C3.32939 13.6441 3.27004 13.434 3.26924 13.2299C3.26844 13.0256 3.32623 12.8135 3.45367 12.647L3.6919 12.8293ZM3.46953 17.226C3.08312 16.7214 3.25992 15.9691 3.84821 15.7159L3.9668 15.9915C3.5662 16.1639 3.43467 16.6871 3.70771 17.0436L3.46953 17.226ZM3.48405 17.2452C3.47908 17.2387 3.47413 17.2321 3.46906 17.2254L3.70817 17.0442C3.71347 17.0512 3.71862 17.058 3.72356 17.0646L3.48405 17.2452ZM3.61516 17.3991C3.56351 17.3513 3.52207 17.2956 3.48406 17.2453L3.72356 17.0646C3.76525 17.1199 3.79057 17.1527 3.81899 17.179L3.61516 17.3991ZM6.67295 17.6304C5.49301 17.6304 4.79988 17.6305 4.37692 17.6063C3.96129 17.5825 3.76195 17.5351 3.61516 17.3991L3.81899 17.179C3.87886 17.2345 3.97477 17.2827 4.39408 17.3068C4.80605 17.3304 5.48753 17.3304 6.67294 17.3304L6.67295 17.6304ZM6.80501 17.6304L6.67295 17.6304L6.67294 17.3304L6.805 17.3304L6.80501 17.6304ZM7.04897 17.6304C6.96997 17.6304 6.88867 17.6304 6.80501 17.6304V17.3304C6.88869 17.3304 6.97 17.3304 7.049 17.3304L7.04897 17.6304ZM9.99675 17.3998C9.84894 17.5346 9.65009 17.5825 9.24671 17.6064C8.83708 17.6306 8.17194 17.6305 7.04897 17.6304L7.049 17.3304C8.17756 17.3305 8.8307 17.3305 9.22898 17.3069C9.63352 17.2829 9.73225 17.235 9.79457 17.1781L9.99675 17.3998ZM10.1381 17.2344C10.0967 17.2893 10.0524 17.349 9.99675 17.3998L9.79457 17.1781C9.82564 17.1498 9.8531 17.1141 9.89837 17.054L10.1381 17.2344ZM10.1568 17.2095C10.1504 17.2179 10.1442 17.2262 10.1381 17.2344L9.89837 17.054C9.90452 17.0458 9.91098 17.0372 9.91765 17.0284L10.1568 17.2095ZM10.1564 16.0496C10.4047 16.3747 10.4047 16.8852 10.1564 17.2101L9.91805 17.0279C10.0842 16.8106 10.0842 16.4493 9.91801 16.2317L10.1564 16.0496ZM10.1382 16.0254C10.1444 16.0336 10.1505 16.0418 10.1568 16.0501L9.91761 16.2312C9.91099 16.2224 9.90458 16.2139 9.89845 16.2057L10.1382 16.0254ZM9.99702 15.8601C10.0526 15.9108 10.0969 15.9705 10.1382 16.0254L9.89845 16.2057C9.85323 16.1456 9.8258 16.11 9.79475 16.0816L9.99702 15.8601ZM7.04494 15.6292C8.16984 15.6291 8.83604 15.629 9.24625 15.6533C9.65017 15.6772 9.84917 15.7251 9.99702 15.8601L9.79475 16.0816C9.73244 16.0247 9.63367 15.9767 9.22852 15.9527C8.82966 15.9291 8.17547 15.9291 7.04497 15.9292L7.04494 15.6292ZM6.79417 15.6293C6.88023 15.6293 6.96379 15.6292 7.04494 15.6292L7.04497 15.9292C6.96383 15.9292 6.88025 15.9293 6.79417 15.9293V15.6293ZM3.84962 15.7153C3.9065 15.6915 3.99174 15.6797 4.09785 15.6708C4.21104 15.6614 4.36998 15.6542 4.58937 15.6485C5.02865 15.6372 5.72016 15.6319 6.7938 15.6293L6.79454 15.9293C5.72041 15.9319 5.03234 15.9372 4.59711 15.9484C4.37924 15.954 4.22719 15.9611 4.12276 15.9698C4.07054 15.9741 4.03231 15.9787 4.00484 15.9833C3.99121 15.9856 3.98125 15.9877 3.97424 15.9895C3.96699 15.9914 3.96459 15.9924 3.96539 15.9921L3.84962 15.7153ZM3.9668 19.394C3.56325 19.5676 3.42854 20.1314 3.70398 20.4628L3.47326 20.6546C3.06814 20.1671 3.26287 19.3703 3.84821 19.1184L3.9668 19.394ZM6.79454 19.3318C5.72041 19.3344 5.03234 19.3397 4.59711 19.3509C4.37924 19.3565 4.22719 19.3636 4.12276 19.3723C4.07054 19.3766 4.03231 19.3812 4.00484 19.3858C3.99121 19.3881 3.98125 19.3902 3.97424 19.392C3.96699 19.3939 3.96459 19.3949 3.96539 19.3946L3.84962 19.1178C3.90651 19.094 3.99174 19.0822 4.09785 19.0733C4.21104 19.0639 4.36998 19.0567 4.58937 19.051C5.02865 19.0397 5.72016 19.0344 6.7938 19.0318L6.79454 19.3318ZM9.79475 19.4841C9.72982 19.4248 9.62621 19.376 9.18484 19.3528C8.75151 19.33 8.03619 19.3318 6.79417 19.3318V19.0318C8.03038 19.0318 8.75706 19.0299 9.20059 19.0532C9.63609 19.0761 9.84423 19.1231 9.99702 19.2626L9.79475 19.4841ZM9.91762 19.6337C9.86078 19.5586 9.83131 19.5175 9.79475 19.4841L9.99702 19.2626C10.0594 19.3195 10.1094 19.39 10.1568 19.4526L9.91762 19.6337ZM9.91805 20.4304C10.0842 20.2131 10.0842 19.8516 9.91805 19.6342L10.1564 19.4521C10.4047 19.7769 10.4047 20.2877 10.1564 20.6126L9.91805 20.4304ZM9.79457 20.5806C9.83119 20.5472 9.86069 20.5061 9.91765 20.4309L10.1568 20.612C10.1093 20.6748 10.0592 20.7453 9.99675 20.8023L9.79457 20.5806ZM6.80501 20.7329C8.04205 20.7329 8.75464 20.7346 9.18647 20.7118C9.62625 20.6886 9.7297 20.6398 9.79457 20.5806L9.99675 20.8023C9.84412 20.9415 9.63637 20.9885 9.20227 21.0114C8.76022 21.0347 8.03624 21.0329 6.80501 21.0329V20.7329ZM3.81684 20.5853C3.88372 20.6424 3.98526 20.6889 4.42057 20.7115C4.84902 20.7337 5.56016 20.7329 6.80501 20.7329V21.0329C5.56555 21.0329 4.84349 21.0338 4.40503 21.0111C3.97343 20.9887 3.77433 20.9435 3.62203 20.8134L3.81684 20.5853ZM3.70263 20.4612C3.75425 20.5216 3.78317 20.5565 3.81684 20.5853L3.62203 20.8134C3.56592 20.7655 3.51874 20.7078 3.47461 20.6562L3.70263 20.4612Z" fill="#232323"/>
</svg>
