<svg width="39" height="39" viewBox="0 0 39 39" fill="none" xmlns="http://www.w3.org/2000/svg">
<path fill-rule="evenodd" clip-rule="evenodd" d="M23.9169 7.03076V9.49843C31.7492 11.676 37.1731 18.8028 37.1846 26.9323C37.1846 27.2653 36.9146 27.5354 36.5815 27.5354H27.5059C27.197 31.9542 23.5226 35.381 19.0929 35.381C14.6635 35.381 10.9887 31.9542 10.6798 27.5354H1.60308C1.27003 27.5354 1 27.2653 1 26.9323C1.01148 18.8028 6.43534 11.676 14.2677 9.49843V7.03076C14.2677 6.69772 14.5377 6.42769 14.8708 6.42769H18.4892V1H19.6954V6.42769H23.3138C23.6469 6.42769 23.9169 6.69772 23.9169 7.03076ZM22.7108 7.63384H15.4738V9.2019C17.8617 8.71602 20.3229 8.71602 22.7108 9.2019V7.63384ZM19.0923 34.1692C15.3325 34.1633 12.2023 31.2819 11.886 27.5354H26.2998C25.9835 31.2822 22.8524 34.1642 19.0923 34.1692ZM19.0923 10.0485C10.002 10.0485 2.54303 17.2448 2.21705 26.3292H35.9675C35.6416 17.2448 28.1826 10.0485 19.0923 10.0485Z" fill="#232323"/>
<path d="M23.9169 9.49843H22.9169V10.2583L23.649 10.4619L23.9169 9.49843ZM37.1846 26.9323L38.1846 26.9323L38.1846 26.9309L37.1846 26.9323ZM27.5059 27.5354V26.5354H26.5734L26.5084 27.4656L27.5059 27.5354ZM10.6798 27.5354L11.6774 27.4656L11.6124 26.5354H10.6798V27.5354ZM1 26.9323L0 26.9309V26.9323H1ZM14.2677 9.49843L14.5356 10.4619L15.2677 10.2583V9.49843H14.2677ZM18.4892 6.42769V7.42769H19.4892V6.42769H18.4892ZM18.4892 1V0H17.4892V1H18.4892ZM19.6954 1H20.6954V0H19.6954V1ZM19.6954 6.42769H18.6954V7.42769H19.6954V6.42769ZM15.4738 7.63384V6.63384H14.4738V7.63384H15.4738ZM22.7108 7.63384H23.7108V6.63384H22.7108V7.63384ZM15.4738 9.2019H14.4738V10.4259L15.6732 10.1818L15.4738 9.2019ZM22.7108 9.2019L22.5114 10.1818L23.7108 10.4259V9.2019H22.7108ZM11.886 27.5354V26.5354H10.798L10.8895 27.6195L11.886 27.5354ZM19.0923 34.1692L19.0907 35.1692L19.0936 35.1692L19.0923 34.1692ZM26.2998 27.5354L27.2962 27.6195L27.3877 26.5354H26.2998V27.5354ZM2.21705 26.3292L1.21769 26.2934L1.18052 27.3292H2.21705V26.3292ZM35.9675 26.3292V27.3292H37.0041L36.9669 26.2934L35.9675 26.3292ZM24.9169 9.49843V7.03076H22.9169V9.49843H24.9169ZM38.1846 26.9309C38.1725 18.3528 32.4493 10.8327 24.1848 8.53498L23.649 10.4619C31.0492 12.5193 36.1737 19.2529 36.1846 26.9337L38.1846 26.9309ZM36.5815 28.5354C37.4668 28.5354 38.1846 27.8176 38.1846 26.9323H36.1846C36.1846 26.713 36.3623 26.5354 36.5815 26.5354V28.5354ZM27.5059 28.5354H36.5815V26.5354H27.5059V28.5354ZM19.0929 36.381C24.0479 36.381 28.158 32.5478 28.5035 27.6051L26.5084 27.4656C26.2361 31.3605 22.9974 34.381 19.0929 34.381V36.381ZM9.68228 27.6051C10.0278 32.5479 14.1382 36.381 19.0929 36.381V34.381C15.1887 34.381 11.9497 31.3605 11.6774 27.4656L9.68228 27.6051ZM1.60308 28.5354H10.6798V26.5354H1.60308V28.5354ZM0 26.9323C0 27.8176 0.717743 28.5354 1.60308 28.5354V26.5354C1.82232 26.5354 2 26.7131 2 26.9323H0ZM13.9998 8.53498C5.73529 10.8327 0.0121191 18.3528 9.97842e-07 26.9309L2 26.9337C2.01085 19.2529 7.1354 12.5193 14.5356 10.4619L13.9998 8.53498ZM13.2677 7.03076V9.49843H15.2677V7.03076H13.2677ZM14.8708 5.42769C13.9854 5.42769 13.2677 6.14543 13.2677 7.03076H15.2677C15.2677 7.25 15.09 7.42769 14.8708 7.42769V5.42769ZM18.4892 5.42769H14.8708V7.42769H18.4892V5.42769ZM17.4892 1V6.42769H19.4892V1H17.4892ZM19.6954 0H18.4892V2H19.6954V0ZM20.6954 6.42769V1H18.6954V6.42769H20.6954ZM23.3138 5.42769H19.6954V7.42769H23.3138V5.42769ZM24.9169 7.03076C24.9169 6.14544 24.1992 5.42769 23.3138 5.42769V7.42769C23.0946 7.42769 22.9169 7.25 22.9169 7.03076H24.9169ZM15.4738 8.63384H22.7108V6.63384H15.4738V8.63384ZM16.4738 9.2019V7.63384H14.4738V9.2019H16.4738ZM22.9101 8.22198C20.3907 7.70933 17.7939 7.70933 15.2744 8.22198L15.6732 10.1818C17.9295 9.72271 20.2551 9.72271 22.5114 10.1818L22.9101 8.22198ZM21.7108 7.63384V9.2019H23.7108V7.63384H21.7108ZM10.8895 27.6195C11.2495 31.8833 14.8119 35.1625 19.0907 35.1692L19.0939 33.1692C15.8531 33.1641 13.1551 30.6805 12.8825 27.4512L10.8895 27.6195ZM26.2998 26.5354H11.886V28.5354H26.2998V26.5354ZM19.0936 35.1692C23.3729 35.1635 26.9363 31.8836 27.2962 27.6195L25.3033 27.4513C25.0307 30.6808 22.3319 33.1649 19.091 33.1692L19.0936 35.1692ZM3.21641 26.3651C3.52308 17.8186 10.5403 11.0485 19.0923 11.0485V9.0485C9.46363 9.0485 1.56297 16.671 1.21769 26.2934L3.21641 26.3651ZM35.9675 25.3292H2.21705V27.3292H35.9675V25.3292ZM19.0923 11.0485C27.6443 11.0485 34.6615 17.8186 34.9682 26.3651L36.9669 26.2934C36.6216 16.671 28.721 9.0485 19.0923 9.0485V11.0485Z" fill="#232323"/>
<path fill-rule="evenodd" clip-rule="evenodd" d="M4.67054 30.8574L1.90479 32.6395L2.99572 34.3327L5.76173 32.5509L4.67054 30.8574ZM7.69571 34.3603L6.12056 37.249L7.88929 38.2135L9.46444 35.3245L7.69571 34.3603Z" fill="#232323"/>
<path fill-rule="evenodd" clip-rule="evenodd" d="M32.9369 30.8574L35.7026 32.6395L34.6117 34.3327L31.8457 32.5509L32.9369 30.8574ZM29.9117 34.3603L31.4869 37.249L29.7181 38.2135L28.143 35.3245L29.9117 34.3603Z" fill="#232323"/>
</svg>
