<svg width="70" height="70" viewBox="0 0 70 70" fill="none" xmlns="http://www.w3.org/2000/svg">
<path fill-rule="evenodd" clip-rule="evenodd" d="M61.979 70C66.4037 70 70 66.4037 70 61.979V8.02101C70 3.59634 66.4037 0 61.979 0H8.02101C3.59634 0 0 3.59634 0 8.02101V61.979C0 66.4037 3.59634 70 8.02101 70H61.979ZM4.375 8.02101C4.375 6.01135 6.01135 4.375 8.02101 4.375H61.979C63.9886 4.375 65.625 6.01135 65.625 8.02101V61.979C65.625 63.9886 63.9886 65.625 61.979 65.625H8.02101C6.01135 65.625 4.375 63.9886 4.375 61.979V8.02101ZM35 20.4165C36.6107 20.4165 37.9165 19.1107 37.9165 17.5C37.9165 15.8893 36.6107 14.5835 35 14.5835C33.3893 14.5835 32.0835 15.8893 32.0835 17.5C32.0835 19.1107 33.3893 20.4165 35 20.4165ZM35 53.9585H28.4375C27.23 53.9585 26.25 52.9785 26.25 51.771C26.25 50.5635 27.23 49.5835 28.4375 49.5835H32.8125V30.625H29.896C28.6885 30.625 27.7085 29.645 27.7085 28.4375C27.7085 27.23 28.6885 26.25 29.896 26.25H35C36.2075 26.25 37.1875 27.23 37.1875 28.4375V49.5835H41.5625C42.77 49.5835 43.75 50.5635 43.75 51.771C43.75 52.9785 42.77 53.9585 41.5625 53.9585H35Z" fill="#232323"/>
</svg>
