<svg width="72" height="72" viewBox="0 0 72 72" fill="none" xmlns="http://www.w3.org/2000/svg">
<path fill-rule="evenodd" clip-rule="evenodd" d="M68.6136 28.9782H69.7792C70.4229 28.9782 70.9449 29.5 70.9449 30.144V41.8015C70.9449 42.4453 70.4231 42.9672 69.7792 42.9672H68.6136V65.1167C68.6136 67.0478 67.048 68.6139 65.1164 68.6139H42.9668V69.7792C42.9668 70.4229 42.445 70.9449 41.8011 70.9449H30.1436C29.4999 70.9449 28.9779 70.4231 28.9779 69.7792V68.6135H6.82806C4.89694 68.6135 3.33083 67.0479 3.33083 65.1162V42.9675H2.16569C1.52194 42.9675 1 42.4457 1 41.8018V30.1443C1 29.5006 1.52181 28.9786 2.16569 28.9786H3.33139V6.82861C3.33139 4.89667 4.89667 3.33139 6.82861 3.33139H28.9781V2.16569C28.9781 1.52194 29.4999 1 30.1437 1H41.8013C42.445 1 42.9669 1.52181 42.9669 2.16569V3.33153H65.1164C67.0483 3.33153 68.6136 4.89681 68.6136 6.82875V28.9782ZM22.4133 38.8189C22.4708 38.8893 22.529 38.9593 22.5885 39.0289C22.6031 39.0461 22.618 39.0631 22.633 39.0802L22.6697 39.1221C22.7178 39.1772 22.7654 39.2325 22.8146 39.2871C23.135 39.6425 23.6671 40.2128 24.4011 40.989C24.4047 40.9928 24.4086 40.996 24.4122 40.9997C25.9633 42.6364 28.3024 45.0657 30.9772 47.8231L30.9789 47.8245L30.9806 47.826C32.7296 49.6294 34.8008 51.7571 35.9725 52.9576C37.1442 51.7571 39.2154 49.6294 40.9644 47.826C40.9654 47.8249 40.9667 47.8242 40.9676 47.8231C43.8021 44.8999 46.0225 42.5943 47.5321 41.0004L47.5349 40.9977L47.5371 40.9957C48.2681 40.2242 48.8061 39.6475 49.13 39.2869C49.2008 39.2082 49.2704 39.1289 49.3389 39.049L49.3492 39.0372C49.4161 38.959 49.4818 38.8801 49.5465 38.8008L49.5593 38.7854L49.5639 38.7797C51.6267 36.2412 52.5396 33.1729 52.2094 30.276L52.2093 30.2729C52.0932 29.2578 51.8324 28.3206 51.4451 27.481C50.4085 25.2996 48.4718 23.6826 45.8228 23.259L45.8093 23.2569C45.7076 23.2408 45.6047 23.2267 45.501 23.2142C45.4685 23.2103 45.4356 23.2071 45.4029 23.2036C45.321 23.1947 45.2389 23.1861 45.1557 23.1794C45.1035 23.1753 45.0506 23.1723 44.9978 23.1693L44.9692 23.1676L44.9131 23.1641C44.8729 23.1616 44.8326 23.159 44.7918 23.1574C44.6665 23.1524 44.5404 23.1494 44.4128 23.1494H44.4114C43.6246 23.1494 42.869 23.2585 42.1164 23.4697L42.116 23.4699L42.1154 23.47C39.926 24.0825 38.2442 25.6 37.2579 27.7669L37.2317 27.8256C37.1713 27.9608 37.1128 28.0981 37.0578 28.2383C36.8642 28.7317 36.4183 28.9782 35.9725 28.9782C35.5267 28.9782 35.0808 28.7317 34.8872 28.2383L34.8829 28.2279C34.8301 28.094 34.7743 27.9629 34.7167 27.8335L34.6839 27.7606C33.6974 25.5971 32.0167 24.0819 29.8296 23.47L29.8288 23.4697H29.8286C29.0796 23.2594 28.3275 23.1506 27.5447 23.1496L27.5335 23.1494C27.4053 23.1494 27.2785 23.1524 27.1528 23.1574C27.1108 23.1591 27.0694 23.1617 27.028 23.1643L27.0278 23.1644L26.9797 23.1674L26.9625 23.1683C26.9043 23.1716 26.846 23.1749 26.7885 23.1794C26.7068 23.1861 26.6263 23.1944 26.5458 23.2032L26.5076 23.2072L26.4731 23.2109L26.4426 23.2143C26.3406 23.2267 26.2394 23.2406 26.1393 23.2564L26.12 23.2593C23.4771 23.6826 21.5435 25.294 20.5056 27.4685C20.1149 28.3121 19.8519 29.2543 19.7354 30.2756V30.2765C19.4057 33.1693 20.3165 36.2344 22.3744 38.7717L22.4133 38.8189ZM68.6133 40.6357H51.0493C51.0543 40.63 51.059 40.6242 51.0637 40.6184L51.0638 40.6182L51.064 40.618C51.0687 40.6122 51.0734 40.6064 51.0783 40.6007C53.5343 37.7561 54.6543 34.4222 54.6261 31.3096H67.4478H68.6133V40.6357ZM66.2821 6.82875C66.2821 6.18444 65.7607 5.66306 65.1164 5.66306H42.9669V20.9085C43.4351 20.8489 43.9165 20.8174 44.4113 20.8174H44.4131C44.5749 20.8175 44.7347 20.8208 44.8932 20.8271L44.9027 20.8277L44.909 20.8281L44.9167 20.8285C50.1143 21.0428 53.4817 24.5565 54.3838 28.9778H66.2821V14.9887H60.4533C59.8096 14.9887 59.2876 14.4668 59.2876 13.8231C59.2876 13.1793 59.8094 12.6574 60.4533 12.6574H66.2821V10.3258H55.7903C55.1465 10.3258 54.6246 9.80403 54.6246 9.16014C54.6246 8.51639 55.1464 7.99444 55.7903 7.99444H66.2821V6.82875ZM40.6354 3.33153V4.49722V21.4844C38.7113 22.2149 37.1217 23.5199 35.9724 25.2735C34.8231 23.5196 33.2337 22.2146 31.3096 21.4843V4.49722L31.3094 4.49486V3.33139H40.6354V3.33153ZM6.82861 5.66306C6.18431 5.66306 5.66292 6.18444 5.66292 6.82875V28.9782H17.5607C18.4632 24.5553 21.8325 21.0406 27.0333 20.8286C27.0393 20.8285 27.0451 20.8279 27.0511 20.8276C27.2101 20.8214 27.3708 20.8179 27.5333 20.8179H27.5335H27.5336H27.5349C28.0292 20.8181 28.5101 20.8494 28.9779 20.909V5.66306H6.82861ZM3.33139 31.3103H17.3185C17.2906 34.4204 18.4088 37.7517 20.861 40.5947C20.8665 40.6012 20.8718 40.6077 20.8771 40.6142L20.8876 40.6269L20.8951 40.6358H4.49653L4.49073 40.6361L4.48514 40.6364H3.33139V31.3103ZM5.66236 65.1167C5.66236 65.7604 6.18444 66.2824 6.82806 66.2824V66.2822H28.9775V49.1101L28.7579 48.8838C26.4004 46.4512 24.4576 44.4338 23.064 42.9678H5.66236V56.9567H11.4917C12.1354 56.9567 12.6574 57.4786 12.6574 58.1224C12.6574 58.7661 12.1356 59.2881 11.4917 59.2881H5.66236V61.6196H16.1546C16.7983 61.6196 17.3203 62.1414 17.3203 62.7853C17.3203 63.429 16.7985 63.951 16.1546 63.951H5.66236V65.1167ZM40.6354 68.6139H31.3094V51.5117C33.0586 53.3106 34.6571 54.9496 35.141 55.4419C35.3751 55.6801 35.6861 55.7954 35.9951 55.7894C36.2889 55.7837 36.5808 55.6686 36.8035 55.4424C36.9389 55.3047 37.2051 55.0325 37.5612 54.6676C38.3082 53.9026 39.436 52.7451 40.6354 51.5115V67.4486V68.6139ZM65.1164 66.2828C65.7601 66.2828 66.2821 65.7607 66.2821 65.1171V42.9678H48.8807C47.4871 44.4338 45.5442 46.4512 43.1867 48.8839L42.9669 49.1106V66.2828H65.1164Z" fill="#232323"/>
<path d="M68.6136 28.9782H68.0136V29.5782H68.6136V28.9782ZM68.6136 42.9672V42.3672H68.0136V42.9672H68.6136ZM42.9668 68.6139V68.0139H42.3668V68.6139H42.9668ZM28.9779 68.6135H29.5779V68.0135H28.9779V68.6135ZM3.33083 42.9675H3.93083V42.3675H3.33083V42.9675ZM3.33139 28.9786V29.5786H3.93139V28.9786H3.33139ZM28.9781 3.33139V3.93139H29.5781V3.33139H28.9781ZM42.9669 3.33153H42.3669V3.93153H42.9669V3.33153ZM22.5885 39.0289L23.0449 38.6394L23.0447 38.6392L22.5885 39.0289ZM22.4133 38.8189L22.8781 38.4394L22.8765 38.4375L22.4133 38.8189ZM22.633 39.0802L23.0843 38.6848L23.084 38.6844L22.633 39.0802ZM22.6697 39.1221L23.122 38.7279L23.121 38.7267L22.6697 39.1221ZM22.8146 39.2871L22.3688 39.6886L22.3689 39.6888L22.8146 39.2871ZM24.4011 40.989L23.9651 41.4013L23.969 41.4053L24.4011 40.989ZM24.4122 40.9997L24.8477 40.587L24.8443 40.5834L24.4122 40.9997ZM30.9772 47.8231L30.5466 48.2408L30.5638 48.2586L30.5825 48.2749L30.9772 47.8231ZM30.9789 47.8245L31.3745 47.3734L31.3736 47.3726L30.9789 47.8245ZM30.9806 47.826L31.4113 47.4083L31.3944 47.3909L31.3762 47.3749L30.9806 47.826ZM35.9725 52.9576L35.5431 53.3767L35.9725 53.8167L36.4019 53.3767L35.9725 52.9576ZM40.9644 47.826L41.3952 48.2437L41.4065 48.232L41.4171 48.2198L40.9644 47.826ZM40.9676 47.8231L40.5369 47.4054L40.5264 47.4162L40.5164 47.4276L40.9676 47.8231ZM47.5321 41.0004L47.1177 40.5665L47.1068 40.5769L47.0965 40.5878L47.5321 41.0004ZM47.5349 40.9977L47.1265 40.5581L47.1205 40.5639L47.5349 40.9977ZM47.5371 40.9957L47.9454 41.4353L47.9595 41.4223L47.9726 41.4084L47.5371 40.9957ZM49.13 39.2869L48.6839 38.8857L48.6837 38.886L49.13 39.2869ZM49.3389 39.049L48.8864 38.655L48.8834 38.6585L49.3389 39.049ZM49.3492 39.0372L49.8017 39.4312L49.805 39.4274L49.3492 39.0372ZM49.5465 38.8008L49.0839 38.4188L49.0817 38.4215L49.5465 38.8008ZM49.5593 38.7854L50.022 39.1674L50.0249 39.1638L49.5593 38.7854ZM49.5639 38.7797L50.0295 39.1582L50.0295 39.1581L49.5639 38.7797ZM52.2094 30.276L51.61 30.3029L51.611 30.3235L51.6133 30.3439L52.2094 30.276ZM52.2093 30.2729L52.8087 30.246L52.8078 30.2253L52.8054 30.2047L52.2093 30.2729ZM51.4451 27.481L51.99 27.2297L51.9871 27.2234L51.4451 27.481ZM45.8228 23.259L45.9175 22.6665L45.9145 22.6661L45.8228 23.259ZM45.8093 23.2569L45.7154 23.8496L45.7176 23.8499L45.8093 23.2569ZM45.501 23.2142L45.5728 22.6185L45.5723 22.6184L45.501 23.2142ZM45.4029 23.2036L45.3382 23.8001L45.3395 23.8002L45.4029 23.2036ZM45.1557 23.1794L45.2036 22.5814L45.2029 22.5813L45.1557 23.1794ZM44.9978 23.1693L44.9634 23.7683L44.9635 23.7683L44.9978 23.1693ZM44.9692 23.1676L44.9318 23.7665L44.9348 23.7667L44.9692 23.1676ZM44.9131 23.1641L44.8747 23.7629L44.8757 23.763L44.9131 23.1641ZM44.7918 23.1574L44.7679 23.7569L44.7681 23.7569L44.7918 23.1574ZM42.1164 23.4697L41.9543 22.892L41.94 22.8961L41.9259 22.9008L42.1164 23.4697ZM42.116 23.4699L42.2596 24.0524L42.2833 24.0466L42.3065 24.0388L42.116 23.4699ZM42.1154 23.47L41.9718 22.8874L41.9627 22.8897L41.9538 22.8922L42.1154 23.47ZM37.2579 27.7669L36.7118 27.5184L36.7103 27.5217L37.2579 27.7669ZM37.2317 27.8256L36.6841 27.5803L36.6838 27.5809L37.2317 27.8256ZM37.0578 28.2383L37.6163 28.4575L37.6164 28.4573L37.0578 28.2383ZM34.8872 28.2383L35.4458 28.0191L35.4418 28.0093L34.8872 28.2383ZM34.8829 28.2279L34.3247 28.448L34.3284 28.457L34.8829 28.2279ZM34.7167 27.8335L35.2648 27.5894L35.2639 27.5875L34.7167 27.8335ZM34.6839 27.7606L35.2312 27.5146L35.2298 27.5116L34.6839 27.7606ZM29.8296 23.47L29.6406 24.0395L29.6542 24.044L29.6679 24.0478L29.8296 23.47ZM29.8288 23.4697L30.0177 22.9003L29.9257 22.8697H29.8288V23.4697ZM29.8286 23.4697L29.6664 24.0474L29.746 24.0697H29.8286V23.4697ZM27.5447 23.1496L27.5373 23.7496L27.544 23.7496L27.5447 23.1496ZM27.5335 23.1494L27.5409 22.5494H27.5335V23.1494ZM27.1528 23.1574L27.1289 22.5578L27.1285 22.5579L27.1528 23.1574ZM27.028 23.1643L27.0552 23.7638L27.0661 23.7631L27.028 23.1643ZM27.0278 23.1644L27.0006 22.5649L26.9904 22.5655L27.0278 23.1644ZM26.9797 23.1674L27.0135 23.7664L27.0172 23.7662L26.9797 23.1674ZM26.9625 23.1683L26.9962 23.7674L26.9963 23.7674L26.9625 23.1683ZM26.7885 23.1794L26.7411 22.5813L26.7397 22.5814L26.7885 23.1794ZM26.5458 23.2032L26.609 23.7999L26.6107 23.7997L26.5458 23.2032ZM26.5076 23.2072L26.5706 23.8039L26.5707 23.8039L26.5076 23.2072ZM26.4731 23.2109L26.4101 22.6142L26.406 22.6146L26.4731 23.2109ZM26.4426 23.2143L26.3756 22.618L26.3705 22.6187L26.4426 23.2143ZM26.1393 23.2564L26.2289 23.8497L26.233 23.849L26.1393 23.2564ZM26.12 23.2593L26.0304 22.666L26.0251 22.6669L26.12 23.2593ZM20.5056 27.4685L19.964 27.21L19.9611 27.2163L20.5056 27.4685ZM19.7354 30.2756L19.1393 30.2075L19.1354 30.2414V30.2756H19.7354ZM19.7354 30.2765L20.3316 30.3445L20.3354 30.3106V30.2765H19.7354ZM22.3744 38.7717L21.9084 39.1496L21.9113 39.1531L22.3744 38.7717ZM51.0493 40.6357L50.5961 40.2425L49.7343 41.2357H51.0493V40.6357ZM68.6133 40.6357V41.2357H69.2133V40.6357H68.6133ZM51.0637 40.6184L50.6081 40.2279L50.6027 40.2342L50.5975 40.2406L51.0637 40.6184ZM51.064 40.618L51.5195 41.0085L51.5249 41.0022L51.5301 40.9958L51.064 40.618ZM51.0783 40.6007L51.5317 40.9938L51.5325 40.9928L51.0783 40.6007ZM54.6261 31.3096V30.7096H54.0206L54.0261 31.315L54.6261 31.3096ZM68.6133 31.3096H69.2133V30.7096H68.6133V31.3096ZM42.9669 5.66306V5.06306H42.3669V5.66306H42.9669ZM42.9669 20.9085H42.3669V21.5897L43.0427 21.5037L42.9669 20.9085ZM44.4131 20.8174L44.4136 20.2174H44.4131V20.8174ZM44.8932 20.8271L44.9306 20.2281L44.9168 20.2276L44.8932 20.8271ZM44.9027 20.8277L44.942 20.229L44.9402 20.2288L44.9027 20.8277ZM44.909 20.8281L44.8698 21.4269L44.8793 21.4274L44.909 20.8281ZM44.9167 20.8285L44.8869 21.4278L44.8919 21.428L44.9167 20.8285ZM54.3838 28.9778L53.7959 29.0977L53.8938 29.5778H54.3838V28.9778ZM66.2821 28.9778V29.5778H66.8821V28.9778H66.2821ZM66.2821 14.9887H66.8821V14.3887H66.2821V14.9887ZM66.2821 12.6574V13.2574H66.8821V12.6574H66.2821ZM66.2821 10.3258H66.8821V9.72583H66.2821V10.3258ZM66.2821 7.99444V8.59444H66.8821V7.99444H66.2821ZM40.6354 21.4844L40.8484 22.0454L41.2354 21.8985V21.4844H40.6354ZM35.9724 25.2735L35.4705 25.6023L35.9723 26.3681L36.4742 25.6024L35.9724 25.2735ZM31.3096 21.4843H30.7096V21.8983L31.0967 22.0453L31.3096 21.4843ZM31.3096 4.49722H31.9096V4.47955L31.9085 4.4619L31.3096 4.49722ZM31.3094 4.49486H30.7094V4.51254L30.7105 4.53018L31.3094 4.49486ZM31.3094 3.33139V2.73139H30.7094V3.33139H31.3094ZM40.6354 3.33139H41.2354V2.73139H40.6354V3.33139ZM5.66292 28.9782H5.06292V29.5782H5.66292V28.9782ZM17.5607 28.9782V29.5782H18.0506L18.1486 29.0982L17.5607 28.9782ZM27.0333 20.8286L27.0193 20.2287L27.0089 20.2291L27.0333 20.8286ZM27.0511 20.8276L27.0275 20.2281L27.0232 20.2283L27.0511 20.8276ZM27.5349 20.8179L27.535 20.2179H27.5349V20.8179ZM28.9779 20.909L28.9021 21.5042L29.5779 21.5903V20.909H28.9779ZM28.9779 5.66306H29.5779V5.06306H28.9779V5.66306ZM17.3185 31.3103L17.9184 31.3157L17.9239 30.7103H17.3185V31.3103ZM3.33139 31.3103V30.7103H2.73139V31.3103H3.33139ZM20.861 40.5947L21.3165 40.2042L21.3153 40.2028L20.861 40.5947ZM20.8771 40.6142L20.4122 40.9934L20.4134 40.995L20.8771 40.6142ZM20.8876 40.6269L20.4238 41.0078L20.4301 41.0151L20.8876 40.6269ZM20.8951 40.6358V41.2358H22.1912L21.3526 40.2476L20.8951 40.6358ZM4.49653 40.6358V40.0358H4.48193L4.46735 40.0365L4.49653 40.6358ZM4.49073 40.6361L4.46155 40.0368L4.46129 40.0368L4.49073 40.6361ZM4.48514 40.6364V41.2364H4.49987L4.51458 41.2357L4.48514 40.6364ZM3.33139 40.6364H2.73139V41.2364H3.33139V40.6364ZM6.82806 66.2824V66.8824H7.42806V66.2824H6.82806ZM6.82806 66.2822V65.6822H6.22806V66.2822H6.82806ZM28.9775 66.2822V66.8822H29.5775V66.2822H28.9775ZM28.9775 49.1101H29.5775V48.867L29.4082 48.6924L28.9775 49.1101ZM28.7579 48.8838L28.3271 49.3013L28.3272 49.3015L28.7579 48.8838ZM23.064 42.9678L23.4989 42.5544L23.3215 42.3678H23.064V42.9678ZM5.66236 42.9678V42.3678H5.06236V42.9678H5.66236ZM5.66236 56.9567H5.06236V57.5567H5.66236V56.9567ZM5.66236 59.2881V58.6881H5.06236V59.2881H5.66236ZM5.66236 61.6196H5.06236V62.2196H5.66236V61.6196ZM5.66236 63.951V63.351H5.06236V63.951H5.66236ZM31.3094 68.6139H30.7094V69.2139H31.3094V68.6139ZM40.6354 68.6139V69.2139H41.2354V68.6139H40.6354ZM31.3094 51.5117L31.7396 51.0934L30.7094 50.0339V51.5117H31.3094ZM35.141 55.4419L34.713 55.8625L34.7131 55.8626L35.141 55.4419ZM35.9951 55.7894L36.0067 56.3893H36.0068L35.9951 55.7894ZM36.8035 55.4424L37.2311 55.8632L37.2312 55.8632L36.8035 55.4424ZM37.5612 54.6676L37.1319 54.2485L37.1319 54.2486L37.5612 54.6676ZM40.6354 51.5115H41.2354V50.0337L40.2052 51.0933L40.6354 51.5115ZM66.2821 42.9678H66.8821V42.3678H66.2821V42.9678ZM48.8807 42.9678V42.3678H48.6232L48.4458 42.5544L48.8807 42.9678ZM43.1867 48.8839L43.6175 49.3015L43.6175 49.3014L43.1867 48.8839ZM42.9669 49.1106L42.5361 48.6929L42.3669 48.8675V49.1106H42.9669ZM42.9669 66.2828H42.3669V66.8828H42.9669V66.2828ZM69.7792 28.3782H68.6136V29.5782H69.7792V28.3782ZM71.5449 30.144C71.5449 29.1686 70.7543 28.3782 69.7792 28.3782V29.5782C70.0916 29.5782 70.3449 29.8314 70.3449 30.144H71.5449ZM71.5449 41.8015V30.144H70.3449V41.8015H71.5449ZM69.7792 43.5672C70.7545 43.5672 71.5449 42.7766 71.5449 41.8015H70.3449C70.3449 42.114 70.0916 42.3672 69.7792 42.3672V43.5672ZM68.6136 43.5672H69.7792V42.3672H68.6136V43.5672ZM69.2136 65.1167V42.9672H68.0136V65.1167H69.2136ZM65.1164 69.2139C67.3795 69.2139 69.2136 67.3791 69.2136 65.1167H68.0136C68.0136 66.7165 66.7166 68.0139 65.1164 68.0139V69.2139ZM42.9668 69.2139H65.1164V68.0139H42.9668V69.2139ZM43.5668 69.7792V68.6139H42.3668V69.7792H43.5668ZM41.8011 71.5449C42.7764 71.5449 43.5668 70.7542 43.5668 69.7792H42.3668C42.3668 70.0916 42.1136 70.3449 41.8011 70.3449V71.5449ZM30.1436 71.5449H41.8011V70.3449H30.1436V71.5449ZM28.3779 69.7792C28.3779 70.7545 29.1685 71.5449 30.1436 71.5449V70.3449C29.8312 70.3449 29.5779 70.0916 29.5779 69.7792H28.3779ZM28.3779 68.6135V69.7792H29.5779V68.6135H28.3779ZM6.82806 69.2135H28.9779V68.0135H6.82806V69.2135ZM2.73083 65.1162C2.73083 67.3793 4.56563 69.2135 6.82806 69.2135V68.0135C5.22825 68.0135 3.93083 66.7165 3.93083 65.1162H2.73083ZM2.73083 42.9675V65.1162H3.93083V42.9675H2.73083ZM2.16569 43.5675H3.33083V42.3675H2.16569V43.5675ZM0.4 41.8018C0.4 42.7771 1.19062 43.5675 2.16569 43.5675V42.3675C1.85327 42.3675 1.6 42.1143 1.6 41.8018H0.4ZM0.4 30.1443V41.8018H1.6V30.1443H0.4ZM2.16569 28.3786C1.19039 28.3786 0.4 29.1692 0.4 30.1443H1.6C1.6 29.8319 1.85322 29.5786 2.16569 29.5786V28.3786ZM3.33139 28.3786H2.16569V29.5786H3.33139V28.3786ZM2.73139 6.82861V28.9786H3.93139V6.82861H2.73139ZM6.82861 2.73139C4.5653 2.73139 2.73139 4.5653 2.73139 6.82861H3.93139C3.93139 5.22804 5.22804 3.93139 6.82861 3.93139V2.73139ZM28.9781 2.73139H6.82861V3.93139H28.9781V2.73139ZM28.3781 2.16569V3.33139H29.5781V2.16569H28.3781ZM30.1437 0.4C29.1684 0.4 28.3781 1.19062 28.3781 2.16569H29.5781C29.5781 1.85327 29.8313 1.6 30.1437 1.6V0.4ZM41.8013 0.4H30.1437V1.6H41.8013V0.4ZM43.5669 2.16569C43.5669 1.19039 42.7763 0.4 41.8013 0.4V1.6C42.1137 1.6 42.3669 1.85322 42.3669 2.16569H43.5669ZM43.5669 3.33153V2.16569H42.3669V3.33153H43.5669ZM65.1164 2.73153H42.9669V3.93153H65.1164V2.73153ZM69.2136 6.82875C69.2136 4.56543 67.3797 2.73153 65.1164 2.73153V3.93153C66.717 3.93153 68.0136 5.22818 68.0136 6.82875H69.2136ZM69.2136 28.9782V6.82875H68.0136V28.9782H69.2136ZM23.0447 38.6392C22.9887 38.5736 22.9334 38.5071 22.8781 38.4394L21.9486 39.1984C22.0083 39.2715 22.0694 39.345 22.1323 39.4186L23.0447 38.6392ZM23.084 38.6844C23.0692 38.6676 23.0567 38.6532 23.0449 38.6394L22.1321 39.4184C22.1496 39.4389 22.1669 39.4586 22.182 39.4759L23.084 38.6844ZM23.121 38.7267L23.0843 38.6848L22.1817 39.4755L22.2184 39.5174L23.121 38.7267ZM23.2604 38.8855C23.2155 38.8357 23.173 38.7864 23.122 38.7279L22.2174 39.5163C22.2625 39.5681 22.3153 39.6293 22.3688 39.6886L23.2604 38.8855ZM24.8371 40.5768C24.1031 39.8006 23.5754 39.2349 23.2602 38.8853L22.3689 39.6888C22.6946 40.0501 23.2311 40.625 23.9652 41.4013L24.8371 40.5768ZM24.8443 40.5834C24.8358 40.5745 24.8284 40.5674 24.8234 40.5627C24.8188 40.5583 24.8147 40.5545 24.8143 40.5541C24.8128 40.5527 24.8151 40.5548 24.8178 40.5574C24.8209 40.5604 24.8265 40.5657 24.8332 40.5728L23.969 41.4053C23.9776 41.4142 23.9849 41.4214 23.9899 41.4261C23.9945 41.4305 23.9987 41.4343 23.9991 41.4347C24.0005 41.436 23.9983 41.434 23.9955 41.4313C23.9924 41.4284 23.9869 41.423 23.9801 41.416L24.8443 40.5834ZM31.4079 47.4053C28.7335 44.6484 26.3964 42.2211 24.8477 40.587L23.9767 41.4124C25.5303 43.0517 27.8712 45.483 30.5466 48.2408L31.4079 47.4053ZM31.3736 47.3726L31.372 47.3712L30.5825 48.2749L30.5841 48.2764L31.3736 47.3726ZM31.3762 47.3749L31.3745 47.3734L30.5833 48.2756L30.5849 48.2771L31.3762 47.3749ZM36.4019 52.5386C35.2306 51.3384 33.1598 49.2112 31.4113 47.4083L30.5498 48.2437C32.2993 50.0476 34.371 52.1757 35.5431 53.3767L36.4019 52.5386ZM40.5337 47.4083C38.7852 49.2112 36.7144 51.3384 35.5431 52.5386L36.4019 53.3767C37.574 52.1757 39.6457 50.0476 41.3952 48.2437L40.5337 47.4083ZM40.5164 47.4276C40.5375 47.4035 40.5567 47.3856 40.5689 47.3748C40.5751 47.3693 40.5801 47.3651 40.5831 47.3626C40.5859 47.3603 40.5882 47.3584 40.5876 47.3589C40.5876 47.3589 40.5868 47.3595 40.586 47.3602C40.5851 47.361 40.5836 47.3622 40.5819 47.3636C40.5784 47.3665 40.573 47.3711 40.5664 47.3769C40.5534 47.3885 40.5335 47.4071 40.5117 47.4322L41.4171 48.2198C41.3958 48.2442 41.3765 48.2624 41.364 48.2735C41.3577 48.2791 41.3525 48.2835 41.3494 48.2861C41.3465 48.2885 41.344 48.2905 41.3445 48.2901C41.3445 48.2901 41.3445 48.2901 41.3445 48.2901C41.3445 48.2901 41.3445 48.2901 41.3445 48.2901C41.3446 48.2901 41.3446 48.29 41.3446 48.29C41.3447 48.29 41.3448 48.2899 41.3449 48.2898C41.3451 48.2896 41.3454 48.2893 41.3459 48.289C41.3467 48.2883 41.3481 48.2872 41.3498 48.2858C41.3531 48.283 41.3584 48.2786 41.3648 48.2729C41.3776 48.2615 41.3972 48.2432 41.4189 48.2185L40.5164 47.4276ZM47.0965 40.5878C45.5894 42.179 43.3711 44.4824 40.5369 47.4054L41.3984 48.2407C44.2331 45.3173 46.4556 43.0096 47.9677 41.413L47.0965 40.5878ZM47.1205 40.5639L47.1177 40.5665L47.9465 41.4343L47.9493 41.4316L47.1205 40.5639ZM47.1287 40.5561L47.1265 40.5581L47.9432 41.4373L47.9454 41.4353L47.1287 40.5561ZM48.6837 38.886C48.3656 39.2401 47.8323 39.8117 47.1015 40.583L47.9726 41.4084C48.7038 40.6367 49.2467 40.0549 49.5764 39.6879L48.6837 38.886ZM48.8834 38.6585C48.8179 38.7349 48.7514 38.8106 48.6839 38.8857L49.5761 39.6882C49.6502 39.6058 49.7229 39.5229 49.7944 39.4396L48.8834 38.6585ZM48.8967 38.6432L48.8864 38.655L49.7914 39.443L49.8017 39.4312L48.8967 38.6432ZM49.0817 38.4215C49.0195 38.4977 48.9568 38.5729 48.8934 38.647L49.805 39.4274C49.8754 39.3451 49.9442 39.2626 50.0114 39.1802L49.0817 38.4215ZM49.0967 38.4033L49.0839 38.4188L50.0092 39.1829L50.022 39.1674L49.0967 38.4033ZM49.0983 38.4013L49.0937 38.4069L50.0249 39.1638L50.0295 39.1582L49.0983 38.4013ZM51.6133 30.3439C51.9238 33.0688 51.067 35.9785 49.0982 38.4013L50.0295 39.1581C52.1863 36.5039 53.1553 33.277 52.8056 30.208L51.6133 30.3439ZM51.6099 30.2999L51.61 30.3029L52.8088 30.249L52.8087 30.246L51.6099 30.2999ZM50.9003 27.7323C51.2592 28.5105 51.5039 29.3854 51.6132 30.3411L52.8054 30.2047C52.6825 29.1301 52.4055 28.1306 51.99 27.2297L50.9003 27.7323ZM45.728 23.8515C48.1689 24.2418 49.9455 25.7233 50.9032 27.7385L51.9871 27.2234C50.8714 24.8759 48.7747 23.1235 45.9175 22.6666L45.728 23.8515ZM45.7176 23.8499L45.7311 23.852L45.9145 22.6661L45.901 22.664L45.7176 23.8499ZM45.4292 23.8099C45.5263 23.8216 45.6218 23.8347 45.7154 23.8496L45.9032 22.6643C45.7935 22.6469 45.6831 22.6318 45.5728 22.6185L45.4292 23.8099ZM45.3395 23.8002C45.3796 23.8045 45.4023 23.8066 45.4297 23.8099L45.5723 22.6184C45.5346 22.6139 45.4915 22.6097 45.4664 22.607L45.3395 23.8002ZM45.1078 23.7775C45.182 23.7835 45.2569 23.7913 45.3382 23.8001L45.4676 22.6071C45.385 22.5981 45.2958 22.5887 45.2036 22.5814L45.1078 23.7775ZM44.9635 23.7683C45.0175 23.7714 45.0638 23.7741 45.1085 23.7776L45.2029 22.5813C45.1431 22.5766 45.0838 22.5732 45.0321 22.5703L44.9635 23.7683ZM44.9348 23.7667L44.9634 23.7683L45.0322 22.5703L45.0036 22.5686L44.9348 23.7667ZM44.8757 23.763L44.9318 23.7665L45.0065 22.5688L44.9505 22.5653L44.8757 23.763ZM44.7681 23.7569C44.8003 23.7582 44.8333 23.7603 44.8747 23.7629L44.9515 22.5654C44.9124 22.5629 44.8649 22.5598 44.8155 22.5578L44.7681 23.7569ZM44.4128 23.7494C44.5313 23.7494 44.6493 23.7522 44.7679 23.7569L44.8157 22.5578C44.6837 22.5526 44.5495 22.5494 44.4128 22.5494V23.7494ZM44.4114 23.7494H44.4128V22.5494H44.4114V23.7494ZM42.2785 24.0474C42.9808 23.8503 43.6818 23.7494 44.4114 23.7494V22.5494C43.5674 22.5494 42.7573 22.6666 41.9543 22.892L42.2785 24.0474ZM42.3065 24.0388L42.3069 24.0387L41.9259 22.9008L41.9255 22.9009L42.3065 24.0388ZM42.2591 24.0526L42.2596 24.0524L41.9723 22.8873L41.9718 22.8874L42.2591 24.0526ZM37.804 28.0155C38.7239 25.9944 40.2735 24.6083 42.2771 24.0478L41.9538 22.8922C39.5784 23.5567 37.7645 25.2056 36.7118 27.5184L37.804 28.0155ZM37.7792 28.0708L37.8055 28.0122L36.7103 27.5217L36.6841 27.5803L37.7792 28.0708ZM37.6164 28.4573C37.6672 28.3277 37.7219 28.1993 37.7795 28.0702L36.6838 27.5809C36.6206 27.7224 36.5584 27.8684 36.4992 28.0193L37.6164 28.4573ZM35.9725 29.5782C36.6394 29.5782 37.3235 29.2036 37.6163 28.4575L36.4992 28.0191C36.4048 28.2597 36.1973 28.3782 35.9725 28.3782V29.5782ZM34.3287 28.4575C34.6215 29.2036 35.3056 29.5782 35.9725 29.5782V28.3782C35.7477 28.3782 35.5402 28.2597 35.4458 28.0191L34.3287 28.4575ZM34.3284 28.457L34.3327 28.4674L35.4418 28.0093L35.4375 27.9989L34.3284 28.457ZM34.1686 28.0775C34.2236 28.2011 34.2758 28.324 34.3247 28.448L35.4411 28.0079C35.3844 27.8641 35.3251 27.7248 35.2648 27.5894L34.1686 28.0775ZM34.1366 28.0065L34.1694 28.0795L35.2639 27.5875L35.2311 27.5146L34.1366 28.0065ZM29.6679 24.0478C31.6693 24.6078 33.2179 25.9918 34.138 28.0095L35.2298 27.5116C34.1768 25.2024 32.364 23.5561 29.9913 22.8922L29.6679 24.0478ZM29.6398 24.0392L29.6406 24.0395L30.0185 22.9005L30.0177 22.9003L29.6398 24.0392ZM29.8286 24.0697H29.8288V22.8697H29.8286V24.0697ZM27.544 23.7496C28.2698 23.7505 28.9677 23.8512 29.6664 24.0474L29.9908 22.8921C29.1915 22.6677 28.3852 22.5506 27.5455 22.5496L27.544 23.7496ZM27.526 23.7494L27.5373 23.7495L27.5521 22.5496L27.5409 22.5495L27.526 23.7494ZM27.1766 23.7569C27.2956 23.7522 27.4144 23.7494 27.5335 23.7494V22.5494C27.3962 22.5494 27.2614 22.5526 27.1289 22.5578L27.1766 23.7569ZM27.0661 23.7631C27.1087 23.7604 27.1432 23.7582 27.1771 23.7569L27.1285 22.5579C27.0785 22.5599 27.0301 22.563 26.9898 22.5656L27.0661 23.7631ZM27.0551 23.7637L27.0552 23.7637L27.0007 22.565L27.0006 22.565L27.0551 23.7637ZM27.0172 23.7662L27.0653 23.7632L26.9904 22.5655L26.9423 22.5685L27.0172 23.7662ZM26.9963 23.7674L27.0135 23.7664L26.9459 22.5683L26.9286 22.5693L26.9963 23.7674ZM26.8358 23.7776C26.8854 23.7737 26.9368 23.7707 26.9962 23.7674L26.9287 22.5693C26.8717 22.5725 26.8066 22.5761 26.7411 22.5813L26.8358 23.7776ZM26.6107 23.7997C26.6895 23.7911 26.7637 23.7835 26.8373 23.7775L26.7397 22.5814C26.6499 22.5888 26.563 22.5978 26.4809 22.6067L26.6107 23.7997ZM26.5707 23.8039L26.609 23.7999L26.4827 22.6065L26.4445 22.6106L26.5707 23.8039ZM26.5361 23.8076L26.5706 23.8039L26.4446 22.6106L26.4101 22.6142L26.5361 23.8076ZM26.5097 23.8105L26.5401 23.8071L26.406 22.6146L26.3756 22.6181L26.5097 23.8105ZM26.233 23.849C26.3251 23.8345 26.419 23.8216 26.5148 23.81L26.3705 22.6187C26.2622 22.6318 26.1538 22.6466 26.0456 22.6638L26.233 23.849ZM26.2096 23.8526L26.2289 23.8497L26.0497 22.6631L26.0304 22.666L26.2096 23.8526ZM21.047 27.7269C22.0058 25.7182 23.7797 24.2418 26.2149 23.8518L26.0251 22.6669C23.1745 23.1235 21.0811 24.8698 19.9641 27.21L21.047 27.7269ZM20.3316 30.3436C20.4413 29.3821 20.6879 28.5025 21.05 27.7206L19.9611 27.2163C19.5418 28.1216 19.2626 29.1265 19.1393 30.2075L20.3316 30.3436ZM20.3354 30.2765V30.2756H19.1354V30.2765H20.3354ZM22.8404 38.3937C20.8763 35.9721 20.0214 33.0653 20.3316 30.3445L19.1393 30.2086C18.79 33.2733 19.7568 36.4968 21.9085 39.1496L22.8404 38.3937ZM22.8765 38.4375L22.8376 38.3902L21.9113 39.1531L21.9502 39.2003L22.8765 38.4375ZM51.0493 41.2357H68.6133V40.0357H51.0493V41.2357ZM50.5975 40.2406C50.5949 40.2439 50.5941 40.2448 50.5936 40.2454C50.5933 40.2458 50.5943 40.2446 50.5961 40.2425L51.5025 41.0289C51.5152 41.0143 51.5263 41.0005 51.5298 40.9961L50.5975 40.2406ZM50.6083 40.2277L50.6081 40.2279L51.5192 41.0088L51.5194 41.0087L50.6083 40.2277ZM50.6084 40.2276L50.6083 40.2277L51.5194 41.0087L51.5195 41.0085L50.6084 40.2276ZM50.625 40.2076C50.6124 40.2222 50.6014 40.2359 50.5978 40.2403L51.5301 40.9958C51.5328 40.9925 51.5336 40.9916 51.5341 40.9909C51.5344 40.9905 51.5335 40.9917 51.5317 40.9938L50.625 40.2076ZM54.0261 31.315C54.053 34.2796 52.9863 37.4727 50.6242 40.2086L51.5325 40.9928C54.0823 38.0395 55.2556 34.5648 55.2261 31.3041L54.0261 31.315ZM67.4478 30.7096H54.6261V31.9096H67.4478V30.7096ZM68.6133 30.7096H67.4478V31.9096H68.6133V30.7096ZM69.2133 40.6357V31.3096H68.0133V40.6357H69.2133ZM65.1164 6.26306C65.4293 6.26306 65.6821 6.51582 65.6821 6.82875H66.8821C66.8821 5.85307 66.0921 5.06306 65.1164 5.06306V6.26306ZM42.9669 6.26306H65.1164V5.06306H42.9669V6.26306ZM43.5669 20.9085V5.66306H42.3669V20.9085H43.5669ZM44.4113 20.2174C43.891 20.2174 43.3843 20.2505 42.8912 20.3133L43.0427 21.5037C43.486 21.4473 43.9421 21.4174 44.4113 21.4174V20.2174ZM44.4131 20.2174H44.4113V21.4174H44.4131V20.2174ZM44.9168 20.2276C44.7509 20.221 44.5833 20.2175 44.4136 20.2174L44.4125 21.4174C44.5664 21.4175 44.7186 21.4207 44.8695 21.4266L44.9168 20.2276ZM44.9402 20.2288L44.9306 20.2283L44.8558 21.4259L44.8653 21.4265L44.9402 20.2288ZM44.9483 20.2294L44.942 20.229L44.8635 21.4264L44.8698 21.4268L44.9483 20.2294ZM44.9464 20.2292L44.9388 20.2288L44.8793 21.4274L44.8869 21.4277L44.9464 20.2292ZM54.9716 28.8578C54.0211 24.199 50.4467 20.456 44.9414 20.229L44.8919 21.428C49.7819 21.6296 52.9422 24.914 53.7959 29.0977L54.9716 28.8578ZM66.2821 28.3778H54.3838V29.5778H66.2821V28.3778ZM65.6821 14.9887V28.9778H66.8821V14.9887H65.6821ZM60.4533 15.5887H66.2821V14.3887H60.4533V15.5887ZM58.6876 13.8231C58.6876 14.7982 59.4782 15.5887 60.4533 15.5887V14.3887C60.141 14.3887 59.8876 14.1354 59.8876 13.8231H58.6876ZM60.4533 12.0574C59.478 12.0574 58.6876 12.848 58.6876 13.8231H59.8876C59.8876 13.5106 60.1409 13.2574 60.4533 13.2574V12.0574ZM66.2821 12.0574H60.4533V13.2574H66.2821V12.0574ZM65.6821 10.3258V12.6574H66.8821V10.3258H65.6821ZM55.7903 10.9258H66.2821V9.72583H55.7903V10.9258ZM54.0246 9.16014C54.0246 10.1354 54.8152 10.9258 55.7903 10.9258V9.72583C55.4779 9.72583 55.2246 9.47261 55.2246 9.16014H54.0246ZM55.7903 7.39444C54.815 7.39444 54.0246 8.18506 54.0246 9.16014H55.2246C55.2246 8.84771 55.4778 8.59444 55.7903 8.59444V7.39444ZM66.2821 7.39444H55.7903V8.59444H66.2821V7.39444ZM65.6821 6.82875V7.99444H66.8821V6.82875H65.6821ZM41.2354 4.49722V3.33153H40.0354V4.49722H41.2354ZM41.2354 21.4844V4.49722H40.0354V21.4844H41.2354ZM36.4742 25.6024C37.5573 23.9497 39.0479 22.7288 40.8484 22.0454L40.4225 20.9235C38.3746 21.7009 36.686 23.09 35.4705 24.9446L36.4742 25.6024ZM31.0967 22.0453C32.897 22.7285 34.3874 23.9494 35.4705 25.6023L36.4742 24.9446C35.2587 23.0898 33.5705 21.7006 31.5225 20.9233L31.0967 22.0453ZM30.7096 4.49722V21.4843H31.9096V4.49722H30.7096ZM30.7105 4.53018L30.7106 4.53254L31.9085 4.4619L31.9084 4.45954L30.7105 4.53018ZM30.7094 3.33139V4.49486H31.9094V3.33139H30.7094ZM40.6354 2.73139H31.3094V3.93139H40.6354V2.73139ZM41.2354 3.33153V3.33139H40.0354V3.33153H41.2354ZM6.26292 6.82875C6.26292 6.51582 6.51568 6.26306 6.82861 6.26306V5.06306C5.85293 5.06306 5.06292 5.85307 5.06292 6.82875H6.26292ZM6.26292 28.9782V6.82875H5.06292V28.9782H6.26292ZM17.5607 28.3782H5.66292V29.5782H17.5607V28.3782ZM27.0089 20.2291C21.5002 20.4536 17.9238 24.1977 16.9728 28.8582L18.1486 29.0982C19.0026 24.9129 22.1648 21.6275 27.0578 21.4281L27.0089 20.2291ZM27.0232 20.2283C27.0171 20.2286 27.012 20.2289 27.0089 20.2291C27.0073 20.2292 27.0059 20.2293 27.0051 20.2293C27.004 20.2294 27.0038 20.2294 27.0035 20.2294C27.003 20.2295 27.0046 20.2294 27.007 20.2292C27.0096 20.2291 27.0139 20.2289 27.0193 20.2288L27.0473 21.4284C27.0634 21.4281 27.0766 21.4272 27.081 21.4269C27.0821 21.4268 27.0834 21.4268 27.0838 21.4267C27.0845 21.4267 27.0845 21.4267 27.0844 21.4267C27.0843 21.4267 27.0821 21.4268 27.0791 21.427L27.0232 20.2283ZM27.5333 20.2179C27.3623 20.2179 27.1937 20.2216 27.0275 20.2281L27.0747 21.4272C27.2266 21.4212 27.3794 21.4179 27.5333 21.4179V20.2179ZM27.5335 20.2179H27.5333V21.4179H27.5335V20.2179ZM27.5336 20.2179H27.5335V21.4179H27.5336V20.2179ZM27.5349 20.2179H27.5336V21.4179H27.5349V20.2179ZM29.0537 20.3138C28.5609 20.2511 28.0547 20.2181 27.535 20.2179L27.5347 21.4179C28.0036 21.418 28.4593 21.4478 28.9021 21.5042L29.0537 20.3138ZM28.3779 5.66306V20.909H29.5779V5.66306H28.3779ZM6.82861 6.26306H28.9779V5.06306H6.82861V6.26306ZM17.3185 30.7103H3.33139V31.9103H17.3185V30.7103ZM21.3153 40.2028C18.9569 37.4685 17.8919 34.278 17.9184 31.3157L16.7185 31.3049C16.6893 34.5629 17.8606 38.0348 20.4066 40.9866L21.3153 40.2028ZM21.342 40.2349C21.3375 40.2294 21.3276 40.2171 21.3165 40.2042L20.4055 40.9853C20.4051 40.9848 20.4053 40.9851 20.4065 40.9865C20.4078 40.9881 20.4093 40.9899 20.4122 40.9934L21.342 40.2349ZM21.3512 40.2461L21.3408 40.2333L20.4134 40.995L20.4239 41.0077L21.3512 40.2461ZM21.3526 40.2476L21.345 40.2387L20.4301 41.0151L20.4377 41.024L21.3526 40.2476ZM4.49653 41.2358H20.8951V40.0358H4.49653V41.2358ZM4.51991 41.2354L4.5257 41.2351L4.46735 40.0365L4.46155 40.0368L4.51991 41.2354ZM4.51458 41.2357L4.52017 41.2354L4.46129 40.0368L4.4557 40.0371L4.51458 41.2357ZM3.33139 41.2364H4.48514V40.0364H3.33139V41.2364ZM2.73139 31.3103V40.6364H3.93139V31.3103H2.73139ZM6.82806 65.6824C6.51577 65.6824 6.26236 65.429 6.26236 65.1167H5.06236C5.06236 66.0918 5.85312 66.8824 6.82806 66.8824V65.6824ZM6.22806 66.2822V66.2824H7.42806V66.2822H6.22806ZM28.9775 65.6822H6.82806V66.8822H28.9775V65.6822ZM28.3775 49.1101V66.2822H29.5775V49.1101H28.3775ZM28.3272 49.3015L28.5468 49.5279L29.4082 48.6924L29.1886 48.466L28.3272 49.3015ZM22.6292 43.3812C24.0248 44.8492 25.9691 46.8684 28.3271 49.3013L29.1888 48.4662C26.8317 46.0341 24.8905 44.0183 23.4989 42.5544L22.6292 43.3812ZM5.66236 43.5678H23.064V42.3678H5.66236V43.5678ZM6.26236 56.9567V42.9678H5.06236V56.9567H6.26236ZM11.4917 56.3567H5.66236V57.5567H11.4917V56.3567ZM13.2574 58.1224C13.2574 57.1472 12.4668 56.3567 11.4917 56.3567V57.5567C11.804 57.5567 12.0574 57.81 12.0574 58.1224H13.2574ZM11.4917 59.8881C12.467 59.8881 13.2574 59.0974 13.2574 58.1224H12.0574C12.0574 58.4348 11.8041 58.6881 11.4917 58.6881V59.8881ZM5.66236 59.8881H11.4917V58.6881H5.66236V59.8881ZM6.26236 61.6196V59.2881H5.06236V61.6196H6.26236ZM16.1546 61.0196H5.66236V62.2196H16.1546V61.0196ZM17.9203 62.7853C17.9203 61.81 17.1297 61.0196 16.1546 61.0196V62.2196C16.467 62.2196 16.7203 62.4728 16.7203 62.7853H17.9203ZM16.1546 64.551C17.1299 64.551 17.9203 63.7604 17.9203 62.7853H16.7203C16.7203 63.0977 16.4671 63.351 16.1546 63.351V64.551ZM5.66236 64.551H16.1546V63.351H5.66236V64.551ZM6.26236 65.1167V63.951H5.06236V65.1167H6.26236ZM31.3094 69.2139H40.6354V68.0139H31.3094V69.2139ZM30.7094 51.5117V68.6139H31.9094V51.5117H30.7094ZM35.5689 55.0214C35.0863 54.5303 33.489 52.8925 31.7396 51.0934L30.8793 51.9299C32.6283 53.7287 34.2278 55.3688 34.713 55.8625L35.5689 55.0214ZM35.9835 55.1896C35.8313 55.1925 35.6818 55.1362 35.5688 55.0213L34.7131 55.8626C35.0685 56.224 35.5409 56.3983 36.0067 56.3893L35.9835 55.1896ZM36.3758 55.0215C36.2683 55.1307 36.1281 55.1868 35.9835 55.1896L36.0068 56.3893C36.4497 56.3807 36.8933 56.2065 37.2311 55.8632L36.3758 55.0215ZM37.1319 54.2486C36.7757 54.6135 36.5102 54.8849 36.3758 55.0216L37.2312 55.8632C37.3675 55.7245 37.6346 55.4515 37.9906 55.0867L37.1319 54.2486ZM40.2052 51.0933C39.006 52.3266 37.8785 53.4838 37.1319 54.2485L37.9906 55.0868C38.7379 54.3214 39.8659 53.1636 41.0656 51.9298L40.2052 51.0933ZM41.2354 67.4486V51.5115H40.0354V67.4486H41.2354ZM41.2354 68.6139V67.4486H40.0354V68.6139H41.2354ZM65.6821 65.1171C65.6821 65.4294 65.4287 65.6828 65.1164 65.6828V66.8828C66.0916 66.8828 66.8821 66.092 66.8821 65.1171H65.6821ZM65.6821 42.9678V65.1171H66.8821V42.9678H65.6821ZM48.8807 43.5678H66.2821V42.3678H48.8807V43.5678ZM43.6175 49.3014C45.9754 46.8684 47.9199 44.8493 49.3156 43.3812L48.4458 42.5544C47.0542 44.0182 45.1129 46.0341 42.7558 48.4663L43.6175 49.3014ZM43.3978 49.5282L43.6175 49.3015L42.7559 48.4663L42.5361 48.6929L43.3978 49.5282ZM43.5669 66.2828V49.1106H42.3669V66.2828H43.5669ZM65.1164 65.6828H42.9669V66.8828H65.1164V65.6828Z" fill="#232323"/>
</svg>
