<svg width="65" height="69" viewBox="0 0 65 69" fill="none" xmlns="http://www.w3.org/2000/svg">
<path fill-rule="evenodd" clip-rule="evenodd" d="M60.1257 27.2724C61.7545 25.1472 62.809 22.6391 63.1874 19.9883L63.3431 18.8996C64.1064 13.5923 62.0974 8.26322 58.0188 4.77872L57.9731 4.73736C57.6889 4.49578 57.3944 4.26181 57.09 4.03872C56.7209 3.76938 56.3397 3.51419 55.9472 3.27642C55.7303 3.14497 55.5068 3.02731 55.2839 2.90994L55.2839 2.90992L55.1556 2.84221C55.0947 2.81033 55.0349 2.77615 54.975 2.74193C54.901 2.69966 54.8269 2.65732 54.7505 2.61913C48.9275 -0.239647 41.9449 0.769684 37.1711 5.16123L32.2536 9.69533L27.3361 5.15905C22.4583 0.658686 15.2748 -0.28644 9.39791 2.79923C3.52106 5.88435 0.223841 12.3326 1.16412 18.8996L1.31983 19.9883C1.58879 21.8617 2.19586 23.6703 3.11163 25.3261C2.47299 26.5188 1.9906 27.7887 1.67808 29.105L1.426 30.1758C0.475924 34.1581 1.1309 38.3538 3.24992 41.8574L17.2729 65.1628C18.5763 67.3273 21.1739 68.3448 23.6017 67.6413L49.7399 60.0737C53.6768 58.9425 57.0111 56.3096 59.0234 52.7434L59.5667 51.7863C60.642 49.8945 61.3101 47.7991 61.5268 45.634C61.5268 45.6256 61.5253 45.618 61.5239 45.6105L61.5228 45.6044L61.5221 45.6002C61.5217 45.5974 61.5214 45.5946 61.5213 45.5918C61.5212 45.5896 61.5212 45.5873 61.5213 45.5851L61.7968 45.1003C65.0811 39.4051 64.4114 32.2586 60.1257 27.2724ZM61.1353 18.5834C61.5807 15.4754 60.9219 12.3098 59.2733 9.63711L55.0184 13.8899C55.7904 14.6957 56.1073 15.8346 55.8628 16.9233C55.6178 18.0121 54.8436 18.9061 53.8004 19.3044L47.1101 21.8764C46.7454 24.2395 44.8926 26.0955 42.5286 26.4649L39.9549 33.151C39.5547 34.193 38.6597 34.9651 37.5702 35.2099C36.4813 35.4542 35.3417 35.1386 34.5338 34.3682L26.6316 42.2665L30.2141 45.0203C31.4162 45.9442 33.0904 45.9442 34.2931 45.0203L55.8623 28.4319C58.6526 26.2973 60.4907 23.1507 60.979 19.6733L61.1353 18.5834ZM52.2977 34.8552C53.5293 34.8552 54.5278 35.8531 54.5278 37.0838C54.5278 38.3146 53.5293 39.3125 52.2977 39.3125C51.0662 39.3125 50.0676 38.3146 50.0676 37.0838C50.0671 36.8287 50.1106 36.5756 50.1967 36.3357C50.5135 35.4482 51.3542 34.8552 52.2977 34.8552ZM42.4453 41.5586L40.0442 43.4043C40.0437 43.4167 40.0457 43.4297 40.0476 43.4422C40.0498 43.4565 40.0519 43.4702 40.0502 43.4821C40.0382 43.5778 40.0322 43.6736 40.0322 43.7699C40.0262 44.9784 40.9856 45.9709 42.1943 46.0079C43.403 46.0443 44.4205 45.1122 44.4886 43.9054C44.5567 42.6991 43.6501 41.6582 42.4453 41.5586ZM32.2269 49.3416C32.2264 50.4576 31.3993 51.4011 30.2925 51.5497C29.1856 51.6977 28.1397 51.0044 27.8451 49.9276C27.5511 48.8508 28.0994 47.7224 29.1279 47.2876C29.24 47.2408 29.3555 47.2038 29.4736 47.1761C30.1482 47.564 30.8968 47.8051 31.6705 47.884C32.0266 48.2866 32.2242 48.8041 32.2269 49.3416ZM29.797 29.642L21.2839 38.1481L22.9832 39.4562L24.8463 40.8894L32.9494 32.7924L29.797 29.642ZM22.1757 41.65C22.1235 42.7791 21.2338 43.6899 20.1063 43.7699C18.9787 43.8499 17.9693 43.074 17.7575 41.9645C17.5457 40.8545 18.1985 39.762 19.2765 39.4214L22.1757 41.65ZM43.9882 23.3379C45.2944 22.032 45.2944 19.9154 43.9882 18.6101C42.6821 17.3042 40.5636 17.3042 39.2569 18.6101C37.9508 19.9154 37.9513 22.032 39.2575 23.3379C40.5636 24.6432 42.6815 24.6432 43.9882 23.3379ZM43.0605 15.6169L43.0616 15.6139C44.9902 16.0986 46.4959 17.6042 46.9789 19.5329L53.0001 17.2204C53.3523 17.0849 53.612 16.7808 53.6899 16.4119C53.7683 16.043 53.655 15.6599 53.3883 15.3927L47.2027 9.21052C46.9359 8.94336 46.5521 8.82964 46.1824 8.90854C45.8127 8.98689 45.5084 9.24698 45.3733 9.59956L43.0616 15.6139L43.0561 15.6126L43.0605 15.6169ZM40.1847 26.3345L40.1858 26.3316L40.1907 26.336L40.1847 26.3345ZM36.2668 22.4145C36.7487 24.3436 38.2547 25.8502 40.1847 26.3345L37.8724 32.349C37.7368 32.7015 37.4325 32.9616 37.0633 33.04C36.6936 33.1183 36.3092 33.0046 36.0425 32.7375L29.8574 26.5552C29.5907 26.2886 29.4769 25.905 29.5553 25.5367C29.6337 25.1677 29.8934 24.8636 30.2451 24.7276L36.2668 22.4145ZM54.5899 5.07199C54.9971 5.30542 55.3913 5.56061 55.7708 5.83647C56.1329 6.10309 56.4802 6.38875 56.8123 6.69236L56.837 6.71439C56.8801 6.75278 56.9233 6.79129 56.9653 6.83057C57.3045 7.14507 57.6279 7.47698 57.9339 7.82412L53.4503 12.306L50.2974 9.15393L54.4554 4.99854C54.4708 5.007 54.4864 5.01519 54.5019 5.0234C54.5314 5.03895 54.561 5.05454 54.5899 5.07199ZM25.823 6.79792C21.0852 2.4461 13.9316 2.04345 8.73531 5.83647C4.72594 8.76761 2.66191 13.6695 3.36698 18.5834L3.52324 19.6733C4.01216 23.1513 5.85079 26.2973 8.64112 28.4319L19.5008 36.7737L28.2306 28.0564C27.4586 27.2501 27.1417 26.1112 27.3862 25.0225C27.6312 23.9332 28.4048 23.0392 29.448 22.6409L36.1383 20.0678C36.5063 17.7085 38.3586 15.858 40.7188 15.4901L43.2935 8.80407C43.6926 7.76155 44.5866 6.98782 45.676 6.74297C46.7655 6.49757 47.9056 6.8137 48.7125 7.58471L52.2885 4.01206C47.5876 2.35632 42.356 3.42768 38.6852 6.79792L33.012 12.0356C32.5846 12.429 31.9269 12.429 31.4995 12.0356L25.823 6.79792ZM57.6263 50.691L57.0835 51.647C55.3576 54.7077 52.4964 56.9663 49.1175 57.9354L22.9821 65.5029C21.5246 65.9246 19.9658 65.3136 19.1839 64.0142L5.16042 40.7087C3.34466 37.702 2.78441 34.1032 3.59892 30.6872L3.63376 30.5414C3.99909 32.1738 4.62358 33.7365 5.48382 35.1713L19.503 58.4768C20.8064 60.6413 23.404 61.6587 25.8317 60.9552L51.97 53.3877C54.1592 52.7521 56.1829 51.646 57.8996 50.1458C57.8645 50.2144 57.8313 50.2837 57.7981 50.3531C57.7439 50.4666 57.6895 50.5803 57.6263 50.691ZM59.3136 44.961L59.8564 44.005C62.3092 39.6885 62.179 34.3725 59.5188 30.1812C59.2477 29.7563 58.9531 29.3471 58.6357 28.9559C58.1898 29.3982 57.7178 29.8134 57.2218 30.1992L53.7362 32.8795C55.8519 33.5928 57.1107 35.7638 56.6784 37.9533C56.2456 40.1428 54.2556 41.6729 52.0271 41.5293C49.7981 41.3856 48.0216 39.6129 47.874 37.3858L44.5392 39.9486C46.2635 40.965 47.096 43.0065 46.5739 44.9381C46.0512 46.8692 44.3024 48.2137 42.3004 48.2229C40.299 48.2322 38.5377 46.904 37.9971 44.9778L35.6554 46.7751C35.1828 47.1353 34.6563 47.4177 34.0944 47.6119C35.0205 49.7748 34.1102 52.2847 32.0124 53.3523C29.9146 54.4193 27.3481 53.6782 26.1426 51.6574C24.9378 49.6365 25.5067 47.0281 27.4444 45.6917L24.2654 43.2481L24.114 43.1366C23.4345 44.9147 21.6993 46.0639 19.7965 45.997C17.8936 45.93 16.2439 44.6617 15.6913 42.8406C15.1386 41.02 15.8056 39.0492 17.3508 37.937L7.28434 30.1992C6.674 29.722 6.0996 29.2007 5.56604 28.6392C5.78491 30.5425 6.40722 32.3778 7.3905 34.0227L21.414 57.3281C22.1959 58.6275 23.7547 59.2385 25.2122 58.8168L51.3476 51.2493C54.7265 50.2802 57.5876 48.0216 59.3136 44.961Z" fill="white"/>
<path d="M63.1874 19.9883L62.9894 19.96L62.9894 19.9601L63.1874 19.9883ZM60.1257 27.2724L59.967 27.1508L59.8682 27.2797L59.974 27.4028L60.1257 27.2724ZM63.3431 18.8996L63.1451 18.8711L63.1451 18.8712L63.3431 18.8996ZM58.0188 4.77872L57.8847 4.92712L57.8889 4.93078L58.0188 4.77872ZM57.9731 4.73736L58.1073 4.58894L58.1026 4.58498L57.9731 4.73736ZM57.09 4.03872L57.2082 3.87741L57.2079 3.87715L57.09 4.03872ZM55.9472 3.27642L55.8436 3.44747L55.8436 3.44748L55.9472 3.27642ZM55.2839 2.90994L55.1844 3.08359L55.1907 3.0869L55.2839 2.90994ZM55.2839 2.90992L55.3834 2.73628L55.3772 2.73302L55.2839 2.90992ZM55.1556 2.84221L55.2489 2.66532L55.2483 2.66504L55.1556 2.84221ZM54.975 2.74193L54.8758 2.91558L54.8758 2.91558L54.975 2.74193ZM54.7505 2.61913L54.8399 2.44021L54.8386 2.4396L54.7505 2.61913ZM37.1711 5.16123L37.0357 5.01404L37.0355 5.01419L37.1711 5.16123ZM32.2536 9.69533L32.118 9.84233L32.2536 9.9674L32.3892 9.84237L32.2536 9.69533ZM27.3361 5.15905L27.2005 5.30604L27.2005 5.30606L27.3361 5.15905ZM9.39791 2.79923L9.49087 2.97631L9.49089 2.9763L9.39791 2.79923ZM1.16412 18.8996L1.3621 18.8712L1.3621 18.8712L1.16412 18.8996ZM1.31983 19.9883L1.12184 20.0166L1.12186 20.0168L1.31983 19.9883ZM3.11163 25.3261L3.28795 25.4205L3.33933 25.3245L3.28665 25.2293L3.11163 25.3261ZM1.67808 29.105L1.48349 29.0588L1.4834 29.0591L1.67808 29.105ZM1.426 30.1758L1.62054 30.2222L1.62068 30.2216L1.426 30.1758ZM3.24992 41.8574L3.42129 41.7542L3.42106 41.7538L3.24992 41.8574ZM17.2729 65.1628L17.1015 65.2659L17.1016 65.266L17.2729 65.1628ZM23.6017 67.6413L23.546 67.4492L23.546 67.4492L23.6017 67.6413ZM49.7399 60.0737L49.6846 59.8815L49.6842 59.8816L49.7399 60.0737ZM59.0234 52.7434L58.8494 52.6447L58.8492 52.6451L59.0234 52.7434ZM59.5667 51.7863L59.3929 51.6875L59.3928 51.6876L59.5667 51.7863ZM61.5268 45.634L61.7258 45.654L61.7268 45.644V45.634H61.5268ZM61.5239 45.6105L61.3272 45.6469L61.3274 45.6479L61.5239 45.6105ZM61.5228 45.6044L61.3253 45.6363L61.3261 45.6407L61.5228 45.6044ZM61.5221 45.6002L61.3241 45.6288L61.3246 45.6321L61.5221 45.6002ZM61.5213 45.5918L61.7211 45.5832L61.7211 45.5831L61.5213 45.5918ZM61.5213 45.5851L61.3474 45.4863L61.3248 45.5262L61.3218 45.572L61.5213 45.5851ZM61.7968 45.1003L61.6236 45.0004L61.6229 45.0015L61.7968 45.1003ZM59.2733 9.63711L59.4435 9.53211L59.3107 9.31689L59.1319 9.49565L59.2733 9.63711ZM61.1353 18.5834L61.3333 18.6118L61.3333 18.6118L61.1353 18.5834ZM55.0184 13.8899L54.877 13.7484L54.7385 13.8869L54.8739 14.0283L55.0184 13.8899ZM55.8628 16.9233L56.0579 16.9672L56.0579 16.9672L55.8628 16.9233ZM53.8004 19.3044L53.7291 19.1175L53.7286 19.1177L53.8004 19.3044ZM47.1101 21.8764L47.0384 21.6897L46.9302 21.7313L46.9125 21.8459L47.1101 21.8764ZM42.5286 26.4649L42.4977 26.2673L42.3834 26.2852L42.3419 26.3931L42.5286 26.4649ZM39.9549 33.151L39.7683 33.0791L39.7682 33.0793L39.9549 33.151ZM37.5702 35.2099L37.614 35.4051L37.6141 35.405L37.5702 35.2099ZM34.5338 34.3682L34.6718 34.2234L34.5305 34.0887L34.3924 34.2267L34.5338 34.3682ZM26.6316 42.2665L26.4902 42.1251L26.329 42.2862L26.5097 42.4251L26.6316 42.2665ZM30.2141 45.0203L30.0922 45.1789L30.0922 45.1789L30.2141 45.0203ZM34.2931 45.0203L34.415 45.1789L34.4151 45.1788L34.2931 45.0203ZM55.8623 28.4319L55.7407 28.273L55.7403 28.2734L55.8623 28.4319ZM60.979 19.6733L60.7811 19.6449L60.781 19.6455L60.979 19.6733ZM50.0676 37.0838H50.2676V37.0834L50.0676 37.0838ZM50.1967 36.3357L50.3849 36.4032L50.385 36.4029L50.1967 36.3357ZM40.0442 43.4043L39.9223 43.2457L39.8482 43.3027L39.8444 43.3961L40.0442 43.4043ZM42.4453 41.5586L42.4617 41.3593L42.3847 41.3529L42.3234 41.4001L42.4453 41.5586ZM40.0476 43.4422L40.2453 43.4118L40.2453 43.4118L40.0476 43.4422ZM40.0502 43.4821L39.8523 43.4531L39.8517 43.4573L40.0502 43.4821ZM40.0322 43.7699L40.2322 43.7709V43.7699H40.0322ZM42.1943 46.0079L42.1881 46.2078L42.1882 46.2078L42.1943 46.0079ZM44.4886 43.9054L44.2889 43.8941V43.8941L44.4886 43.9054ZM30.2925 51.5497L30.319 51.7479L30.3191 51.7479L30.2925 51.5497ZM32.2269 49.3416L32.4269 49.3417L32.4269 49.3406L32.2269 49.3416ZM27.8451 49.9276L27.6522 49.9803L27.6522 49.9804L27.8451 49.9276ZM29.1279 47.2876L29.0509 47.103L29.05 47.1034L29.1279 47.2876ZM29.4736 47.1761L29.5733 47.0027L29.5048 46.9633L29.4279 46.9814L29.4736 47.1761ZM31.6705 47.884L31.8203 47.7515L31.7685 47.6929L31.6908 47.685L31.6705 47.884ZM21.2839 38.1481L21.1425 38.0066L20.9814 38.1677L21.1619 38.3066L21.2839 38.1481ZM29.797 29.642L29.9384 29.5005L29.797 29.3593L29.6557 29.5005L29.797 29.642ZM22.9832 39.4562L22.8612 39.6147L22.8612 39.6147L22.9832 39.4562ZM24.8463 40.8894L24.7243 41.0479L24.8635 41.1549L24.9876 41.0308L24.8463 40.8894ZM32.9494 32.7924L33.0908 32.9339L33.2323 32.7924L33.0908 32.6509L32.9494 32.7924ZM20.1063 43.7699L20.0921 43.5704H20.0921L20.1063 43.7699ZM22.1757 41.65L22.3755 41.6593L22.3803 41.5551L22.2976 41.4915L22.1757 41.65ZM17.7575 41.9645L17.561 42.002L17.561 42.002L17.7575 41.9645ZM19.2765 39.4214L19.3984 39.2628L19.3157 39.1992L19.2162 39.2306L19.2765 39.4214ZM43.9882 18.6101L43.8468 18.7515L43.8469 18.7516L43.9882 18.6101ZM43.9882 23.3379L44.1296 23.4794L44.1296 23.4793L43.9882 23.3379ZM39.2569 18.6101L39.3983 18.7516L39.2569 18.6101ZM39.2575 23.3379L39.1161 23.4793L39.1161 23.4794L39.2575 23.3379ZM43.0605 15.6169L42.9191 15.7584L43.1367 15.9758L43.2471 15.6888L43.0605 15.6169ZM46.9789 19.5329L46.7849 19.5815L46.8398 19.8006L47.0506 19.7196L46.9789 19.5329ZM53.0001 17.2204L53.0718 17.4071L53.0719 17.4071L53.0001 17.2204ZM53.6899 16.4119L53.4943 16.3703L53.4942 16.3706L53.6899 16.4119ZM53.3883 15.3927L53.5298 15.2514L53.5296 15.2513L53.3883 15.3927ZM47.2027 9.21052L47.0612 9.35184L47.0613 9.35198L47.2027 9.21052ZM46.1824 8.90854L46.2239 9.10419L46.2241 9.10413L46.1824 8.90854ZM45.3733 9.59956L45.56 9.67132L45.5601 9.67109L45.3733 9.59956ZM43.0561 15.6126L43.1048 15.4186L42.4029 15.2426L42.9148 15.754L43.0561 15.6126ZM40.1858 26.3316L40.3186 26.1821L40.1026 25.9902L39.9991 26.2599L40.1858 26.3316ZM40.1907 26.336L40.1421 26.53L40.3235 26.1865L40.1907 26.336ZM36.2668 22.4145L36.4608 22.3661L36.406 22.1468L36.1951 22.2278L36.2668 22.4145ZM37.8724 32.349L38.059 32.4207L38.0591 32.4207L37.8724 32.349ZM37.0633 33.04L37.1048 33.2356L37.1048 33.2356L37.0633 33.04ZM36.0425 32.7375L36.184 32.5961L36.1838 32.596L36.0425 32.7375ZM29.8574 26.5552L29.9988 26.4138L29.9988 26.4138L29.8574 26.5552ZM29.5553 25.5367L29.7509 25.5783L29.7509 25.5782L29.5553 25.5367ZM30.2451 24.7276L30.1734 24.5409L30.173 24.541L30.2451 24.7276ZM55.7708 5.83647L55.8894 5.67542L55.8884 5.6747L55.7708 5.83647ZM54.5899 5.07199L54.4864 5.24319L54.4904 5.24551L54.5899 5.07199ZM56.8123 6.69236L56.6774 6.83999L56.6792 6.84161L56.8123 6.69236ZM56.837 6.71439L56.7039 6.86364L56.7039 6.86368L56.837 6.71439ZM56.9653 6.83057L56.8288 6.97672L56.8293 6.97723L56.9653 6.83057ZM57.9339 7.82412L58.0753 7.96557L58.2081 7.83278L58.084 7.69187L57.9339 7.82412ZM53.4503 12.306L53.3089 12.4474L53.4503 12.5888L53.5917 12.4474L53.4503 12.306ZM50.2974 9.15393L50.156 9.01247L50.0145 9.15391L50.156 9.29538L50.2974 9.15393ZM54.4554 4.99854L54.5516 4.82318L54.4201 4.75107L54.314 4.85707L54.4554 4.99854ZM54.5019 5.0234L54.5952 4.84648V4.84648L54.5019 5.0234ZM8.73531 5.83647L8.61739 5.67493L8.61727 5.67502L8.73531 5.83647ZM25.823 6.79792L25.9587 6.65093L25.9583 6.65063L25.823 6.79792ZM3.36698 18.5834L3.56496 18.555L3.56495 18.555L3.36698 18.5834ZM3.52324 19.6733L3.72129 19.6454L3.72122 19.6449L3.52324 19.6733ZM8.64112 28.4319L8.76295 28.2733L8.76264 28.273L8.64112 28.4319ZM19.5008 36.7737L19.379 36.9323L19.5181 37.0391L19.6421 36.9152L19.5008 36.7737ZM28.2306 28.0564L28.3719 28.198L28.5105 28.0596L28.3751 27.9181L28.2306 28.0564ZM27.3862 25.0225L27.191 24.9786L27.191 24.9787L27.3862 25.0225ZM29.448 22.6409L29.5194 22.8277L29.5198 22.8276L29.448 22.6409ZM36.1383 20.0678L36.2101 20.2544L36.3181 20.2129L36.3359 20.0986L36.1383 20.0678ZM40.7188 15.4901L40.7496 15.6878L40.8639 15.6699L40.9054 15.562L40.7188 15.4901ZM43.2935 8.80407L43.4802 8.87594L43.4803 8.87557L43.2935 8.80407ZM45.676 6.74297L45.7199 6.9381L45.72 6.93808L45.676 6.74297ZM48.7125 7.58471L48.5743 7.72931L48.7156 7.86431L48.8538 7.7262L48.7125 7.58471ZM52.2885 4.01206L52.4298 4.15355L52.6546 3.92898L52.3549 3.82342L52.2885 4.01206ZM38.6852 6.79792L38.55 6.6506L38.5496 6.65097L38.6852 6.79792ZM33.012 12.0356L33.1475 12.1827L33.1477 12.1825L33.012 12.0356ZM31.4995 12.0356L31.3639 12.1825L31.3641 12.1827L31.4995 12.0356ZM57.0835 51.647L56.9096 51.5483L56.9093 51.5488L57.0835 51.647ZM57.6263 50.691L57.4526 50.5919L57.4524 50.5923L57.6263 50.691ZM49.1175 57.9354L49.0624 57.7431L49.0619 57.7433L49.1175 57.9354ZM22.9821 65.5029L23.0377 65.695L23.0377 65.695L22.9821 65.5029ZM19.1839 64.0142L19.3553 63.9111H19.3553L19.1839 64.0142ZM5.16042 40.7087L5.33178 40.6056L5.33162 40.6053L5.16042 40.7087ZM3.59892 30.6872L3.4044 30.6408L3.40437 30.6409L3.59892 30.6872ZM3.63376 30.5414L3.82894 30.4977L3.43924 30.4949L3.63376 30.5414ZM5.48382 35.1713L5.31229 35.2741L5.31244 35.2744L5.48382 35.1713ZM19.503 58.4768L19.3316 58.5799L19.3317 58.5799L19.503 58.4768ZM25.8317 60.9552L25.7761 60.7631L25.7761 60.7631L25.8317 60.9552ZM51.97 53.3877L52.0256 53.5798L52.0257 53.5797L51.97 53.3877ZM57.8996 50.1458L58.0776 50.237L57.768 49.9952L57.8996 50.1458ZM57.7981 50.3531L57.6177 50.2668V50.2668L57.7981 50.3531ZM59.8564 44.005L59.6825 43.9062L59.6825 43.9062L59.8564 44.005ZM59.3136 44.961L59.1396 44.8622L59.1394 44.8627L59.3136 44.961ZM59.5188 30.1812L59.6877 30.074L59.6874 30.0736L59.5188 30.1812ZM58.6357 28.9559L58.791 28.8299L58.6518 28.6582L58.4949 28.8139L58.6357 28.9559ZM57.2218 30.1992L57.3437 30.3577L57.3446 30.357L57.2218 30.1992ZM53.7362 32.8795L53.6143 32.7209L53.3173 32.9493L53.6723 33.069L53.7362 32.8795ZM56.6784 37.9533L56.8746 37.9921L56.8746 37.9921L56.6784 37.9533ZM52.0271 41.5293L52.04 41.3297H52.04L52.0271 41.5293ZM47.874 37.3858L48.0736 37.3726L48.0488 36.9992L47.7521 37.2272L47.874 37.3858ZM44.5392 39.9486L44.4174 39.79L44.1825 39.9705L44.4377 40.1209L44.5392 39.9486ZM46.5739 44.9381L46.7669 44.9904L46.7669 44.9903L46.5739 44.9381ZM42.3004 48.2229L42.2995 48.0229L42.3004 48.2229ZM37.9971 44.9778L38.1896 44.9238L38.1097 44.6392L37.8753 44.8192L37.9971 44.9778ZM35.6554 46.7751L35.7766 46.9341L35.7771 46.9337L35.6554 46.7751ZM34.0944 47.6119L34.0291 47.4229L33.826 47.4931L33.9105 47.6906L34.0944 47.6119ZM32.0124 53.3523L32.1031 53.5306L32.1031 53.5305L32.0124 53.3523ZM26.1426 51.6574L25.9708 51.7598L25.9709 51.7598L26.1426 51.6574ZM27.4444 45.6917L27.558 45.8564L27.784 45.7005L27.5663 45.5331L27.4444 45.6917ZM24.2654 43.2481L24.3873 43.0895L24.384 43.0871L24.2654 43.2481ZM24.114 43.1366L24.2326 42.9756L24.021 42.8196L23.9272 43.0652L24.114 43.1366ZM19.7965 45.997L19.7894 46.1968L19.7965 45.997ZM15.6913 42.8406L15.8827 42.7825L15.8826 42.7825L15.6913 42.8406ZM17.3508 37.937L17.4676 38.0993L17.6858 37.9423L17.4727 37.7784L17.3508 37.937ZM7.28434 30.1992L7.16114 30.3567L7.16245 30.3577L7.28434 30.1992ZM5.56604 28.6392L5.71102 28.5014L5.29901 28.0678L5.36734 28.662L5.56604 28.6392ZM7.3905 34.0227L7.21884 34.1253L7.21914 34.1258L7.3905 34.0227ZM21.414 57.3281L21.5854 57.225H21.5854L21.414 57.3281ZM25.2122 58.8168L25.2677 59.009L25.2678 59.0089L25.2122 58.8168ZM51.3476 51.2493L51.2925 51.057L51.292 51.0572L51.3476 51.2493ZM62.9894 19.9601C62.6159 22.5768 61.5749 25.0528 59.967 27.1508L60.2845 27.3941C61.9341 25.2417 63.0021 22.7013 63.3854 20.0166L62.9894 19.9601ZM63.1451 18.8712L62.9894 19.96L63.3853 20.0166L63.5411 18.9279L63.1451 18.8712ZM57.8889 4.93078C61.9153 8.37076 63.8987 13.6317 63.1451 18.8711L63.541 18.928C64.3141 13.5529 62.2794 8.15568 58.1488 4.62665L57.8889 4.93078ZM57.839 4.88571L57.8847 4.92706L58.153 4.63037L58.1073 4.58901L57.839 4.88571ZM56.9718 4.20003C57.272 4.42008 57.5628 4.65105 57.8436 4.88975L58.1026 4.58498C57.815 4.34051 57.5167 4.10353 57.2082 3.87741L56.9718 4.20003ZM55.8436 3.44748C56.231 3.68213 56.6073 3.93412 56.9721 4.20029L57.2079 3.87715C56.8344 3.60464 56.4485 3.34626 56.0508 3.10535L55.8436 3.44748ZM55.1907 3.0869C55.4145 3.20473 55.6326 3.31965 55.8436 3.44747L56.0508 3.10537C55.8279 2.97029 55.5991 2.84989 55.3771 2.73297L55.1907 3.0869ZM55.1845 3.08346L55.1845 3.08348L55.3834 2.7364L55.3833 2.73638L55.1845 3.08346ZM55.0622 3.01911L55.1906 3.08681L55.3772 2.73302L55.2489 2.66532L55.0622 3.01911ZM54.8758 2.91558C54.9351 2.94949 54.9981 2.98551 55.0628 3.01939L55.2483 2.66504C55.1913 2.63514 55.1346 2.60281 55.0742 2.56829L54.8758 2.91558ZM54.6611 2.79804C54.7317 2.83332 54.801 2.87285 54.8758 2.91558L55.0742 2.56829C55.001 2.52647 54.9221 2.48132 54.8399 2.44022L54.6611 2.79804ZM37.3065 5.30842C42.0196 0.972744 48.9134 -0.02377 54.6623 2.79866L54.8386 2.4396C48.9416 -0.455524 41.8702 0.566624 37.0357 5.01404L37.3065 5.30842ZM32.3892 9.84237L37.3067 5.30826L37.0355 5.01419L32.118 9.54829L32.3892 9.84237ZM27.2005 5.30606L32.118 9.84233L32.3892 9.54832L27.4717 5.01205L27.2005 5.30606ZM9.49089 2.9763C15.2929 -0.0700477 22.3849 0.863047 27.2005 5.30604L27.4717 5.01206C22.5317 0.454324 15.2567 -0.502833 9.30494 2.62215L9.49089 2.9763ZM1.3621 18.8712C0.433827 12.3881 3.68894 6.02211 9.49087 2.97631L9.30495 2.62215C3.35318 5.7466 0.013855 12.2772 0.966134 18.9279L1.3621 18.8712ZM1.51781 19.96L1.3621 18.8712L0.96613 18.9279L1.12184 20.0166L1.51781 19.96ZM3.28665 25.2293C2.38261 23.5948 1.78332 21.8093 1.5178 19.9599L1.12186 20.0168C1.39426 21.9141 2.0091 23.7459 2.93662 25.4229L3.28665 25.2293ZM1.87267 29.1512C2.18118 27.8518 2.6574 26.5981 3.28795 25.4205L2.93532 25.2317C2.28857 26.4395 1.80001 27.7257 1.48349 29.0588L1.87267 29.1512ZM1.62068 30.2216L1.87276 29.1508L1.4834 29.0591L1.23132 30.1299L1.62068 30.2216ZM3.42106 41.7538C1.32923 38.2953 0.682656 34.1534 1.62054 30.2222L1.23146 30.1294C0.269191 34.1628 0.932578 38.4124 3.07879 41.9609L3.42106 41.7538ZM17.4443 65.0597L3.42129 41.7542L3.07855 41.9605L17.1015 65.2659L17.4443 65.0597ZM23.546 67.4492C21.2053 68.1275 18.7009 67.1465 17.4442 65.0597L17.1016 65.266C18.4518 67.5082 21.1425 68.5621 23.6573 67.8334L23.546 67.4492ZM49.6842 59.8816L23.546 67.4492L23.6573 67.8334L49.7955 60.2659L49.6842 59.8816ZM58.8492 52.6451C56.8627 56.1656 53.5712 58.7648 49.6846 59.8815L49.7951 60.266C53.7825 59.1203 57.1594 56.4536 59.1976 52.8417L58.8492 52.6451ZM59.3928 51.6876L58.8494 52.6447L59.1973 52.8422L59.7407 51.8851L59.3928 51.6876ZM61.3278 45.6141C61.1139 47.7513 60.4544 49.8199 59.3929 51.6875L59.7406 51.8852C60.8297 49.9691 61.5063 47.8468 61.7258 45.654L61.3278 45.6141ZM61.3274 45.6479C61.3283 45.6524 61.328 45.6513 61.3278 45.6494C61.3274 45.6468 61.3268 45.6413 61.3268 45.634H61.7268C61.7268 45.604 61.7214 45.5787 61.7204 45.5731L61.3274 45.6479ZM61.3261 45.6407L61.3272 45.6469L61.7206 45.5741L61.7194 45.568L61.3261 45.6407ZM61.3246 45.6321L61.3253 45.6362L61.7202 45.5725L61.7195 45.5683L61.3246 45.6321ZM61.3214 45.6003C61.3219 45.6116 61.3231 45.6213 61.3242 45.6288L61.72 45.5715C61.7203 45.5735 61.7208 45.5776 61.7211 45.5832L61.3214 45.6003ZM61.3218 45.572C61.3211 45.5824 61.3211 45.5919 61.3215 45.6005L61.7211 45.5831C61.7213 45.5872 61.7213 45.5923 61.7209 45.5981L61.3218 45.572ZM61.6229 45.0015L61.3474 45.4863L61.6952 45.6839L61.9707 45.1991L61.6229 45.0015ZM59.974 27.4028C64.2044 32.3246 64.8655 39.3788 61.6236 45.0004L61.9701 45.2002C65.2968 39.4315 64.6185 32.1927 60.2774 27.1421L59.974 27.4028ZM59.1031 9.74211C60.7271 12.375 61.3761 15.4934 60.9373 18.5551L61.3333 18.6118C61.7853 15.4575 61.1167 12.2446 59.4435 9.53211L59.1031 9.74211ZM55.1597 14.0314L59.4147 9.77856L59.1319 9.49565L54.877 13.7484L55.1597 14.0314ZM56.0579 16.9672C56.3171 15.813 55.9812 14.6058 55.1628 13.7515L54.8739 14.0283C55.5996 14.7857 55.8974 15.8561 55.6677 16.8795L56.0579 16.9672ZM53.8717 19.4912C54.9775 19.069 55.7982 18.1214 56.0579 16.9672L55.6677 16.8794C55.4374 17.9028 54.7097 18.7431 53.7291 19.1175L53.8717 19.4912ZM47.1819 22.0631L53.8722 19.4911L53.7286 19.1177L47.0384 21.6897L47.1819 22.0631ZM42.5594 26.6625C45.0095 26.2796 46.9297 24.3561 47.3078 21.9069L46.9125 21.8459C46.561 24.1229 44.7757 25.9113 42.4977 26.2673L42.5594 26.6625ZM40.1416 33.2228L42.7152 26.5368L42.3419 26.3931L39.7683 33.0791L40.1416 33.2228ZM37.6141 35.405C38.7686 35.1456 39.7174 34.3273 40.1416 33.2227L39.7682 33.0793C39.3921 34.0587 38.5507 34.7846 37.5263 35.0148L37.6141 35.405ZM34.3958 34.5129C35.2521 35.3295 36.4599 35.664 37.614 35.4051L37.5264 35.0148C36.5027 35.2444 35.4314 34.9477 34.6718 34.2234L34.3958 34.5129ZM26.7729 42.408L34.6752 34.5096L34.3924 34.2267L26.4902 42.1251L26.7729 42.408ZM30.336 44.8617L26.7534 42.108L26.5097 42.4251L30.0922 45.1789L30.336 44.8617ZM34.1713 44.8617C33.0404 45.7304 31.4662 45.7304 30.3359 44.8617L30.0922 45.1789C31.3662 46.158 33.1404 46.158 34.415 45.1789L34.1713 44.8617ZM55.7403 28.2734L34.1712 44.8618L34.4151 45.1788L55.9842 28.5904L55.7403 28.2734ZM60.781 19.6455C60.2999 23.0708 58.4894 26.1704 55.7407 28.273L55.9838 28.5907C58.8158 26.4243 60.6814 23.2306 61.1771 19.7011L60.781 19.6455ZM60.9373 18.555L60.7811 19.6449L61.177 19.7017L61.3333 18.6118L60.9373 18.555ZM54.7278 37.0838C54.7278 35.7425 53.6396 34.6552 52.2977 34.6552V35.0552C53.4189 35.0552 54.3278 35.9636 54.3278 37.0838H54.7278ZM52.2977 39.5125C53.6396 39.5125 54.7278 38.4252 54.7278 37.0838H54.3278C54.3278 38.2041 53.4189 39.1125 52.2977 39.1125V39.5125ZM49.8676 37.0838C49.8676 38.4252 50.9558 39.5125 52.2977 39.5125V39.1125C51.1765 39.1125 50.2676 38.2041 50.2676 37.0838H49.8676ZM50.0084 36.2682C49.9145 36.53 49.867 36.806 49.8676 37.0843L50.2676 37.0834C50.2671 36.8513 50.3067 36.6213 50.3849 36.4032L50.0084 36.2682ZM52.2977 34.6552C51.2696 34.6552 50.3536 35.3014 50.0083 36.2684L50.385 36.4029C50.6735 35.5951 51.4387 35.0552 52.2977 35.0552V34.6552ZM40.1661 43.5628L42.5671 41.7172L42.3234 41.4001L39.9223 43.2457L40.1661 43.5628ZM40.2453 43.4118C40.2448 43.4085 40.2445 43.4064 40.2442 43.4046C40.244 43.4029 40.2439 43.4022 40.2439 43.4021C40.2438 43.4016 40.2443 43.4056 40.244 43.4124L39.8444 43.3961C39.8429 43.4314 39.8486 43.464 39.85 43.4727L40.2453 43.4118ZM40.2481 43.5111C40.2551 43.4634 40.2461 43.4173 40.2453 43.4118L39.85 43.4727C39.8505 43.4765 39.8508 43.4785 39.8511 43.4801C39.8513 43.4817 39.8512 43.4816 39.8511 43.4805C39.8511 43.4794 39.8508 43.4764 39.8508 43.4721C39.8509 43.4678 39.8511 43.4612 39.8523 43.4531L40.2481 43.5111ZM40.2322 43.7699C40.2322 43.6819 40.2377 43.5945 40.2486 43.5069L39.8517 43.4573C39.8387 43.5612 39.8322 43.6653 39.8322 43.7699H40.2322ZM42.2004 45.8079C41.0999 45.7743 40.2268 44.8707 40.2322 43.7709L39.8322 43.7689C39.8257 45.0861 40.8713 46.1674 42.1881 46.2078L42.2004 45.8079ZM44.2889 43.8941C44.227 44.9926 43.3008 45.8411 42.2003 45.8079L42.1882 46.2078C43.5051 46.2475 44.6141 45.2319 44.6883 43.9167L44.2889 43.8941ZM42.4288 41.758C43.5258 41.8486 44.3509 42.7962 44.2889 43.8941L44.6883 43.9167C44.7625 42.6019 43.7745 41.4678 42.4617 41.3593L42.4288 41.758ZM30.3191 51.7479C31.525 51.586 32.4263 50.5581 32.4269 49.3417L32.0269 49.3415C32.0264 50.3572 31.2737 51.2162 30.2659 51.3514L30.3191 51.7479ZM27.6522 49.9804C27.9732 51.1538 29.1129 51.9091 30.319 51.7479L30.266 51.3514C29.2583 51.4862 28.3062 50.8551 28.0381 49.8749L27.6522 49.9804ZM29.05 47.1034C27.9293 47.5771 27.3318 48.8068 27.6522 49.9803L28.0381 49.875C27.7705 48.8948 28.2695 47.8676 29.2057 47.4718L29.05 47.1034ZM29.4279 46.9814C29.2994 47.0115 29.1735 47.0519 29.0509 47.103L29.2049 47.4722C29.3066 47.4298 29.4115 47.3961 29.5193 47.3708L29.4279 46.9814ZM31.6908 47.685C30.9451 47.6089 30.2235 47.3766 29.5733 47.0027L29.3739 47.3494C30.0729 47.7514 30.8486 48.0012 31.6502 48.0829L31.6908 47.685ZM32.4269 49.3406C32.4239 48.7545 32.2085 48.1904 31.8203 47.7515L31.5207 48.0164C31.8447 48.3828 32.0244 48.8536 32.0269 49.3426L32.4269 49.3406ZM21.4253 38.2896L29.9384 29.7835L29.6557 29.5005L21.1425 38.0066L21.4253 38.2896ZM23.1052 39.2977L21.4059 37.9896L21.1619 38.3066L22.8612 39.6147L23.1052 39.2977ZM24.9682 40.7309L23.1051 39.2977L22.8612 39.6147L24.7243 41.0479L24.9682 40.7309ZM32.808 32.6509L24.7049 40.7479L24.9876 41.0308L33.0908 32.9339L32.808 32.6509ZM29.6556 29.7835L32.808 32.9339L33.0908 32.6509L29.9384 29.5005L29.6556 29.7835ZM20.1204 43.9694C21.349 43.8823 22.3186 42.8898 22.3755 41.6593L21.9759 41.6408C21.9284 42.6684 21.1186 43.4976 20.0921 43.5704L20.1204 43.9694ZM17.561 42.002C17.7918 43.2112 18.8919 44.0566 20.1204 43.9694L20.0921 43.5704C19.0655 43.6432 18.1467 42.9368 17.9539 41.927L17.561 42.002ZM19.2162 39.2306C18.0417 39.6018 17.3302 40.7923 17.561 42.002L17.9539 41.9271C17.7612 40.9168 18.3553 39.9222 19.3368 39.6121L19.2162 39.2306ZM22.2976 41.4915L19.3984 39.2628L19.1546 39.5799L22.0538 41.8086L22.2976 41.4915ZM43.8469 18.7516C45.0748 19.9788 45.0749 21.9687 43.8468 23.1965L44.1296 23.4793C45.5139 22.0954 45.5139 19.8521 44.1296 18.4686L43.8469 18.7516ZM39.3983 18.7516C40.6269 17.5237 42.6188 17.5238 43.8468 18.7515L44.1296 18.4687C42.7454 17.0847 40.5003 17.0847 39.1155 18.4686L39.3983 18.7516ZM39.3989 23.1965C38.1708 21.9686 38.1704 19.9787 39.3983 18.7516L39.1155 18.4686C37.7312 19.8521 37.7318 22.0954 39.1161 23.4793L39.3989 23.1965ZM43.8469 23.1964C42.6183 24.4237 40.6269 24.4237 39.3988 23.1964L39.1161 23.4794C40.5003 24.8628 42.7448 24.8627 44.1296 23.4794L43.8469 23.1964ZM42.875 15.5421L42.8738 15.5451L43.2471 15.6888L43.2483 15.6858L42.875 15.5421ZM47.1729 19.4843C46.672 17.484 45.1104 15.9226 43.1104 15.42L43.0129 15.8079C44.87 16.2746 46.3198 17.7244 46.7849 19.5815L47.1729 19.4843ZM52.9284 17.0337L46.9072 19.3462L47.0506 19.7196L53.0718 17.4071L52.9284 17.0337ZM53.4942 16.3706C53.4304 16.673 53.2174 16.9225 52.9283 17.0338L53.0719 17.4071C53.4872 17.2473 53.7937 16.8886 53.8856 16.4532L53.4942 16.3706ZM53.2467 15.5341C53.4657 15.7533 53.5586 16.0676 53.4943 16.3703L53.8855 16.4534C53.978 16.0183 53.8444 15.5665 53.5298 15.2514L53.2467 15.5341ZM47.0613 9.35198L53.2469 15.5342L53.5296 15.2513L47.3441 9.06906L47.0613 9.35198ZM46.2241 9.10413C46.5275 9.03939 46.8424 9.1327 47.0612 9.35184L47.3442 9.0692C47.0295 8.75402 46.5766 8.61989 46.1407 8.71294L46.2241 9.10413ZM45.5601 9.67109C45.6709 9.38185 45.9205 9.16848 46.2239 9.10419L46.1409 8.71289C45.7049 8.8053 45.3458 9.11211 45.1866 9.52804L45.5601 9.67109ZM43.2483 15.6857L45.56 9.67132L45.1866 9.52781L42.875 15.5422L43.2483 15.6857ZM43.0075 15.8066L43.013 15.8079L43.1103 15.4199L43.1048 15.4186L43.0075 15.8066ZM43.2019 15.4754L43.1975 15.4711L42.9148 15.754L42.9191 15.7584L43.2019 15.4754ZM39.9991 26.2599L39.998 26.2628L40.3714 26.4061L40.3725 26.4033L39.9991 26.2599ZM40.3235 26.1865L40.3186 26.1821L40.0529 26.4811L40.0578 26.4855L40.3235 26.1865ZM40.1361 26.5285L40.1421 26.53L40.2393 26.142L40.2333 26.1405L40.1361 26.5285ZM40.2333 26.1405C38.3749 25.6742 36.9248 24.2234 36.4608 22.3661L36.0727 22.463C36.5725 24.4638 38.1345 26.0263 40.136 26.5284L40.2333 26.1405ZM38.0591 32.4207L40.3713 26.4062L39.998 26.2627L37.6857 32.2772L38.0591 32.4207ZM37.1048 33.2356C37.5404 33.1432 37.8992 32.8364 38.059 32.4207L37.6857 32.2772C37.5744 32.5667 37.3245 32.7801 37.0218 32.8443L37.1048 33.2356ZM35.9009 32.8788C36.2157 33.194 36.669 33.328 37.1048 33.2356L37.0218 32.8443C36.7182 32.9087 36.4028 32.8152 36.184 32.5961L35.9009 32.8788ZM29.7161 26.6967L35.9011 32.8789L36.1838 32.596L29.9988 26.4138L29.7161 26.6967ZM29.3597 25.495C29.2671 25.9298 29.4014 26.3823 29.7161 26.6967L29.9988 26.4138C29.7799 26.195 29.6866 25.8803 29.7509 25.5783L29.3597 25.495ZM30.173 24.541C29.7584 24.7014 29.4521 25.0599 29.3596 25.4951L29.7509 25.5782C29.8152 25.2756 30.0284 25.0258 30.3172 24.9141L30.173 24.541ZM36.1951 22.2278L30.1734 24.5409L30.3168 24.9143L36.3385 22.6012L36.1951 22.2278ZM55.8884 5.6747C55.5031 5.39459 55.1028 5.13548 54.6893 4.89847L54.4904 5.24551C54.8914 5.47535 55.2795 5.72662 55.6532 5.99824L55.8884 5.6747ZM56.9473 6.54475C56.61 6.23642 56.2572 5.94627 55.8894 5.67543L55.6522 5.99752C56.0085 6.2599 56.3504 6.54107 56.6774 6.83998L56.9473 6.54475ZM56.9702 6.56514L56.9455 6.54312L56.6792 6.84161L56.7039 6.86364L56.9702 6.56514ZM57.1019 6.68442C57.0578 6.64329 57.0129 6.60323 56.9701 6.5651L56.7039 6.86368C56.7473 6.90232 56.7887 6.93929 56.8288 6.97672L57.1019 6.68442ZM58.084 7.69187C57.7736 7.33973 57.4455 7.00301 57.1013 6.68391L56.8293 6.97723C57.1636 7.28712 57.4823 7.61422 57.7839 7.95637L58.084 7.69187ZM53.5917 12.4474L58.0753 7.96557L57.7925 7.68267L53.3089 12.1645L53.5917 12.4474ZM50.156 9.29538L53.3089 12.4474L53.5917 12.1645L50.4388 9.01249L50.156 9.29538ZM54.314 4.85707L50.156 9.01247L50.4388 9.2954L54.5968 5.14L54.314 4.85707ZM54.5952 4.84648C54.5794 4.83814 54.5653 4.83071 54.5516 4.82318L54.3592 5.17389C54.3763 5.18328 54.3933 5.19224 54.4087 5.20033L54.5952 4.84648ZM54.6933 4.90084C54.6586 4.87986 54.6239 4.8616 54.5952 4.84648L54.4087 5.20033C54.439 5.21631 54.4634 5.22923 54.4864 5.24315L54.6933 4.90084ZM8.85323 5.99801C13.9725 2.26121 21.0201 2.65789 25.6877 6.94522L25.9583 6.65063C21.1503 2.23431 13.8907 1.8257 8.61739 5.67493L8.85323 5.99801ZM3.56495 18.555C2.87039 13.7144 4.90365 8.88544 8.85334 5.99793L8.61727 5.67502C4.54823 8.64979 2.45343 13.6247 3.16901 18.6118L3.56495 18.555ZM3.72122 19.6449L3.56496 18.555L3.16901 18.6118L3.32526 19.7017L3.72122 19.6449ZM8.76264 28.273C6.01401 26.1704 4.20289 23.0714 3.72129 19.6454L3.32519 19.7011C3.82143 23.2312 5.68756 26.4243 8.5196 28.5907L8.76264 28.273ZM19.6227 36.6151L8.76295 28.2733L8.51928 28.5905L19.379 36.9323L19.6227 36.6151ZM28.0893 27.9149L19.3595 36.6322L19.6421 36.9152L28.3719 28.198L28.0893 27.9149ZM27.191 24.9787C26.9319 26.1328 27.2678 27.34 28.0862 28.1948L28.3751 27.9181C27.6494 27.1601 27.3515 26.0897 27.5813 25.0663L27.191 24.9787ZM29.3767 22.454C28.2709 22.8762 27.4507 23.8239 27.191 24.9786L27.5813 25.0664C27.8116 24.0424 28.5388 23.2021 29.5194 22.8277L29.3767 22.454ZM36.0665 19.8811L29.3762 22.4542L29.5198 22.8276L36.2101 20.2544L36.0665 19.8811ZM40.688 15.2925C38.2419 15.6737 36.3222 17.5916 35.9407 20.0369L36.3359 20.0986C36.6905 17.8254 38.4752 16.0422 40.7496 15.6878L40.688 15.2925ZM43.1069 8.7322L40.5321 15.4183L40.9054 15.562L43.4802 8.87594L43.1069 8.7322ZM45.6322 6.54783C44.4774 6.80738 43.5297 7.62754 43.1067 8.73257L43.4803 8.87557C43.8555 7.89556 44.6958 7.16826 45.7199 6.9381L45.6322 6.54783ZM48.8506 7.44011C47.9953 6.62281 46.7869 6.28775 45.6321 6.54785L45.72 6.93808C46.7442 6.70739 47.8159 7.00459 48.5743 7.72931L48.8506 7.44011ZM52.1471 3.87057L48.5711 7.44322L48.8538 7.7262L52.4298 4.15355L52.1471 3.87057ZM38.8205 6.94524C42.4368 3.62499 47.5909 2.56951 52.222 4.2007L52.3549 3.82342C47.5844 2.14313 42.2751 3.23037 38.55 6.6506L38.8205 6.94524ZM33.1477 12.1825L38.8209 6.94487L38.5496 6.65097L32.8764 11.8886L33.1477 12.1825ZM31.3641 12.1827C31.868 12.6466 32.6435 12.6466 33.1475 12.1827L32.8766 11.8884C32.5257 12.2113 31.9858 12.2113 31.635 11.8884L31.3641 12.1827ZM25.6874 6.94491L31.3639 12.1825L31.6352 11.8886L25.9587 6.65093L25.6874 6.94491ZM57.2574 51.7458L57.8002 50.7898L57.4524 50.5923L56.9096 51.5483L57.2574 51.7458ZM49.1727 58.1276C52.6021 57.1441 55.5059 54.8517 57.2577 51.7453L56.9093 51.5488C55.2092 54.5637 52.3908 56.7885 49.0624 57.7431L49.1727 58.1276ZM23.0377 65.695L49.1732 58.1275L49.0619 57.7433L22.9264 65.3108L23.0377 65.695ZM19.0126 64.1173C19.8412 65.4944 21.4931 66.1419 23.0377 65.695L22.9265 65.3108C21.556 65.7073 20.0904 65.1327 19.3553 63.9111L19.0126 64.1173ZM4.98905 40.8118L19.0126 64.1173L19.3553 63.9111L5.33178 40.6056L4.98905 40.8118ZM3.40437 30.6409C2.5777 34.1078 3.14631 37.7604 4.98921 40.8121L5.33162 40.6053C3.543 37.6435 2.99113 34.0985 3.79346 30.7336L3.40437 30.6409ZM3.43924 30.4949L3.4044 30.6408L3.79344 30.7337L3.82829 30.5879L3.43924 30.4949ZM5.65536 35.0684C4.8061 33.6519 4.1896 32.1092 3.82894 30.4977L3.43859 30.5851C3.80859 32.2383 4.44106 33.821 5.31229 35.2741L5.65536 35.0684ZM19.6744 58.3737L5.6552 35.0682L5.31244 35.2744L19.3316 58.5799L19.6744 58.3737ZM25.7761 60.7631C23.4354 61.4414 20.931 60.4604 19.6743 58.3736L19.3317 58.5799C20.6819 60.8221 23.3726 61.8761 25.8874 61.1473L25.7761 60.7631ZM51.9143 53.1956L25.7761 60.7631L25.8874 61.1473L52.0256 53.5798L51.9143 53.1956ZM57.768 49.9952C56.0733 51.4762 54.0755 52.5682 51.9142 53.1956L52.0257 53.5797C54.243 52.9361 56.2926 51.8158 58.0312 50.2964L57.768 49.9952ZM57.9786 50.4394C58.0119 50.3696 58.0439 50.3027 58.0776 50.237L57.7216 50.0546C57.685 50.126 57.6507 50.1978 57.6177 50.2668L57.9786 50.4394ZM57.8 50.7901C57.8674 50.6721 57.9248 50.5519 57.9786 50.4394L57.6177 50.2668C57.5629 50.3813 57.5116 50.4885 57.4526 50.5919L57.8 50.7901ZM59.6825 43.9062L59.1396 44.8622L59.4875 45.0597L60.0303 44.1037L59.6825 43.9062ZM59.35 30.2884C61.9705 34.4173 62.0987 39.654 59.6825 43.9062L60.0303 44.1038C62.5196 39.723 62.3875 34.3278 59.6877 30.074L59.35 30.2884ZM58.4804 29.0819C58.793 29.4671 59.0831 29.8701 59.3502 30.2888L59.6874 30.0736C59.4123 29.6424 59.1133 29.2271 58.791 28.8299L58.4804 29.0819ZM57.3446 30.357C57.8469 29.9663 58.325 29.5459 58.7766 29.0979L58.4949 28.8139C58.0546 29.2506 57.5886 29.6605 57.099 30.0413L57.3446 30.357ZM53.8581 33.038L57.3437 30.3577L57.0999 30.0406L53.6143 32.7209L53.8581 33.038ZM56.8746 37.9921C57.3264 35.704 56.0109 33.4354 53.8001 32.69L53.6723 33.069C55.6929 33.7503 56.895 35.8236 56.4822 37.9146L56.8746 37.9921ZM52.0143 41.7288C54.3428 41.8789 56.4223 40.2802 56.8746 37.9921L56.4822 37.9145C56.0688 40.0055 54.1683 41.4669 52.04 41.3297L52.0143 41.7288ZM47.6745 37.399C47.8286 39.7264 49.6852 41.5787 52.0143 41.7288L52.04 41.3297C49.9111 41.1925 48.2145 39.4994 48.0736 37.3726L47.6745 37.399ZM44.6611 40.1072L47.9959 37.5444L47.7521 37.2272L44.4174 39.79L44.6611 40.1072ZM46.7669 44.9903C47.3126 42.9718 46.4426 40.8384 44.6408 39.7763L44.4377 40.1209C46.0844 41.0916 46.8794 43.0413 46.3808 44.8859L46.7669 44.9903ZM42.3014 48.4229C44.3932 48.4133 46.2207 47.0084 46.7669 44.9904L46.3808 44.8859C45.8817 46.73 44.2115 48.0141 42.2995 48.0229L42.3014 48.4229ZM37.8045 45.0319C38.3695 47.0447 40.21 48.4326 42.3014 48.4229L42.2995 48.0229C40.388 48.0318 38.7059 46.7633 38.1896 44.9238L37.8045 45.0319ZM35.7771 46.9337L38.1188 45.1365L37.8753 44.8192L35.5336 46.6164L35.7771 46.9337ZM34.1597 47.8009C34.7418 47.5997 35.2871 47.3072 35.7766 46.9341L35.5341 46.616C35.0784 46.9633 34.5708 47.2356 34.0291 47.4229L34.1597 47.8009ZM32.1031 53.5305C34.2947 52.4153 35.2459 49.7929 34.2783 47.5332L33.9105 47.6906C34.7952 49.7566 33.9257 52.1542 31.9217 53.1741L32.1031 53.5305ZM25.9709 51.7598C27.2302 53.8711 29.9115 54.6453 32.1031 53.5306L31.9217 53.174C29.9177 54.1934 27.4659 53.4854 26.3144 51.5549L25.9709 51.7598ZM27.3309 45.5271C25.3065 46.9232 24.712 49.6485 25.9708 51.7598L26.3144 51.555C25.1635 49.6246 25.7069 47.1329 27.558 45.8564L27.3309 45.5271ZM24.1435 43.4067L27.3225 45.8503L27.5663 45.5331L24.3872 43.0895L24.1435 43.4067ZM23.9953 43.2976L24.1467 43.4091L24.384 43.0871L24.2326 42.9756L23.9953 43.2976ZM19.7894 46.1968C21.7777 46.2668 23.5908 45.0661 24.3008 43.208L23.9272 43.0652C23.2782 44.7634 21.621 45.861 19.8035 45.7971L19.7894 46.1968ZM15.4999 42.8986C16.0774 44.8017 17.8012 46.1269 19.7894 46.1968L19.8035 45.7971C17.986 45.7332 16.4104 44.5218 15.8827 42.7825L15.4999 42.8986ZM17.2339 37.7747C15.6194 38.9368 14.9224 40.9961 15.4999 42.8987L15.8826 42.7825C15.3549 41.0438 15.9918 39.1616 17.4676 38.0993L17.2339 37.7747ZM7.16245 30.3577L17.2289 38.0956L17.4727 37.7784L7.40622 30.0406L7.16245 30.3577ZM5.42105 28.777C5.96142 29.3456 6.54311 29.8735 7.16115 30.3567L7.40752 30.0416C6.8049 29.5704 6.23779 29.0558 5.71102 28.5014L5.42105 28.777ZM7.56217 33.92C6.59343 32.2995 5.98035 30.4914 5.76473 28.6163L5.36734 28.662C5.58946 30.5936 6.22101 32.4561 7.21884 34.1253L7.56217 33.92ZM21.5854 57.225L7.56187 33.9195L7.21914 34.1258L21.2427 57.4313L21.5854 57.225ZM25.1566 58.6247C23.7861 59.0212 22.3205 58.4466 21.5854 57.225L21.2427 57.4313C22.0713 58.8083 23.7232 59.4558 25.2677 59.009L25.1566 58.6247ZM51.292 51.0572L25.1565 58.6247L25.2678 59.0089L51.4033 51.4414L51.292 51.0572ZM59.1394 44.8627C57.4392 47.8776 54.6209 50.1025 51.2925 51.057L51.4028 51.4415C54.8321 50.458 57.736 48.1656 59.4878 45.0592L59.1394 44.8627Z" fill="white"/>
</svg>
