<svg width="49" height="69" viewBox="0 0 49 69" fill="none" xmlns="http://www.w3.org/2000/svg">
<path fill-rule="evenodd" clip-rule="evenodd" d="M48.6871 21.371V21.3709C48.693 21.0037 48.698 20.698 48.702 20.7245C48.7072 20.7583 48.7046 21.5997 48.7029 22.1803V22.181V22.1813V22.1815V22.1816V22.1823L48.7029 22.1855C48.7019 22.4888 48.7012 22.7196 48.702 22.7245L48.7027 22.7293C48.7103 22.7794 48.7152 22.8297 48.7152 22.8805V31.2526C48.7152 35.6191 47.4906 39.8728 45.1741 43.5544C43.0965 46.8562 40.2234 49.5778 36.8276 51.4772C36.924 51.8112 36.9768 52.1636 36.9768 52.5282V54.2638C36.9768 55.3006 36.5679 56.2672 35.8254 56.9851C35.1061 57.6804 34.1633 58.0635 33.1703 58.0635C32.9257 58.0635 32.6831 58.0393 32.4442 57.9926C32.6245 58.2304 32.9138 58.4608 33.2076 58.6949C33.5614 58.9767 33.9219 59.2638 34.107 59.5757L34.1398 59.6308C35.8642 62.5351 36.192 63.0872 36.192 66.9641C36.192 67.536 35.7271 67.9996 35.1535 67.9996H14.5663C13.9927 67.9996 13.5277 67.536 13.5277 66.9641C13.5277 63.2443 14.0682 62.3275 15.6422 59.6574L15.8425 59.3174C16.031 58.9968 16.3141 58.7945 16.5995 58.5905C16.8423 58.417 17.0868 58.2423 17.2762 57.9924C17.0371 58.0393 16.7945 58.0635 16.5496 58.0635C14.4507 58.0635 12.7431 56.3591 12.7431 54.2638V52.5282C12.7431 52.1637 12.7959 51.8114 12.8923 51.4774C9.4966 49.5779 6.62352 46.8564 4.54591 43.5545C2.22929 39.873 1.00488 34.9823 1.00488 30.6159C1.00488 30.6001 1.00524 30.5844 1.00594 30.5688C1.00524 30.5532 1.00488 30.5375 1.00488 30.5217V22.8803C1.00488 22.8281 1.01023 22.7762 1.01818 22.7243C1.02038 22.7101 1.02285 22.6962 1.02559 22.6822C1.03409 22.6386 1.04506 22.5955 1.05932 22.553C1.06041 22.5498 1.06131 22.5465 1.06222 22.5432C1.06326 22.5394 1.06431 22.5356 1.06563 22.5318C1.07989 22.4922 1.09635 22.4532 1.11554 22.4151C1.13844 22.3697 1.62264 21.4232 2.73419 20.1122C1.70615 18.471 1.10978 16.5348 1.10978 14.4615V4.79682C1.10978 4.22492 1.57478 3.76131 2.14838 3.76131C2.63518 3.76131 3.12102 3.79029 3.60248 3.84607V2.03551C3.60248 1.46361 4.06747 1 4.64108 1H6.57978C8.15248 1 9.61042 1.66377 10.6319 2.79074C11.9041 1.65406 13.5711 1 15.3039 1H19.0428C19.6164 1 20.0814 1.46361 20.0814 2.03551V3.87C20.566 3.79836 21.052 3.76131 21.5355 3.76131C22.1091 3.76131 22.5741 4.22492 22.5741 4.79682V11.0409C22.9688 11.2962 23.3308 11.602 23.65 11.954C24.631 11.0778 25.8461 10.4886 27.1461 10.2652V4.79682C27.1461 4.22492 27.6111 3.76131 28.1847 3.76131C28.6715 3.76131 29.1573 3.79029 29.6388 3.84607V2.03551C29.6388 1.46361 30.1038 1 30.6774 1H32.6161C34.1888 1 35.6466 1.66377 36.6682 2.79074C37.9404 1.65406 39.6073 1 41.3402 1H45.0791C45.6527 1 46.1177 1.46361 46.1177 2.03551V3.87014C46.6023 3.7985 47.0883 3.76145 47.5718 3.76145C47.8473 3.76145 48.1115 3.87055 48.3064 4.06482C48.5011 4.2591 48.6105 4.52256 48.6104 4.79723L48.6094 7.3456C48.6101 7.36052 48.6104 7.37551 48.6104 7.39059V14.4616C48.6104 16.4923 48.0439 18.4359 46.99 20.1171C48.0985 21.4255 48.5817 22.3698 48.6046 22.4152C48.6238 22.4534 48.6403 22.4925 48.6545 22.5321C48.6676 22.5688 48.6784 21.9049 48.6871 21.3711V21.371ZM46.5332 7.74427V14.4616C46.5332 16.311 45.9521 18.0715 44.8779 19.5378C44.8526 19.5683 44.8294 19.5999 44.808 19.6324C44.5623 19.9585 44.2928 20.27 43.9985 20.5636C42.3641 22.1932 40.1905 23.0907 37.8783 23.0907C37.0994 23.0907 36.3334 22.9881 35.5923 22.7861V13.9603C35.5923 13.3884 35.1273 12.9247 34.5537 12.9247C34.0701 12.9247 33.5842 12.9617 33.0996 13.0334V11.1989C33.0996 10.6271 32.6346 10.1634 32.061 10.1634H29.2233V5.88359C29.6379 5.92461 30.0493 5.99023 30.4541 6.0802C32.0047 6.42035 33.482 7.12773 34.7295 8.12687C34.7406 8.13672 34.7521 8.14643 34.7637 8.15586C35.9046 9.07707 36.8219 10.202 37.4902 11.4996C37.6762 11.8603 38.0575 12.0794 38.4619 12.061C38.8682 12.0422 39.226 11.789 39.3776 11.4129C39.9907 9.89314 41.1363 8.49205 42.6033 7.46775C43.4658 6.86578 44.3944 6.42117 45.3641 6.14609C45.7516 6.0359 46.1422 5.95441 46.5328 5.90219L46.5321 7.6958C46.5321 7.71205 46.5325 7.72821 46.5332 7.74427ZM3.08102 30.5688C3.08173 30.5844 3.08208 30.6001 3.08208 30.6159C3.08208 38.351 7.24114 45.9904 13.9897 49.7185C14.666 49.1038 15.5642 48.7287 16.5486 48.7287C17.0218 48.7287 17.489 48.8171 17.9369 48.9916L22.1032 50.6143C22.5463 50.0349 23.2436 49.6586 24.0292 49.6586H25.6909C26.4763 49.6586 27.1738 50.0349 27.6168 50.6143L31.7831 48.9916C32.231 48.8171 32.6981 48.7287 33.1714 48.7287C34.1558 48.7287 35.0542 49.1038 35.7305 49.7185C42.4789 45.9903 46.638 38.9876 46.638 31.2526V26.0477C45.6886 27.1052 44.6212 28.0583 43.4788 28.904C42.1937 29.8554 40.5176 30.8769 38.4066 31.7728C38.3271 31.8198 38.241 31.8565 38.1497 31.8811C34.9886 33.1851 30.8761 34.1982 25.6586 34.2927C25.394 34.3119 25.1281 34.3249 24.86 34.3249C24.5939 34.3249 24.3307 34.3119 24.0693 34.2928C18.8481 34.1991 14.7331 33.1858 11.5704 31.8811C11.479 31.8563 11.3929 31.8198 11.3134 31.7728C9.20246 30.8769 7.52636 29.8554 6.24121 28.904C5.09894 28.0583 4.03155 27.1051 3.08208 26.0477V30.5217C3.08208 30.5375 3.08173 30.5532 3.08102 30.5688ZM44.0405 3.07102H41.3402C39.7687 3.07102 38.3299 3.79316 37.3923 5.05221C36.9718 5.61576 36.682 6.26121 36.5353 6.9418C37.2112 7.54309 37.8155 8.20768 38.3415 8.9327C39.1253 7.72205 40.1771 6.6335 41.4118 5.77121C42.2402 5.19316 43.1219 4.73516 44.0405 4.40061V3.07102ZM32.6161 3.07102C33.6977 3.07102 34.6916 3.57756 35.3264 4.42098C35.0991 4.8027 34.9095 5.20396 34.7596 5.62027C33.8089 5.03621 32.782 4.5793 31.7158 4.2673V3.07102H32.6161ZM25.691 51.7299H24.0293C23.8383 51.7299 23.6831 51.8847 23.6831 52.0751V54.6983V54.8364C23.6831 55.0267 23.8383 55.1816 24.0293 55.1816H25.691C25.882 55.1816 26.0373 55.0267 26.0373 54.8364V54.6983V52.0751C26.0373 51.8848 25.882 51.7299 25.691 51.7299ZM16.5497 55.9929C15.718 55.9929 14.8204 55.332 14.8204 54.2643V52.5286C14.8204 52.1786 14.918 51.8733 15.077 51.6197C15.0807 51.6145 15.0841 51.6089 15.0877 51.6034C15.4155 51.0936 15.9959 50.8001 16.5486 50.8001C16.7623 50.8001 16.9751 50.8408 17.1812 50.9211L21.6057 52.6444V54.0116L17.2241 55.8546C17.0057 55.9463 16.7786 55.9929 16.5497 55.9929ZM15.6282 65.929H34.0921C33.8394 60.291 31.5348 58.7642 29.1004 57.1515C28.634 56.8425 28.1629 56.5304 27.7005 56.1856C27.2645 56.8288 26.5265 57.2525 25.691 57.2525H24.0293C23.1938 57.2525 22.4558 56.8288 22.0198 56.1856C21.5583 56.5299 21.0874 56.8416 20.6207 57.1504C18.193 58.7572 15.8818 60.2867 15.6282 65.929ZM34.3795 55.4987C34.0546 55.8127 33.6141 55.9928 33.1705 55.9928C32.9416 55.9928 32.7146 55.9462 32.4959 55.8542L28.2977 54.0882L28.2875 54.0839L28.1143 54.0111V52.6439L32.5389 50.9205C32.745 50.8403 32.9578 50.7995 33.1714 50.7995C33.7251 50.7995 34.3066 51.0942 34.6341 51.6056C34.6369 51.6097 34.6395 51.614 34.6424 51.6179C34.8017 51.8718 34.8998 52.1774 34.8998 52.5281V54.2641C34.8999 54.7358 34.7151 55.1743 34.3795 55.4987ZM46.4708 22.8805C46.2976 22.6115 46.0391 22.2386 45.687 21.7981L45.631 21.8575C45.5773 21.9148 45.5236 21.972 45.4677 22.0278C43.6874 23.8028 41.3916 24.8767 38.9169 25.1119V29.2568C39.1737 29.1287 39.4289 28.9969 39.6808 28.859C41.0908 28.0881 42.4223 27.1747 43.6251 26.1092C44.6979 25.159 45.6925 24.0863 46.4708 22.8805ZM32.0678 31.5536C32.198 31.4358 32.3253 31.3151 32.4496 31.1911C34.1712 29.4732 35.2327 27.2746 35.5141 24.9005C35.9503 24.9984 36.3928 25.0678 36.8397 25.1106V30.1756C36.7071 30.2273 36.5741 30.2779 36.4407 30.3274C35.0193 30.854 33.5543 31.2571 32.0678 31.5536ZM31.0225 12.2345H28.3222C26.7506 12.2345 25.3117 12.9566 24.3743 14.2156C23.9538 14.7792 23.664 15.4246 23.5173 16.1052C24.1932 16.7065 24.7975 17.3713 25.3235 18.0963C26.1073 16.8855 27.159 15.7969 28.3938 14.9346C29.222 14.3567 30.1038 13.8987 31.0225 13.564V12.2345ZM22.3084 13.5843C22.0811 13.966 21.8915 14.3673 21.7416 14.7836C20.7909 14.1995 19.764 13.7426 18.6978 13.4307V12.2345H19.5979C20.6797 12.2345 21.6736 12.7409 22.3084 13.5843ZM18.0044 3.07102H15.3041C13.7324 3.07102 12.2936 3.79316 11.3562 5.05221C10.9356 5.61576 10.6457 6.26121 10.499 6.9418C11.175 7.54295 11.7792 8.20768 12.3052 8.9327C13.0892 7.72205 14.141 6.63336 15.3756 5.77121C16.204 5.19316 17.0858 4.73516 18.0044 4.40061V3.07102ZM6.57978 3.07102C7.66143 3.07102 8.65533 3.57756 9.29009 4.42084C9.06287 4.80256 8.87322 5.20383 8.72334 5.62014C7.77264 5.03607 6.7457 4.57916 5.67954 4.26717V3.07088H6.57978V3.07102ZM8.69317 8.12674C7.44601 7.12773 5.9686 6.42035 4.41797 6.08019C4.01317 5.99023 3.60179 5.92461 3.18712 5.88359V14.4615C3.18712 19.2196 7.06959 23.0906 11.842 23.0906C12.6212 23.0906 13.3872 22.9881 14.1281 22.7863V22.2961C14.1281 22.8679 14.5931 23.3316 15.1667 23.3316C15.7403 23.3316 16.2053 22.8679 16.2053 22.2961V23.4149C16.2153 23.4964 16.2153 23.5775 16.2061 23.6572C16.2229 28.1631 19.7215 31.8637 24.1537 32.2227C24.3871 32.2266 24.6218 32.2294 24.8602 32.2294C25.0997 32.2294 25.3361 32.227 25.5709 32.223C27.6149 32.0584 29.5147 31.1882 30.9804 29.7268C32.6148 28.096 33.5151 25.9287 33.5151 23.6246V23.5982C33.513 23.5612 33.513 23.5239 33.5151 23.4864V15.0652C33.1244 15.1176 32.7336 15.1989 32.3459 15.3093C31.3762 15.5845 30.4475 16.0291 29.5851 16.6309C28.1182 17.6554 26.9725 19.0564 26.3595 20.5761C26.2078 20.9522 25.8501 21.2054 25.4438 21.2241C25.0399 21.2437 24.6579 21.0234 24.4721 20.6628C23.8037 19.3652 22.8865 18.2402 21.7456 17.319C21.7341 17.3096 21.7227 17.2999 21.7115 17.29C20.4641 16.291 18.9869 15.5837 17.436 15.2434C17.0313 15.1534 16.6199 15.0878 16.2053 15.0468V22.127C16.2053 21.5551 15.7403 21.0915 15.1667 21.0915C14.5931 21.0915 14.1281 21.5551 14.1281 22.127V13.9601C14.1281 13.3882 14.5931 12.9246 15.1667 12.9246C15.6535 12.9246 16.1393 12.9536 16.6208 13.0094V11.1988C16.6208 10.6269 17.0858 10.1633 17.6594 10.1633H19.5981C19.903 10.1633 20.2029 10.1911 20.4971 10.2395V5.90205C20.1064 5.95441 19.7156 6.03576 19.3279 6.14609C18.3583 6.42131 17.4297 6.86578 16.5671 7.46775C15.1002 8.49205 13.9546 9.89314 13.3415 11.4129C13.1898 11.789 12.8321 12.0422 12.4258 12.061C12.0223 12.0794 11.6399 11.8603 11.4541 11.4996C10.7857 10.202 9.86849 9.07707 8.72759 8.15586C8.71594 8.14629 8.70442 8.13658 8.69317 8.12674ZM7.18286 27.0166C5.67707 25.8598 4.28276 24.479 3.25006 22.8798C3.42394 22.6096 3.68324 22.2356 4.03662 21.794C5.77169 23.6289 8.14659 24.8551 10.8034 25.1108V29.2613C9.52197 28.6259 8.45403 27.9542 7.58245 27.3173C7.44546 27.2169 7.31299 27.1168 7.18286 27.0166ZM12.8806 25.1108V30.1739C14.2755 30.7146 15.8626 31.1932 17.6596 31.5523C15.79 29.8626 14.5213 27.5256 14.2069 24.9006C13.7706 24.9985 13.3278 25.068 12.8806 25.1108Z" fill="white"/>
<path d="M48.6871 21.3709L48.4871 21.3677V21.3709H48.6871ZM48.702 20.7245L48.5043 20.7545L48.5043 20.7549L48.702 20.7245ZM48.7029 22.1803L48.5029 22.1797V22.1803H48.7029ZM48.7029 22.1823L48.9029 22.183V22.1823H48.7029ZM48.7029 22.1855L48.5029 22.1848L48.5029 22.1849L48.7029 22.1855ZM48.702 22.7245L48.8997 22.6944L48.8996 22.6937L48.702 22.7245ZM48.7027 22.7293L48.9005 22.6996L48.9005 22.6993L48.7027 22.7293ZM45.1741 43.5544L45.3434 43.6609V43.6609L45.1741 43.5544ZM36.8276 51.4772L36.73 51.3027L36.5915 51.3802L36.6355 51.5327L36.8276 51.4772ZM35.8254 56.9851L35.9644 57.1289L35.8254 56.9851ZM32.4442 57.9926L32.4827 57.7963L31.9681 57.6956L32.2849 58.1134L32.4442 57.9926ZM33.2076 58.6949L33.083 58.8513L33.2076 58.6949ZM34.107 59.5757L33.9351 59.6778L33.9351 59.6778L34.107 59.5757ZM34.1398 59.6308L33.9678 59.7329L34.1398 59.6308ZM15.6422 59.6574L15.8145 59.7589L15.8145 59.7589L15.6422 59.6574ZM15.8425 59.3174L16.0148 59.4189L16.0149 59.4188L15.8425 59.3174ZM16.5995 58.5905L16.7158 58.7532H16.7158L16.5995 58.5905ZM17.2762 57.9924L17.4356 58.1133L17.7526 57.6952L17.2377 57.7962L17.2762 57.9924ZM12.8923 51.4774L13.0844 51.5328L13.1284 51.3803L12.9899 51.3028L12.8923 51.4774ZM4.54591 43.5545L4.71519 43.448L4.71519 43.448L4.54591 43.5545ZM1.00594 30.5688L1.20574 30.5778L1.20614 30.5688L1.20574 30.5598L1.00594 30.5688ZM1.01818 22.7243L0.820523 22.6938L0.820499 22.694L1.01818 22.7243ZM1.02559 22.6822L1.22183 22.7208L1.22189 22.7205L1.02559 22.6822ZM1.05932 22.553L1.24894 22.6166L1.249 22.6164L1.05932 22.553ZM1.06222 22.5432L0.86935 22.4902L0.869346 22.4903L1.06222 22.5432ZM1.06563 22.5318L0.877432 22.4641L0.87709 22.4651L1.06563 22.5318ZM1.11554 22.4151L0.936982 22.325L0.936894 22.3252L1.11554 22.4151ZM2.73419 20.1122L2.88674 20.2415L2.98133 20.13L2.90368 20.006L2.73419 20.1122ZM3.60248 3.84607L3.57946 4.04475L3.80248 4.07058V3.84607H3.60248ZM10.6319 2.79074L10.4837 2.92506L10.617 3.07219L10.7651 2.93989L10.6319 2.79074ZM20.0814 3.87H19.8814V4.10174L20.1107 4.06785L20.0814 3.87ZM22.5741 11.0409H22.3741V11.1497L22.4655 11.2088L22.5741 11.0409ZM23.65 11.954L23.5019 12.0884L23.6352 12.2354L23.7832 12.1032L23.65 11.954ZM27.1461 10.2652L27.1799 10.4623L27.3461 10.4337V10.2652H27.1461ZM29.6388 3.84607L29.6157 4.04475L29.8388 4.07058V3.84607H29.6388ZM36.6682 2.79074L36.52 2.92507L36.6533 3.07218L36.8014 2.93989L36.6682 2.79074ZM46.1177 3.87014H45.9177V4.10188L46.1469 4.06799L46.1177 3.87014ZM48.3064 4.06482L48.4476 3.92324L48.4476 3.92319L48.3064 4.06482ZM48.6104 4.79723L48.4104 4.79713V4.79715L48.6104 4.79723ZM48.6094 7.3456L48.4092 7.34553L48.4096 7.35419L48.6094 7.3456ZM46.99 20.1171L46.8205 20.0109L46.7428 20.1348L46.8374 20.2464L46.99 20.1171ZM48.6046 22.4152L48.7833 22.3253L48.7832 22.3251L48.6046 22.4152ZM48.6545 22.5321L48.8429 22.465L48.8427 22.4644L48.6545 22.5321ZM48.6871 21.3711L48.8871 21.3744V21.3711H48.6871ZM46.5332 7.74427H46.7334L46.733 7.73511L46.5332 7.74427ZM44.8779 19.5378L45.032 19.666L45.0393 19.656L44.8779 19.5378ZM44.808 19.6324L44.9681 19.7531L44.9751 19.7423L44.808 19.6324ZM43.9985 20.5636L44.1398 20.7053L44.1398 20.7052L43.9985 20.5636ZM35.5923 22.7861H35.3923V22.9389L35.5397 22.9791L35.5923 22.7861ZM33.0996 13.0334H32.8996V13.2652L33.1289 13.2313L33.0996 13.0334ZM29.2233 10.1634H29.0233V10.3634H29.2233V10.1634ZM29.2233 5.88359L29.2429 5.68456L29.0233 5.66284V5.88359H29.2233ZM30.4541 6.0802L30.4107 6.27543L30.4113 6.27555L30.4541 6.0802ZM34.7295 8.12687L34.8623 7.977L34.8545 7.97077L34.7295 8.12687ZM34.7637 8.15586L34.6379 8.31131L34.6381 8.31147L34.7637 8.15586ZM37.4902 11.4996L37.3124 11.5912L37.3125 11.5912L37.4902 11.4996ZM38.4619 12.061L38.471 12.2607L38.4711 12.2607L38.4619 12.061ZM39.3776 11.4129L39.1922 11.3381L39.1922 11.3381L39.3776 11.4129ZM42.6033 7.46775L42.4888 7.30375L42.4888 7.30377L42.6033 7.46775ZM45.3641 6.14609L45.4186 6.3385L45.4188 6.33847L45.3641 6.14609ZM46.5328 5.90219L46.7328 5.90226L46.7329 5.67365L46.5063 5.70395L46.5328 5.90219ZM46.5321 7.6958L46.7321 7.69589V7.69588L46.5321 7.6958ZM3.08102 30.5688L2.88123 30.5598L2.88082 30.5688L2.88123 30.5778L3.08102 30.5688ZM13.9897 49.7185L13.893 49.8936L14.0183 49.9628L14.1242 49.8665L13.9897 49.7185ZM17.9369 48.9916L17.8643 49.1779L17.8643 49.1779L17.9369 48.9916ZM22.1032 50.6143L22.0306 50.8006L22.1708 50.8552L22.2621 50.7358L22.1032 50.6143ZM27.6168 50.6143L27.4579 50.7358L27.5493 50.8552L27.6894 50.8006L27.6168 50.6143ZM31.7831 48.9916L31.8557 49.1779L31.8557 49.1779L31.7831 48.9916ZM35.7305 49.7185L35.596 49.8665L35.7019 49.9628L35.8272 49.8936L35.7305 49.7185ZM46.638 26.0477H46.838V25.5255L46.4891 25.9141L46.638 26.0477ZM43.4788 28.904L43.3598 28.7433L43.4788 28.904ZM38.4066 31.7728L38.3285 31.5887L38.3163 31.5939L38.3048 31.6006L38.4066 31.7728ZM38.1497 31.8811L38.0976 31.688L38.0853 31.6913L38.0734 31.6962L38.1497 31.8811ZM25.6586 34.2927L25.655 34.0924L25.6441 34.0932L25.6586 34.2927ZM24.0693 34.2928L24.084 34.093L24.0729 34.0928L24.0693 34.2928ZM11.5704 31.8811L11.6466 31.6962L11.6349 31.6914L11.6227 31.688L11.5704 31.8811ZM11.3134 31.7728L11.4152 31.6006L11.4038 31.5939L11.3915 31.5887L11.3134 31.7728ZM6.24121 28.904L6.1222 29.0648L6.12221 29.0648L6.24121 28.904ZM3.08208 26.0477L3.23089 25.9141L2.88208 25.5256V26.0477H3.08208ZM44.0405 3.07102H44.2405V2.87102H44.0405V3.07102ZM37.3923 5.05221L37.5526 5.17183L37.5527 5.17166L37.3923 5.05221ZM36.5353 6.9418L36.3398 6.89965L36.3152 7.01369L36.4023 7.09122L36.5353 6.9418ZM38.3415 8.9327L38.1796 9.05014L38.3509 9.2862L38.5094 9.04139L38.3415 8.9327ZM41.4118 5.77121L41.2973 5.6072L41.2973 5.60724L41.4118 5.77121ZM44.0405 4.40061L44.1089 4.58853L44.2405 4.54062V4.40061H44.0405ZM35.3264 4.42098L35.4982 4.52328L35.5669 4.40795L35.4862 4.30071L35.3264 4.42098ZM34.7596 5.62027L34.6549 5.79068L34.8645 5.91943L34.9478 5.68802L34.7596 5.62027ZM31.7158 4.2673H31.5158V4.41717L31.6596 4.45925L31.7158 4.2673ZM31.7158 3.07102V2.87102H31.5158V3.07102H31.7158ZM15.077 51.6197L14.9138 51.5034L14.9075 51.5135L15.077 51.6197ZM15.0877 51.6034L15.2552 51.7127L15.2559 51.7116L15.0877 51.6034ZM17.1812 50.9211L17.2538 50.7347L17.2538 50.7347L17.1812 50.9211ZM21.6057 52.6444H21.8057V52.5077L21.6783 52.4581L21.6057 52.6444ZM21.6057 54.0116L21.6833 54.196L21.8057 54.1445V54.0116H21.6057ZM17.2241 55.8546L17.3015 56.039L17.3017 56.0389L17.2241 55.8546ZM34.0921 65.929V66.129H34.3013L34.2919 65.92L34.0921 65.929ZM15.6282 65.929L15.4284 65.92L15.419 66.129H15.6282V65.929ZM29.1004 57.1515L28.9899 57.3182L29.1004 57.1515ZM27.7005 56.1856L27.82 56.0252L27.6523 55.9002L27.5349 56.0734L27.7005 56.1856ZM22.0198 56.1856L22.1854 56.0734L22.068 55.9001L21.9003 56.0253L22.0198 56.1856ZM20.6207 57.1504L20.5103 56.9837L20.6207 57.1504ZM34.3795 55.4987L34.5185 55.6425L34.5185 55.6425L34.3795 55.4987ZM32.4959 55.8542L32.5735 55.6698H32.5735L32.4959 55.8542ZM28.2977 54.0882L28.3752 53.9038L28.3747 53.9036L28.2977 54.0882ZM28.2875 54.0839L28.2099 54.2683L28.2104 54.2685L28.2875 54.0839ZM28.1143 54.0111H27.9143V54.1439L28.0368 54.1954L28.1143 54.0111ZM28.1143 52.6439L28.0417 52.4575L27.9143 52.5071V52.6439H28.1143ZM32.5389 50.9205L32.4663 50.7342L32.4663 50.7342L32.5389 50.9205ZM34.6341 51.6056L34.4657 51.7135L34.4679 51.7168L34.6341 51.6056ZM34.6424 51.6179L34.8122 51.5114L34.8042 51.5004L34.6424 51.6179ZM34.8998 54.2641H34.6998V54.2642L34.8998 54.2641ZM45.687 21.7981L45.8432 21.6732L45.6993 21.4931L45.5413 21.661L45.687 21.7981ZM46.4708 22.8805L46.6388 22.9889L46.7088 22.8806L46.639 22.7722L46.4708 22.8805ZM45.631 21.8575L45.4854 21.7205L45.4852 21.7207L45.631 21.8575ZM45.4677 22.0278L45.6089 22.1694L45.4677 22.0278ZM38.9169 25.1119L38.898 24.9128L38.7169 24.93V25.1119H38.9169ZM38.9169 29.2568H38.7169V29.58L39.0062 29.4357L38.9169 29.2568ZM39.6808 28.859L39.5849 28.6836L39.5848 28.6836L39.6808 28.859ZM43.6251 26.1092L43.7578 26.2589V26.2589L43.6251 26.1092ZM32.4496 31.1911L32.3083 31.0495L32.3083 31.0495L32.4496 31.1911ZM32.0678 31.5536L31.9336 31.4054L31.3969 31.8914L32.1069 31.7498L32.0678 31.5536ZM35.5141 24.9005L35.5579 24.7053L35.3416 24.6568L35.3155 24.8769L35.5141 24.9005ZM36.8397 25.1106H37.0397V24.9289L36.8588 24.9115L36.8397 25.1106ZM36.8397 30.1756L36.9123 30.362L37.0397 30.3123V30.1756H36.8397ZM36.4407 30.3274L36.5101 30.5149L36.5102 30.5149L36.4407 30.3274ZM31.0225 12.2345H31.2225V12.0345H31.0225V12.2345ZM24.3743 14.2156L24.5346 14.3353L24.5347 14.3351L24.3743 14.2156ZM23.5173 16.1052L23.3218 16.0631L23.2972 16.1771L23.3843 16.2547L23.5173 16.1052ZM25.3235 18.0963L25.1616 18.2137L25.3329 18.4498L25.4914 18.205L25.3235 18.0963ZM28.3938 14.9346L28.2793 14.7706L28.2793 14.7707L28.3938 14.9346ZM31.0225 13.564L31.091 13.752L31.2225 13.704V13.564H31.0225ZM21.7416 14.7836L21.6369 14.954L21.8465 15.0827L21.9298 14.8513L21.7416 14.7836ZM22.3084 13.5843L22.4802 13.6866L22.5489 13.5712L22.4682 13.464L22.3084 13.5843ZM18.6978 13.4307H18.4978V13.5806L18.6417 13.6227L18.6978 13.4307ZM18.6978 12.2345V12.0345H18.4978V12.2345H18.6978ZM18.0044 3.07102H18.2044V2.87102H18.0044V3.07102ZM11.3562 5.05221L11.5165 5.17182L11.5166 5.17165L11.3562 5.05221ZM10.499 6.9418L10.3035 6.89965L10.2789 7.01371L10.3661 7.09125L10.499 6.9418ZM12.3052 8.9327L12.1434 9.05014L12.3146 9.28618L12.4731 9.0414L12.3052 8.9327ZM15.3756 5.77121L15.2612 5.60719L15.2611 5.60723L15.3756 5.77121ZM18.0044 4.40061L18.0728 4.58853L18.2044 4.54062V4.40061H18.0044ZM9.29009 4.42084L9.46195 4.52314L9.5306 4.4078L9.44988 4.30056L9.29009 4.42084ZM6.57978 3.07102H6.37978V3.27102H6.57978V3.07102ZM8.72334 5.62014L8.61865 5.79055L8.82821 5.91929L8.91152 5.68788L8.72334 5.62014ZM5.67954 4.26717H5.47954V4.41703L5.62337 4.45912L5.67954 4.26717ZM5.67954 3.07088V2.87088H5.47954V3.07088H5.67954ZM6.57978 3.07088H6.77978V2.87088H6.57978V3.07088ZM4.41797 6.08019L4.37458 6.27543L4.37512 6.27555L4.41797 6.08019ZM8.69317 8.12674L8.82504 7.97611L8.81821 7.97064L8.69317 8.12674ZM3.18712 5.88359L3.20681 5.68456L2.98712 5.66284V5.88359H3.18712ZM14.1281 22.7863L14.1806 22.9792L14.3281 22.9391V22.7863H14.1281ZM16.2053 23.4149H16.0053V23.4271L16.0068 23.4393L16.2053 23.4149ZM16.2061 23.6572L16.0074 23.6343L16.006 23.6461L16.0061 23.6579L16.2061 23.6572ZM24.1537 32.2227L24.1375 32.4225L24.1504 32.4227L24.1537 32.2227ZM25.5709 32.223L25.5743 32.4234L25.5869 32.4224L25.5709 32.223ZM30.9804 29.7268L31.1216 29.8684L31.1217 29.8684L30.9804 29.7268ZM33.5151 23.5982H33.7154L33.7147 23.5872L33.5151 23.5982ZM33.5151 23.4864L33.7151 23.4974V23.4864H33.5151ZM33.5151 15.0652H33.7151V14.8366L33.4885 14.867L33.5151 15.0652ZM32.3459 15.3093L32.4005 15.5017L32.4007 15.5016L32.3459 15.3093ZM29.5851 16.6309L29.4707 16.4669L29.4706 16.4669L29.5851 16.6309ZM26.3595 20.5761L26.174 20.5013L26.174 20.5013L26.3595 20.5761ZM25.4438 21.2241L25.4346 21.0243L25.4341 21.0244L25.4438 21.2241ZM24.4721 20.6628L24.2943 20.7543L24.2943 20.7543L24.4721 20.6628ZM21.7456 17.319L21.6189 17.4738L21.62 17.4746L21.7456 17.319ZM21.7115 17.29L21.8433 17.1394L21.8365 17.1339L21.7115 17.29ZM17.436 15.2434L17.3926 15.4386L17.3931 15.4387L17.436 15.2434ZM16.2053 15.0468L16.2249 14.8477L16.0053 14.826V15.0468H16.2053ZM16.6208 13.0094L16.5977 13.208L16.8208 13.2339V13.0094H16.6208ZM20.4971 10.2395L20.4646 10.4368L20.6971 10.475V10.2395H20.4971ZM20.4971 5.90205H20.6971V5.67346L20.4705 5.70382L20.4971 5.90205ZM19.3279 6.14609L19.3825 6.33849L19.3827 6.33845L19.3279 6.14609ZM16.5671 7.46775L16.4527 7.30375L16.4526 7.30377L16.5671 7.46775ZM13.3415 11.4129L13.156 11.3381L13.156 11.3381L13.3415 11.4129ZM12.4258 12.061L12.4349 12.2607L12.435 12.2607L12.4258 12.061ZM11.4541 11.4996L11.2763 11.5912L11.2763 11.5912L11.4541 11.4996ZM8.72759 8.15586L8.60067 8.31043L8.60195 8.31147L8.72759 8.15586ZM3.25006 22.8798L3.08188 22.7715L3.0121 22.88L3.08205 22.9883L3.25006 22.8798ZM7.18286 27.0166L7.30489 26.8582L7.3047 26.858L7.18286 27.0166ZM4.03662 21.794L4.18194 21.6566L4.02405 21.4896L3.88046 21.669L4.03662 21.794ZM10.8034 25.1108H11.0034V24.9291L10.8226 24.9117L10.8034 25.1108ZM10.8034 29.2613L10.7146 29.4405L11.0034 29.5837V29.2613H10.8034ZM7.58245 27.3173L7.46426 27.4786L7.46444 27.4787L7.58245 27.3173ZM12.8806 30.1739H12.6806V30.3108L12.8083 30.3603L12.8806 30.1739ZM12.8806 25.1108L12.8616 24.9117L12.6806 24.929V25.1108H12.8806ZM17.6596 31.5523L17.6204 31.7484L18.3323 31.8906L17.7937 31.4039L17.6596 31.5523ZM14.2069 24.9006L14.4055 24.8768L14.3792 24.657L14.1631 24.7055L14.2069 24.9006ZM48.4871 21.3709V21.371H48.8871V21.3709H48.4871ZM48.8997 20.6944C48.8992 20.691 48.898 20.6837 48.8958 20.6748C48.8955 20.6735 48.8887 20.6423 48.8667 20.6101C48.8571 20.5959 48.82 20.5447 48.7459 20.5279C48.6552 20.5072 48.5888 20.553 48.5606 20.5809C48.5353 20.606 48.5232 20.6316 48.5194 20.6401C48.5141 20.6516 48.511 20.6613 48.5095 20.6666C48.5043 20.6841 48.5026 20.6992 48.5024 20.7006C48.5018 20.7057 48.5014 20.7103 48.5011 20.7134C48.5002 20.7249 48.4995 20.7401 48.4989 20.7553C48.4977 20.7877 48.4965 20.8363 48.4953 20.8959C48.4928 21.0155 48.4901 21.1843 48.4871 21.3677L48.887 21.3742C48.89 21.1904 48.8927 21.0227 48.8952 20.9042C48.8965 20.8448 48.8976 20.799 48.8987 20.77C48.8989 20.7628 48.8992 20.7571 48.8994 20.7527C48.8995 20.7505 48.8996 20.7488 48.8997 20.7475C48.8997 20.7462 48.8998 20.7457 48.8998 20.7458C48.8998 20.7459 48.8997 20.7463 48.8997 20.747C48.8996 20.7476 48.8995 20.7488 48.8993 20.7505C48.8991 20.752 48.8987 20.755 48.898 20.7588C48.8975 20.7617 48.896 20.7698 48.893 20.7801C48.8915 20.7852 48.8885 20.7947 48.8833 20.806C48.8795 20.8144 48.8675 20.8399 48.8422 20.865C48.8141 20.8928 48.7478 20.9385 48.6571 20.9179C48.5831 20.901 48.5461 20.8499 48.5365 20.8358C48.5146 20.8038 48.508 20.7729 48.5078 20.7722C48.5057 20.7638 48.5047 20.7572 48.5043 20.7545L48.8997 20.6944ZM48.9029 22.1809C48.9038 21.8907 48.9048 21.5349 48.9051 21.2475C48.9052 21.1038 48.905 20.9769 48.9046 20.8836C48.9043 20.837 48.904 20.7983 48.9036 20.7698C48.9034 20.7557 48.9031 20.7433 48.9028 20.7335C48.9027 20.7298 48.9022 20.7107 48.8997 20.6941L48.5043 20.7549C48.5024 20.7424 48.5026 20.7339 48.503 20.7466C48.5032 20.753 48.5034 20.7628 48.5036 20.776C48.504 20.8024 48.5043 20.8394 48.5046 20.8856C48.505 20.9777 48.5052 21.1037 48.5051 21.2472C48.5048 21.5341 48.5038 21.8893 48.5029 22.1797L48.9029 22.1809ZM48.9029 22.181V22.1803H48.5029V22.181H48.9029ZM48.9029 22.1813V22.181H48.5029V22.1813H48.9029ZM48.9029 22.1815V22.1813H48.5029V22.1815H48.9029ZM48.9029 22.1816V22.1815H48.5029V22.1816H48.9029ZM48.9029 22.1823V22.1816H48.5029V22.1823H48.9029ZM48.9029 22.1862L48.9029 22.183L48.5029 22.1816L48.5029 22.1848L48.9029 22.1862ZM48.8996 22.6937C48.9006 22.7002 48.9011 22.7052 48.9012 22.7069C48.9014 22.7093 48.9015 22.7111 48.9016 22.7122C48.9017 22.7143 48.9018 22.7158 48.9018 22.7163C48.9018 22.7174 48.9019 22.718 48.9018 22.7174C48.9018 22.7165 48.9018 22.7144 48.9018 22.711C48.9017 22.7042 48.9017 22.6941 48.9017 22.6807C48.9017 22.6539 48.9017 22.6154 48.9018 22.5673C48.902 22.4712 48.9024 22.3378 48.9029 22.1861L48.5029 22.1849C48.5024 22.3365 48.502 22.4701 48.5018 22.5665C48.5017 22.6146 48.5017 22.6537 48.5017 22.6811C48.5017 22.6947 48.5017 22.7058 48.5018 22.7138C48.5018 22.7177 48.5018 22.7214 48.5019 22.7245C48.5019 22.726 48.502 22.7281 48.5021 22.7304C48.5021 22.7315 48.5022 22.7335 48.5023 22.736C48.5023 22.7361 48.5027 22.7447 48.5044 22.7552L48.8996 22.6937ZM48.9005 22.6993L48.8997 22.6944L48.5043 22.7545L48.505 22.7594L48.9005 22.6993ZM48.9152 22.8805C48.9152 22.817 48.9091 22.7563 48.9005 22.6996L48.505 22.7591C48.5115 22.8025 48.5152 22.8424 48.5152 22.8805H48.9152ZM48.9152 31.2526V22.8805H48.5152V31.2526H48.9152ZM45.3434 43.6609C47.68 39.9473 48.9152 35.6566 48.9152 31.2526H48.5152C48.5152 35.5816 47.3012 39.7983 45.0049 43.4479L45.3434 43.6609ZM36.9253 51.6518C40.3502 49.7361 43.2479 46.9911 45.3434 43.6609L45.0049 43.4479C42.9451 46.7212 40.0967 49.4195 36.73 51.3027L36.9253 51.6518ZM37.1768 52.5282C37.1768 52.1442 37.1212 51.7732 37.0198 51.4218L36.6355 51.5327C36.7269 51.8493 36.7768 52.183 36.7768 52.5282H37.1768ZM37.1768 54.2638V52.5282H36.7768V54.2638H37.1768ZM35.9644 57.1289C36.7461 56.3731 37.1768 55.3545 37.1768 54.2638H36.7768C36.7768 55.2466 36.3897 56.1613 35.6864 56.8413L35.9644 57.1289ZM33.1703 58.2635C34.2156 58.2635 35.2082 57.86 35.9644 57.1289L35.6864 56.8413C35.0041 57.5009 34.1109 57.8635 33.1703 57.8635V58.2635ZM32.4058 58.1889C32.657 58.238 32.9124 58.2635 33.1703 58.2635V57.8635C32.9389 57.8635 32.7092 57.8406 32.4827 57.7963L32.4058 58.1889ZM33.3323 58.5385C33.0319 58.2992 32.7655 58.0853 32.6036 57.8717L32.2849 58.1134C32.4836 58.3755 32.7957 58.6225 33.083 58.8513L33.3323 58.5385ZM34.279 59.4736C34.0711 59.1233 33.676 58.8122 33.3323 58.5385L33.083 58.8513C33.4469 59.1411 33.7727 59.4043 33.9351 59.6778L34.279 59.4736ZM34.3117 59.5287L34.279 59.4736L33.9351 59.6778L33.9678 59.7329L34.3117 59.5287ZM36.392 66.9641C36.392 65.0244 36.3108 63.8912 36.004 62.8749C35.698 61.8611 35.1702 60.9744 34.3117 59.5287L33.9678 59.7329C34.8338 61.1915 35.3321 62.033 35.6211 62.9905C35.9094 63.9456 35.992 65.0269 35.992 66.9641H36.392ZM35.1535 68.1996C35.8369 68.1996 36.392 67.647 36.392 66.9641H35.992C35.992 67.425 35.6172 67.7996 35.1535 67.7996V68.1996ZM14.5663 68.1996H35.1535V67.7996H14.5663V68.1996ZM13.3277 66.9641C13.3277 67.647 13.8828 68.1996 14.5663 68.1996V67.7996C14.1026 67.7996 13.7277 67.425 13.7277 66.9641H13.3277ZM15.4699 59.5558C14.6858 60.886 14.1444 61.8026 13.8044 62.8556C13.4631 63.9126 13.3277 65.0958 13.3277 66.9641H13.7277C13.7277 65.1125 13.8625 63.9775 14.185 62.9785C14.5088 61.9757 15.0246 61.0989 15.8145 59.7589L15.4699 59.5558ZM15.6701 59.2159L15.4699 59.5559L15.8145 59.7589L16.0148 59.4189L15.6701 59.2159ZM16.4832 58.4278C16.2026 58.6283 15.8834 58.8532 15.6701 59.216L16.0149 59.4188C16.1786 59.1403 16.4256 58.9606 16.7158 58.7532L16.4832 58.4278ZM17.1169 57.8716C16.9486 58.0934 16.7296 58.2517 16.4832 58.4278L16.7158 58.7532C16.955 58.5823 17.2249 58.3911 17.4356 58.1133L17.1169 57.8716ZM16.5496 58.2635C16.8077 58.2635 17.0632 58.238 17.3147 58.1887L17.2377 57.7962C17.011 57.8406 16.7813 57.8635 16.5496 57.8635V58.2635ZM12.5431 54.2638C12.5431 56.4699 14.3406 58.2635 16.5496 58.2635V57.8635C14.5608 57.8635 12.9431 56.2483 12.9431 54.2638H12.5431ZM12.5431 52.5282V54.2638H12.9431V52.5282H12.5431ZM12.7001 51.4219C12.5987 51.7733 12.5431 52.1443 12.5431 52.5282H12.9431C12.9431 52.1831 12.993 51.8495 13.0844 51.5328L12.7001 51.4219ZM4.37663 43.661C6.47213 46.9914 9.36989 49.7362 12.7946 51.6519L12.9899 51.3028C9.62331 49.4197 6.77491 46.7215 4.71519 43.448L4.37663 43.661ZM0.804883 30.6159C0.804883 35.0143 2.03713 39.9431 4.37663 43.661L4.71519 43.448C2.42144 39.8028 1.20488 34.9502 1.20488 30.6159H0.804883ZM0.80614 30.5598C0.805304 30.5784 0.804883 30.5971 0.804883 30.6159H1.20488C1.20488 30.6031 1.20517 30.5904 1.20574 30.5778L0.80614 30.5598ZM0.804883 30.5217C0.804883 30.5405 0.805304 30.5592 0.80614 30.5778L1.20574 30.5598C1.20517 30.5472 1.20488 30.5345 1.20488 30.5217H0.804883ZM0.804883 22.8803V30.5217H1.20488V22.8803H0.804883ZM0.820499 22.694C0.811591 22.752 0.804883 22.8147 0.804883 22.8803H1.20488C1.20488 22.8415 1.20887 22.8003 1.21587 22.7547L0.820499 22.694ZM0.829348 22.6436C0.826113 22.6601 0.823163 22.6767 0.820523 22.6938L1.21584 22.7548C1.21759 22.7435 1.21958 22.7323 1.22183 22.7208L0.829348 22.6436ZM0.869704 22.4894C0.85232 22.5413 0.839239 22.5929 0.829284 22.644L1.22189 22.7205C1.22894 22.6843 1.2378 22.6498 1.24894 22.6166L0.869704 22.4894ZM0.869346 22.4903L0.869644 22.4896L1.249 22.6164C1.25211 22.6071 1.25442 22.5985 1.25509 22.5961L0.869346 22.4903ZM0.87709 22.4651C0.872957 22.4768 0.870085 22.4876 0.86935 22.4902L1.25508 22.5961C1.25568 22.5939 1.25573 22.5938 1.25569 22.5939C1.2556 22.5942 1.25508 22.596 1.25417 22.5986L0.87709 22.4651ZM0.936894 22.3252C0.91373 22.3712 0.894159 22.4176 0.877434 22.4641L1.25383 22.5995C1.26562 22.5667 1.27896 22.5353 1.29419 22.505L0.936894 22.3252ZM2.58164 19.9828C1.4581 21.308 0.965601 22.2683 0.936982 22.325L1.29411 22.5052C1.31129 22.4711 1.78718 21.5384 2.88674 20.2415L2.58164 19.9828ZM0.909785 14.4615C0.909785 16.5737 1.51746 18.5465 2.5647 20.2184L2.90368 20.006C1.89484 18.3955 1.30978 16.4959 1.30978 14.4615H0.909785ZM0.909785 4.79682V14.4615H1.30978V4.79682H0.909785ZM2.14838 3.56131C1.46489 3.56131 0.909785 4.1139 0.909785 4.79682H1.30978C1.30978 4.33594 1.68468 3.96131 2.14838 3.96131V3.56131ZM3.6255 3.6474C3.13664 3.59076 2.64311 3.56131 2.14838 3.56131V3.96131C2.62725 3.96131 3.10541 3.98982 3.57946 4.04475L3.6255 3.6474ZM3.40248 2.03551V3.84607H3.80248V2.03551H3.40248ZM4.64108 0.8C3.95758 0.8 3.40248 1.35259 3.40248 2.03551H3.80248C3.80248 1.57463 4.17737 1.2 4.64108 1.2V0.8ZM6.57978 0.8H4.64108V1.2H6.57978V0.8ZM10.7801 2.65643C9.72105 1.48803 8.20947 0.8 6.57978 0.8V1.2C8.0955 1.2 9.49978 1.83951 10.4837 2.92506L10.7801 2.65643ZM15.3039 0.8C13.5209 0.8 11.8068 1.47284 10.4986 2.6416L10.7651 2.93989C12.0015 1.83529 13.6212 1.2 15.3039 1.2V0.8ZM19.0428 0.8H15.3039V1.2H19.0428V0.8ZM20.2814 2.03551C20.2814 1.35259 19.7263 0.8 19.0428 0.8V1.2C19.5065 1.2 19.8814 1.57463 19.8814 2.03551H20.2814ZM20.2814 3.87V2.03551H19.8814V3.87H20.2814ZM21.5355 3.56131C21.0418 3.56131 20.546 3.59914 20.0522 3.67215L20.1107 4.06785C20.586 3.99758 21.0622 3.96131 21.5355 3.96131V3.56131ZM22.7741 4.79682C22.7741 4.1139 22.219 3.56131 21.5355 3.56131V3.96131C21.9992 3.96131 22.3741 4.33594 22.3741 4.79682H22.7741ZM22.7741 11.0409V4.79682H22.3741V11.0409H22.7741ZM23.7982 11.8197C23.4671 11.4546 23.0917 11.1375 22.6827 10.873L22.4655 11.2088C22.8458 11.4548 23.1945 11.7494 23.5019 12.0884L23.7982 11.8197ZM27.1122 10.068C25.775 10.2978 24.5256 10.9038 23.5168 11.8049L23.7832 12.1032C24.7364 11.2518 25.9172 10.6793 27.1799 10.4623L27.1122 10.068ZM26.9461 4.79682V10.2652H27.3461V4.79682H26.9461ZM28.1847 3.56131C27.5012 3.56131 26.9461 4.1139 26.9461 4.79682H27.3461C27.3461 4.33594 27.721 3.96131 28.1847 3.96131V3.56131ZM29.6618 3.6474C29.1729 3.59076 28.6794 3.56131 28.1847 3.56131V3.96131C28.6635 3.96131 29.1417 3.98982 29.6157 4.04475L29.6618 3.6474ZM29.4388 2.03551V3.84607H29.8388V2.03551H29.4388ZM30.6774 0.8C29.9939 0.8 29.4388 1.35259 29.4388 2.03551H29.8388C29.8388 1.57463 30.2136 1.2 30.6774 1.2V0.8ZM32.6161 0.8H30.6774V1.2H32.6161V0.8ZM36.8163 2.65642C35.7572 1.48803 34.2458 0.8 32.6161 0.8V1.2C34.1318 1.2 35.5359 1.83951 36.52 2.92507L36.8163 2.65642ZM41.3402 0.8C39.5572 0.8 37.8431 1.47284 36.5349 2.6416L36.8014 2.93989C38.0378 1.83529 39.6575 1.2 41.3402 1.2V0.8ZM45.0791 0.8H41.3402V1.2H45.0791V0.8ZM46.3177 2.03551C46.3177 1.35259 45.7626 0.8 45.0791 0.8V1.2C45.5428 1.2 45.9177 1.57463 45.9177 2.03551H46.3177ZM46.3177 3.87014V2.03551H45.9177V3.87014H46.3177ZM47.5718 3.56145C47.0781 3.56145 46.5823 3.59928 46.0885 3.67229L46.1469 4.06799C46.6223 3.99771 47.0985 3.96145 47.5718 3.96145V3.56145ZM48.4476 3.92319C48.2152 3.69147 47.9001 3.56145 47.5718 3.56145V3.96145C47.7944 3.96145 48.0079 4.04962 48.1652 4.20646L48.4476 3.92319ZM48.8104 4.79733C48.8106 4.46936 48.6799 4.15497 48.4476 3.92324L48.1651 4.20641C48.3223 4.36324 48.4105 4.57575 48.4104 4.79713L48.8104 4.79733ZM48.8094 7.34568L48.8104 4.7973L48.4104 4.79715L48.4094 7.34553L48.8094 7.34568ZM48.8104 7.39059C48.8104 7.37268 48.81 7.35482 48.8092 7.33702L48.4096 7.35419C48.4101 7.36622 48.4104 7.37835 48.4104 7.39059H48.8104ZM48.8104 14.4616V7.39059H48.4104V14.4616H48.8104ZM47.1594 20.2233C48.2333 18.5103 48.8104 16.5299 48.8104 14.4616H48.4104C48.4104 16.4546 47.8545 18.3614 46.8205 20.0109L47.1594 20.2233ZM48.7832 22.3251C48.7546 22.2684 48.2631 21.3103 47.1426 19.9878L46.8374 20.2464C47.9339 21.5407 48.4089 22.4712 48.4261 22.5053L48.7832 22.3251ZM48.8427 22.4644C48.8261 22.4181 48.8065 22.3715 48.7833 22.3253L48.426 22.5051C48.4411 22.5353 48.4545 22.5668 48.4664 22.5998L48.8427 22.4644ZM48.4871 21.3679C48.4827 21.635 48.4779 21.9336 48.4725 22.1608C48.4698 22.2747 48.467 22.3691 48.4641 22.4321C48.4627 22.4646 48.4613 22.4849 48.4603 22.4948C48.4594 22.5039 48.4598 22.494 48.4638 22.4791C48.465 22.4748 48.4684 22.4623 48.4756 22.4472C48.4771 22.4439 48.5016 22.3861 48.5684 22.3536C48.6122 22.3323 48.666 22.3263 48.7185 22.3437C48.7644 22.359 48.7927 22.3867 48.8063 22.4023C48.8313 22.4312 48.8412 22.46 48.8429 22.465L48.4662 22.5993C48.4683 22.6054 48.4786 22.635 48.5041 22.6643C48.5178 22.6802 48.5463 22.708 48.5924 22.7234C48.6451 22.7408 48.6991 22.7348 48.7432 22.7134C48.8104 22.6808 48.8352 22.6224 48.8371 22.6183C48.8447 22.6023 48.8486 22.5887 48.8501 22.5828C48.8557 22.562 48.8577 22.541 48.8584 22.5345C48.8605 22.513 48.8622 22.4833 48.8637 22.4504C48.8668 22.3826 48.8697 22.2845 48.8724 22.1703C48.8778 21.9413 48.8827 21.641 48.887 21.3744L48.4871 21.3679ZM48.4871 21.371V21.3711H48.8871V21.371H48.4871ZM46.7332 14.4616V7.74427H46.3332V14.4616H46.7332ZM45.0393 19.656C46.1385 18.1554 46.7332 16.3535 46.7332 14.4616H46.3332C46.3332 16.2685 45.7656 17.9876 44.7166 19.4196L45.0393 19.656ZM44.9751 19.7423C44.9927 19.7156 45.0115 19.6901 45.0317 19.6658L44.7242 19.4099C44.6937 19.4466 44.6661 19.4842 44.6409 19.5226L44.9751 19.7423ZM44.1398 20.7052C44.4409 20.4047 44.7165 20.0861 44.9677 19.7528L44.6483 19.5121C44.408 19.8309 44.1447 20.1352 43.8573 20.4221L44.1398 20.7052ZM37.8783 23.2907C40.2434 23.2907 42.4678 22.3723 44.1398 20.7053L43.8573 20.422C42.2605 22.0141 40.1377 22.8907 37.8783 22.8907V23.2907ZM35.5397 22.9791C36.2981 23.1857 37.0817 23.2907 37.8783 23.2907V22.8907C37.1171 22.8907 36.3688 22.7904 35.6448 22.5932L35.5397 22.9791ZM35.3923 13.9603V22.7861H35.7923V13.9603H35.3923ZM34.5537 13.1247C35.0174 13.1247 35.3923 13.4994 35.3923 13.9603H35.7923C35.7923 13.2773 35.2372 12.7247 34.5537 12.7247V13.1247ZM33.1289 13.2313C33.6041 13.1609 34.0803 13.1247 34.5537 13.1247V12.7247C34.06 12.7247 33.5642 12.7624 33.0703 12.8356L33.1289 13.2313ZM32.8996 11.1989V13.0334H33.2996V11.1989H32.8996ZM32.061 10.3634C32.5247 10.3634 32.8996 10.7381 32.8996 11.1989H33.2996C33.2996 10.516 32.7445 9.96344 32.061 9.96344V10.3634ZM29.2233 10.3634H32.061V9.96344H29.2233V10.3634ZM29.0233 5.88359V10.1634H29.4233V5.88359H29.0233ZM30.4975 5.88496C30.0848 5.79324 29.6655 5.72636 29.2429 5.68456L29.2036 6.08262C29.6104 6.12286 30.0138 6.18723 30.4107 6.27543L30.4975 5.88496ZM34.8545 7.97077C33.5832 6.95255 32.0779 6.23164 30.497 5.88484L30.4113 6.27555C31.9316 6.60906 33.3808 7.30292 34.6044 8.28298L34.8545 7.97077ZM34.8896 8.00041C34.88 7.99262 34.8707 7.98484 34.8621 7.97719L34.5968 8.27656C34.6104 8.2886 34.6242 8.30023 34.6379 8.31131L34.8896 8.00041ZM37.668 11.408C36.9869 10.0856 36.0518 8.93886 34.8894 8.00025L34.6381 8.31147C35.7574 9.21528 36.6569 10.3184 37.3124 11.5912L37.668 11.408ZM38.4528 11.8612C38.126 11.8761 37.8179 11.6988 37.668 11.4079L37.3125 11.5912C37.5344 12.0217 37.989 12.2828 38.471 12.2607L38.4528 11.8612ZM39.1922 11.3381C39.0699 11.6414 38.7811 11.846 38.4527 11.8612L38.4711 12.2607C38.9553 12.2384 39.3821 11.9366 39.5631 11.4877L39.1922 11.3381ZM42.4888 7.30377C40.993 8.34815 39.8211 9.77906 39.1922 11.3381L39.5631 11.4877C40.1604 10.0072 41.2796 8.63595 42.7178 7.63174L42.4888 7.30377ZM45.3095 5.95369C44.3175 6.2351 43.3688 6.68961 42.4888 7.30375L42.7177 7.63176C43.5628 7.04195 44.4713 6.60724 45.4186 6.3385L45.3095 5.95369ZM46.5063 5.70395C46.106 5.75748 45.7059 5.84095 45.3093 5.95372L45.4188 6.33847C45.7972 6.23085 46.1785 6.15135 46.5593 6.10042L46.5063 5.70395ZM46.7321 7.69588L46.7328 5.90226L46.3328 5.90211L46.3321 7.69572L46.7321 7.69588ZM46.733 7.73511C46.7324 7.72215 46.7321 7.70907 46.7321 7.69589L46.3321 7.69571C46.3321 7.71502 46.3325 7.73426 46.3334 7.75343L46.733 7.73511ZM3.28208 30.6159C3.28208 30.5971 3.28166 30.5784 3.28082 30.5598L2.88123 30.5778C2.88179 30.5904 2.88208 30.6031 2.88208 30.6159H3.28208ZM14.0864 49.5434C7.4069 45.8535 3.28208 38.2845 3.28208 30.6159H2.88208C2.88208 38.4175 7.07538 46.1274 13.893 49.8936L14.0864 49.5434ZM16.5486 48.5287C15.5124 48.5287 14.5668 48.9237 13.8552 49.5705L14.1242 49.8665C14.7653 49.2839 15.616 48.9287 16.5486 48.9287V48.5287ZM18.0095 48.8052C17.5389 48.6219 17.0471 48.5287 16.5486 48.5287V48.9287C16.9966 48.9287 17.4392 49.0123 17.8643 49.1779L18.0095 48.8052ZM22.1758 50.4279L18.0095 48.8052L17.8643 49.1779L22.0306 50.8006L22.1758 50.4279ZM24.0292 49.4586C23.1781 49.4586 22.4233 49.8665 21.9443 50.4928L22.2621 50.7358C22.6693 50.2032 23.309 49.8586 24.0292 49.8586V49.4586ZM25.6909 49.4586H24.0292V49.8586H25.6909V49.4586ZM27.7757 50.4928C27.2968 49.8665 26.5418 49.4586 25.6909 49.4586V49.8586C26.4109 49.8586 27.0508 50.2033 27.4579 50.7358L27.7757 50.4928ZM31.7106 48.8052L27.5442 50.4279L27.6894 50.8006L31.8557 49.1779L31.7106 48.8052ZM33.1714 48.5287C32.6728 48.5287 32.1812 48.6219 31.7106 48.8052L31.8557 49.1779C32.2808 49.0123 32.7233 48.9287 33.1714 48.9287V48.5287ZM35.865 49.5705C35.1534 48.9237 34.2076 48.5287 33.1714 48.5287V48.9287C34.1041 48.9287 34.9549 49.2839 35.596 49.8665L35.865 49.5705ZM46.438 31.2526C46.438 38.9144 42.3188 45.8503 35.6338 49.5434L35.8272 49.8936C42.639 46.1303 46.838 39.0607 46.838 31.2526H46.438ZM46.438 26.0477V31.2526H46.838V26.0477H46.438ZM43.5978 29.0648C44.75 28.2118 45.8276 27.2498 46.7868 26.1813L46.4891 25.9141C45.5496 26.9607 44.4924 27.9048 43.3598 28.7433L43.5978 29.0648ZM38.4848 31.9569C40.6111 31.0545 42.3008 30.025 43.5978 29.0648L43.3598 28.7433C42.0865 29.6859 40.4241 30.6993 38.3285 31.5887L38.4848 31.9569ZM38.2017 32.0742C38.3108 32.0448 38.4136 32.001 38.5084 31.9449L38.3048 31.6006C38.2406 31.6386 38.1712 31.6681 38.0976 31.688L38.2017 32.0742ZM25.6623 34.4926C30.9043 34.3977 35.0415 33.3796 38.2259 32.066L38.0734 31.6962C34.9357 32.9906 30.8478 33.9987 25.655 34.0927L25.6623 34.4926ZM24.86 34.5249C25.1345 34.5249 25.4055 34.5116 25.6732 34.4921L25.6441 34.0932C25.3825 34.1122 25.1218 34.1249 24.86 34.1249V34.5249ZM24.0547 34.4923C24.3192 34.5116 24.5875 34.5249 24.86 34.5249V34.1249C24.6003 34.1249 24.3423 34.1122 24.084 34.0933L24.0547 34.4923ZM11.4941 32.066C14.6802 33.3803 18.8199 34.3987 24.0658 34.4928L24.0729 34.0928C18.8763 33.9996 14.7859 32.9912 11.6466 31.6962L11.4941 32.066ZM11.2116 31.9449C11.3066 32.0011 11.4094 32.0447 11.5181 32.0741L11.6227 31.688C11.5487 31.668 11.4792 31.6385 11.4152 31.6006L11.2116 31.9449ZM6.12221 29.0648C7.41922 30.025 9.10895 31.0545 11.2353 31.9569L11.3915 31.5887C9.29597 30.6993 7.6335 29.6859 6.36021 28.7433L6.12221 29.0648ZM2.93327 26.1813C3.89255 27.2496 4.97014 28.2118 6.1222 29.0648L6.36022 28.7433C5.22774 27.9048 4.17055 26.9605 3.23089 25.9141L2.93327 26.1813ZM3.28208 30.5217V26.0477H2.88208V30.5217H3.28208ZM3.28082 30.5778C3.28166 30.5592 3.28208 30.5405 3.28208 30.5217H2.88208C2.88208 30.5345 2.88179 30.5472 2.88123 30.5598L3.28082 30.5778ZM41.3402 3.27102H44.0405V2.87102H41.3402V3.27102ZM37.5527 5.17166C38.4525 3.96336 39.8319 3.27102 41.3402 3.27102V2.87102C39.7056 2.87102 38.2072 3.62297 37.2319 4.93276L37.5527 5.17166ZM36.7308 6.98395C36.8716 6.3309 37.1495 5.71197 37.5526 5.17183L37.232 4.93259C36.794 5.51955 36.4924 6.19152 36.3398 6.89965L36.7308 6.98395ZM38.5034 8.81525C37.9687 8.07826 37.3546 7.40299 36.6682 6.79237L36.4023 7.09122C37.0677 7.68318 37.6623 8.3371 38.1796 9.05014L38.5034 8.81525ZM41.2973 5.60724C40.0419 6.48398 38.9718 7.59115 38.1736 8.824L38.5094 9.04139C39.2788 7.85296 40.3123 6.78302 41.5263 5.93518L41.2973 5.60724ZM43.9721 4.21268C43.0369 4.55326 42.1397 5.01937 41.2973 5.6072L41.5262 5.93523C42.3406 5.36696 43.2069 4.91705 44.1089 4.58853L43.9721 4.21268ZM43.8405 3.07102V4.40061H44.2405V3.07102H43.8405ZM35.4862 4.30071C34.8139 3.40751 33.7611 2.87102 32.6161 2.87102V3.27102C33.6343 3.27102 34.5693 3.7476 35.1666 4.54124L35.4862 4.30071ZM34.9478 5.68802C35.0933 5.28378 35.2775 4.89408 35.4982 4.52328L35.1545 4.31868C34.9208 4.71132 34.7257 5.12415 34.5714 5.55253L34.9478 5.68802ZM31.6596 4.45925C32.7086 4.76621 33.7192 5.21585 34.6549 5.79068L34.8643 5.44986C33.8986 4.85658 32.8554 4.39238 31.772 4.07535L31.6596 4.45925ZM31.5158 3.07102V4.2673H31.9158V3.07102H31.5158ZM32.6161 2.87102H31.7158V3.27102H32.6161V2.87102ZM24.0293 51.9299H25.691V51.5299H24.0293V51.9299ZM23.8831 52.0751C23.8831 51.9957 23.9482 51.9299 24.0293 51.9299V51.5299C23.7284 51.5299 23.4831 51.7737 23.4831 52.0751H23.8831ZM23.8831 54.6983V52.0751H23.4831V54.6983H23.8831ZM23.8831 54.8364V54.6983H23.4831V54.8364H23.8831ZM24.0293 54.9816C23.9482 54.9816 23.8831 54.9158 23.8831 54.8364H23.4831C23.4831 55.1377 23.7283 55.3816 24.0293 55.3816V54.9816ZM25.691 54.9816H24.0293V55.3816H25.691V54.9816ZM25.8373 54.8364C25.8373 54.9158 25.7721 54.9816 25.691 54.9816V55.3816C25.992 55.3816 26.2373 55.1377 26.2373 54.8364H25.8373ZM25.8373 54.6983V54.8364H26.2373V54.6983H25.8373ZM25.8373 52.0751V54.6983H26.2373V52.0751H25.8373ZM25.691 51.9299C25.7721 51.9299 25.8373 51.9958 25.8373 52.0751H26.2373C26.2373 51.7738 25.992 51.5299 25.691 51.5299V51.9299ZM14.6204 54.2643C14.6204 55.4599 15.6258 56.1929 16.5497 56.1929V55.7929C15.8103 55.7929 15.0204 55.2042 15.0204 54.2643H14.6204ZM14.6204 52.5286V54.2643H15.0204V52.5286H14.6204ZM14.9075 51.5135C14.7292 51.798 14.6204 52.14 14.6204 52.5286H15.0204C15.0204 52.2173 15.1069 51.9486 15.2465 51.7259L14.9075 51.5135ZM14.9202 51.4942C14.9188 51.4963 14.9175 51.4983 14.9166 51.4997C14.9155 51.5014 14.915 51.5023 14.9144 51.5032C14.9132 51.505 14.9133 51.5047 14.9141 51.5036L15.2398 51.7358C15.2443 51.7295 15.2481 51.7238 15.2504 51.7202C15.2541 51.7145 15.2533 51.7156 15.2552 51.7127L14.9202 51.4942ZM16.5486 50.6001C15.9298 50.6001 15.2852 50.9265 14.9195 51.4953L15.2559 51.7116C15.5459 51.2607 16.0619 51.0001 16.5486 51.0001V50.6001ZM17.2538 50.7347C17.0254 50.6458 16.788 50.6001 16.5486 50.6001V51.0001C16.7365 51.0001 16.9248 51.0359 17.1086 51.1074L17.2538 50.7347ZM21.6783 52.4581L17.2538 50.7347L17.1086 51.1074L21.5331 52.8308L21.6783 52.4581ZM21.8057 54.0116V52.6444H21.4057V54.0116H21.8057ZM17.3017 56.0389L21.6833 54.196L21.5282 53.8272L17.1466 55.6702L17.3017 56.0389ZM16.5497 56.1929C16.8061 56.1929 17.0595 56.1406 17.3015 56.039L17.1467 55.6702C16.9518 55.752 16.751 55.7929 16.5497 55.7929V56.1929ZM34.0921 65.729H15.6282V66.129H34.0921V65.729ZM28.9899 57.3182C30.2106 58.1269 31.3638 58.8932 32.2511 60.1464C33.1353 61.3951 33.7671 63.1461 33.8923 65.9379L34.2919 65.92C34.1643 63.0739 33.5175 61.2426 32.5776 59.9152C31.6409 58.5923 30.4246 57.7889 29.2109 56.9848L28.9899 57.3182ZM27.5809 56.3459C28.0485 56.6946 28.5242 57.0097 28.9899 57.3182L29.2109 56.9848C28.7438 56.6753 28.2772 56.3662 27.82 56.0252L27.5809 56.3459ZM25.691 57.4525C26.5957 57.4525 27.3945 56.9935 27.866 56.2978L27.5349 56.0734C27.1346 56.6641 26.4573 57.0525 25.691 57.0525V57.4525ZM24.0293 57.4525H25.691V57.0525H24.0293V57.4525ZM21.8543 56.2978C22.3258 56.9935 23.1246 57.4525 24.0293 57.4525V57.0525C23.263 57.0525 22.5858 56.6641 22.1854 56.0734L21.8543 56.2978ZM20.7311 57.3172C21.197 57.0088 21.6727 56.6941 22.1394 56.3459L21.9003 56.0253C21.444 56.3657 20.9777 56.6743 20.5103 56.9837L20.7311 57.3172ZM15.828 65.938C15.9536 63.144 16.5872 61.3912 17.4724 60.142C18.3606 58.8883 19.5138 58.1228 20.7311 57.3172L20.5103 56.9837C19.2998 57.7848 18.0836 58.5874 17.146 59.9108C16.2052 61.2386 15.5565 63.0717 15.4284 65.92L15.828 65.938ZM33.1705 56.1928C33.667 56.1928 34.1571 55.9918 34.5185 55.6425L34.2405 55.3549C33.9522 55.6336 33.5611 55.7928 33.1705 55.7928V56.1928ZM32.4184 56.0385C32.6607 56.1405 32.914 56.1928 33.1705 56.1928V55.7928C32.9692 55.7928 32.7686 55.7519 32.5735 55.6698L32.4184 56.0385ZM28.2201 54.2725L32.4184 56.0385L32.5735 55.6698L28.3752 53.9038L28.2201 54.2725ZM28.2104 54.2685L28.2206 54.2727L28.3747 53.9036L28.3646 53.8994L28.2104 54.2685ZM28.0368 54.1954L28.2099 54.2683L28.3651 53.8996L28.1919 53.8267L28.0368 54.1954ZM27.9143 52.6439V54.0111H28.3143V52.6439H27.9143ZM32.4663 50.7342L28.0417 52.4575L28.1869 52.8302L32.6114 51.1069L32.4663 50.7342ZM33.1714 50.5995C32.932 50.5995 32.6947 50.6452 32.4663 50.7342L32.6114 51.1069C32.7952 51.0353 32.9835 50.9995 33.1714 50.9995V50.5995ZM34.8026 51.4978C34.4371 50.9272 33.7913 50.5995 33.1714 50.5995V50.9995C33.659 50.9995 34.176 51.2611 34.4657 51.7135L34.8026 51.4978ZM34.8042 51.5004C34.8056 51.5023 34.8063 51.5035 34.8055 51.5022C34.805 51.5014 34.8048 51.5011 34.8038 51.4995C34.8029 51.4983 34.8018 51.4965 34.8004 51.4944L34.4679 51.7168C34.4679 51.7168 34.4679 51.7169 34.4681 51.7171C34.4682 51.7172 34.4684 51.7175 34.4686 51.7179C34.4689 51.7184 34.4701 51.7201 34.4709 51.7214C34.4728 51.7243 34.4763 51.7295 34.4806 51.7355L34.8042 51.5004ZM35.0998 52.5281C35.0998 52.1386 34.9905 51.7964 34.8118 51.5116L34.473 51.7242C34.6129 51.9473 34.6998 52.2162 34.6998 52.5281H35.0998ZM35.0998 54.2641V52.5281H34.6998V54.2641H35.0998ZM34.5185 55.6425C34.8935 55.2799 35.0999 54.7894 35.0998 54.2641L34.6998 54.2642C34.6999 54.6822 34.5366 55.0686 34.2405 55.3549L34.5185 55.6425ZM45.5308 21.9229C45.8784 22.3578 46.1329 22.7252 46.3027 22.9888L46.639 22.7722C46.4623 22.4979 46.1999 22.1194 45.8432 21.6732L45.5308 21.9229ZM45.7767 21.9946L45.8327 21.9351L45.5413 21.661L45.4854 21.7205L45.7767 21.9946ZM45.6089 22.1694C45.6676 22.1109 45.7236 22.0512 45.7769 21.9944L45.4852 21.7207C45.4311 21.7783 45.3797 21.8331 45.3265 21.8861L45.6089 22.1694ZM38.9358 25.311C41.4568 25.0714 43.7958 23.9772 45.6089 22.1694L45.3265 21.8861C43.579 23.6284 41.3265 24.682 38.898 24.9128L38.9358 25.311ZM39.1169 29.2568V25.1119H38.7169V29.2568H39.1169ZM39.5848 28.6836C39.3357 28.8199 39.0828 28.9505 38.8276 29.0778L39.0062 29.4357C39.2646 29.3068 39.5222 29.1738 39.7768 29.0345L39.5848 28.6836ZM43.4925 25.9595C42.302 27.014 40.9831 27.919 39.5849 28.6836L39.7768 29.0345C41.1985 28.2571 42.5425 27.3353 43.7578 26.2589L43.4925 25.9595ZM46.3028 22.772C45.5369 23.9585 44.5558 25.0177 43.4925 25.9595L43.7578 26.2589C44.84 25.3003 45.848 24.2141 46.6388 22.9889L46.3028 22.772ZM32.3083 31.0495C32.1865 31.1711 32.0615 31.2896 31.9336 31.4054L32.2021 31.7019C32.3344 31.582 32.4642 31.4591 32.5909 31.3326L32.3083 31.0495ZM35.3155 24.8769C35.0394 27.2063 33.9981 29.3633 32.3083 31.0495L32.5908 31.3326C34.3443 29.583 35.426 27.3429 35.7127 24.924L35.3155 24.8769ZM36.8588 24.9115C36.4198 24.8695 35.9856 24.8013 35.5579 24.7053L35.4703 25.0956C35.915 25.1954 36.3658 25.2662 36.8206 25.3097L36.8588 24.9115ZM37.0397 30.1756V25.1106H36.6397V30.1756H37.0397ZM36.5102 30.5149C36.6447 30.465 36.7787 30.4141 36.9123 30.362L36.7671 29.9893C36.6355 30.0406 36.5035 30.0908 36.3711 30.1399L36.5102 30.5149ZM32.1069 31.7498C33.6027 31.4514 35.078 31.0456 36.5101 30.5149L36.3712 30.1399C34.9606 30.6625 33.5058 31.0628 32.0287 31.3575L32.1069 31.7498ZM28.3222 12.4345H31.0225V12.0345H28.3222V12.4345ZM24.5347 14.3351C25.4343 13.1268 26.8137 12.4345 28.3222 12.4345V12.0345C26.6875 12.0345 25.1891 12.7864 24.2139 14.0962L24.5347 14.3351ZM23.7128 16.1474C23.8536 15.4943 24.1315 14.8754 24.5346 14.3353L24.214 14.096C23.776 14.683 23.4744 15.355 23.3218 16.0631L23.7128 16.1474ZM25.4854 17.9788C24.9507 17.2418 24.3366 16.5664 23.6502 15.9558L23.3843 16.2547C24.0497 16.8466 24.6443 17.5007 25.1616 18.2137L25.4854 17.9788ZM28.2793 14.7707C27.0237 15.6474 25.9538 16.7546 25.1556 17.9876L25.4914 18.205C26.2608 17.0164 27.2942 15.9465 28.5083 15.0986L28.2793 14.7707ZM30.954 13.3761C30.0188 13.7168 29.1216 14.1829 28.2793 14.7706L28.5082 15.0987C29.3225 14.5305 30.1887 14.0806 31.091 13.752L30.954 13.3761ZM30.8225 12.2345V13.564H31.2225V12.2345H30.8225ZM21.9298 14.8513C22.0753 14.4471 22.2595 14.0574 22.4802 13.6866L22.1365 13.482C21.9028 13.8746 21.7077 14.2875 21.5534 14.7158L21.9298 14.8513ZM18.6417 13.6227C19.6906 13.9295 20.7012 14.3791 21.6369 14.954L21.8463 14.6132C20.8806 14.0199 19.8373 13.5557 18.754 13.2388L18.6417 13.6227ZM18.4978 12.2345V13.4307H18.8978V12.2345H18.4978ZM19.5979 12.0345H18.6978V12.4345H19.5979V12.0345ZM22.4682 13.464C21.7959 12.5708 20.7431 12.0345 19.5979 12.0345V12.4345C20.6164 12.4345 21.5513 12.9109 22.1486 13.7045L22.4682 13.464ZM15.3041 3.27102H18.0044V2.87102H15.3041V3.27102ZM11.5166 5.17165C12.4162 3.96336 13.7956 3.27102 15.3041 3.27102V2.87102C13.6693 2.87102 12.1709 3.62297 11.1958 4.93277L11.5166 5.17165ZM10.6945 6.98395C10.8353 6.33093 11.1134 5.71199 11.5165 5.17182L11.1959 4.93259C10.7579 5.51954 10.4562 6.1915 10.3035 6.89965L10.6945 6.98395ZM12.4671 8.81525C11.9324 8.07828 11.3185 7.40286 10.6319 6.79234L10.3661 7.09125C11.0316 7.68303 11.626 8.33707 12.1434 9.05014L12.4671 8.81525ZM15.2611 5.60723C14.0057 6.48384 12.9357 7.59115 12.1374 8.82399L12.4731 9.0414C13.2427 7.85295 14.2762 6.78288 15.4901 5.93519L15.2611 5.60723ZM17.9359 4.21268C17.0008 4.55326 16.1036 5.01937 15.2612 5.60719L15.4901 5.93523C16.3045 5.36696 17.1707 4.91705 18.0728 4.58853L17.9359 4.21268ZM17.8044 3.07102V4.40061H18.2044V3.07102H17.8044ZM9.44988 4.30056C8.77766 3.40751 7.72479 2.87102 6.57978 2.87102V3.27102C7.59807 3.27102 8.533 3.74761 9.1303 4.54112L9.44988 4.30056ZM8.91152 5.68788C9.05705 5.28364 9.24123 4.89394 9.46195 4.52314L9.11823 4.31854C8.88451 4.71118 8.68939 5.12401 8.53517 5.55239L8.91152 5.68788ZM5.62337 4.45912C6.67232 4.76608 7.68297 5.21571 8.61865 5.79055L8.82803 5.44973C7.86232 4.85644 6.81907 4.39224 5.73571 4.07522L5.62337 4.45912ZM5.47954 3.07088V4.26717H5.87954V3.07088H5.47954ZM6.57978 2.87088H5.67954V3.27088H6.57978V2.87088ZM6.77978 3.07102V3.07088H6.37978V3.07102H6.77978ZM4.37512 6.27555C5.89548 6.60907 7.3448 7.30292 8.56814 8.28283L8.81821 7.97064C7.54721 6.95255 6.04173 6.23164 4.46082 5.88484L4.37512 6.27555ZM3.16743 6.08262C3.57421 6.12286 3.97768 6.18723 4.37458 6.27543L4.46136 5.88496C4.04867 5.79324 3.62937 5.72636 3.20681 5.68456L3.16743 6.08262ZM3.38712 14.4615V5.88359H2.98712V14.4615H3.38712ZM11.842 22.8906C7.17949 22.8906 3.38712 19.1085 3.38712 14.4615H2.98712C2.98712 19.3306 6.9597 23.2906 11.842 23.2906V22.8906ZM14.0755 22.5933C13.3518 22.7904 12.6035 22.8906 11.842 22.8906V23.2906C12.6388 23.2906 13.4225 23.1857 14.1806 22.9792L14.0755 22.5933ZM13.9281 22.2961V22.7863H14.3281V22.2961H13.9281ZM15.1667 23.1316C14.703 23.1316 14.3281 22.7569 14.3281 22.2961H13.9281C13.9281 22.979 14.4832 23.5316 15.1667 23.5316V23.1316ZM16.0053 22.2961C16.0053 22.7569 15.6304 23.1316 15.1667 23.1316V23.5316C15.8502 23.5316 16.4053 22.979 16.4053 22.2961H16.0053ZM16.4053 23.4149V22.2961H16.0053V23.4149H16.4053ZM16.4048 23.6801C16.4157 23.585 16.4157 23.488 16.4038 23.3905L16.0068 23.4393C16.0148 23.5048 16.0148 23.57 16.0074 23.6343L16.4048 23.6801ZM24.1698 32.0234C19.8397 31.6726 16.4226 28.0571 16.4061 23.6564L16.0061 23.6579C16.0233 28.2692 19.6032 32.0548 24.1375 32.4221L24.1698 32.0234ZM24.8602 32.0294C24.6234 32.0294 24.3898 32.0266 24.157 32.0228L24.1504 32.4227C24.3843 32.4265 24.6203 32.4294 24.8602 32.4294V32.0294ZM25.5675 32.023C25.3336 32.027 25.0984 32.0294 24.8602 32.0294V32.4294C25.1011 32.4294 25.3386 32.427 25.5743 32.423L25.5675 32.023ZM30.8392 29.5852C29.4071 31.013 27.5518 31.8628 25.5548 32.0237L25.5869 32.4224C27.678 32.254 29.6222 31.3634 31.1216 29.8684L30.8392 29.5852ZM33.3151 23.6246C33.3151 25.8755 32.436 27.9919 30.8391 29.5852L31.1217 29.8684C32.7936 28.2002 33.7151 25.982 33.7151 23.6246H33.3151ZM33.3151 23.5982V23.6246H33.7151V23.5982H33.3151ZM33.3154 23.4754C33.3129 23.5202 33.3129 23.5649 33.3154 23.6093L33.7147 23.5872C33.7131 23.5575 33.7131 23.5276 33.7148 23.4974L33.3154 23.4754ZM33.3151 15.0652V23.4864H33.7151V15.0652H33.3151ZM32.4007 15.5016C32.7792 15.3939 33.1606 15.3145 33.5416 15.2634L33.4885 14.867C33.0882 14.9206 32.688 15.004 32.2912 15.1169L32.4007 15.5016ZM29.6996 16.7949C30.5446 16.2053 31.4531 15.7705 32.4005 15.5017L32.2913 15.1169C31.2992 15.3984 30.3505 15.8529 29.4707 16.4669L29.6996 16.7949ZM26.545 20.6509C27.1421 19.1705 28.2614 17.7993 29.6996 16.7949L29.4706 16.4669C27.9749 17.5115 26.8028 18.9423 26.174 20.5013L26.545 20.6509ZM25.453 21.4239C25.9371 21.4016 26.364 21.0998 26.545 20.6509L26.174 20.5013C26.0517 20.8046 25.763 21.0092 25.4346 21.0243L25.453 21.4239ZM24.2943 20.7543C24.516 21.1846 24.9712 21.4472 25.4534 21.4239L25.4341 21.0244C25.1086 21.0401 24.7998 20.8622 24.6499 20.5712L24.2943 20.7543ZM21.62 17.4746C22.7393 18.3784 23.6387 19.4816 24.2943 20.7543L24.6499 20.5712C23.9687 19.2487 23.0337 18.102 21.8712 17.1634L21.62 17.4746ZM21.5797 17.4405C21.5922 17.4515 21.6053 17.4626 21.6189 17.4738L21.8723 17.1643C21.8628 17.1565 21.8532 17.1483 21.8432 17.1396L21.5797 17.4405ZM17.3931 15.4387C18.9137 15.7724 20.3629 16.4662 21.5864 17.4461L21.8365 17.1339C20.5653 16.1158 19.06 15.3949 17.4788 15.048L17.3931 15.4387ZM16.1856 15.2458C16.5924 15.286 16.9958 15.3504 17.3926 15.4386L17.4794 15.0481C17.0668 14.9564 16.6475 14.8895 16.2249 14.8477L16.1856 15.2458ZM16.4053 22.127V15.0468H16.0053V22.127H16.4053ZM15.1667 21.2915C15.6304 21.2915 16.0053 21.6661 16.0053 22.127H16.4053C16.4053 21.4441 15.8502 20.8915 15.1667 20.8915V21.2915ZM14.3281 22.127C14.3281 21.6661 14.703 21.2915 15.1667 21.2915V20.8915C14.4832 20.8915 13.9281 21.4441 13.9281 22.127H14.3281ZM13.9281 13.9601V22.127H14.3281V13.9601H13.9281ZM15.1667 12.7246C14.4832 12.7246 13.9281 13.2772 13.9281 13.9601H14.3281C14.3281 13.4992 14.703 13.1246 15.1667 13.1246V12.7246ZM16.6438 12.8107C16.1549 12.7541 15.6614 12.7246 15.1667 12.7246V13.1246C15.6455 13.1246 16.1237 13.1531 16.5977 13.208L16.6438 12.8107ZM16.4208 11.1988V13.0094H16.8208V11.1988H16.4208ZM17.6594 9.9633C16.9759 9.9633 16.4208 10.5159 16.4208 11.1988H16.8208C16.8208 10.7379 17.1956 10.3633 17.6594 10.3633V9.9633ZM19.5981 9.9633H17.6594V10.3633H19.5981V9.9633ZM20.5295 10.0421C20.226 9.99216 19.9152 9.9633 19.5981 9.9633V10.3633C19.8909 10.3633 20.1798 10.3899 20.4646 10.4368L20.5295 10.0421ZM20.2971 5.90205V10.2395H20.6971V5.90205H20.2971ZM19.3827 6.33845C19.7612 6.23072 20.1426 6.15135 20.5236 6.10028L20.4705 5.70382C20.0702 5.75748 19.67 5.8408 19.2732 5.95373L19.3827 6.33845ZM16.6816 7.63176C17.5267 7.04196 18.4352 6.60738 19.3825 6.33849L19.2733 5.95369C18.2814 6.23524 17.3326 6.6896 16.4527 7.30375L16.6816 7.63176ZM13.527 11.4877C14.1242 10.0072 15.2434 8.63595 16.6816 7.63174L16.4526 7.30377C14.9569 8.34815 13.785 9.77906 13.156 11.3381L13.527 11.4877ZM12.435 12.2607C12.9191 12.2384 13.346 11.9366 13.527 11.4877L13.156 11.3381C13.0337 11.6414 12.745 11.846 12.4166 11.8612L12.435 12.2607ZM11.2763 11.5912C11.4982 12.0219 11.9539 12.2828 12.4349 12.2607L12.4166 11.8612C12.0907 11.8761 11.7816 11.6987 11.6319 11.408L11.2763 11.5912ZM8.60195 8.31147C9.7213 9.21528 10.6207 10.3184 11.2763 11.5912L11.6319 11.408C10.9507 10.0856 10.0157 8.93886 8.85324 8.00025L8.60195 8.31147ZM8.56144 8.27722C8.57456 8.28871 8.58773 8.2998 8.60068 8.31043L8.85451 8.00129C8.84415 7.99278 8.83427 7.98445 8.82491 7.97625L8.56144 8.27722ZM3.08205 22.9883C4.13035 24.6116 5.54241 26.0086 7.06102 27.1752L7.3047 26.858C5.81173 25.7111 4.43518 24.3463 3.41807 22.7713L3.08205 22.9883ZM3.88046 21.669C3.52251 22.1163 3.25922 22.496 3.08188 22.7715L3.41824 22.988C3.58865 22.7233 3.84398 22.3548 4.19278 21.9189L3.88046 21.669ZM10.8226 24.9117C8.21571 24.6608 5.88508 23.4577 4.18194 21.6566L3.8913 21.9314C5.65829 23.8 8.07746 25.0494 10.7843 25.3098L10.8226 24.9117ZM11.0034 29.2613V25.1108H10.6034V29.2613H11.0034ZM7.46444 27.4787C8.34479 28.1221 9.42246 28.7998 10.7146 29.4405L10.8923 29.0821C9.62148 28.452 8.56326 27.7864 7.70046 27.1558L7.46444 27.4787ZM7.06083 27.1751C7.19195 27.276 7.32571 27.3771 7.46426 27.4786L7.70064 27.1559C7.5652 27.0567 7.43404 26.9576 7.30489 26.8582L7.06083 27.1751ZM13.0806 30.1739V25.1108H12.6806V30.1739H13.0806ZM17.6988 31.3561C15.9131 30.9994 14.3371 30.524 12.9529 29.9874L12.8083 30.3603C14.2138 30.9052 15.812 31.3871 17.6204 31.7484L17.6988 31.3561ZM14.0083 24.9244C14.3287 27.5991 15.6214 29.9797 17.5255 31.7006L17.7937 31.4039C15.9587 29.7454 14.714 27.4522 14.4055 24.8768L14.0083 24.9244ZM12.8997 25.3099C13.3548 25.2663 13.8059 25.1956 14.2507 25.0958L14.1631 24.7055C13.7353 24.8015 13.3008 24.8696 12.8616 24.9117L12.8997 25.3099Z" fill="white"/>
</svg>
