<svg width="47" height="67" viewBox="0 0 47 67" fill="none" xmlns="http://www.w3.org/2000/svg">
<path fill-rule="evenodd" clip-rule="evenodd" d="M41.3315 18.5379C44.0782 19.6124 45.9627 22.5429 46.2099 22.9429C46.4702 23.364 46.4702 23.8956 46.2101 24.3168C45.9544 24.7307 43.9462 27.8534 41.0435 28.8266C42.4702 31.0431 42.5255 34.0127 42.5257 34.4343C42.5258 34.929 42.2463 35.3815 41.8035 35.6038C41.4623 35.7751 39.2363 36.844 36.8723 36.844C36.6264 36.844 36.3791 36.8319 36.1323 36.8066C36.292 39.4302 34.8985 42.0417 34.6937 42.4094C34.4617 42.8257 34.0223 43.082 33.5478 43.082C33.5296 43.082 33.5112 43.0817 33.4927 43.0809C33.0777 43.0635 30.1983 42.8911 28.0486 41.4459C27.2857 43.3883 25.5902 44.8971 24.5232 45.6999V48.1099C24.662 47.9475 24.8005 47.7978 24.9369 47.6607C28.6848 43.8943 35.2547 44.6266 35.5324 44.6597C36.1346 44.7313 36.6091 45.2055 36.6798 45.8065C36.7123 46.0832 37.4334 52.6239 33.6754 56.3741C31.0011 59.0427 26.9102 59.448 24.6734 59.448L24.623 59.4479L24.5232 59.4473V64.936C24.5232 65.6587 23.9361 66.2446 23.2119 66.2446C22.4876 66.2446 21.9005 65.6587 21.9005 64.936V59.4473C21.8512 59.4477 21.8013 59.448 21.7502 59.448C19.5135 59.448 15.4228 59.0431 12.7482 56.3741C8.99003 52.6241 9.71129 46.0833 9.74381 45.8067C9.8145 45.2055 10.2892 44.7311 10.8917 44.6598C11.1696 44.6267 17.7351 43.8982 21.4857 47.6599C21.6225 47.797 21.7612 47.9467 21.9002 48.1094V46.0813C20.9463 45.4331 18.566 43.6177 17.7379 41.1584C15.5167 42.5822 12.5407 42.6373 12.1182 42.6374H12.1178C11.6221 42.6374 11.1689 42.3587 10.9462 41.9167C10.7567 41.5408 9.47301 38.873 9.74237 36.2579C9.60009 36.2665 9.45793 36.2721 9.31604 36.2721C6.83595 36.2721 4.4748 35.0155 4.12611 34.8219C3.69283 34.5816 3.43252 34.1178 3.45324 33.6235C3.47055 33.2095 3.64326 30.3362 5.09155 28.1912C2.34485 27.1167 0.460396 24.1862 0.2132 23.7862C-0.0469782 23.3651 -0.0469782 22.8335 0.2132 22.4124C0.46892 21.9985 2.47717 18.8758 5.37979 17.9026C3.95314 15.6861 3.8978 12.7165 3.89766 12.2949C3.89753 11.8001 4.17699 11.3476 4.61984 11.1253C4.99674 10.9362 7.67052 9.6552 10.2912 9.92411C10.1308 7.29999 11.5247 4.68751 11.7296 4.31967C11.9707 3.88744 12.4342 3.62637 12.9307 3.64823C13.3416 3.6655 16.1679 3.83405 18.3102 5.23961C19.3269 2.40323 22.3797 0.446623 22.7891 0.194719C23.2111 -0.0649062 23.7438 -0.0649062 24.1658 0.194719C24.5892 0.45526 27.8407 2.53959 28.7418 5.53483C30.9568 4.14615 33.886 4.09197 34.3054 4.09184C34.8009 4.09184 35.2543 4.37057 35.477 4.81248C35.6665 5.18844 36.9503 7.8564 36.6808 10.4716C39.3104 10.3117 41.9286 11.7026 42.2971 11.9072C42.7304 12.1475 42.9907 12.6113 42.97 13.1056C42.9525 13.5196 42.7798 16.3929 41.3315 18.5379ZM12.2946 47.2006C12.2747 48.9626 12.5245 52.4496 14.6028 54.5235C16.6631 56.5795 20.1159 56.8418 21.8964 56.8271C21.9015 52.6908 20.6865 50.5689 19.6265 49.5057C17.5446 47.4177 14.0593 47.1764 12.2946 47.2006ZM26.7977 49.5049C28.8673 47.425 32.3637 47.1799 34.1316 47.2029C34.155 48.9626 33.9091 52.4394 31.8206 54.5235C29.7597 56.5798 26.3071 56.8414 24.5269 56.8271C24.5225 52.6942 25.7375 50.5702 26.7977 49.5049ZM24.6832 34.6547C24.7012 34.6523 24.7192 34.6495 24.7371 34.6471C24.8997 34.6257 25.0617 34.6007 25.2229 34.5721C25.7628 34.4759 26.2894 34.3412 26.8003 34.1718C26.9119 34.1351 27.0227 34.0966 27.1328 34.0565C27.2135 34.027 27.2938 33.9963 27.3738 33.9649C27.397 33.9559 27.42 33.9465 27.4429 33.9371L27.4432 33.937L27.4851 33.9199C30.3624 32.7558 32.6596 30.4533 33.8118 27.5748C33.8221 27.5486 33.8326 27.5225 33.8429 27.4962C34.0674 26.9231 34.2464 26.3275 34.3759 25.7139C34.3845 25.6728 34.393 25.6317 34.4011 25.5906C34.4111 25.5405 34.4208 25.4904 34.4301 25.4401C34.4399 25.3869 34.4494 25.3335 34.4584 25.2799L34.4668 25.2309C34.4709 25.2067 34.4749 25.1824 34.4787 25.1581C34.4888 25.0944 34.4982 25.0305 34.5072 24.9667L34.5119 24.9341C34.515 24.9124 34.5181 24.8906 34.521 24.8689C34.5305 24.7972 34.5391 24.7255 34.5472 24.6536L34.5508 24.6221L34.5564 24.5734C34.5645 24.4966 34.5716 24.4197 34.5781 24.3427C34.5801 24.3197 34.5825 24.2968 34.5843 24.2738C34.5906 24.1946 34.5956 24.1154 34.6003 24.0361C34.6016 24.0144 34.6033 23.9927 34.6045 23.9708C34.6088 23.8901 34.6117 23.8092 34.6143 23.7283L34.6154 23.7012L34.6163 23.6788L34.6167 23.6671C34.6193 23.5662 34.6208 23.4653 34.6208 23.3644C34.6208 23.2069 34.6167 23.0492 34.6101 22.8916L34.6091 22.8615L34.6078 22.8292C34.6007 22.6794 34.5905 22.5297 34.5776 22.3804L34.5704 22.2992C34.5569 22.1546 34.5408 22.0105 34.5219 21.8669L34.5168 21.8294L34.5081 21.7686C34.4892 21.6337 34.4683 21.4991 34.4445 21.3654C34.3483 20.825 34.2131 20.2977 34.043 19.7862C34.0056 19.6734 33.9667 19.5613 33.9259 19.45C33.8966 19.3707 33.8665 19.2919 33.8355 19.2134C33.8249 19.1865 33.814 19.1598 33.803 19.1331L33.7846 19.0882C32.6171 16.2243 30.3141 13.9378 27.4357 12.789L27.3884 12.7702L27.3474 12.7542C26.7254 12.512 26.0771 12.323 25.408 12.1923C25.2953 12.1703 25.1821 12.1498 25.0684 12.1313L25.0283 12.1246C25.0057 12.1208 24.9832 12.1171 24.9606 12.1135C24.8127 12.0909 24.6641 12.0714 24.515 12.0545C24.4922 12.0519 24.4695 12.0491 24.4467 12.0467C24.2876 12.0298 24.128 12.0158 23.968 12.0054L23.9329 12.0032C23.2433 11.9605 22.5471 11.9791 21.8581 12.0603L21.8391 12.0625C21.6779 12.0817 21.5172 12.1049 21.3569 12.1311C20.7632 12.2283 20.1849 12.3712 19.6257 12.5563C19.5127 12.5936 19.4003 12.6325 19.2889 12.6732C19.2094 12.7024 19.1304 12.7325 19.0518 12.7634C19.0247 12.774 18.9979 12.7849 18.9711 12.7959L18.9263 12.8141C16.0546 13.9798 13.7623 16.28 12.6117 19.1544C12.6012 19.1806 12.5907 19.2068 12.5805 19.2331C12.3562 19.8056 12.1772 20.4006 12.0478 21.0137C12.0389 21.0559 12.0302 21.0981 12.0218 21.1405C12.012 21.1895 12.0025 21.2387 11.9934 21.2879C11.9834 21.342 11.9738 21.3963 11.9646 21.4506C11.9578 21.4904 11.951 21.5303 11.9447 21.5703C11.9345 21.6345 11.925 21.6988 11.916 21.7632L11.9129 21.7845C11.9093 21.8095 11.9057 21.8346 11.9024 21.8597C11.8929 21.9315 11.8843 22.0036 11.8761 22.0756L11.8723 22.1082L11.8669 22.1554C11.8588 22.2322 11.8517 22.3092 11.8452 22.3861L11.8425 22.4158L11.8408 22.4347L11.839 22.4552C11.8327 22.5342 11.8277 22.6133 11.823 22.6925L11.8202 22.7346L11.8188 22.7581C11.8145 22.8388 11.8116 22.9195 11.809 23.0002C11.8085 23.0143 11.8078 23.0282 11.8073 23.0422L11.8066 23.0617C11.804 23.1626 11.8026 23.2635 11.8026 23.3644C11.8026 23.522 11.8068 23.6795 11.8132 23.8371C11.814 23.858 11.8146 23.8788 11.8155 23.8996C11.8225 24.0493 11.8327 24.1989 11.8456 24.3482L11.8529 24.4299C11.8663 24.5742 11.8824 24.7183 11.9013 24.8617C11.9046 24.8872 11.9083 24.9124 11.9119 24.9378L11.9152 24.9608C11.9341 25.0952 11.9549 25.229 11.9785 25.3622C12.0749 25.9035 12.2103 26.4314 12.3806 26.9436C12.418 27.056 12.4567 27.1676 12.4973 27.2784C12.5267 27.3581 12.557 27.4373 12.5881 27.5161C12.5984 27.5422 12.609 27.5681 12.6196 27.594L12.6373 27.6371C13.805 30.5044 16.1107 32.7932 18.9925 33.9419L18.9936 33.9424L19.0139 33.9504C19.033 33.958 19.0521 33.9656 19.0713 33.9731C19.6319 34.1917 20.214 34.3668 20.8135 34.4953C20.9725 34.5293 21.1325 34.5604 21.2932 34.5874L21.3298 34.5936L21.3458 34.5962C21.5214 34.6249 21.6977 34.6501 21.8748 34.6707L21.8828 34.6716C22.6297 34.7578 23.3868 34.7712 24.1353 34.7118L24.1432 34.7111C24.3238 34.6966 24.5038 34.6776 24.6832 34.6547ZM40.2635 13.8303C40.0639 15.1687 39.4937 17.2804 38.2027 18.0022C37.6415 18.3159 36.9361 18.3635 36.301 18.3112C35.8226 17.0749 35.1742 15.9213 34.3645 14.8663C34.6515 14.298 35.061 13.7211 35.6228 13.4071C36.919 12.6824 39.0001 13.291 40.2635 13.8303ZM33.6974 11.4044C34.4738 10.1472 33.943 8.02534 33.4652 6.75902C32.0984 6.90087 29.9833 7.37903 29.2038 8.64117C28.9102 9.11671 28.7796 9.74785 28.8137 10.5231C30.0309 11.0515 31.1595 11.7466 32.1833 12.5986C32.7645 12.3361 33.3593 11.9518 33.6974 11.4044ZM23.4774 2.90154C24.6465 3.79034 26.3521 5.43904 26.3521 7.06196C26.3521 7.94709 25.8336 8.82306 25.2713 9.51269L25.2447 9.50912L25.2218 9.50632L25.2218 9.50631L25.2024 9.50394L25.1821 9.50131C25.0667 9.48508 24.9509 9.47029 24.8346 9.45681L24.7997 9.45275C24.7717 9.44946 24.7436 9.44617 24.7155 9.4432C24.5644 9.42711 24.4127 9.41298 24.2602 9.40172C24.2486 9.40085 24.237 9.40018 24.2254 9.39951L24.1976 9.3978C24.0633 9.38838 23.9284 9.38118 23.7931 9.37568L23.7694 9.37473C23.7378 9.37345 23.7062 9.37217 23.6746 9.37123C23.5208 9.36626 23.3666 9.36286 23.2115 9.36286C23.0833 9.36286 22.9557 9.36482 22.8284 9.36822C22.8147 9.36858 22.801 9.36917 22.7873 9.36975L22.7526 9.3711C22.648 9.3745 22.5434 9.37869 22.4393 9.38432L22.4038 9.38654L22.3682 9.38877C22.2618 9.39505 22.1555 9.40238 22.0498 9.41114L22.0104 9.41465L21.9828 9.41716C21.8758 9.42646 21.7691 9.43692 21.6626 9.44857L21.6512 9.44969L21.65 9.44979C21.6446 9.45029 21.6391 9.45078 21.6336 9.45145C21.097 8.77909 20.6026 7.92524 20.6026 7.06235C20.6029 5.43878 22.3094 3.78943 23.4774 2.90154ZM17.8379 8.40536C17.1117 7.11181 15.0185 6.54637 13.6575 6.34799C13.117 7.60856 12.5066 9.68608 13.2331 10.9799C13.5479 11.5405 14.1258 11.949 14.6953 12.2354C15.7524 11.4276 16.9087 10.7803 18.1476 10.303C18.2 9.66959 18.1523 8.96531 17.8379 8.40536ZM11.2262 12.9009C11.7748 13.2381 12.1599 13.8317 12.423 14.4117C11.5695 15.4329 10.8732 16.5584 10.3436 17.7724C9.70696 17.7983 9.00459 17.7215 8.45708 17.3849C7.19186 16.6068 6.71281 14.4954 6.57079 13.1316C7.8566 12.6447 9.96111 12.1232 11.2262 12.9009ZM7.09521 20.2306C5.47591 20.2306 3.80705 21.9534 2.92658 23.1001C3.81662 24.2658 5.46896 25.9677 7.09521 25.9677C7.8827 25.9677 8.66192 25.555 9.28627 25.0944L9.28429 25.0772L9.28172 25.0527C9.2805 25.0408 9.27927 25.0288 9.27788 25.0169C9.26595 24.9156 9.2548 24.8141 9.24496 24.7121C9.24103 24.671 9.23749 24.6301 9.23395 24.589C9.22569 24.4941 9.21834 24.3989 9.21192 24.3035C9.20903 24.2611 9.20628 24.2187 9.20379 24.1761C9.19828 24.0785 9.19382 23.9806 9.19028 23.8825L9.18842 23.835C9.18749 23.8128 9.18656 23.7905 9.18595 23.7681C9.18215 23.634 9.17979 23.4995 9.17979 23.3644C9.17979 23.1972 9.18372 23.0309 9.18962 22.8651C9.1908 22.8306 9.19211 22.7961 9.19356 22.7617C9.20077 22.593 9.21034 22.425 9.22346 22.258L9.22424 22.2498C9.23788 22.0791 9.25506 21.9095 9.27473 21.7406L9.27745 21.7166L9.28168 21.6799C9.30227 21.5091 9.32574 21.3392 9.3525 21.1704L9.3546 21.1549C8.71136 20.6678 7.90748 20.2306 7.09521 20.2306ZM6.15888 32.8982C6.35769 31.5402 6.92434 29.4513 8.22064 28.7268C8.78178 28.413 9.48718 28.3655 10.1224 28.4178C10.6008 29.654 11.2494 30.8078 12.0589 31.8627C11.772 32.431 11.3625 33.0077 10.8007 33.3218C9.50422 34.0467 7.42214 33.4377 6.15888 32.8982ZM12.7258 35.3246C11.9494 36.5817 12.4801 38.7036 12.958 39.9699C14.3247 39.8281 16.4397 39.3501 17.2192 38.0877C17.513 37.6121 17.6436 36.9811 17.6095 36.2059C16.3923 35.6775 15.2638 34.9824 14.2399 34.1303C13.6587 34.3927 13.0638 34.7772 12.7258 35.3246ZM22.9458 43.6069C21.7767 42.7181 20.0711 41.0694 20.0711 39.4466C20.0711 38.6361 20.5094 37.8339 20.9973 37.1921L21.0058 37.1932L21.0142 37.1944C21.1692 37.2188 21.3249 37.2407 21.4815 37.2601L21.4953 37.2617L21.5025 37.2625C21.6493 37.2804 21.797 37.2956 21.9453 37.3089L21.9649 37.3107L22.0076 37.3144C22.317 37.3409 22.6292 37.3572 22.9439 37.3631C22.9661 37.3635 22.9883 37.3636 23.0104 37.3639L23.0739 37.3649C23.1197 37.3657 23.1655 37.3665 23.2115 37.3665C23.2807 37.3665 23.3497 37.3649 23.4187 37.3639L23.449 37.3635C23.4624 37.3634 23.4759 37.3633 23.4893 37.363C23.7973 37.3569 24.1026 37.3409 24.4053 37.3152L24.4577 37.3106L24.5078 37.306C24.6346 37.2944 24.761 37.2812 24.8869 37.2661L24.9135 37.2633C24.924 37.2623 24.9345 37.2613 24.945 37.26C25.4066 37.883 25.8202 38.6606 25.8202 39.4464C25.8203 41.0698 24.1138 42.719 22.9458 43.6069ZM28.5854 38.3236C29.3086 39.6119 31.4248 40.181 32.7661 40.3801C33.3065 39.1195 33.9164 37.0426 33.1903 35.7492C32.8756 35.1886 32.2975 34.7799 31.728 34.4936C30.6707 35.3014 29.5146 35.9486 28.2758 36.426C28.2233 37.0594 28.271 37.7635 28.5854 38.3236ZM35.1971 33.8281C34.6486 33.4907 34.2634 32.8971 34.0004 32.3172C34.8538 31.2959 35.5501 30.1705 36.0797 28.9564C36.716 28.9312 37.4187 29.0075 37.9662 29.344C39.2311 30.1219 39.7104 32.2325 39.8524 33.5963C38.5834 34.0732 36.4568 34.6028 35.1971 33.8281ZM37.0686 25.574C37.7118 26.0612 38.5157 26.4984 39.328 26.4984C40.9473 26.4984 42.6161 24.7756 43.4965 23.6289C42.6064 22.4633 40.9541 20.7612 39.3278 20.7612C38.5404 20.7612 37.7611 21.174 37.1368 21.6346C37.1385 21.649 37.14 21.6634 37.1415 21.6778C37.1427 21.6893 37.1438 21.7007 37.1452 21.7121C37.1571 21.8133 37.1683 21.9149 37.1781 22.0168C37.182 22.0578 37.1856 22.0987 37.1891 22.1398C37.1974 22.235 37.2047 22.3304 37.2111 22.4259C37.2139 22.468 37.2167 22.5102 37.2191 22.5524C37.2248 22.6503 37.2292 22.7486 37.2328 22.847C37.2333 22.8597 37.2338 22.8725 37.2343 22.8852C37.2354 22.9104 37.2364 22.9355 37.2371 22.9607C37.241 23.0948 37.2434 23.2294 37.2434 23.3644C37.2434 23.5317 37.2395 23.698 37.2336 23.8639C37.2324 23.8982 37.2311 23.9326 37.2296 23.9669C37.2224 24.1356 37.2128 24.3036 37.1997 24.4707L37.1989 24.4792C37.1854 24.6497 37.1681 24.8192 37.1486 24.988C37.147 25.0012 37.1455 25.0145 37.144 25.0278C37.1432 25.0349 37.1424 25.0419 37.1415 25.049C37.1209 25.2197 37.0974 25.3897 37.0707 25.5585L37.0686 25.574Z" fill="white"/>
<path d="M23.2116 32.132C18.3668 32.132 14.4253 28.1989 14.4253 23.3644C14.4253 20.6437 15.6631 18.1212 17.8215 16.4442C18.3929 16.0001 19.2168 16.1023 19.6619 16.6726C20.1069 17.2429 20.0043 18.0651 19.4329 18.5091C17.9172 19.6868 17.0481 21.4566 17.0481 23.3644C17.0481 26.7557 19.813 29.5148 23.2116 29.5148C26.6101 29.5148 29.3751 26.7557 29.3751 23.3644C29.3751 22.6417 29.9622 22.0558 30.6865 22.0558C31.4107 22.0558 31.9978 22.6417 31.9978 23.3644C31.9978 28.1989 28.0563 32.132 23.2116 32.132Z" fill="white"/>
</svg>
