<svg width="75" height="69" viewBox="0 0 75 69" fill="none" xmlns="http://www.w3.org/2000/svg">
<path fill-rule="evenodd" clip-rule="evenodd" d="M20.7973 42.2419C20.5138 42.2419 20.232 42.2323 19.9541 42.2125C17.0535 42.0051 14.8017 40.7462 13.6122 38.6677C12.4227 36.5893 12.4681 33.9924 13.7405 31.3549C14.9445 28.8587 17.1274 26.5987 19.888 24.9905C22.6486 23.3829 25.6803 22.6051 28.4246 22.8013C31.3247 23.0087 33.577 24.2676 34.7665 26.3461C35.956 28.4245 35.9101 31.0214 34.6382 33.6589C33.4342 36.1551 31.2507 38.4151 28.4907 40.0227C26.0103 41.4675 23.3108 42.2419 20.7973 42.2419ZM20.9638 26.8706C18.5713 28.2646 16.6932 30.1938 15.6752 32.3045C14.7255 34.2734 14.6543 36.1478 15.4751 37.5824C16.2965 39.0171 17.941 39.8921 20.106 40.047C22.4272 40.2126 25.0219 39.5366 27.4144 38.1432C29.8068 36.7492 31.6849 34.8194 32.7035 32.7093C33.6532 30.7399 33.7238 28.8654 32.903 27.4314C32.0822 25.9967 30.4377 25.1217 28.2728 24.9668C28.0425 24.9504 27.8094 24.9419 27.5746 24.9419C25.4388 24.9419 23.1192 25.6152 20.9638 26.8706Z" fill="white"/>
<path fill-rule="evenodd" clip-rule="evenodd" d="M71.4595 32.6232C71.7996 31.2502 71.4085 29.7805 70.4011 28.7659C69.3954 27.7501 67.9392 27.355 66.5777 27.6964C66.3754 26.9282 65.9507 26.2312 65.3523 25.697C63.8586 24.3624 61.5457 24.3573 60.0447 25.671C60.0077 25.6993 59.9718 25.7309 59.9382 25.7649C59.8995 25.8039 59.8609 25.844 59.8239 25.8858C59.4547 26.2617 59.1667 26.6958 58.9689 27.1769C58.2142 28.6918 57.6517 31.0218 57.2908 34.1155C56.3977 33.9793 55.471 33.9544 54.5308 34.0404C54.481 34.0381 54.4305 34.0398 54.3796 34.0449C52.6796 34.2207 50.992 34.7413 49.3627 35.5937C49.342 35.6045 49.3212 35.6163 49.3016 35.6282C47.897 36.3681 46.5506 37.3545 45.3359 38.58C44.7201 39.2013 44.1654 39.8564 43.6724 40.5359C43.1278 38.4771 42.7087 36.0024 42.7087 32.5068C42.7087 27.1028 43.6784 24.2149 44.7047 21.1582L44.7047 21.1582L44.705 21.1574L44.705 21.1573C45.7051 18.1789 46.7394 15.0988 46.7394 9.73896V4.4571C46.7394 3.74882 46.3573 3.09707 45.7421 2.75621C45.1527 2.42892 44.4377 2.43853 43.8556 2.77713L41.5545 1.30122C40.9275 0.900442 40.1179 0.900442 39.4937 1.30235L37.1954 2.776L34.8965 1.30235C34.2701 0.899877 33.4605 0.899312 32.8352 1.30178L30.5352 2.776L28.2363 1.30235C27.6094 0.899312 26.7992 0.899312 26.1733 1.30178L23.8739 2.77543L21.5728 1.30235C20.9464 0.899312 20.1356 0.899312 19.5104 1.30178L17.2109 2.77543L14.9132 1.30235C14.2862 0.899877 13.476 0.899312 12.8496 1.30178L10.5502 2.776L8.24961 1.30235C7.62265 0.899312 6.81247 0.899312 6.18662 1.30178L3.88494 2.77713C3.30448 2.4374 2.58843 2.42779 1.99732 2.75508C1.38212 3.09594 1 3.74713 1 4.45541V9.73953C1 15.1022 2.03464 18.1823 3.03522 21.1609L3.03554 21.1619C3.2255 21.7269 3.42118 22.3093 3.60678 22.8996C3.67124 23.3043 3.77935 23.9244 3.90807 24.6627L3.90807 24.6627C4.34865 27.1897 5.03074 31.1018 5.03074 32.5068C5.03074 37.9113 4.06143 40.7981 3.03442 43.8551L3.03408 43.8561C2.03407 46.8342 1 49.9137 1 55.2724V60.5576C1 61.2648 1.38156 61.9154 1.99508 62.2562C2.58282 62.583 3.29552 62.5756 3.88438 62.2353L6.1855 63.7107C6.49926 63.9119 6.85897 64.0131 7.21812 64.0125C7.57726 64.0125 7.93585 63.9125 8.24849 63.7112L10.5502 62.237L12.849 63.7107C13.4755 64.1132 14.2862 64.1137 14.9115 63.7112L17.2109 62.2376L19.5087 63.7107C20.1356 64.1137 20.9464 64.1132 21.5717 63.7118L23.8739 62.2376L26.1722 63.7107C26.7992 64.1132 27.6094 64.1137 28.2352 63.7112L30.5352 62.237L32.8341 63.7107C33.4605 64.1132 34.2701 64.1132 34.8954 63.7112L35.2646 63.475C35.3689 63.6123 35.4832 63.7435 35.6064 63.8684C36.6149 64.8842 38.0723 65.2787 39.4304 64.9356C39.6327 65.7044 40.0568 66.4019 40.6558 66.9361C41.4066 67.6071 42.3647 67.9417 43.3228 67.9417C44.2988 67.9417 45.2748 67.5941 46.0306 66.9005C46.4789 66.4901 46.8229 65.9921 47.0532 65.4189C47.7972 63.9068 48.3542 61.5887 48.7139 58.5159C49.2618 58.6001 49.8233 58.6414 50.392 58.6414C55.355 58.6414 60.3198 55.5307 63.0898 50.9616C63.1027 50.9407 63.1151 50.9192 63.1263 50.8972C64.8441 48.0234 65.5243 44.8353 65.0963 41.9886C65.5906 41.9297 67.4778 41.445 69.096 41.0294C70.2271 40.7388 71.2268 40.4821 71.5274 40.4281C71.5743 40.4197 71.6199 40.4083 71.6641 40.3942C71.7393 40.3821 71.8145 40.3618 71.8881 40.3329C72.4747 40.1017 72.9852 39.7484 73.4059 39.2821C74.7686 37.7711 74.7848 35.3891 73.4418 33.8572L71.4595 32.6232ZM5.08247 20.4921C5.26221 21.0269 5.44708 21.577 5.62589 22.1416C5.66252 22.222 5.68991 22.308 5.70651 22.3987L5.70757 22.4021C5.73997 22.5064 5.75597 22.612 5.75702 22.716C5.82356 23.1256 5.92098 23.6903 6.03417 24.3464L6.03417 24.3465C6.48397 26.9537 7.18282 31.0046 7.18282 32.5068C7.18282 38.2675 6.11047 41.4611 5.07365 44.5489L5.07276 44.5515C4.15836 47.2727 3.29159 49.8549 3.16721 54.1871H32.0234C32.1612 53.9197 32.3304 53.6653 32.5304 53.4307C32.5668 53.381 32.6077 53.3341 32.6526 53.2911C32.6834 53.2612 32.7142 53.2329 32.7461 53.2035C33.1176 52.8298 33.5501 52.5376 34.0314 52.3341C35.528 51.575 37.8381 51.0069 40.9101 50.6411C40.5482 48.2263 40.983 45.5656 42.1725 43.0598C41.3354 40.4499 40.5566 37.4274 40.5566 32.5068C40.5566 26.7461 41.6289 23.552 42.6658 20.4636L42.6667 20.461L42.6678 20.4575L42.6678 20.4574C43.5812 17.737 44.4479 15.1558 44.5722 10.8254H3.16665C3.29159 15.1604 4.15892 17.7431 5.07332 20.4649L5.08247 20.4921ZM71.1492 38.2908L71.1589 38.2891C71.4113 38.1809 71.6319 38.0239 71.8147 37.8214C72.4484 37.1182 72.4557 36.0098 71.8315 35.297C71.4444 34.8577 70.986 34.7159 70.6695 34.6746C70.1462 34.6051 69.694 34.3043 69.4256 33.8487C69.1528 33.3847 69.1074 32.8279 69.3012 32.3214C69.5696 31.6222 69.4038 30.8291 68.8793 30.3011C68.3549 29.7715 67.5683 29.6047 66.8741 29.8743C66.3737 30.0699 65.8213 30.0236 65.3601 29.7472C64.9086 29.4758 64.611 29.0185 64.5438 28.4928C64.5035 28.1752 64.3628 27.7128 63.9258 27.3227C63.2193 26.6913 62.1205 26.6987 61.4191 27.3425C61.4017 27.3623 61.3838 27.3821 61.3647 27.4013C61.1804 27.585 61.0397 27.7976 60.9467 28.0321C60.9344 28.0621 60.921 28.0921 60.9064 28.1209C60.2419 29.4357 59.7225 31.69 59.393 34.6729C60.5562 35.1245 61.618 35.8029 62.5212 36.7141C63.4238 37.6247 64.0961 38.6953 64.5438 39.8677C65.0899 39.806 67.0786 39.3012 68.75 38.877L68.7502 38.8769L68.7508 38.8768C69.8656 38.5938 70.8392 38.3467 71.1492 38.2908ZM4.91756 4.6866L7.21812 3.21295L9.51812 4.68604C10.1445 5.08907 10.9553 5.08964 11.5811 4.6866L13.8805 3.21295L16.1828 4.6883C16.8075 5.08681 17.6143 5.08681 18.2413 4.6866L20.5413 3.21239L22.843 4.68604C23.4694 5.08907 24.279 5.08907 24.9043 4.6866L27.2043 3.21295L29.5065 4.6883C30.1312 5.08681 30.9392 5.08681 31.5662 4.6866L33.865 3.21295L36.1667 4.6883C36.7914 5.08625 37.5988 5.08681 38.2263 4.6866L40.5247 3.21239L42.8219 4.68604C43.353 5.02689 44.0153 5.07946 44.5879 4.84205V8.65421H3.15152V4.84205C3.72358 5.08003 4.38696 5.02802 4.91756 4.6866ZM59.1219 52.5455L59.1504 52.5167C59.8189 51.8429 60.4167 51.1097 60.9344 50.3325L53.8758 36.3037C53.018 36.4518 52.163 36.7062 51.3192 37.0634L59.1129 52.5546L59.1172 52.55L59.1195 52.5476L59.1219 52.5455ZM33.865 61.8001L31.5673 60.327C30.9403 59.924 30.1301 59.924 29.5043 60.3259L27.2043 61.8001L24.9054 60.327C24.279 59.924 23.4694 59.924 22.8441 60.3259L20.5413 61.8001L18.2424 60.327C17.616 59.9245 16.8058 59.924 16.1805 60.3259L13.8805 61.8001L11.5822 60.327C10.9553 59.924 10.1451 59.924 9.51924 60.3259L7.21812 61.8001L4.91924 60.327C4.39033 59.9867 3.72974 59.9336 3.15152 60.1721V56.3582H31.5774C31.6339 57.2316 31.9623 58.0885 32.5646 58.7736C33.0946 59.3779 33.786 59.8058 34.548 60.0099C34.432 60.4774 34.4012 60.9561 34.4505 61.4247L33.865 61.8001ZM45.0692 64.5789C45.0815 64.5473 45.095 64.5162 45.1101 64.4862C45.7667 63.1714 46.2822 60.925 46.6111 57.9585C45.4496 57.5069 44.3884 56.8286 43.4858 55.9185C42.5832 55.0073 41.9108 53.9355 41.4626 52.762C38.5014 53.0967 36.267 53.6207 34.9694 54.2888C34.9414 54.3029 34.9133 54.3159 34.8842 54.3278C34.6478 54.4245 34.436 54.5669 34.255 54.7512C34.2427 54.7636 34.2298 54.7761 34.2169 54.7879C34.2128 54.792 34.2088 54.7957 34.2049 54.7993L34.1956 54.8077L34.1934 54.81C34.0068 55.0174 33.874 55.2605 33.7961 55.5177C33.7888 55.5488 33.7804 55.5799 33.7703 55.6104C33.6224 56.2028 33.7569 56.8574 34.1754 57.3339C34.5632 57.7759 35.0215 57.9178 35.338 57.9585C35.858 58.0258 36.3107 58.3259 36.5802 58.781C36.8547 59.2462 36.9007 59.8041 36.7063 60.3117C36.4379 61.0104 36.6037 61.8035 37.1282 62.3337C37.652 62.8616 38.4387 63.0284 39.1301 62.7582C39.6344 62.5621 40.1868 62.6084 40.6479 62.8854C41.0995 63.1573 41.3965 63.614 41.4637 64.1392C41.5209 64.5902 41.7405 65.0063 42.0817 65.311C42.7877 65.9418 43.8864 65.9339 44.584 65.2934C44.7986 65.0973 44.961 64.8576 45.0692 64.5789ZM48.1323 56.1898C48.0886 56.174 48.0427 56.161 47.9962 56.1508C46.8683 55.8162 45.8474 55.2305 45.0076 54.3832C44.1643 53.533 43.5827 52.498 43.2516 51.3539C43.2432 51.3149 43.2326 51.2771 43.2197 51.2398C42.5916 48.9391 42.9664 46.2151 44.2652 43.6742C44.2786 43.6505 44.2909 43.6262 44.3027 43.6019C44.9409 42.3718 45.7953 41.187 46.8576 40.1153C47.6544 39.3115 48.5144 38.6258 49.4086 38.0617L57.4298 54.0045C54.453 56.1949 50.9685 56.9738 48.1323 56.1898ZM62.7901 41.4001C62.775 41.3566 62.7621 41.3125 62.7526 41.2667C62.4214 40.1277 61.8404 39.0961 61 38.2488C60.1606 37.4014 59.1398 36.8158 58.0119 36.4818C57.9632 36.471 57.9156 36.4575 57.8696 36.4411C57.3396 36.2947 56.7871 36.2031 56.2196 36.1652L62.1799 48.0126C63.1173 45.7555 63.3381 43.4153 62.7901 41.4001Z" fill="white"/>
<path d="M70.4011 28.7659L70.259 28.9066L70.2592 28.9068L70.4011 28.7659ZM71.4595 32.6232L71.2654 32.5752L71.2304 32.7162L71.3538 32.793L71.4595 32.6232ZM66.5777 27.6964L66.3843 27.7473L66.4346 27.9384L66.6263 27.8904L66.5777 27.6964ZM65.3523 25.697L65.219 25.8462L65.2191 25.8462L65.3523 25.697ZM60.0447 25.671L60.1664 25.8303L60.1764 25.8215L60.0447 25.671ZM59.9382 25.7649L60.0802 25.9057L60.0802 25.9057L59.9382 25.7649ZM59.8239 25.8858L59.9668 26.0262L59.9737 26.0183L59.8239 25.8858ZM58.9689 27.1769L59.1479 27.2661L59.1511 27.2596L59.1539 27.2529L58.9689 27.1769ZM57.2908 34.1155L57.2607 34.3133L57.4655 34.3445L57.4895 34.1387L57.2908 34.1155ZM54.5308 34.0404L54.5218 34.2402L54.5354 34.2408L54.549 34.2395L54.5308 34.0404ZM54.3796 34.0449L54.3597 33.8459L54.359 33.8459L54.3796 34.0449ZM49.3627 35.5937L49.4547 35.7713L49.4554 35.7709L49.3627 35.5937ZM49.3016 35.6282L49.395 35.8055L49.4052 35.7993L49.3016 35.6282ZM45.3359 38.58L45.4779 38.7208L45.3359 38.58ZM43.6724 40.5359L43.479 40.587L43.5868 40.9943L43.8342 40.6533L43.6724 40.5359ZM44.7047 21.1582L44.8945 21.2219L44.897 21.2132L44.7047 21.1582ZM44.7047 21.1582L44.5152 21.0936L44.5124 21.1032L44.7047 21.1582ZM44.705 21.1574L44.8943 21.2218L44.8979 21.2114L44.9002 21.2007L44.705 21.1574ZM44.705 21.1573L44.5154 21.0936L44.5121 21.1036L44.5098 21.1139L44.705 21.1573ZM45.7421 2.75621L45.645 2.93107L45.6452 2.93116L45.7421 2.75621ZM43.8556 2.77713L43.7476 2.94548L43.8505 3.01146L43.9561 2.95001L43.8556 2.77713ZM41.5545 1.30122L41.6624 1.13287L41.6622 1.1327L41.5545 1.30122ZM39.4937 1.30235L39.6017 1.47071L39.602 1.4705L39.4937 1.30235ZM37.1954 2.776L37.0875 2.94437L37.1954 3.01357L37.3034 2.94436L37.1954 2.776ZM34.8965 1.30235L34.7884 1.47061L34.7886 1.47072L34.8965 1.30235ZM32.8352 1.30178L32.9431 1.47016L32.9435 1.46996L32.8352 1.30178ZM30.5352 2.776L30.4273 2.94437L30.5352 3.01356L30.6431 2.94438L30.5352 2.776ZM28.2363 1.30235L28.1282 1.47058L28.1284 1.47072L28.2363 1.30235ZM26.1733 1.30178L26.2813 1.47017L26.2815 1.47L26.1733 1.30178ZM23.8739 2.77543L23.7661 2.94388L23.874 3.01294L23.9818 2.94382L23.8739 2.77543ZM21.5728 1.30235L21.4646 1.47054L21.465 1.47079L21.5728 1.30235ZM19.5104 1.30178L19.6183 1.47017L19.6186 1.46996L19.5104 1.30178ZM17.2109 2.77543L17.103 2.9438L17.2109 3.01299L17.3188 2.94382L17.2109 2.77543ZM14.9132 1.30235L14.8051 1.47065L14.8052 1.47072L14.9132 1.30235ZM12.8496 1.30178L12.9576 1.47015L12.9577 1.47004L12.8496 1.30178ZM10.5502 2.776L10.4423 2.94441L10.5502 3.01354L10.6581 2.94437L10.5502 2.776ZM8.24961 1.30235L8.14147 1.47058L8.14174 1.47076L8.24961 1.30235ZM6.18662 1.30178L6.29455 1.47016L6.2948 1.47L6.18662 1.30178ZM3.88494 2.77713L3.78392 2.94974L3.88969 3.01165L3.99287 2.94551L3.88494 2.77713ZM1.99732 2.75508L1.90044 2.58011L1.90039 2.58014L1.99732 2.75508ZM3.03522 21.1609L3.22483 21.0973L3.22481 21.0973L3.03522 21.1609ZM3.03554 21.1619L2.84593 21.2255L2.84597 21.2256L3.03554 21.1619ZM3.60678 22.8996L3.80429 22.8681L3.80198 22.8536L3.79757 22.8396L3.60678 22.8996ZM3.90807 24.6627L4.10535 24.6298L4.1051 24.6283L3.90807 24.6627ZM3.90807 24.6627L3.71079 24.6956L3.71104 24.6971L3.90807 24.6627ZM3.03442 43.8551L2.84483 43.7914L2.84475 43.7917L3.03442 43.8551ZM3.03408 43.8561L3.22368 43.9198L3.22375 43.9196L3.03408 43.8561ZM1.99508 62.2562L2.09225 62.0814L2.09221 62.0814L1.99508 62.2562ZM3.88438 62.2353L3.99233 62.067L3.88978 62.0012L3.78431 62.0622L3.88438 62.2353ZM6.1855 63.7107L6.29347 63.5423L6.29345 63.5423L6.1855 63.7107ZM7.21812 64.0125V63.8125H7.2178L7.21812 64.0125ZM8.24849 63.7112L8.14062 63.5428L8.14025 63.5431L8.24849 63.7112ZM10.5502 62.237L10.6581 62.0687L10.5502 61.9995L10.4423 62.0686L10.5502 62.237ZM12.849 63.7107L12.9572 63.5424L12.957 63.5423L12.849 63.7107ZM14.9115 63.7112L14.8036 63.5429L14.8032 63.5431L14.9115 63.7112ZM17.2109 62.2376L17.3189 62.0692L17.2109 62L17.103 62.0692L17.2109 62.2376ZM19.5087 63.7107L19.6168 63.5424L19.6166 63.5423L19.5087 63.7107ZM21.5717 63.7118L21.4638 63.5434L21.4636 63.5435L21.5717 63.7118ZM23.8739 62.2376L23.9818 62.0692L23.874 62.0001L23.7661 62.0692L23.8739 62.2376ZM26.1722 63.7107L26.2803 63.5424L26.2801 63.5423L26.1722 63.7107ZM28.2352 63.7112L28.1273 63.5429L28.127 63.543L28.2352 63.7112ZM30.5352 62.237L30.6432 62.0687L30.5352 61.9995L30.4273 62.0686L30.5352 62.237ZM32.8341 63.7107L32.9422 63.5424L32.942 63.5423L32.8341 63.7107ZM34.8954 63.7112L34.7876 63.5428L34.7873 63.543L34.8954 63.7112ZM35.2646 63.475L35.424 63.3541L35.3124 63.207L35.1568 63.3065L35.2646 63.475ZM35.6064 63.8684L35.4641 64.0089L35.4645 64.0093L35.6064 63.8684ZM39.4304 64.9356L39.6238 64.8847L39.5734 64.6932L39.3814 64.7417L39.4304 64.9356ZM40.6558 66.9361L40.789 66.787L40.7889 66.7868L40.6558 66.9361ZM46.0306 66.9005L45.8956 66.753L45.8954 66.7531L46.0306 66.9005ZM47.0532 65.4189L46.8737 65.3306L46.8704 65.3374L46.8676 65.3444L47.0532 65.4189ZM48.7139 58.5159L48.7443 58.3182L48.5393 58.2867L48.5152 58.4926L48.7139 58.5159ZM63.0898 50.9616L62.9196 50.8567L62.9188 50.858L63.0898 50.9616ZM63.1263 50.8972L62.9542 50.7943L62.948 50.8066L63.1263 50.8972ZM65.0963 41.9886L65.0726 41.79L64.8678 41.8144L64.8985 42.0183L65.0963 41.9886ZM69.096 41.0294L69.1458 41.2231L69.096 41.0294ZM71.5274 40.4281L71.5627 40.625L71.5628 40.625L71.5274 40.4281ZM71.6641 40.3942L71.6324 40.1967L71.6176 40.1991L71.6033 40.2036L71.6641 40.3942ZM71.8881 40.3329L71.9611 40.5191L71.9614 40.519L71.8881 40.3329ZM73.4059 39.2821L73.5544 39.4161L73.5545 39.416L73.4059 39.2821ZM73.4418 33.8572L73.5922 33.7254L73.5726 33.7031L73.5475 33.6874L73.4418 33.8572ZM5.62589 22.1416L5.43522 22.202L5.43888 22.2136L5.44392 22.2246L5.62589 22.1416ZM5.08247 20.4921L4.89289 20.5559L4.89289 20.5559L5.08247 20.4921ZM5.70651 22.3987L5.50978 22.4347L5.51194 22.4465L5.5155 22.458L5.70651 22.3987ZM5.70757 22.4021L5.51657 22.4614H5.51657L5.70757 22.4021ZM5.75702 22.716L5.55703 22.718L5.55718 22.7331L5.5596 22.7481L5.75702 22.716ZM6.03417 24.3464L6.232 24.3168L6.23125 24.3124L6.03417 24.3464ZM6.03417 24.3465L5.83633 24.3761L5.83708 24.3805L6.03417 24.3465ZM5.07365 44.5489L5.26323 44.6126L5.26325 44.6125L5.07365 44.5489ZM5.07276 44.5515L4.88318 44.4878H4.88318L5.07276 44.5515ZM3.16721 54.1871L2.96729 54.1813L2.96138 54.3871H3.16721V54.1871ZM32.0234 54.1871V54.3871H32.1453L32.2011 54.2787L32.0234 54.1871ZM32.5304 53.4307L32.6826 53.5605L32.6874 53.5549L32.6918 53.5489L32.5304 53.4307ZM32.6526 53.2911L32.791 53.4355L32.792 53.4345L32.6526 53.2911ZM32.7461 53.2035L32.8817 53.3508L32.888 53.3445L32.7461 53.2035ZM34.0314 52.3341L34.1095 52.5188L34.1219 52.5125L34.0314 52.3341ZM40.9101 50.6411L40.9338 50.8397L41.1385 50.8154L41.1079 50.6115L40.9101 50.6411ZM42.1725 43.0598L42.3532 43.1455L42.3871 43.074L42.3629 42.9987L42.1725 43.0598ZM42.6658 20.4636L42.8554 20.5273L42.8554 20.5271L42.6658 20.4636ZM42.6667 20.461L42.4771 20.397L42.477 20.3975L42.6667 20.461ZM42.6678 20.4575L42.8575 20.5215L42.8601 20.5125L42.6678 20.4575ZM42.6678 20.4574L42.478 20.3937L42.4755 20.4025L42.6678 20.4574ZM44.5722 10.8254L44.7721 10.8311L44.778 10.6254H44.5722V10.8254ZM3.16665 10.8254V10.6254H2.9608L2.96673 10.8312L3.16665 10.8254ZM5.07332 20.4649L4.88373 20.5286L4.88374 20.5286L5.07332 20.4649ZM71.1589 38.2891L71.1933 38.4862L71.2163 38.4822L71.2378 38.4729L71.1589 38.2891ZM71.1492 38.2908L71.1148 38.0938L71.1137 38.094L71.1492 38.2908ZM71.8147 37.8214L71.9631 37.9555L71.9633 37.9553L71.8147 37.8214ZM71.8315 35.297L71.982 35.1652L71.9816 35.1647L71.8315 35.297ZM70.6695 34.6746L70.6431 34.8729L70.6436 34.8729L70.6695 34.6746ZM69.4256 33.8487L69.2532 33.9501L69.2533 33.9502L69.4256 33.8487ZM69.3012 32.3214L69.1145 32.2497L69.1145 32.2499L69.3012 32.3214ZM68.8793 30.3011L68.7372 30.4418L68.7374 30.4421L68.8793 30.3011ZM66.8741 29.8743L66.8016 29.6879L66.8012 29.6881L66.8741 29.8743ZM65.3601 29.7472L65.2571 29.9186L65.2573 29.9187L65.3601 29.7472ZM64.5438 28.4928L64.3454 28.518L64.3454 28.5182L64.5438 28.4928ZM63.9258 27.3227L63.7925 27.4719L63.7926 27.4719L63.9258 27.3227ZM61.4191 27.3425L61.2838 27.1952L61.2759 27.2025L61.2688 27.2106L61.4191 27.3425ZM61.3647 27.4013L61.5059 27.543L61.5067 27.5421L61.3647 27.4013ZM60.9467 28.0321L61.1317 28.1082L61.1327 28.1059L60.9467 28.0321ZM60.9064 28.1209L61.0849 28.2111L61.0849 28.2111L60.9064 28.1209ZM59.393 34.6729L59.1943 34.6509L59.1774 34.8037L59.3207 34.8593L59.393 34.6729ZM62.5212 36.7141L62.6632 36.5733L62.5212 36.7141ZM64.5438 39.8677L64.357 39.9391L64.4123 40.0838L64.5663 40.0664L64.5438 39.8677ZM68.75 38.877L68.7015 38.6829L68.7008 38.6831L68.75 38.877ZM68.7502 38.8769L68.7987 39.071L68.8004 39.0705L68.7502 38.8769ZM68.7508 38.8768L68.7016 38.6829L68.7006 38.6832L68.7508 38.8768ZM7.21812 3.21295L7.32598 3.04453L7.21811 2.97544L7.11024 3.04454L7.21812 3.21295ZM4.91756 4.6866L4.80968 4.51819L4.80934 4.51841L4.91756 4.6866ZM9.51812 4.68604L9.62633 4.51784L9.62598 4.51762L9.51812 4.68604ZM11.5811 4.6866L11.4732 4.51821L11.4728 4.51845L11.5811 4.6866ZM13.8805 3.21295L13.9885 3.04456L13.8805 2.97541L13.7726 3.04456L13.8805 3.21295ZM16.1828 4.6883L16.0749 4.85669L16.0752 4.85691L16.1828 4.6883ZM18.2413 4.6866L18.3489 4.85519L18.3492 4.85498L18.2413 4.6866ZM20.5413 3.21239L20.6491 3.04395L20.5412 2.97487L20.4334 3.044L20.5413 3.21239ZM22.843 4.68604L22.9512 4.51784L22.9508 4.5176L22.843 4.68604ZM24.9043 4.6866L24.7964 4.5182L24.796 4.51843L24.9043 4.6866ZM27.2043 3.21295L27.3122 3.04456L27.2043 2.97541L27.0964 3.04455L27.2043 3.21295ZM29.5065 4.6883L29.3986 4.85669L29.399 4.85691L29.5065 4.6883ZM31.5662 4.6866L31.6738 4.85519L31.6741 4.85498L31.5662 4.6866ZM33.865 3.21295L33.973 3.04457L33.865 2.97539L33.7571 3.04458L33.865 3.21295ZM36.1667 4.6883L36.0588 4.85668L36.0593 4.85698L36.1667 4.6883ZM38.2263 4.6866L38.3339 4.85523L38.3343 4.85495L38.2263 4.6866ZM40.5247 3.21239L40.6326 3.04405L40.5247 2.97477L40.4167 3.04404L40.5247 3.21239ZM42.8219 4.68604L42.9299 4.51771L42.9298 4.5177L42.8219 4.68604ZM44.5879 4.84205H44.7879V4.54262L44.5113 4.6573L44.5879 4.84205ZM44.5879 8.65421V8.85421H44.7879V8.65421H44.5879ZM3.15152 8.65421H2.95152V8.85421H3.15152V8.65421ZM3.15152 4.84205L3.22834 4.65739L2.95152 4.54223V4.84205H3.15152ZM59.1504 52.5167L59.0084 52.3758L59.0084 52.3759L59.1504 52.5167ZM59.1219 52.5455L59.2563 52.694L59.2639 52.6863L59.1219 52.5455ZM60.9344 50.3325L61.1009 50.4434L61.1654 50.3465L61.1131 50.2426L60.9344 50.3325ZM53.8758 36.3037L54.0545 36.2138L53.9879 36.0814L53.8418 36.1066L53.8758 36.3037ZM51.3192 37.0634L51.2413 36.8792L51.0446 36.9625L51.1406 37.1533L51.3192 37.0634ZM59.1129 52.5546L58.9342 52.6445L59.0625 52.8994L59.2584 52.6918L59.1129 52.5546ZM59.1172 52.55L58.9744 52.41L58.9717 52.4128L59.1172 52.55ZM59.1195 52.5476L58.9851 52.3991L58.9768 52.4076L59.1195 52.5476ZM31.5673 60.327L31.4591 60.4952L31.4593 60.4954L31.5673 60.327ZM33.865 61.8001L33.7571 61.9684L33.865 62.0376L33.973 61.9685L33.865 61.8001ZM29.5043 60.3259L29.6122 60.4942L29.6124 60.4941L29.5043 60.3259ZM27.2043 61.8001L27.0964 61.9685L27.2043 62.0376L27.3122 61.9685L27.2043 61.8001ZM24.9054 60.327L24.7972 60.4952L24.7975 60.4954L24.9054 60.327ZM22.8441 60.3259L22.9519 60.4943L22.9522 60.4941L22.8441 60.3259ZM20.5413 61.8001L20.4334 61.9685L20.5412 62.0376L20.6491 61.9685L20.5413 61.8001ZM18.2424 60.327L18.1343 60.4953L18.1345 60.4954L18.2424 60.327ZM16.1805 60.3259L16.2885 60.4942L16.2887 60.4941L16.1805 60.3259ZM13.8805 61.8001L13.7726 61.9685L13.8805 62.0376L13.9885 61.9685L13.8805 61.8001ZM11.5822 60.327L11.4741 60.4952L11.4743 60.4954L11.5822 60.327ZM9.51924 60.3259L9.62712 60.4943L9.62731 60.4941L9.51924 60.3259ZM7.21812 61.8001L7.11021 61.9685L7.21811 62.0376L7.32601 61.9685L7.21812 61.8001ZM4.91924 60.327L4.81103 60.4952L4.81134 60.4954L4.91924 60.327ZM3.15152 60.1721H2.95152V60.471L3.22779 60.357L3.15152 60.1721ZM3.15152 56.3582V56.1582H2.95152V56.3582H3.15152ZM31.5774 56.3582L31.7769 56.3453L31.7648 56.1582H31.5774V56.3582ZM32.5646 58.7736L32.7149 58.6418L32.7148 58.6416L32.5646 58.7736ZM34.548 60.0099L34.7421 60.058L34.7894 59.8675L34.5998 59.8167L34.548 60.0099ZM34.4505 61.4247L34.5585 61.5931L34.6623 61.5265L34.6494 61.4038L34.4505 61.4247ZM45.1101 64.4862L45.2886 64.5764L45.289 64.5756L45.1101 64.4862ZM45.0692 64.5789L44.8828 64.5063L44.8827 64.5066L45.0692 64.5789ZM46.6111 57.9585L46.8099 57.9806L46.8268 57.8278L46.6836 57.7721L46.6111 57.9585ZM43.4858 55.9185L43.3437 56.0592L43.3438 56.0593L43.4858 55.9185ZM41.4626 52.762L41.6494 52.6907L41.5941 52.5459L41.4401 52.5633L41.4626 52.762ZM34.9694 54.2888L35.0595 54.4674L35.0609 54.4666L34.9694 54.2888ZM34.8842 54.3278L34.8087 54.1426L34.8085 54.1427L34.8842 54.3278ZM34.255 54.7512L34.397 54.892L34.3977 54.8913L34.255 54.7512ZM34.2169 54.7879L34.0813 54.6407L34.0748 54.6472L34.2169 54.7879ZM34.2049 54.7993L34.0705 54.6511L34.0705 54.6512L34.2049 54.7993ZM34.1956 54.8077L34.061 54.6594L34.0536 54.6669L34.1956 54.8077ZM34.1934 54.81L34.0512 54.669L34.0447 54.6762L34.1934 54.81ZM33.7961 55.5177L33.6043 55.4596L33.6014 55.4721L33.7961 55.5177ZM33.7703 55.6104L33.5804 55.5477L33.5781 55.5547L33.5763 55.562L33.7703 55.6104ZM34.1754 57.3339L34.3258 57.202L34.3257 57.2019L34.1754 57.3339ZM35.338 57.9585L35.3637 57.7602L35.3635 57.7602L35.338 57.9585ZM36.5802 58.781L36.7524 58.6793L36.7523 58.6791L36.5802 58.781ZM36.7063 60.3117L36.893 60.3834L36.893 60.3833L36.7063 60.3117ZM37.1282 62.3337L36.986 62.4743L36.9862 62.4746L37.1282 62.3337ZM39.1301 62.7582L39.0576 62.5718L39.0573 62.5719L39.1301 62.7582ZM40.6479 62.8854L40.7511 62.7141L40.7509 62.7139L40.6479 62.8854ZM41.4637 64.1392L41.6621 64.114L41.6621 64.1138L41.4637 64.1392ZM42.0817 65.311L42.215 65.1618L42.2149 65.1618L42.0817 65.311ZM44.584 65.2934L44.449 65.1458L44.4487 65.1461L44.584 65.2934ZM47.9962 56.1508L47.9393 56.3425L47.9463 56.3446L47.9534 56.3462L47.9962 56.1508ZM48.1323 56.1898L48.0642 56.3778L48.0715 56.3805L48.079 56.3826L48.1323 56.1898ZM45.0076 54.3832L45.1496 54.2424L45.1496 54.2424L45.0076 54.3832ZM43.2516 51.3539L43.0556 51.3962L43.0595 51.4095L43.2516 51.3539ZM43.2197 51.2398L43.0263 51.2925L43.0306 51.3051L43.2197 51.2398ZM44.2652 43.6742L44.091 43.5756L44.0871 43.5832L44.2652 43.6742ZM44.3027 43.6019L44.1251 43.5097L44.1227 43.5147L44.3027 43.6019ZM46.8576 40.1153L46.9997 40.2561V40.2561L46.8576 40.1153ZM49.4086 38.0617L49.5873 37.9718L49.4883 37.775L49.3019 37.8925L49.4086 38.0617ZM57.4298 54.0045L57.5483 54.1656L57.6844 54.0655L57.6084 53.9146L57.4298 54.0045ZM62.7526 41.2667L62.9484 41.226L62.9468 41.2184L62.9446 41.2109L62.7526 41.2667ZM62.7901 41.4001L62.9835 41.3475L62.979 41.3345L62.7901 41.4001ZM61 38.2488L60.8579 38.3895L60.858 38.3896L61 38.2488ZM58.0119 36.4818L58.0687 36.29L58.0619 36.288L58.055 36.2864L58.0119 36.4818ZM57.8696 36.4411L57.9368 36.2527L57.9299 36.2502L57.9229 36.2483L57.8696 36.4411ZM56.2196 36.1652L56.2329 35.9657L55.8835 35.9423L56.0409 36.2551L56.2196 36.1652ZM62.1799 48.0126L62.0013 48.1025L62.1973 48.4922L62.3646 48.0893L62.1799 48.0126ZM70.2592 28.9068C71.2165 29.871 71.5889 31.2688 71.2654 32.5752L71.6536 32.6713C72.0102 31.2316 71.6005 29.69 70.543 28.6249L70.2592 28.9068ZM66.6263 27.8904C67.9198 27.566 69.3033 27.9414 70.259 28.9066L70.5432 28.6251C69.4874 27.5588 67.9585 27.1439 66.529 27.5024L66.6263 27.8904ZM65.2191 25.8462C65.7881 26.3542 66.1919 27.0169 66.3843 27.7473L66.7711 27.6454C66.5589 26.8394 66.1133 26.1082 65.4855 25.5478L65.2191 25.8462ZM60.1764 25.8215C61.6017 24.5741 63.8009 24.5791 65.219 25.8462L65.4856 25.5479C63.9162 24.1457 61.4897 24.1406 59.9129 25.5205L60.1764 25.8215ZM60.0802 25.9057C60.1077 25.878 60.1367 25.8524 60.1661 25.8299L59.9232 25.5121C59.8787 25.5462 59.8359 25.5839 59.7962 25.6241L60.0802 25.9057ZM59.9737 26.0183C60.0071 25.9805 60.0428 25.9434 60.0802 25.9057L59.7962 25.6241C59.7563 25.6643 59.7147 25.7074 59.6741 25.7534L59.9737 26.0183ZM59.1539 27.2529C59.3416 26.7963 59.6151 26.3838 59.9666 26.026L59.6812 25.7457C59.2942 26.1396 58.9917 26.5954 58.7839 27.1008L59.1539 27.2529ZM57.4895 34.1387C57.8495 31.0519 58.4089 28.7496 59.1479 27.2661L58.7899 27.0877C58.0195 28.634 57.4538 30.9917 57.0922 34.0924L57.4895 34.1387ZM54.549 34.2395C55.4739 34.155 56.3843 34.1796 57.2607 34.3133L57.321 33.9178C56.4111 33.779 55.4681 33.7539 54.5126 33.8412L54.549 34.2395ZM54.3994 34.2439C54.4418 34.2397 54.4825 34.2384 54.5218 34.2402L54.5399 33.8406C54.4794 33.8378 54.4193 33.8399 54.3597 33.8459L54.3994 34.2439ZM49.4554 35.7709C51.064 34.9294 52.7272 34.4168 54.4001 34.2438L54.359 33.8459C52.632 34.0245 50.9201 34.5532 49.27 35.4165L49.4554 35.7709ZM49.4052 35.7993C49.4221 35.7891 49.4389 35.7795 49.4547 35.7713L49.2707 35.4161C49.2451 35.4294 49.2204 35.4436 49.1981 35.4571L49.4052 35.7993ZM45.4779 38.7208C46.6784 37.5097 48.0084 36.5355 49.3948 35.8052L49.2084 35.4513C47.7856 36.2008 46.4228 37.1994 45.1938 38.4392L45.4779 38.7208ZM43.8342 40.6533C44.3213 39.9821 44.8694 39.3348 45.4779 38.7208L45.1938 38.4392C44.5709 39.0677 44.0095 39.7307 43.5105 40.4184L43.8342 40.6533ZM42.5087 32.5068C42.5087 36.0201 42.9301 38.512 43.479 40.587L43.8657 40.4847C43.3254 38.4423 42.9087 35.9847 42.9087 32.5068H42.5087ZM44.5151 21.0945C43.4861 24.1591 42.5087 27.071 42.5087 32.5068H42.9087C42.9087 27.1346 43.8706 24.2706 44.8943 21.2219L44.5151 21.0945ZM44.5124 21.1032L44.5124 21.1033L44.897 21.2132L44.897 21.2131L44.5124 21.1032ZM44.5157 21.0929L44.5154 21.0937L44.8941 21.2226L44.8943 21.2218L44.5157 21.0929ZM44.5098 21.1139L44.5098 21.114L44.9002 21.2007L44.9002 21.2007L44.5098 21.1139ZM46.5394 9.73896C46.5394 15.0664 45.5132 18.1222 44.5154 21.0936L44.8946 21.221C45.897 18.2357 46.9394 15.1312 46.9394 9.73896H46.5394ZM46.5394 4.4571V9.73896H46.9394V4.4571H46.5394ZM45.6452 2.93116C46.1962 3.23646 46.5394 3.82089 46.5394 4.4571H46.9394C46.9394 3.67676 46.5184 2.95769 45.839 2.58127L45.6452 2.93116ZM43.9561 2.95001C44.4778 2.64658 45.1177 2.63826 45.645 2.93107L45.8392 2.58136C45.1877 2.21959 44.3976 2.23048 43.755 2.60425L43.9561 2.95001ZM41.4465 1.46956L43.7476 2.94548L43.9636 2.60878L41.6624 1.13287L41.4465 1.46956ZM39.602 1.4705C40.1601 1.11114 40.8853 1.11085 41.4468 1.46973L41.6622 1.1327C40.9697 0.690033 40.0757 0.689741 39.3854 1.13419L39.602 1.4705ZM37.3034 2.94436L39.6017 1.47071L39.3858 1.13398L37.0875 2.60764L37.3034 2.94436ZM34.7886 1.47072L37.0875 2.94437L37.3033 2.60762L35.0045 1.13397L34.7886 1.47072ZM32.9435 1.46996C33.5027 1.11003 34.2277 1.11035 34.7884 1.47061L35.0046 1.13408C34.3125 0.689403 33.4183 0.688598 32.727 1.13361L32.9435 1.46996ZM30.6431 2.94438L32.9431 1.47016L32.7273 1.1334L30.4273 2.60762L30.6431 2.94438ZM28.1284 1.47072L30.4273 2.94437L30.6432 2.60762L28.3443 1.13397L28.1284 1.47072ZM26.2815 1.47C26.8414 1.10995 27.567 1.10986 28.1282 1.47058L28.3445 1.13411C27.6517 0.688766 26.757 0.688676 26.0652 1.13356L26.2815 1.47ZM23.9818 2.94382L26.2813 1.47017L26.0654 1.13339L23.766 2.60705L23.9818 2.94382ZM21.465 1.47079L23.7661 2.94388L23.9817 2.60699L21.6806 1.13391L21.465 1.47079ZM19.6186 1.46996C20.1779 1.10996 20.904 1.10987 21.4646 1.47054L21.681 1.13415C20.9888 0.688752 20.0934 0.688661 19.4021 1.13361L19.6186 1.46996ZM17.3188 2.94382L19.6183 1.47017L19.4024 1.13339L17.103 2.60705L17.3188 2.94382ZM14.8052 1.47072L17.103 2.9438L17.3189 2.60706L15.0211 1.13398L14.8052 1.47072ZM12.9577 1.47004C13.5181 1.10998 14.2439 1.11036 14.8051 1.47065L15.0212 1.13404C14.3285 0.689399 13.4339 0.688646 12.7415 1.13352L12.9577 1.47004ZM10.6581 2.94437L12.9576 1.47015L12.7417 1.13341L10.4422 2.60763L10.6581 2.94437ZM8.14174 1.47076L10.4423 2.94441L10.658 2.60759L8.35749 1.13394L8.14174 1.47076ZM6.2948 1.47C6.85469 1.10995 7.58031 1.10986 8.14147 1.47058L8.35776 1.13411C7.66498 0.688766 6.77025 0.688676 6.07844 1.13356L6.2948 1.47ZM3.99287 2.94551L6.29455 1.47016L6.07869 1.1334L3.77701 2.60875L3.99287 2.94551ZM2.0942 2.93005C2.62348 2.637 3.26432 2.64564 3.78392 2.94974L3.98597 2.60452C3.34464 2.22917 2.55337 2.21859 1.90044 2.58011L2.0942 2.93005ZM1.2 4.45541C1.2 3.81925 1.54317 3.23536 2.09425 2.93003L1.90039 2.58014C1.22107 2.95652 0.8 3.675 0.8 4.45541H1.2ZM1.2 9.73953V4.45541H0.8V9.73953H1.2ZM3.22481 21.0973C2.22655 18.1255 1.2 15.0698 1.2 9.73953H0.8C0.8 15.1347 1.84273 18.2391 2.84564 21.2246L3.22481 21.0973ZM3.22515 21.0982L3.22483 21.0973L2.84562 21.2246L2.84593 21.2255L3.22515 21.0982ZM3.79757 22.8396C3.61128 22.2471 3.41499 21.663 3.22511 21.0982L2.84597 21.2256C3.03602 21.7909 3.23107 22.3714 3.41599 22.9596L3.79757 22.8396ZM4.1051 24.6283C3.97625 23.8893 3.86846 23.2711 3.80429 22.8681L3.40927 22.9311C3.47402 23.3376 3.58245 23.9595 3.71104 24.697L4.1051 24.6283ZM4.10535 24.6298L4.10535 24.6298L3.71079 24.6956L3.71079 24.6956L4.10535 24.6298ZM5.23074 32.5068C5.23074 31.7862 5.05736 30.4411 4.83231 28.9752C4.60635 27.5033 4.32533 25.8915 4.1051 24.6284L3.71104 24.6971C3.9314 25.9609 4.21171 27.5687 4.43694 29.0359C4.66308 30.5089 4.83074 31.8224 4.83074 32.5068H5.23074ZM3.22401 43.9188C4.25369 40.8539 5.23074 37.9431 5.23074 32.5068H4.83074C4.83074 37.8795 3.86917 40.7424 2.84483 43.7914L3.22401 43.9188ZM3.22375 43.9196L3.22409 43.9185L2.84475 43.7917L2.84441 43.7927L3.22375 43.9196ZM1.2 55.2724C1.2 49.9461 2.22597 46.891 3.22368 43.9198L2.84449 43.7924C1.84216 46.7774 0.8 49.8812 0.8 55.2724H1.2ZM1.2 60.5576V55.2724H0.8V60.5576H1.2ZM2.09221 62.0814C1.54266 61.7761 1.2 61.1927 1.2 60.5576H0.8C0.8 61.3368 1.22045 62.0547 1.89795 62.4311L2.09221 62.0814ZM3.78431 62.0622C3.25566 62.3677 2.61785 62.3736 2.09225 62.0814L1.8979 62.4311C2.54779 62.7923 3.33537 62.7836 3.98445 62.4085L3.78431 62.0622ZM6.29345 63.5423L3.99233 62.067L3.77643 62.4037L6.07755 63.879L6.29345 63.5423ZM7.2178 63.8125C6.89632 63.813 6.57432 63.7225 6.29347 63.5423L6.07753 63.879C6.4242 64.1014 6.82162 64.2132 7.21843 64.2125L7.2178 63.8125ZM8.14025 63.5431C7.86097 63.7228 7.54018 63.8125 7.21812 63.8125V64.2125C7.61435 64.2125 8.01074 64.1021 8.35674 63.8794L8.14025 63.5431ZM10.4423 62.0686L8.14062 63.5428L8.35636 63.8797L10.658 62.4054L10.4423 62.0686ZM12.957 63.5423L10.6581 62.0687L10.4422 62.4054L12.7411 63.8791L12.957 63.5423ZM14.8032 63.5431C14.244 63.903 13.5179 63.9027 12.9572 63.5424L12.7409 63.8789C13.433 64.3236 14.3284 64.3244 15.0197 63.8794L14.8032 63.5431ZM17.103 62.0692L14.8036 63.5429L15.0194 63.8796L17.3188 62.406L17.103 62.0692ZM19.6166 63.5423L17.3189 62.0692L17.103 62.406L19.4007 63.8791L19.6166 63.5423ZM21.4636 63.5435C20.9042 63.9026 20.1779 63.9031 19.6168 63.5424L19.4005 63.8789C20.0934 64.3243 20.9886 64.3237 21.6797 63.8801L21.4636 63.5435ZM23.7661 62.0692L21.4638 63.5434L21.6795 63.8802L23.9818 62.406L23.7661 62.0692ZM26.2801 63.5423L23.9818 62.0692L23.766 62.406L26.0643 63.8791L26.2801 63.5423ZM28.127 63.543C27.5673 63.903 26.8416 63.9027 26.2803 63.5424L26.0642 63.879C26.7568 64.3236 27.6515 64.3244 28.3434 63.8795L28.127 63.543ZM30.4273 62.0686L28.1273 63.5429L28.3431 63.8796L30.6431 62.4054L30.4273 62.0686ZM32.942 63.5423L30.6432 62.0687L30.4273 62.4054L32.7262 63.8791L32.942 63.5423ZM34.7873 63.543C34.2279 63.9025 33.5028 63.9026 32.9422 63.5424L32.726 63.8789C33.4182 64.3237 34.3123 64.3238 35.0035 63.8795L34.7873 63.543ZM35.1568 63.3065L34.7876 63.5428L35.0032 63.8797L35.3724 63.6434L35.1568 63.3065ZM35.7488 63.7279C35.6313 63.6088 35.5227 63.4842 35.424 63.3541L35.1053 63.5958C35.215 63.7405 35.3351 63.8781 35.4641 64.0089L35.7488 63.7279ZM39.3814 64.7417C38.0916 65.0676 36.7069 64.6929 35.7483 63.7275L35.4645 64.0093C36.523 65.0754 38.0529 65.4899 39.4794 65.1295L39.3814 64.7417ZM40.7889 66.7868C40.2195 66.279 39.8162 65.6158 39.6238 64.8847L39.237 64.9865C39.4492 65.793 39.8941 66.5248 40.5226 67.0854L40.7889 66.7868ZM43.3228 67.7417C42.4108 67.7417 41.501 67.4232 40.789 66.787L40.5225 67.0852C41.3122 67.7909 42.3185 68.1417 43.3228 68.1417V67.7417ZM45.8954 66.7531C45.1787 67.4108 44.2518 67.7417 43.3228 67.7417V68.1417C44.3457 68.1417 45.3709 67.7773 46.1659 67.0478L45.8954 66.7531ZM46.8676 65.3444C46.6483 65.8901 46.3214 66.3631 45.8956 66.753L46.1657 67.048C46.6363 66.6171 46.9975 66.0941 47.2388 65.4935L46.8676 65.3444ZM48.5152 58.4926C48.1563 61.5585 47.6026 63.8495 46.8737 65.3306L47.2326 65.5072C47.9919 63.9642 48.552 61.6188 48.9125 58.5391L48.5152 58.4926ZM50.392 58.4414C49.8329 58.4414 49.2817 58.4008 48.7443 58.3182L48.6835 58.7136C49.242 58.7994 49.8136 58.8414 50.392 58.8414V58.4414ZM62.9188 50.858C60.1792 55.3768 55.2746 58.4414 50.392 58.4414V58.8414C55.4355 58.8414 60.4604 55.6846 63.2609 51.0653L62.9188 50.858ZM62.948 50.8066C62.9398 50.8227 62.9303 50.8393 62.9196 50.8567L63.2601 51.0666C63.2752 51.0421 63.2903 51.0158 63.3046 50.9878L62.948 50.8066ZM64.8985 42.0183C65.3188 44.8135 64.6518 47.9553 62.9546 50.7946L63.2979 50.9998C65.0364 48.0915 65.7298 44.857 65.294 41.9589L64.8985 42.0183ZM69.0463 40.8356C68.2369 41.0435 67.3616 41.2683 66.627 41.4485C65.8859 41.6303 65.3047 41.7623 65.0726 41.79L65.1199 42.1872C65.3821 42.1559 65.9917 42.0162 66.7223 41.837C67.4595 41.6562 68.337 41.4308 69.1458 41.2231L69.0463 40.8356ZM71.4921 40.2313C71.1819 40.2869 70.171 40.5468 69.0463 40.8356L69.1458 41.2231C70.2833 40.9309 71.2717 40.6772 71.5627 40.625L71.4921 40.2313ZM71.6033 40.2036C71.5673 40.2151 71.5302 40.2244 71.492 40.2313L71.5628 40.625C71.6183 40.615 71.6724 40.6015 71.7249 40.5847L71.6033 40.2036ZM71.8151 40.1467C71.7548 40.1704 71.6935 40.1869 71.6324 40.1967L71.6957 40.5917C71.7851 40.5773 71.8741 40.5532 71.9611 40.5191L71.8151 40.1467ZM73.2574 39.1481C72.8575 39.5914 72.3728 39.9269 71.8148 40.1469L71.9614 40.519C72.5767 40.2765 73.1129 39.9055 73.5544 39.4161L73.2574 39.1481ZM73.2914 33.9891C74.5676 35.4448 74.552 37.7126 73.2574 39.1481L73.5545 39.416C74.9851 37.8297 75.002 35.3334 73.5922 33.7254L73.2914 33.9891ZM71.3538 32.793L73.3361 34.027L73.5475 33.6874L71.5652 32.4535L71.3538 32.793ZM5.81655 22.0813C5.63713 21.5147 5.45171 20.963 5.27205 20.4284L4.89289 20.5559C5.07271 21.0909 5.25703 21.6393 5.43522 22.202L5.81655 22.0813ZM5.90324 22.3626C5.88365 22.2557 5.85126 22.1538 5.80785 22.0586L5.44392 22.2246C5.47377 22.2901 5.49618 22.3604 5.50978 22.4347L5.90324 22.3626ZM5.89858 22.3428L5.89751 22.3394L5.5155 22.458L5.51657 22.4614L5.89858 22.3428ZM5.95701 22.714C5.95576 22.5908 5.93681 22.4659 5.89858 22.3428L5.51657 22.4614C5.54314 22.547 5.55617 22.6332 5.55703 22.718L5.95701 22.714ZM6.23125 24.3124C6.11799 23.6559 6.02077 23.0924 5.95443 22.6839L5.5596 22.7481C5.62634 23.1589 5.72396 23.7247 5.83708 24.3804L6.23125 24.3124ZM6.23196 24.3168L6.23195 24.3168L5.83638 24.3761L5.83638 24.3761L6.23196 24.3168ZM7.38282 32.5068C7.38282 31.7379 7.20537 30.3343 6.97492 28.8111C6.74362 27.2823 6.4561 25.6157 6.23126 24.3125L5.83708 24.3805C6.06204 25.6845 6.34884 27.3469 6.57942 28.871C6.81084 30.4005 6.98282 31.7735 6.98282 32.5068H7.38282ZM5.26325 44.6125C6.30268 41.517 7.38282 38.2994 7.38282 32.5068H6.98282C6.98282 38.2356 5.91827 41.4052 4.88405 44.4852L5.26325 44.6125ZM5.26234 44.6152L5.26323 44.6126L4.88407 44.4852L4.88318 44.4878L5.26234 44.6152ZM3.36713 54.1928C3.49064 49.8909 4.3496 47.3315 5.26234 44.6152L4.88318 44.4878C3.96713 47.2139 3.09255 49.8188 2.96729 54.1813L3.36713 54.1928ZM32.0234 53.9871H3.16721V54.3871H32.0234V53.9871ZM32.3782 53.301C32.168 53.5475 31.9903 53.8147 31.8456 54.0954L32.2011 54.2787C32.3321 54.0247 32.4928 53.7831 32.6826 53.5605L32.3782 53.301ZM32.5142 53.1467C32.4607 53.1979 32.4122 53.2537 32.369 53.3126L32.6918 53.5489C32.7215 53.5083 32.7547 53.4702 32.791 53.4355L32.5142 53.1467ZM32.6107 53.0563C32.5793 53.0852 32.5463 53.1155 32.5131 53.1477L32.792 53.4345C32.8204 53.4068 32.8491 53.3806 32.8816 53.3507L32.6107 53.0563ZM33.9535 52.1499C33.4482 52.3636 32.994 52.6705 32.6043 53.0625L32.888 53.3445C33.2412 52.9892 33.6521 52.7117 34.1093 52.5183L33.9535 52.1499ZM40.8865 50.4425C37.8074 50.8091 35.4692 51.3805 33.941 52.1557L34.1219 52.5125C35.5867 51.7694 37.8687 51.2046 40.9338 50.8397L40.8865 50.4425ZM41.9918 42.974C40.7873 45.5113 40.3438 48.2121 40.7123 50.6708L41.1079 50.6115C40.7526 48.2405 41.1786 45.6199 42.3532 43.1455L41.9918 42.974ZM40.3566 32.5068C40.3566 37.4531 41.1403 40.4966 41.982 43.1209L42.3629 42.9987C41.5305 40.4033 40.7566 37.4018 40.7566 32.5068H40.3566ZM42.4762 20.4C41.4367 23.4961 40.3566 26.7142 40.3566 32.5068H40.7566C40.7566 26.778 41.8211 23.6079 42.8554 20.5273L42.4762 20.4ZM42.477 20.3975L42.4761 20.4001L42.8554 20.5271L42.8563 20.5244L42.477 20.3975ZM42.4783 20.3936L42.4771 20.397L42.8562 20.5249L42.8573 20.5214L42.4783 20.3936ZM42.4755 20.4025L42.4755 20.4026L42.8601 20.5125L42.8601 20.5124L42.4755 20.4025ZM44.3723 10.8197C44.2488 15.1197 43.39 17.6782 42.4782 20.3938L42.8574 20.5211C43.7725 17.7958 44.6469 15.1918 44.7721 10.8311L44.3723 10.8197ZM3.16665 11.0254H44.5722V10.6254H3.16665V11.0254ZM5.26291 20.4012C4.35015 17.6843 3.49064 15.1244 3.36657 10.8196L2.96673 10.8312C3.09255 15.1965 3.9677 17.802 4.88373 20.5286L5.26291 20.4012ZM5.27205 20.4284L5.2629 20.4012L4.88374 20.5286L4.89289 20.5559L5.27205 20.4284ZM71.1245 38.0921L71.1148 38.0938L71.1836 38.4879L71.1933 38.4862L71.1245 38.0921ZM71.6663 37.6874C71.503 37.8681 71.3063 38.0083 71.0801 38.1053L71.2378 38.4729C71.5163 38.3535 71.7607 38.1797 71.9631 37.9555L71.6663 37.6874ZM71.6811 35.4287C72.2386 36.0654 72.2319 37.0598 71.6661 37.6876L71.9633 37.9553C72.6649 37.1767 72.6728 35.9541 71.982 35.1652L71.6811 35.4287ZM70.6436 34.8729C70.9267 34.9098 71.3349 35.036 71.6815 35.4292L71.9816 35.1647C71.5539 34.6795 71.0454 34.5219 70.6953 34.4763L70.6436 34.8729ZM69.2533 33.9502C69.5527 34.4586 70.0586 34.7952 70.6431 34.8729L70.6958 34.4763C70.2338 34.415 69.8353 34.1501 69.598 33.7472L69.2533 33.9502ZM69.1145 32.2499C68.899 32.8127 68.9493 33.4332 69.2532 33.9501L69.598 33.7474C69.3563 33.3362 69.3157 32.843 69.488 32.3929L69.1145 32.2499ZM68.7374 30.4421C69.206 30.9138 69.3549 31.6235 69.1145 32.2497L69.488 32.3931C69.7843 31.6208 69.6016 30.7444 69.0212 30.1602L68.7374 30.4421ZM66.9465 30.0608C67.5666 29.8199 68.2689 29.9689 68.7372 30.4418L69.0215 30.1604C68.4409 29.5741 67.5699 29.3895 66.8016 29.6879L66.9465 30.0608ZM65.2573 29.9187C65.7715 30.2269 66.3888 30.2788 66.9469 30.0606L66.8012 29.6881C66.3586 29.8611 65.871 29.8202 65.463 29.5756L65.2573 29.9187ZM64.3454 28.5182C64.4204 29.1042 64.7527 29.6155 65.2571 29.9186L65.4632 29.5757C65.0644 29.3362 64.8017 28.9329 64.7422 28.4675L64.3454 28.5182ZM63.7926 27.4719C64.1839 27.8211 64.3093 28.2334 64.3454 28.518L64.7422 28.4676C64.6977 28.1169 64.5418 27.6044 64.059 27.1735L63.7926 27.4719ZM61.5543 27.4899C62.1803 26.9153 63.1629 26.9092 63.7925 27.4719L64.0591 27.1736C63.2756 26.4735 62.0608 26.482 61.2838 27.1952L61.5543 27.4899ZM61.5067 27.5421C61.5298 27.5188 61.5507 27.4957 61.5694 27.4745L61.2688 27.2106C61.2527 27.2289 61.2377 27.2453 61.2227 27.2605L61.5067 27.5421ZM61.1327 28.1059C61.2153 27.8974 61.3404 27.7079 61.5059 27.543L61.2235 27.2596C61.0203 27.4622 60.8642 27.6977 60.7608 27.9584L61.1327 28.1059ZM61.0849 28.2111C61.1022 28.1768 61.1178 28.142 61.1317 28.1082L60.7618 27.956C60.751 27.9822 60.7397 28.0073 60.7279 28.0307L61.0849 28.2111ZM59.5918 34.6949C59.9208 31.7161 60.4375 29.4921 61.0849 28.2111L60.7279 28.0307C60.0463 29.3793 59.5242 31.6638 59.1943 34.6509L59.5918 34.6949ZM62.6632 36.5733C61.7394 35.6413 60.6536 34.9478 59.4654 34.4865L59.3207 34.8593C60.4588 35.3013 61.4965 35.9644 62.3791 36.8549L62.6632 36.5733ZM64.7306 39.7964C64.2735 38.5993 63.5864 37.5047 62.6632 36.5733L62.3791 36.8549C63.2612 37.7448 63.9187 38.7914 64.357 39.9391L64.7306 39.7964ZM68.7008 38.6831C67.8648 38.8953 66.951 39.1273 66.178 39.3139C65.3986 39.502 64.7791 39.6398 64.5213 39.669L64.5663 40.0664C64.8546 40.0339 65.5025 39.8884 66.2719 39.7027C67.0476 39.5154 67.9638 39.2829 68.7992 39.0708L68.7008 38.6831ZM68.7017 38.6829L68.7015 38.6829L68.7985 39.071L68.7987 39.0709L68.7017 38.6829ZM68.7006 38.6832L68.7 38.6833L68.8004 39.0705L68.801 39.0704L68.7006 38.6832ZM71.1137 38.094C70.7946 38.1515 69.8105 38.4015 68.7016 38.6829L68.8 39.0706C69.9208 38.7861 70.8837 38.5419 71.1847 38.4877L71.1137 38.094ZM7.11024 3.04454L4.80968 4.51819L5.02544 4.85501L7.326 3.38136L7.11024 3.04454ZM9.62598 4.51762L7.32598 3.04453L7.11025 3.38137L9.41025 4.85446L9.62598 4.51762ZM11.4728 4.51845C10.9131 4.87893 10.187 4.87856 9.62633 4.51784L9.4099 4.85423C10.1021 5.29959 10.9975 5.30034 11.6894 4.85475L11.4728 4.51845ZM13.7726 3.04456L11.4732 4.51822L11.689 4.85499L13.9885 3.38134L13.7726 3.04456ZM16.2907 4.51991L13.9885 3.04456L13.7726 3.38134L16.0749 4.85669L16.2907 4.51991ZM18.1337 4.51802C17.5722 4.87643 16.8493 4.87626 16.2903 4.51968L16.0752 4.85691C16.7657 5.29736 17.6565 5.2972 18.3489 4.85518L18.1337 4.51802ZM20.4334 3.044L18.1334 4.51822L18.3492 4.85498L20.6492 3.38077L20.4334 3.044ZM22.9508 4.5176L20.6491 3.04395L20.4335 3.38082L22.7351 4.85447L22.9508 4.5176ZM24.796 4.51843C24.2367 4.87842 23.5117 4.87851 22.9512 4.51784L22.7348 4.85423C23.427 5.29963 24.3213 5.29972 25.0125 4.85478L24.796 4.51843ZM27.0964 3.04455L24.7964 4.5182L25.0122 4.855L27.3122 3.38135L27.0964 3.04455ZM29.6144 4.51991L27.3122 3.04456L27.0964 3.38134L29.3986 4.85669L29.6144 4.51991ZM31.4585 4.51802C30.8971 4.87643 30.1731 4.87626 29.6141 4.51968L29.399 4.85691C30.0894 5.29736 30.9813 5.2972 31.6738 4.85518L31.4585 4.51802ZM33.7571 3.04458L31.4582 4.51823L31.6741 4.85498L33.973 3.38133L33.7571 3.04458ZM36.2746 4.51992L33.973 3.04457L33.7571 3.38133L36.0588 4.85668L36.2746 4.51992ZM38.1188 4.51798C37.5568 4.8764 36.8333 4.87577 36.2742 4.51961L36.0593 4.85698C36.7496 5.29673 37.6408 5.29723 38.3339 4.85523L38.1188 4.51798ZM40.4167 3.04404L38.1184 4.51826L38.3343 4.85495L40.6326 3.38073L40.4167 3.04404ZM42.9298 4.5177L40.6326 3.04405L40.4167 3.38072L42.7139 4.85438L42.9298 4.5177ZM44.5113 4.6573C43.9983 4.86998 43.4051 4.82269 42.9299 4.51771L42.7138 4.85436C43.3009 5.23109 44.0322 5.28895 44.6645 5.0268L44.5113 4.6573ZM44.7879 8.65421V4.84205H44.3879V8.65421H44.7879ZM3.15152 8.85421H44.5879V8.45421H3.15152V8.85421ZM2.95152 4.84205V8.65421H3.35152V4.84205H2.95152ZM4.80934 4.51841C4.33488 4.82371 3.74075 4.87056 3.22834 4.65739L3.0747 5.02671C3.7064 5.2895 4.43905 5.23234 5.02578 4.85479L4.80934 4.51841ZM59.0084 52.3759L58.9798 52.4047L59.2639 52.6863L59.2925 52.6575L59.0084 52.3759ZM60.7679 50.2216C60.2574 50.9881 59.6678 51.7112 59.0084 52.3758L59.2924 52.6575C59.9699 51.9746 60.576 51.2314 61.1009 50.4434L60.7679 50.2216ZM53.6972 36.3936L60.7557 50.4224L61.1131 50.2426L54.0545 36.2138L53.6972 36.3936ZM51.3972 37.2476C52.2277 36.896 53.068 36.6461 53.9099 36.5008L53.8418 36.1066C52.9681 36.2575 52.0984 36.5164 51.2413 36.8792L51.3972 37.2476ZM59.2916 52.4647L51.4979 36.9735L51.1406 37.1533L58.9342 52.6445L59.2916 52.4647ZM58.9717 52.4128L58.9674 52.4173L59.2584 52.6918L59.2626 52.6873L58.9717 52.4128ZM58.9768 52.4076L58.9744 52.41L59.2599 52.6901L59.2623 52.6877L58.9768 52.4076ZM58.9876 52.3972L58.9853 52.3994L59.2537 52.6959L59.2561 52.6938L58.9876 52.3972ZM31.4593 60.4954L33.7571 61.9684L33.973 61.6317L31.6752 60.1586L31.4593 60.4954ZM29.6124 60.4941C30.1723 60.1346 30.898 60.1345 31.4591 60.4952L31.6754 60.1588C30.9826 59.7134 30.088 59.7133 29.3962 60.1576L29.6124 60.4941ZM27.3122 61.9685L29.6122 60.4942L29.3964 60.1575L27.0964 61.6317L27.3122 61.9685ZM24.7975 60.4954L27.0964 61.9685L27.3122 61.6317L25.0133 60.1586L24.7975 60.4954ZM22.9522 60.4941C23.5116 60.1346 24.2366 60.1345 24.7972 60.4952L25.0136 60.1588C24.3214 59.7134 23.4272 59.7133 22.736 60.1576L22.9522 60.4941ZM20.6491 61.9685L22.9519 60.4943L22.7363 60.1574L20.4335 61.6316L20.6491 61.9685ZM18.1345 60.4954L20.4334 61.9685L20.6492 61.6317L18.3503 60.1586L18.1345 60.4954ZM16.2887 60.4941C16.8479 60.1346 17.5736 60.135 18.1343 60.4953L18.3505 60.1587C17.6584 59.7141 16.7637 59.7133 16.0724 60.1576L16.2887 60.4941ZM13.9885 61.9685L16.2885 60.4942L16.0726 60.1575L13.7726 61.6317L13.9885 61.9685ZM11.4743 60.4954L13.7726 61.9685L13.9885 61.6317L11.6902 60.1586L11.4743 60.4954ZM9.62731 60.4941C10.1872 60.1346 10.9129 60.1345 11.4741 60.4952L11.6904 60.1588C10.9976 59.7134 10.1029 59.7133 9.41117 60.1576L9.62731 60.4941ZM7.32601 61.9685L9.62712 60.4943L9.41135 60.1575L7.11023 61.6317L7.32601 61.9685ZM4.81134 60.4954L7.11021 61.9685L7.32602 61.6317L5.02714 60.1586L4.81134 60.4954ZM3.22779 60.357C3.74682 60.1429 4.33837 60.1911 4.81103 60.4952L5.02745 60.1588C4.44228 59.7823 3.71266 59.7243 3.07525 59.9872L3.22779 60.357ZM2.95152 56.3582V60.1721H3.35152V56.3582H2.95152ZM31.5774 56.1582H3.15152V56.5583H31.5774V56.1582ZM32.7148 58.6416C32.1436 57.9919 31.8309 57.1776 31.7769 56.3453L31.3778 56.3712C31.437 57.2855 31.781 58.1852 32.4144 58.9057L32.7148 58.6416ZM34.5998 59.8167C33.8761 59.6229 33.219 59.2164 32.7149 58.6418L32.4142 58.9055C32.9703 59.5395 33.696 59.9888 34.4963 60.2031L34.5998 59.8167ZM34.6494 61.4038C34.6025 60.9579 34.6319 60.5025 34.7421 60.058L34.3539 59.9617C34.2322 60.4522 34.1999 60.9543 34.2516 61.4457L34.6494 61.4038ZM33.973 61.9685L34.5585 61.5931L34.3426 61.2564L33.7571 61.6317L33.973 61.9685ZM44.9315 64.3961C44.9129 64.4331 44.8969 64.4702 44.8828 64.5063L45.2555 64.6515C45.2661 64.6243 45.277 64.5993 45.2886 64.5764L44.9315 64.3961ZM46.4123 57.9365C46.0839 60.8988 45.5712 63.1154 44.9312 64.3969L45.289 64.5756C45.9623 63.2275 46.4805 60.9513 46.8099 57.9806L46.4123 57.9365ZM43.3438 56.0593C44.267 56.9901 45.3521 57.6836 46.5386 58.1449L46.6836 57.7721C45.5471 57.3302 44.5099 56.667 43.6278 55.7776L43.3438 56.0593ZM41.2757 52.8334C41.7334 54.0315 42.4205 55.1273 43.3437 56.0592L43.6279 55.7777C42.7458 54.8873 42.0882 53.8395 41.6494 52.6907L41.2757 52.8334ZM35.0609 54.4666C36.3244 53.8161 38.5281 53.2949 41.485 52.9608L41.4401 52.5633C38.4748 52.8984 36.2096 53.4253 34.8778 54.111L35.0609 54.4666ZM34.9597 54.513C34.9946 54.4988 35.0276 54.4835 35.0595 54.4674L34.8793 54.1102C34.8551 54.1224 34.8321 54.1331 34.8087 54.1426L34.9597 54.513ZM34.3977 54.8913C34.5598 54.7263 34.7488 54.5992 34.9599 54.5129L34.8085 54.1427C34.5467 54.2497 34.3121 54.4076 34.1123 54.6111L34.3977 54.8913ZM34.3524 54.9351C34.3676 54.9211 34.3826 54.9065 34.397 54.892L34.1129 54.6104C34.1027 54.6207 34.092 54.6311 34.0814 54.6408L34.3524 54.9351ZM34.3392 54.9475C34.3438 54.9433 34.3511 54.9367 34.359 54.9287L34.0748 54.6472C34.0746 54.6474 34.0738 54.6482 34.0705 54.6511L34.3392 54.9475ZM34.33 54.9558L34.3392 54.9475L34.0705 54.6512L34.0612 54.6596L34.33 54.9558ZM34.3354 54.9508L34.3376 54.9485L34.0536 54.6669L34.0513 54.6692L34.3354 54.9508ZM33.9875 55.5757C34.0573 55.3453 34.176 55.1284 34.3421 54.9437L34.0447 54.6762C33.8376 54.9065 33.6907 55.1757 33.6047 55.4597L33.9875 55.5757ZM33.9602 55.6731C33.9726 55.6357 33.9825 55.5987 33.9908 55.5633L33.6014 55.4721C33.5951 55.4988 33.5882 55.524 33.5804 55.5477L33.9602 55.6731ZM34.3257 57.2019C33.9534 56.778 33.8313 56.192 33.9644 55.6589L33.5763 55.562C33.4136 56.2136 33.5604 56.9367 34.0252 57.4659L34.3257 57.2019ZM35.3635 57.7602C35.081 57.7238 34.673 57.5979 34.3258 57.202L34.0251 57.4658C34.4533 57.954 34.9619 58.1118 35.3125 58.1569L35.3635 57.7602ZM36.7523 58.6791C36.4518 58.1717 35.9455 57.8354 35.3637 57.7602L35.3124 58.1569C35.7705 58.2161 36.1696 58.4802 36.4081 58.8829L36.7523 58.6791ZM36.893 60.3833C37.1091 59.8191 37.0582 59.1974 36.7524 58.6793L36.408 58.8826C36.6513 59.295 36.6923 59.7891 36.5195 60.2402L36.893 60.3833ZM37.2704 62.193C36.8014 61.7189 36.6527 61.009 36.893 60.3834L36.5196 60.24C36.2231 61.0118 36.4061 61.8881 36.986 62.4743L37.2704 62.193ZM39.0573 62.5719C38.4403 62.813 37.738 62.6643 37.2701 62.1928L36.9862 62.4746C37.5661 63.059 38.4371 63.2438 39.2029 62.9445L39.0573 62.5719ZM40.7509 62.7139C40.2364 62.4049 39.6191 62.3534 39.0576 62.5718L39.2026 62.9446C39.6496 62.7707 40.1372 62.8119 40.5449 63.0568L40.7509 62.7139ZM41.6621 64.1138C41.5871 63.5284 41.2554 63.0177 40.7511 62.7141L40.5448 63.0567C40.9436 63.2969 41.2058 63.6997 41.2653 64.1646L41.6621 64.1138ZM42.2149 65.1618C41.9094 64.8889 41.7132 64.5168 41.6621 64.114L41.2653 64.1643C41.3286 64.6636 41.5716 65.1236 41.9485 65.4601L42.2149 65.1618ZM44.4487 65.1461C43.8268 65.7171 42.8442 65.7241 42.215 65.1618L41.9484 65.4601C42.7312 66.1595 43.946 66.1507 44.7192 65.4408L44.4487 65.1461ZM44.8827 64.5066C44.7854 64.7575 44.6401 64.9711 44.449 65.1458L44.7189 65.441C44.957 65.2234 45.1367 64.9577 45.2556 64.6513L44.8827 64.5066ZM47.9534 56.3462C47.9922 56.3547 48.0296 56.3653 48.0642 56.3778L48.2004 56.0018C48.1476 55.9826 48.0931 55.9673 48.0389 55.9554L47.9534 56.3462ZM44.8655 54.524C45.7306 55.3968 46.7814 55.999 47.9393 56.3425L48.053 55.9591C46.9551 55.6333 45.9642 55.0643 45.1496 54.2424L44.8655 54.524ZM43.0595 51.4095C43.3992 52.5832 43.9969 53.6483 44.8656 54.5241L45.1496 54.2424C44.3317 53.4178 43.7663 52.4129 43.4437 51.2983L43.0595 51.4095ZM43.0306 51.3051C43.0409 51.3349 43.0494 51.3651 43.0561 51.3961L43.4471 51.3118C43.437 51.2648 43.4242 51.2192 43.4087 51.1744L43.0306 51.3051ZM44.0871 43.5832C42.7703 46.1594 42.3831 48.9347 43.0267 51.2924L43.4126 51.1871C42.8001 48.9435 43.1625 46.2708 44.4433 43.7652L44.0871 43.5832ZM44.1227 43.5147C44.1119 43.537 44.1017 43.5571 44.0911 43.5756L44.4392 43.7728C44.4556 43.7439 44.47 43.7154 44.4827 43.689L44.1227 43.5147ZM46.7156 39.9745C45.6392 41.0605 44.7727 42.2616 44.1252 43.5098L44.4802 43.694C45.109 42.482 45.9515 41.3136 46.9997 40.2561L46.7156 39.9745ZM49.3019 37.8925C48.3948 38.4648 47.5229 39.16 46.7156 39.9745L46.9997 40.2561C47.7858 39.463 48.634 38.7868 49.5154 38.2308L49.3019 37.8925ZM57.6084 53.9146L49.5873 37.9718L49.23 38.1516L57.2511 54.0944L57.6084 53.9146ZM48.079 56.3826C50.9867 57.1864 54.5335 56.3839 57.5483 54.1656L57.3112 53.8434C54.3724 56.0058 50.9503 56.7613 48.1856 55.997L48.079 56.3826ZM62.5567 41.3075C62.5684 41.3634 62.5839 41.416 62.6012 41.4658L62.979 41.3345C62.9661 41.2972 62.9558 41.2616 62.9484 41.226L62.5567 41.3075ZM60.858 38.3896C61.6731 39.2115 62.238 40.2131 62.5605 41.3226L62.9446 41.2109C62.6049 40.0423 62.0077 38.9808 61.142 38.1079L60.858 38.3896ZM57.9551 36.6735C59.053 36.9987 60.0438 37.5677 60.8579 38.3895L61.1421 38.108C60.2775 37.2352 59.2266 36.633 58.0687 36.29L57.9551 36.6735ZM57.8024 36.6294C57.8566 36.6488 57.9123 36.6646 57.9689 36.6771L58.055 36.2864C58.014 36.2774 57.9745 36.2661 57.9368 36.2527L57.8024 36.6294ZM56.2062 36.3648C56.7611 36.4018 57.3001 36.4912 57.8164 36.6338L57.9229 36.2483C57.3791 36.0981 56.8132 36.0044 56.2329 35.9657L56.2062 36.3648ZM62.3586 47.9228L56.3982 36.0753L56.0409 36.2551L62.0013 48.1025L62.3586 47.9228ZM62.5971 41.4526C63.1314 43.4176 62.9188 45.7121 61.9952 47.9359L62.3646 48.0893C63.3158 45.799 63.5447 43.4131 62.9831 41.3477L62.5971 41.4526Z" fill="white"/>
</svg>
