<svg width="72" height="72" viewBox="0 0 72 72" fill="none" xmlns="http://www.w3.org/2000/svg">
<path fill-rule="evenodd" clip-rule="evenodd" d="M68.6136 28.9782H69.7792C70.4229 28.9782 70.9449 29.5 70.9449 30.144V41.8015C70.9449 42.4453 70.4231 42.9672 69.7792 42.9672H68.6136V65.1167C68.6136 67.0478 67.048 68.6139 65.1164 68.6139H42.9668V69.7792C42.9668 70.4229 42.445 70.9449 41.8011 70.9449H30.1436C29.4999 70.9449 28.9779 70.4231 28.9779 69.7792V68.6135H6.82806C4.89694 68.6135 3.33083 67.0479 3.33083 65.1162V42.9675H2.16569C1.52194 42.9675 1 42.4457 1 41.8018V30.1443C1 29.5006 1.52181 28.9786 2.16569 28.9786H3.33139V6.82861C3.33139 4.89667 4.89667 3.33139 6.82861 3.33139H28.9781V2.16569C28.9781 1.52194 29.4999 1 30.1437 1H41.8013C42.445 1 42.9669 1.52181 42.9669 2.16569V3.33153H65.1164C67.0483 3.33153 68.6136 4.89681 68.6136 6.82875V28.9782ZM22.4133 38.8189C22.4708 38.8893 22.529 38.9593 22.5885 39.0289C22.6031 39.0461 22.618 39.0631 22.633 39.0802L22.6697 39.1221C22.7178 39.1772 22.7654 39.2325 22.8146 39.2871C23.135 39.6425 23.6671 40.2128 24.4011 40.989C24.4047 40.9928 24.4086 40.996 24.4122 40.9997C25.9633 42.6364 28.3024 45.0657 30.9772 47.8231L30.9789 47.8245L30.9806 47.826C32.7296 49.6294 34.8008 51.7571 35.9725 52.9576C37.1442 51.7571 39.2154 49.6294 40.9644 47.826C40.9654 47.8249 40.9667 47.8242 40.9676 47.8231C43.8021 44.8999 46.0225 42.5943 47.5321 41.0004L47.5349 40.9977L47.5371 40.9957C48.2681 40.2242 48.8061 39.6475 49.13 39.2869C49.2008 39.2082 49.2704 39.1289 49.3389 39.049L49.3492 39.0372C49.4161 38.959 49.4818 38.8801 49.5465 38.8008L49.5593 38.7854L49.5639 38.7797C51.6267 36.2412 52.5396 33.1729 52.2094 30.276L52.2093 30.2729C52.0932 29.2578 51.8324 28.3206 51.4451 27.481C50.4085 25.2996 48.4718 23.6826 45.8228 23.259L45.8093 23.2569C45.7076 23.2408 45.6047 23.2267 45.501 23.2142C45.4685 23.2103 45.4356 23.2071 45.4029 23.2036C45.321 23.1947 45.2389 23.1861 45.1557 23.1794C45.1035 23.1753 45.0506 23.1723 44.9978 23.1693L44.9692 23.1676L44.9131 23.1641C44.8729 23.1616 44.8326 23.159 44.7918 23.1574C44.6665 23.1524 44.5404 23.1494 44.4128 23.1494H44.4114C43.6246 23.1494 42.869 23.2585 42.1164 23.4697L42.116 23.4699L42.1154 23.47C39.926 24.0825 38.2442 25.6 37.2579 27.7669L37.2317 27.8256C37.1713 27.9608 37.1128 28.0981 37.0578 28.2383C36.8642 28.7317 36.4183 28.9782 35.9725 28.9782C35.5267 28.9782 35.0808 28.7317 34.8872 28.2383L34.8829 28.2279C34.8301 28.094 34.7743 27.9629 34.7167 27.8335L34.6839 27.7606C33.6974 25.5971 32.0167 24.0819 29.8296 23.47L29.8288 23.4697H29.8286C29.0796 23.2594 28.3275 23.1506 27.5447 23.1496L27.5335 23.1494C27.4053 23.1494 27.2785 23.1524 27.1528 23.1574C27.1108 23.1591 27.0694 23.1617 27.028 23.1643L27.0278 23.1644L26.9797 23.1674L26.9625 23.1683C26.9043 23.1716 26.846 23.1749 26.7885 23.1794C26.7068 23.1861 26.6263 23.1944 26.5458 23.2032L26.5076 23.2072L26.4731 23.2109L26.4426 23.2143C26.3406 23.2267 26.2394 23.2406 26.1393 23.2564L26.12 23.2593C23.4771 23.6826 21.5435 25.294 20.5056 27.4685C20.1149 28.3121 19.8519 29.2543 19.7354 30.2756V30.2765C19.4057 33.1693 20.3165 36.2344 22.3744 38.7717L22.4133 38.8189ZM68.6133 40.6357H51.0493C51.0543 40.63 51.059 40.6242 51.0637 40.6184L51.0638 40.6182L51.064 40.618C51.0687 40.6122 51.0734 40.6064 51.0783 40.6007C53.5343 37.7561 54.6543 34.4222 54.6261 31.3096H67.4478H68.6133V40.6357ZM66.2821 6.82875C66.2821 6.18444 65.7607 5.66306 65.1164 5.66306H42.9669V20.9085C43.4351 20.8489 43.9165 20.8174 44.4113 20.8174H44.4131C44.5749 20.8175 44.7347 20.8208 44.8932 20.8271L44.9027 20.8277L44.909 20.8281L44.9167 20.8285C50.1143 21.0428 53.4817 24.5565 54.3838 28.9778H66.2821V14.9887H60.4533C59.8096 14.9887 59.2876 14.4668 59.2876 13.8231C59.2876 13.1793 59.8094 12.6574 60.4533 12.6574H66.2821V10.3258H55.7903C55.1465 10.3258 54.6246 9.80403 54.6246 9.16014C54.6246 8.51639 55.1464 7.99444 55.7903 7.99444H66.2821V6.82875ZM40.6354 3.33153V4.49722V21.4844C38.7113 22.2149 37.1217 23.5199 35.9724 25.2735C34.8231 23.5196 33.2337 22.2146 31.3096 21.4843V4.49722L31.3094 4.49486V3.33139H40.6354V3.33153ZM6.82861 5.66306C6.18431 5.66306 5.66292 6.18444 5.66292 6.82875V28.9782H17.5607C18.4632 24.5553 21.8325 21.0406 27.0333 20.8286C27.0393 20.8285 27.0451 20.8279 27.0511 20.8276C27.2101 20.8214 27.3708 20.8179 27.5333 20.8179H27.5335H27.5336H27.5349C28.0292 20.8181 28.5101 20.8494 28.9779 20.909V5.66306H6.82861ZM3.33139 31.3103H17.3185C17.2906 34.4204 18.4088 37.7517 20.861 40.5947C20.8665 40.6012 20.8718 40.6077 20.8771 40.6142L20.8876 40.6269L20.8951 40.6358H4.49653L4.49073 40.6361L4.48514 40.6364H3.33139V31.3103ZM5.66236 65.1167C5.66236 65.7604 6.18444 66.2824 6.82806 66.2824V66.2822H28.9775V49.1101L28.7579 48.8838C26.4004 46.4512 24.4576 44.4338 23.064 42.9678H5.66236V56.9567H11.4917C12.1354 56.9567 12.6574 57.4786 12.6574 58.1224C12.6574 58.7661 12.1356 59.2881 11.4917 59.2881H5.66236V61.6196H16.1546C16.7983 61.6196 17.3203 62.1414 17.3203 62.7853C17.3203 63.429 16.7985 63.951 16.1546 63.951H5.66236V65.1167ZM40.6354 68.6139H31.3094V51.5117C33.0586 53.3106 34.6571 54.9496 35.141 55.4419C35.3751 55.6801 35.6861 55.7954 35.9951 55.7894C36.2889 55.7837 36.5808 55.6686 36.8035 55.4424C36.9389 55.3047 37.2051 55.0325 37.5612 54.6676C38.3082 53.9026 39.436 52.7451 40.6354 51.5115V67.4486V68.6139ZM65.1164 66.2828C65.7601 66.2828 66.2821 65.7607 66.2821 65.1171V42.9678H48.8807C47.4871 44.4338 45.5442 46.4512 43.1867 48.8839L42.9669 49.1106V66.2828H65.1164Z" fill="white"/>
<path d="M68.6136 28.9782H68.2636V29.3282H68.6136V28.9782ZM68.6136 42.9672V42.6172H68.2636V42.9672H68.6136ZM42.9668 68.6139V68.2639H42.6168V68.6139H42.9668ZM28.9779 68.6135H29.3279V68.2635H28.9779V68.6135ZM3.33083 42.9675H3.68083V42.6175H3.33083V42.9675ZM3.33139 28.9786V29.3286H3.68139V28.9786H3.33139ZM28.9781 3.33139V3.68139H29.3281V3.33139H28.9781ZM42.9669 3.33153H42.6169V3.68153H42.9669V3.33153ZM22.5885 39.0289L22.8547 38.8017L22.8546 38.8016L22.5885 39.0289ZM22.4133 38.8189L22.6844 38.5975L22.6835 38.5964L22.4133 38.8189ZM22.633 39.0802L22.8963 38.8495L22.8961 38.8493L22.633 39.0802ZM22.6697 39.1221L22.9336 38.8921L22.933 38.8915L22.6697 39.1221ZM22.8146 39.2871L22.5545 39.5213L22.5546 39.5214L22.8146 39.2871ZM24.4011 40.989L24.1468 41.2295L24.1491 41.2319L24.4011 40.989ZM24.4122 40.9997L24.6663 40.759L24.6643 40.7569L24.4122 40.9997ZM30.9772 47.8231L30.726 48.0668L30.7361 48.0771L30.747 48.0866L30.9772 47.8231ZM30.9789 47.8245L31.2097 47.5614L31.2091 47.5609L30.9789 47.8245ZM30.9806 47.826L31.2318 47.5823L31.222 47.5722L31.2113 47.5628L30.9806 47.826ZM35.9725 52.9576L35.722 53.2021L35.9725 53.4588L36.223 53.2021L35.9725 52.9576ZM40.9644 47.826L41.2157 48.0696L41.2223 48.0628L41.2285 48.0557L40.9644 47.826ZM40.9676 47.8231L40.7164 47.5794L40.7102 47.5857L40.7044 47.5924L40.9676 47.8231ZM47.5321 41.0004L47.2903 40.7473L47.284 40.7534L47.278 40.7597L47.5321 41.0004ZM47.5349 40.9977L47.2967 40.7413L47.2931 40.7446L47.5349 40.9977ZM47.5371 40.9957L47.7753 41.2521L47.7835 41.2445L47.7912 41.2364L47.5371 40.9957ZM49.13 39.2869L48.8698 39.0529L48.8696 39.0531L49.13 39.2869ZM49.3389 39.049L49.0749 38.8192L49.0732 38.8212L49.3389 39.049ZM49.3492 39.0372L49.6131 39.2671L49.615 39.2648L49.3492 39.0372ZM49.5465 38.8008L49.2766 38.578L49.2754 38.5795L49.5465 38.8008ZM49.5593 38.7854L49.8292 39.0082L49.8309 39.0061L49.5593 38.7854ZM49.5639 38.7797L49.8355 39.0005L49.8355 39.0005L49.5639 38.7797ZM52.2094 30.276L51.8598 30.2917L51.8603 30.3037L51.8617 30.3156L52.2094 30.276ZM52.2093 30.2729L52.559 30.2572L52.5584 30.2451L52.557 30.2331L52.2093 30.2729ZM51.4451 27.481L51.763 27.3344L51.7613 27.3307L51.4451 27.481ZM45.8228 23.259L45.878 22.9134L45.8763 22.9131L45.8228 23.259ZM45.8093 23.2569L45.7545 23.6026L45.7558 23.6028L45.8093 23.2569ZM45.501 23.2142L45.5428 22.8667L45.5426 22.8666L45.501 23.2142ZM45.4029 23.2036L45.3652 23.5516L45.3659 23.5516L45.4029 23.2036ZM45.1557 23.1794L45.1836 22.8306L45.1832 22.8305L45.1557 23.1794ZM44.9978 23.1693L44.9777 23.5187L44.9778 23.5187L44.9978 23.1693ZM44.9692 23.1676L44.9474 23.517L44.9491 23.5171L44.9692 23.1676ZM44.9131 23.1641L44.8907 23.5134L44.8913 23.5135L44.9131 23.1641ZM44.7918 23.1574L44.7778 23.5071L44.778 23.5071L44.7918 23.1574ZM42.1164 23.4697L42.0218 23.1327L42.0135 23.1351L42.0053 23.1378L42.1164 23.4697ZM42.116 23.4699L42.1998 23.8097L42.2136 23.8063L42.2271 23.8017L42.116 23.4699ZM42.1154 23.47L42.0316 23.13L42.0211 23.1329L42.1154 23.47ZM37.2579 27.7669L36.9394 27.622L36.9385 27.6239L37.2579 27.7669ZM37.2317 27.8256L36.9122 27.6825L36.9121 27.6828L37.2317 27.8256ZM37.0578 28.2383L37.3836 28.3662L37.3836 28.3661L37.0578 28.2383ZM34.8872 28.2383L35.2131 28.1104L35.2107 28.1047L34.8872 28.2383ZM34.8829 28.2279L34.5573 28.3563L34.5594 28.3615L34.8829 28.2279ZM34.7167 27.8335L35.0364 27.6911L35.0359 27.69L34.7167 27.8335ZM34.6839 27.7606L35.0031 27.6171L35.0023 27.6153L34.6839 27.7606ZM29.8296 23.47L29.7194 23.8022L29.7273 23.8048L29.7353 23.8071L29.8296 23.47ZM29.8288 23.4697L29.939 23.1375L29.8853 23.1197H29.8288V23.4697ZM29.8286 23.4697L29.734 23.8067L29.7804 23.8197H29.8286V23.4697ZM27.5447 23.1496L27.5404 23.4996L27.5443 23.4996L27.5447 23.1496ZM27.5335 23.1494L27.5378 22.7994H27.5335V23.1494ZM27.1528 23.1574L27.1389 22.8076L27.1386 22.8076L27.1528 23.1574ZM27.028 23.1643L27.0439 23.514L27.0502 23.5136L27.028 23.1643ZM27.0278 23.1644L27.0119 22.8147L27.006 22.815L27.0278 23.1644ZM26.9797 23.1674L26.9994 23.5168L27.0016 23.5167L26.9797 23.1674ZM26.9625 23.1683L26.9821 23.5178L26.9822 23.5178L26.9625 23.1683ZM26.7885 23.1794L26.7609 22.8305L26.76 22.8306L26.7885 23.1794ZM26.5458 23.2032L26.5827 23.5513L26.5837 23.5511L26.5458 23.2032ZM26.5076 23.2072L26.5443 23.5553L26.5444 23.5553L26.5076 23.2072ZM26.4731 23.2109L26.4363 22.8628L26.434 22.8631L26.4731 23.2109ZM26.4426 23.2143L26.4035 22.8665L26.4006 22.8668L26.4426 23.2143ZM26.1393 23.2564L26.1916 23.6025L26.194 23.6021L26.1393 23.2564ZM26.12 23.2593L26.0677 22.9132L26.0646 22.9137L26.12 23.2593ZM20.5056 27.4685L20.1897 27.3177L20.188 27.3214L20.5056 27.4685ZM19.7354 30.2756L19.3877 30.2359L19.3854 30.2557V30.2756H19.7354ZM19.7354 30.2765L20.0832 30.3162L20.0854 30.2964V30.2765H19.7354ZM22.3744 38.7717L22.1026 38.9921L22.1043 38.9942L22.3744 38.7717ZM51.0493 40.6357L50.785 40.4063L50.2822 40.9857H51.0493V40.6357ZM68.6133 40.6357V40.9857H68.9633V40.6357H68.6133ZM51.0637 40.6184L50.7978 40.3905L50.7918 40.398L51.0637 40.6184ZM51.064 40.618L51.3298 40.8459L51.3359 40.8384L51.064 40.618ZM51.0783 40.6007L51.3428 40.83L51.3433 40.8294L51.0783 40.6007ZM54.6261 31.3096V30.9596H54.2729L54.2761 31.3128L54.6261 31.3096ZM68.6133 31.3096H68.9633V30.9596H68.6133V31.3096ZM42.9669 5.66306V5.31306H42.6169V5.66306H42.9669ZM42.9669 20.9085H42.6169V21.3058L43.0111 21.2557L42.9669 20.9085ZM44.4131 20.8174L44.4134 20.4674H44.4131V20.8174ZM44.8932 20.8271L44.915 20.4777L44.907 20.4774L44.8932 20.8271ZM44.9027 20.8277L44.9256 20.4784L44.9246 20.4784L44.9027 20.8277ZM44.909 20.8281L44.8861 21.1774L44.8917 21.1777L44.909 20.8281ZM44.9167 20.8285L44.8993 21.1781L44.9022 21.1782L44.9167 20.8285ZM54.3838 28.9778L54.0408 29.0477L54.0979 29.3278H54.3838V28.9778ZM66.2821 28.9778V29.3278H66.6321V28.9778H66.2821ZM66.2821 14.9887H66.6321V14.6387H66.2821V14.9887ZM66.2821 12.6574V13.0074H66.6321V12.6574H66.2821ZM66.2821 10.3258H66.6321V9.97583H66.2821V10.3258ZM66.2821 7.99444V8.34444H66.6321V7.99444H66.2821ZM40.6354 21.4844L40.7596 21.8117L40.9854 21.726V21.4844H40.6354ZM35.9724 25.2735L35.6796 25.4653L35.9723 25.912L36.2651 25.4653L35.9724 25.2735ZM31.3096 21.4843H30.9596V21.7258L31.1854 21.8115L31.3096 21.4843ZM31.3096 4.49722H31.6596V4.48691L31.659 4.47662L31.3096 4.49722ZM31.3094 4.49486H30.9594V4.50517L30.9601 4.51546L31.3094 4.49486ZM31.3094 3.33139V2.98139H30.9594V3.33139H31.3094ZM40.6354 3.33139H40.9854V2.98139H40.6354V3.33139ZM5.66292 28.9782H5.31292V29.3282H5.66292V28.9782ZM17.5607 28.9782V29.3282H17.8465L17.9036 29.0482L17.5607 28.9782ZM27.0333 20.8286L27.0252 20.4787L27.0191 20.4789L27.0333 20.8286ZM27.0511 20.8276L27.0374 20.4779L27.0348 20.478L27.0511 20.8276ZM27.5349 20.8179L27.535 20.4679H27.5349V20.8179ZM28.9779 20.909L28.9337 21.2562L29.3279 21.3064V20.909H28.9779ZM28.9779 5.66306H29.3279V5.31306H28.9779V5.66306ZM17.3185 31.3103L17.6685 31.3134L17.6716 30.9603H17.3185V31.3103ZM3.33139 31.3103V30.9603H2.98139V31.3103H3.33139ZM20.861 40.5947L21.1267 40.3669L21.126 40.3661L20.861 40.5947ZM20.8771 40.6142L20.6059 40.8354L20.6066 40.8363L20.8771 40.6142ZM20.8876 40.6269L20.6171 40.8491L20.6207 40.8534L20.8876 40.6269ZM20.8951 40.6358V40.9858H21.6512L21.162 40.4094L20.8951 40.6358ZM4.49653 40.6358V40.2858H4.48801L4.47951 40.2862L4.49653 40.6358ZM4.49073 40.6361L4.47371 40.2865L4.47356 40.2865L4.49073 40.6361ZM4.48514 40.6364V40.9864H4.49373L4.50231 40.986L4.48514 40.6364ZM3.33139 40.6364H2.98139V40.9864H3.33139V40.6364ZM6.82806 66.2824V66.6324H7.17806V66.2824H6.82806ZM6.82806 66.2822V65.9322H6.47806V66.2822H6.82806ZM28.9775 66.2822V66.6322H29.3275V66.2822H28.9775ZM28.9775 49.1101H29.3275V48.9683L29.2287 48.8665L28.9775 49.1101ZM28.7579 48.8838L28.5066 49.1273L28.5067 49.1274L28.7579 48.8838ZM23.064 42.9678L23.3177 42.7266L23.2142 42.6178H23.064V42.9678ZM5.66236 42.9678V42.6178H5.31236V42.9678H5.66236ZM5.66236 56.9567H5.31236V57.3067H5.66236V56.9567ZM5.66236 59.2881V58.9381H5.31236V59.2881H5.66236ZM5.66236 61.6196H5.31236V61.9696H5.66236V61.6196ZM5.66236 63.951V63.601H5.31236V63.951H5.66236ZM31.3094 68.6139H30.9594V68.9639H31.3094V68.6139ZM40.6354 68.6139V68.9639H40.9854V68.6139H40.6354ZM31.3094 51.5117L31.5604 51.2677L30.9594 50.6497V51.5117H31.3094ZM35.141 55.4419L34.8913 55.6873L34.8914 55.6873L35.141 55.4419ZM35.9951 55.7894L36.0019 56.1394H36.0019L35.9951 55.7894ZM36.8035 55.4424L37.0529 55.6878L37.053 55.6878L36.8035 55.4424ZM37.5612 54.6676L37.3108 54.4231L37.3108 54.4232L37.5612 54.6676ZM40.6354 51.5115H40.9854V50.6495L40.3845 51.2675L40.6354 51.5115ZM66.2821 42.9678H66.6321V42.6178H66.2821V42.9678ZM48.8807 42.9678V42.6178H48.7305L48.627 42.7266L48.8807 42.9678ZM43.1867 48.8839L43.438 49.1275L43.438 49.1275L43.1867 48.8839ZM42.9669 49.1106L42.7156 48.8669L42.6169 48.9688V49.1106H42.9669ZM42.9669 66.2828H42.6169V66.6328H42.9669V66.2828ZM69.7792 28.6282H68.6136V29.3282H69.7792V28.6282ZM71.2949 30.144C71.2949 29.3067 70.6162 28.6282 69.7792 28.6282V29.3282C70.2296 29.3282 70.5949 29.6933 70.5949 30.144H71.2949ZM71.2949 41.8015V30.144H70.5949V41.8015H71.2949ZM69.7792 43.3172C70.6164 43.3172 71.2949 42.6385 71.2949 41.8015H70.5949C70.5949 42.252 70.2297 42.6172 69.7792 42.6172V43.3172ZM68.6136 43.3172H69.7792V42.6172H68.6136V43.3172ZM68.9636 65.1167V42.9672H68.2636V65.1167H68.9636ZM65.1164 68.9639C67.2414 68.9639 68.9636 67.241 68.9636 65.1167H68.2636C68.2636 66.8545 66.8547 68.2639 65.1164 68.2639V68.9639ZM42.9668 68.9639H65.1164V68.2639H42.9668V68.9639ZM43.3168 69.7792V68.6139H42.6168V69.7792H43.3168ZM41.8011 71.2949C42.6383 71.2949 43.3168 70.6162 43.3168 69.7792H42.6168C42.6168 70.2296 42.2517 70.5949 41.8011 70.5949V71.2949ZM30.1436 71.2949H41.8011V70.5949H30.1436V71.2949ZM28.6279 69.7792C28.6279 70.6164 29.3066 71.2949 30.1436 71.2949V70.5949C29.6931 70.5949 29.3279 70.2297 29.3279 69.7792H28.6279ZM28.6279 68.6135V69.7792H29.3279V68.6135H28.6279ZM6.82806 68.9635H28.9779V68.2635H6.82806V68.9635ZM2.98083 65.1162C2.98083 67.2412 4.70368 68.9635 6.82806 68.9635V68.2635C5.09021 68.2635 3.68083 66.8546 3.68083 65.1162H2.98083ZM2.98083 42.9675V65.1162H3.68083V42.9675H2.98083ZM2.16569 43.3175H3.33083V42.6175H2.16569V43.3175ZM0.65 41.8018C0.65 42.639 1.32867 43.3175 2.16569 43.3175V42.6175C1.71522 42.6175 1.35 42.2524 1.35 41.8018H0.65ZM0.65 30.1443V41.8018H1.35V30.1443H0.65ZM2.16569 28.6286C1.32848 28.6286 0.65 29.3073 0.65 30.1443H1.35C1.35 29.6938 1.71513 29.3286 2.16569 29.3286V28.6286ZM3.33139 28.6286H2.16569V29.3286H3.33139V28.6286ZM2.98139 6.82861V28.9786H3.68139V6.82861H2.98139ZM6.82861 2.98139C4.70337 2.98139 2.98139 4.70337 2.98139 6.82861H3.68139C3.68139 5.08997 5.08997 3.68139 6.82861 3.68139V2.98139ZM28.9781 2.98139H6.82861V3.68139H28.9781V2.98139ZM28.6281 2.16569V3.33139H29.3281V2.16569H28.6281ZM30.1437 0.65C29.3065 0.65 28.6281 1.32867 28.6281 2.16569H29.3281C29.3281 1.71522 29.6932 1.35 30.1437 1.35V0.65ZM41.8013 0.65H30.1437V1.35H41.8013V0.65ZM43.3169 2.16569C43.3169 1.32848 42.6383 0.65 41.8013 0.65V1.35C42.2517 1.35 42.6169 1.71513 42.6169 2.16569H43.3169ZM43.3169 3.33153V2.16569H42.6169V3.33153H43.3169ZM65.1164 2.98153H42.9669V3.68153H65.1164V2.98153ZM68.9636 6.82875C68.9636 4.70351 67.2416 2.98153 65.1164 2.98153V3.68153C66.855 3.68153 68.2636 5.09011 68.2636 6.82875H68.9636ZM68.9636 28.9782V6.82875H68.2636V28.9782H68.9636ZM22.8546 38.8016C22.7972 38.7343 22.7406 38.6664 22.6844 38.5975L22.1422 39.0403C22.201 39.1123 22.2609 39.1843 22.3224 39.2562L22.8546 38.8016ZM22.8961 38.8493C22.8812 38.8324 22.8677 38.8169 22.8547 38.8017L22.3222 39.2561C22.3386 39.2752 22.3549 39.2938 22.3699 39.311L22.8961 38.8493ZM22.933 38.8915L22.8963 38.8495L22.3697 39.3108L22.4065 39.3527L22.933 38.8915ZM23.0746 39.0528C23.028 39.001 22.9834 38.9492 22.9336 38.8921L22.4059 39.352C22.4522 39.4052 22.5028 39.4639 22.5545 39.5213L23.0746 39.0528ZM24.6554 40.7486C23.9214 39.9723 23.3919 39.4047 23.0745 39.0527L22.5546 39.5214C22.8781 39.8803 23.4128 40.4532 24.1468 41.2295L24.6554 40.7486ZM24.6643 40.7569C24.6589 40.7513 24.6542 40.7468 24.6509 40.7436C24.6479 40.7407 24.6451 40.7381 24.6444 40.7375C24.6432 40.7364 24.6441 40.7372 24.6453 40.7384C24.6468 40.7398 24.6496 40.7425 24.6532 40.7462L24.1491 41.2319C24.1544 41.2374 24.1591 41.242 24.1624 41.2451C24.1655 41.248 24.1683 41.2506 24.1689 41.2512C24.1701 41.2524 24.1692 41.2515 24.168 41.2504C24.1666 41.249 24.1637 41.2463 24.1602 41.2425L24.6643 40.7569ZM31.2284 47.5794C28.5538 44.8223 26.2159 42.3941 24.6663 40.759L24.1582 41.2405C25.7107 42.8787 28.0509 45.3091 30.726 48.0668L31.2284 47.5794ZM31.2091 47.5609L31.2075 47.5595L30.747 48.0866L30.7486 48.0881L31.2091 47.5609ZM31.2113 47.5628L31.2097 47.5614L30.7481 48.0876L30.7498 48.0891L31.2113 47.5628ZM36.223 52.7132C35.0516 51.5129 32.9806 49.3855 31.2318 47.5823L30.7293 48.0696C32.4786 49.8734 34.5501 52.0013 35.722 53.2021L36.223 52.7132ZM40.7132 47.5823C38.9644 49.3855 36.8934 51.5129 35.722 52.7132L36.223 53.2021C37.3949 52.0013 39.4664 49.8734 41.2157 48.0696L40.7132 47.5823ZM40.7044 47.5924C40.7167 47.5784 40.7277 47.5681 40.7347 47.5619C40.7383 47.5588 40.7412 47.5563 40.7429 47.5549C40.7444 47.5536 40.7457 47.5526 40.7453 47.5529C40.7452 47.553 40.7448 47.5533 40.7443 47.5537C40.7437 47.5542 40.7428 47.5549 40.7418 47.5558C40.7397 47.5575 40.7365 47.5602 40.7326 47.5637C40.7249 47.5706 40.7132 47.5815 40.7004 47.5963L41.2285 48.0557C41.2162 48.0699 41.205 48.0803 41.1978 48.0867C41.1942 48.0899 41.1913 48.0924 41.1895 48.0939C41.1878 48.0953 41.1865 48.0964 41.1868 48.0961C41.1868 48.0961 41.1869 48.096 41.1871 48.0959C41.1872 48.0958 41.1874 48.0956 41.1877 48.0954C41.1882 48.095 41.189 48.0943 41.1901 48.0934C41.192 48.0918 41.1952 48.0891 41.199 48.0858C41.2066 48.079 41.2181 48.0683 41.2309 48.0537L40.7044 47.5924ZM47.278 40.7597C45.7699 42.352 43.5507 44.6564 40.7164 47.5794L41.2189 48.0667C44.0535 45.1434 46.2751 42.8366 47.7862 41.2411L47.278 40.7597ZM47.2931 40.7446L47.2903 40.7473L47.7738 41.2535L47.7766 41.2508L47.2931 40.7446ZM47.2989 40.7393L47.2967 40.7413L47.7731 41.2542L47.7753 41.2521L47.2989 40.7393ZM48.8696 39.0531C48.5491 39.4098 48.0139 39.9835 47.283 40.755L47.7912 41.2364C48.5222 40.4648 49.0631 39.8852 49.3904 39.5208L48.8696 39.0531ZM49.0732 38.8212C49.0064 38.899 48.9387 38.9763 48.8698 39.0529L49.3902 39.521C49.463 39.4401 49.5344 39.3587 49.6046 39.2768L49.0732 38.8212ZM49.0852 38.8074L49.0749 38.8192L49.6029 39.2789L49.6131 39.2671L49.0852 38.8074ZM49.2754 38.5795C49.2121 38.6571 49.1482 38.7338 49.0833 38.8096L49.615 39.2648C49.684 39.1842 49.7515 39.1032 49.8177 39.0221L49.2754 38.5795ZM49.2894 38.5625L49.2767 38.578L49.8164 39.0237L49.8292 39.0082L49.2894 38.5625ZM49.2923 38.559L49.2877 38.5646L49.8309 39.0061L49.8355 39.0005L49.2923 38.559ZM51.8617 30.3156C52.1804 33.1122 51.3002 36.088 49.2923 38.559L49.8355 39.0005C51.9531 36.3945 52.8988 33.2336 52.5572 30.2363L51.8617 30.3156ZM51.8597 30.2886L51.8598 30.2917L52.5591 30.2603L52.559 30.2572L51.8597 30.2886ZM51.1273 27.6276C51.498 28.4313 51.7494 29.3322 51.8616 30.3127L52.557 30.2331C52.437 29.1833 52.1667 28.2098 51.763 27.3344L51.1273 27.6276ZM45.7675 23.6046C48.2951 24.0088 50.1384 25.5467 51.129 27.6312L51.7613 27.3307C50.6785 25.0524 48.6485 23.3564 45.878 22.9134L45.7675 23.6046ZM45.7558 23.6028L45.7693 23.6049L45.8763 22.9131L45.8628 22.9111L45.7558 23.6028ZM45.4591 23.5617C45.559 23.5737 45.6576 23.5873 45.7545 23.6026L45.8641 22.9113C45.7577 22.8944 45.6505 22.8796 45.5428 22.8667L45.4591 23.5617ZM45.3659 23.5516C45.4029 23.5556 45.4299 23.5582 45.4594 23.5617L45.5426 22.8666C45.5071 22.8624 45.4682 22.8586 45.4399 22.8556L45.3659 23.5516ZM45.1277 23.5283C45.2057 23.5346 45.2836 23.5427 45.3652 23.5516L45.4407 22.8557C45.3583 22.8467 45.2721 22.8377 45.1836 22.8306L45.1277 23.5283ZM44.9778 23.5187C45.0313 23.5218 45.0803 23.5246 45.1282 23.5284L45.1832 22.8305C45.1266 22.8261 45.07 22.8228 45.0178 22.8199L44.9778 23.5187ZM44.9491 23.5171L44.9777 23.5187L45.0179 22.8199L44.9892 22.8182L44.9491 23.5171ZM44.8913 23.5135L44.9474 23.517L44.991 22.8183L44.9349 22.8148L44.8913 23.5135ZM44.778 23.5071C44.8138 23.5085 44.8498 23.5108 44.8907 23.5134L44.9355 22.8149C44.896 22.8123 44.8514 22.8094 44.8056 22.8076L44.778 23.5071ZM44.4128 23.4994C44.5351 23.4994 44.6565 23.5022 44.7778 23.5071L44.8058 22.8076C44.6766 22.8025 44.5457 22.7994 44.4128 22.7994V23.4994ZM44.4114 23.4994H44.4128V22.7994H44.4114V23.4994ZM42.211 23.8067C42.9342 23.6037 43.658 23.4994 44.4114 23.4994V22.7994C43.5912 22.7994 42.8039 22.9132 42.0218 23.1327L42.211 23.8067ZM42.2271 23.8017L42.2275 23.8016L42.0053 23.1378L42.0048 23.138L42.2271 23.8017ZM42.1992 23.8098L42.1998 23.8097L42.0322 23.13L42.0316 23.1302L42.1992 23.8098ZM37.5765 27.9119C38.524 25.8301 40.1287 24.3892 42.2097 23.8071L42.0211 23.1329C39.7232 23.7758 37.9643 25.3699 36.9394 27.622L37.5765 27.9119ZM37.5511 27.9686L37.5773 27.91L36.9385 27.6239L36.9122 27.6825L37.5511 27.9686ZM37.3836 28.3661C37.4362 28.232 37.4925 28.0999 37.5512 27.9683L36.9121 27.6828C36.8501 27.8217 36.7894 27.9641 36.7319 28.1106L37.3836 28.3661ZM35.9725 29.3282C36.5473 29.3282 37.1321 29.007 37.3836 28.3662L36.732 28.1105C36.5962 28.4563 36.2894 28.6282 35.9725 28.6282V29.3282ZM34.5614 28.3662C34.8129 29.007 35.3977 29.3282 35.9725 29.3282V28.6282C35.6556 28.6282 35.3488 28.4563 35.213 28.1105L34.5614 28.3662ZM34.5594 28.3615L34.5637 28.3719L35.2107 28.1047L35.2064 28.0943L34.5594 28.3615ZM34.3969 27.9758C34.453 28.1018 34.5068 28.2282 34.5573 28.3563L35.2085 28.0996C35.1535 27.9599 35.0956 27.824 35.0364 27.6911L34.3969 27.9758ZM34.3647 27.904L34.3974 27.977L35.0359 27.69L35.0031 27.6171L34.3647 27.904ZM29.7353 23.8071C31.8141 24.3887 33.4177 25.8273 34.3654 27.9058L35.0023 27.6153C33.977 25.3668 32.2193 23.7752 29.9239 23.1329L29.7353 23.8071ZM29.7185 23.8019L29.7194 23.8022L29.9398 23.1378L29.939 23.1375L29.7185 23.8019ZM29.8286 23.8197H29.8288V23.1197H29.8286V23.8197ZM27.5443 23.4996C28.2939 23.5005 29.0143 23.6046 29.734 23.8067L29.9232 23.1327C29.1449 22.9142 28.3611 22.8006 27.5452 22.7996L27.5443 23.4996ZM27.5291 23.4994L27.5404 23.4996L27.5491 22.7996L27.5378 22.7995L27.5291 23.4994ZM27.1667 23.5071C27.2885 23.5022 27.4106 23.4994 27.5335 23.4994V22.7994C27.4 22.7994 27.2685 22.8025 27.1389 22.8076L27.1667 23.5071ZM27.0502 23.5136C27.0923 23.511 27.1297 23.5086 27.167 23.5071L27.1386 22.8076C27.0919 22.8095 27.0465 22.8125 27.0057 22.8151L27.0502 23.5136ZM27.0437 23.514L27.0438 23.514L27.0121 22.8147L27.0119 22.8147L27.0437 23.514ZM27.0016 23.5167L27.0497 23.5137L27.006 22.815L26.9579 22.818L27.0016 23.5167ZM26.9822 23.5178L26.9994 23.5168L26.96 22.8179L26.9427 22.8189L26.9822 23.5178ZM26.8161 23.5284C26.869 23.5242 26.9233 23.5211 26.9821 23.5178L26.9428 22.8189C26.8853 22.8221 26.823 22.8256 26.7609 22.8305L26.8161 23.5284ZM26.5837 23.5511C26.6631 23.5425 26.74 23.5346 26.8169 23.5283L26.76 22.8306C26.6736 22.8377 26.5894 22.8464 26.508 22.8552L26.5837 23.5511ZM26.5444 23.5553L26.5827 23.5513L26.509 22.8551L26.4708 22.8592L26.5444 23.5553ZM26.5098 23.5589L26.5443 23.5553L26.4708 22.8592L26.4363 22.8628L26.5098 23.5589ZM26.4818 23.5621L26.5122 23.5587L26.434 22.8631L26.4035 22.8665L26.4818 23.5621ZM26.194 23.6021C26.2894 23.587 26.3863 23.5737 26.4847 23.5618L26.4006 22.8668C26.2948 22.8796 26.1895 22.8941 26.0846 22.9107L26.194 23.6021ZM26.1723 23.6054L26.1916 23.6025L26.087 22.9103L26.0677 22.9132L26.1723 23.6054ZM20.8214 27.6192C21.8132 25.5415 23.6536 24.0088 26.1754 23.6049L26.0646 22.9137C23.3006 23.3564 21.2738 25.0466 20.1897 27.3177L20.8214 27.6192ZM20.0832 30.3152C20.1957 29.3289 20.4491 28.4232 20.8232 27.6156L20.188 27.3214C19.7806 28.201 19.5082 29.1797 19.3877 30.2359L20.0832 30.3152ZM20.0854 30.2765V30.2756H19.3854V30.2765H20.0854ZM22.6463 38.5512C20.643 36.0814 19.7649 33.1087 20.0832 30.3162L19.3877 30.2369C19.0465 33.2299 19.99 36.3875 22.1026 38.9921L22.6463 38.5512ZM22.6835 38.5964L22.6446 38.5492L22.1043 38.9942L22.1432 39.0414L22.6835 38.5964ZM51.0493 40.9857H68.6133V40.2857H51.0493V40.9857ZM50.7918 40.398C50.7892 40.4011 50.7878 40.4029 50.7865 40.4044C50.7853 40.4059 50.7849 40.4064 50.785 40.4063L51.3137 40.8651C51.3231 40.8542 51.3316 40.8437 51.3356 40.8387L50.7918 40.398ZM50.7981 40.3904L50.7979 40.3906L51.3294 40.8461L51.3296 40.846L50.7981 40.3904ZM50.7982 40.3903L50.7981 40.3904L51.3296 40.846L51.3297 40.8458L50.7982 40.3903ZM50.8139 40.3714C50.8045 40.3823 50.7961 40.3927 50.792 40.3977L51.3359 40.8384C51.3384 40.8353 51.3399 40.8335 51.3412 40.8319C51.3423 40.8305 51.3428 40.83 51.3428 40.83L50.8139 40.3714ZM54.2761 31.3128C54.3035 34.3391 53.2146 37.5908 50.8134 40.372L51.3433 40.8294C53.854 37.9214 55.0051 34.5054 54.9761 31.3064L54.2761 31.3128ZM67.4478 30.9596H54.6261V31.6596H67.4478V30.9596ZM68.6133 30.9596H67.4478V31.6596H68.6133V30.9596ZM68.9633 40.6357V31.3096H68.2633V40.6357H68.9633ZM65.1164 6.01306C65.5674 6.01306 65.9321 6.37775 65.9321 6.82875H66.6321C66.6321 5.99114 65.954 5.31306 65.1164 5.31306V6.01306ZM42.9669 6.01306H65.1164V5.31306H42.9669V6.01306ZM43.3169 20.9085V5.66306H42.6169V20.9085H43.3169ZM44.4113 20.4674C43.9016 20.4674 43.4055 20.4998 42.9228 20.5613L43.0111 21.2557C43.4648 21.1979 43.9314 21.1674 44.4113 21.1674V20.4674ZM44.4131 20.4674H44.4113V21.1674H44.4131V20.4674ZM44.907 20.4774C44.7441 20.4709 44.5798 20.4675 44.4134 20.4674L44.4128 21.1674C44.5699 21.1675 44.7253 21.1707 44.8794 21.1768L44.907 20.4774ZM44.9246 20.4784L44.915 20.4778L44.8714 21.1764L44.8809 21.177L44.9246 20.4784ZM44.9319 20.4788L44.9256 20.4784L44.8798 21.1769L44.8861 21.1773L44.9319 20.4788ZM44.934 20.4789L44.9264 20.4785L44.8917 21.1777L44.8993 21.178L44.934 20.4789ZM54.7267 28.9078C53.7963 24.348 50.3082 20.7005 44.9311 20.4788L44.9022 21.1782C49.9204 21.3851 53.167 24.7651 54.0408 29.0477L54.7267 28.9078ZM66.2821 28.6278H54.3838V29.3278H66.2821V28.6278ZM65.9321 14.9887V28.9778H66.6321V14.9887H65.9321ZM60.4533 15.3387H66.2821V14.6387H60.4533V15.3387ZM58.9376 13.8231C58.9376 14.6601 59.6163 15.3387 60.4533 15.3387V14.6387C60.0029 14.6387 59.6376 14.2735 59.6376 13.8231H58.9376ZM60.4533 12.3074C59.6161 12.3074 58.9376 12.986 58.9376 13.8231H59.6376C59.6376 13.3726 60.0028 13.0074 60.4533 13.0074V12.3074ZM66.2821 12.3074H60.4533V13.0074H66.2821V12.3074ZM65.9321 10.3258V12.6574H66.6321V10.3258H65.9321ZM55.7903 10.6758H66.2821V9.97583H55.7903V10.6758ZM54.2746 9.16014C54.2746 9.99735 54.9533 10.6758 55.7903 10.6758V9.97583C55.3398 9.97583 54.9746 9.6107 54.9746 9.16014H54.2746ZM55.7903 7.64444C54.9531 7.64444 54.2746 8.32312 54.2746 9.16014H54.9746C54.9746 8.70966 55.3397 8.34444 55.7903 8.34444V7.64444ZM66.2821 7.64444H55.7903V8.34444H66.2821V7.64444ZM65.9321 6.82875V7.99444H66.6321V6.82875H65.9321ZM40.9854 4.49722V3.33153H40.2854V4.49722H40.9854ZM40.9854 21.4844V4.49722H40.2854V21.4844H40.9854ZM36.2651 25.4653C37.3758 23.7706 38.9076 22.5147 40.7596 21.8117L40.5112 21.1572C38.5149 21.915 36.8675 23.2691 35.6796 25.0816L36.2651 25.4653ZM31.1854 21.8115C33.0373 22.5144 34.5689 23.7703 35.6796 25.4653L36.2651 25.0816C35.0772 23.2689 33.4302 21.9148 31.4338 21.1571L31.1854 21.8115ZM30.9596 4.49722V21.4843H31.6596V4.49722H30.9596ZM30.9601 4.51546L30.9602 4.51782L31.659 4.47662L31.6588 4.47426L30.9601 4.51546ZM30.9594 3.33139V4.49486H31.6594V3.33139H30.9594ZM40.6354 2.98139H31.3094V3.68139H40.6354V2.98139ZM40.9854 3.33153V3.33139H40.2854V3.33153H40.9854ZM6.01292 6.82875C6.01292 6.37774 6.37761 6.01306 6.82861 6.01306V5.31306C5.99101 5.31306 5.31292 5.99114 5.31292 6.82875H6.01292ZM6.01292 28.9782V6.82875H5.31292V28.9782H6.01292ZM17.5607 28.6282H5.66292V29.3282H17.5607V28.6282ZM27.0191 20.4789C21.6387 20.6982 18.1485 24.3467 17.2178 28.9082L17.9036 29.0482C18.7778 24.7639 22.0263 21.3829 27.0476 21.1783L27.0191 20.4789ZM27.0348 20.478C27.0306 20.4782 27.0271 20.4784 27.0246 20.4786C27.0234 20.4787 27.0223 20.4787 27.0215 20.4788C27.0205 20.4788 27.0201 20.4789 27.0196 20.4789C27.0175 20.479 27.0205 20.4788 27.0252 20.4787L27.0415 21.1785C27.0521 21.1783 27.0611 21.1777 27.0648 21.1774C27.068 21.1772 27.0673 21.1773 27.0687 21.1772C27.0692 21.1772 27.0686 21.1772 27.0674 21.1773L27.0348 20.478ZM27.5333 20.4679C27.3658 20.4679 27.2006 20.4715 27.0374 20.4779L27.0649 21.1774C27.2197 21.1713 27.3758 21.1679 27.5333 21.1679V20.4679ZM27.5335 20.4679H27.5333V21.1679H27.5335V20.4679ZM27.5336 20.4679H27.5335V21.1679H27.5336V20.4679ZM27.5349 20.4679H27.5336V21.1679H27.5349V20.4679ZM29.0221 20.5618C28.5398 20.5004 28.0441 20.4681 27.535 20.4679L27.5348 21.1679C28.0143 21.1681 28.4805 21.1985 28.9337 21.2562L29.0221 20.5618ZM28.6279 5.66306V20.909H29.3279V5.66306H28.6279ZM6.82861 6.01306H28.9779V5.31306H6.82861V6.01306ZM17.3185 30.9603H3.33139V31.6603H17.3185V30.9603ZM21.126 40.3661C18.7285 37.5865 17.6413 34.3373 17.6685 31.3134L16.9685 31.3071C16.9398 34.5035 18.089 37.9169 20.5959 40.8233L21.126 40.3661ZM21.1483 40.3929C21.1435 40.387 21.1355 40.3771 21.1267 40.3669L20.5953 40.8225C20.5975 40.8252 20.6001 40.8283 20.6059 40.8354L21.1483 40.3929ZM21.158 40.4048L21.1476 40.392L20.6066 40.8363L20.6171 40.849L21.158 40.4048ZM21.162 40.4094L21.1544 40.4004L20.6207 40.8534L20.6283 40.8623L21.162 40.4094ZM4.49653 40.9858H20.8951V40.2858H4.49653V40.9858ZM4.50775 40.9857L4.51355 40.9854L4.47951 40.2862L4.47371 40.2865L4.50775 40.9857ZM4.50231 40.986L4.5079 40.9857L4.47356 40.2865L4.46796 40.2868L4.50231 40.986ZM3.33139 40.9864H4.48514V40.2864H3.33139V40.9864ZM2.98139 31.3103V40.6364H3.68139V31.3103H2.98139ZM6.82806 65.9324C6.37772 65.9324 6.01236 65.5671 6.01236 65.1167H5.31236C5.31236 65.9537 5.99117 66.6324 6.82806 66.6324V65.9324ZM6.47806 66.2822V66.2824H7.17806V66.2822H6.47806ZM28.9775 65.9322H6.82806V66.6322H28.9775V65.9322ZM28.6275 49.1101V66.2822H29.3275V49.1101H28.6275ZM28.5067 49.1274L28.7263 49.3538L29.2287 48.8665L29.0092 48.6401L28.5067 49.1274ZM22.8104 43.2089C24.2051 44.6761 26.1488 46.6946 28.5066 49.1273L29.0092 48.6402C26.652 46.2079 24.7101 44.1914 23.3177 42.7266L22.8104 43.2089ZM5.66236 43.3178H23.064V42.6178H5.66236V43.3178ZM6.01236 56.9567V42.9678H5.31236V56.9567H6.01236ZM11.4917 56.6067H5.66236V57.3067H11.4917V56.6067ZM13.0074 58.1224C13.0074 57.2853 12.3287 56.6067 11.4917 56.6067V57.3067C11.9421 57.3067 12.3074 57.6719 12.3074 58.1224H13.0074ZM11.4917 59.6381C12.3289 59.6381 13.0074 58.9594 13.0074 58.1224H12.3074C12.3074 58.5728 11.9422 58.9381 11.4917 58.9381V59.6381ZM5.66236 59.6381H11.4917V58.9381H5.66236V59.6381ZM6.01236 61.6196V59.2881H5.31236V61.6196H6.01236ZM16.1546 61.2696H5.66236V61.9696H16.1546V61.2696ZM17.6703 62.7853C17.6703 61.9481 16.9916 61.2696 16.1546 61.2696V61.9696C16.6051 61.9696 16.9703 62.3347 16.9703 62.7853H17.6703ZM16.1546 64.301C16.9918 64.301 17.6703 63.6223 17.6703 62.7853H16.9703C16.9703 63.2358 16.6051 63.601 16.1546 63.601V64.301ZM5.66236 64.301H16.1546V63.601H5.66236V64.301ZM6.01236 65.1167V63.951H5.31236V65.1167H6.01236ZM31.3094 68.9639H40.6354V68.2639H31.3094V68.9639ZM30.9594 51.5117V68.6139H31.6594V51.5117H30.9594ZM35.3906 55.1966C34.9075 54.705 33.3096 53.0667 31.5604 51.2677L31.0585 51.7557C32.8076 53.5544 34.4067 55.1941 34.8913 55.6873L35.3906 55.1966ZM35.9884 55.4395C35.7708 55.4437 35.554 55.3629 35.3906 55.1966L34.8914 55.6873C35.1962 55.9974 35.6014 56.1471 36.0019 56.1394L35.9884 55.4395ZM36.554 55.1969C36.3985 55.3548 36.1951 55.4355 35.9884 55.4395L36.0019 56.1394C36.3827 56.132 36.7631 55.9824 37.0529 55.6878L36.554 55.1969ZM37.3108 54.4232C36.9546 54.7881 36.6888 55.0598 36.554 55.1969L37.053 55.6878C37.1889 55.5496 37.4557 55.2769 37.8117 54.9121L37.3108 54.4232ZM40.3845 51.2675C39.1852 52.501 38.0576 53.6583 37.3108 54.4231L37.8117 54.9122C38.5588 54.1469 39.6868 52.9893 40.8864 51.7555L40.3845 51.2675ZM40.9854 67.4486V51.5115H40.2854V67.4486H40.9854ZM40.9854 68.6139V67.4486H40.2854V68.6139H40.9854ZM65.9321 65.1171C65.9321 65.5674 65.5668 65.9328 65.1164 65.9328V66.6328C65.9535 66.6328 66.6321 65.954 66.6321 65.1171H65.9321ZM65.9321 42.9678V65.1171H66.6321V42.9678H65.9321ZM48.8807 43.3178H66.2821V42.6178H48.8807V43.3178ZM43.438 49.1275C45.7957 46.6946 47.7396 44.6761 49.1344 43.2089L48.627 42.7266C47.2346 44.1914 45.2926 46.2079 42.9353 48.6403L43.438 49.1275ZM43.2183 49.3542L43.438 49.1275L42.9354 48.6403L42.7156 48.8669L43.2183 49.3542ZM43.3169 66.2828V49.1106H42.6169V66.2828H43.3169ZM65.1164 65.9328H42.9669V66.6328H65.1164V65.9328Z" fill="white"/>
</svg>
