<svg width="95" height="71" viewBox="0 0 95 71" fill="none" xmlns="http://www.w3.org/2000/svg">
<path fill-rule="evenodd" clip-rule="evenodd" d="M43.749 7.39182C44.8573 5.13837 46.8017 3.77608 50.5075 2.68585C51.2462 2.46954 52.0623 2.20801 52.8736 1.94799C56.0129 0.941948 59.0812 -0.0413513 57.3199 1.7056C55.5936 3.43099 53.8322 4.43021 51.2156 5.17535C47.6549 6.17456 46.2016 7.24677 45.7655 9.1722C45.4934 10.3714 45.7475 12.0788 46.3836 13.4781L46.8197 14.4593L50.2534 14.5683C54.1772 14.6954 57.1938 15.0224 61.8989 15.7856C75.2527 18.002 85.4808 22.835 90.3328 29.2294C91.532 30.8098 92.9133 33.6804 93.4034 35.5878C93.9125 37.6223 94.0396 41.7651 93.7665 46.6701C93.0764 58.6797 90.7329 65.9102 86.645 68.6358C85.1737 69.617 84.0654 69.926 81.994 69.926C78.0332 69.926 74.8725 68.7087 72.0559 66.0922C70.4576 64.6029 69.2944 63.0036 66.5148 58.4256C65.3155 56.4452 63.9343 54.3188 63.4621 53.7016C60.0464 49.2317 56.1226 47.1972 49.8543 46.6521C44.4581 46.18 39.4801 47.2153 35.9193 49.5047C32.9577 51.4302 31.3954 53.1745 27.4346 59.0247C23.5278 64.7839 22.1655 66.3463 19.6219 67.9636C16.4252 69.999 12.0463 70.5441 9.39376 69.2358C4.25171 66.7113 1.03602 55.974 1 41.3119C1 37.3691 1.03602 36.788 1.40006 35.3527C3.05246 28.9213 7.32234 24.2523 14.9529 20.5996C21.4753 17.4749 30.1961 15.4585 40.5153 14.6954L40.7501 14.6795C42.0107 14.594 43.2018 14.5133 43.4589 14.5133H43.9491L43.568 13.4601C43.2589 12.66 43.1679 11.9878 43.1679 10.5165C43.1499 8.70008 43.1859 8.53608 43.749 7.39182ZM89.9498 37.3151C88.2424 27.523 75.9248 20.8186 55.5945 18.6021C53.069 18.3291 44.6572 18.1111 42.1507 18.2571C26.8525 19.1653 15.7161 22.618 9.75685 28.3042C6.99527 30.9387 5.596 33.4453 4.88783 37.043C4.7788 37.5881 4.70581 39.6776 4.70581 41.676C4.74183 52.5223 6.48619 61.3332 9.26578 64.6948C9.99291 65.585 11.4642 66.2932 12.5545 66.2932C15.5341 66.2932 18.3867 64.8389 20.6202 62.1513C21.1833 61.4782 22.6366 59.4618 23.8359 57.6634C26.7975 53.2485 27.7967 51.9582 29.6131 50.0508C33.1198 46.399 36.9536 44.3096 42.0767 43.2743C44.3652 42.8202 50.6335 42.8202 52.959 43.2924C57.9011 44.2736 61.0257 45.8899 64.3144 49.1966C66.2948 51.195 67.7301 53.1394 70.0376 57.0273C72.7632 61.6052 74.3255 63.5307 76.3239 64.7119C78.0863 65.7481 79.6846 66.1842 81.8471 66.2022C83.5184 66.2022 83.7365 66.1652 84.5176 65.7111C87.0972 64.1857 88.7136 59.9879 89.6768 52.3033C90.0588 49.1966 90.2408 39.0045 89.9498 37.3151Z" fill="#232323"/>
<path d="M50.5075 2.68585L50.3663 2.20618L50.3669 2.206L50.5075 2.68585ZM43.749 7.39182L44.1977 7.61247L44.1976 7.61259L43.749 7.39182ZM52.8736 1.94799L52.721 1.47184L52.8736 1.94799ZM57.3199 1.7056L56.9665 1.35194L56.9678 1.3506L57.3199 1.7056ZM51.2156 5.17535L51.3526 5.65623L51.3507 5.65675L51.2156 5.17535ZM45.7655 9.1722L46.2531 9.28264L46.2531 9.28282L45.7655 9.1722ZM46.3836 13.4781L46.8388 13.2712L46.8405 13.275L46.3836 13.4781ZM46.8197 14.4593L46.8038 14.959L46.4902 14.9491L46.3628 14.6624L46.8197 14.4593ZM50.2534 14.5683L50.2693 14.0686L50.2696 14.0686L50.2534 14.5683ZM61.8989 15.7856L61.9789 15.292L61.9807 15.2923L61.8989 15.7856ZM90.3328 29.2294L89.9345 29.5317L89.9345 29.5317L90.3328 29.2294ZM93.4034 35.5878L93.8877 35.4634L93.8885 35.4664L93.4034 35.5878ZM93.7665 46.6701L94.2658 46.6979L94.2657 46.6988L93.7665 46.6701ZM86.645 68.6358L86.3676 68.2198L86.3676 68.2197L86.645 68.6358ZM72.0559 66.0922L71.7156 66.4585L71.7151 66.458L72.0559 66.0922ZM66.5148 58.4256L66.0874 58.6851L66.0871 58.6846L66.5148 58.4256ZM63.4621 53.7016L63.065 54.0054L63.0649 54.0052L63.4621 53.7016ZM49.8543 46.6521L49.811 47.1503L49.8107 47.1502L49.8543 46.6521ZM35.9193 49.5047L35.6468 49.0855L35.6489 49.0842L35.9193 49.5047ZM27.4346 59.0247L27.8486 59.305L27.8483 59.3054L27.4346 59.0247ZM19.6219 67.9636L19.3534 67.5418L19.3537 67.5417L19.6219 67.9636ZM9.39376 69.2358L9.61412 68.787L9.61493 68.7874L9.39376 69.2358ZM1 41.3119L0.5 41.3132V41.3119H1ZM1.40006 35.3527L0.915408 35.2298L0.915793 35.2283L1.40006 35.3527ZM14.9529 20.5996L15.169 21.0505L15.1688 21.0506L14.9529 20.5996ZM40.5153 14.6954L40.4785 14.1967L40.4815 14.1965L40.5153 14.6954ZM40.7501 14.6795L40.7839 15.1783H40.7839L40.7501 14.6795ZM43.9491 14.5133L44.4192 14.3432L44.6617 15.0133H43.9491V14.5133ZM43.568 13.4601L44.0345 13.2799L44.0381 13.29L43.568 13.4601ZM43.1679 10.5165L43.6679 10.5115V10.5165H43.1679ZM55.5945 18.6021L55.6483 18.105L55.6487 18.1051L55.5945 18.6021ZM89.9498 37.3151L90.4424 37.2292L90.4425 37.2302L89.9498 37.3151ZM42.1507 18.2571L42.121 17.7579L42.1216 17.7579L42.1507 18.2571ZM9.75685 28.3042L10.102 28.6659L10.102 28.6659L9.75685 28.3042ZM4.88783 37.043L5.37842 37.1396L5.37812 37.1411L4.88783 37.043ZM4.70581 41.676L4.20581 41.6776V41.676H4.70581ZM9.26578 64.6948L9.65112 64.3762L9.65302 64.3785L9.26578 64.6948ZM20.6202 62.1513L20.2357 61.8317L20.2367 61.8305L20.6202 62.1513ZM23.8359 57.6634L23.4199 57.386L23.4207 57.3848L23.8359 57.6634ZM29.6131 50.0508L29.251 49.706L29.2525 49.7045L29.6131 50.0508ZM42.0767 43.2743L41.9777 42.7842L41.9794 42.7839L42.0767 43.2743ZM52.959 43.2924L52.8617 43.7828L52.8596 43.7824L52.959 43.2924ZM64.3144 49.1966L64.6689 48.844L64.6696 48.8447L64.3144 49.1966ZM70.0376 57.0273L69.608 57.283L69.6076 57.2825L70.0376 57.0273ZM76.3239 64.7119L76.0705 65.1429L76.0695 65.1423L76.3239 64.7119ZM81.8471 66.2022V66.7022L81.8429 66.7022L81.8471 66.2022ZM84.5176 65.7111L84.7721 66.1415L84.7689 66.1434L84.5176 65.7111ZM89.6768 52.3033L90.173 52.3643L90.1729 52.3655L89.6768 52.3033ZM50.6486 3.16553C47.0069 4.23688 45.218 5.53784 44.1977 7.61247L43.3004 7.17116C44.4965 4.73891 46.5964 3.31528 50.3663 2.20618L50.6486 3.16553ZM53.0262 2.42414C52.2163 2.68369 51.3939 2.94728 50.648 3.1657L50.3669 2.206C51.0984 1.99181 51.9082 1.73233 52.721 1.47184L53.0262 2.42414ZM56.9678 1.3506C57.1776 1.14254 57.2839 1.00497 57.3285 0.926353C57.3899 0.8181 57.2712 0.95298 57.3897 1.13638C57.4864 1.28591 57.6149 1.25717 57.4813 1.2482C57.389 1.242 57.2364 1.25178 57.015 1.2879C56.122 1.43356 54.615 1.91499 53.0262 2.42414L52.721 1.47184C54.2715 0.974945 55.8683 0.461716 56.854 0.300941C57.1022 0.26046 57.3427 0.236649 57.5483 0.25045C57.7127 0.261482 58.044 0.306328 58.2296 0.59362C58.4372 0.914787 58.2937 1.25159 58.1981 1.42001C58.0857 1.61807 57.9026 1.83192 57.672 2.06059L56.9678 1.3506ZM51.0787 4.69447C53.6233 3.9698 55.3072 3.01029 56.9665 1.35194L57.6734 2.05925C55.88 3.85169 54.041 4.89062 51.3526 5.65623L51.0787 4.69447ZM45.2778 9.06175C45.5224 7.98201 46.0626 7.12856 47.0229 6.42342C47.9597 5.73552 49.2835 5.19823 51.0805 4.69394L51.3507 5.65675C49.587 6.15167 48.4038 6.65009 47.6147 7.22946C46.8492 7.79159 46.4447 8.43696 46.2531 9.28264L45.2778 9.06175ZM45.9284 13.685C45.2601 12.215 44.9754 10.3945 45.2779 9.06157L46.2531 9.28282C46.0113 10.3484 46.2348 11.9426 46.8387 13.2712L45.9284 13.685ZM46.3628 14.6624L45.9267 13.6812L46.8405 13.275L47.2766 14.2562L46.3628 14.6624ZM50.2375 15.0681L46.8038 14.959L46.8355 13.9595L50.2693 14.0686L50.2375 15.0681ZM61.8188 16.2791C57.1291 15.5184 54.1344 15.1942 50.2372 15.0681L50.2696 14.0686C54.22 14.1965 57.2586 14.5264 61.9789 15.292L61.8188 16.2791ZM89.9345 29.5317C85.1981 23.2896 75.1256 18.4878 61.817 16.2788L61.9807 15.2923C75.3797 17.5163 85.7636 22.3805 90.7311 28.9272L89.9345 29.5317ZM92.9192 35.7122C92.4454 33.8686 91.0932 31.0586 89.9345 29.5317L90.7311 28.9272C91.9709 30.561 93.3812 33.4921 93.8877 35.4634L92.9192 35.7122ZM93.2673 46.6424C93.5404 41.7366 93.4072 37.6624 92.9184 35.7092L93.8885 35.4664C94.4179 37.5821 94.5387 41.7936 94.2658 46.6979L93.2673 46.6424ZM86.3676 68.2197C88.2785 66.9457 89.8377 64.5787 91.0043 60.9802C92.1689 57.3877 92.9235 52.625 93.2673 46.6415L94.2657 46.6988C93.9194 52.7248 93.1571 57.5821 91.9555 61.2886C90.7558 64.9892 89.0994 67.6002 86.9224 69.0518L86.3676 68.2197ZM81.994 69.426C83.0068 69.426 83.7517 69.3501 84.4108 69.1671C85.0656 68.9852 85.662 68.6903 86.3676 68.2198L86.9224 69.0517C86.1567 69.5624 85.4633 69.9126 84.6783 70.1306C83.8976 70.3474 83.0526 70.426 81.994 70.426V69.426ZM72.3962 65.7259C75.1171 68.2535 78.1549 69.426 81.994 69.426V70.426C77.9115 70.426 74.6279 69.164 71.7156 66.4585L72.3962 65.7259ZM66.9422 58.1661C69.7218 62.7442 70.8542 64.2891 72.3968 65.7264L71.7151 66.458C70.0609 64.9167 68.8669 63.2629 66.0874 58.6851L66.9422 58.1661ZM63.8593 53.3978C64.35 54.0393 65.7441 56.1877 66.9425 58.1666L66.0871 58.6846C64.8869 56.7026 63.5185 54.5982 63.065 54.0054L63.8593 53.3978ZM49.8976 46.154C53.0758 46.4304 55.6921 47.0871 57.958 48.2611C60.2268 49.4367 62.1158 51.1162 63.8594 53.398L63.0649 54.0052C61.3928 51.8171 59.612 50.2444 57.4979 49.149C55.3808 48.0521 52.9011 47.419 49.811 47.1503L49.8976 46.154ZM35.6489 49.0842C39.3248 46.7207 44.4206 45.6748 49.8979 46.154L49.8107 47.1502C44.4957 46.6852 39.6354 47.7099 36.1898 49.9253L35.6489 49.0842ZM27.0205 58.7444C30.9893 52.8824 32.5976 51.0679 35.6468 49.0855L36.1919 49.9239C33.3178 51.7924 31.8015 53.4666 27.8486 59.305L27.0205 58.7444ZM19.3537 67.5417C21.8018 65.985 23.1148 64.5021 27.0208 58.744L27.8483 59.3054C23.9408 65.0658 22.5292 66.7075 19.8902 68.3855L19.3537 67.5417ZM9.61493 68.7874C10.8268 69.3851 12.4785 69.5768 14.2421 69.3574C15.9994 69.1388 17.8218 68.517 19.3534 67.5418L19.8905 68.3854C18.2254 69.4456 16.2599 70.1141 14.3655 70.3498C12.4773 70.5847 10.6133 70.3948 9.17259 69.6843L9.61493 68.7874ZM1.5 41.3107C1.51793 48.6104 2.32785 54.9091 3.76099 59.6817C5.2035 64.4854 7.24022 67.6215 9.61412 68.787L9.1734 69.6847C6.40525 68.3256 4.2631 64.8308 2.80324 59.9693C1.33403 55.0766 0.518091 48.6756 0.500002 41.3132L1.5 41.3107ZM1.88472 35.4756C1.53819 36.8419 1.5 37.363 1.5 41.3119H0.5C0.5 37.3753 0.533863 36.7341 0.91541 35.2298L1.88472 35.4756ZM15.1688 21.0506C7.63326 24.6578 3.49055 29.2255 1.88434 35.4771L0.915793 35.2283C2.61438 28.6171 7.01142 23.8468 14.7371 20.1486L15.1688 21.0506ZM40.5522 15.194C30.2707 15.9544 21.6166 17.9617 15.169 21.0505L14.7369 20.1487C21.3341 16.9882 30.1216 14.9627 40.4785 14.1967L40.5522 15.194ZM40.7839 15.1783L40.5491 15.1942L40.4815 14.1965L40.7164 14.1806L40.7839 15.1783ZM43.4589 15.0133C43.2242 15.0133 42.0613 15.0918 40.7839 15.1783L40.7163 14.1806C41.9602 14.0963 43.1795 14.0133 43.4589 14.0133V15.0133ZM43.9491 15.0133H43.4589V14.0133H43.9491V15.0133ZM44.0381 13.29L44.4192 14.3432L43.4789 14.6835L43.0978 13.6302L44.0381 13.29ZM43.6679 10.5165C43.6679 11.9641 43.758 12.5643 44.0344 13.2799L43.1015 13.6402C42.7598 12.7556 42.6679 12.0116 42.6679 10.5165H43.6679ZM44.1976 7.61259C43.914 8.18889 43.7949 8.4591 43.732 8.79432C43.6657 9.1475 43.6587 9.58939 43.6679 10.5115L42.6679 10.5214C42.659 9.62718 42.6611 9.07886 42.7491 8.60987C42.8405 8.12293 43.0209 7.739 43.3004 7.17104L44.1976 7.61259ZM55.6487 18.1051C65.8494 19.2172 74.0823 21.4588 79.9949 24.6786C85.9097 27.8998 89.5536 32.132 90.4424 37.2292L89.4572 37.401C88.6386 32.7061 85.27 28.6901 79.5166 25.5569C73.7609 22.4224 65.6699 20.2036 55.5403 19.0992L55.6487 18.1051ZM42.1216 17.7579C44.6564 17.6103 53.0959 17.8291 55.6483 18.105L55.5408 19.0992C53.0421 18.8291 44.658 18.6119 42.1797 18.7562L42.1216 17.7579ZM9.41168 27.9424C15.5044 22.1288 26.7941 18.6678 42.121 17.7579L42.1803 18.7562C26.9108 19.6627 15.9278 23.1071 10.102 28.6659L9.41168 27.9424ZM4.39724 36.9464C5.12627 33.2427 6.57895 30.6449 9.41172 27.9424L10.102 28.6659C7.4116 31.2326 6.06573 33.6478 5.37841 37.1396L4.39724 36.9464ZM4.20581 41.676C4.20581 40.6714 4.22414 39.643 4.25629 38.7956C4.28772 37.967 4.33358 37.2647 4.39754 36.945L5.37812 37.1411C5.33305 37.3664 5.2879 37.9814 5.25557 38.8335C5.22397 39.6666 5.20581 40.6822 5.20581 41.676H4.20581ZM8.88044 65.0135C7.40775 63.2324 6.25796 60.0853 5.46648 56.0893C4.67081 52.072 4.2239 47.1247 4.20581 41.6776L5.2058 41.6743C5.22374 47.0735 5.66702 51.9548 6.44743 55.895C7.23203 59.8564 8.34422 62.7956 9.65112 64.3762L8.88044 65.0135ZM12.5545 66.7932C11.9124 66.7932 11.1966 66.5882 10.5559 66.2778C9.91405 65.9668 9.29959 65.5266 8.87854 65.0111L9.65302 64.3785C9.9591 64.7532 10.4439 65.1123 10.992 65.3779C11.5413 65.6441 12.1063 65.7932 12.5545 65.7932V66.7932ZM21.0047 62.4709C18.6933 65.2523 15.7075 66.7932 12.5545 66.7932V65.7932C15.3607 65.7932 18.0801 64.4256 20.2357 61.8317L21.0047 62.4709ZM24.2519 57.9408C23.0513 59.7412 21.5854 61.7769 21.0037 62.4721L20.2367 61.8305C20.7813 61.1795 22.222 59.1823 23.4199 57.386L24.2519 57.9408ZM29.9752 50.3956C28.1883 52.272 27.2078 53.5344 24.2511 57.9419L23.4207 57.3848C26.3872 52.9625 27.4051 51.6444 29.251 49.706L29.9752 50.3956ZM42.1758 43.7644C37.1495 44.7801 33.4079 46.8209 29.9738 50.3971L29.2525 49.7045C32.8318 45.9771 36.7577 43.8391 41.9777 42.7842L42.1758 43.7644ZM52.8596 43.7824C51.7497 43.557 49.6447 43.4383 47.5035 43.436C45.3624 43.4338 43.266 43.5481 42.174 43.7648L41.9794 42.7839C43.176 42.5465 45.358 42.4338 47.5045 42.436C49.651 42.4383 51.8428 42.5555 53.0585 42.8024L52.8596 43.7824ZM63.9599 49.5492C60.7476 46.3193 57.7153 44.7464 52.8617 43.7828L53.0564 42.8019C58.0868 43.8007 61.3039 45.4605 64.6689 48.844L63.9599 49.5492ZM69.6076 57.2825C67.3111 53.4131 65.8998 51.5068 63.9593 49.5486L64.6696 48.8447C66.6898 50.8833 68.1491 52.8658 70.4676 56.7721L69.6076 57.2825ZM76.0695 65.1423C73.9507 63.8899 72.3333 61.8607 69.608 57.283L70.4672 56.7715C73.193 61.3498 74.7003 63.1714 76.5783 64.2815L76.0695 65.1423ZM81.8429 66.7022C79.5968 66.6835 77.9118 66.2255 76.0705 65.1429L76.5773 64.2809C78.2607 65.2706 79.7725 65.6849 81.8512 65.7022L81.8429 66.7022ZM84.7689 66.1434C84.3639 66.3788 84.0538 66.5369 83.6061 66.6188C83.1912 66.6946 82.6692 66.7022 81.8471 66.7022V65.7022C82.6963 65.7022 83.119 65.6913 83.4263 65.6351C83.7007 65.5849 83.8902 65.4975 84.2664 65.2788L84.7689 66.1434ZM90.1729 52.3655C89.6892 56.2247 89.038 59.2411 88.17 61.4965C87.3032 63.7489 86.1987 65.2979 84.7721 66.1415L84.2631 65.2807C85.4161 64.599 86.4097 63.2864 87.2367 61.1373C88.0626 58.9914 88.7012 56.0665 89.1807 52.2411L90.1729 52.3655ZM90.4425 37.2302C90.5233 37.6988 90.5658 38.6946 90.5836 39.9256C90.6016 41.1742 90.5941 42.7093 90.5656 44.2867C90.5088 47.4324 90.3677 50.7816 90.173 52.3643L89.1805 52.2422C89.3679 50.7183 89.5089 47.4181 89.5658 44.2687C89.5941 42.6985 89.6015 41.1747 89.5837 39.94C89.5657 38.6878 89.5219 37.7761 89.4571 37.4L90.4425 37.2302Z" fill="#232323"/>
<path d="M74.7623 29.9384C73.5811 30.4655 72.6729 31.8278 72.6729 33.0451C72.6729 33.6622 73.0729 34.6984 73.527 35.2255C75.8525 37.9871 80.4485 35.7887 79.5773 32.3369C79.0132 30.1205 76.7967 29.0122 74.7623 29.9384Z" fill="#232323"/>
<path d="M17.3514 31.8096C16.6063 32.2087 16.3522 32.7358 16.3522 33.863C16.3522 35.9154 15.6071 36.6426 13.4816 36.6606C12.9545 36.6786 12.3554 36.7696 12.1553 36.8606C11.5742 37.1877 11.2651 38.0229 11.2651 39.3311C11.2651 40.4574 11.3012 40.5664 11.8832 41.1475C12.4464 41.7107 12.5914 41.7657 13.5906 41.7657C14.2087 41.7657 14.8989 41.8387 15.153 41.9477C15.9161 42.2387 16.3522 43.1469 16.3522 44.4362C16.3522 45.4354 16.4252 45.6535 16.8793 46.1626C17.3884 46.7437 17.4424 46.7617 18.8957 46.7617C20.3491 46.7617 20.404 46.7437 20.9122 46.1626C21.3663 45.6535 21.4393 45.4354 21.4393 44.4362C21.4393 43.146 21.8754 42.2378 22.6385 41.9477C22.8926 41.8387 23.5827 41.7657 24.2009 41.7657C25.2001 41.7657 25.3451 41.7116 25.9082 41.1475C26.4894 40.5664 26.5264 40.4574 26.5264 39.3311C26.5264 38.0229 26.2173 37.1877 25.6362 36.8606C25.4361 36.7696 24.837 36.6786 24.3099 36.6606C22.1844 36.6426 21.4393 35.9154 21.4393 33.863C21.4393 32.7187 21.1672 32.1916 20.404 31.7915C19.895 31.5375 17.8235 31.5375 17.3514 31.8096Z" fill="#232323"/>
<path d="M42.0235 31.8651C40.9513 32.3192 40.7703 33.3184 41.5874 34.1545L42.1145 34.6816H46.2384H50.3623L50.8894 34.1545C51.6886 33.3373 51.5435 32.3922 50.5083 31.8651C49.7812 31.483 42.8957 31.483 42.0235 31.8651Z" fill="#232323"/>
<path d="M68.312 36.3531C67.1678 36.9522 66.4586 37.9154 66.3496 39.0056C66.1496 41.2221 67.5849 42.8574 69.7653 42.8574C71.7457 42.8574 73.2171 41.4221 73.2171 39.5147C73.2171 38.0254 72.5089 36.9351 71.1276 36.299C70.1654 35.844 69.2752 35.8629 68.312 36.3531Z" fill="#232323"/>
<path d="M81.6662 36.2989C78.9957 37.4981 78.8506 41.1499 81.3942 42.5122C82.2483 42.9843 83.7377 42.9663 84.6648 42.4942C86.7182 41.44 87.0443 38.4244 85.3009 36.88C84.2278 35.9529 82.9015 35.7348 81.6662 36.2989Z" fill="#232323"/>
<path d="M75.1978 42.7482C72.7994 43.6204 71.9822 46.109 73.4355 48.1804C73.9626 48.9075 75.1429 49.4706 76.2151 49.4706C79.2677 49.4887 80.83 45.6549 78.6136 43.5664C77.6873 42.6933 76.2701 42.3482 75.1978 42.7482Z" fill="#232323"/>
</svg>
