<svg width="72" height="72" viewBox="0 0 72 72" fill="none" xmlns="http://www.w3.org/2000/svg">
<path fill-rule="evenodd" clip-rule="evenodd" d="M60.7488 11.2512C54.1382 4.64067 45.3487 1 36 1C26.6513 1 17.8618 4.64067 11.2512 11.2512C4.64067 17.8618 1 26.6508 1 36C1 45.3487 4.64067 54.1382 11.2512 60.7488C17.8623 67.3593 26.6513 71 36 71C45.3487 71 54.1382 67.3593 60.7488 60.7488C67.3593 54.1382 71 45.3487 71 36C71 26.6508 67.3593 17.8618 60.7488 11.2512ZM36 66.8984C18.9625 66.8984 5.10156 53.0375 5.10156 36C5.10156 18.9625 18.9625 5.10156 36 5.10156C53.0375 5.10156 66.8984 18.9625 66.8984 36C66.8984 53.0375 53.0375 66.8984 36 66.8984ZM29.5187 21.958C40.0172 21.958 50.1589 24.121 59.6625 28.387C60.6954 28.8511 61.1573 30.0645 60.6932 31.0979C60.352 31.8584 59.6043 32.3097 58.8214 32.3097C58.5404 32.3097 58.2552 32.2514 57.9823 32.1292C49.0107 28.1018 39.4345 26.0596 29.5187 26.0596C24.5867 26.0596 19.6632 26.5782 14.8839 27.6009C13.7763 27.8385 12.6862 27.132 12.4497 26.0243C12.2125 24.9167 12.918 23.8267 14.0257 23.5901C19.0864 22.507 24.2988 21.958 29.5187 21.958ZM51.148 47.7087C44.3324 44.6282 37.0553 43.0661 29.5181 43.0661C25.5074 43.0661 21.5099 43.5201 17.637 44.4146C16.5336 44.6694 15.8457 45.7706 16.1005 46.8739C16.3552 47.9778 17.4565 48.6657 18.5603 48.411C22.1311 47.5858 25.8177 47.1677 29.5181 47.1677C36.4689 47.1677 43.1777 48.607 49.4588 51.446C49.7328 51.5704 50.0196 51.6287 50.3021 51.6287C51.0829 51.6287 51.8295 51.1801 52.1718 50.4222C52.6386 49.3904 52.1803 48.1754 51.148 47.7087ZM29.5181 32.3444C38.5597 32.3444 47.2921 34.2114 55.4728 37.8943C56.5057 38.3595 56.966 39.5734 56.5009 40.6057C56.1591 41.3657 55.4119 41.8154 54.6295 41.8154C54.3481 41.8154 54.0624 41.7571 53.7889 41.6343C46.1412 38.1912 37.9749 36.4459 29.5181 36.4459C25.1901 36.4459 20.8734 36.9148 16.6869 37.8398C15.5814 38.0855 14.4866 37.3859 14.242 36.2798C13.9974 35.1743 14.6959 34.0795 15.8019 33.8349C20.2784 32.8459 24.8932 32.3444 29.5181 32.3444Z" fill="#232323"/>
<path d="M11.2512 60.7488L10.8977 61.1023L10.8977 61.1023L11.2512 60.7488ZM59.6625 28.387L59.8674 27.9309L59.8673 27.9309L59.6625 28.387ZM60.6932 31.0979L60.2371 30.893L60.237 30.8932L60.6932 31.0979ZM57.9823 32.1292L57.7776 32.5853L57.7779 32.5854L57.9823 32.1292ZM14.8839 27.6009L14.7793 27.1119L14.779 27.112L14.8839 27.6009ZM12.4497 26.0243L12.9386 25.9199L12.9386 25.9197L12.4497 26.0243ZM14.0257 23.5901L14.1301 24.0791L14.1303 24.079L14.0257 23.5901ZM51.148 47.7087L51.354 47.2531L51.3539 47.2531L51.148 47.7087ZM17.637 44.4146L17.7494 44.9018L17.7495 44.9018L17.637 44.4146ZM16.1005 46.8739L16.5877 46.7615L16.5877 46.7615L16.1005 46.8739ZM18.5603 48.411L18.6728 48.8982L18.6729 48.8981L18.5603 48.411ZM49.4588 51.446L49.6656 50.9908L49.6647 50.9904L49.4588 51.446ZM52.1718 50.4222L51.7162 50.2161L51.7161 50.2164L52.1718 50.4222ZM55.4728 37.8943L55.6781 37.4384L55.6781 37.4384L55.4728 37.8943ZM56.5009 40.6057L56.045 40.4003L56.0449 40.4006L56.5009 40.6057ZM53.7889 41.6343L53.5837 42.0902L53.584 42.0904L53.7889 41.6343ZM16.6869 37.8398L16.579 37.3516L16.5784 37.3517L16.6869 37.8398ZM14.242 36.2798L14.7302 36.1719L14.7302 36.1718L14.242 36.2798ZM15.8019 33.8349L15.6941 33.3467L15.694 33.3467L15.8019 33.8349ZM36 1.5C45.2161 1.5 53.8784 5.08799 60.3952 11.6048L61.1023 10.8977C54.398 4.19335 45.4813 0.5 36 0.5V1.5ZM11.6048 11.6048C18.1216 5.08799 26.7839 1.5 36 1.5V0.5C26.5187 0.5 17.602 4.19335 10.8977 10.8977L11.6048 11.6048ZM1.5 36C1.5 26.7834 5.08799 18.1216 11.6048 11.6048L10.8977 10.8977C4.19335 17.602 0.5 26.5182 0.5 36H1.5ZM11.6048 60.3952C5.08799 53.8784 1.5 45.2161 1.5 36H0.5C0.5 45.4813 4.19335 54.398 10.8977 61.1023L11.6048 60.3952ZM36 70.5C26.7839 70.5 18.1221 66.912 11.6048 60.3952L10.8977 61.1023C17.6026 67.8066 26.5187 71.5 36 71.5V70.5ZM60.3952 60.3952C53.8784 66.912 45.2161 70.5 36 70.5V71.5C45.4813 71.5 54.398 67.8067 61.1023 61.1023L60.3952 60.3952ZM70.5 36C70.5 45.2161 66.912 53.8784 60.3952 60.3952L61.1023 61.1023C67.8067 54.398 71.5 45.4813 71.5 36H70.5ZM60.3952 11.6048C66.912 18.1216 70.5 26.7834 70.5 36H71.5C71.5 26.5182 67.8066 17.602 61.1023 10.8977L60.3952 11.6048ZM4.60156 36C4.60156 53.3136 18.6864 67.3984 36 67.3984V66.3984C19.2386 66.3984 5.60156 52.7614 5.60156 36H4.60156ZM36 4.60156C18.6864 4.60156 4.60156 18.6864 4.60156 36H5.60156C5.60156 19.2386 19.2386 5.60156 36 5.60156V4.60156ZM67.3984 36C67.3984 18.6864 53.3136 4.60156 36 4.60156V5.60156C52.7614 5.60156 66.3984 19.2386 66.3984 36H67.3984ZM36 67.3984C53.3136 67.3984 67.3984 53.3136 67.3984 36H66.3984C66.3984 52.7614 52.7614 66.3984 36 66.3984V67.3984ZM59.8673 27.9309C50.2988 23.6357 40.0872 21.458 29.5187 21.458V22.458C39.9472 22.458 50.0191 24.6062 59.4577 28.8432L59.8673 27.9309ZM61.1493 31.3027C61.7267 30.0172 61.1519 28.5081 59.8674 27.9309L59.4576 28.8431C60.2388 29.1941 60.588 30.1118 60.2371 30.893L61.1493 31.3027ZM58.8214 32.8097C59.7942 32.8097 60.7247 32.2491 61.1494 31.3026L60.237 30.8932C59.9793 31.4676 59.4144 31.8097 58.8214 31.8097V32.8097ZM57.7779 32.5854C58.116 32.7369 58.4709 32.8097 58.8214 32.8097V31.8097C58.61 31.8097 58.3945 31.766 58.1868 31.6729L57.7779 32.5854ZM29.5187 26.5596C39.3645 26.5596 48.8709 28.5871 57.7776 32.5853L58.1871 31.673C49.1505 27.6165 39.5045 25.5596 29.5187 25.5596V26.5596ZM14.9885 28.0898C19.7331 27.0745 24.6215 26.5596 29.5187 26.5596V25.5596C24.5518 25.5596 19.5933 26.0818 14.7793 27.1119L14.9885 28.0898ZM11.9607 26.1288C12.2549 27.5063 13.6107 28.3854 14.9888 28.0898L14.779 27.112C13.9419 27.2916 13.1176 26.7576 12.9386 25.9199L11.9607 26.1288ZM13.9212 23.1011C12.5433 23.3955 11.6658 24.7514 11.9607 26.129L12.9386 25.9197C12.7592 25.082 13.2928 24.2579 14.1301 24.0791L13.9212 23.1011ZM29.5187 21.458C24.2639 21.458 19.0165 22.0107 13.921 23.1012L14.1303 24.079C19.1563 23.0034 24.3337 22.458 29.5187 22.458V21.458ZM29.5181 43.5661C36.9848 43.5661 44.1917 45.1133 50.9421 48.1643L51.3539 47.2531C44.4731 44.1431 37.1258 42.5661 29.5181 42.5661V43.5661ZM17.7495 44.9018C21.5853 44.0158 25.5449 43.5661 29.5181 43.5661V42.5661C25.4698 42.5661 21.4346 43.0243 17.5244 43.9274L17.7495 44.9018ZM16.5877 46.7615C16.395 45.9271 16.9152 45.0944 17.7494 44.9018L17.5245 43.9274C16.152 44.2443 15.2964 45.6141 15.6133 46.9864L16.5877 46.7615ZM18.4479 47.9238C17.6129 48.1165 16.7803 47.5962 16.5877 46.7615L15.6133 46.9864C15.9302 48.3595 17.3 49.215 18.6728 48.8982L18.4479 47.9238ZM29.5181 46.6677C25.7802 46.6677 22.0558 47.0901 18.4478 47.9238L18.6729 48.8981C22.2063 48.0816 25.8552 47.6677 29.5181 47.6677V46.6677ZM49.6647 50.9904C43.3184 48.1218 36.5393 46.6677 29.5181 46.6677V47.6677C36.3985 47.6677 43.0371 49.0921 49.2528 51.9016L49.6647 50.9904ZM50.3021 51.1287C50.0887 51.1287 49.8726 51.0848 49.6656 50.9908L49.252 51.9013C49.5929 52.0561 49.9504 52.1287 50.3021 52.1287V51.1287ZM51.7161 50.2164C51.4577 50.7885 50.8937 51.1287 50.3021 51.1287V52.1287C51.272 52.1287 52.2013 51.5716 52.6275 50.6281L51.7161 50.2164ZM50.942 48.1643C51.7228 48.5173 52.0692 49.436 51.7162 50.2161L52.6274 50.6283C53.208 49.3448 52.6379 47.8336 51.354 47.2531L50.942 48.1643ZM55.6781 37.4384C47.4323 33.7262 38.6299 31.8444 29.5181 31.8444V32.8444C38.4896 32.8444 47.1519 34.6967 55.2676 38.3502L55.6781 37.4384ZM56.9567 40.8111C57.5355 39.5267 56.9626 38.0169 55.6781 37.4384L55.2675 38.3502C56.0488 38.7021 56.3966 39.62 56.045 40.4003L56.9567 40.8111ZM54.6295 42.3154C55.6013 42.3154 56.5314 41.7569 56.9569 40.8108L56.0449 40.4006C55.7868 40.9745 55.2225 41.3154 54.6295 41.3154V42.3154ZM53.584 42.0904C53.923 42.2427 54.2787 42.3154 54.6295 42.3154V41.3154C54.4175 41.3154 54.2017 41.2716 53.9938 41.1782L53.584 42.0904ZM29.5181 36.9459C37.9048 36.9459 46.0011 38.6765 53.5837 42.0902L53.9942 41.1784C46.2814 37.706 38.0451 35.9459 29.5181 35.9459V36.9459ZM16.7947 38.3281C20.9455 37.411 25.2261 36.9459 29.5181 36.9459V35.9459C25.1542 35.9459 20.8012 36.4187 16.579 37.3516L16.7947 38.3281ZM13.7538 36.3878C14.0578 37.7628 15.4192 38.6337 16.7953 38.3279L16.5784 37.3517C15.7435 37.5373 14.9153 37.0089 14.7302 36.1719L13.7538 36.3878ZM15.694 33.3467C14.3185 33.6509 13.4495 35.0125 13.7538 36.3879L14.7302 36.1718C14.5453 35.3362 15.0733 34.5081 15.9099 34.3231L15.694 33.3467ZM29.5181 31.8444C24.8573 31.8444 20.2063 32.3497 15.6941 33.3467L15.9098 34.3232C20.3505 33.342 24.9292 32.8444 29.5181 32.8444V31.8444Z" fill="#232323"/>
</svg>
