<svg width="24" height="24" viewBox="0 0 24 24" fill="none" xmlns="http://www.w3.org/2000/svg">
<path fill-rule="evenodd" clip-rule="evenodd" d="M11.9901 0C5.3787 0 0 5.37857 0 11.9896C0 18.601 5.3787 23.9799 11.9901 23.9799C18.6014 23.9799 23.9801 18.601 23.9801 11.9896C23.9801 5.37857 18.6014 0 11.9901 0ZM11.9901 22.0547C6.44021 22.0547 1.92513 17.5396 1.92513 11.9896C1.92513 6.43996 6.44021 1.92501 11.9901 1.92501C17.5399 1.92501 22.055 6.43996 22.055 11.9896C22.055 17.5396 17.5399 22.0547 11.9901 22.0547ZM18.4158 8.43658C13.4097 6.12295 6.37861 7.14956 6.08175 7.19435C5.55632 7.2738 5.19478 7.76394 5.27397 8.28937C5.35316 8.8148 5.84381 9.17737 6.36886 9.09793C6.43598 9.08779 13.1313 8.11521 17.6082 10.1841C17.7388 10.2445 17.8763 10.2732 18.0114 10.2732C18.3751 10.2732 18.7232 10.066 18.8858 9.71422C19.1089 9.23153 18.8984 8.65964 18.4158 8.43658ZM6.50567 10.9322C6.77403 10.8918 13.1295 9.96359 17.6617 12.058C18.1443 12.2811 18.3547 12.8531 18.1318 13.3357C17.9691 13.6876 17.621 13.8946 17.2573 13.8947C17.1221 13.8947 16.9849 13.8661 16.854 13.8056C12.8513 11.9559 6.85283 12.8268 6.79277 12.8359C6.26747 12.9148 5.77694 12.5528 5.69788 12.0272C5.6187 11.5018 5.98024 11.0116 6.50567 10.9322ZM6.72796 14.5314C6.96372 14.4959 12.5494 13.6801 16.5401 15.5244C17.0227 15.7475 17.233 16.3195 17.0101 16.8021C16.8475 17.1538 16.4994 17.3609 16.1357 17.361C16.0006 17.361 15.8631 17.3324 15.7324 17.2719C12.2604 15.6673 7.06755 16.427 7.01544 16.435C6.49014 16.5141 5.99936 16.1526 5.91991 15.627C5.84047 15.1013 6.20227 14.6109 6.72796 14.5314Z" fill="#232323"/>
</svg>
