<svg width="74" height="82" viewBox="0 0 74 82" fill="none" xmlns="http://www.w3.org/2000/svg">
<g filter="url(#filter0_d)">
<mask id="path-1-inside-1" fill="white">
<path fill-rule="evenodd" clip-rule="evenodd" d="M36.9205 9.46352C38.5797 9.46352 39.9247 8.1185 39.9247 6.45923V3.00429C39.9247 1.34502 38.5797 0 36.9205 0C35.2612 0 33.9162 1.34502 33.9162 3.00429V6.45923C33.9162 8.1185 35.2612 9.46352 36.9205 9.46352ZM10.7012 46.6687L7.69696 48.6964C6.26 49.5259 5.76775 51.3633 6.59738 52.8003C7.42942 54.2415 9.2682 54.7272 10.7012 53.8999L13.7055 51.8721C15.1425 51.0426 15.6347 49.2052 14.8051 47.7682C13.9755 46.3313 12.1379 45.839 10.7012 46.6687ZM66.1866 21.5741L63.1397 23.3313C61.7066 24.1587 59.8678 23.6729 59.0358 22.2318C58.2062 20.7948 58.6984 18.9574 60.1354 18.1279L63.1823 16.3706C64.6191 15.5409 66.4565 16.0331 67.2862 17.4702C68.1158 18.9072 67.6236 20.7446 66.1866 21.5741ZM13.7055 18.1279L10.5069 16.3662C9.07009 15.5364 7.23252 16.0288 6.40303 17.4658C5.5734 18.9027 6.06565 20.7401 7.50261 21.5696L10.7012 23.3313C12.1334 24.1583 13.9728 23.6735 14.8051 22.2318C15.6347 20.7948 15.1425 18.9574 13.7055 18.1279ZM63.1397 46.6687L66.1653 48.4434C67.6022 49.2729 68.0945 51.1103 67.2649 52.5473C66.4325 53.9891 64.593 54.4738 63.161 53.6469L60.1354 51.8721C58.6984 51.0426 58.2062 49.2052 59.0358 47.7682C59.8653 46.3311 61.7029 45.8389 63.1397 46.6687ZM36.9205 60.5365C35.2612 60.5365 33.9162 61.8815 33.9162 63.5408V66.9957C33.9162 68.655 35.2612 70 36.9205 70C38.5797 70 39.9247 68.655 39.9247 66.9957V63.5408C39.9247 61.8815 38.5797 60.5365 36.9205 60.5365ZM36.9205 13.97C25.3245 13.97 15.8904 23.404 15.8904 35C15.8904 46.596 25.3245 56.03 36.9205 56.03C48.5164 56.03 57.9505 46.596 57.9505 35C57.9505 23.404 48.5164 13.97 36.9205 13.97ZM36.9205 51C28.0981 51 20.9205 43.8224 20.9205 35C20.9205 26.1776 28.0981 19 36.9205 19C45.7429 19 52.9205 26.1776 52.9205 35C52.9205 43.8224 45.7429 51 36.9205 51Z"/>
</mask>
<path fill-rule="evenodd" clip-rule="evenodd" d="M36.9205 9.46352C38.5797 9.46352 39.9247 8.1185 39.9247 6.45923V3.00429C39.9247 1.34502 38.5797 0 36.9205 0C35.2612 0 33.9162 1.34502 33.9162 3.00429V6.45923C33.9162 8.1185 35.2612 9.46352 36.9205 9.46352ZM10.7012 46.6687L7.69696 48.6964C6.26 49.5259 5.76775 51.3633 6.59738 52.8003C7.42942 54.2415 9.2682 54.7272 10.7012 53.8999L13.7055 51.8721C15.1425 51.0426 15.6347 49.2052 14.8051 47.7682C13.9755 46.3313 12.1379 45.839 10.7012 46.6687ZM66.1866 21.5741L63.1397 23.3313C61.7066 24.1587 59.8678 23.6729 59.0358 22.2318C58.2062 20.7948 58.6984 18.9574 60.1354 18.1279L63.1823 16.3706C64.6191 15.5409 66.4565 16.0331 67.2862 17.4702C68.1158 18.9072 67.6236 20.7446 66.1866 21.5741ZM13.7055 18.1279L10.5069 16.3662C9.07009 15.5364 7.23252 16.0288 6.40303 17.4658C5.5734 18.9027 6.06565 20.7401 7.50261 21.5696L10.7012 23.3313C12.1334 24.1583 13.9728 23.6735 14.8051 22.2318C15.6347 20.7948 15.1425 18.9574 13.7055 18.1279ZM63.1397 46.6687L66.1653 48.4434C67.6022 49.2729 68.0945 51.1103 67.2649 52.5473C66.4325 53.9891 64.593 54.4738 63.161 53.6469L60.1354 51.8721C58.6984 51.0426 58.2062 49.2052 59.0358 47.7682C59.8653 46.3311 61.7029 45.8389 63.1397 46.6687ZM36.9205 60.5365C35.2612 60.5365 33.9162 61.8815 33.9162 63.5408V66.9957C33.9162 68.655 35.2612 70 36.9205 70C38.5797 70 39.9247 68.655 39.9247 66.9957V63.5408C39.9247 61.8815 38.5797 60.5365 36.9205 60.5365ZM36.9205 13.97C25.3245 13.97 15.8904 23.404 15.8904 35C15.8904 46.596 25.3245 56.03 36.9205 56.03C48.5164 56.03 57.9505 46.596 57.9505 35C57.9505 23.404 48.5164 13.97 36.9205 13.97ZM36.9205 51C28.0981 51 20.9205 43.8224 20.9205 35C20.9205 26.1776 28.0981 19 36.9205 19C45.7429 19 52.9205 26.1776 52.9205 35C52.9205 43.8224 45.7429 51 36.9205 51Z" fill="white"/>
<path d="M7.69696 48.6964L10.1966 53.0267L10.3487 52.939L10.4942 52.8408L7.69696 48.6964ZM10.7012 46.6687L8.20083 42.3388L8.04917 42.4264L7.90401 42.5243L10.7012 46.6687ZM6.59738 52.8003L10.9275 50.3003L10.9275 50.3003L6.59738 52.8003ZM10.7012 53.8999L13.2013 58.23L13.3531 58.1423L13.4985 58.0442L10.7012 53.8999ZM13.7055 51.8721L11.2059 47.5418L11.0538 47.6296L10.9083 47.7278L13.7055 51.8721ZM14.8051 47.7682L19.1352 45.2682L19.1352 45.2682L14.8051 47.7682ZM63.1397 23.3313L60.6417 19L60.6396 19.0012L63.1397 23.3313ZM66.1866 21.5741L68.6846 25.9054L68.6863 25.9044L66.1866 21.5741ZM59.0358 22.2318L63.3659 19.7318L63.3659 19.7317L59.0358 22.2318ZM60.1354 18.1279L57.6374 13.7966L57.6357 13.7976L60.1354 18.1279ZM63.1823 16.3706L65.6803 20.7019L65.6829 20.7005L63.1823 16.3706ZM67.2862 17.4702L62.9559 19.97L62.9561 19.9702L67.2862 17.4702ZM10.5069 16.3662L8.00634 20.696L8.05028 20.7214L8.09473 20.7459L10.5069 16.3662ZM13.7055 18.1279L16.2052 13.7976L16.1617 13.7725L16.1177 13.7482L13.7055 18.1279ZM6.40303 17.4658L10.7331 19.9658L10.7333 19.9655L6.40303 17.4658ZM7.50261 21.5696L5.00292 25.8999L5.04643 25.9251L5.09044 25.9493L7.50261 21.5696ZM10.7012 23.3313L13.2014 19.0013L13.1577 18.976L13.1134 18.9517L10.7012 23.3313ZM14.8051 22.2318L10.475 19.7317L10.4749 19.7319L14.8051 22.2318ZM66.1653 48.4434L63.6355 52.7562L63.6505 52.765L63.6656 52.7737L66.1653 48.4434ZM63.1397 46.6687L65.6695 42.3559L65.6549 42.3473L65.6402 42.3389L63.1397 46.6687ZM67.2649 52.5473L62.9347 50.0473L62.9346 50.0474L67.2649 52.5473ZM63.161 53.6469L60.6312 57.9597L60.6459 57.9683L60.6606 57.9768L63.161 53.6469ZM60.1354 51.8721L62.6652 47.5593L62.6501 47.5505L62.6351 47.5418L60.1354 51.8721ZM59.0358 47.7682L63.3659 50.2683L63.3662 50.2677L59.0358 47.7682ZM34.9247 6.45923C34.9247 5.35707 35.8183 4.46352 36.9205 4.46352V14.4635C41.3411 14.4635 44.9247 10.8799 44.9247 6.45923H34.9247ZM34.9247 3.00429V6.45923H44.9247V3.00429H34.9247ZM36.9205 5C35.8183 5 34.9247 4.10645 34.9247 3.00429H44.9247C44.9247 -1.41641 41.3411 -5 36.9205 -5V5ZM38.9162 3.00429C38.9162 4.10645 38.0226 5 36.9205 5V-5C32.4998 -5 28.9162 -1.4164 28.9162 3.00429H38.9162ZM38.9162 6.45923V3.00429H28.9162V6.45923H38.9162ZM36.9205 4.46352C38.0226 4.46352 38.9162 5.35707 38.9162 6.45923H28.9162C28.9162 10.8799 32.4998 14.4635 36.9205 14.4635V4.46352ZM10.4942 52.8408L13.4985 50.813L7.90401 42.5243L4.89972 44.5521L10.4942 52.8408ZM10.9275 50.3003C11.4784 51.2544 11.1518 52.4753 10.1966 53.0267L5.19728 44.3661C1.36816 46.5765 0.0571008 51.4722 2.26727 55.3003L10.9275 50.3003ZM8.20122 49.5698C9.15072 49.0216 10.3737 49.3411 10.9275 50.3003L2.26724 55.3003C4.48514 59.1418 9.38568 60.4329 13.2013 58.23L8.20122 49.5698ZM10.9083 47.7278L7.90401 49.7555L13.4985 58.0442L16.5028 56.0164L10.9083 47.7278ZM10.475 50.2683C9.92409 49.3141 10.2507 48.0932 11.2059 47.5418L16.2052 56.2024C20.0343 53.992 21.3454 49.0963 19.1352 45.2682L10.475 50.2683ZM13.2017 50.9986C12.2466 51.5501 11.0261 51.2227 10.475 50.2683L19.1352 45.2682C16.9249 41.4398 12.0292 40.128 8.20083 42.3388L13.2017 50.9986ZM65.6376 27.6626L68.6846 25.9054L63.6886 17.2428L60.6417 19L65.6376 27.6626ZM54.7057 24.7317C56.9236 28.5733 61.8241 29.8644 65.6397 27.6614L60.6396 19.0012C61.5891 18.453 62.8121 18.7725 63.3659 19.7318L54.7057 24.7317ZM57.6357 13.7976C53.8066 16.0079 52.4955 20.9037 54.7057 24.7318L63.3659 19.7317C63.9168 20.6859 63.5902 21.9068 62.6351 22.4582L57.6357 13.7976ZM60.6843 12.0393L57.6374 13.7966L62.6333 22.4592L65.6803 20.7019L60.6843 12.0393ZM71.6164 14.9704C69.4061 11.1417 64.5103 9.82976 60.6818 12.0408L65.6829 20.7005C64.7279 21.252 63.507 20.9246 62.9559 19.97L71.6164 14.9704ZM68.6863 25.9044C72.5154 23.694 73.8265 18.7983 71.6163 14.9702L62.9561 19.9702C62.4052 19.0161 62.7317 17.7952 63.6869 17.2438L68.6863 25.9044ZM8.09473 20.7459L11.2934 22.5076L16.1177 13.7482L12.9191 11.9865L8.09473 20.7459ZM10.7333 19.9655C10.1822 20.9202 8.96135 21.2475 8.00634 20.696L13.0075 12.0364C9.17884 9.82528 4.28284 11.1374 2.07273 14.9661L10.7333 19.9655ZM10.0023 17.2393C10.9575 17.7907 11.2841 19.0116 10.7331 19.9658L2.07292 14.9657C-0.137252 18.7938 1.17382 23.6896 5.00292 25.8999L10.0023 17.2393ZM13.1134 18.9517L9.91477 17.19L5.09044 25.9493L8.28908 27.711L13.1134 18.9517ZM10.4749 19.7319C11.0293 18.7716 12.2525 18.4534 13.2014 19.0013L8.20106 27.6614C12.0143 29.8631 16.9162 28.5754 19.1353 24.7316L10.4749 19.7319ZM11.2059 22.4582C10.2507 21.9068 9.92409 20.6859 10.475 19.7317L19.1352 24.7318C21.3454 20.9037 20.0343 16.0079 16.2052 13.7976L11.2059 22.4582ZM68.6951 44.1306L65.6695 42.3559L60.6099 50.9815L63.6355 52.7562L68.6951 44.1306ZM71.595 55.0473C73.8051 51.2192 72.4941 46.3235 68.665 44.1131L63.6656 52.7737C62.7104 52.2224 62.3838 51.0015 62.9347 50.0473L71.595 55.0473ZM60.6606 57.9768C64.4738 60.1788 69.376 58.8909 71.5951 55.0472L62.9346 50.0474C63.489 49.0872 64.7121 48.7688 65.6614 49.317L60.6606 57.9768ZM57.6056 56.1849L60.6312 57.9597L65.6908 49.3341L62.6652 47.5593L57.6056 56.1849ZM54.7057 45.2682C52.4955 49.0963 53.8066 53.9921 57.6357 56.2024L62.6351 47.5418C63.5903 48.0932 63.9168 49.3141 63.3659 50.2683L54.7057 45.2682ZM65.6402 42.3389C61.8119 40.1279 56.9156 41.4394 54.7054 45.2687L63.3662 50.2677C62.8149 51.2229 61.5938 51.5498 60.6391 50.9985L65.6402 42.3389ZM38.9162 63.5408C38.9162 64.6429 38.0226 65.5365 36.9205 65.5365V55.5365C32.4998 55.5365 28.9162 59.1201 28.9162 63.5408H38.9162ZM38.9162 66.9957V63.5408H28.9162V66.9957H38.9162ZM36.9205 65C38.0226 65 38.9162 65.8936 38.9162 66.9957H28.9162C28.9162 71.4164 32.4998 75 36.9205 75V65ZM34.9247 66.9957C34.9247 65.8936 35.8183 65 36.9205 65V75C41.3411 75 44.9247 71.4164 44.9247 66.9957H34.9247ZM34.9247 63.5408V66.9957H44.9247V63.5408H34.9247ZM36.9205 65.5365C35.8183 65.5365 34.9247 64.6429 34.9247 63.5408H44.9247C44.9247 59.1201 41.3411 55.5365 36.9205 55.5365V65.5365ZM20.8904 35C20.8904 26.1655 28.0859 18.97 36.9205 18.97V8.96996C22.5631 8.96996 10.8904 20.6426 10.8904 35H20.8904ZM36.9205 51.03C28.0859 51.03 20.8904 43.8345 20.8904 35H10.8904C10.8904 49.3574 22.5631 61.03 36.9205 61.03V51.03ZM52.9505 35C52.9505 43.8345 45.755 51.03 36.9205 51.03V61.03C51.2778 61.03 62.9505 49.3574 62.9505 35H52.9505ZM36.9205 18.97C45.755 18.97 52.9505 26.1655 52.9505 35H62.9505C62.9505 20.6426 51.2778 8.96996 36.9205 8.96996V18.97ZM15.9205 35C15.9205 46.5838 25.3366 56 36.9205 56V46C30.8595 46 25.9205 41.061 25.9205 35H15.9205ZM36.9205 14C25.3366 14 15.9205 23.4162 15.9205 35H25.9205C25.9205 28.939 30.8595 24 36.9205 24V14ZM57.9205 35C57.9205 23.4162 48.5043 14 36.9205 14V24C42.9814 24 47.9205 28.939 47.9205 35H57.9205ZM36.9205 56C48.5043 56 57.9205 46.5838 57.9205 35H47.9205C47.9205 41.061 42.9814 46 36.9205 46V56Z" fill="white" mask="url(#path-1-inside-1)"/>
</g>
<defs>
<filter id="filter0_d" x="0" y="0" width="73.6892" height="82" filterUnits="userSpaceOnUse" color-interpolation-filters="sRGB">
<feFlood flood-opacity="0" result="BackgroundImageFix"/>
<feColorMatrix in="SourceAlpha" type="matrix" values="0 0 0 0 0 0 0 0 0 0 0 0 0 0 0 0 0 0 127 0"/>
<feOffset dy="6"/>
<feGaussianBlur stdDeviation="3"/>
<feColorMatrix type="matrix" values="0 0 0 0 0 0 0 0 0 0 0 0 0 0 0 0 0 0 0.37 0"/>
<feBlend mode="normal" in2="BackgroundImageFix" result="effect1_dropShadow"/>
<feBlend mode="normal" in="SourceGraphic" in2="effect1_dropShadow" result="shape"/>
</filter>
</defs>
</svg>
