<svg width="39" height="44" viewBox="0 0 39 44" fill="none" xmlns="http://www.w3.org/2000/svg">
<path fill-rule="evenodd" clip-rule="evenodd" d="M19.3338 6.61094C20.3176 6.61094 21.115 5.81347 21.115 4.82969V2.78125C21.115 1.79747 20.3176 1 19.3338 1C18.35 1 17.5525 1.79747 17.5525 2.78125V4.82969C17.5525 5.81347 18.35 6.61094 19.3338 6.61094ZM3.78835 28.6699L2.0071 29.8722C1.15513 30.364 0.863275 31.4534 1.35517 32.3054C1.84848 33.1599 2.9387 33.4479 3.78835 32.9573L5.5696 31.7551C6.42158 31.2633 6.71343 30.1738 6.22154 29.3219C5.72965 28.4699 4.64015 28.178 3.78835 28.6699ZM36.6857 13.7913L34.8792 14.8332C34.0295 15.3237 32.9393 15.0357 32.446 14.1813C31.9541 13.3293 32.246 12.2399 33.0979 11.7481L34.9045 10.7062C35.7564 10.2142 36.8458 10.5061 37.3377 11.3581C37.8296 12.2101 37.5377 13.2995 36.6857 13.7913ZM5.5696 11.7481L3.67312 10.7035C2.82124 10.2116 1.73174 10.5035 1.23994 11.3555C0.748044 12.2075 1.0399 13.2969 1.89187 13.7887L3.78835 14.8332C4.63748 15.3235 5.72805 15.0361 6.22154 14.1812C6.71343 13.3293 6.42158 12.2399 5.5696 11.7481ZM34.8792 28.6699L36.6731 29.7222C37.525 30.214 37.8169 31.3034 37.325 32.1554C36.8315 33.0102 35.7409 33.2976 34.8918 32.8073L33.0979 31.7551C32.246 31.2633 31.9541 30.1738 32.446 29.3219C32.9378 28.4698 34.0273 28.178 34.8792 28.6699ZM19.3338 36.8922C18.35 36.8922 17.5525 37.6897 17.5525 38.6734V40.7219C17.5525 41.7057 18.35 42.5031 19.3338 42.5031C20.3176 42.5031 21.115 41.7057 21.115 40.7219V38.6734C21.115 37.6897 20.3176 36.8922 19.3338 36.8922ZM19.3338 9.28281C12.4585 9.28281 6.86502 14.8763 6.86502 21.7516C6.86502 28.6268 12.4585 34.2203 19.3338 34.2203C26.209 34.2203 31.8025 28.6268 31.8025 21.7516C31.8025 14.8763 26.209 9.28281 19.3338 9.28281ZM19.3338 31.7516C13.8198 31.7516 9.33377 27.2656 9.33377 21.7516C9.33377 16.2376 13.8198 11.7516 19.3338 11.7516C24.8478 11.7516 29.3338 16.2376 29.3338 21.7516C29.3338 27.2656 24.8478 31.7516 19.3338 31.7516Z" fill="#232323"/>
<path d="M2.0071 29.8722L2.25707 30.3052L2.27228 30.2965L2.28683 30.2866L2.0071 29.8722ZM3.78835 28.6699L3.53831 28.2369L3.52315 28.2457L3.50863 28.2555L3.78835 28.6699ZM1.35517 32.3054L1.78818 32.0554L1.78818 32.0554L1.35517 32.3054ZM3.78835 32.9573L4.03836 33.3903L4.05354 33.3816L4.06808 33.3718L3.78835 32.9573ZM5.5696 31.7551L5.31964 31.322L5.30443 31.3308L5.28988 31.3406L5.5696 31.7551ZM6.22154 29.3219L6.65455 29.0719L6.22154 29.3219ZM34.8792 14.8332L34.6294 14.4001L34.6292 14.4002L34.8792 14.8332ZM36.6857 13.7913L36.9355 14.2244L36.9357 14.2243L36.6857 13.7913ZM32.446 14.1813L32.879 13.9313L32.879 13.9312L32.446 14.1813ZM33.0979 11.7481L32.8481 11.3149L32.848 11.315L33.0979 11.7481ZM34.9045 10.7062L35.1543 11.1393L35.1545 11.1392L34.9045 10.7062ZM37.3377 11.3581L36.9046 11.6081L36.9046 11.6081L37.3377 11.3581ZM3.67312 10.7035L3.42302 11.1366L3.43191 11.1415L3.67312 10.7035ZM5.5696 11.7481L5.81962 11.3149L5.81082 11.3101L5.5696 11.7481ZM1.23994 11.3555L1.67295 11.6055L1.67297 11.6055L1.23994 11.3555ZM1.89187 13.7887L1.64186 14.2218L1.65066 14.2266L1.89187 13.7887ZM3.78835 14.8332L4.03842 14.4001L4.02957 14.3952L3.78835 14.8332ZM6.22154 14.1812L5.78853 13.9312L5.78852 13.9313L6.22154 14.1812ZM36.6731 29.7222L36.4201 30.1535L36.4231 30.1552L36.6731 29.7222ZM34.8792 28.6699L35.1322 28.2386L35.1292 28.237L34.8792 28.6699ZM37.325 32.1554L36.892 31.9054L36.892 31.9054L37.325 32.1554ZM34.8918 32.8073L34.6388 33.2386L34.6418 33.2403L34.8918 32.8073ZM33.0979 31.7551L33.3509 31.3238L33.3479 31.322L33.0979 31.7551ZM32.446 29.3219L32.879 29.5719L32.879 29.5718L32.446 29.3219ZM20.615 4.82969C20.615 5.53733 20.0414 6.11094 19.3338 6.11094V7.11094C20.5937 7.11094 21.615 6.08961 21.615 4.82969H20.615ZM20.615 2.78125V4.82969H21.615V2.78125H20.615ZM19.3338 1.5C20.0414 1.5 20.615 2.07361 20.615 2.78125H21.615C21.615 1.52132 20.5937 0.5 19.3338 0.5V1.5ZM18.0525 2.78125C18.0525 2.07361 18.6261 1.5 19.3338 1.5V0.5C18.0738 0.5 17.0525 1.52132 17.0525 2.78125H18.0525ZM18.0525 4.82969V2.78125H17.0525V4.82969H18.0525ZM19.3338 6.11094C18.6261 6.11094 18.0525 5.53733 18.0525 4.82969H17.0525C17.0525 6.08961 18.0738 7.11094 19.3338 7.11094V6.11094ZM2.28683 30.2866L4.06808 29.0844L3.50863 28.2555L1.72738 29.4578L2.28683 30.2866ZM1.78818 32.0554C1.43434 31.4425 1.64432 30.6589 2.25707 30.3052L1.75714 29.4392C0.66595 30.0691 0.292209 31.4643 0.922156 32.5554L1.78818 32.0554ZM3.53835 32.5243C2.92695 32.8773 2.14291 32.6698 1.78818 32.0554L0.922152 32.5554C1.55406 33.6499 2.95045 34.0184 4.03836 33.3903L3.53835 32.5243ZM5.28988 31.3406L3.50863 32.5429L4.06808 33.3718L5.84933 32.1695L5.28988 31.3406ZM5.78853 29.5719C6.14237 30.1847 5.93239 30.9683 5.31964 31.322L5.81957 32.1881C6.91076 31.5582 7.2845 30.163 6.65455 29.0719L5.78853 29.5719ZM4.0384 29.1029C4.65102 28.7491 5.43471 28.959 5.78853 29.5719L6.65455 29.0719C6.02459 27.9808 4.62927 27.6069 3.53831 28.2369L4.0384 29.1029ZM35.129 15.2663L36.9355 14.2244L36.4359 13.3582L34.6294 14.4001L35.129 15.2663ZM32.013 14.4312C32.6449 15.5258 34.0413 15.8943 35.1292 15.2662L34.6292 14.4002C34.0178 14.7532 33.2337 14.5457 32.879 13.9313L32.013 14.4312ZM32.848 11.315C31.7568 11.9449 31.383 13.3402 32.013 14.4313L32.879 13.9312C32.5252 13.3184 32.7351 12.5348 33.3479 12.1811L32.848 11.315ZM34.6547 10.2731L32.8481 11.3149L33.3477 12.1812L35.1543 11.1393L34.6547 10.2731ZM37.7707 11.1081C37.1407 10.0169 35.7455 9.64309 34.6544 10.2732L35.1545 11.1392C35.7672 10.7853 36.5508 10.9952 36.9046 11.6081L37.7707 11.1081ZM36.9357 14.2243C38.0269 13.5944 38.4006 12.1992 37.7707 11.1081L36.9046 11.6081C37.2585 12.221 37.0485 13.0046 36.4358 13.3583L36.9357 14.2243ZM3.43191 11.1415L5.32839 12.186L5.81082 11.3101L3.91434 10.2656L3.43191 11.1415ZM1.67297 11.6055C2.02671 10.9927 2.81037 10.7827 3.42307 11.1365L3.92318 10.2706C2.83212 9.64045 1.43677 10.0144 0.806906 11.1055L1.67297 11.6055ZM2.14184 13.3556C1.52909 13.0019 1.31911 12.2183 1.67295 11.6055L0.806925 11.1055C0.176979 12.1966 0.550719 13.5918 1.64191 14.2217L2.14184 13.3556ZM4.02957 14.3952L2.13309 13.3507L1.65066 14.2266L3.54714 15.2712L4.02957 14.3952ZM5.78852 13.9313C5.4337 14.5459 4.64939 14.753 4.03837 14.4002L3.53834 15.2662C4.62557 15.894 6.02239 15.5263 6.65456 14.4312L5.78852 13.9313ZM5.31964 12.1811C5.93239 12.5348 6.14237 13.3184 5.78853 13.9312L6.65455 14.4313C7.2845 13.3402 6.91076 11.9449 5.81957 11.315L5.31964 12.1811ZM36.9261 29.2909L35.1322 28.2387L34.6262 29.1012L36.4201 30.1535L36.9261 29.2909ZM37.758 32.4054C38.388 31.3143 38.0142 29.9191 36.923 29.2892L36.4231 30.1552C37.0359 30.5089 37.2458 31.2925 36.892 31.9054L37.758 32.4054ZM34.6418 33.2403C35.7289 33.8681 37.1259 33.5004 37.758 32.4054L36.892 31.9054C36.5372 32.52 35.7528 32.7271 35.1419 32.3743L34.6418 33.2403ZM32.845 32.1863L34.6388 33.2386L35.1448 32.376L33.3509 31.3238L32.845 32.1863ZM32.013 29.0719C31.383 30.163 31.7568 31.5582 32.848 32.1881L33.3479 31.322C32.7351 30.9683 32.5252 30.1847 32.879 29.5719L32.013 29.0719ZM35.1292 28.237C34.0382 27.6069 32.6428 27.9806 32.013 29.0719L32.879 29.5718C33.2328 28.959 34.0164 28.7491 34.6291 29.1029L35.1292 28.237ZM18.0525 38.6734C18.0525 37.9658 18.6261 37.3922 19.3338 37.3922V36.3922C18.0738 36.3922 17.0525 37.4135 17.0525 38.6734H18.0525ZM18.0525 40.7219V38.6734H17.0525V40.7219H18.0525ZM19.3338 42.0031C18.6261 42.0031 18.0525 41.4295 18.0525 40.7219H17.0525C17.0525 41.9818 18.0738 43.0031 19.3338 43.0031V42.0031ZM20.615 40.7219C20.615 41.4295 20.0414 42.0031 19.3338 42.0031V43.0031C20.5937 43.0031 21.615 41.9818 21.615 40.7219H20.615ZM20.615 38.6734V40.7219H21.615V38.6734H20.615ZM19.3338 37.3922C20.0414 37.3922 20.615 37.9658 20.615 38.6734H21.615C21.615 37.4135 20.5937 36.3922 19.3338 36.3922V37.3922ZM7.36502 21.7516C7.36502 15.1524 12.7346 9.78281 19.3338 9.78281V8.78281C12.1824 8.78281 6.36502 14.6002 6.36502 21.7516H7.36502ZM19.3338 33.7203C12.7346 33.7203 7.36502 28.3507 7.36502 21.7516H6.36502C6.36502 28.903 12.1824 34.7203 19.3338 34.7203V33.7203ZM31.3025 21.7516C31.3025 28.3507 25.9329 33.7203 19.3338 33.7203V34.7203C26.4852 34.7203 32.3025 28.903 32.3025 21.7516H31.3025ZM19.3338 9.78281C25.9329 9.78281 31.3025 15.1524 31.3025 21.7516H32.3025C32.3025 14.6002 26.4852 8.78281 19.3338 8.78281V9.78281ZM8.83377 21.7516C8.83377 27.5417 13.5436 32.2516 19.3338 32.2516V31.2516C14.0959 31.2516 9.83377 26.9894 9.83377 21.7516H8.83377ZM19.3338 11.2516C13.5436 11.2516 8.83377 15.9614 8.83377 21.7516H9.83377C9.83377 16.5137 14.0959 12.2516 19.3338 12.2516V11.2516ZM29.8338 21.7516C29.8338 15.9614 25.1239 11.2516 19.3338 11.2516V12.2516C24.5716 12.2516 28.8338 16.5137 28.8338 21.7516H29.8338ZM19.3338 32.2516C25.1239 32.2516 29.8338 27.5417 29.8338 21.7516H28.8338C28.8338 26.9894 24.5716 31.2516 19.3338 31.2516V32.2516Z" fill="#232323"/>
</svg>
