<svg width="95" height="95" viewBox="0 0 95 95" fill="none" xmlns="http://www.w3.org/2000/svg">
<path fill-rule="evenodd" clip-rule="evenodd" d="M84.08 94.9612C90.0825 94.9612 94.9612 90.0825 94.9612 84.08V10.8812C94.9612 4.87876 90.0825 0 84.08 0H10.8812C4.87876 0 0 4.87876 0 10.8812V84.08C0 90.0825 4.87876 94.9612 10.8812 94.9612H84.08ZM5.93508 10.8812C5.93508 8.15494 8.15494 5.93508 10.8812 5.93508H84.08C86.8063 5.93508 89.0262 8.15494 89.0262 10.8812V84.08C89.0262 86.8063 86.8063 89.0262 84.08 89.0262H10.8812C8.15494 89.0262 5.93508 86.8063 5.93508 84.08V10.8812ZM47.4806 27.6968C49.6657 27.6968 51.4371 25.9254 51.4371 23.7403C51.4371 21.5552 49.6657 19.7838 47.4806 19.7838C45.2955 19.7838 43.5241 21.5552 43.5241 23.7403C43.5241 25.9254 45.2955 27.6968 47.4806 27.6968ZM47.4738 73.1995C47.4761 73.1995 47.4784 73.1995 47.4806 73.1995C47.4829 73.1995 47.4852 73.1995 47.4874 73.1995H56.3832C58.0213 73.1995 59.3508 71.8701 59.3508 70.232C59.3508 68.5939 58.0213 67.2645 56.3832 67.2645H50.4482V38.578C50.4482 36.9399 49.1187 35.6105 47.4806 35.6105H40.5566C38.9185 35.6105 37.5891 36.9399 37.5891 38.578C37.5891 40.2161 38.9185 41.5455 40.5566 41.5455H44.5131V67.2645H38.578C36.9399 67.2645 35.6105 68.5939 35.6105 70.232C35.6105 71.8701 36.9399 73.1995 38.578 73.1995H47.4738Z" fill="url(#paint0_linear)"/>
<defs>
<linearGradient id="paint0_linear" x1="0" y1="0" x2="0" y2="94.9612" gradientUnits="userSpaceOnUse">
<stop stop-color="#F39200"/>
<stop offset="1" stop-color="#E94E1B"/>
</linearGradient>
</defs>
</svg>
