<svg width="91" height="63" viewBox="0 0 91 63" fill="none" xmlns="http://www.w3.org/2000/svg">
<path fill-rule="evenodd" clip-rule="evenodd" d="M86.9665 47.8321C88.1002 47.8321 89.126 48.4567 89.6439 49.4655C90.1619 50.4722 90.0764 51.6711 89.4192 52.5937L85.8891 57.5331C83.9442 60.2574 80.7848 61.8819 77.4393 61.8819H13.5412C10.1958 61.8819 7.03637 60.2567 5.09143 57.5331L1.56337 52.5937C0.904196 51.6711 0.817301 50.4736 1.33527 49.4655C1.85393 48.4567 2.87901 47.8321 4.01271 47.8321H4.16071C4.88505 28.7954 18.7753 13.0811 36.9716 9.55437C36.9654 9.49894 36.9586 9.44338 36.9518 9.38776L36.9517 9.38673L36.9517 9.38663C36.9281 9.19261 36.9044 8.99787 36.9044 8.80558C36.9044 4.50158 40.4059 1 44.7099 1C49.0139 1 52.5155 4.50158 52.5155 8.80558C52.5155 8.98828 52.4934 9.17209 52.4711 9.35673L52.4711 9.35723C52.4632 9.42284 52.4552 9.48856 52.4483 9.55437C70.6425 13.0831 84.5334 28.7947 85.2571 47.8321H86.9665ZM40.0264 8.80558C40.0264 8.89315 40.0298 8.98344 40.0359 9.07373C40.0727 9.0693 40.1095 9.06658 40.1464 9.06386L40.1465 9.06385L40.1465 9.06385C40.1831 9.06115 40.2197 9.05844 40.2566 9.05404C40.7936 8.99634 41.3333 8.95221 41.8764 8.91488C41.9555 8.90924 42.0343 8.90266 42.1129 8.89608C42.2334 8.88601 42.3537 8.87596 42.4744 8.86939C43.2144 8.82866 43.9605 8.80558 44.7099 8.80558C45.4594 8.80558 46.2041 8.82866 46.9468 8.87075C47.0687 8.87736 47.1898 8.88749 47.3109 8.89762C47.3888 8.90413 47.4667 8.91065 47.5449 8.91623C48.088 8.95357 48.6283 8.99566 49.1653 9.0554C49.2017 9.05918 49.2385 9.06192 49.2754 9.06466C49.3115 9.06735 49.3477 9.07004 49.3839 9.07373C49.39 8.98344 49.3934 8.89451 49.3934 8.80558C49.3934 6.22318 47.2916 4.1221 44.7099 4.1221C42.1275 4.1221 40.0264 6.22318 40.0264 8.80558ZM39.0998 12.3479C39.9348 12.223 40.778 12.132 41.6204 12.0634C41.7922 12.0492 41.9639 12.037 42.1357 12.0261C43.8498 11.9107 45.5714 11.9107 47.2862 12.0261L47.3432 12.0302C47.4956 12.041 47.6487 12.052 47.8008 12.0634C48.6439 12.1327 49.4851 12.223 50.3221 12.3479C67.8232 14.9873 81.3998 29.7818 82.1432 47.8328H7.27533C8.02005 29.7818 21.5953 14.9873 39.0998 12.3479ZM77.438 58.7605C79.778 58.7605 81.987 57.622 83.3482 55.7178L86.7513 50.9549H4.22791L7.63106 55.7192C8.99218 57.622 11.2012 58.7605 13.5412 58.7605H77.438Z" fill="white"/>
<path d="M89.6439 49.4655L89.466 49.5568L89.4661 49.557L89.6439 49.4655ZM89.4192 52.5937L89.5819 52.71L89.5821 52.7097L89.4192 52.5937ZM85.8891 57.5331L85.7264 57.4168L85.7264 57.4169L85.8891 57.5331ZM5.09143 57.5331L5.25419 57.4168L5.25418 57.4168L5.09143 57.5331ZM1.56337 52.5937L1.72612 52.4774L1.7261 52.4774L1.56337 52.5937ZM1.33527 49.4655L1.15741 49.374L1.15738 49.3741L1.33527 49.4655ZM4.16071 47.8321V48.0321H4.35324L4.36056 47.8397L4.16071 47.8321ZM36.9716 9.55437L37.0096 9.75071L37.1908 9.71559L37.1703 9.53216L36.9716 9.55437ZM36.9518 9.38776L36.7533 9.41189L36.7533 9.41193L36.9518 9.38776ZM36.9517 9.38673L36.7531 9.4101L36.7532 9.41086L36.9517 9.38673ZM36.9517 9.38663L37.1503 9.36326L37.1502 9.36245L36.9517 9.38663ZM52.4711 9.35673L52.2725 9.33281L52.2724 9.33377L52.4711 9.35673ZM52.4711 9.35723L52.6696 9.38115L52.6697 9.3802L52.4711 9.35723ZM52.4483 9.55437L52.2494 9.5334L52.2302 9.71579L52.4102 9.75071L52.4483 9.55437ZM85.2571 47.8321L85.0573 47.8397L85.0646 48.0321H85.2571V47.8321ZM40.0359 9.07373L39.8364 9.08723L39.8506 9.29748L40.0599 9.27229L40.0359 9.07373ZM40.1464 9.06386L40.1612 9.26332L40.163 9.26316L40.1464 9.06386ZM40.1465 9.06385L40.1317 8.86438L40.1299 8.86454L40.1465 9.06385ZM40.2566 9.05404L40.2352 8.85517L40.2329 8.85545L40.2566 9.05404ZM41.8764 8.91488L41.8901 9.1144L41.8906 9.11437L41.8764 8.91488ZM42.1129 8.89608L42.1296 9.09539H42.1296L42.1129 8.89608ZM42.4744 8.86939L42.4853 9.0691L42.4854 9.06909L42.4744 8.86939ZM46.9468 8.87075L46.9355 9.07043L46.936 9.07045L46.9468 8.87075ZM47.3109 8.89762L47.2942 9.09692L47.3109 8.89762ZM47.5449 8.91623L47.5306 9.11572L47.5311 9.11576L47.5449 8.91623ZM49.1653 9.0554L49.1432 9.25418L49.1447 9.25433L49.1653 9.0554ZM49.2754 9.06466L49.2606 9.26411L49.2754 9.06466ZM49.3839 9.07373L49.3636 9.2727L49.5695 9.29366L49.5835 9.08723L49.3839 9.07373ZM41.6204 12.0634L41.6366 12.2628L41.637 12.2628L41.6204 12.0634ZM39.0998 12.3479L39.0702 12.1501L39.07 12.1501L39.0998 12.3479ZM42.1357 12.0261L42.1483 12.2257L42.1491 12.2257L42.1357 12.0261ZM47.2862 12.0261L47.3005 11.8266L47.2996 11.8266L47.2862 12.0261ZM47.3432 12.0302L47.329 12.2297H47.329L47.3432 12.0302ZM47.8008 12.0634L47.8172 11.8641L47.8158 11.864L47.8008 12.0634ZM50.3221 12.3479L50.3519 12.1501L50.3516 12.1501L50.3221 12.3479ZM82.1432 47.8328V48.0328H82.3516L82.343 47.8246L82.1432 47.8328ZM7.27533 47.8328L7.0755 47.8245L7.06691 48.0328H7.27533V47.8328ZM83.3482 55.7178L83.5109 55.8341L83.5109 55.8341L83.3482 55.7178ZM86.7513 50.9549L86.914 51.0712L87.14 50.7549H86.7513V50.9549ZM4.22791 50.9549V50.7549H3.83927L4.06517 51.0711L4.22791 50.9549ZM7.63106 55.7192L7.46831 55.8354L7.46839 55.8355L7.63106 55.7192ZM89.8219 49.3741C89.2695 48.2984 88.175 47.6321 86.9665 47.6321V48.0321C88.0254 48.0321 88.9824 48.6149 89.466 49.5568L89.8219 49.3741ZM89.5821 52.7097C90.2827 51.7261 90.3739 50.4472 89.8218 49.374L89.4661 49.557C89.9499 50.4973 89.87 51.6161 89.2563 52.4776L89.5821 52.7097ZM86.0519 57.6494L89.5819 52.71L89.2565 52.4774L85.7264 57.4168L86.0519 57.6494ZM77.4393 62.0819C80.8493 62.0819 84.0694 60.4262 86.0519 57.6493L85.7264 57.4169C83.819 60.0885 80.7202 61.6819 77.4393 61.6819V62.0819ZM13.5412 62.0819H77.4393V61.6819H13.5412V62.0819ZM4.92867 57.6493C6.91117 60.4255 10.1312 62.0819 13.5412 62.0819V61.6819C10.2604 61.6819 7.16158 60.0879 5.25419 57.4168L4.92867 57.6493ZM1.40062 52.7099L4.92868 57.6493L5.25418 57.4168L1.72612 52.4774L1.40062 52.7099ZM1.15738 49.3741C0.605214 50.4487 0.697899 51.7264 1.40064 52.7099L1.7261 52.4774C1.11049 51.6158 1.02939 50.4984 1.51317 49.5569L1.15738 49.3741ZM4.01271 47.6321C2.80417 47.6321 1.71037 48.2985 1.15741 49.374L1.51314 49.5569C1.99748 48.6149 2.95385 48.0321 4.01271 48.0321V47.6321ZM4.16071 47.6321H4.01271V48.0321H4.16071V47.6321ZM36.9335 9.35802C18.6475 12.9021 4.68879 28.6934 3.96085 47.8245L4.36056 47.8397C5.08132 28.8974 18.9031 13.26 37.0096 9.75071L36.9335 9.35802ZM36.7533 9.41193C36.7601 9.46772 36.7667 9.52229 36.7728 9.57657L37.1703 9.53216C37.164 9.47559 37.1571 9.41905 37.1504 9.36359L36.7533 9.41193ZM36.7532 9.41086L36.7533 9.41189L37.1504 9.36363L37.1502 9.3626L36.7532 9.41086ZM36.7531 9.41L36.7531 9.4101L37.1503 9.36336L37.1503 9.36326L36.7531 9.41ZM36.7043 8.80558C36.7043 9.01208 36.7298 9.21898 36.7532 9.41081L37.1502 9.36245C37.1263 9.16623 37.1044 8.98365 37.1044 8.80558H36.7043ZM44.7099 0.8C40.2955 0.8 36.7043 4.39112 36.7043 8.80558H37.1044C37.1044 4.61204 40.5164 1.2 44.7099 1.2V0.8ZM52.7155 8.80558C52.7155 4.39112 49.1244 0.8 44.7099 0.8V1.2C48.9035 1.2 52.3155 4.61204 52.3155 8.80558H52.7155ZM52.6697 9.38066C52.6917 9.19815 52.7155 9.00233 52.7155 8.80558H52.3155C52.3155 8.97423 52.2951 9.14603 52.2726 9.33281L52.6697 9.38066ZM52.6697 9.3802L52.6698 9.3797L52.2724 9.33377L52.2724 9.33426L52.6697 9.3802ZM52.6472 9.57533C52.6539 9.51125 52.6617 9.44702 52.6696 9.38115L52.2725 9.33331C52.2646 9.39867 52.2565 9.46586 52.2494 9.5334L52.6472 9.57533ZM85.457 47.8245C84.7297 28.6927 70.7703 12.9042 52.4864 9.35802L52.4102 9.75071C70.5147 13.262 84.3372 28.8967 85.0573 47.8397L85.457 47.8245ZM86.9665 47.6321H85.2571V48.0321H86.9665V47.6321ZM40.2355 9.06023C40.2296 8.97383 40.2264 8.88808 40.2264 8.80558H39.8264C39.8264 8.89822 39.83 8.99305 39.8364 9.08723L40.2355 9.06023ZM40.1317 8.8644C40.0956 8.86707 40.0542 8.87009 40.012 8.87516L40.0599 9.27229C40.0913 9.26851 40.1235 9.26609 40.1612 9.26331L40.1317 8.8644ZM40.1298 8.86454L40.1298 8.86455L40.163 9.26316L40.1631 9.26316L40.1298 8.86454ZM40.1299 8.86454L40.1298 8.86454L40.1631 9.26316L40.1631 9.26316L40.1299 8.86454ZM40.2329 8.85545C40.2013 8.85922 40.1691 8.86164 40.1317 8.86439L40.1612 9.26331C40.1971 9.26066 40.2382 9.25765 40.2803 9.25263L40.2329 8.85545ZM41.8626 8.71535C41.3179 8.7528 40.7755 8.79713 40.2352 8.85519L40.278 9.2529C40.8116 9.19555 41.3486 9.15163 41.8901 9.1144L41.8626 8.71535ZM42.0963 8.69678C42.0174 8.70337 41.9398 8.70985 41.8621 8.71538L41.8906 9.11437C41.9711 9.10864 42.0511 9.10195 42.1296 9.09539L42.0963 8.69678ZM42.4636 8.66969C42.3394 8.67644 42.2163 8.68675 42.0963 8.69678L42.1296 9.09539C42.2506 9.08528 42.3679 9.07548 42.4853 9.0691L42.4636 8.66969ZM44.7099 8.60558C43.9564 8.60558 43.2066 8.62879 42.4634 8.66969L42.4854 9.06909C43.2222 9.02853 43.9646 9.00558 44.7099 9.00558V8.60558ZM46.9581 8.67107C46.212 8.62879 45.4635 8.60558 44.7099 8.60558V9.00558C45.4553 9.00558 46.1962 9.02853 46.9355 9.07043L46.9581 8.67107ZM47.3276 8.69831C47.2069 8.68822 47.0829 8.67784 46.9576 8.67104L46.936 9.07045C47.0544 9.07688 47.1726 9.08675 47.2942 9.09692L47.3276 8.69831ZM47.5591 8.71674C47.4824 8.71126 47.4057 8.70485 47.3276 8.69831L47.2942 9.09692C47.3719 9.10342 47.4511 9.11004 47.5306 9.11572L47.5591 8.71674ZM49.1874 8.85663C48.6463 8.79642 48.1026 8.75411 47.5586 8.7167L47.5311 9.11576C48.0733 9.15303 48.6104 9.1949 49.1432 9.25417L49.1874 8.85663ZM49.2903 8.86522C49.2528 8.86243 49.219 8.8599 49.186 8.85647L49.1447 9.25433C49.1845 9.25846 49.2242 9.2614 49.2606 9.26411L49.2903 8.86522ZM49.4042 8.87476C49.3648 8.87075 49.3259 8.86786 49.2903 8.86521L49.2606 9.26411C49.2971 9.26683 49.3306 9.26933 49.3636 9.2727L49.4042 8.87476ZM49.1934 8.80558C49.1934 8.8894 49.1902 8.97379 49.1844 9.06022L49.5835 9.08723C49.5898 8.99309 49.5934 8.89961 49.5934 8.80558H49.1934ZM44.7099 4.3221C47.1812 4.3221 49.1934 6.33365 49.1934 8.80558H49.5934C49.5934 6.1127 47.4021 3.9221 44.7099 3.9221V4.3221ZM40.2264 8.80558C40.2264 6.33364 42.238 4.3221 44.7099 4.3221V3.9221C42.0171 3.9221 39.8264 6.11272 39.8264 8.80558H40.2264ZM41.6042 11.8641C40.7583 11.933 39.9106 12.0244 39.0702 12.1501L39.1294 12.5457C39.959 12.4216 40.7976 12.3311 41.6366 12.2628L41.6042 11.8641ZM42.1231 11.8265C41.9503 11.8374 41.7772 11.8497 41.6039 11.8641L41.637 12.2628C41.8072 12.2486 41.9776 12.2365 42.1483 12.2257L42.1231 11.8265ZM47.2996 11.8266C45.5759 11.7106 43.8453 11.7106 42.1222 11.8266L42.1491 12.2257C43.8543 12.1109 45.5669 12.1109 47.2728 12.2257L47.2996 11.8266ZM47.3575 11.8307L47.3005 11.8266L47.272 12.2256L47.329 12.2297L47.3575 11.8307ZM47.8158 11.864C47.6633 11.8525 47.5097 11.8416 47.3575 11.8307L47.329 12.2297C47.4814 12.2405 47.6341 12.2514 47.7858 12.2629L47.8158 11.864ZM50.3516 12.1501C49.5092 12.0244 48.6636 11.9336 47.8172 11.8641L47.7844 12.2628C48.6243 12.3318 49.4609 12.4216 50.2926 12.5457L50.3516 12.1501ZM82.343 47.8246C81.5956 29.6767 67.9467 14.8037 50.3519 12.1501L50.2923 12.5457C67.6998 15.171 81.204 29.8869 81.9433 47.841L82.343 47.8246ZM7.27533 48.0328H82.1432V47.6328H7.27533V48.0328ZM39.07 12.1501C21.4718 14.8037 7.82421 29.6767 7.0755 47.8245L7.47516 47.841C8.21588 29.8869 21.7187 15.171 39.1296 12.5457L39.07 12.1501ZM83.1854 55.6015C81.8618 57.4533 79.7133 58.5605 77.438 58.5605V58.9605C79.8427 58.9605 82.1123 57.7907 83.5109 55.8341L83.1854 55.6015ZM86.5886 50.8386L83.1854 55.6015L83.5109 55.8341L86.914 51.0712L86.5886 50.8386ZM4.22791 51.1549H86.7513V50.7549H4.22791V51.1549ZM7.7938 55.6029L4.39066 50.8386L4.06517 51.0711L7.46831 55.8354L7.7938 55.6029ZM13.5412 58.5605C11.2659 58.5605 9.11738 57.4533 7.79373 55.6028L7.46839 55.8355C8.86698 57.7907 11.1365 58.9605 13.5412 58.9605V58.5605ZM77.438 58.5605H13.5412V58.9605H77.438V58.5605Z" fill="white"/>
<path d="M27.7724 19.5755C19.6485 24.388 13.7356 33.0958 11.9529 42.868C11.7981 43.7173 12.3602 44.5285 13.2095 44.6833C13.3031 44.7023 13.3968 44.7098 13.4905 44.7098C14.2305 44.7098 14.8876 44.1823 15.0247 43.4301C16.6465 34.535 22.0075 26.6201 29.3651 22.2618C30.1064 21.8232 30.3514 20.8647 29.9129 20.1233C29.471 19.3814 28.5151 19.1363 27.7724 19.5755Z" fill="white" stroke="white" stroke-width="0.4"/>
</svg>
