<svg width="57" height="52" viewBox="0 0 57 52" fill="none" xmlns="http://www.w3.org/2000/svg">
<path fill-rule="evenodd" clip-rule="evenodd" d="M56.1054 2.41613V12.0135V12.0239V35.3153C56.1054 37.1488 55.1938 38.8357 53.5384 40.0825C51.9982 41.235 49.9865 41.8742 47.8491 41.8742C45.7117 41.8742 43.7001 41.235 42.1599 40.0825C40.5045 38.8357 39.5929 37.1488 39.5929 35.3153C39.5929 33.4817 40.5045 31.7949 42.1599 30.548C43.7001 29.3955 45.7222 28.7564 47.8491 28.7564C49.8608 28.7564 51.7782 29.3222 53.2765 30.3595V13.9518L27.5124 22.1451V44.4411C27.5124 46.2747 26.6009 47.9615 24.9455 49.2084C23.4053 50.3609 21.3936 51 19.2562 51C17.1188 51 15.1072 50.3609 13.567 49.2084C11.9115 47.9615 11 46.2747 11 44.4411C11 42.6076 11.9115 40.9207 13.567 39.6739C15.1072 38.5214 17.1293 37.8823 19.2562 37.8823C21.2679 37.8823 23.1853 38.448 24.6835 39.4853V21.1184V21.1079V11.5001C24.6835 10.8819 25.0817 10.3371 25.6684 10.1485L54.2613 1.06454C54.6909 0.928333 55.1624 1.01215 55.5291 1.27409C55.8853 1.53602 56.1054 1.9656 56.1054 2.41613ZM13.8289 44.4411C13.8289 46.4633 16.3121 48.1711 19.2562 48.1711C22.2004 48.1711 24.6835 46.4737 24.6835 44.4411C24.6835 42.419 22.2004 40.7112 19.2562 40.7112C16.3121 40.7112 13.8289 42.419 13.8289 44.4411ZM27.5124 19.1695V12.5269L53.2765 4.34398V10.9867L27.5124 19.1695ZM42.4323 35.3153C42.4323 37.3374 44.9155 39.0452 47.8596 39.0452C50.7933 39.0452 53.2765 37.3374 53.2869 35.3153C53.2869 33.2931 50.8038 31.5853 47.8596 31.5853C44.9155 31.5853 42.4323 33.2931 42.4323 35.3153ZM14.125 1H2.875C1.84 1 1 1.672 1 2.5C1 3.328 1.84 4 2.875 4H14.125C15.16 4 16 3.328 16 2.5C16 1.672 15.16 1 14.125 1ZM2.5 7H11.5C12.328 7 13 7.672 13 8.5C13 9.328 12.328 10 11.5 10H2.5C1.672 10 1 9.328 1 8.5C1 7.672 1.672 7 2.5 7Z" fill="url(#paint0_linear)"/>
<path d="M53.5384 40.0825L53.6882 40.2827L53.6888 40.2822L53.5384 40.0825ZM42.1599 40.0825L42.0095 40.2822L42.0101 40.2827L42.1599 40.0825ZM42.1599 30.548L42.0101 30.3479L42.0095 30.3483L42.1599 30.548ZM53.2765 30.3595L53.1342 30.565L53.5265 30.8366V30.3595H53.2765ZM53.2765 13.9518H53.5265V13.6099L53.2007 13.7135L53.2765 13.9518ZM27.5124 22.1451L27.4367 21.9069L27.2624 21.9623V22.1451H27.5124ZM24.9455 49.2084L25.0952 49.4085L25.0959 49.4081L24.9455 49.2084ZM13.567 49.2084L13.4166 49.4081L13.4172 49.4085L13.567 49.2084ZM13.567 39.6739L13.4172 39.4737L13.4166 39.4742L13.567 39.6739ZM24.6835 39.4853L24.5412 39.6908L24.9335 39.9624V39.4853H24.6835ZM25.6684 10.1485L25.5927 9.91021L25.5919 9.91047L25.6684 10.1485ZM54.2613 1.06454L54.1858 0.826232L54.1856 0.826275L54.2613 1.06454ZM55.5291 1.27409L55.6772 1.07266L55.6744 1.07066L55.5291 1.27409ZM27.5124 12.5269L27.4368 12.2886L27.2624 12.344V12.5269H27.5124ZM27.5124 19.1695H27.2624V19.5113L27.5881 19.4078L27.5124 19.1695ZM53.2765 4.34398H53.5265V4.00227L53.2008 4.10571L53.2765 4.34398ZM53.2765 10.9867L53.3521 11.2249L53.5265 11.1696V10.9867H53.2765ZM53.2869 35.3153L53.5369 35.3166V35.3153H53.2869ZM56.3554 12.0135V2.41613H55.8554V12.0135H56.3554ZM56.3554 12.0239V12.0135H55.8554V12.0239H56.3554ZM56.3554 35.3153V12.0239H55.8554V35.3153H56.3554ZM53.6888 40.2822C55.3972 38.9955 56.3554 37.2388 56.3554 35.3153H55.8554C55.8554 37.0589 54.9904 38.6759 53.388 39.8828L53.6888 40.2822ZM47.8491 42.1242C50.035 42.1242 52.1005 41.4707 53.6882 40.2827L53.3886 39.8823C51.8959 40.9993 49.9381 41.6242 47.8491 41.6242V42.1242ZM42.0101 40.2827C43.5978 41.4707 45.6633 42.1242 47.8491 42.1242V41.6242C45.7602 41.6242 43.8024 40.9993 42.3097 39.8823L42.0101 40.2827ZM39.3429 35.3153C39.3429 37.2388 40.3011 38.9955 42.0095 40.2822L42.3103 39.8828C40.7079 38.6759 39.8429 37.0589 39.8429 35.3153H39.3429ZM42.0095 30.3483C40.3011 31.6351 39.3429 33.3918 39.3429 35.3153H39.8429C39.8429 33.5717 40.7079 31.9546 42.3103 30.7477L42.0095 30.3483ZM47.8491 28.5064C45.6739 28.5064 43.5979 29.1598 42.0101 30.3479L42.3097 30.7482C43.8023 29.6313 45.7705 29.0064 47.8491 29.0064V28.5064ZM53.4188 30.1539C51.8743 29.0847 49.9061 28.5064 47.8491 28.5064V29.0064C49.8156 29.0064 51.6821 29.5597 53.1342 30.565L53.4188 30.1539ZM53.0265 13.9518V30.3595H53.5265V13.9518H53.0265ZM27.5882 22.3834L53.3522 14.19L53.2007 13.7135L27.4367 21.9069L27.5882 22.3834ZM27.7624 44.4411V22.1451H27.2624V44.4411H27.7624ZM25.0959 49.4081C26.8043 48.1213 27.7624 46.3646 27.7624 44.4411H27.2624C27.2624 46.1847 26.3975 47.8018 24.7951 49.0087L25.0959 49.4081ZM19.2562 51.25C21.4421 51.25 23.5076 50.5966 25.0952 49.4085L24.7957 49.0082C23.303 50.1252 21.3452 50.75 19.2562 50.75V51.25ZM13.4172 49.4085C15.0049 50.5966 17.0704 51.25 19.2562 51.25V50.75C17.1673 50.75 15.2095 50.1252 13.7168 49.0082L13.4172 49.4085ZM10.75 44.4411C10.75 46.3646 11.7081 48.1213 13.4166 49.4081L13.7174 49.0087C12.1149 47.8018 11.25 46.1847 11.25 44.4411H10.75ZM13.4166 39.4742C11.7081 40.7609 10.75 42.5176 10.75 44.4411H11.25C11.25 42.6975 12.1149 41.0805 13.7174 39.8736L13.4166 39.4742ZM19.2562 37.6323C17.081 37.6323 15.005 38.2856 13.4172 39.4737L13.7168 39.8741C15.2094 38.7571 17.1776 38.1323 19.2562 38.1323V37.6323ZM24.8258 39.2798C23.2814 38.2105 21.3131 37.6323 19.2562 37.6323V38.1323C21.2226 38.1323 23.0891 38.6856 24.5412 39.6908L24.8258 39.2798ZM24.4335 21.1184V39.4853H24.9335V21.1184H24.4335ZM24.4335 21.1079V21.1184H24.9335V21.1079H24.4335ZM24.4335 11.5001V21.1079H24.9335V11.5001H24.4335ZM25.5919 9.91047C24.9019 10.1323 24.4335 10.7732 24.4335 11.5001H24.9335C24.9335 10.9906 25.2615 10.5419 25.7449 10.3865L25.5919 9.91047ZM54.1856 0.826275L25.5927 9.91021L25.7441 10.3867L54.337 1.3028L54.1856 0.826275ZM55.6744 1.07066C55.2469 0.765281 54.694 0.665072 54.1858 0.826232L54.3369 1.30285C54.6878 1.19159 55.0779 1.25903 55.3838 1.47752L55.6744 1.07066ZM56.3554 2.41613C56.3554 1.88586 56.0973 1.38159 55.6772 1.07268L55.381 1.4755C55.6733 1.69046 55.8554 2.04534 55.8554 2.41613H56.3554ZM19.2562 47.9211C17.8301 47.9211 16.5236 47.507 15.5801 46.8584C14.6339 46.208 14.0789 45.3434 14.0789 44.4411H13.5789C13.5789 45.561 14.2655 46.5614 15.2969 47.2704C16.331 47.9813 17.7382 48.4211 19.2562 48.4211V47.9211ZM24.4335 44.4411C24.4335 45.3488 23.8783 46.2133 22.9325 46.8622C21.9892 47.5094 20.6827 47.9211 19.2562 47.9211V48.4211C20.7739 48.4211 22.1811 47.9841 23.2154 47.2745C24.2472 46.5666 24.9335 45.5661 24.9335 44.4411H24.4335ZM19.2562 40.9612C20.6824 40.9612 21.9888 41.3753 22.9323 42.0239C23.8785 42.6743 24.4335 43.5389 24.4335 44.4411H24.9335C24.9335 43.3212 24.247 42.3208 23.2156 41.6118C22.1814 40.9009 20.7742 40.4612 19.2562 40.4612V40.9612ZM14.0789 44.4411C14.0789 43.5389 14.6339 42.6743 15.5801 42.0239C16.5236 41.3753 17.8301 40.9612 19.2562 40.9612V40.4612C17.7382 40.4612 16.331 40.9009 15.2969 41.6118C14.2655 42.3208 13.5789 43.3212 13.5789 44.4411H14.0789ZM27.2624 12.5269V19.1695H27.7624V12.5269H27.2624ZM53.2008 4.10571L27.4368 12.2886L27.5881 12.7651L53.3521 4.58225L53.2008 4.10571ZM53.5265 10.9867V4.34398H53.0265V10.9867H53.5265ZM27.5881 19.4078L53.3521 11.2249L53.2008 10.7484L27.4368 18.9313L27.5881 19.4078ZM47.8596 38.7952C46.4335 38.7952 45.127 38.3811 44.1835 37.7325C43.2373 37.0821 42.6823 36.2175 42.6823 35.3153H42.1823C42.1823 36.4352 42.8689 37.4356 43.9003 38.1446C44.9344 38.8555 46.3416 39.2952 47.8596 39.2952V38.7952ZM53.0369 35.314C53.0323 36.2169 52.4743 37.082 51.5279 37.7325C50.5842 38.3812 49.2803 38.7952 47.8596 38.7952V39.2952C49.3726 39.2952 50.7771 38.8554 51.8111 38.1446C52.8423 37.4357 53.5311 36.4358 53.5369 35.3166L53.0369 35.314ZM47.8596 31.8353C49.2858 31.8353 50.5922 32.2494 51.5357 32.898C52.4819 33.5485 53.0369 34.413 53.0369 35.3153H53.5369C53.5369 34.1954 52.8504 33.195 51.819 32.486C50.7848 31.7751 49.3776 31.3353 47.8596 31.3353V31.8353ZM42.6823 35.3153C42.6823 34.413 43.2373 33.5485 44.1835 32.898C45.127 32.2494 46.4335 31.8353 47.8596 31.8353V31.3353C46.3416 31.3353 44.9344 31.7751 43.9003 32.486C42.8689 33.195 42.1823 34.1954 42.1823 35.3153H42.6823ZM2.875 1.25H14.125V0.75H2.875V1.25ZM1.25 2.5C1.25 1.85925 1.92313 1.25 2.875 1.25V0.75C1.75687 0.75 0.75 1.48475 0.75 2.5H1.25ZM2.875 3.75C1.92313 3.75 1.25 3.14075 1.25 2.5H0.75C0.75 3.51525 1.75687 4.25 2.875 4.25V3.75ZM14.125 3.75H2.875V4.25H14.125V3.75ZM15.75 2.5C15.75 3.14075 15.0769 3.75 14.125 3.75V4.25C15.2431 4.25 16.25 3.51525 16.25 2.5H15.75ZM14.125 1.25C15.0769 1.25 15.75 1.85925 15.75 2.5H16.25C16.25 1.48475 15.2431 0.75 14.125 0.75V1.25ZM11.5 6.75H2.5V7.25H11.5V6.75ZM13.25 8.5C13.25 7.53393 12.4661 6.75 11.5 6.75V7.25C12.1899 7.25 12.75 7.81007 12.75 8.5H13.25ZM11.5 10.25C12.4661 10.25 13.25 9.46607 13.25 8.5H12.75C12.75 9.18993 12.1899 9.75 11.5 9.75V10.25ZM2.5 10.25H11.5V9.75H2.5V10.25ZM0.75 8.5C0.75 9.46607 1.53393 10.25 2.5 10.25V9.75C1.81007 9.75 1.25 9.18993 1.25 8.5H0.75ZM2.5 6.75C1.53393 6.75 0.75 7.53393 0.75 8.5H1.25C1.25 7.81007 1.81007 7.25 2.5 7.25V6.75Z" fill="url(#paint1_linear)"/>
<defs>
<linearGradient id="paint0_linear" x1="1" y1="1" x2="1" y2="51" gradientUnits="userSpaceOnUse">
<stop stop-color="#49C4FF"/>
<stop offset="1" stop-color="#4191FF"/>
</linearGradient>
<linearGradient id="paint1_linear" x1="1" y1="1" x2="1" y2="51" gradientUnits="userSpaceOnUse">
<stop stop-color="#49C4FF"/>
<stop offset="1" stop-color="#4191FF"/>
</linearGradient>
</defs>
</svg>
