<svg width="106" height="96" viewBox="0 0 106 96" fill="none" xmlns="http://www.w3.org/2000/svg">
<path fill-rule="evenodd" clip-rule="evenodd" d="M94.175 0H11.3727C5.10212 0 0 4.59961 0 10.2542V69.9808C0 75.6347 5.10212 80.235 11.3727 80.235H28.7477L17.4661 90.4071C16.259 91.4955 16.259 93.2613 17.4661 94.3496C18.07 94.8942 18.8616 95.1665 19.6523 95.1665C20.4439 95.1665 21.2355 94.8942 21.8394 94.3496L37.4937 80.235H68.0532L83.7075 94.3496C84.3114 94.8942 85.103 95.1665 85.8937 95.1665C86.6853 95.1665 87.4769 94.8942 88.0808 94.3496C89.2879 93.2613 89.2879 91.4962 88.0808 90.4071L76.7983 80.235H94.1742C100.445 80.235 105.546 75.6347 105.546 69.9808V10.2542C105.547 4.59961 100.446 0 94.175 0ZM100.049 69.8694C100.049 72.4384 97.7148 74.528 94.8461 74.528H11.8002C8.93067 74.528 6.59663 72.4384 6.59663 69.8694V10.3915C6.59663 7.8225 8.93067 5.73292 11.8002 5.73292H94.8461C97.7148 5.73292 100.049 7.8225 100.049 10.3915V69.8694ZM59.9881 41.3673C61.4182 40.1683 61.4182 37.9684 59.9881 36.7694L49.7347 28.1731C47.7824 26.5363 44.8073 27.9244 44.8073 30.4721V47.6646C44.8073 50.2123 47.7824 51.6004 49.7347 49.9636L59.9881 41.3673Z" fill="url(#paint0_linear)"/>
<defs>
<linearGradient id="paint0_linear" x1="0" y1="0" x2="0" y2="95.1665" gradientUnits="userSpaceOnUse">
<stop stop-color="#F39200"/>
<stop offset="1" stop-color="#E94E1B"/>
</linearGradient>
</defs>
</svg>
