<svg width="57" height="72" viewBox="0 0 57 72" fill="none" xmlns="http://www.w3.org/2000/svg">
<path fill-rule="evenodd" clip-rule="evenodd" d="M54.4234 11.2592C54.8848 11.1012 55.3949 11.2005 55.7628 11.5199C56.1313 11.8392 56.3017 12.3306 56.2104 12.8091L55.5919 16.0487C54.4437 22.0659 51.2986 27.564 46.7714 31.625H53.2266C53.9817 31.625 54.5938 32.237 54.5938 32.9922V39.0078C54.5938 39.763 53.9817 40.375 53.2266 40.375H52.2146L45.9282 69.9175C45.7936 70.5487 45.236 71 44.5909 71H12.6441C11.9984 71 11.4409 70.5487 11.3068 69.9175L5.02041 40.375H4.00784C3.25268 40.375 2.64065 39.763 2.64065 39.0078V32.9922C2.64065 32.237 3.25268 31.625 4.00784 31.625H10.463C5.93632 27.5646 2.79072 22.0659 1.6425 16.0487L1.02406 12.8091C0.933269 12.3306 1.1031 11.8392 1.4716 11.5199C1.83956 11.2005 2.35012 11.1012 2.81102 11.2592C6.24768 12.4384 9.49368 14.0524 12.4801 16.0407C11.4969 13.5034 10.9826 10.7797 10.9826 7.97693V6.87891C10.9826 6.42709 11.2064 6.00412 11.5792 5.74937C11.953 5.49516 12.4278 5.44122 12.8486 5.60571C16.547 7.05408 19.8528 9.25386 22.5914 12.0069C23.188 8.29469 24.7843 4.78487 27.2345 1.88547L27.5731 1.48492C27.8327 1.17731 28.2145 1 28.6172 1C29.0199 1 29.4017 1.17731 29.6613 1.48492L29.9999 1.88547C32.4501 4.7854 34.0475 8.29576 34.6435 12.0085C37.3822 9.25546 40.6891 7.05461 44.3885 5.60571C44.8093 5.44122 45.2841 5.49516 45.6574 5.74937C46.0307 6.00412 46.2539 6.42709 46.2539 6.87891V7.97693C46.2539 10.7791 45.7402 13.5018 44.7575 16.0385C47.7429 14.0518 50.9878 12.4379 54.4234 11.2592ZM32.1634 14.8593C32.0731 11.1353 30.8309 7.52458 28.6172 4.54134C26.4041 7.52405 25.1619 11.1343 25.0716 14.8572C26.4954 16.7291 27.6912 18.7788 28.6183 20.9657C29.5443 18.7804 30.7396 16.7307 32.1634 14.8593ZM27.2938 25.5341C27.4503 26.153 28.0057 26.5648 28.6167 26.5648C28.7267 26.5648 28.8388 26.5515 28.9505 26.5237C29.4562 26.3971 29.8247 26.0024 29.9443 25.5293C31.8333 18.2949 36.8289 12.2403 43.4945 8.98256C43.2504 13.8286 41.2471 18.3499 37.7918 21.8058C37.7202 21.8774 37.6588 21.9554 37.6065 22.0371C35.4377 24.3089 33.5156 26.8297 31.8894 29.5609L30.6605 31.625H26.5744L25.3456 29.5609C23.7204 26.8313 21.8 24.3132 19.6338 22.0424C19.581 21.9586 19.5185 21.879 19.4453 21.8058C15.9894 18.3499 13.9862 13.8281 13.7426 8.98256C20.4093 12.2408 25.4059 18.2976 27.2938 25.5341ZM4.16752 14.6927L4.32827 15.536C5.57209 22.0515 9.41143 27.8919 14.8861 31.625H23.392L22.9957 30.9596C18.6362 23.6366 12.0096 17.9296 4.16752 14.6927ZM51.8594 37.6406H51.1208H51.1112H35.4825C36.2377 37.6406 36.8497 38.2527 36.8497 39.0078C36.8497 39.763 36.2377 40.375 35.4825 40.375H49.4188L43.4838 68.2656H13.7507L7.81567 40.375H34.7872C34.032 40.375 33.42 39.763 33.42 39.0078C33.42 38.2527 34.032 37.6406 34.7872 37.6406H6.12378H6.11363H5.37503V34.3594H14.4802H25.7953H25.8017H31.4328H42.751H51.8594V37.6406ZM42.3489 31.625C47.8235 27.8919 51.6629 22.0515 52.9062 15.536L53.0669 14.6932C45.2248 17.9302 38.5982 23.6371 34.2387 30.9596L33.8424 31.625H42.3489Z" fill="white"/>
<path d="M55.7628 11.5199L55.6317 11.6709L55.6318 11.671L55.7628 11.5199ZM54.4234 11.2592L54.3586 11.07L54.3585 11.0701L54.4234 11.2592ZM56.2104 12.8091L56.4068 12.8466V12.8466L56.2104 12.8091ZM55.5919 16.0487L55.3955 16.0112L55.3955 16.0112L55.5919 16.0487ZM46.7714 31.625L46.6379 31.4761L46.249 31.825H46.7714V31.625ZM52.2146 40.375V40.175H52.0526L52.0189 40.3334L52.2146 40.375ZM45.9282 69.9175L46.1238 69.9592L46.1238 69.9591L45.9282 69.9175ZM11.3068 69.9175L11.5024 69.8759L11.5024 69.8758L11.3068 69.9175ZM5.02041 40.375L5.21603 40.3334L5.18233 40.175H5.02041V40.375ZM10.463 31.625V31.825H10.9855L10.5965 31.4761L10.463 31.625ZM1.6425 16.0487L1.83895 16.0112L1.83895 16.0112L1.6425 16.0487ZM1.02406 12.8091L0.827564 12.8464L0.827606 12.8466L1.02406 12.8091ZM1.4716 11.5199L1.60259 11.671L1.60269 11.6709L1.4716 11.5199ZM2.81102 11.2592L2.87593 11.0701L2.8759 11.0701L2.81102 11.2592ZM12.4801 16.0407L12.3693 16.2071L12.8947 16.5569L12.6666 15.9684L12.4801 16.0407ZM11.5792 5.74937L11.4667 5.58399L11.4663 5.58425L11.5792 5.74937ZM12.8486 5.60571L12.9216 5.41948L12.9214 5.41944L12.8486 5.60571ZM22.5914 12.0069L22.4496 12.148L22.7266 12.4264L22.7889 12.0387L22.5914 12.0069ZM27.2345 1.88547L27.0818 1.75635L27.0818 1.75637L27.2345 1.88547ZM27.5731 1.48492L27.7259 1.61404L27.726 1.6139L27.5731 1.48492ZM29.6613 1.48492L29.5084 1.6139L29.5086 1.61404L29.6613 1.48492ZM29.9999 1.88547L30.1527 1.75639L30.1526 1.75635L29.9999 1.88547ZM34.6435 12.0085L34.446 12.0402L34.5083 12.428L34.7853 12.1496L34.6435 12.0085ZM44.3885 5.60571L44.3157 5.41944L44.3155 5.41949L44.3885 5.60571ZM45.6574 5.74937L45.7701 5.58417L45.77 5.58406L45.6574 5.74937ZM44.7575 16.0385L44.571 15.9663L44.3431 16.5545L44.8683 16.205L44.7575 16.0385ZM28.6172 4.54134L28.7778 4.42216L28.6172 4.2057L28.4566 4.42216L28.6172 4.54134ZM32.1634 14.8593L32.3225 14.9804L32.365 14.9246L32.3633 14.8545L32.1634 14.8593ZM25.0716 14.8572L24.8717 14.8523L24.87 14.9225L24.9124 14.9783L25.0716 14.8572ZM28.6183 20.9657L28.4341 21.0438L28.6183 21.4783L28.8024 21.0438L28.6183 20.9657ZM27.2938 25.5341L27.4877 25.4851L27.4873 25.4836L27.2938 25.5341ZM28.9505 26.5237L28.9988 26.7178L28.999 26.7177L28.9505 26.5237ZM29.9443 25.5293L29.7508 25.4787L29.7504 25.4802L29.9443 25.5293ZM43.4945 8.98256L43.6942 8.99262L43.7113 8.65399L43.4066 8.80287L43.4945 8.98256ZM37.7918 21.8058L37.9332 21.9472L37.9332 21.9472L37.7918 21.8058ZM37.6065 22.0371L37.7511 22.1752L37.7645 22.1612L37.7749 22.1449L37.6065 22.0371ZM31.8894 29.5609L31.7175 29.4585L31.7175 29.4586L31.8894 29.5609ZM30.6605 31.625V31.825H30.7742L30.8324 31.7273L30.6605 31.625ZM26.5744 31.625L26.4026 31.7273L26.4608 31.825H26.5744V31.625ZM25.3456 29.5609L25.5174 29.4586L25.5174 29.4586L25.3456 29.5609ZM19.6338 22.0424L19.4647 22.1491L19.4753 22.166L19.4891 22.1805L19.6338 22.0424ZM19.4453 21.8058L19.5867 21.6644L19.4453 21.8058ZM13.7426 8.98256L13.8305 8.80287L13.5259 8.65401L13.5429 8.9926L13.7426 8.98256ZM4.32827 15.536L4.13181 15.5734L4.13182 15.5735L4.32827 15.536ZM4.16752 14.6927L4.24383 14.5078L3.90176 14.3666L3.97106 14.7302L4.16752 14.6927ZM14.8861 31.625L14.7734 31.7902L14.8244 31.825H14.8861V31.625ZM23.392 31.625V31.825H23.7439L23.5638 31.5227L23.392 31.625ZM22.9957 30.9596L22.8239 31.0619L22.8239 31.0619L22.9957 30.9596ZM51.8594 37.6406V37.8406H52.0594V37.6406H51.8594ZM49.4188 40.375L49.6144 40.4166L49.6658 40.175H49.4188V40.375ZM43.4838 68.2656V68.4656H43.6457L43.6794 68.3073L43.4838 68.2656ZM13.7507 68.2656L13.555 68.3073L13.5887 68.4656H13.7507V68.2656ZM7.81567 40.375V40.175H7.56863L7.62005 40.4166L7.81567 40.375ZM5.37503 37.6406H5.17503V37.8406H5.37503V37.6406ZM5.37503 34.3594V34.1594H5.17503V34.3594H5.37503ZM51.8594 34.3594H52.0594V34.1594H51.8594V34.3594ZM52.9062 15.536L53.1026 15.5735V15.5735L52.9062 15.536ZM42.3489 31.625V31.825H42.4106L42.4616 31.7902L42.3489 31.625ZM53.0669 14.6932L53.2634 14.7307L53.3327 14.3672L52.9906 14.5084L53.0669 14.6932ZM34.2387 30.9596L34.4105 31.0619L34.4106 31.0619L34.2387 30.9596ZM33.8424 31.625L33.6706 31.5227L33.4906 31.825H33.8424V31.625ZM55.8939 11.3688C55.4721 11.0027 54.8874 10.8889 54.3586 11.07L54.4882 11.4485C54.8823 11.3135 55.3176 11.3983 55.6317 11.6709L55.8939 11.3688ZM56.4068 12.8466C56.5115 12.298 56.3162 11.7348 55.8938 11.3687L55.6318 11.671C55.9464 11.9437 56.0919 12.3631 56.0139 12.7716L56.4068 12.8466ZM55.7884 16.0862L56.4068 12.8466L56.0139 12.7716L55.3955 16.0112L55.7884 16.0862ZM46.905 31.7739C51.4643 27.6841 54.6318 22.147 55.7884 16.0862L55.3955 16.0112C54.2556 21.9848 51.133 27.444 46.6379 31.4761L46.905 31.7739ZM53.2266 31.425H46.7714V31.825H53.2266V31.425ZM54.7938 32.9922C54.7938 32.1266 54.0922 31.425 53.2266 31.425V31.825C53.8713 31.825 54.3938 32.3475 54.3938 32.9922H54.7938ZM54.7938 39.0078V32.9922H54.3938V39.0078H54.7938ZM53.2266 40.575C54.0922 40.575 54.7938 39.8734 54.7938 39.0078H54.3938C54.3938 39.6525 53.8713 40.175 53.2266 40.175V40.575ZM52.2146 40.575H53.2266V40.175H52.2146V40.575ZM46.1238 69.9591L52.4102 40.4166L52.0189 40.3334L45.7325 69.8758L46.1238 69.9591ZM44.5909 71.2C45.3304 71.2 45.9695 70.6827 46.1238 69.9592L45.7326 69.8758C45.6176 70.4147 45.1416 70.8 44.5909 70.8V71.2ZM12.6441 71.2H44.5909V70.8H12.6441V71.2ZM11.1112 69.959C11.2649 70.6827 11.9041 71.2 12.6441 71.2V70.8C12.0928 70.8 11.6169 70.4147 11.5024 69.8759L11.1112 69.959ZM4.82479 40.4166L11.1112 69.9591L11.5024 69.8758L5.21603 40.3334L4.82479 40.4166ZM4.00784 40.575H5.02041V40.175H4.00784V40.575ZM2.44065 39.0078C2.44065 39.8734 3.14222 40.575 4.00784 40.575V40.175C3.36314 40.175 2.84065 39.6525 2.84065 39.0078H2.44065ZM2.44065 32.9922V39.0078H2.84065V32.9922H2.44065ZM4.00784 31.425C3.14222 31.425 2.44065 32.1266 2.44065 32.9922H2.84065C2.84065 32.3475 3.36314 31.825 4.00784 31.825V31.425ZM10.463 31.425H4.00784V31.825H10.463V31.425ZM1.44604 16.0862C2.6026 22.147 5.77066 27.6846 10.3294 31.7739L10.5965 31.4761C6.10198 27.4445 2.97885 21.9848 1.83895 16.0112L1.44604 16.0862ZM0.827606 12.8466L1.44605 16.0862L1.83895 16.0112L1.22051 12.7716L0.827606 12.8466ZM1.34061 11.3687C0.918083 11.7349 0.723543 12.2981 0.827564 12.8464L1.22055 12.7718C1.14299 12.363 1.28812 11.9435 1.60259 11.671L1.34061 11.3687ZM2.8759 11.0701C2.34756 10.8889 1.76233 11.0027 1.3405 11.3688L1.60269 11.6709C1.9168 11.3983 2.35268 11.3135 2.74613 11.4484L2.8759 11.0701ZM12.591 15.8742C9.59043 13.8765 6.32901 12.2549 2.87593 11.0701L2.74611 11.4484C6.16634 12.622 9.39693 14.2282 12.3693 16.2071L12.591 15.8742ZM10.7826 7.97693C10.7826 10.8043 11.3015 13.5525 12.2936 16.1129L12.6666 15.9684C11.6924 13.4543 11.1826 10.7551 11.1826 7.97693H10.7826ZM10.7826 6.87891V7.97693H11.1826V6.87891H10.7826ZM11.4663 5.58425C11.0391 5.87619 10.7826 6.3609 10.7826 6.87891H11.1826C11.1826 6.49328 11.3737 6.13205 11.692 5.9145L11.4663 5.58425ZM12.9214 5.41944C12.439 5.23088 11.895 5.29278 11.4667 5.58399L11.6916 5.91476C12.0111 5.69754 12.4166 5.65157 12.7758 5.79199L12.9214 5.41944ZM22.7332 11.8659C19.9754 9.09355 16.6463 6.87818 12.9216 5.41948L12.7757 5.79194C16.4477 7.22998 19.7302 9.41417 22.4496 12.148L22.7332 11.8659ZM27.0818 1.75637C24.6078 4.68382 22.9962 8.22738 22.394 11.9752L22.7889 12.0387C23.3797 8.36201 24.9607 4.88592 27.3873 2.01456L27.0818 1.75637ZM27.4204 1.35581L27.0818 1.75635L27.3873 2.01458L27.7259 1.61404L27.4204 1.35581ZM28.6172 0.8C28.1557 0.8 27.7179 1.00325 27.4203 1.35595L27.726 1.6139C27.9475 1.35136 28.2734 1.2 28.6172 1.2V0.8ZM29.8142 1.35595C29.5166 1.00325 29.0788 0.8 28.6172 0.8V1.2C28.961 1.2 29.2869 1.35136 29.5084 1.6139L29.8142 1.35595ZM30.1526 1.75635L29.814 1.35581L29.5086 1.61404L29.8472 2.01458L30.1526 1.75635ZM34.841 11.9768C34.2393 8.22843 32.6266 4.68433 30.1527 1.75639L29.8471 2.01455C32.2737 4.88647 33.8558 8.36309 34.446 12.0402L34.841 11.9768ZM44.3155 5.41949C40.5897 6.87872 37.2595 9.09516 34.5017 11.8675L34.7853 12.1496C37.5048 9.41577 40.7884 7.23051 44.4614 5.79194L44.3155 5.41949ZM45.77 5.58406C45.3422 5.29274 44.798 5.2309 44.3157 5.41944L44.4613 5.79199C44.8206 5.65155 45.226 5.69758 45.5448 5.91468L45.77 5.58406ZM46.4539 6.87891C46.4539 6.36104 46.1981 5.87621 45.7701 5.58417L45.5447 5.91457C45.8633 6.13203 46.0539 6.49315 46.0539 6.87891H46.4539ZM46.4539 7.97693V6.87891H46.0539V7.97693H46.4539ZM44.944 16.1108C45.9356 13.5508 46.4539 10.8037 46.4539 7.97693H46.0539C46.0539 10.7546 45.5447 13.4527 44.571 15.9663L44.944 16.1108ZM54.3585 11.0701C50.9065 12.2544 47.6461 13.876 44.6467 15.872L44.8683 16.205C47.8396 14.2277 51.0692 12.6214 54.4883 11.4484L54.3585 11.0701ZM28.4566 4.66052C30.6456 7.61058 31.8742 11.1814 31.9634 14.8642L32.3633 14.8545C32.272 11.0893 31.0161 7.43859 28.7778 4.42216L28.4566 4.66052ZM25.2715 14.862C25.3608 11.1803 26.5893 7.61005 28.7778 4.66051L28.4566 4.42216C26.2188 7.43805 24.9629 11.0882 24.8717 14.8523L25.2715 14.862ZM28.8024 20.8877C27.8687 18.6852 26.6645 16.621 25.2308 14.7361L24.9124 14.9783C26.3263 16.8371 27.5136 18.8724 28.4341 21.0438L28.8024 20.8877ZM32.0042 14.7382C30.5704 16.6226 29.3668 18.6868 28.4341 20.8877L28.8024 21.0438C29.7219 18.874 30.9087 16.8387 32.3225 14.9804L32.0042 14.7382ZM28.6167 26.3648C28.095 26.3648 27.6212 26.0131 27.4877 25.4851L27.0999 25.5831C27.2794 26.293 27.9164 26.7648 28.6167 26.7648V26.3648ZM28.9022 26.3296C28.8065 26.3534 28.7105 26.3648 28.6167 26.3648V26.7648C28.7429 26.7648 28.8712 26.7495 28.9988 26.7178L28.9022 26.3296ZM29.7504 25.4802C29.648 25.8853 29.333 26.2218 28.9019 26.3297L28.999 26.7177C29.5795 26.5724 30.0014 26.1196 30.1382 25.5783L29.7504 25.4802ZM43.4066 8.80287C36.6891 12.086 31.6546 18.1876 29.7508 25.4787L30.1379 25.5798C32.012 18.4022 36.9687 12.3946 43.5823 9.16225L43.4066 8.80287ZM37.9332 21.9472C41.4236 18.4563 43.4476 13.8882 43.6942 8.99262L43.2947 8.9725C43.0531 13.769 41.0707 18.2435 37.6504 21.6644L37.9332 21.9472ZM37.7749 22.1449C37.8201 22.0744 37.8726 22.0079 37.9332 21.9472L37.6504 21.6644C37.5679 21.7469 37.4976 21.8363 37.4381 21.9292L37.7749 22.1449ZM32.0612 29.6632C33.6797 26.9451 35.5926 24.4363 37.7511 22.1752L37.4618 21.899C35.2827 24.1816 33.3515 26.7143 31.7175 29.4585L32.0612 29.6632ZM30.8324 31.7273L32.0612 29.6632L31.7175 29.4586L30.4887 31.5227L30.8324 31.7273ZM26.5744 31.825H30.6605V31.425H26.5744V31.825ZM25.1737 29.6632L26.4026 31.7273L26.7463 31.5227L25.5174 29.4586L25.1737 29.6632ZM19.4891 22.1805C21.645 24.4406 23.5564 26.9467 25.1737 29.6632L25.5174 29.4586C23.8845 26.7159 21.9549 24.1859 19.7785 21.9044L19.4891 22.1805ZM19.3039 21.9472C19.366 22.0093 19.4193 22.0771 19.4647 22.1491L19.803 21.9357C19.7426 21.84 19.671 21.7486 19.5867 21.6644L19.3039 21.9472ZM13.5429 8.9926C13.7889 13.8877 15.813 18.4564 19.3039 21.9472L19.5867 21.6644C16.1658 18.2435 14.1834 13.7684 13.9424 8.97252L13.5429 8.9926ZM27.4873 25.4836C25.5846 18.1903 20.5491 12.0866 13.8305 8.80287L13.6548 9.16225C20.2694 12.3951 25.2272 18.4049 27.1003 25.5846L27.4873 25.4836ZM4.52474 15.4985L4.36398 14.6553L3.97106 14.7302L4.13181 15.5734L4.52474 15.4985ZM14.9987 31.4598C9.56773 27.7564 5.7586 21.9619 4.52473 15.4985L4.13182 15.5735C5.38559 22.1411 9.25514 28.0274 14.7734 31.7902L14.9987 31.4598ZM23.392 31.425H14.8861V31.825H23.392V31.425ZM22.8239 31.0619L23.2202 31.7273L23.5638 31.5227L23.1676 30.8572L22.8239 31.0619ZM4.09121 14.8776C11.8935 18.0981 18.4865 23.7761 22.8239 31.0619L23.1676 30.8573C18.7859 23.497 12.1257 17.7612 4.24383 14.5078L4.09121 14.8776ZM51.1208 37.8406H51.8594V37.4406H51.1208V37.8406ZM51.1112 37.8406H51.1208V37.4406H51.1112V37.8406ZM35.4825 37.8406H51.1112V37.4406H35.4825V37.8406ZM37.0497 39.0078C37.0497 38.1422 36.3481 37.4406 35.4825 37.4406V37.8406C36.1272 37.8406 36.6497 38.3631 36.6497 39.0078H37.0497ZM35.4825 40.575C36.3481 40.575 37.0497 39.8734 37.0497 39.0078H36.6497C36.6497 39.6525 36.1272 40.175 35.4825 40.175V40.575ZM49.4188 40.175H35.4825V40.575H49.4188V40.175ZM43.6794 68.3073L49.6144 40.4166L49.2231 40.3334L43.2882 68.224L43.6794 68.3073ZM13.7507 68.4656H43.4838V68.0656H13.7507V68.4656ZM7.62005 40.4166L13.555 68.3073L13.9463 68.224L8.01129 40.3334L7.62005 40.4166ZM34.7872 40.175H7.81567V40.575H34.7872V40.175ZM33.22 39.0078C33.22 39.8734 33.9216 40.575 34.7872 40.575V40.175C34.1425 40.175 33.62 39.6525 33.62 39.0078H33.22ZM34.7872 37.4406C33.9216 37.4406 33.22 38.1422 33.22 39.0078H33.62C33.62 38.3631 34.1425 37.8406 34.7872 37.8406V37.4406ZM6.12378 37.8406H34.7872V37.4406H6.12378V37.8406ZM6.11363 37.8406H6.12378V37.4406H6.11363V37.8406ZM5.37503 37.8406H6.11363V37.4406H5.37503V37.8406ZM5.17503 34.3594V37.6406H5.57503V34.3594H5.17503ZM14.4802 34.1594H5.37503V34.5594H14.4802V34.1594ZM25.7953 34.1594H14.4802V34.5594H25.7953V34.1594ZM25.8017 34.1594H25.7953V34.5594H25.8017V34.1594ZM31.4328 34.1594H25.8017V34.5594H31.4328V34.1594ZM42.751 34.1594H31.4328V34.5594H42.751V34.1594ZM51.8594 34.1594H42.751V34.5594H51.8594V34.1594ZM52.0594 37.6406V34.3594H51.6594V37.6406H52.0594ZM52.7097 15.4985C51.4764 21.9619 47.6672 27.7564 42.2362 31.4598L42.4616 31.7902C47.9798 28.0274 51.8494 22.1411 53.1026 15.5735L52.7097 15.4985ZM52.8704 14.6558L52.7097 15.4985L53.1026 15.5735L53.2634 14.7307L52.8704 14.6558ZM34.4106 31.0619C38.7479 23.7766 45.3409 18.0986 53.1432 14.8781L52.9906 14.5084C45.1087 17.7617 38.4485 23.4976 34.0669 30.8573L34.4106 31.0619ZM34.0143 31.7273L34.4105 31.0619L34.0669 30.8572L33.6706 31.5227L34.0143 31.7273ZM42.3489 31.425H33.8424V31.825H42.3489V31.425Z" fill="white"/>
</svg>
