<svg width="97" height="60" viewBox="0 0 97 60" fill="none" xmlns="http://www.w3.org/2000/svg">
<path fill-rule="evenodd" clip-rule="evenodd" d="M93.2951 14.4115C94.1054 14.4115 94.8839 14.7557 95.4292 15.3555C95.9746 15.9553 96.2433 16.7621 96.1663 17.5696L93.5986 44.5341C93.3836 46.7918 91.5109 48.4939 89.2438 48.4939H88.9424L90.2052 57.3342C90.2619 57.7343 90.1428 58.1395 89.8777 58.4445C89.6127 58.7495 89.2285 58.9252 88.8248 58.9252H85.8446C85.2869 58.9252 84.7823 58.5926 84.563 58.08L80.4543 48.4939H18.7858H16.7249L12.6163 58.08C12.397 58.5926 11.893 58.9252 11.3353 58.9252H8.35445C7.9507 58.9252 7.56656 58.7495 7.30151 58.4445C7.03647 58.1395 6.91737 57.7343 6.97474 57.3342L8.23754 48.4939H7.93545C5.66838 48.4939 3.7956 46.7918 3.58066 44.5341L1.01295 17.5696C0.93598 16.7628 1.20466 15.9553 1.75001 15.3555C2.29535 14.7557 3.0738 14.4115 3.8842 14.4115H5.86734C6.2435 14.4115 6.61021 14.4616 6.96022 14.5516V6.86448C6.96022 3.63088 9.5911 1 12.8254 1H44.1194C45.9094 1 47.5135 1.80677 48.5896 3.07464C49.6665 1.80677 51.2706 1 53.0599 1H84.3538C87.5881 1 90.219 3.63088 90.219 6.86448V14.5516C90.5698 14.4616 90.9358 14.4115 91.3119 14.4115H93.2951ZM15.5405 45.7054H18.7858H89.2438C90.0658 45.7054 90.7448 45.0882 90.8225 44.2698L93.3909 17.3052L93.391 17.3042C93.3918 17.2918 93.3937 17.2622 93.3662 17.2312C93.3372 17.1999 93.3067 17.1999 93.2951 17.1999H91.3119C90.5451 17.1999 89.8886 17.7475 89.7514 18.5027L87.2381 32.3237V33.6882C87.2381 36.1005 85.276 38.0626 82.8637 38.0626H51.5698C50.4196 38.0626 49.3717 37.6153 48.5896 36.8862C47.8083 37.6153 46.7604 38.0626 45.6095 38.0626H14.3155C11.9032 38.0626 9.94111 36.1005 9.94111 33.6882V32.3237L7.42787 18.5027C7.29062 17.7482 6.63417 17.1999 5.86734 17.1999H3.8842C3.87258 17.1999 3.84208 17.1999 3.81303 17.2312C3.78555 17.2622 3.78747 17.2918 3.78827 17.3042L3.78834 17.3052L6.35678 44.2698C6.43448 45.0882 7.11344 45.7054 7.93545 45.7054H15.5405ZM9.96217 56.1367H10.416L13.691 48.4939H11.0543L9.96217 56.1367ZM12.8254 3.78846H44.1194C45.8157 3.78846 47.1954 5.1689 47.1954 6.86448V23.2569C47.1954 24.1312 46.4838 24.8428 45.6095 24.8428H14.3155C13.2851 24.8428 12.3374 25.2015 11.5888 25.7999L10.1713 18.0038C10.0914 17.5652 9.94474 17.1542 9.74868 16.7751V6.86448C9.74868 5.16817 11.1291 3.78846 12.8254 3.78846ZM14.3155 35.2741H45.6095C46.4838 35.2741 47.1954 34.5625 47.1954 33.6882V29.2179C47.1954 28.3429 46.4838 27.6313 45.6095 27.6313H14.3155C13.4412 27.6313 12.7296 28.3429 12.7296 29.2179V33.6882C12.7296 34.5625 13.4405 35.2741 14.3155 35.2741ZM82.8637 35.2741H51.5698C50.6955 35.2741 49.9839 34.5625 49.9839 33.6882V29.2172C49.9839 28.3429 50.6955 27.6313 51.5698 27.6313H81.3744C80.6039 27.6313 79.9801 27.0075 79.9801 26.237C79.9801 25.4673 80.6039 24.8428 81.3744 24.8428H51.5698C50.6955 24.8428 49.9839 24.1312 49.9839 23.2569V6.86521C49.9839 5.16889 51.3636 3.78846 53.0599 3.78846H84.3538C86.0501 3.78846 87.4298 5.16889 87.4298 6.86521V16.7751C87.2338 17.1542 87.0871 17.5652 87.0079 18.0038L85.5905 25.8006C84.8418 25.2022 83.8942 24.8428 82.8637 24.8428H81.857C82.6268 24.8428 83.2513 25.4673 83.2513 26.237C83.2513 27.0075 82.6268 27.6313 81.857 27.6313H82.8637C83.7388 27.6313 84.4497 28.3429 84.4497 29.2172V33.6882C84.4504 34.5625 83.7388 35.2741 82.8637 35.2741ZM86.7632 56.1367H87.2171L86.1249 48.4939H83.4882L86.7632 56.1367Z" fill="white"/>
<path d="M96.1663 17.5696L95.9672 17.5506V17.5506L96.1663 17.5696ZM93.5986 44.5341L93.3995 44.5152V44.5152L93.5986 44.5341ZM88.9424 48.4939V48.2939H88.7118L88.7444 48.5222L88.9424 48.4939ZM90.2052 57.3342L90.4033 57.3061L90.4032 57.3059L90.2052 57.3342ZM84.563 58.08L84.7468 58.0013L84.7468 58.0012L84.563 58.08ZM80.4543 48.4939L80.6382 48.4151L80.5862 48.2939H80.4543V48.4939ZM16.7249 48.4939V48.2939H16.593L16.5411 48.4151L16.7249 48.4939ZM12.6163 58.08L12.4325 58.0012L12.4324 58.0013L12.6163 58.08ZM6.97474 57.3342L7.17272 57.3626L7.17273 57.3625L6.97474 57.3342ZM8.23754 48.4939L8.43553 48.5222L8.46814 48.2939H8.23754V48.4939ZM3.58066 44.5341L3.77976 44.5152L3.77976 44.5152L3.58066 44.5341ZM1.01295 17.5696L1.21205 17.5506L1.21205 17.5506L1.01295 17.5696ZM1.75001 15.3555L1.60203 15.221L1.75001 15.3555ZM6.96022 14.5516L6.91039 14.7453L7.16022 14.8096V14.5516H6.96022ZM48.5896 3.07464L48.4371 3.20407L48.5896 3.38365L48.7421 3.20412L48.5896 3.07464ZM90.219 14.5516H90.019V14.8095L90.2688 14.7454L90.219 14.5516ZM90.8225 44.2698L90.6234 44.2508L90.6234 44.2509L90.8225 44.2698ZM93.3909 17.3052L93.5901 17.3242L93.5905 17.3179L93.3909 17.3052ZM93.391 17.3042L93.1914 17.2912L93.1914 17.2915L93.391 17.3042ZM93.3662 17.2312L93.5159 17.0985L93.5127 17.095L93.3662 17.2312ZM89.7514 18.5027L89.9482 18.5385L89.9482 18.5384L89.7514 18.5027ZM87.2381 32.3237L87.0414 32.2879L87.0381 32.3057V32.3237H87.2381ZM48.5896 36.8862L48.726 36.7399L48.5896 36.6127L48.4532 36.74L48.5896 36.8862ZM9.94111 32.3237H10.1411V32.3057L10.1379 32.2879L9.94111 32.3237ZM7.42787 18.5027L7.62464 18.4669L7.62464 18.4669L7.42787 18.5027ZM3.81303 17.2312L3.66655 17.0949L3.66336 17.0985L3.81303 17.2312ZM3.78827 17.3042L3.98786 17.2914L3.98785 17.2912L3.78827 17.3042ZM3.78834 17.3052L3.58866 17.3181L3.58924 17.3242L3.78834 17.3052ZM6.35678 44.2698L6.55588 44.2509L6.55588 44.2508L6.35678 44.2698ZM10.416 56.1367V56.3367H10.5479L10.5999 56.2155L10.416 56.1367ZM9.96217 56.1367L9.76418 56.1084L9.73156 56.3367H9.96217V56.1367ZM13.691 48.4939L13.8748 48.5727L13.9943 48.2939H13.691V48.4939ZM11.0543 48.4939V48.2939H10.8809L10.8563 48.4656L11.0543 48.4939ZM11.5888 25.7999L11.392 25.8357L11.4519 26.1653L11.7136 25.9561L11.5888 25.7999ZM10.1713 18.0038L10.3681 17.968L10.3681 17.968L10.1713 18.0038ZM9.74868 16.7751H9.54868V16.8238L9.57104 16.867L9.74868 16.7751ZM87.4298 16.7751L87.6075 16.867L87.6298 16.8238V16.7751H87.4298ZM87.0079 18.0038L87.2047 18.0396L87.2048 18.0393L87.0079 18.0038ZM85.5905 25.8006L85.4656 25.9568L85.7273 26.166L85.7873 25.8364L85.5905 25.8006ZM84.4497 33.6882H84.2497V33.6883L84.4497 33.6882ZM87.2171 56.1367V56.3367H87.4477L87.4151 56.1084L87.2171 56.1367ZM86.7632 56.1367L86.5794 56.2155L86.6313 56.3367H86.7632V56.1367ZM86.1249 48.4939L86.3229 48.4656L86.2984 48.2939H86.1249V48.4939ZM83.4882 48.4939V48.2939H83.1849L83.3044 48.5727L83.4882 48.4939ZM95.5772 15.221C94.994 14.5794 94.1618 14.2115 93.2951 14.2115V14.6115C94.0491 14.6115 94.7738 14.9319 95.2813 15.49L95.5772 15.221ZM96.3654 17.5885C96.4477 16.725 96.1605 15.8625 95.5772 15.221L95.2813 15.49C95.7887 16.0482 96.0388 16.7992 95.9672 17.5506L96.3654 17.5885ZM93.7977 44.5531L96.3654 17.5885L95.9672 17.5506L93.3995 44.5152L93.7977 44.5531ZM89.2438 48.6939C91.614 48.6939 93.573 46.9134 93.7977 44.5531L93.3995 44.5152C93.1943 46.6701 91.4078 48.2939 89.2438 48.2939V48.6939ZM88.9424 48.6939H89.2438V48.2939H88.9424V48.6939ZM90.4032 57.3059L89.1404 48.4656L88.7444 48.5222L90.0072 57.3625L90.4032 57.3059ZM90.0287 58.5757C90.3319 58.2268 90.468 57.7634 90.4033 57.3061L90.0072 57.3622C90.0558 57.7052 89.9537 58.0522 89.7268 58.3133L90.0287 58.5757ZM88.8248 59.1252C89.2867 59.1252 89.7258 58.9242 90.0287 58.5757L89.7268 58.3133C89.4996 58.5748 89.1704 58.7252 88.8248 58.7252V59.1252ZM85.8446 59.1252H88.8248V58.7252H85.8446V59.1252ZM84.3791 58.1586C84.6299 58.745 85.207 59.1252 85.8446 59.1252V58.7252C85.3669 58.7252 84.9346 58.4403 84.7468 58.0013L84.3791 58.1586ZM80.2705 48.5727L84.3791 58.1587L84.7468 58.0012L80.6382 48.4151L80.2705 48.5727ZM18.7858 48.6939H80.4543V48.2939H18.7858V48.6939ZM16.7249 48.6939H18.7858V48.2939H16.7249V48.6939ZM12.8001 58.1587L16.9087 48.5727L16.5411 48.4151L12.4325 58.0012L12.8001 58.1587ZM11.3353 59.1252C11.9731 59.1252 12.5494 58.7449 12.8002 58.1586L12.4324 58.0013C12.2446 58.4404 11.813 58.7252 11.3353 58.7252V59.1252ZM8.35445 59.1252H11.3353V58.7252H8.35445V59.1252ZM7.15055 58.5757C7.45343 58.9242 7.89256 59.1252 8.35445 59.1252V58.7252C8.00885 58.7252 7.6797 58.5748 7.45247 58.3133L7.15055 58.5757ZM6.77677 57.3058C6.71117 57.7633 6.84733 58.2268 7.15055 58.5757L7.45247 58.3133C7.2256 58.0522 7.12358 57.7053 7.17272 57.3626L6.77677 57.3058ZM8.03955 48.4656L6.77675 57.3059L7.17273 57.3625L8.43553 48.5222L8.03955 48.4656ZM7.93545 48.6939H8.23754V48.2939H7.93545V48.6939ZM3.38156 44.5531C3.60628 46.9134 5.56529 48.6939 7.93545 48.6939V48.2939C5.77146 48.2939 3.98493 46.6701 3.77976 44.5152L3.38156 44.5531ZM0.813853 17.5885L3.38156 44.5531L3.77976 44.5152L1.21205 17.5506L0.813853 17.5885ZM1.60203 15.221C1.01876 15.8625 0.731533 16.7257 0.813857 17.5886L1.21205 17.5506C1.14043 16.7999 1.39056 16.0481 1.89799 15.49L1.60203 15.221ZM3.8842 14.2115C3.01747 14.2115 2.18529 14.5794 1.60203 15.221L1.89799 15.49C2.40542 14.9319 3.13013 14.6115 3.8842 14.6115V14.2115ZM5.86734 14.2115H3.8842V14.6115H5.86734V14.2115ZM7.01005 14.3579C6.64474 14.264 6.26129 14.2115 5.86734 14.2115V14.6115C6.2257 14.6115 6.57568 14.6592 6.91039 14.7453L7.01005 14.3579ZM6.76022 6.86448V14.5516H7.16022V6.86448H6.76022ZM12.8254 0.8C9.48066 0.8 6.76022 3.52041 6.76022 6.86448H7.16022C7.16022 3.74136 9.70154 1.2 12.8254 1.2V0.8ZM44.1194 0.8H12.8254V1.2H44.1194V0.8ZM48.7421 2.94522C47.6297 1.63471 45.9708 0.8 44.1194 0.8V1.2C45.8479 1.2 47.3972 1.97883 48.4371 3.20407L48.7421 2.94522ZM53.0599 0.8C51.2091 0.8 49.5502 1.63472 48.4372 2.94517L48.7421 3.20412C49.7828 1.97881 51.3321 1.2 53.0599 1.2V0.8ZM84.3538 0.8H53.0599V1.2H84.3538V0.8ZM90.419 6.86448C90.419 3.52041 87.6986 0.8 84.3538 0.8V1.2C87.4777 1.2 90.019 3.74136 90.019 6.86448H90.419ZM90.419 14.5516V6.86448H90.019V14.5516H90.419ZM91.3119 14.2115C90.9179 14.2115 90.5352 14.264 90.1693 14.3579L90.2688 14.7454C90.6043 14.6592 90.9536 14.6115 91.3119 14.6115V14.2115ZM93.2951 14.2115H91.3119V14.6115H93.2951V14.2115ZM18.7858 45.5054H15.5405V45.9054H18.7858V45.5054ZM89.2438 45.5054H18.7858V45.9054H89.2438V45.5054ZM90.6234 44.2509C90.5554 44.9666 89.9627 45.5054 89.2438 45.5054V45.9054C90.1689 45.9054 90.9341 45.2098 91.0216 44.2887L90.6234 44.2509ZM93.1918 17.2863L90.6234 44.2508L91.0216 44.2888L93.59 17.3242L93.1918 17.2863ZM93.1914 17.2915L93.1913 17.2926L93.5905 17.3179L93.5906 17.3168L93.1914 17.2915ZM93.2166 17.3638C93.2064 17.3524 93.198 17.3363 93.194 17.3181C93.1903 17.3016 93.1916 17.2882 93.1914 17.2912L93.5906 17.3171C93.5925 17.2878 93.5972 17.1902 93.5159 17.0985L93.2166 17.3638ZM93.2951 17.3999C93.2969 17.3999 93.2826 17.4003 93.2654 17.395C93.2465 17.3892 93.2306 17.379 93.2198 17.3674L93.5127 17.095C93.4264 17.0022 93.3252 16.9999 93.2951 16.9999V17.3999ZM91.3119 17.3999H93.2951V16.9999H91.3119V17.3999ZM89.9482 18.5384C90.0681 17.8783 90.6417 17.3999 91.3119 17.3999V16.9999C90.4484 16.9999 89.7091 17.6166 89.5546 18.4669L89.9482 18.5384ZM87.4349 32.3595L89.9482 18.5385L89.5546 18.4669L87.0414 32.2879L87.4349 32.3595ZM87.4381 33.6882V32.3237H87.0381V33.6882H87.4381ZM82.8637 38.2626C85.3865 38.2626 87.4381 36.2109 87.4381 33.6882H87.0381C87.0381 35.99 85.1656 37.8626 82.8637 37.8626V38.2626ZM51.5698 38.2626H82.8637V37.8626H51.5698V38.2626ZM48.4533 37.0325C49.2707 37.7945 50.3667 38.2626 51.5698 38.2626V37.8626C50.4724 37.8626 49.4728 37.436 48.726 36.7399L48.4533 37.0325ZM45.6095 38.2626C46.8133 38.2626 47.9093 37.7945 48.7261 37.0324L48.4532 36.74C47.7072 37.436 46.7076 37.8626 45.6095 37.8626V38.2626ZM14.3155 38.2626H45.6095V37.8626H14.3155V38.2626ZM9.74111 33.6882C9.74111 36.2109 11.7927 38.2626 14.3155 38.2626V37.8626C12.0137 37.8626 10.1411 35.99 10.1411 33.6882H9.74111ZM9.74111 32.3237V33.6882H10.1411V32.3237H9.74111ZM7.23109 18.5385L9.74434 32.3595L10.1379 32.2879L7.62464 18.4669L7.23109 18.5385ZM5.86734 17.3999C6.53744 17.3999 7.11113 17.879 7.2311 18.5385L7.62464 18.4669C7.47011 17.6174 6.73091 16.9999 5.86734 16.9999V17.3999ZM3.8842 17.3999H5.86734V16.9999H3.8842V17.3999ZM3.95947 17.3674C3.9487 17.379 3.93272 17.3892 3.91387 17.395C3.8967 17.4003 3.88232 17.3999 3.8842 17.3999V16.9999C3.854 16.9999 3.75288 17.0022 3.66659 17.0949L3.95947 17.3674ZM3.98785 17.2912C3.98766 17.2882 3.98894 17.3016 3.98527 17.3181C3.98123 17.3363 3.97287 17.3524 3.96271 17.3638L3.66336 17.0985C3.58204 17.1903 3.58679 17.2878 3.58869 17.3171L3.98785 17.2912ZM3.98793 17.2924L3.98786 17.2914L3.58868 17.317L3.58875 17.318L3.98793 17.2924ZM6.55588 44.2508L3.98744 17.2863L3.58924 17.3242L6.15768 44.2888L6.55588 44.2508ZM7.93545 45.5054C7.21652 45.5054 6.62383 44.9666 6.55588 44.2509L6.15767 44.2887C6.24512 45.2098 7.01036 45.9054 7.93545 45.9054V45.5054ZM15.5405 45.5054H7.93545V45.9054H15.5405V45.5054ZM10.416 55.9367H9.96217V56.3367H10.416V55.9367ZM13.5072 48.4151L10.2322 56.058L10.5999 56.2155L13.8748 48.5727L13.5072 48.4151ZM11.0543 48.6939H13.691V48.2939H11.0543V48.6939ZM10.1602 56.165L11.2523 48.5222L10.8563 48.4656L9.76418 56.1084L10.1602 56.165ZM44.1194 3.58846H12.8254V3.98846H44.1194V3.58846ZM47.3954 6.86448C47.3954 5.05847 45.9262 3.58846 44.1194 3.58846V3.98846C45.7052 3.98846 46.9954 5.27932 46.9954 6.86448H47.3954ZM47.3954 23.2569V6.86448H46.9954V23.2569H47.3954ZM45.6095 25.0428C46.5942 25.0428 47.3954 24.2416 47.3954 23.2569H46.9954C46.9954 24.0207 46.3733 24.6428 45.6095 24.6428V25.0428ZM14.3155 25.0428H45.6095V24.6428H14.3155V25.0428ZM11.7136 25.9561C12.4284 25.3849 13.3324 25.0428 14.3155 25.0428V24.6428C13.2378 24.6428 12.2465 25.0182 11.4639 25.6436L11.7136 25.9561ZM9.97453 18.0396L11.392 25.8357L11.7855 25.7641L10.3681 17.968L9.97453 18.0396ZM9.57104 16.867C9.75867 17.2298 9.89848 17.622 9.97454 18.0396L10.3681 17.968C10.2844 17.5084 10.1308 17.0786 9.92632 16.6833L9.57104 16.867ZM9.54868 6.86448V16.7751H9.94868V6.86448H9.54868ZM12.8254 3.58846C11.0187 3.58846 9.54868 5.05765 9.54868 6.86448H9.94868C9.94868 5.27869 11.2395 3.98846 12.8254 3.98846V3.58846ZM45.6095 35.0741H14.3155V35.4741H45.6095V35.0741ZM46.9954 33.6882C46.9954 34.452 46.3733 35.0741 45.6095 35.0741V35.4741C46.5942 35.4741 47.3954 34.6729 47.3954 33.6882H46.9954ZM46.9954 29.2179V33.6882H47.3954V29.2179H46.9954ZM45.6095 27.8313C46.3732 27.8313 46.9954 28.4533 46.9954 29.2179H47.3954C47.3954 28.2325 46.5943 27.4313 45.6095 27.4313V27.8313ZM14.3155 27.8313H45.6095V27.4313H14.3155V27.8313ZM12.9296 29.2179C12.9296 28.4533 13.5517 27.8313 14.3155 27.8313V27.4313C13.3307 27.4313 12.5296 28.2325 12.5296 29.2179H12.9296ZM12.9296 33.6882V29.2179H12.5296V33.6882H12.9296ZM14.3155 35.0741C13.551 35.0741 12.9296 34.4521 12.9296 33.6882H12.5296C12.5296 34.6729 13.33 35.4741 14.3155 35.4741V35.0741ZM51.5698 35.4741H82.8637V35.0741H51.5698V35.4741ZM49.7839 33.6882C49.7839 34.6729 50.585 35.4741 51.5698 35.4741V35.0741C50.806 35.0741 50.1839 34.452 50.1839 33.6882H49.7839ZM49.7839 29.2172V33.6882H50.1839V29.2172H49.7839ZM51.5698 27.4313C50.585 27.4313 49.7839 28.2324 49.7839 29.2172H50.1839C50.1839 28.4534 50.806 27.8313 51.5698 27.8313V27.4313ZM81.3744 27.4313H51.5698V27.8313H81.3744V27.4313ZM79.7802 26.237C79.7802 27.1179 80.4935 27.8313 81.3744 27.8313V27.4313C80.7144 27.4313 80.1801 26.897 80.1801 26.237H79.7802ZM81.3744 24.6428C80.4934 24.6428 79.7802 25.3569 79.7802 26.237H80.1801C80.1801 25.5777 80.7144 25.0428 81.3744 25.0428V24.6428ZM51.5698 25.0428H81.3744V24.6428H51.5698V25.0428ZM49.7839 23.2569C49.7839 24.2416 50.585 25.0428 51.5698 25.0428V24.6428C50.806 24.6428 50.1839 24.0207 50.1839 23.2569H49.7839ZM49.7839 6.86521V23.2569H50.1839V6.86521H49.7839ZM53.0599 3.58846C51.253 3.58846 49.7839 5.0585 49.7839 6.86521H50.1839C50.1839 5.27929 51.4741 3.98846 53.0599 3.98846V3.58846ZM84.3538 3.58846H53.0599V3.98846H84.3538V3.58846ZM87.6298 6.86521C87.6298 5.0585 86.1607 3.58846 84.3538 3.58846V3.98846C85.9396 3.98846 87.2298 5.27929 87.2298 6.86521H87.6298ZM87.6298 16.7751V6.86521H87.2298V16.7751H87.6298ZM87.2048 18.0393C87.2801 17.6219 87.4199 17.2298 87.6075 16.867L87.2522 16.6833C87.0477 17.0786 86.8941 17.5085 86.8111 17.9683L87.2048 18.0393ZM85.7873 25.8364L87.2047 18.0396L86.8112 17.968L85.3937 25.7648L85.7873 25.8364ZM82.8637 25.0428C83.8468 25.0428 84.7508 25.3855 85.4656 25.9568L85.7153 25.6444C84.9328 25.0189 83.9415 24.6428 82.8637 24.6428V25.0428ZM81.857 25.0428H82.8637V24.6428H81.857V25.0428ZM83.4513 26.237C83.4513 25.3568 82.7372 24.6428 81.857 24.6428V25.0428C82.5163 25.0428 83.0513 25.5778 83.0513 26.237H83.4513ZM81.857 27.8313C82.7372 27.8313 83.4513 27.118 83.4513 26.237H83.0513C83.0513 26.897 82.5164 27.4313 81.857 27.4313V27.8313ZM82.8637 27.4313H81.857V27.8313H82.8637V27.4313ZM84.6497 29.2172C84.6497 28.2325 83.8493 27.4313 82.8637 27.4313V27.8313C83.6282 27.8313 84.2497 28.4533 84.2497 29.2172H84.6497ZM84.6497 33.6882V29.2172H84.2497V33.6882H84.6497ZM82.8637 35.4741C83.8491 35.4741 84.6505 34.673 84.6497 33.688L84.2497 33.6883C84.2503 34.452 83.6284 35.0741 82.8637 35.0741V35.4741ZM87.2171 55.9367H86.7632V56.3367H87.2171V55.9367ZM85.9269 48.5222L87.0191 56.165L87.4151 56.1084L86.3229 48.4656L85.9269 48.5222ZM83.4882 48.6939H86.1249V48.2939H83.4882V48.6939ZM86.9471 56.058L83.6721 48.4151L83.3044 48.5727L86.5794 56.2155L86.9471 56.058Z" fill="white"/>
<path d="M21.7814 14.2201C22.5511 14.2201 23.1756 13.5956 23.1756 12.8259C23.1756 12.0561 22.5511 11.4316 21.7814 11.4316H21.7661C20.9964 11.4316 20.3799 12.0561 20.3799 12.8259C20.3799 13.5956 21.0116 14.2201 21.7814 14.2201Z" fill="white" stroke="white" stroke-width="0.4"/>
<path d="M75.4134 11.4316H75.3982C74.6277 11.4316 74.0112 12.0561 74.0112 12.8259C74.0112 13.5956 74.643 14.2201 75.4134 14.2201C76.1832 14.2201 76.8077 13.5956 76.8077 12.8259C76.8077 12.0561 76.1832 11.4316 75.4134 11.4316Z" fill="white" stroke="white" stroke-width="0.4"/>
<path d="M35.193 14.2201C35.9635 14.2201 36.5872 13.5956 36.5872 12.8259C36.5872 12.0561 35.9635 11.4316 35.193 11.4316H35.1785C34.408 11.4316 33.7915 12.0561 33.7915 12.8259C33.7915 13.5956 34.4233 14.2201 35.193 14.2201Z" fill="white" stroke="white" stroke-width="0.4"/>
<path d="M62.0165 11.4316H62.0012C61.2315 11.4316 60.6143 12.0561 60.6143 12.8259C60.6143 13.5956 61.246 14.2201 62.0165 14.2201C62.7862 14.2201 63.4107 13.5956 63.4107 12.8259C63.4107 12.0561 62.7862 11.4316 62.0165 11.4316Z" fill="white" stroke="white" stroke-width="0.4"/>
</svg>
