<svg width="79" height="72" viewBox="0 0 79 72" fill="none" xmlns="http://www.w3.org/2000/svg">
<path fill-rule="evenodd" clip-rule="evenodd" d="M71 13.5V1H51.8215C47.3324 1 43.0911 2.60278 39.75 5.53735C36.4089 2.60278 32.1676 1 27.6785 1H8.5V13.5H1V63.5H31.0885C31.6964 67.7352 35.3488 71 39.75 71C44.1512 71 47.8024 67.7352 48.4115 63.5H78.5V13.5H71ZM11 3.5H27.6785C31.7385 3.5 35.5563 5.03259 38.5 7.80115V31H41V7.80115C43.9437 5.03259 47.7615 3.5 51.8215 3.5H68.5V53.5H41V33.5H38.5V53.5H11V3.5ZM46 61H76V16H71V56H8.5V16H3.5V61H33.5V62.25C33.5 65.696 36.304 68.5 39.75 68.5C43.196 68.5 46 65.696 46 62.25V61Z" fill="white"/>
<path d="M71 1H71.2V0.8H71V1ZM71 13.5H70.8V13.7H71V13.5ZM39.75 5.53735L39.618 5.68762L39.75 5.80355L39.882 5.68762L39.75 5.53735ZM8.5 1V0.8H8.3V1H8.5ZM8.5 13.5V13.7H8.7V13.5H8.5ZM1 13.5V13.3H0.8V13.5H1ZM1 63.5H0.8V63.7H1V63.5ZM31.0885 63.5L31.2865 63.4716L31.2618 63.3H31.0885V63.5ZM48.4115 63.5V63.3H48.2382L48.2135 63.4715L48.4115 63.5ZM78.5 63.5V63.7H78.7V63.5H78.5ZM78.5 13.5H78.7V13.3H78.5V13.5ZM11 3.5V3.3H10.8V3.5H11ZM38.5 7.80115H38.7V7.71469L38.637 7.65546L38.5 7.80115ZM38.5 31H38.3V31.2H38.5V31ZM41 31V31.2H41.2V31H41ZM41 7.80115L40.863 7.65546L40.8 7.71469V7.80115H41ZM68.5 3.5H68.7V3.3H68.5V3.5ZM68.5 53.5V53.7H68.7V53.5H68.5ZM41 53.5H40.8V53.7H41V53.5ZM41 33.5H41.2V33.3H41V33.5ZM38.5 33.5V33.3H38.3V33.5H38.5ZM38.5 53.5V53.7H38.7V53.5H38.5ZM11 53.5H10.8V53.7H11V53.5ZM76 61V61.2H76.2V61H76ZM46 61V60.8H45.8V61H46ZM76 16H76.2V15.8H76V16ZM71 16V15.8H70.8V16H71ZM71 56V56.2H71.2V56H71ZM8.5 56H8.3V56.2H8.5V56ZM8.5 16H8.7V15.8H8.5V16ZM3.5 16V15.8H3.3V16H3.5ZM3.5 61H3.3V61.2H3.5V61ZM33.5 61H33.7V60.8H33.5V61ZM70.8 1V13.5H71.2V1H70.8ZM51.8215 1.2H71V0.8H51.8215V1.2ZM39.882 5.68762C43.1865 2.78517 47.3809 1.2 51.8215 1.2V0.8C47.2839 0.8 42.9957 2.42039 39.618 5.38709L39.882 5.68762ZM27.6785 1.2C32.1191 1.2 36.3135 2.78517 39.618 5.68762L39.882 5.38709C36.5043 2.42039 32.2161 0.8 27.6785 0.8V1.2ZM8.5 1.2H27.6785V0.8H8.5V1.2ZM8.7 13.5V1H8.3V13.5H8.7ZM1 13.7H8.5V13.3H1V13.7ZM1.2 63.5V13.5H0.8V63.5H1.2ZM31.0885 63.3H1V63.7H31.0885V63.3ZM39.75 70.8C35.4497 70.8 31.8805 67.6098 31.2865 63.4716L30.8905 63.5284C31.5124 67.8606 35.2478 71.2 39.75 71.2V70.8ZM48.2135 63.4715C47.6183 67.6099 44.0502 70.8 39.75 70.8V71.2C44.2523 71.2 47.9864 67.8606 48.6095 63.5285L48.2135 63.4715ZM78.5 63.3H48.4115V63.7H78.5V63.3ZM78.3 13.5V63.5H78.7V13.5H78.3ZM71 13.7H78.5V13.3H71V13.7ZM27.6785 3.3H11V3.7H27.6785V3.3ZM38.637 7.65546C35.6566 4.85238 31.79 3.3 27.6785 3.3V3.7C31.6871 3.7 35.456 5.21281 38.363 7.94684L38.637 7.65546ZM38.7 31V7.80115H38.3V31H38.7ZM41 30.8H38.5V31.2H41V30.8ZM40.8 7.80115V31H41.2V7.80115H40.8ZM51.8215 3.3C47.71 3.3 43.8434 4.85238 40.863 7.65546L41.137 7.94684C44.044 5.21281 47.8129 3.7 51.8215 3.7V3.3ZM68.5 3.3H51.8215V3.7H68.5V3.3ZM68.7 53.5V3.5H68.3V53.5H68.7ZM41 53.7H68.5V53.3H41V53.7ZM40.8 33.5V53.5H41.2V33.5H40.8ZM38.5 33.7H41V33.3H38.5V33.7ZM38.7 53.5V33.5H38.3V53.5H38.7ZM11 53.7H38.5V53.3H11V53.7ZM10.8 3.5V53.5H11.2V3.5H10.8ZM76 60.8H46V61.2H76V60.8ZM75.8 16V61H76.2V16H75.8ZM71 16.2H76V15.8H71V16.2ZM71.2 56V16H70.8V56H71.2ZM8.5 56.2H71V55.8H8.5V56.2ZM8.3 16V56H8.7V16H8.3ZM3.5 16.2H8.5V15.8H3.5V16.2ZM3.7 61V16H3.3V61H3.7ZM33.5 60.8H3.5V61.2H33.5V60.8ZM33.7 62.25V61H33.3V62.25H33.7ZM39.75 68.3C36.4144 68.3 33.7 65.5856 33.7 62.25H33.3C33.3 65.8065 36.1935 68.7 39.75 68.7V68.3ZM45.8 62.25C45.8 65.5856 43.0856 68.3 39.75 68.3V68.7C43.3065 68.7 46.2 65.8065 46.2 62.25H45.8ZM45.8 61V62.25H46.2V61H45.8Z" fill="white"/>
<path fill-rule="evenodd" clip-rule="evenodd" d="M16 21.5863C16 17.5012 18.8473 10 23.5 10C28.1527 10 31 17.5012 31 21.5863C31 24.0015 29.8226 26.2823 27.8488 27.6874C27.4685 27.959 27.25 28.3478 27.25 28.75V46.25C27.25 48.3173 25.5673 50 23.5 50C21.4327 50 19.75 48.3173 19.75 46.25V28.75C19.75 28.3478 19.5315 27.959 19.1512 27.6886C17.1774 26.2836 16 24.0027 16 21.5863ZM24.75 28.75C24.75 27.5452 25.3665 26.3873 26.3986 25.6512C27.7151 24.7137 28.5 23.1952 28.5 21.5863C28.5 18.515 26.2362 12.5 23.5 12.5C20.7638 12.5 18.5 18.515 18.5 21.5863C18.5 23.1952 19.2849 24.7137 20.6014 25.6512C21.6335 26.3873 22.25 27.5452 22.25 28.75V46.25C22.25 46.9397 22.8103 47.5 23.5 47.5C24.1897 47.5 24.75 46.9397 24.75 46.25V28.75Z" fill="white"/>
<path fill-rule="evenodd" clip-rule="evenodd" d="M52.25 46.25V33.0035C52.25 30.7062 51.459 28.4528 50.024 26.6577C48.2351 24.4226 47.25 21.6138 47.25 18.75V10H49.75V18.75C49.75 21.0486 50.541 23.3026 51.976 25.0952C53.7649 27.3328 54.75 30.1398 54.75 33.0035V46.25C54.75 46.9397 55.3103 47.5 56 47.5C56.6897 47.5 57.25 46.9397 57.25 46.25V33.0035C57.25 30.1398 58.2351 27.3328 60.024 25.0952C61.459 23.3026 62.25 21.0486 62.25 18.75V10H64.75V18.75C64.75 21.6138 63.7649 24.4226 61.976 26.6577C60.541 28.4515 59.75 30.7062 59.75 33.0035V46.25C59.75 48.3173 58.0673 50 56 50C53.9327 50 52.25 48.3173 52.25 46.25ZM52.25 10H54.75V22.7515H52.25V10ZM57.25 10H59.75V22.7515H57.25V10Z" fill="white"/>
</svg>
