<svg width="77" height="97" viewBox="0 0 77 97" fill="none" xmlns="http://www.w3.org/2000/svg">
<path fill-rule="evenodd" clip-rule="evenodd" d="M74.298 11.0316H64.755V2.77886C64.7492 2.39879 64.5607 2.0398 64.2387 1.79522C63.9166 1.55064 63.4928 1.44464 63.0774 1.50477L2.61733 11.0501C1.93771 11.1674 1.44272 11.6998 1.43213 12.3249V94.7882C1.43258 95.5023 2.07318 96.081 2.86353 96.0815H74.298C75.0885 96.0815 75.7294 95.5024 75.7294 94.7882V12.3249C75.7296 11.9819 75.5789 11.6528 75.3104 11.4102C75.0419 11.1676 74.6777 11.0314 74.298 11.0316ZM61.8922 4.62045V12.0507H19.3713L61.8922 4.62045ZM4.29494 92.9758H72.8666V14.9135H4.29494V92.9758Z" fill="url(#paint0_linear)"/>
<path d="M64.755 11.0316H63.505V12.2816H64.755V11.0316ZM74.298 11.0316V12.2816H74.2987L74.298 11.0316ZM64.755 2.77886H66.005V2.76921L66.0049 2.75957L64.755 2.77886ZM64.2387 1.79522L64.9947 0.799761V0.799761L64.2387 1.79522ZM63.0774 1.50477L62.8983 0.267667L62.8904 0.268816L62.8825 0.270065L63.0774 1.50477ZM2.61733 11.0501L2.4224 9.81538L2.41354 9.81678L2.4047 9.81831L2.61733 11.0501ZM1.43213 12.3249L0.182308 12.3037L0.182129 12.3143V12.3249H1.43213ZM1.43213 94.7882H0.182129L0.182129 94.7889L1.43213 94.7882ZM2.86353 96.0815L2.86289 97.3315H2.86353V96.0815ZM75.7294 12.3249L74.4794 12.3241V12.3249H75.7294ZM61.8922 12.0507V13.3007H63.1422V12.0507H61.8922ZM61.8922 4.62045H63.1422V3.13308L61.6771 3.38911L61.8922 4.62045ZM19.3713 12.0507L19.1561 10.8193L19.3713 13.3007V12.0507ZM72.8666 92.9758V94.2258H74.1166V92.9758H72.8666ZM4.29494 92.9758H3.04494V94.2258H4.29494V92.9758ZM72.8666 14.9135H74.1166V13.6635H72.8666V14.9135ZM4.29494 14.9135V13.6635H3.04494V14.9135H4.29494ZM64.755 12.2816H74.298V9.78161H64.755V12.2816ZM63.505 2.77886V11.0316H66.005V2.77886H63.505ZM63.4827 2.79068C63.5024 2.8057 63.5083 2.81666 63.5086 2.81723C63.5089 2.81764 63.508 2.81602 63.507 2.81231C63.506 2.80852 63.5053 2.80363 63.5052 2.79815L66.0049 2.75957C65.9927 1.96806 65.6 1.25946 64.9947 0.799761L63.4827 2.79068ZM63.2565 2.74188C63.3545 2.72769 63.4385 2.75712 63.4827 2.79068L64.9947 0.799761C64.3948 0.344164 63.6311 0.161585 62.8983 0.267667L63.2565 2.74188ZM2.81227 12.2848L63.2724 2.73948L62.8825 0.270065L2.4224 9.81538L2.81227 12.2848ZM2.68195 12.3461C2.68161 12.3662 2.67223 12.3666 2.68932 12.3482C2.70782 12.3283 2.75212 12.2953 2.82997 12.2819L2.4047 9.81831C1.22213 10.0224 0.204518 10.9928 0.182308 12.3037L2.68195 12.3461ZM2.68213 94.7882V12.3249H0.182129V94.7882H2.68213ZM2.86417 94.8315C2.77419 94.8314 2.71592 94.7987 2.68962 94.7749C2.67704 94.7636 2.67504 94.7574 2.67677 94.7611C2.67916 94.7663 2.68212 94.7764 2.68213 94.7874L0.182129 94.7889C0.18309 96.3089 1.50487 97.3308 2.86289 97.3315L2.86417 94.8315ZM74.298 94.8315H2.86353V97.3315H74.298V94.8315ZM74.4794 94.7882C74.4794 94.7771 74.4824 94.7668 74.4848 94.7616C74.4866 94.7578 74.4847 94.7638 74.4722 94.7752C74.446 94.7988 74.3878 94.8315 74.298 94.8315V97.3315C75.6566 97.3315 76.9794 96.3091 76.9794 94.7882H74.4794ZM74.4794 12.3249V94.7882H76.9794V12.3249H74.4794ZM74.4724 12.3377C74.4841 12.3483 74.4858 12.3539 74.4842 12.3504C74.4835 12.3489 74.4822 12.3457 74.4812 12.3408C74.4801 12.3359 74.4794 12.3302 74.4794 12.3241L76.9794 12.3257C76.9799 11.6075 76.6632 10.9478 76.1484 10.4827L74.4724 12.3377ZM74.2987 12.2816C74.3852 12.2816 74.446 12.3138 74.4724 12.3377L76.1484 10.4827C75.6379 10.0214 74.9702 9.78127 74.2974 9.78161L74.2987 12.2816ZM63.1422 12.0507V4.62045H60.6422V12.0507H63.1422ZM19.3713 13.3007H61.8922V10.8007H19.3713V13.3007ZM61.6771 3.38911L19.1561 10.8193L19.5865 13.282L62.1074 5.85179L61.6771 3.38911ZM72.8666 91.7258H4.29494V94.2258H72.8666V91.7258ZM71.6166 14.9135V92.9758H74.1166V14.9135H71.6166ZM4.29494 16.1635H72.8666V13.6635H4.29494V16.1635ZM5.54494 92.9758V14.9135H3.04494V92.9758H5.54494Z" fill="url(#paint1_linear)"/>
<path fill-rule="evenodd" clip-rule="evenodd" d="M46.6903 57.6537H43.3908C43.194 57.6537 43.0235 57.5816 42.8805 57.438C42.7368 57.2943 42.6648 57.1238 42.6648 56.927V38.7566C42.6648 36.7581 43.3766 35.047 44.7996 33.6233C46.2228 32.2002 47.9338 31.4883 49.9328 31.4883H50.9775C51.3709 31.4883 51.7113 31.6326 51.9992 31.9199C52.2866 32.2079 52.4308 32.549 52.4308 32.9419V72.4227C52.4308 73.2103 52.1429 73.8918 51.5675 74.467C51.0011 75.0328 50.331 75.3178 49.5602 75.3268C48.7888 75.3178 48.1191 75.0329 47.5529 74.467C46.9776 73.8918 46.6903 73.2103 46.6903 72.4227V57.6537ZM28.1281 71.8264V50.3974C27.2648 50.0945 23.4324 47.21 23.4321 46.2854V34.1343C23.4321 33.7414 23.5764 33.4009 23.8638 33.1123C24.1511 32.825 24.4916 32.6807 24.8856 32.6807C25.2792 32.6807 25.6201 32.825 25.9075 33.1123C26.1955 33.4003 26.3392 33.7414 26.3392 34.1343V43.5829C26.3392 43.9763 26.4829 44.3174 26.7709 44.6048C27.0582 44.8928 27.3987 45.0359 27.7928 45.0359C28.1862 45.0359 28.5267 44.8928 28.8147 44.6048C29.1021 44.3174 29.2463 43.9769 29.2463 43.5829V34.1343C29.2463 33.7414 29.39 33.4009 29.678 33.1123C29.9654 32.825 30.3059 32.6807 30.6999 32.6807C31.0934 32.6807 31.4344 32.825 31.7218 33.1123C32.0091 33.4003 32.1534 33.7414 32.1534 34.1343V43.5829C32.1534 43.9763 32.2977 44.3174 32.5851 44.6048C32.8725 44.8928 33.2129 45.0359 33.607 45.0359C34.0005 45.0359 34.3409 44.8928 34.6289 44.6048C34.9163 44.3174 35.0606 43.9769 35.0606 43.5829V34.1343C35.0606 33.7414 35.2043 33.4009 35.4922 33.1123C35.7796 32.825 36.1201 32.6807 36.5141 32.6807C36.907 32.6807 37.2481 32.825 37.5361 33.1123C37.8235 33.4003 37.9677 33.7414 37.9677 34.1343V46.2859C37.9677 47.2107 34.7316 50.0951 33.8683 50.3974V71.8264C33.8683 72.6142 33.581 73.2955 33.0056 73.8709C32.4392 74.4367 31.7692 74.7215 30.9982 74.7305C30.2268 74.7215 29.5572 74.4368 28.9914 73.8709C28.4155 73.2955 28.1281 72.6142 28.1281 71.8264Z" fill="url(#paint2_linear)"/>
<path d="M46.6903 57.6537H46.9403V57.4037H46.6903V57.6537ZM42.8805 57.438L43.0577 57.2616L43.0573 57.2612L42.8805 57.438ZM44.7996 33.6233L44.6228 33.4465L44.6228 33.4466L44.7996 33.6233ZM51.9992 31.9199L52.1761 31.7433L52.1758 31.743L51.9992 31.9199ZM51.5675 74.467L51.7442 74.6438L51.7443 74.6438L51.5675 74.467ZM49.5602 75.3268L49.5573 75.5768L49.5631 75.5768L49.5602 75.3268ZM47.5529 74.467L47.3762 74.6438L47.3762 74.6438L47.5529 74.467ZM28.1281 50.3974H28.3781V50.2201L28.2108 50.1615L28.1281 50.3974ZM23.4321 46.2854H23.1821L23.1821 46.2855L23.4321 46.2854ZM23.8638 33.1123L23.687 32.9356L23.6867 32.9359L23.8638 33.1123ZM25.9075 33.1123L26.0843 32.9356V32.9356L25.9075 33.1123ZM26.7709 44.6048L26.9478 44.4282L26.9474 44.4278L26.7709 44.6048ZM29.678 33.1123L29.5012 32.9356L29.5011 32.9357L29.678 33.1123ZM31.7218 33.1123L31.8987 32.9357L31.8985 32.9356L31.7218 33.1123ZM32.5851 44.6048L32.762 44.4282L32.7618 44.428L32.5851 44.6048ZM35.4922 33.1123L35.3155 32.9356L35.3153 32.9357L35.4922 33.1123ZM37.5361 33.1123L37.713 32.9357L37.7127 32.9354L37.5361 33.1123ZM33.8683 50.3974L33.7856 50.1614L33.6183 50.22V50.3974H33.8683ZM33.0056 73.8709L33.1823 74.0477L33.1824 74.0476L33.0056 73.8709ZM30.9982 74.7305L30.9953 74.9805L31.0011 74.9805L30.9982 74.7305ZM28.9914 73.8709L29.1682 73.6941L29.1681 73.694L28.9914 73.8709ZM43.3908 57.9037H46.6903V57.4037H43.3908V57.9037ZM42.7034 57.6144C42.8917 57.8035 43.1253 57.9037 43.3908 57.9037V57.4037C43.2627 57.4037 43.1554 57.3597 43.0577 57.2616L42.7034 57.6144ZM42.4148 56.927C42.4148 57.1926 42.515 57.426 42.7038 57.6148L43.0573 57.2612C42.9587 57.1626 42.9148 57.055 42.9148 56.927H42.4148ZM42.4148 38.7566V56.927H42.9148V38.7566H42.4148ZM44.6228 33.4466C43.1533 34.9167 42.4148 36.6913 42.4148 38.7566H42.9148C42.9148 36.825 43.5999 35.1772 44.9764 33.8L44.6228 33.4466ZM49.9328 31.2383C47.867 31.2383 46.0925 31.9769 44.6228 33.4465L44.9764 33.8001C46.353 32.4235 48.0007 31.7383 49.9328 31.7383V31.2383ZM50.9775 31.2383H49.9328V31.7383H50.9775V31.2383ZM52.1758 31.743C51.8431 31.4108 51.4399 31.2383 50.9775 31.2383V31.7383C51.3019 31.7383 51.5796 31.8543 51.8226 32.0969L52.1758 31.743ZM52.6808 32.9419C52.6808 32.4801 52.5084 32.0763 52.1761 31.7433L51.8222 32.0965C52.0648 32.3396 52.1808 32.6179 52.1808 32.9419H52.6808ZM52.6808 72.4227V32.9419H52.1808V72.4227H52.6808ZM51.7443 74.6438C52.3648 74.0235 52.6808 73.279 52.6808 72.4227H52.1808C52.1808 73.1415 51.921 73.7601 51.3908 74.2902L51.7443 74.6438ZM49.5631 75.5768C50.4012 75.567 51.1331 75.2543 51.7442 74.6438L51.3908 74.2901C50.8691 74.8113 50.2608 75.0686 49.5573 75.0768L49.5631 75.5768ZM47.3762 74.6438C47.9871 75.2544 48.7185 75.567 49.5573 75.5768L49.5631 75.0768C48.859 75.0686 48.2511 74.8114 47.7296 74.2901L47.3762 74.6438ZM46.4403 72.4227C46.4403 73.2789 46.7556 74.0234 47.3762 74.6438L47.7297 74.2902C47.1996 73.7602 46.9403 73.1416 46.9403 72.4227H46.4403ZM46.4403 57.6537V72.4227H46.9403V57.6537H46.4403ZM27.8781 50.3974V71.8264H28.3781V50.3974H27.8781ZM23.1821 46.2855C23.1822 46.4753 23.2753 46.6722 23.3875 46.8491C23.5051 47.0345 23.669 47.2365 23.8606 47.4447C24.2445 47.8619 24.7604 48.3269 25.2979 48.7678C25.8364 49.2096 26.4023 49.6319 26.8894 49.9638C27.3669 50.289 27.794 50.5451 28.0453 50.6333L28.2108 50.1615C28.0305 50.0982 27.6548 49.8802 27.1709 49.5505C26.6966 49.2274 26.1426 48.8141 25.615 48.3813C25.0865 47.9477 24.5903 47.4993 24.2286 47.1061C24.0473 46.9092 23.9051 46.7317 23.8097 46.5813C23.7089 46.4222 23.6821 46.3268 23.6821 46.2854L23.1821 46.2855ZM23.1821 34.1343V46.2854H23.6821V34.1343H23.1821ZM23.6867 32.9359C23.3547 33.2692 23.1821 33.6723 23.1821 34.1343H23.6821C23.6821 33.8105 23.7981 33.5326 24.0409 33.2888L23.6867 32.9359ZM24.8856 32.4307C24.4227 32.4307 24.0193 32.6032 23.687 32.9356L24.0406 33.2891C24.2828 33.0468 24.5604 32.9307 24.8856 32.9307V32.4307ZM26.0843 32.9356C25.7519 32.6031 25.348 32.4307 24.8856 32.4307V32.9307C25.2103 32.9307 25.4884 33.0468 25.7308 33.2891L26.0843 32.9356ZM26.5892 34.1343C26.5892 33.6727 26.4174 33.2687 26.0843 32.9356L25.7308 33.2891C25.9736 33.5319 26.0892 33.8101 26.0892 34.1343H26.5892ZM26.5892 43.5829V34.1343H26.0892V43.5829H26.5892ZM26.9474 44.4278C26.7049 44.1857 26.5892 43.9077 26.5892 43.5829H26.0892C26.0892 44.045 26.2609 44.4491 26.5943 44.7817L26.9474 44.4278ZM27.7928 44.7859C27.4671 44.7859 27.1897 44.6706 26.9478 44.4282L26.5939 44.7814C26.9267 45.1149 27.3303 45.2859 27.7928 45.2859V44.7859ZM28.6379 44.428C28.3952 44.6707 28.1177 44.7859 27.7928 44.7859V45.2859C28.2548 45.2859 28.6582 45.1148 28.9915 44.7816L28.6379 44.428ZM28.9963 43.5829C28.9963 43.908 28.8803 44.1856 28.6379 44.428L28.9915 44.7816C29.3239 44.4492 29.4963 44.0458 29.4963 43.5829H28.9963ZM28.9963 34.1343V43.5829H29.4963V34.1343H28.9963ZM29.5011 32.9357C29.1682 33.2693 28.9963 33.6725 28.9963 34.1343H29.4963C29.4963 33.8102 29.6119 33.5325 29.855 33.2889L29.5011 32.9357ZM30.6999 32.4307C30.237 32.4307 29.8336 32.6032 29.5012 32.9356L29.8548 33.2891C30.0972 33.0468 30.3748 32.9307 30.6999 32.9307V32.4307ZM31.8985 32.9356C31.5661 32.6031 31.1623 32.4307 30.6999 32.4307V32.9307C31.0245 32.9307 31.3026 33.0468 31.545 33.2891L31.8985 32.9356ZM32.4034 34.1343C32.4034 33.6724 32.2309 33.2686 31.8987 32.9357L31.5448 33.2889C31.7874 33.532 31.9034 33.8103 31.9034 34.1343H32.4034ZM32.4034 43.5829V34.1343H31.9034V43.5829H32.4034ZM32.7618 44.428C32.5195 44.1857 32.4034 43.9075 32.4034 43.5829H31.9034C31.9034 44.0452 32.0759 44.4491 32.4083 44.7816L32.7618 44.428ZM33.607 44.7859C33.2814 44.7859 33.004 44.6706 32.762 44.4282L32.4081 44.7814C32.7409 45.1149 33.1445 45.2859 33.607 45.2859V44.7859ZM34.4521 44.428C34.2095 44.6707 33.932 44.7859 33.607 44.7859V45.2859C34.069 45.2859 34.4724 45.1148 34.8057 44.7816L34.4521 44.428ZM34.8106 43.5829C34.8106 43.908 34.6945 44.1856 34.4521 44.428L34.8057 44.7816C35.1381 44.4492 35.3106 44.0458 35.3106 43.5829H34.8106ZM34.8106 34.1343V43.5829H35.3106V34.1343H34.8106ZM35.3153 32.9357C34.9824 33.2693 34.8106 33.6725 34.8106 34.1343H35.3106C35.3106 33.8102 35.4261 33.5325 35.6692 33.2889L35.3153 32.9357ZM36.5141 32.4307C36.0512 32.4307 35.6479 32.6032 35.3155 32.9356L35.669 33.2891C35.9114 33.0468 36.189 32.9307 36.5141 32.9307V32.4307ZM37.7127 32.9354C37.3798 32.6032 36.976 32.4307 36.5141 32.4307V32.9307C36.8381 32.9307 37.1164 33.0467 37.3595 33.2893L37.7127 32.9354ZM38.2177 34.1343C38.2177 33.6724 38.0452 33.2686 37.713 32.9357L37.3591 33.2889C37.6017 33.532 37.7177 33.8103 37.7177 34.1343H38.2177ZM38.2177 46.2859V34.1343H37.7177V46.2859H38.2177ZM33.9509 50.6333C34.2099 50.5426 34.6036 50.2807 35.0256 49.9555C35.4581 49.6222 35.9502 49.1986 36.4143 48.756C36.8777 48.3141 37.3185 47.8481 37.6455 47.43C37.8088 47.2212 37.9479 47.0191 38.0473 46.834C38.1431 46.6555 38.2177 46.4645 38.2177 46.2859H37.7177C37.7177 46.3385 37.6912 46.4401 37.6067 46.5975C37.5258 46.7483 37.4052 46.9256 37.2517 47.122C36.9449 47.5142 36.5227 47.9617 36.0692 48.3942C35.6164 48.826 35.1375 49.238 34.7204 49.5595C34.2929 49.889 33.9583 50.101 33.7856 50.1614L33.9509 50.6333ZM34.1183 71.8264V50.3974H33.6183V71.8264H34.1183ZM33.1824 74.0476C33.803 73.4271 34.1183 72.6828 34.1183 71.8264H33.6183C33.6183 72.5455 33.359 73.1639 32.8288 73.6941L33.1824 74.0476ZM31.0011 74.9805C31.8394 74.9707 32.5712 74.6582 33.1823 74.0477L32.8289 73.694C32.3073 74.2151 31.699 74.4723 30.9953 74.4805L31.0011 74.9805ZM28.8146 74.0476C29.4252 74.6583 30.1566 74.9707 30.9953 74.9805L31.0011 74.4805C30.2969 74.4723 29.6892 74.2152 29.1682 73.6941L28.8146 74.0476ZM27.8781 71.8264C27.8781 72.6828 28.1935 73.4272 28.8147 74.0477L29.1681 73.694C28.6374 73.1639 28.3781 72.5455 28.3781 71.8264H27.8781Z" fill="url(#paint3_linear)"/>
<defs>
<linearGradient id="paint0_linear" x1="1.43213" y1="1.48828" x2="1.43213" y2="96.0815" gradientUnits="userSpaceOnUse">
<stop stop-color="#49C4FF"/>
<stop offset="1" stop-color="#4191FF"/>
</linearGradient>
<linearGradient id="paint1_linear" x1="1.43213" y1="1.48828" x2="1.43213" y2="96.0815" gradientUnits="userSpaceOnUse">
<stop stop-color="#49C4FF"/>
<stop offset="1" stop-color="#4191FF"/>
</linearGradient>
<linearGradient id="paint2_linear" x1="23.4321" y1="31.4883" x2="23.4321" y2="75.3268" gradientUnits="userSpaceOnUse">
<stop stop-color="#49C4FF"/>
<stop offset="1" stop-color="#4191FF"/>
</linearGradient>
<linearGradient id="paint3_linear" x1="23.4321" y1="31.4883" x2="23.4321" y2="75.3268" gradientUnits="userSpaceOnUse">
<stop stop-color="#49C4FF"/>
<stop offset="1" stop-color="#4191FF"/>
</linearGradient>
</defs>
</svg>
