<svg width="78" height="52" viewBox="0 0 78 52" fill="none" xmlns="http://www.w3.org/2000/svg">
<path fill-rule="evenodd" clip-rule="evenodd" d="M77.0868 35.5789C76.8971 31.2172 76.1386 26.3814 75.0007 21.83C73.8629 17.4683 72.4406 13.391 70.7338 10.2619C64.0964 -1.40096 56.89 0.400624 48.2614 2.67631C48.0161 2.73553 47.7692 2.79551 47.5209 2.85583L47.5203 2.85598C44.9859 3.47174 42.3013 4.12401 39.5379 4.38307H38.5897C35.8264 4.12401 33.1418 3.47174 30.6074 2.85598L30.6068 2.85583L30.6044 2.85525L30.6031 2.85493C30.356 2.79491 30.1104 2.73523 29.8663 2.67631L29.7233 2.64018C21.158 0.474897 13.9946 -1.33597 7.39388 10.3568C5.68711 13.4858 4.16999 17.5631 3.12696 21.9248C1.98912 26.4762 1.23056 31.312 1.04092 35.6738C0.851278 40.5096 1.32538 44.0179 2.3684 46.4833C3.41142 48.759 4.92855 50.1813 6.91977 50.7502C8.72136 51.2243 10.8074 51.0346 12.9883 50.0864C16.6863 48.5693 20.9532 45.3454 25.1253 41.4578C28.0647 38.6132 33.5643 37.1909 39.0638 37.1909C44.5634 37.1909 50.063 38.6132 53.0024 41.4578C57.1745 45.3454 61.4414 48.5693 65.1394 50.0864C67.3203 50.9398 69.4063 51.2243 71.2079 50.7502C73.1043 50.1813 74.7163 48.8538 75.7593 46.3884C76.8023 44.0179 77.2764 40.5096 77.0868 35.5789ZM73.179 45.1464C72.5992 46.4798 71.826 47.2418 70.8596 47.5275C69.7965 47.8133 68.4435 47.6228 66.8972 47.0513C63.5147 45.7178 59.5523 42.7652 55.6865 39.1458C52.0141 35.5265 45.539 33.7168 39.0638 33.7168C32.5887 33.7168 26.1136 35.5265 22.3445 38.9553C18.3821 42.5747 14.4197 45.6226 11.1339 46.8608C9.58756 47.4323 8.23455 47.718 7.17147 47.337C6.20504 47.0513 5.43189 46.2893 4.85203 44.9559C4.07888 43.1462 3.6923 40.1935 3.88559 35.8122C4.07888 31.7166 4.75538 27.0495 5.9151 22.6682C6.97818 18.5726 8.33119 14.7627 9.97413 11.9053C15.2895 2.47589 21.4747 3.99984 28.8196 5.90477C31.8156 6.66674 34.9082 7.42871 38.2907 7.71445H38.484H39.5471H39.7403C43.2195 7.42871 46.3121 6.66674 49.3081 5.90477L49.5001 5.85744C56.7609 4.06766 62.8845 2.55818 68.1536 11.9053C69.7965 14.7627 71.1495 18.4773 72.2126 22.6682C73.2757 27.0495 74.0488 31.6213 74.2421 35.8122C74.4354 40.1935 74.0488 43.1462 73.179 45.1464ZM58.8813 14.2444C58.8813 16.0773 57.3954 17.5631 55.5626 17.5631C53.7297 17.5631 52.2439 16.0773 52.2439 14.2444C52.2439 12.4115 53.7297 10.9257 55.5626 10.9257C57.3954 10.9257 58.8813 12.4115 58.8813 14.2444ZM26.9268 15.477C28.2543 15.5719 29.3922 16.2356 30.3404 17.089C31.2886 18.0372 31.9523 19.4595 31.9523 20.9766C31.9523 22.4937 31.3834 23.8212 30.3404 24.8643C29.487 25.8125 28.2543 26.3814 26.9268 26.4762C26.832 27.8037 26.1683 28.9415 25.3149 29.8897C24.3667 30.8379 22.9444 31.5017 21.4273 31.5017C19.9101 31.5017 18.5827 30.9327 17.5396 29.8897C16.5914 29.0363 16.0225 27.8037 15.9277 26.4762C14.5054 26.3814 13.3676 25.8125 12.4193 24.8643C11.4711 23.916 10.8074 22.4937 10.8074 20.9766C10.8074 19.4595 11.3763 18.132 12.4193 17.089L12.5142 16.9942C13.4624 16.1408 14.6002 15.5719 15.9277 15.477C16.0225 14.1496 16.6863 12.9169 17.5396 12.0635C18.4878 11.1153 19.9101 10.4516 21.4273 10.4516C22.9444 10.4516 24.2719 11.0205 25.3149 12.0635L25.4097 12.1583C26.2631 13.0117 26.832 14.2444 26.9268 15.477ZM26.5476 22.9678C27.1165 22.9678 27.5906 22.7782 27.9699 22.3989C28.3492 22.0196 28.5388 21.5455 28.5388 20.9766C28.5388 20.4077 28.3492 19.9336 27.9699 19.5543C27.5906 19.175 27.1165 18.9854 26.5476 18.9854H25.2201C24.1771 18.9854 23.4185 18.132 23.4185 17.1838V15.8563C23.4185 15.3822 23.2289 14.9081 22.9444 14.5288L22.8496 14.434C22.4703 14.0547 21.9962 13.8651 21.4273 13.8651C20.8584 13.8651 20.3843 14.0547 20.005 14.434C19.6257 14.8133 19.436 15.2874 19.436 15.8563V17.1838C19.436 18.2268 18.5827 18.9854 17.6345 18.9854H16.307C15.8329 18.9854 15.3588 19.175 14.9795 19.4595L14.8847 19.5543C14.5054 19.9336 14.3158 20.4077 14.3158 20.9766C14.3158 21.5455 14.6002 22.0196 14.8847 22.3041C15.264 22.6834 15.7381 22.873 16.307 22.873H17.6345C18.6775 22.873 19.436 23.7264 19.436 24.6746V26.0021C19.436 26.571 19.6257 27.0451 20.005 27.4244C20.3843 27.8037 20.8584 27.9933 21.4273 27.9933C21.9962 27.9933 22.4703 27.8037 22.8496 27.4244C23.2289 27.0451 23.4185 26.571 23.4185 26.0021V24.7694C23.4185 23.7264 24.2719 22.9678 25.2201 22.9678H26.5476ZM58.8813 27.7089C58.8813 29.5417 57.3954 31.0276 55.5626 31.0276C53.7297 31.0276 52.2439 29.5417 52.2439 27.7089C52.2439 25.876 53.7297 24.3901 55.5626 24.3901C57.3954 24.3901 58.8813 25.876 58.8813 27.7089ZM48.8303 24.2953C50.6632 24.2953 52.149 22.8095 52.149 20.9766C52.149 19.1437 50.6632 17.6579 48.8303 17.6579C46.9975 17.6579 45.5116 19.1437 45.5116 20.9766C45.5116 22.8095 46.9975 24.2953 48.8303 24.2953ZM65.6135 20.9766C65.6135 22.8095 64.1277 24.2953 62.2948 24.2953C60.4619 24.2953 58.9761 22.8095 58.9761 20.9766C58.9761 19.1437 60.4619 17.6579 62.2948 17.6579C64.1277 17.6579 65.6135 19.1437 65.6135 20.9766Z" fill="url(#paint0_linear)"/>
<path d="M75.0007 21.83L75.2433 21.7694L75.2426 21.7669L75.0007 21.83ZM77.0868 35.5789L77.3366 35.5693L77.3365 35.5681L77.0868 35.5789ZM70.7338 10.2619L70.9533 10.1422L70.9511 10.1383L70.7338 10.2619ZM48.2614 2.67631L48.3201 2.91938L48.3252 2.91804L48.2614 2.67631ZM47.5209 2.85583L47.5795 3.09886L47.5799 3.09876L47.5209 2.85583ZM47.5203 2.85598L47.4617 2.61294L47.4613 2.61305L47.5203 2.85598ZM39.5379 4.38307V4.63307H39.5496L39.5613 4.63198L39.5379 4.38307ZM38.5897 4.38307L38.5664 4.63198L38.578 4.63307H38.5897V4.38307ZM30.6074 2.85598L30.5482 3.09888L30.5483 3.09891L30.6074 2.85598ZM30.6068 2.85583L30.6659 2.61293L30.6658 2.6129L30.6068 2.85583ZM30.6044 2.85525L30.6634 2.61232L30.6633 2.61231L30.6044 2.85525ZM30.6031 2.85493L30.544 3.09786L30.5441 3.09788L30.6031 2.85493ZM29.8663 2.67631L29.805 2.9187L29.8076 2.91933L29.8663 2.67631ZM29.7233 2.64018L29.6621 2.88255L29.6621 2.88255L29.7233 2.64018ZM7.39388 10.3568L7.17615 10.2338L7.1744 10.237L7.39388 10.3568ZM3.12696 21.9248L3.36951 21.9855L3.37011 21.983L3.12696 21.9248ZM1.04092 35.6738L0.791152 35.6629L0.79111 35.664L1.04092 35.6738ZM2.3684 46.4833L2.13806 46.5807L2.14114 46.5874L2.3684 46.4833ZM6.91977 50.7502L6.85108 50.9906L6.85615 50.9919L6.91977 50.7502ZM12.9883 50.0864L12.8934 49.8551L12.8886 49.8572L12.9883 50.0864ZM25.1253 41.4578L25.2957 41.6407L25.2991 41.6374L25.1253 41.4578ZM53.0024 41.4578L52.8285 41.6375L52.832 41.6407L53.0024 41.4578ZM65.1394 50.0864L65.0445 50.3178L65.0483 50.3192L65.1394 50.0864ZM71.2079 50.7502L71.2716 50.9921L71.2797 50.9896L71.2079 50.7502ZM75.7593 46.3884L75.5304 46.2878L75.529 46.291L75.7593 46.3884ZM70.8596 47.5275L70.9245 47.769L70.9305 47.7673L70.8596 47.5275ZM73.179 45.1464L73.4083 45.2461L73.179 45.1464ZM66.8972 47.0513L66.8055 47.2839L66.8105 47.2858L66.8972 47.0513ZM55.6865 39.1458L55.511 39.3239L55.5157 39.3283L55.6865 39.1458ZM22.3445 38.9553L22.1763 38.7704L22.1759 38.7707L22.3445 38.9553ZM11.1339 46.8608L11.2205 47.0953L11.222 47.0947L11.1339 46.8608ZM7.17147 47.337L7.25581 47.1017L7.24915 47.0993L7.24235 47.0973L7.17147 47.337ZM4.85203 44.9559L4.62212 45.0541L4.62276 45.0556L4.85203 44.9559ZM3.88559 35.8122L3.63587 35.8004L3.63583 35.8012L3.88559 35.8122ZM5.9151 22.6682L6.15678 22.7321L6.15709 22.731L5.9151 22.6682ZM9.97413 11.9053L10.1909 12.0299L10.1919 12.0281L9.97413 11.9053ZM28.8196 5.90477L28.7569 6.14676L28.758 6.14705L28.8196 5.90477ZM38.2907 7.71445L38.2697 7.96357L38.2802 7.96445H38.2907V7.71445ZM39.7403 7.71445V7.96445H39.7506L39.7608 7.96361L39.7403 7.71445ZM49.3081 5.90477L49.2482 5.66202L49.2464 5.66248L49.3081 5.90477ZM49.5001 5.85744L49.5599 6.10018L49.5599 6.10018L49.5001 5.85744ZM68.1536 11.9053L67.9358 12.0281L67.9368 12.0299L68.1536 11.9053ZM72.2126 22.6682L72.4556 22.6092L72.4549 22.6067L72.2126 22.6682ZM74.2421 35.8122L74.4919 35.8012L74.4918 35.8007L74.2421 35.8122ZM30.3404 17.089L30.5174 16.912L30.5076 16.9032L30.3404 17.089ZM26.9268 15.477L26.6776 15.4962L26.6941 15.7111L26.909 15.7264L26.9268 15.477ZM30.3404 24.8643L30.1634 24.6872L30.1546 24.697L30.3404 24.8643ZM26.9268 26.4762L26.909 26.2268L26.6929 26.2423L26.6775 26.4584L26.9268 26.4762ZM25.3149 29.8897L25.4919 30.0667L25.5007 30.057L25.3149 29.8897ZM17.5396 29.8897L17.7167 29.7127L17.7069 29.7039L17.5396 29.8897ZM15.9277 26.4762L16.1771 26.4584L16.1616 26.2412L15.9443 26.2267L15.9277 26.4762ZM12.4193 24.8643L12.2426 25.041L12.4193 24.8643ZM12.4193 17.089L12.5961 17.2658L12.5961 17.2658L12.4193 17.089ZM12.5142 16.9942L12.3467 16.8081L12.3374 16.8174L12.5142 16.9942ZM15.9277 15.477L15.9455 15.7264L16.1616 15.711L16.1771 15.4949L15.9277 15.477ZM17.5396 12.0635L17.3629 11.8867L17.5396 12.0635ZM25.3149 12.0635L25.1381 12.2403L25.1381 12.2403L25.3149 12.0635ZM25.4097 12.1583L25.5865 11.9816L25.5865 11.9816L25.4097 12.1583ZM27.9699 22.3989L27.7931 22.2221L27.9699 22.3989ZM27.9699 19.5543L28.1466 19.3775L27.9699 19.5543ZM22.9444 14.5288L23.1444 14.3788L23.1337 14.3646L23.1212 14.3521L22.9444 14.5288ZM22.8496 14.434L23.0264 14.2572L22.8496 14.434ZM20.005 14.434L20.1817 14.6108L20.005 14.434ZM14.9795 19.4595L14.8295 19.2595L14.8153 19.2702L14.8027 19.2827L14.9795 19.4595ZM14.8847 19.5543L14.7079 19.3775L14.7079 19.3775L14.8847 19.5543ZM14.8847 22.3041L14.7079 22.4809L14.8847 22.3041ZM22.8496 27.4244L23.0264 27.6012L22.8496 27.4244ZM74.7582 21.8906C75.8926 26.4283 76.6482 31.2473 76.837 35.5898L77.3365 35.5681C77.146 31.1871 76.3845 26.3345 75.2433 21.7694L74.7582 21.8906ZM70.5143 10.3816C72.2073 13.4854 73.6234 17.5408 74.7588 21.8931L75.2426 21.7669C74.1023 17.3958 72.6738 13.2966 70.9533 10.1422L70.5143 10.3816ZM48.3252 2.91804C52.653 1.77663 56.5533 0.777519 60.1965 1.48754C63.8128 2.19232 67.2211 4.595 70.5165 10.3856L70.9511 10.1383C67.6091 4.26597 64.0955 1.738 60.2921 0.99677C56.5157 0.260779 52.4984 1.3003 48.1977 2.43458L48.3252 2.91804ZM47.5799 3.09876C47.8283 3.03843 48.0749 2.9785 48.3201 2.91933L48.2027 2.43329C47.9572 2.49256 47.7102 2.55258 47.4619 2.6129L47.5799 3.09876ZM47.5789 3.09901L47.5795 3.09886L47.4623 2.6128L47.4617 2.61294L47.5789 3.09901ZM39.5613 4.63198C42.3456 4.37096 45.0476 3.71403 47.5793 3.09891L47.4613 2.61305C44.9242 3.22946 42.257 3.87707 39.5146 4.13417L39.5613 4.63198ZM38.5897 4.63307H39.5379V4.13307H38.5897V4.63307ZM30.5483 3.09891C33.0801 3.71403 35.7821 4.37096 38.5664 4.63198L38.6131 4.13417C35.8707 3.87707 33.2035 3.22946 30.6664 2.61304L30.5483 3.09891ZM30.5476 3.09874L30.5482 3.09888L30.6665 2.61307L30.6659 2.61293L30.5476 3.09874ZM30.5454 3.09818L30.5477 3.09876L30.6658 2.6129L30.6634 2.61232L30.5454 3.09818ZM30.5441 3.09788L30.5454 3.0982L30.6633 2.61231L30.662 2.61198L30.5441 3.09788ZM29.8076 2.91933C30.0515 2.9782 30.297 3.03783 30.544 3.09786L30.6621 2.612C30.4151 2.55198 30.1693 2.49227 29.9249 2.43329L29.8076 2.91933ZM29.6621 2.88255L29.805 2.91869L29.9275 2.43393L29.7846 2.3978L29.6621 2.88255ZM7.61158 10.4796C10.889 4.674 14.2777 2.26637 17.871 1.54685C21.4914 0.821889 25.3647 1.79619 29.6621 2.88255L29.7846 2.3978C25.5166 1.31888 21.5256 0.30511 17.7728 1.05658C13.9928 1.81348 10.4995 4.34678 7.17617 10.2339L7.61158 10.4796ZM3.37011 21.983C4.40905 17.6383 5.91914 13.5825 7.61335 10.4765L7.1744 10.237C5.45508 13.3891 3.93092 17.4879 2.88382 21.8667L3.37011 21.983ZM1.29068 35.6846C1.47949 31.3421 2.23509 26.5231 3.3695 21.9855L2.88443 21.8642C1.74316 26.4293 0.981632 31.2819 0.791154 35.6629L1.29068 35.6846ZM2.59864 46.3859C1.5764 43.9696 1.10169 40.5039 1.29073 35.6836L0.79111 35.664C0.600861 40.5153 1.07436 44.0662 2.13816 46.5807L2.59864 46.3859ZM6.98845 50.5098C5.08206 49.9651 3.61522 48.6036 2.59567 46.3791L2.14114 46.5874C3.20763 48.9143 4.77503 50.3974 6.85109 50.9906L6.98845 50.5098ZM12.8886 49.8572C10.7498 50.7871 8.72156 50.9658 6.9834 50.5084L6.85615 50.9919C8.72116 51.4827 10.865 51.2822 13.088 50.3157L12.8886 49.8572ZM24.9548 41.2749C20.7888 45.1569 16.5486 48.3556 12.8934 49.8551L13.0832 50.3177C16.8239 48.7831 21.1175 45.534 25.2957 41.6407L24.9548 41.2749ZM39.0638 36.9409C33.5396 36.9409 27.96 38.3666 24.9514 41.2781L25.2991 41.6374C28.1694 38.8598 33.5889 37.4409 39.0638 37.4409V36.9409ZM53.1763 41.2781C50.1677 38.3666 44.5881 36.9409 39.0638 36.9409V37.4409C44.5388 37.4409 49.9583 38.8598 52.8286 41.6374L53.1763 41.2781ZM65.2343 49.8551C61.579 48.3556 57.3389 45.1569 53.1729 41.2749L52.832 41.6407C57.0101 45.534 61.3038 48.7831 65.0445 50.3177L65.2343 49.8551ZM71.1443 50.5084C69.4118 50.9643 67.3826 50.6958 65.2305 49.8536L65.0483 50.3192C67.2579 51.1839 69.4008 51.4842 71.2715 50.9919L71.1443 50.5084ZM75.529 46.291C74.5129 48.6928 72.9562 49.9647 71.1361 50.5107L71.2797 50.9896C73.2525 50.3978 74.9196 49.0148 75.9895 46.4859L75.529 46.291ZM76.8369 35.5885C77.0261 40.5057 76.5507 43.9689 75.5304 46.2878L75.9881 46.4891C77.0539 44.0669 77.5267 40.5135 77.3366 35.5693L76.8369 35.5885ZM70.9305 47.7673C71.9905 47.4539 72.8099 46.6222 73.4083 45.2461L72.9498 45.0467C72.3884 46.3375 71.6616 47.0297 70.7887 47.2878L70.9305 47.7673ZM66.8105 47.2858C68.3763 47.8645 69.788 48.0744 70.9245 47.769L70.7947 47.2861C69.805 47.5521 68.5107 47.3811 66.9838 46.8168L66.8105 47.2858ZM55.5157 39.3283C59.3882 42.954 63.3783 45.9328 66.8055 47.2839L66.9889 46.8187C63.651 45.5029 59.7164 42.5764 55.8574 38.9633L55.5157 39.3283ZM39.0638 33.9668C45.5072 33.9668 51.905 35.7699 55.5111 39.3239L55.862 38.9678C52.1232 35.283 45.5707 33.4668 39.0638 33.4668V33.9668ZM22.5127 39.1403C26.2181 35.7693 32.622 33.9668 39.0638 33.9668V33.4668C32.5555 33.4668 26.0091 35.2836 22.1763 38.7704L22.5127 39.1403ZM11.222 47.0947C14.5568 45.8381 18.5497 42.7602 22.5131 39.1399L22.1759 38.7707C18.2145 42.3892 14.2827 45.4071 11.0457 46.6269L11.222 47.0947ZM7.08713 47.5724C8.24264 47.9865 9.6733 47.6671 11.2205 47.0953L11.0472 46.6263C9.50182 47.1974 8.22646 47.4496 7.25581 47.1017L7.08713 47.5724ZM4.62276 45.0556C5.22117 46.4317 6.04059 47.2634 7.10059 47.5768L7.24235 47.0973C6.36948 46.8392 5.6426 46.147 5.08129 44.8562L4.62276 45.0556ZM3.63583 35.8012C3.44208 40.1931 3.82645 43.1917 4.62213 45.0541L5.08192 44.8577C4.3313 43.1007 3.94253 40.194 4.13535 35.8232L3.63583 35.8012ZM5.67343 22.6042C4.509 27.0033 3.82995 31.6879 3.63587 35.8004L4.13531 35.824C4.3278 31.7453 5.00176 27.0957 6.15678 22.7321L5.67343 22.6042ZM9.75741 11.7807C8.09856 14.6658 6.73876 18.4999 5.67312 22.6054L6.15709 22.731C7.2176 18.6452 8.56383 14.8596 10.1909 12.0299L9.75741 11.7807ZM28.8824 5.66277C25.2233 4.71377 21.7846 3.83754 18.5918 4.40856C15.37 4.98476 12.4397 7.02239 9.75635 11.7825L10.1919 12.0281C12.824 7.35881 15.6439 5.4437 18.6798 4.90075C21.7447 4.35262 25.0711 5.19083 28.7569 6.14676L28.8824 5.66277ZM38.3117 7.46534C34.9521 7.18154 31.8777 6.42459 28.8813 5.66248L28.758 6.14705C31.7534 6.90889 34.8642 7.67589 38.2697 7.96357L38.3117 7.46534ZM38.484 7.46445H38.2907V7.96445H38.484V7.46445ZM39.5471 7.46445H38.484V7.96445H39.5471V7.46445ZM39.7403 7.46445H39.5471V7.96445H39.7403V7.46445ZM49.2464 5.66248C46.2503 6.4245 43.176 7.18145 39.7199 7.46529L39.7608 7.96361C43.2631 7.67598 46.3739 6.90898 49.3697 6.14705L49.2464 5.66248ZM49.4403 5.61471L49.2482 5.66203L49.3679 6.1475L49.5599 6.10018L49.4403 5.61471ZM68.3713 11.7825C65.7112 7.06346 62.8081 5.0433 59.6188 4.45912C56.4585 3.88027 53.0563 4.72336 49.4403 5.61471L49.5599 6.10018C53.2047 5.20175 56.4946 4.3952 59.5287 4.95094C62.5337 5.50136 65.3269 7.40002 67.9358 12.0281L68.3713 11.7825ZM72.4549 22.6067C71.3887 18.4035 70.0287 14.6651 68.3703 11.7807L67.9368 12.0299C69.5643 14.8603 70.9103 18.5511 71.9703 22.7296L72.4549 22.6067ZM74.4918 35.8007C74.2976 31.5893 73.5211 27.0009 72.4555 22.6092L71.9696 22.7271C73.0302 27.0981 73.8 31.6534 73.9924 35.8237L74.4918 35.8007ZM73.4083 45.2461C74.3009 43.1934 74.6857 40.1949 74.4919 35.8012L73.9923 35.8232C74.1851 40.1922 73.7967 43.099 72.9498 45.0467L73.4083 45.2461ZM55.5626 17.8131C57.5335 17.8131 59.1313 16.2153 59.1313 14.2444H58.6313C58.6313 15.9392 57.2574 17.3131 55.5626 17.3131V17.8131ZM51.9939 14.2444C51.9939 16.2153 53.5916 17.8131 55.5626 17.8131V17.3131C53.8678 17.3131 52.4939 15.9392 52.4939 14.2444H51.9939ZM55.5626 10.6757C53.5916 10.6757 51.9939 12.2734 51.9939 14.2444H52.4939C52.4939 12.5496 53.8678 11.1757 55.5626 11.1757V10.6757ZM59.1313 14.2444C59.1313 12.2734 57.5335 10.6757 55.5626 10.6757V11.1757C57.2574 11.1757 58.6313 12.5496 58.6313 14.2444H59.1313ZM30.5076 16.9032C29.5356 16.0284 28.3473 15.3279 26.9447 15.2277L26.909 15.7264C28.1613 15.8159 29.2487 16.4428 30.1731 17.2748L30.5076 16.9032ZM32.2023 20.9766C32.2023 19.3889 31.5091 17.9041 30.5172 16.9122L30.1636 17.2658C31.0681 18.1702 31.7023 19.5301 31.7023 20.9766H32.2023ZM30.5172 25.041C31.6062 23.952 32.2023 22.5613 32.2023 20.9766H31.7023C31.7023 22.4262 31.1606 23.6905 30.1636 24.6875L30.5172 25.041ZM26.9447 26.7256C28.3309 26.6265 29.6258 26.0319 30.5262 25.0315L30.1546 24.697C29.3482 25.593 28.1778 26.1362 26.909 26.2268L26.9447 26.7256ZM25.5007 30.057C26.3755 29.085 27.076 27.8967 27.1762 26.494L26.6775 26.4584C26.588 27.7107 25.9611 28.7981 25.1291 29.7225L25.5007 30.057ZM21.4273 31.7517C23.015 31.7517 24.4998 31.0584 25.4917 30.0665L25.1381 29.7129C24.2337 30.6174 22.8738 31.2517 21.4273 31.2517V31.7517ZM17.3629 30.0665C18.4519 31.1555 19.8426 31.7517 21.4273 31.7517V31.2517C19.9777 31.2517 18.7134 30.71 17.7164 29.7129L17.3629 30.0665ZM15.6783 26.494C15.7773 27.8802 16.372 29.1752 17.3724 30.0755L17.7069 29.7039C16.8109 28.8975 16.2677 27.7271 16.1771 26.4584L15.6783 26.494ZM12.2426 25.041C13.2303 26.0287 14.4238 26.6265 15.9111 26.7256L15.9443 26.2267C14.5869 26.1363 13.5048 25.5962 12.5961 24.6875L12.2426 25.041ZM10.5574 20.9766C10.5574 22.5644 11.2506 24.0491 12.2426 25.041L12.5961 24.6875C11.6917 23.783 11.0574 22.4231 11.0574 20.9766H10.5574ZM12.2426 16.9122C11.1535 18.0013 10.5574 19.392 10.5574 20.9766H11.0574C11.0574 19.527 11.5991 18.2628 12.5961 17.2658L12.2426 16.9122ZM12.3374 16.8174L12.2426 16.9122L12.5961 17.2658L12.6909 17.1709L12.3374 16.8174ZM15.9099 15.2277C14.5176 15.3271 13.3289 15.9245 12.3469 16.8083L12.6814 17.18C13.5958 16.357 14.6829 15.8166 15.9455 15.7264L15.9099 15.2277ZM17.3629 11.8867C16.474 12.7756 15.7781 14.0625 15.6783 15.4592L16.1771 15.4949C16.2669 14.2366 16.8985 13.0582 17.7164 12.2403L17.3629 11.8867ZM21.4273 10.2016C19.8395 10.2016 18.3548 10.8948 17.3629 11.8867L17.7164 12.2403C18.6209 11.3358 19.9808 10.7016 21.4273 10.7016V10.2016ZM25.4917 11.8867C24.4026 10.7977 23.0119 10.2016 21.4273 10.2016V10.7016C22.8769 10.7016 24.1411 11.2433 25.1381 12.2403L25.4917 11.8867ZM25.5865 11.9816L25.4917 11.8867L25.1381 12.2403L25.233 12.3351L25.5865 11.9816ZM27.1761 15.4579C27.0767 14.1662 26.4824 12.8775 25.5865 11.9816L25.2329 12.3351C26.0438 13.146 26.5873 14.3226 26.6776 15.4962L27.1761 15.4579ZM27.7931 22.2221C27.4638 22.5515 27.0546 22.7178 26.5476 22.7178V23.2178C27.1783 23.2178 27.7174 23.0049 28.1466 22.5757L27.7931 22.2221ZM28.2888 20.9766C28.2888 21.4837 28.1224 21.8928 27.7931 22.2221L28.1466 22.5757C28.5759 22.1465 28.7888 21.6074 28.7888 20.9766H28.2888ZM27.7931 19.7311C28.1224 20.0604 28.2888 20.4695 28.2888 20.9766H28.7888C28.7888 20.3459 28.5759 19.8068 28.1466 19.3775L27.7931 19.7311ZM26.5476 19.2354C27.0546 19.2354 27.4638 19.4018 27.7931 19.7311L28.1466 19.3775C27.7174 18.9483 27.1783 18.7354 26.5476 18.7354V19.2354ZM25.2201 19.2354H26.5476V18.7354H25.2201V19.2354ZM23.1685 17.1838C23.1685 18.2614 24.0305 19.2354 25.2201 19.2354V18.7354C24.3236 18.7354 23.6685 18.0026 23.6685 17.1838H23.1685ZM23.1685 15.8563V17.1838H23.6685V15.8563H23.1685ZM22.7444 14.6788C23.0033 15.024 23.1685 15.4468 23.1685 15.8563H23.6685C23.6685 15.3177 23.4544 14.7922 23.1444 14.3788L22.7444 14.6788ZM22.6728 14.6108L22.7676 14.7056L23.1212 14.3521L23.0264 14.2572L22.6728 14.6108ZM21.4273 14.1151C21.9344 14.1151 22.3435 14.2815 22.6728 14.6108L23.0264 14.2572C22.5971 13.828 22.058 13.6151 21.4273 13.6151V14.1151ZM20.1817 14.6108C20.5111 14.2815 20.9202 14.1151 21.4273 14.1151V13.6151C20.7965 13.6151 20.2574 13.828 19.8282 14.2572L20.1817 14.6108ZM19.686 15.8563C19.686 15.3492 19.8524 14.9401 20.1817 14.6108L19.8282 14.2572C19.399 14.6865 19.186 15.2256 19.186 15.8563H19.686ZM19.686 17.1838V15.8563H19.186V17.1838H19.686ZM17.6345 19.2354C18.7121 19.2354 19.686 18.3734 19.686 17.1838H19.186C19.186 18.0803 18.4532 18.7354 17.6345 18.7354V19.2354ZM16.307 19.2354H17.6345V18.7354H16.307V19.2354ZM15.1295 19.6595C15.4747 19.4006 15.8974 19.2354 16.307 19.2354V18.7354C15.7683 18.7354 15.2429 18.9495 14.8295 19.2595L15.1295 19.6595ZM15.0615 19.7311L15.1563 19.6363L14.8027 19.2827L14.7079 19.3775L15.0615 19.7311ZM14.5658 20.9766C14.5658 20.4695 14.7321 20.0604 15.0615 19.7311L14.7079 19.3775C14.2787 19.8068 14.0658 20.3459 14.0658 20.9766H14.5658ZM15.0615 22.1273C14.8104 21.8763 14.5658 21.4624 14.5658 20.9766H14.0658C14.0658 21.6287 14.39 22.163 14.7079 22.4809L15.0615 22.1273ZM16.307 22.623C15.7999 22.623 15.3908 22.4567 15.0615 22.1273L14.7079 22.4809C15.1371 22.9101 15.6762 23.123 16.307 23.123V22.623ZM17.6345 22.623H16.307V23.123H17.6345V22.623ZM19.686 24.6746C19.686 23.597 18.824 22.623 17.6345 22.623V23.123C18.5309 23.123 19.186 23.8558 19.186 24.6746H19.686ZM19.686 26.0021V24.6746H19.186V26.0021H19.686ZM20.1817 27.2476C19.8524 26.9183 19.686 26.5092 19.686 26.0021H19.186C19.186 26.6329 19.399 27.1719 19.8282 27.6012L20.1817 27.2476ZM21.4273 27.7433C20.9202 27.7433 20.5111 27.577 20.1817 27.2476L19.8282 27.6012C20.2574 28.0304 20.7965 28.2433 21.4273 28.2433V27.7433ZM22.6728 27.2476C22.3435 27.577 21.9344 27.7433 21.4273 27.7433V28.2433C22.058 28.2433 22.5971 28.0304 23.0264 27.6012L22.6728 27.2476ZM23.1685 26.0021C23.1685 26.5092 23.0021 26.9183 22.6728 27.2476L23.0264 27.6012C23.4556 27.1719 23.6685 26.6329 23.6685 26.0021H23.1685ZM23.1685 24.7694V26.0021H23.6685V24.7694H23.1685ZM25.2201 22.7178C24.1425 22.7178 23.1685 23.5798 23.1685 24.7694H23.6685C23.6685 23.873 24.4013 23.2178 25.2201 23.2178V22.7178ZM26.5476 22.7178H25.2201V23.2178H26.5476V22.7178ZM55.5626 31.2776C57.5335 31.2776 59.1313 29.6798 59.1313 27.7089H58.6313C58.6313 29.4037 57.2574 30.7776 55.5626 30.7776V31.2776ZM51.9939 27.7089C51.9939 29.6798 53.5916 31.2776 55.5626 31.2776V30.7776C53.8678 30.7776 52.4939 29.4037 52.4939 27.7089H51.9939ZM55.5626 24.1401C53.5916 24.1401 51.9939 25.7379 51.9939 27.7089H52.4939C52.4939 26.0141 53.8678 24.6401 55.5626 24.6401V24.1401ZM59.1313 27.7089C59.1313 25.7379 57.5335 24.1401 55.5626 24.1401V24.6401C57.2574 24.6401 58.6313 26.0141 58.6313 27.7089H59.1313ZM51.899 20.9766C51.899 22.6714 50.5251 24.0453 48.8303 24.0453V24.5453C50.8013 24.5453 52.399 22.9476 52.399 20.9766H51.899ZM48.8303 17.9079C50.5251 17.9079 51.899 19.2818 51.899 20.9766H52.399C52.399 19.0057 50.8013 17.4079 48.8303 17.4079V17.9079ZM45.7616 20.9766C45.7616 19.2818 47.1355 17.9079 48.8303 17.9079V17.4079C46.8594 17.4079 45.2616 19.0057 45.2616 20.9766H45.7616ZM48.8303 24.0453C47.1355 24.0453 45.7616 22.6714 45.7616 20.9766H45.2616C45.2616 22.9476 46.8594 24.5453 48.8303 24.5453V24.0453ZM62.2948 24.5453C64.2657 24.5453 65.8635 22.9476 65.8635 20.9766H65.3635C65.3635 22.6714 63.9896 24.0453 62.2948 24.0453V24.5453ZM58.7261 20.9766C58.7261 22.9476 60.3239 24.5453 62.2948 24.5453V24.0453C60.6 24.0453 59.2261 22.6714 59.2261 20.9766H58.7261ZM62.2948 17.4079C60.3239 17.4079 58.7261 19.0057 58.7261 20.9766H59.2261C59.2261 19.2818 60.6 17.9079 62.2948 17.9079V17.4079ZM65.8635 20.9766C65.8635 19.0057 64.2657 17.4079 62.2948 17.4079V17.9079C63.9896 17.9079 65.3635 19.2818 65.3635 20.9766H65.8635Z" fill="url(#paint1_linear)"/>
<defs>
<linearGradient id="paint0_linear" x1="1" y1="1" x2="1" y2="51" gradientUnits="userSpaceOnUse">
<stop stop-color="#F39200"/>
<stop offset="1" stop-color="#E94E1B"/>
</linearGradient>
<linearGradient id="paint1_linear" x1="1.03717" y1="1" x2="1.03717" y2="50.9512" gradientUnits="userSpaceOnUse">
<stop stop-color="#F29810"/>
<stop offset="0.999023" stop-color="#E94F1B"/>
</linearGradient>
</defs>
</svg>
