<svg width="58" height="72" viewBox="0 0 58 72" fill="none" xmlns="http://www.w3.org/2000/svg">
<path d="M39.5361 33.666L46.5361 40.666L39.5361 33.666Z" fill="#FFC7CC"/>
<path fill-rule="evenodd" clip-rule="evenodd" d="M50.1392 19.7863L56.4955 38.8551C56.8731 39.9904 56.9542 41.2033 56.7309 42.3786L52.6126 64H53.5361C54.1804 64 54.7028 64.5223 54.7028 65.1667V71H52.3695V66.3333H27.8695V71H25.5361V65.1667C25.5362 64.5223 26.0585 64 26.7028 64H29.6463L23.5796 48.8333H10.3695C9.72515 48.8333 9.20283 48.311 9.2028 47.6667V8H2.2028C1.55848 7.99997 1.03616 7.47765 1.03613 6.83333V1H3.36947V5.66667H50.0361V1H52.3695V6.83333C52.3694 7.47765 51.8471 7.99997 51.2028 8H44.2028V15.0365C46.945 15.311 49.2699 17.1711 50.1392 19.7863ZM26.7028 16.1667C31.4059 16.1667 35.3739 12.6664 35.9606 8H17.445C18.0317 12.6664 21.9997 16.1667 26.7028 16.1667ZM15.0946 8C15.6938 13.9615 20.7113 18.5 26.7028 18.5C32.6943 18.5 37.7118 13.9615 38.311 8H41.8695V34.3501L39.4776 31.9581C37.0889 29.5699 33.2165 29.57 30.828 31.9585C28.4395 34.347 28.4393 38.2194 30.8276 40.6081L32.6233 42.4039C31.9759 43.6839 31.5707 45.0726 31.4281 46.5H21.9777C21.4152 40.983 17.0531 36.621 11.5361 36.0585V8H15.0946ZM33.7768 46.5H36.7195L34.3837 44.1642C34.0809 44.9132 33.8769 45.6984 33.7768 46.5ZM11.5361 38.4088C15.7615 38.9476 19.0885 42.2746 19.6273 46.5H11.5361V38.4088ZM50.2374 64L54.4389 41.942C54.5876 41.1585 54.5336 40.3499 54.2818 39.5931L47.9255 20.5243C47.3732 18.8617 45.9349 17.6493 44.2028 17.3863V36.6833L47.3611 39.8417L45.7111 41.4917L42.2111 37.9917L37.8276 33.6081C36.8719 32.6525 35.479 32.2792 34.1735 32.629C32.868 32.9788 31.8483 33.9985 31.4985 35.304C31.1487 36.6095 31.5219 38.0024 32.4776 38.9581L40.3611 46.8417C40.8167 47.2973 40.8167 48.036 40.3611 48.4917C37.6103 51.2325 36.6239 55.2819 37.8061 58.9807L35.5818 59.686C34.4132 56.0275 34.966 52.0364 37.0852 48.8333H26.0926L32.1593 64H50.2374Z" fill="white"/>
<path d="M56.4955 38.8551L56.8276 38.7447L56.8276 38.7445L56.4955 38.8551ZM50.1392 19.7863L49.8071 19.8967L49.8072 19.897L50.1392 19.7863ZM56.7309 42.3786L57.0748 42.4441L57.0748 42.444L56.7309 42.3786ZM52.6126 64L52.2688 63.9345L52.1897 64.35H52.6126V64ZM53.5361 64L53.5361 63.65H53.5361V64ZM54.7028 65.1667H55.0528V65.1666L54.7028 65.1667ZM54.7028 71V71.35H55.0528V71H54.7028ZM52.3695 71H52.0195V71.35H52.3695V71ZM52.3695 66.3333H52.7195V65.9833H52.3695V66.3333ZM27.8695 66.3333V65.9833H27.5195V66.3333H27.8695ZM27.8695 71V71.35H28.2195V71H27.8695ZM25.5361 71H25.1861V71.35H25.5361V71ZM25.5361 65.1667L25.1861 65.1666V65.1667H25.5361ZM26.7028 64V63.65H26.7028L26.7028 64ZM29.6463 64V64.35H30.1633L29.9713 63.87L29.6463 64ZM23.5796 48.8333L23.9046 48.7033L23.8166 48.4833H23.5796V48.8333ZM10.3695 48.8333L10.3694 49.1833H10.3695V48.8333ZM9.2028 47.6667H8.8528V47.6667L9.2028 47.6667ZM9.2028 8H9.5528V7.65H9.2028V8ZM2.2028 8L2.20278 8.35H2.2028V8ZM1.03613 6.83333H0.686133V6.83335L1.03613 6.83333ZM1.03613 1V0.65H0.686133V1H1.03613ZM3.36947 1H3.71947V0.65H3.36947V1ZM3.36947 5.66667H3.01947V6.01667H3.36947V5.66667ZM50.0361 5.66667V6.01667H50.3861V5.66667H50.0361ZM50.0361 1V0.65H49.6861V1H50.0361ZM52.3695 1H52.7195V0.65H52.3695V1ZM52.3695 6.83333L52.7195 6.83335V6.83333H52.3695ZM51.2028 8V8.35H51.2028L51.2028 8ZM44.2028 8V7.65H43.8528V8H44.2028ZM44.2028 15.0365H43.8528V15.3532L44.1679 15.3848L44.2028 15.0365ZM35.9606 8L36.3079 8.04366L36.3574 7.65H35.9606V8ZM17.445 8V7.65H17.0482L17.0977 8.04366L17.445 8ZM15.0946 8L15.4428 7.965L15.4112 7.65H15.0946V8ZM38.311 8V7.65H37.9944L37.9628 7.965L38.311 8ZM41.8695 8H42.2195V7.65H41.8695V8ZM41.8695 34.3501L41.622 34.5976L42.2195 35.1951V34.3501H41.8695ZM39.4776 31.9581L39.7251 31.7106L39.7251 31.7106L39.4776 31.9581ZM30.828 31.9585L31.0755 32.206L30.828 31.9585ZM30.8276 40.6081L30.5801 40.8556L30.5801 40.8556L30.8276 40.6081ZM32.6233 42.4039L32.9356 42.5618L33.0501 42.3356L32.8708 42.1564L32.6233 42.4039ZM31.4281 46.5V46.85H31.7449L31.7764 46.5348L31.4281 46.5ZM21.9777 46.5L21.6295 46.5355L21.6615 46.85H21.9777V46.5ZM11.5361 36.0585H11.1861V36.3746L11.5006 36.4067L11.5361 36.0585ZM11.5361 8V7.65H11.1861V8H11.5361ZM36.7195 46.5V46.85H37.5645L36.967 46.2525L36.7195 46.5ZM33.7768 46.5L33.4295 46.4566L33.3803 46.85H33.7768V46.5ZM34.3837 44.1642L34.6312 43.9167L34.2573 43.5428L34.0592 44.033L34.3837 44.1642ZM19.6273 46.5V46.85H20.0247L19.9745 46.4557L19.6273 46.5ZM11.5361 38.4088L11.5804 38.0617L11.1861 38.0114V38.4088H11.5361ZM11.5361 46.5H11.1861V46.85H11.5361V46.5ZM54.4389 41.942L54.7827 42.0075L54.7828 42.0073L54.4389 41.942ZM50.2374 64V64.35H50.5271L50.5813 64.0655L50.2374 64ZM54.2818 39.5931L54.6139 39.4827L54.6139 39.4825L54.2818 39.5931ZM47.9255 20.5243L47.5934 20.6346L47.5935 20.635L47.9255 20.5243ZM44.2028 17.3863L44.2554 17.0403L43.8528 16.9792V17.3863H44.2028ZM44.2028 36.6833H43.8528V36.8283L43.9553 36.9308L44.2028 36.6833ZM47.3611 39.8417L47.6086 40.0891L47.8561 39.8417L47.6086 39.5942L47.3611 39.8417ZM45.7111 41.4917L45.4636 41.7392L45.7111 41.9867L45.9586 41.7392L45.7111 41.4917ZM42.2111 37.9917L41.9636 38.2392L42.2111 37.9917ZM37.8276 33.6081L38.0751 33.3607L37.8276 33.6081ZM34.1735 32.629L34.0829 32.291L34.1735 32.629ZM32.4776 38.9581L32.7251 38.7106L32.4776 38.9581ZM40.3611 46.8417L40.6087 46.5942L40.6086 46.5942L40.3611 46.8417ZM40.3611 48.4917L40.6082 48.7396L40.6087 48.7392L40.3611 48.4917ZM37.8061 58.9807L37.9119 59.3144L38.2463 59.2083L38.1395 58.8742L37.8061 58.9807ZM35.5818 59.686L35.2484 59.7925L35.3547 60.1251L35.6876 60.0196L35.5818 59.686ZM37.0852 48.8333L37.3771 49.0265L37.7364 48.4833H37.0852V48.8333ZM26.0926 48.8333V48.4833H25.5757L25.7677 48.9633L26.0926 48.8333ZM32.1593 64L31.8343 64.13L31.9223 64.35H32.1593V64ZM56.8276 38.7445L50.4713 19.6756L49.8072 19.897L56.1635 38.9658L56.8276 38.7445ZM57.0748 42.444C57.3092 41.21 57.2241 39.9365 56.8276 38.7447L56.1634 38.9656C56.5222 40.0442 56.5992 41.1966 56.3871 42.3133L57.0748 42.444ZM52.9565 64.0655L57.0748 42.4441L56.3871 42.3132L52.2688 63.9345L52.9565 64.0655ZM53.5361 63.65H52.6126V64.35H53.5361V63.65ZM55.0528 65.1666C55.0528 64.329 54.3737 63.65 53.5361 63.65L53.5361 64.35C53.9871 64.35 54.3528 64.7157 54.3528 65.1667L55.0528 65.1666ZM55.0528 71V65.1667H54.3528V71H55.0528ZM52.3695 71.35H54.7028V70.65H52.3695V71.35ZM52.0195 66.3333V71H52.7195V66.3333H52.0195ZM27.8695 66.6833H52.3695V65.9833H27.8695V66.6833ZM28.2195 71V66.3333H27.5195V71H28.2195ZM25.5361 71.35H27.8695V70.65H25.5361V71.35ZM25.1861 65.1667V71H25.8861V65.1667H25.1861ZM26.7028 63.65C25.8652 63.65 25.1862 64.329 25.1861 65.1666L25.8861 65.1667C25.8862 64.7156 26.2518 64.35 26.7028 64.35L26.7028 63.65ZM29.6463 63.65H26.7028V64.35H29.6463V63.65ZM23.2547 48.9633L29.3213 64.13L29.9713 63.87L23.9046 48.7033L23.2547 48.9633ZM10.3695 49.1833H23.5796V48.4833H10.3695V49.1833ZM8.8528 47.6667C8.85284 48.5043 9.53184 49.1833 10.3694 49.1833L10.3695 48.4833C9.91845 48.4833 9.55282 48.1177 9.5528 47.6667L8.8528 47.6667ZM8.8528 8V47.6667H9.5528V8H8.8528ZM2.2028 8.35H9.2028V7.65H2.2028V8.35ZM0.686133 6.83335C0.686174 7.67096 1.36518 8.34996 2.20278 8.35L2.20282 7.65C1.75178 7.64998 1.38615 7.28435 1.38613 6.83332L0.686133 6.83335ZM0.686133 1V6.83333H1.38613V1H0.686133ZM3.36947 0.65H1.03613V1.35H3.36947V0.65ZM3.71947 5.66667V1H3.01947V5.66667H3.71947ZM50.0361 5.31667H3.36947V6.01667H50.0361V5.31667ZM49.6861 1V5.66667H50.3861V1H49.6861ZM52.3695 0.65H50.0361V1.35H52.3695V0.65ZM52.7195 6.83333V1H52.0195V6.83333H52.7195ZM51.2028 8.35C52.0404 8.34996 52.7194 7.67096 52.7195 6.83335L52.0195 6.83332C52.0194 7.28435 51.6538 7.64998 51.2028 7.65L51.2028 8.35ZM44.2028 8.35H51.2028V7.65H44.2028V8.35ZM44.5528 15.0365V8H43.8528V15.0365H44.5528ZM50.4714 19.6759C49.5585 16.9298 47.1171 14.9765 44.2377 14.6883L44.1679 15.3848C46.7728 15.6455 48.9813 17.4125 49.8071 19.8967L50.4714 19.6759ZM35.6133 7.95634C35.0486 12.4477 31.2295 15.8167 26.7028 15.8167V16.5167C31.5823 16.5167 35.6992 12.8851 36.3079 8.04366L35.6133 7.95634ZM17.445 8.35H35.9606V7.65H17.445V8.35ZM26.7028 15.8167C22.1761 15.8167 18.357 12.4477 17.7922 7.95634L17.0977 8.04366C17.7064 12.8851 21.8233 16.5167 26.7028 16.5167V15.8167ZM26.7028 18.15C20.891 18.15 16.024 13.7477 15.4428 7.965L14.7463 8.035C15.3635 14.1754 20.5315 18.85 26.7028 18.85V18.15ZM37.9628 7.965C37.3816 13.7477 32.5146 18.15 26.7028 18.15V18.85C32.8741 18.85 38.0421 14.1754 38.6592 8.035L37.9628 7.965ZM41.8695 7.65H38.311V8.35H41.8695V7.65ZM42.2195 34.3501V8H41.5195V34.3501H42.2195ZM39.2301 32.2056L41.622 34.5976L42.117 34.1026L39.7251 31.7106L39.2301 32.2056ZM31.0755 32.206C33.3273 29.9542 36.9781 29.954 39.2301 32.2056L39.7251 31.7106C37.1997 29.1857 33.1056 29.1859 30.5805 31.711L31.0755 32.206ZM31.0751 40.3607C28.8235 38.1087 28.8237 34.4578 31.0755 32.206L30.5805 31.711C28.0553 34.2362 28.0551 38.3302 30.5801 40.8556L31.0751 40.3607ZM32.8708 42.1564L31.0751 40.3606L30.5801 40.8556L32.3758 42.6513L32.8708 42.1564ZM31.7764 46.5348C31.9147 45.1503 32.3077 43.8034 32.9356 42.5618L32.311 42.2459C31.6441 43.5644 31.2267 44.9949 31.0799 46.4652L31.7764 46.5348ZM21.9777 46.85H31.4281V46.15H21.9777V46.85ZM11.5006 36.4067C16.8524 36.9523 21.0838 41.1838 21.6295 46.5355L22.3259 46.4645C21.7465 40.7823 17.2538 36.2896 11.5716 35.7103L11.5006 36.4067ZM11.1861 8V36.0585H11.8861V8H11.1861ZM15.0946 7.65H11.5361V8.35H15.0946V7.65ZM36.7195 46.15H33.7768V46.85H36.7195V46.15ZM34.1362 44.4117L36.4721 46.7475L36.967 46.2525L34.6312 43.9167L34.1362 44.4117ZM34.1241 46.5434C34.2204 45.7719 34.4168 45.0162 34.7082 44.2953L34.0592 44.033C33.7451 44.8102 33.5334 45.6249 33.4295 46.4566L34.1241 46.5434ZM19.9745 46.4557C19.4155 42.0721 15.964 38.6206 11.5804 38.0617L11.4919 38.756C15.5591 39.2746 18.7615 42.4771 19.2801 46.5443L19.9745 46.4557ZM11.5361 46.85H19.6273V46.15H11.5361V46.85ZM11.1861 38.4088V46.5H11.8861V38.4088H11.1861ZM54.0951 41.8765L49.8936 63.9345L50.5813 64.0655L54.7827 42.0075L54.0951 41.8765ZM53.9497 39.7036C54.1826 40.4038 54.2327 41.1518 54.095 41.8767L54.7828 42.0073C54.9426 41.1651 54.8845 40.296 54.6139 39.4827L53.9497 39.7036ZM47.5935 20.635L53.9498 39.7038L54.6139 39.4825L48.2576 20.4136L47.5935 20.635ZM44.1503 17.7323C45.7523 17.9756 47.0825 19.0969 47.5934 20.6346L48.2577 20.4139C47.6638 18.6264 46.1176 17.3231 44.2554 17.0403L44.1503 17.7323ZM44.5528 36.6833V17.3863H43.8528V36.6833H44.5528ZM47.6086 39.5942L44.4503 36.4358L43.9553 36.9308L47.1137 40.0891L47.6086 39.5942ZM45.9586 41.7392L47.6086 40.0891L47.1137 39.5942L45.4636 41.2442L45.9586 41.7392ZM41.9636 38.2392L45.4636 41.7392L45.9586 41.2442L42.4586 37.7442L41.9636 38.2392ZM37.5801 33.8556L41.9636 38.2392L42.4586 37.7442L38.0751 33.3607L37.5801 33.8556ZM34.2641 32.9671C35.4488 32.6497 36.7128 32.9884 37.5801 33.8556L38.0751 33.3607C37.031 32.3166 35.5092 31.9088 34.0829 32.291L34.2641 32.9671ZM31.8366 35.3946C32.154 34.2099 33.0794 33.2845 34.2641 32.9671L34.0829 32.291C32.6566 32.6731 31.5426 33.7872 31.1604 35.2134L31.8366 35.3946ZM32.7251 38.7106C31.8578 37.8434 31.5191 36.5793 31.8366 35.3946L31.1604 35.2134C30.7782 36.6397 31.186 38.1615 32.2301 39.2056L32.7251 38.7106ZM40.6086 46.5942L32.7251 38.7106L32.2301 39.2056L40.1137 47.0891L40.6086 46.5942ZM40.6087 48.7392C41.2009 48.1468 41.2009 47.1865 40.6087 46.5942L40.1136 47.0891C40.4326 47.4081 40.4326 47.9252 40.1136 48.2442L40.6087 48.7392ZM38.1395 58.8742C36.9972 55.3003 37.9503 51.3878 40.6082 48.7396L40.1141 48.2437C37.2703 51.0772 36.2505 55.2634 37.4727 59.0873L38.1395 58.8742ZM35.6876 60.0196L37.9119 59.3144L37.7003 58.6471L35.476 59.3523L35.6876 60.0196ZM36.7933 48.6402C34.6156 51.9317 34.0475 56.033 35.2484 59.7925L35.9152 59.5795C34.7788 56.022 35.3164 52.1411 37.3771 49.0265L36.7933 48.6402ZM26.0926 49.1833H37.0852V48.4833H26.0926V49.1833ZM32.4843 63.87L26.4176 48.7034L25.7677 48.9633L31.8343 64.13L32.4843 63.87ZM50.2374 63.65H32.1593V64.35H50.2374V63.65Z" fill="white"/>
</svg>
