<svg width="80" height="72" viewBox="0 0 80 72" fill="none" xmlns="http://www.w3.org/2000/svg">
<path fill-rule="evenodd" clip-rule="evenodd" d="M78.7479 22.6741L71.4256 8.24439V2.52174C71.4256 1.68143 70.7445 1 69.9039 1H10.0084C9.16809 1 8.48665 1.68143 8.48665 2.52174V8.24515L1.16465 22.6741C1.05646 22.8875 1 23.1235 1 23.3627V27.1063C1 31.5547 4.24191 35.258 8.48665 35.9837V67.9562H6.92946C6.089 67.9562 5.40772 68.6377 5.40772 69.478C5.40772 70.3183 6.089 70.9997 6.92946 70.9997H9.99667L10.0024 71L10.0057 71.0002L10.0084 71.0003H51.6432H63.8172H69.9042H72.9831C73.8234 71.0003 74.5049 70.3189 74.5049 69.4786C74.5049 68.6383 73.8234 67.9568 72.9831 67.9568H71.4259V35.9837C75.6708 35.258 78.9127 31.5548 78.9127 27.1063V23.3627C78.9127 23.1235 78.8563 22.8875 78.7479 22.6741ZM11.5301 4.04348H68.3821V7.08741H57.9252H45.9459H33.967H21.9875H11.5301V4.04348ZM54.9303 33.0713C58.2195 33.0713 60.8955 30.3954 60.8955 27.1063V23.5892L56.7979 10.1309H47.63L48.9572 23.209C48.9623 23.2602 48.9649 23.3114 48.9649 23.3627V27.1063C48.9649 30.3954 51.641 33.0713 54.9303 33.0713ZM45.9213 27.1063C45.9213 30.3954 43.2455 33.0713 39.9565 33.0713C36.6673 33.0713 33.9912 30.3954 33.9912 27.1063V23.4397L35.3422 10.1309H44.5709L45.9214 23.4397V27.1063H45.9213ZM30.9477 27.1063V23.3627C30.9477 23.3114 30.9503 23.2602 30.9556 23.2092L32.2832 10.131H23.1153L19.0175 23.5893V27.1063C19.0175 30.3954 21.6934 33.0713 24.9826 33.0713C28.2718 33.0713 30.9477 30.3954 30.9477 27.1063ZM4.04348 27.1063V23.7267L10.9427 10.1309H19.9336L16.04 22.9194C15.9963 23.0631 15.9739 23.2125 15.9739 23.3627V27.1063C15.9739 30.3954 13.2978 33.0713 10.0084 33.0713C6.7193 33.0713 4.04348 30.3954 4.04348 27.1063ZM17.4957 32.1101C16.1469 34.1214 14.0097 35.5599 11.5301 35.9837V67.9568H50.1214V64.913H16.0955C15.2549 64.913 14.5738 64.2318 14.5738 63.3913V42.0873C14.5738 41.247 15.2549 40.5655 16.0955 40.5655H51.6429H63.8169C64.6574 40.5655 65.3387 41.247 65.3387 42.0873V67.9568H68.3821V35.9837C65.9028 35.5599 63.7655 34.1214 62.4169 32.1101C60.799 34.5228 58.0471 36.1147 54.93 36.1147C51.8128 36.1147 49.0609 34.523 47.4429 32.1101C45.8251 34.523 43.0732 36.1147 39.9564 36.1147C36.8392 36.1147 34.0873 34.5228 32.4693 32.1101C30.8512 34.5228 28.0996 36.1147 24.9825 36.1147C21.8653 36.1147 19.1136 34.5228 17.4957 32.1101ZM17.6172 58.4507L32.4589 43.609H37.7607L34.8671 46.5021C34.2728 47.0962 34.2728 48.0598 34.8669 48.6542C35.1641 48.9514 35.5535 49.1 35.9431 49.1C36.3325 49.1 36.7218 48.9514 37.019 48.6543L42.0649 43.609H50.1213V61.8696H17.6172V58.4507ZM17.6172 43.609V54.1464L28.1547 43.609H17.6172ZM53.1649 67.9568V63.3913V57.3043V54.2609V43.609H62.2955V67.9568H53.1649ZM69.9042 33.0713C73.1933 33.0713 75.8693 30.3954 75.8693 27.1063V23.7267L68.97 10.1309H59.9793L63.8729 22.9194C63.9168 23.0631 63.939 23.2125 63.939 23.3627V27.1063C63.939 30.3954 66.615 33.0713 69.9042 33.0713Z" fill="white"/>
<path d="M71.4256 8.24439H71.2256V8.29223L71.2473 8.3349L71.4256 8.24439ZM78.7479 22.6741L78.5696 22.7646L78.5696 22.7647L78.7479 22.6741ZM8.48665 8.24515L8.665 8.33566L8.68665 8.29299V8.24515H8.48665ZM1.16465 22.6741L0.986301 22.5836L0.986278 22.5837L1.16465 22.6741ZM8.48665 35.9837H8.68665V35.815L8.52036 35.7866L8.48665 35.9837ZM8.48665 67.9562V68.1562H8.68665V67.9562H8.48665ZM9.99667 70.9997L10.0073 70.7997H9.99667V70.9997ZM10.0024 71L10.0163 70.8005L10.013 70.8003L10.0024 71ZM10.0057 71.0002L9.99184 71.1999L10 71.2001L10.0057 71.0002ZM10.0084 71.0003L10.0027 71.2003H10.0084V71.0003ZM71.4259 67.9568H71.2259V68.1568H71.4259V67.9568ZM71.4259 35.9837L71.3922 35.7866L71.2259 35.815V35.9837H71.4259ZM68.3821 4.04348H68.5821V3.84348H68.3821V4.04348ZM11.5301 4.04348V3.84348H11.3301V4.04348H11.5301ZM68.3821 7.08741V7.28741H68.5821V7.08741H68.3821ZM11.5301 7.08741H11.3301V7.28741H11.5301V7.08741ZM60.8955 23.5892H61.0955V23.5594L61.0868 23.5309L60.8955 23.5892ZM56.7979 10.1309L56.9892 10.0726L56.9461 9.93089H56.7979V10.1309ZM47.63 10.1309V9.93089H47.4087L47.4311 10.1511L47.63 10.1309ZM48.9572 23.209L49.1561 23.1889L49.1561 23.1888L48.9572 23.209ZM45.9213 27.1063V26.9063H45.7213V27.1063H45.9213ZM33.9912 23.4397L33.7922 23.4195L33.7912 23.4296V23.4397H33.9912ZM35.3422 10.1309V9.93089H35.1614L35.1432 10.1107L35.3422 10.1309ZM44.5709 10.1309L44.7699 10.1107L44.7516 9.93089H44.5709V10.1309ZM45.9214 23.4397H46.1214V23.4296L46.1204 23.4195L45.9214 23.4397ZM45.9214 27.1063V27.3063H46.1214V27.1063H45.9214ZM30.9556 23.2092L31.1545 23.23L31.1546 23.2294L30.9556 23.2092ZM32.2832 10.131L32.4821 10.1512L32.5045 9.93104H32.2832V10.131ZM23.1153 10.131V9.93104H22.9671L22.924 10.0728L23.1153 10.131ZM19.0175 23.5893L18.8262 23.531L18.8175 23.5595V23.5893H19.0175ZM4.04348 23.7267L3.86513 23.6362L3.84348 23.6789V23.7267H4.04348ZM10.9427 10.1309V9.93089H10.82L10.7644 10.0404L10.9427 10.1309ZM19.9336 10.1309L20.125 10.1891L20.2036 9.93089H19.9336V10.1309ZM16.04 22.9194L15.8486 22.8612L15.8486 22.8613L16.04 22.9194ZM11.5301 35.9837L11.4964 35.7866L11.3301 35.815V35.9837H11.5301ZM17.4957 32.1101L17.6618 31.9987L17.4957 31.751L17.3295 31.9987L17.4957 32.1101ZM11.5301 67.9568H11.3301V68.1568H11.5301V67.9568ZM50.1214 67.9568V68.1568H50.3214V67.9568H50.1214ZM50.1214 64.913H50.3214V64.713H50.1214V64.913ZM65.3387 67.9568H65.1387V68.1568H65.3387V67.9568ZM68.3821 67.9568V68.1568H68.5821V67.9568H68.3821ZM68.3821 35.9837H68.5821V35.815L68.4158 35.7866L68.3821 35.9837ZM62.4169 32.1101L62.583 31.9987L62.4169 31.751L62.2508 31.9987L62.4169 32.1101ZM47.4429 32.1101L47.609 31.9987L47.4429 31.751L47.2768 31.9988L47.4429 32.1101ZM32.4693 32.1101L32.6354 31.9987L32.4693 31.7511L32.3032 31.9987L32.4693 32.1101ZM32.4589 43.609V43.409H32.3761L32.3175 43.4676L32.4589 43.609ZM17.6172 58.4507L17.4758 58.3093L17.4172 58.3678V58.4507H17.6172ZM37.7607 43.609L37.9021 43.7504L38.2435 43.409H37.7607V43.609ZM34.8671 46.5021L35.0085 46.6436L35.0085 46.6436L34.8671 46.5021ZM34.8669 48.6542L34.7255 48.7956L34.7255 48.7956L34.8669 48.6542ZM37.019 48.6543L37.1603 48.7958L37.1604 48.7958L37.019 48.6543ZM42.0649 43.609V43.409H41.9821L41.9235 43.4676L42.0649 43.609ZM50.1213 43.609H50.3213V43.409H50.1213V43.609ZM50.1213 61.8696V62.0696H50.3213V61.8696H50.1213ZM17.6172 61.8696H17.4172V62.0696H17.6172V61.8696ZM17.6172 54.1464H17.4172V54.6293L17.7587 54.2879L17.6172 54.1464ZM17.6172 43.609V43.409H17.4172V43.609H17.6172ZM28.1547 43.609L28.2961 43.7504L28.6375 43.409H28.1547V43.609ZM53.1649 67.9568H52.9649V68.1568H53.1649V67.9568ZM53.1649 43.609V43.409H52.9649V43.609H53.1649ZM62.2955 43.609H62.4955V43.409H62.2955V43.609ZM62.2955 67.9568V68.1568H62.4955V67.9568H62.2955ZM75.8693 23.7267H76.0693V23.6789L76.0476 23.6362L75.8693 23.7267ZM68.97 10.1309L69.1484 10.0404L69.0928 9.93089H68.97V10.1309ZM59.9793 10.1309V9.93089H59.7093L59.7879 10.1891L59.9793 10.1309ZM63.8729 22.9194L63.6816 22.9777L63.6816 22.9778L63.8729 22.9194ZM71.2473 8.3349L78.5696 22.7646L78.9263 22.5836L71.604 8.15389L71.2473 8.3349ZM71.2256 2.52174V8.24439H71.6256V2.52174H71.2256ZM69.9039 1.2C70.634 1.2 71.2256 1.79187 71.2256 2.52174H71.6256C71.6256 1.571 70.855 0.8 69.9039 0.8V1.2ZM10.0084 1.2H69.9039V0.8H10.0084V1.2ZM8.68665 2.52174C8.68665 1.79189 9.27854 1.2 10.0084 1.2V0.8C9.05763 0.8 8.28665 1.57098 8.28665 2.52174H8.68665ZM8.68665 8.24515V2.52174H8.28665V8.24515H8.68665ZM1.343 22.7646L8.665 8.33566L8.3083 8.15465L0.986301 22.5836L1.343 22.7646ZM1.2 23.3627C1.2 23.1549 1.24904 22.9499 1.34303 22.7646L0.986278 22.5837C0.863873 22.825 0.8 23.092 0.8 23.3627H1.2ZM1.2 27.1063V23.3627H0.8V27.1063H1.2ZM8.52036 35.7866C4.36982 35.077 1.2 31.4554 1.2 27.1063H0.8C0.8 31.654 4.114 35.439 8.45295 36.1809L8.52036 35.7866ZM8.68665 67.9562V35.9837H8.28665V67.9562H8.68665ZM6.92946 68.1562H8.48665V67.7562H6.92946V68.1562ZM5.60772 69.478C5.60772 68.7481 6.19947 68.1562 6.92946 68.1562V67.7562C5.97853 67.7562 5.20772 68.5272 5.20772 69.478H5.60772ZM6.92946 70.7997C6.19947 70.7997 5.60772 70.2078 5.60772 69.478H5.20772C5.20772 70.4287 5.97853 71.1997 6.92946 71.1997V70.7997ZM9.99667 70.7997H6.92946V71.1997H9.99667V70.7997ZM10.013 70.8003L10.0073 70.8L9.98606 71.1994L9.99181 71.1997L10.013 70.8003ZM10.0196 70.8007L10.0163 70.8005L9.98856 71.1995L9.99185 71.1997L10.0196 70.8007ZM10.0141 70.8004L10.0114 70.8003L10 71.2001L10.0027 71.2002L10.0141 70.8004ZM51.6432 70.8003H10.0084V71.2003H51.6432V70.8003ZM63.8172 70.8003H51.6432V71.2003H63.8172V70.8003ZM69.9042 70.8003H63.8172V71.2003H69.9042V70.8003ZM72.9831 70.8003H69.9042V71.2003H72.9831V70.8003ZM74.3049 69.4786C74.3049 70.2084 73.713 70.8003 72.9831 70.8003V71.2003C73.9339 71.2003 74.7049 70.4293 74.7049 69.4786H74.3049ZM72.9831 68.1568C73.713 68.1568 74.3049 68.7487 74.3049 69.4786H74.7049C74.7049 68.5278 73.9339 67.7568 72.9831 67.7568V68.1568ZM71.4259 68.1568H72.9831V67.7568H71.4259V68.1568ZM71.2259 35.9837V67.9568H71.6259V35.9837H71.2259ZM78.7127 27.1063C78.7127 31.4555 75.5429 35.077 71.3922 35.7866L71.4596 36.1809C75.7987 35.439 79.1127 31.6542 79.1127 27.1063H78.7127ZM78.7127 23.3627V27.1063H79.1127V23.3627H78.7127ZM78.5696 22.7647C78.6637 22.95 78.7127 23.155 78.7127 23.3627H79.1127C79.1127 23.092 79.0489 22.825 78.9263 22.5836L78.5696 22.7647ZM68.3821 3.84348H11.5301V4.24348H68.3821V3.84348ZM68.5821 7.08741V4.04348H68.1822V7.08741H68.5821ZM57.9252 7.28741H68.3821V6.88741H57.9252V7.28741ZM45.9459 7.28741H57.9252V6.88741H45.9459V7.28741ZM33.967 7.28741H45.9459V6.88741H33.967V7.28741ZM21.9875 7.28741H33.967V6.88741H21.9875V7.28741ZM11.5301 7.28741H21.9875V6.88741H11.5301V7.28741ZM11.3301 4.04348V7.08741H11.7301V4.04348H11.3301ZM60.6955 27.1063C60.6955 30.285 58.1091 32.8713 54.9303 32.8713V33.2713C58.33 33.2713 61.0955 30.5059 61.0955 27.1063H60.6955ZM60.6955 23.5892V27.1063H61.0955V23.5892H60.6955ZM56.6066 10.1891L60.7042 23.6474L61.0868 23.5309L56.9892 10.0726L56.6066 10.1891ZM47.63 10.3309H56.7979V9.93089H47.63V10.3309ZM49.1561 23.1888L47.829 10.1107L47.4311 10.1511L48.7582 23.2292L49.1561 23.1888ZM49.1649 23.3627C49.1649 23.3047 49.162 23.2467 49.1561 23.1889L48.7582 23.2292C48.7627 23.2736 48.7649 23.3182 48.7649 23.3627H49.1649ZM49.1649 27.1063V23.3627H48.7649V27.1063H49.1649ZM54.9303 32.8713C51.7515 32.8713 49.1649 30.285 49.1649 27.1063H48.7649C48.7649 30.5059 51.5306 33.2713 54.9303 33.2713V32.8713ZM39.9565 33.2713C43.3559 33.2713 46.1213 30.5059 46.1213 27.1063H45.7213C45.7213 30.285 43.135 32.8713 39.9565 32.8713V33.2713ZM33.7912 27.1063C33.7912 30.5059 36.5568 33.2713 39.9565 33.2713V32.8713C36.7777 32.8713 34.1912 30.285 34.1912 27.1063H33.7912ZM33.7912 23.4397V27.1063H34.1912V23.4397H33.7912ZM35.1432 10.1107L33.7922 23.4195L34.1901 23.4599L35.5411 10.1511L35.1432 10.1107ZM44.5709 9.93089H35.3422V10.3309H44.5709V9.93089ZM46.1204 23.4195L44.7699 10.1107L44.3719 10.1511L45.7225 23.4599L46.1204 23.4195ZM46.1214 27.1063V23.4397H45.7214V27.1063H46.1214ZM45.9213 27.3063H45.9214V26.9063H45.9213V27.3063ZM30.7477 23.3627V27.1063H31.1477V23.3627H30.7477ZM30.7567 23.1884C30.7506 23.2465 30.7477 23.3047 30.7477 23.3627H31.1477C31.1477 23.3182 31.1499 23.2738 31.1545 23.23L30.7567 23.1884ZM32.0842 10.1108L30.7566 23.189L31.1546 23.2294L32.4821 10.1512L32.0842 10.1108ZM23.1153 10.331H32.2832V9.93104H23.1153V10.331ZM19.2089 23.6476L23.3066 10.1893L22.924 10.0728L18.8262 23.531L19.2089 23.6476ZM19.2175 27.1063V23.5893H18.8175V27.1063H19.2175ZM24.9826 32.8713C21.8038 32.8713 19.2175 30.285 19.2175 27.1063H18.8175C18.8175 30.5059 21.5829 33.2713 24.9826 33.2713V32.8713ZM30.7477 27.1063C30.7477 30.285 28.1614 32.8713 24.9826 32.8713V33.2713C28.3823 33.2713 31.1477 30.5059 31.1477 27.1063H30.7477ZM3.84348 23.7267V27.1063H4.24348V23.7267H3.84348ZM10.7644 10.0404L3.86513 23.6362L4.22183 23.8172L11.1211 10.2214L10.7644 10.0404ZM19.9336 9.93089H10.9427V10.3309H19.9336V9.93089ZM16.2313 22.9777L20.125 10.1891L19.7423 10.0726L15.8486 22.8612L16.2313 22.9777ZM16.1739 23.3627C16.1739 23.2324 16.1933 23.1025 16.2313 22.9776L15.8486 22.8613C15.7992 23.0236 15.7739 23.1927 15.7739 23.3627H16.1739ZM16.1739 27.1063V23.3627H15.7739V27.1063H16.1739ZM10.0084 33.2713C13.4082 33.2713 16.1739 30.5059 16.1739 27.1063H15.7739C15.7739 30.285 13.1873 32.8713 10.0084 32.8713V33.2713ZM3.84348 27.1063C3.84348 30.5059 6.60885 33.2713 10.0084 33.2713V32.8713C6.82976 32.8713 4.24348 30.285 4.24348 27.1063H3.84348ZM11.5638 36.1809C14.099 35.7475 16.2834 34.277 17.6618 32.2215L17.3295 31.9987C16.0104 33.9659 13.9203 35.3723 11.4964 35.7866L11.5638 36.1809ZM11.7301 67.9568V35.9837H11.3301V67.9568H11.7301ZM50.1214 67.7568H11.5301V68.1568H50.1214V67.7568ZM49.9214 64.913V67.9568H50.3214V64.913H49.9214ZM16.0955 65.113H50.1214V64.713H16.0955V65.113ZM14.3738 63.3913C14.3738 64.3422 15.1444 65.113 16.0955 65.113V64.713C15.3654 64.713 14.7738 64.1213 14.7738 63.3913H14.3738ZM14.3738 42.0873V63.3913H14.7738V42.0873H14.3738ZM16.0955 40.3655C15.1444 40.3655 14.3738 41.1365 14.3738 42.0873H14.7738C14.7738 41.3574 15.3654 40.7655 16.0955 40.7655V40.3655ZM51.6429 40.3655H16.0955V40.7655H51.6429V40.3655ZM63.8169 40.3655H51.6429V40.7655H63.8169V40.3655ZM65.5387 42.0873C65.5387 41.1365 64.7679 40.3655 63.8169 40.3655V40.7655C64.5469 40.7655 65.1387 41.3574 65.1387 42.0873H65.5387ZM65.5387 67.9568V42.0873H65.1387V67.9568H65.5387ZM68.3821 67.7568H65.3387V68.1568H68.3821V67.7568ZM68.1822 35.9837V67.9568H68.5821V35.9837H68.1822ZM62.2508 32.2215C63.629 34.277 65.8135 35.7475 68.3484 36.1809L68.4158 35.7866C65.9921 35.3723 63.902 33.9659 62.583 31.9987L62.2508 32.2215ZM54.93 36.3147C58.1168 36.3147 60.9297 34.687 62.583 32.2215L62.2508 31.9987C60.6683 34.3587 57.9774 35.9147 54.93 35.9147V36.3147ZM47.2768 32.2215C48.9302 34.6872 51.7431 36.3147 54.93 36.3147V35.9147C51.8826 35.9147 49.1916 34.3588 47.609 31.9987L47.2768 32.2215ZM39.9564 36.3147C43.1429 36.3147 45.9558 34.6872 47.609 32.2215L47.2768 31.9988C45.6944 34.3588 43.0035 35.9147 39.9564 35.9147V36.3147ZM32.3032 32.2215C33.9566 34.687 36.7695 36.3147 39.9564 36.3147V35.9147C36.909 35.9147 34.218 34.3587 32.6354 31.9987L32.3032 32.2215ZM24.9825 36.3147C28.1693 36.3147 30.9819 34.687 32.6354 32.2215L32.3032 31.9987C30.7205 34.3587 28.0299 35.9147 24.9825 35.9147V36.3147ZM17.3295 32.2215C18.9829 34.687 21.7956 36.3147 24.9825 36.3147V35.9147C21.9351 35.9147 19.2443 34.3587 17.6618 31.9987L17.3295 32.2215ZM32.3175 43.4676L17.4758 58.3093L17.7587 58.5921L32.6003 43.7504L32.3175 43.4676ZM37.7607 43.409H32.4589V43.809H37.7607V43.409ZM35.0085 46.6436L37.9021 43.7504L37.6192 43.4676L34.7257 46.3607L35.0085 46.6436ZM35.0084 48.5128C34.4923 47.9965 34.4924 47.1595 35.0085 46.6436L34.7257 46.3607C34.0533 47.0329 34.0533 48.1231 34.7255 48.7956L35.0084 48.5128ZM35.9431 48.9C35.6044 48.9 35.2665 48.771 35.0083 48.5128L34.7255 48.7956C35.0617 49.1318 35.5026 49.3 35.9431 49.3V48.9ZM36.8776 48.5129C36.6193 48.771 36.2816 48.9 35.9431 48.9V49.3C36.3834 49.3 36.8242 49.1318 37.1603 48.7958L36.8776 48.5129ZM41.9235 43.4676L36.8775 48.5129L37.1604 48.7958L42.2063 43.7504L41.9235 43.4676ZM50.1213 43.409H42.0649V43.809H50.1213V43.409ZM50.3213 61.8696V43.609H49.9213V61.8696H50.3213ZM17.6172 62.0696H50.1213V61.6696H17.6172V62.0696ZM17.4172 58.4507V61.8696H17.8172V58.4507H17.4172ZM17.8172 54.1464V43.609H17.4172V54.1464H17.8172ZM28.0133 43.4676L17.4758 54.005L17.7587 54.2879L28.2961 43.7504L28.0133 43.4676ZM17.6172 43.809H28.1547V43.409H17.6172V43.809ZM52.9649 63.3913V67.9568H53.3649V63.3913H52.9649ZM52.9649 57.3043V63.3913H53.3649V57.3043H52.9649ZM52.9649 54.2609V57.3043H53.3649V54.2609H52.9649ZM52.9649 43.609V54.2609H53.3649V43.609H52.9649ZM62.2955 43.409H53.1649V43.809H62.2955V43.409ZM62.4955 67.9568V43.609H62.0955V67.9568H62.4955ZM53.1649 68.1568H62.2955V67.7568H53.1649V68.1568ZM75.6693 27.1063C75.6693 30.285 73.0828 32.8713 69.9042 32.8713V33.2713C73.3037 33.2713 76.0693 30.5059 76.0693 27.1063H75.6693ZM75.6693 23.7267V27.1063H76.0693V23.7267H75.6693ZM68.7916 10.2214L75.6909 23.8172L76.0476 23.6362L69.1484 10.0404L68.7916 10.2214ZM59.9793 10.3309H68.97V9.93089H59.9793V10.3309ZM64.0643 22.8612L60.1706 10.0726L59.7879 10.1891L63.6816 22.9777L64.0643 22.8612ZM64.139 23.3627C64.139 23.1928 64.1138 23.0237 64.0642 22.8611L63.6816 22.9778C63.7197 23.1025 63.739 23.2322 63.739 23.3627H64.139ZM64.139 27.1063V23.3627H63.739V27.1063H64.139ZM69.9042 32.8713C66.7254 32.8713 64.139 30.285 64.139 27.1063H63.739C63.739 30.5059 66.5045 33.2713 69.9042 33.2713V32.8713Z" fill="white"/>
</svg>
