<svg width="78" height="98" viewBox="0 0 78 98" fill="none" xmlns="http://www.w3.org/2000/svg">
<path fill-rule="evenodd" clip-rule="evenodd" d="M74.8659 11.5433H65.3229V3.29058C65.317 2.91051 65.1286 2.55152 64.8065 2.30694C64.4845 2.06236 64.0607 1.95636 63.6453 2.01649L3.1852 11.5618C2.50559 11.6791 2.01059 12.2116 2 12.8366V95.2999C2.00045 96.014 2.64105 96.5928 3.4314 96.5932H74.8659C75.6564 96.5932 76.2973 96.0141 76.2973 95.2999V12.8366C76.2975 12.4936 76.1468 12.1645 75.8783 11.9219C75.6098 11.6793 75.2456 11.5431 74.8659 11.5433ZM62.4601 5.13217V12.5624H19.9392L62.4601 5.13217ZM4.86281 93.4875H73.4345V15.4252H4.86281V93.4875Z" fill="url(#paint0_linear)"/>
<path d="M65.3229 11.5433H64.0729V12.7933H65.3229V11.5433ZM74.8659 11.5433V12.7933H74.8665L74.8659 11.5433ZM65.3229 3.29058H66.5729V3.28093L66.5728 3.27129L65.3229 3.29058ZM64.8065 2.30694L65.5626 1.31148V1.31148L64.8065 2.30694ZM63.6453 2.01649L63.4662 0.779386L63.4583 0.780534L63.4504 0.781784L63.6453 2.01649ZM3.1852 11.5618L2.99027 10.3271L2.98141 10.3285L2.97257 10.33L3.1852 11.5618ZM2 12.8366L0.750179 12.8155L0.75 12.826V12.8366H2ZM2 95.2999H0.75L0.75 95.3007L2 95.2999ZM3.4314 96.5932L3.43077 97.8432H3.4314V96.5932ZM76.2973 12.8366L75.0473 12.8359V12.8366H76.2973ZM62.4601 12.5624V13.8124H63.7101V12.5624H62.4601ZM62.4601 5.13217H63.7101V3.6448L62.2449 3.90083L62.4601 5.13217ZM19.9392 12.5624L19.724 11.331L19.9392 13.8124V12.5624ZM73.4345 93.4875V94.7375H74.6845V93.4875H73.4345ZM4.86281 93.4875H3.61281V94.7375H4.86281V93.4875ZM73.4345 15.4252H74.6845V14.1752H73.4345V15.4252ZM4.86281 15.4252V14.1752H3.61281V15.4252H4.86281ZM65.3229 12.7933H74.8659V10.2933H65.3229V12.7933ZM64.0729 3.29058V11.5433H66.5729V3.29058H64.0729ZM64.0505 3.3024C64.0703 3.31742 64.0762 3.32838 64.0765 3.32894C64.0767 3.32935 64.0758 3.32774 64.0749 3.32403C64.0739 3.32024 64.0731 3.31535 64.0731 3.30987L66.5728 3.27129C66.5605 2.47978 66.1679 1.77118 65.5626 1.31148L64.0505 3.3024ZM63.8244 3.2536C63.9224 3.23941 64.0063 3.26884 64.0505 3.3024L65.5626 1.31148C64.9627 0.855883 64.199 0.673304 63.4662 0.779386L63.8244 3.2536ZM3.38014 12.7965L63.8402 3.2512L63.4504 0.781784L2.99027 10.3271L3.38014 12.7965ZM3.24982 12.8578C3.24948 12.8779 3.24011 12.8783 3.25719 12.8599C3.27569 12.84 3.32 12.807 3.39784 12.7936L2.97257 10.33C1.79 10.5342 0.772389 11.5045 0.750179 12.8155L3.24982 12.8578ZM3.25 95.2999V12.8366H0.75V95.2999H3.25ZM3.43204 95.3432C3.34206 95.3431 3.2838 95.3104 3.25749 95.2867C3.24491 95.2753 3.24291 95.2692 3.24464 95.2729C3.24704 95.278 3.24999 95.2881 3.25 95.2991L0.75 95.3007C0.750961 96.8207 2.07274 97.8425 3.43077 97.8432L3.43204 95.3432ZM74.8659 95.3432H3.4314V97.8432H74.8659V95.3432ZM75.0473 95.2999C75.0473 95.2888 75.0503 95.2785 75.0527 95.2733C75.0545 95.2695 75.0526 95.2756 75.04 95.2869C75.0138 95.3105 74.9557 95.3432 74.8659 95.3432V97.8432C76.2244 97.8432 77.5473 96.8208 77.5473 95.2999H75.0473ZM75.0473 12.8366V95.2999H77.5473V12.8366H75.0473ZM75.0403 12.8494C75.052 12.86 75.0537 12.8656 75.0521 12.8622C75.0514 12.8606 75.0501 12.8574 75.049 12.8525C75.048 12.8477 75.0473 12.842 75.0473 12.8359L77.5473 12.8374C77.5477 12.1193 77.231 11.4595 76.7163 10.9944L75.0403 12.8494ZM74.8665 12.7933C74.9531 12.7933 75.0138 12.8255 75.0403 12.8494L76.7163 10.9944C76.2057 10.5331 75.538 10.293 74.8652 10.2933L74.8665 12.7933ZM63.7101 12.5624V5.13217H61.2101V12.5624H63.7101ZM19.9392 13.8124H62.4601V11.3124H19.9392V13.8124ZM62.2449 3.90083L19.724 11.331L20.1544 13.7937L62.6753 6.36351L62.2449 3.90083ZM73.4345 92.2375H4.86281V94.7375H73.4345V92.2375ZM72.1845 15.4252V93.4875H74.6845V15.4252H72.1845ZM4.86281 16.6752H73.4345V14.1752H4.86281V16.6752ZM6.11281 93.4875V15.4252H3.61281V93.4875H6.11281Z" fill="url(#paint1_linear)"/>
<path fill-rule="evenodd" clip-rule="evenodd" d="M47.2581 58.1654H43.9587C43.7619 58.1654 43.5914 58.0933 43.4484 57.9497C43.3047 57.806 43.2326 57.6355 43.2326 57.4388V39.2683C43.2326 37.2698 43.9445 35.5587 45.3675 34.135C46.7906 32.7119 48.5017 32 50.5007 32H51.5453C51.9388 32 52.2792 32.1443 52.5671 32.4317C52.8544 32.7196 52.9986 33.0607 52.9986 33.4536V72.9345C52.9986 73.722 52.7108 74.4035 52.1354 74.9787C51.569 75.5445 50.8989 75.8295 50.1281 75.8385C49.3566 75.8295 48.687 75.5446 48.1208 74.9787C47.5454 74.4035 47.2581 73.722 47.2581 72.9345V58.1654ZM28.696 72.3382V50.9091C27.8326 50.6062 24.0003 47.7218 24 46.7972V34.646C24 34.2531 24.1443 33.9126 24.4317 33.6241C24.7189 33.3367 25.0594 33.1924 25.4535 33.1924C25.8471 33.1924 26.188 33.3367 26.4754 33.6241C26.7634 33.912 26.9071 34.2531 26.9071 34.646V44.0946C26.9071 44.4881 27.0508 44.8291 27.3387 45.1165C27.6261 45.4045 27.9666 45.5476 28.3606 45.5476C28.7541 45.5476 29.0946 45.4045 29.3826 45.1165C29.6699 44.8291 29.8142 44.4886 29.8142 44.0946V34.646C29.8142 34.2531 29.9579 33.9126 30.2459 33.6241C30.5333 33.3367 30.8737 33.1924 31.2678 33.1924C31.6613 33.1924 32.0022 33.3367 32.2896 33.6241C32.577 33.912 32.7213 34.2531 32.7213 34.646V44.0946C32.7213 44.4881 32.8656 44.8291 33.1529 45.1165C33.4403 45.4045 33.7808 45.5476 34.1749 45.5476C34.5683 45.5476 34.9088 45.4045 35.1968 45.1165C35.4842 44.8291 35.6284 44.4886 35.6284 44.0946V34.646C35.6284 34.2531 35.7721 33.9126 36.0601 33.6241C36.3475 33.3367 36.688 33.1924 37.082 33.1924C37.4749 33.1924 37.816 33.3367 38.1039 33.6241C38.3913 33.912 38.5356 34.2531 38.5356 34.646V46.7977C38.5356 47.7224 35.2995 50.6068 34.4361 50.9091V72.3382C34.4361 73.1259 34.1489 73.8072 33.5735 74.3826C33.0071 74.9484 32.3371 75.2332 31.5661 75.2422C30.7946 75.2332 30.1251 74.9485 29.5593 74.3826C28.9833 73.8072 28.696 73.1259 28.696 72.3382Z" fill="url(#paint2_linear)"/>
<path d="M47.2581 58.1654H47.5081V57.9154H47.2581V58.1654ZM43.4484 57.9497L43.6255 57.7733L43.6252 57.7729L43.4484 57.9497ZM45.3675 34.135L45.1907 33.9582L45.1906 33.9583L45.3675 34.135ZM52.5671 32.4317L52.744 32.2551L52.7437 32.2547L52.5671 32.4317ZM52.1354 74.9787L52.3121 75.1555L52.3121 75.1555L52.1354 74.9787ZM50.1281 75.8385L50.1252 76.0885L50.131 76.0885L50.1281 75.8385ZM48.1208 74.9787L47.944 75.1555L47.9441 75.1555L48.1208 74.9787ZM28.696 50.9091H28.946V50.7319L28.7787 50.6732L28.696 50.9091ZM24 46.7972H23.75L23.75 46.7972L24 46.7972ZM24.4317 33.6241L24.2549 33.4473L24.2545 33.4476L24.4317 33.6241ZM26.4754 33.6241L26.6522 33.4473V33.4473L26.4754 33.6241ZM27.3387 45.1165L27.5157 44.9399L27.5153 44.9396L27.3387 45.1165ZM30.2459 33.6241L30.0691 33.4473L30.0689 33.4475L30.2459 33.6241ZM32.2896 33.6241L32.4666 33.4475L32.4664 33.4473L32.2896 33.6241ZM33.1529 45.1165L33.3299 44.9399L33.3297 44.9397L33.1529 45.1165ZM36.0601 33.6241L35.8833 33.4473L35.8831 33.4475L36.0601 33.6241ZM38.1039 33.6241L38.2809 33.4475L38.2805 33.4471L38.1039 33.6241ZM34.4361 50.9091L34.3535 50.6731L34.1861 50.7318V50.9091H34.4361ZM33.5735 74.3826L33.7502 74.5594L33.7503 74.5594L33.5735 74.3826ZM31.5661 75.2422L31.5632 75.4922L31.569 75.4922L31.5661 75.2422ZM29.5593 74.3826L29.7361 74.2058L29.736 74.2057L29.5593 74.3826ZM43.9587 58.4154H47.2581V57.9154H43.9587V58.4154ZM43.2713 58.1261C43.4596 58.3152 43.6932 58.4154 43.9587 58.4154V57.9154C43.8306 57.9154 43.7232 57.8714 43.6255 57.7733L43.2713 58.1261ZM42.9826 57.4388C42.9826 57.7044 43.0829 57.9377 43.2716 58.1265L43.6252 57.7729C43.5266 57.6743 43.4826 57.5667 43.4826 57.4388H42.9826ZM42.9826 39.2683V57.4388H43.4826V39.2683H42.9826ZM45.1906 33.9583C43.7212 35.4284 42.9826 37.203 42.9826 39.2683H43.4826C43.4826 37.3367 44.1677 35.6889 45.5443 34.3118L45.1906 33.9583ZM50.5007 31.75C48.4349 31.75 46.6604 32.4887 45.1907 33.9582L45.5442 34.3118C46.9209 32.9352 48.5685 32.25 50.5007 32.25V31.75ZM51.5453 31.75H50.5007V32.25H51.5453V31.75ZM52.7437 32.2547C52.4109 31.9226 52.0078 31.75 51.5453 31.75V32.25C51.8698 32.25 52.1474 32.366 52.3904 32.6086L52.7437 32.2547ZM53.2486 33.4536C53.2486 32.9918 53.0763 32.588 52.744 32.2551L52.3901 32.6083C52.6326 32.8513 52.7486 33.1296 52.7486 33.4536H53.2486ZM53.2486 72.9345V33.4536H52.7486V72.9345H53.2486ZM52.3121 75.1555C52.9327 74.5352 53.2486 73.7907 53.2486 72.9345H52.7486C52.7486 73.6532 52.4889 74.2719 51.9587 74.8019L52.3121 75.1555ZM50.131 76.0885C50.9691 76.0787 51.701 75.766 52.3121 75.1555L51.9587 74.8018C51.437 75.323 50.8286 75.5803 50.1252 75.5885L50.131 76.0885ZM47.9441 75.1555C48.555 75.7661 49.2864 76.0787 50.1252 76.0885L50.131 75.5885C49.4269 75.5803 48.819 75.3231 48.2975 74.8019L47.9441 75.1555ZM47.0081 72.9345C47.0081 73.7906 47.3234 74.5351 47.944 75.1555L48.2975 74.8019C47.7674 74.2719 47.5081 73.6534 47.5081 72.9345H47.0081ZM47.0081 58.1654V72.9345H47.5081V58.1654H47.0081ZM28.446 50.9091V72.3382H28.946V50.9091H28.446ZM23.75 46.7972C23.7501 46.987 23.8432 47.1839 23.9553 47.3608C24.0729 47.5462 24.2369 47.7482 24.4285 47.9564C24.8124 48.3736 25.3282 48.8386 25.8658 49.2796C26.4043 49.7213 26.9702 50.1436 27.4573 50.4755C27.9348 50.8007 28.3619 51.0568 28.6132 51.145L28.7787 50.6732C28.5984 50.6099 28.2227 50.3919 27.7388 50.0622C27.2645 49.7392 26.7105 49.3258 26.1829 48.893C25.6544 48.4594 25.1582 48.011 24.7964 47.6179C24.6152 47.4209 24.473 47.2434 24.3776 47.093C24.2767 46.934 24.25 46.8385 24.25 46.7971L23.75 46.7972ZM23.75 34.646V46.7972H24.25V34.646H23.75ZM24.2545 33.4476C23.9226 33.7809 23.75 34.184 23.75 34.646H24.25C24.25 34.3222 24.366 34.0443 24.6088 33.8005L24.2545 33.4476ZM25.4535 32.9424C24.9905 32.9424 24.5872 33.1149 24.2549 33.4473L24.6085 33.8008C24.8507 33.5585 25.1283 33.4424 25.4535 33.4424V32.9424ZM26.6522 33.4473C26.3197 33.1149 25.9159 32.9424 25.4535 32.9424V33.4424C25.7782 33.4424 26.0563 33.5585 26.2986 33.8008L26.6522 33.4473ZM27.1571 34.646C27.1571 34.1844 26.9853 33.7804 26.6522 33.4473L26.2986 33.8008C26.5414 34.0437 26.6571 34.3218 26.6571 34.646H27.1571ZM27.1571 44.0946V34.646H26.6571V44.0946H27.1571ZM27.5153 44.9396C27.2727 44.6975 27.1571 44.4194 27.1571 44.0946H26.6571C26.6571 44.5567 26.8288 44.9608 27.1621 45.2935L27.5153 44.9396ZM28.3606 45.2976C28.035 45.2976 27.7576 45.1823 27.5157 44.9399L27.1618 45.2931C27.4946 45.6266 27.8982 45.7976 28.3606 45.7976V45.2976ZM29.2058 44.9397C28.9631 45.1824 28.6856 45.2976 28.3606 45.2976V45.7976C28.8226 45.7976 29.2261 45.6266 29.5593 45.2933L29.2058 44.9397ZM29.5642 44.0946C29.5642 44.4197 29.4482 44.6974 29.2058 44.9397L29.5593 45.2933C29.8917 44.9609 30.0642 44.5575 30.0642 44.0946H29.5642ZM29.5642 34.646V44.0946H30.0642V34.646H29.5642ZM30.0689 33.4475C29.7361 33.781 29.5642 34.1842 29.5642 34.646H30.0642C30.0642 34.322 30.1797 34.0442 30.4228 33.8007L30.0689 33.4475ZM31.2678 32.9424C30.8048 32.9424 30.4015 33.1149 30.0691 33.4473L30.4227 33.8008C30.665 33.5585 30.9426 33.4424 31.2678 33.4424V32.9424ZM32.4664 33.4473C32.134 33.1149 31.7301 32.9424 31.2678 32.9424V33.4424C31.5924 33.4424 31.8705 33.5585 32.1128 33.8008L32.4664 33.4473ZM32.9713 34.646C32.9713 34.1842 32.7988 33.7803 32.4666 33.4475L32.1127 33.8007C32.3552 34.0437 32.4713 34.322 32.4713 34.646H32.9713ZM32.9713 44.0946V34.646H32.4713V44.0946H32.9713ZM33.3297 44.9397C33.0874 44.6974 32.9713 44.4192 32.9713 44.0946H32.4713C32.4713 44.5569 32.6437 44.9608 32.9762 45.2933L33.3297 44.9397ZM34.1749 45.2976C33.8492 45.2976 33.5718 45.1823 33.3299 44.9399L32.976 45.2931C33.3088 45.6266 33.7124 45.7976 34.1749 45.7976V45.2976ZM35.02 44.9397C34.7773 45.1824 34.4998 45.2976 34.1749 45.2976V45.7976C34.6368 45.7976 35.0403 45.6266 35.3736 45.2933L35.02 44.9397ZM35.3784 44.0946C35.3784 44.4197 35.2624 44.6974 35.02 44.9397L35.3736 45.2933C35.706 44.9609 35.8784 44.5575 35.8784 44.0946H35.3784ZM35.3784 34.646V44.0946H35.8784V34.646H35.3784ZM35.8831 33.4475C35.5503 33.781 35.3784 34.1842 35.3784 34.646H35.8784C35.8784 34.322 35.994 34.0442 36.2371 33.8007L35.8831 33.4475ZM37.082 32.9424C36.6191 32.9424 36.2157 33.1149 35.8833 33.4473L36.2369 33.8008C36.4792 33.5585 36.7569 33.4424 37.082 33.4424V32.9424ZM38.2805 33.4471C37.9477 33.1149 37.5438 32.9424 37.082 32.9424V33.4424C37.406 33.4424 37.6843 33.5585 37.9273 33.801L38.2805 33.4471ZM38.7856 34.646C38.7856 34.1842 38.6131 33.7803 38.2809 33.4475L37.927 33.8007C38.1695 34.0437 38.2856 34.322 38.2856 34.646H38.7856ZM38.7856 46.7977V34.646H38.2856V46.7977H38.7856ZM34.5188 51.1451C34.7778 51.0544 35.1715 50.7925 35.5935 50.4672C36.026 50.1339 36.518 49.7103 36.9822 49.2677C37.4456 48.8258 37.8864 48.3599 38.2134 47.9417C38.3767 47.7329 38.5157 47.5308 38.6151 47.3457C38.711 47.1672 38.7856 46.9763 38.7856 46.7977H38.2856C38.2856 46.8502 38.2591 46.9518 38.1746 47.1092C38.0936 47.26 37.9731 47.4373 37.8195 47.6337C37.5128 48.0259 37.0906 48.4734 36.6371 48.9059C36.1842 49.3378 35.7054 49.7497 35.2883 50.0712C34.8607 50.4007 34.5262 50.6127 34.3535 50.6731L34.5188 51.1451ZM34.6861 72.3382V50.9091H34.1861V72.3382H34.6861ZM33.7503 74.5594C34.3708 73.9388 34.6861 73.1945 34.6861 72.3382H34.1861C34.1861 73.0572 33.9269 73.6757 33.3967 74.2058L33.7503 74.5594ZM31.569 75.4922C32.4073 75.4824 33.1391 75.1699 33.7502 74.5594L33.3968 74.2057C32.8751 74.7269 32.2669 74.984 31.5632 74.9922L31.569 75.4922ZM29.3825 74.5593C29.9931 75.17 30.7245 75.4824 31.5632 75.4922L31.569 74.9922C30.8648 74.984 30.2571 74.7269 29.7361 74.2058L29.3825 74.5593ZM28.446 72.3382C28.446 73.1946 28.7614 73.9389 29.3826 74.5594L29.736 74.2057C29.2053 73.6756 28.946 73.0572 28.946 72.3382H28.446Z" fill="url(#paint3_linear)"/>
<defs>
<linearGradient id="paint0_linear" x1="2" y1="2" x2="2" y2="96.5932" gradientUnits="userSpaceOnUse">
<stop stop-color="#F39200"/>
<stop offset="1" stop-color="#E94E1B"/>
</linearGradient>
<linearGradient id="paint1_linear" x1="2.03628" y1="2" x2="2.03628" y2="96.5008" gradientUnits="userSpaceOnUse">
<stop stop-color="#F29810"/>
<stop offset="0.999023" stop-color="#E94F1B"/>
</linearGradient>
<linearGradient id="paint2_linear" x1="24" y1="32" x2="24" y2="75.8385" gradientUnits="userSpaceOnUse">
<stop stop-color="#F39200"/>
<stop offset="1" stop-color="#E94E1B"/>
</linearGradient>
<linearGradient id="paint3_linear" x1="24.0142" y1="32" x2="24.0142" y2="75.7957" gradientUnits="userSpaceOnUse">
<stop stop-color="#F29810"/>
<stop offset="0.999023" stop-color="#E94F1B"/>
</linearGradient>
</defs>
</svg>
