<svg width="72" height="72" viewBox="0 0 72 72" fill="none" xmlns="http://www.w3.org/2000/svg">
<path fill-rule="evenodd" clip-rule="evenodd" d="M59.8649 16.1795H51.6004V12.8657H63.905C64.3974 12.8657 64.8519 12.6008 65.0944 12.1725C65.3369 11.7442 65.331 11.2181 65.0778 10.7962L62.7638 6.93285L65.0778 3.07001C65.331 2.64757 65.3374 2.12152 65.0944 1.69321C64.8514 1.26489 64.3974 1 63.905 1H50.2332C49.478 1 48.866 1.61203 48.866 2.36719V16.1795H21.7343C16.8439 16.1795 12.5773 19.3347 11.1204 23.9372H3.69806C2.21071 23.9372 1 25.1474 1 26.6353V48.2443C1 49.7317 2.21071 50.9419 3.69806 50.9419H10.5992V56.754C10.5992 57.5086 11.2112 58.1212 11.9663 58.1212H35.6443V69.6328C35.6443 70.388 36.2569 71 37.0115 71H46.7794C47.5346 71 48.1466 70.388 48.1466 69.6328V58.1212H69.6328C70.388 58.1212 71 57.5086 71 56.754V27.3146C71 21.1746 66.005 16.1795 59.8649 16.1795ZM51.6004 3.73438H61.4922L59.9973 6.23056C59.7383 6.66315 59.7383 7.20255 59.9973 7.63513L61.4922 10.1313H51.6004V3.73438ZM29.4258 23.9372C28.1232 20.9818 25.1656 18.9139 21.7343 18.9139C18.3457 18.9139 15.3544 20.9209 14.0374 23.9372H29.4258ZM30.135 43.0148L24.4323 37.4414L30.135 31.8675V43.0148ZM30.1344 27.3146C30.1344 27.0983 30.1264 26.8836 30.1104 26.6716H7.14807L19.3417 38.5934L30.1344 28.0441V27.3146ZM3.73438 27.1581L14.2521 37.4409L3.73438 47.721V27.1581ZM18.3857 41.4826L16.2078 39.3533L7.14861 48.208H30.1344V46.8382L22.4761 39.3533L20.2971 41.4826C20.0317 41.7427 19.6867 41.8725 19.3417 41.8725C18.9967 41.8725 18.6517 41.7422 18.3857 41.4826ZM30.135 50.9419V55.3868H13.3335V50.9419H30.135ZM38.3787 68.2656H45.4122V58.1212H38.3787V68.2656ZM68.2656 55.3868H32.8694V50.9419H57.8157C58.5709 50.9419 59.1829 50.3298 59.1829 49.5747C59.1829 48.8201 58.5709 48.2075 57.8157 48.2075H32.8694V27.3146C32.8694 23.9655 31.3831 20.9567 29.0354 18.9139H48.866V20.6453C46.2603 21.2637 44.3163 23.6104 44.3163 26.4025C44.3163 29.665 46.9706 32.3193 50.2332 32.3193C53.4957 32.3193 56.15 29.665 56.15 26.4025C56.15 23.6104 54.206 21.2637 51.6004 20.6453V18.9139H59.8649C64.4973 18.9139 68.2656 22.6822 68.2656 27.3146V55.3868ZM51.6004 25.447C51.6004 26.2022 50.9883 26.8142 50.2332 26.8142C49.478 26.8142 48.866 26.2022 48.866 25.447V23.5287C47.7936 24.0414 47.0507 25.1367 47.0507 26.4025C47.0507 28.1574 48.4783 29.5849 50.2332 29.5849C51.9875 29.5849 53.4156 28.1574 53.4156 26.4025C53.4156 25.1367 52.6727 24.0414 51.6004 23.5287V25.447Z" fill="white"/>
<path d="M51.6004 16.1795H51.4004V16.3795H51.6004V16.1795ZM51.6004 12.8657V12.6657H51.4004V12.8657H51.6004ZM65.0778 10.7962L64.9063 10.899L64.9063 10.8991L65.0778 10.7962ZM62.7638 6.93285L62.5922 6.83007L62.5306 6.93284L62.5922 7.03562L62.7638 6.93285ZM65.0778 3.07001L64.9063 2.9672L64.9063 2.96723L65.0778 3.07001ZM65.0944 1.69321L65.2683 1.59452V1.59452L65.0944 1.69321ZM48.866 16.1795V16.3795H49.066V16.1795H48.866ZM11.1204 23.9372V24.1372H11.2669L11.3111 23.9976L11.1204 23.9372ZM10.5992 50.9419H10.7992V50.7419H10.5992V50.9419ZM35.6443 58.1212H35.8443V57.9212H35.6443V58.1212ZM48.1466 58.1212V57.9212H47.9466V58.1212H48.1466ZM61.4922 3.73438L61.6638 3.83713L61.8451 3.53437H61.4922V3.73438ZM51.6004 3.73438V3.53437H51.4004V3.73438H51.6004ZM59.9973 6.23056L59.8258 6.12781L59.8258 6.12782L59.9973 6.23056ZM59.9973 7.63513L59.8258 7.73787L59.8258 7.73788L59.9973 7.63513ZM61.4922 10.1313V10.3313H61.8451L61.6638 10.0286L61.4922 10.1313ZM51.6004 10.1313H51.4004V10.3313H51.6004V10.1313ZM29.4258 23.9372V24.1372H29.7325L29.6088 23.8566L29.4258 23.9372ZM14.0374 23.9372L13.8541 23.8572L13.7319 24.1372H14.0374V23.9372ZM24.4323 37.4414L24.2925 37.2984L24.1462 37.4414L24.2925 37.5845L24.4323 37.4414ZM30.135 43.0148L29.9952 43.1579L30.335 43.49V43.0148H30.135ZM30.135 31.8675H30.335V31.3923L29.9952 31.7244L30.135 31.8675ZM30.1104 26.6716L30.3098 26.6565L30.2959 26.4716H30.1104V26.6716ZM7.14807 26.6716V26.4716H6.65743L7.00825 26.8146L7.14807 26.6716ZM19.3417 38.5934L19.2019 38.7364L19.3417 38.8731L19.4815 38.7364L19.3417 38.5934ZM30.1344 28.0441L30.2742 28.1872L30.3344 28.1283V28.0441H30.1344ZM14.2521 37.4409L14.3919 37.5839L14.5382 37.4409L14.3919 37.2979L14.2521 37.4409ZM3.73438 27.1581L3.87419 27.0151L3.53437 26.6829V27.1581H3.73438ZM3.73438 47.721H3.53437V48.1961L3.87417 47.864L3.73438 47.721ZM16.2078 39.3533L16.3476 39.2103L16.2078 39.0737L16.068 39.2103L16.2078 39.3533ZM18.3857 41.4826L18.2459 41.6256L18.246 41.6258L18.3857 41.4826ZM7.14861 48.208L7.00881 48.065L6.65786 48.408H7.14861V48.208ZM30.1344 48.208V48.408H30.3344V48.208H30.1344ZM30.1344 46.8382H30.3344V46.754L30.2742 46.6951L30.1344 46.8382ZM22.4761 39.3533L22.6159 39.2103L22.4761 39.0737L22.3363 39.2103L22.4761 39.3533ZM20.2971 41.4826L20.1573 41.3396L20.1571 41.3398L20.2971 41.4826ZM30.135 55.3868V55.5868H30.335V55.3868H30.135ZM30.135 50.9419H30.335V50.7419H30.135V50.9419ZM13.3335 55.3868H13.1335V55.5868H13.3335V55.3868ZM13.3335 50.9419V50.7419H13.1335V50.9419H13.3335ZM45.4122 68.2656V68.4656H45.6122V68.2656H45.4122ZM38.3787 68.2656H38.1787V68.4656H38.3787V68.2656ZM45.4122 58.1212H45.6122V57.9212H45.4122V58.1212ZM38.3787 58.1212V57.9212H38.1787V58.1212H38.3787ZM32.8694 55.3868H32.6694V55.5868H32.8694V55.3868ZM68.2656 55.3868V55.5868H68.4656V55.3868H68.2656ZM32.8694 50.9419V50.7419H32.6694V50.9419H32.8694ZM32.8694 48.2075H32.6694V48.4075H32.8694V48.2075ZM29.0354 18.9139V18.7139H28.5008L28.9041 19.0648L29.0354 18.9139ZM48.866 18.9139H49.066V18.7139H48.866V18.9139ZM48.866 20.6453L48.9122 20.8399L49.066 20.8034V20.6453H48.866ZM51.6004 20.6453H51.4004V20.8034L51.5542 20.8399L51.6004 20.6453ZM51.6004 18.9139V18.7139H51.4004V18.9139H51.6004ZM48.866 23.5287H49.066V23.2114L48.7797 23.3482L48.866 23.5287ZM51.6004 23.5287L51.6866 23.3482L51.4004 23.2114V23.5287H51.6004ZM51.6004 16.3795H59.8649V15.9795H51.6004V16.3795ZM51.4004 12.8657V16.1795H51.8004V12.8657H51.4004ZM63.905 12.6657H51.6004V13.0657H63.905V12.6657ZM64.9203 12.074C64.7134 12.4395 64.3254 12.6657 63.905 12.6657V13.0657C64.4695 13.0657 64.9905 12.7621 65.2684 12.271L64.9203 12.074ZM64.9063 10.8991C65.1223 11.259 65.1274 11.7081 64.9203 12.074L65.2684 12.271C65.5463 11.7802 65.5397 11.1772 65.2493 10.6933L64.9063 10.8991ZM62.5922 7.03562L64.9063 10.899L65.2494 10.6934L62.9353 6.83008L62.5922 7.03562ZM64.9063 2.96723L62.5922 6.83007L62.9353 7.03563L65.2494 3.17279L64.9063 2.96723ZM64.9204 1.7919C65.1278 2.15748 65.1224 2.60655 64.9063 2.9672L65.2494 3.17281C65.5396 2.68859 65.5469 2.08556 65.2683 1.59452L64.9204 1.7919ZM63.905 1.2C64.3253 1.2 64.7129 1.42607 64.9204 1.7919L65.2683 1.59452C64.9899 1.10371 64.4696 0.8 63.905 0.8V1.2ZM50.2332 1.2H63.905V0.8H50.2332V1.2ZM49.066 2.36719C49.066 1.72249 49.5885 1.2 50.2332 1.2V0.8C49.3676 0.8 48.666 1.50157 48.666 2.36719H49.066ZM49.066 16.1795V2.36719H48.666V16.1795H49.066ZM21.7343 16.3795H48.866V15.9795H21.7343V16.3795ZM11.3111 23.9976C12.7417 19.478 16.9313 16.3795 21.7343 16.3795V15.9795C16.7565 15.9795 12.4129 19.1914 10.9297 23.8769L11.3111 23.9976ZM3.69806 24.1372H11.1204V23.7372H3.69806V24.1372ZM1.2 26.6353C1.2 25.2579 2.32114 24.1372 3.69806 24.1372V23.7372C2.10028 23.7372 0.8 25.0369 0.8 26.6353H1.2ZM1.2 48.2443V26.6353H0.8V48.2443H1.2ZM3.69806 50.7419C2.32111 50.7419 1.2 49.6212 1.2 48.2443H0.8C0.8 49.8422 2.1003 51.1419 3.69806 51.1419V50.7419ZM10.5992 50.7419H3.69806V51.1419H10.5992V50.7419ZM10.7992 56.754V50.9419H10.3992V56.754H10.7992ZM11.9663 57.9212C11.3217 57.9212 10.7992 57.3982 10.7992 56.754H10.3992C10.3992 57.619 11.1007 58.3212 11.9663 58.3212V57.9212ZM35.6443 57.9212H11.9663V58.3212H35.6443V57.9212ZM35.8443 69.6328V58.1212H35.4443V69.6328H35.8443ZM37.0115 70.8C36.3673 70.8 35.8443 70.2775 35.8443 69.6328H35.4443C35.4443 70.4985 36.1465 71.2 37.0115 71.2V70.8ZM46.7794 70.8H37.0115V71.2H46.7794V70.8ZM47.9466 69.6328C47.9466 70.2775 47.4241 70.8 46.7794 70.8V71.2C47.645 71.2 48.3466 70.4984 48.3466 69.6328H47.9466ZM47.9466 58.1212V69.6328H48.3466V58.1212H47.9466ZM69.6328 57.9212H48.1466V58.3212H69.6328V57.9212ZM70.8 56.754C70.8 57.3982 70.2775 57.9212 69.6328 57.9212V58.3212C70.4985 58.3212 71.2 57.619 71.2 56.754H70.8ZM70.8 27.3146V56.754H71.2V27.3146H70.8ZM59.8649 16.3795C65.8945 16.3795 70.8 21.285 70.8 27.3146H71.2C71.2 21.0641 66.1154 15.9795 59.8649 15.9795V16.3795ZM61.4922 3.53437H51.6004V3.93438H61.4922V3.53437ZM60.1689 6.33331L61.6638 3.83713L61.3206 3.63162L59.8258 6.12781L60.1689 6.33331ZM60.1689 7.53239C59.9478 7.16306 59.9478 6.70263 60.1689 6.3333L59.8258 6.12782C59.5289 6.62366 59.5289 7.24203 59.8258 7.73787L60.1689 7.53239ZM61.6638 10.0286L60.1689 7.53238L59.8258 7.73788L61.3206 10.2341L61.6638 10.0286ZM51.6004 10.3313H61.4922V9.93132H51.6004V10.3313ZM51.4004 3.73438V10.1313H51.8004V3.73438H51.4004ZM21.7343 19.1139C25.0833 19.1139 27.9709 21.1321 29.2427 24.0179L29.6088 23.8566C28.2755 20.8314 25.2479 18.7139 21.7343 18.7139V19.1139ZM14.2207 24.0173C15.5062 21.0731 18.4259 19.1139 21.7343 19.1139V18.7139C18.2654 18.7139 15.2026 20.7686 13.8541 23.8572L14.2207 24.0173ZM29.4258 23.7372H14.0374V24.1372H29.4258V23.7372ZM24.2925 37.5845L29.9952 43.1579L30.2748 42.8718L24.5721 37.2984L24.2925 37.5845ZM29.9952 31.7244L24.2925 37.2984L24.5721 37.5844L30.2748 32.0105L29.9952 31.7244ZM30.335 43.0148V31.8675H29.935V43.0148H30.335ZM29.911 26.6867C29.9266 26.8936 29.9344 27.1033 29.9344 27.3146H30.3344C30.3344 27.0934 30.3263 26.8737 30.3098 26.6565L29.911 26.6867ZM7.14807 26.8716H30.1104V26.4716H7.14807V26.8716ZM19.4815 38.4504L7.28789 26.5286L7.00825 26.8146L19.2019 38.7364L19.4815 38.4504ZM29.9946 27.9011L19.2019 38.4504L19.4815 38.7364L30.2742 28.1872L29.9946 27.9011ZM29.9344 27.3146V28.0441H30.3344V27.3146H29.9344ZM14.3919 37.2979L3.87419 27.0151L3.59456 27.3012L14.1123 37.5839L14.3919 37.2979ZM3.87417 47.864L14.3919 37.5839L14.1123 37.2979L3.59458 47.5779L3.87417 47.864ZM3.53437 27.1581V47.721H3.93438V27.1581H3.53437ZM16.068 39.4964L18.2459 41.6256L18.5255 41.3396L16.3476 39.2103L16.068 39.4964ZM7.2884 48.3511L16.3476 39.4964L16.068 39.2103L7.00881 48.065L7.2884 48.3511ZM30.1344 48.008H7.14861V48.408H30.1344V48.008ZM29.9344 46.8382V48.208H30.3344V46.8382H29.9344ZM22.3363 39.4964L29.9947 46.9812L30.2742 46.6951L22.6159 39.2103L22.3363 39.4964ZM20.4369 41.6257L22.6158 39.4964L22.3363 39.2103L20.1573 41.3396L20.4369 41.6257ZM19.3417 42.0725C19.7368 42.0725 20.1327 41.9237 20.4371 41.6255L20.1571 41.3398C19.9306 41.5617 19.6365 41.6725 19.3417 41.6725V42.0725ZM18.246 41.6258C18.5506 41.923 18.9463 42.0725 19.3417 42.0725V41.6725C19.0471 41.6725 18.7527 41.5614 18.5254 41.3395L18.246 41.6258ZM30.335 55.3868V50.9419H29.935V55.3868H30.335ZM13.3335 55.5868H30.135V55.1868H13.3335V55.5868ZM13.1335 50.9419V55.3868H13.5335V50.9419H13.1335ZM30.135 50.7419H13.3335V51.1419H30.135V50.7419ZM45.4122 68.0656H38.3787V68.4656H45.4122V68.0656ZM45.2122 58.1212V68.2656H45.6122V58.1212H45.2122ZM38.3787 58.3212H45.4122V57.9212H38.3787V58.3212ZM38.5787 68.2656V58.1212H38.1787V68.2656H38.5787ZM32.8694 55.5868H68.2656V55.1868H32.8694V55.5868ZM32.6694 50.9419V55.3868H33.0694V50.9419H32.6694ZM57.8157 50.7419H32.8694V51.1419H57.8157V50.7419ZM58.9829 49.5747C58.9829 50.2194 58.4604 50.7419 57.8157 50.7419V51.1419C58.6813 51.1419 59.3829 50.4403 59.3829 49.5747H58.9829ZM57.8157 48.4075C58.4604 48.4075 58.9829 48.9305 58.9829 49.5747H59.3829C59.3829 48.7096 58.6814 48.0075 57.8157 48.0075V48.4075ZM32.8694 48.4075H57.8157V48.0075H32.8694V48.4075ZM32.6694 27.3146V48.2075H33.0694V27.3146H32.6694ZM28.9041 19.0648C31.2101 21.0713 32.6694 24.026 32.6694 27.3146H33.0694C33.0694 23.9051 31.556 20.842 29.1666 18.763L28.9041 19.0648ZM48.866 18.7139H29.0354V19.1139H48.866V18.7139ZM49.066 20.6453V18.9139H48.666V20.6453H49.066ZM44.5163 26.4025C44.5163 23.7053 46.3945 21.4375 48.9122 20.8399L48.8198 20.4507C46.1262 21.09 44.1163 23.5155 44.1163 26.4025H44.5163ZM50.2332 32.1193C47.0811 32.1193 44.5163 29.5546 44.5163 26.4025H44.1163C44.1163 29.7755 46.8602 32.5193 50.2332 32.5193V32.1193ZM55.95 26.4025C55.95 29.5546 53.3853 32.1193 50.2332 32.1193V32.5193C53.6062 32.5193 56.35 29.7755 56.35 26.4025H55.95ZM51.5542 20.8399C54.0719 21.4375 55.95 23.7053 55.95 26.4025H56.35C56.35 23.5155 54.3402 21.09 51.6465 20.4507L51.5542 20.8399ZM51.4004 18.9139V20.6453H51.8004V18.9139H51.4004ZM59.8649 18.7139H51.6004V19.1139H59.8649V18.7139ZM68.4656 27.3146C68.4656 22.5717 64.6078 18.7139 59.8649 18.7139V19.1139C64.3869 19.1139 68.0656 22.7927 68.0656 27.3146H68.4656ZM68.4656 55.3868V27.3146H68.0656V55.3868H68.4656ZM50.2332 27.0142C51.0988 27.0142 51.8004 26.3126 51.8004 25.447H51.4004C51.4004 26.0917 50.8779 26.6142 50.2332 26.6142V27.0142ZM48.666 25.447C48.666 26.3126 49.3676 27.0142 50.2332 27.0142V26.6142C49.5885 26.6142 49.066 26.0917 49.066 25.447H48.666ZM48.666 23.5287V25.447H49.066V23.5287H48.666ZM47.2507 26.4025C47.2507 25.2169 47.9465 24.19 48.9522 23.7091L48.7797 23.3482C47.6407 23.8928 46.8507 25.0565 46.8507 26.4025H47.2507ZM50.2332 29.3849C48.5887 29.3849 47.2507 28.0469 47.2507 26.4025H46.8507C46.8507 28.2678 48.3678 29.7849 50.2332 29.7849V29.3849ZM53.2156 26.4025C53.2156 28.0469 51.8771 29.3849 50.2332 29.3849V29.7849C52.098 29.7849 53.6156 28.2678 53.6156 26.4025H53.2156ZM51.5141 23.7091C52.5199 24.19 53.2156 25.2169 53.2156 26.4025H53.6156C53.6156 25.0565 52.8256 23.8928 51.6866 23.3482L51.5141 23.7091ZM51.8004 25.447V23.5287H51.4004V25.447H51.8004Z" fill="white"/>
</svg>
