<svg width="54" height="54" viewBox="0 0 54 54" fill="none" xmlns="http://www.w3.org/2000/svg">
<rect width="54" height="54" fill="#363636"/>
<path fill-rule="evenodd" clip-rule="evenodd" d="M38.717 18.0137H19.9333C19.3472 18.0137 18.8721 18.4887 18.8721 19.0749V29.0858H16.9973C14.7931 29.0858 13 30.8793 13 33.0831V38.9906C13 41.1947 14.7931 42.9878 16.9973 42.9878C17.1777 42.9878 17.3553 42.9758 17.529 42.9525H35.0381C37.6516 42.9525 39.7782 40.8261 39.7782 38.2124V19.0749C39.7782 18.4887 39.3032 18.0137 38.717 18.0137ZM18.8721 38.9906C18.8721 39.9 18.2209 40.6606 17.3603 40.83H16.9973V40.8653C15.9633 40.8653 15.1225 40.0241 15.1225 38.9905V33.0831C15.1225 32.0494 15.9637 31.2082 16.9973 31.2082H18.8722V38.9906H18.8721ZM35.0381 40.83C36.4573 40.83 37.6558 39.6312 37.6558 38.2123V20.1361H20.9946V38.9906C20.9946 39.6534 20.8325 40.2792 20.5457 40.83H35.0381ZM24.7088 24.664H31.3592C31.9453 24.664 32.4204 25.1391 32.4205 25.7253C32.4205 26.3115 31.9457 26.7865 31.3592 26.7865H24.7088C24.1226 26.7865 23.6476 26.3114 23.6476 25.7253C23.6476 25.1391 24.1227 24.664 24.7088 24.664ZM24.7088 29.7933H33.9061C34.4923 29.7933 34.9674 30.2683 34.9674 30.8545C34.9674 31.4407 34.4923 31.9158 33.9061 31.9158H24.7088C24.1226 31.9158 23.6476 31.4407 23.6476 30.8545C23.6476 30.2683 24.1227 29.7933 24.7088 29.7933ZM24.7088 34.6045H31.3592C31.9453 34.6045 32.4204 35.0796 32.4205 35.6658C32.4205 36.252 31.9457 36.727 31.3592 36.727H24.7088C24.1226 36.727 23.6476 36.2519 23.6476 35.6658C23.6476 35.0796 24.1227 34.6045 24.7088 34.6045Z" fill="white"/>
</svg>
