<svg width="54" height="54" viewBox="0 0 54 54" fill="none" xmlns="http://www.w3.org/2000/svg">
<rect width="54" height="54" fill="#363636"/>
<path fill-rule="evenodd" clip-rule="evenodd" d="M35 16.25H38.75C39.5 16.25 40 16.75 40 17.5V20.5C40 23.375 37.875 25.75 35 26.125V26.25C35 29.875 32.5 32.875 29.125 33.625L30 36.25H32.875C33.375 36.25 33.875 36.625 34 37.125L35 40H20L21 37.125C21.125 36.625 21.625 36.25 22.125 36.25H25L25.875 33.625C22.5 32.875 20 29.875 20 26.25V26.125C17.125 25.75 15 23.375 15 20.5V17.5C15 16.75 15.5 16.25 16.25 16.25H20V15H35V16.25ZM17.5 20.5C17.5 22 18.625 23.25 20 23.625V18.75H17.5V20.5ZM30 27.5L27.5 26.125L25 27.5L25.625 25L23.75 22.5H26.375L27.5 20L28.625 22.5H31.25L29.375 25L30 27.5ZM35 23.625C36.375 23.375 37.5 22 37.5 20.5V18.75H35V23.625Z" fill="white"/>
</svg>
