<svg width="54" height="54" viewBox="0 0 54 54" fill="none" xmlns="http://www.w3.org/2000/svg">
<rect width="54" height="54" fill="#363636"/>
<path fill-rule="evenodd" clip-rule="evenodd" d="M40 27.5C40 24.1612 38.6998 21.0221 36.3388 18.6612C33.9779 16.3002 30.839 15 27.5 15C24.1612 15 21.0221 16.3002 18.6612 18.6612C16.3002 21.0221 15 24.1612 15 27.5C15 32.6146 18.1315 37.213 22.8449 39.1041V39.2676C22.8449 39.6721 23.173 40 23.5773 40H31.4227C31.827 40 32.1551 39.6721 32.1551 39.2676V39.1041C36.8685 37.213 40 32.6146 40 27.5ZM30.004 31.4225C31.2966 30.5945 32.1551 29.1457 32.1551 27.5C32.1551 24.9333 30.0667 22.8449 27.5 22.8449C24.9333 22.8449 22.8449 24.9333 22.8449 27.5C22.8449 29.1457 23.7034 30.5945 24.996 31.4225C24.2899 31.8747 23.7137 32.5123 23.3361 33.2659C21.4993 31.9374 20.3875 29.798 20.3875 27.5C20.3875 23.5781 23.5781 20.3873 27.5 20.3873C31.4219 20.3873 34.6125 23.5781 34.6125 27.5C34.6127 29.798 33.5009 31.9374 31.6639 33.2661C31.2863 32.5123 30.7101 31.8747 30.004 31.4225ZM27.5 24.3098C25.741 24.3098 24.3098 25.741 24.3098 27.5C24.3098 29.259 25.741 30.69 27.5 30.69C29.259 30.69 30.6902 29.259 30.6902 27.5C30.6902 25.741 29.259 24.3098 27.5 24.3098ZM24.3098 38.5352V35.3449C24.3098 33.586 25.741 32.1549 27.5 32.1549C29.259 32.1549 30.6902 33.586 30.6902 35.3449V38.5352H24.3098ZM32.1551 35.3449V37.5084C36.0106 35.714 38.5352 31.8152 38.5352 27.5C38.5352 21.4152 33.5848 16.4648 27.5 16.4648C21.4152 16.4648 16.4648 21.4152 16.4648 27.5C16.4648 31.8152 18.9894 35.714 22.8449 37.5084V35.3449C22.8449 35.1368 22.8588 34.932 22.8856 34.7309C20.4285 33.1606 18.9227 30.4375 18.9227 27.5C18.9227 22.7703 22.7703 18.9225 27.5 18.9225C32.2297 18.9225 36.0773 22.7703 36.0773 27.5C36.0775 30.4375 34.5717 33.1606 32.1144 34.7309C32.141 34.932 32.1551 35.1368 32.1551 35.3449Z" fill="white"/>
</svg>
