<svg width="54" height="54" viewBox="0 0 54 54" fill="none" xmlns="http://www.w3.org/2000/svg">
<rect width="54" height="54" fill="#363636"/>
<path fill-rule="evenodd" clip-rule="evenodd" d="M19.6369 22.1445H39.7832C40.7688 22.1445 41.5687 22.9463 41.5687 23.9301V38.2145C41.5687 39.2001 40.7688 40 39.7832 40H14.7855C13.8017 40 13 39.2001 13 38.2145V23.9301C13 23.0641 13.6339 22.3731 14.4534 22.2124C14.4561 22.2106 14.4583 22.2088 14.4606 22.207C14.4628 22.2052 14.465 22.2035 14.4677 22.2017L33.216 15.0595C33.6766 14.8827 34.1926 15.1131 34.3676 15.5755C34.5444 16.038 34.3141 16.554 33.8516 16.729L19.6369 22.1445ZM16.5711 31.0723C16.5711 34.0256 18.9744 36.4289 21.9277 36.4289C24.881 36.4289 27.2844 34.0256 27.2844 31.0723C27.2844 28.119 24.881 25.7156 21.9277 25.7156C18.9744 25.7156 16.5711 28.119 16.5711 31.0723ZM37.9976 36.4289H30.8555V34.6434H37.9976V36.4289ZM30.8555 32.8578H37.9976V31.0723H30.8555V32.8578ZM37.9976 29.2867H30.8555V27.5012H37.9976V29.2867ZM25.4988 31.0723C25.4988 33.0445 23.9 34.6434 21.9277 34.6434C19.9555 34.6434 18.3566 33.0445 18.3566 31.0723C18.3566 29.1 19.9555 27.5012 21.9277 27.5012C23.9 27.5012 25.4988 29.1 25.4988 31.0723Z" fill="white"/>
</svg>
