<svg width="54" height="54" viewBox="0 0 54 54" fill="none" xmlns="http://www.w3.org/2000/svg">
<rect width="54" height="54" fill="#363636"/>
<path fill-rule="evenodd" clip-rule="evenodd" d="M32.6308 23.1596C31.8409 21.5396 30.4846 20.632 29.1719 19.7537L29.1692 19.7519C28.1904 19.0962 27.2673 18.4769 26.6135 17.5904L26.4923 17.4269L26.4833 17.4148L26.4833 17.4148C26.1009 16.9004 25.6687 16.3192 25.6019 15.8308C25.5986 15.8073 25.5894 15.7864 25.58 15.7652L25.58 15.7652C25.5732 15.7498 25.5664 15.7342 25.5615 15.7173C25.5442 15.65 25.525 15.5865 25.4942 15.525C25.4712 15.475 25.4385 15.4308 25.4038 15.3846L25.401 15.3809C25.3616 15.3303 25.3238 15.2817 25.275 15.2404C25.2339 15.2042 25.1901 15.1779 25.1446 15.1507L25.1212 15.1365L25.1179 15.1346C25.0691 15.1065 25.0238 15.0803 24.9692 15.0615C24.9019 15.0365 24.8327 15.0269 24.7596 15.0192C24.7426 15.0183 24.7268 15.0141 24.7109 15.0098L24.7109 15.0098C24.6927 15.0049 24.6744 15 24.6538 15C24.641 15 24.6294 15.0036 24.618 15.007C24.6088 15.0098 24.5998 15.0126 24.5904 15.0135C24.5797 15.0144 24.5695 15.0128 24.5592 15.0112L24.5592 15.0112C24.5473 15.0094 24.5355 15.0075 24.5231 15.0096C24.4981 15.013 24.4764 15.0225 24.4546 15.032L24.4546 15.032C24.4395 15.0386 24.4242 15.0453 24.4077 15.05C24.3423 15.0673 24.2808 15.0846 24.2231 15.1154C24.1692 15.1423 24.1231 15.1769 24.0769 15.2154C24.0269 15.2538 23.9788 15.2923 23.9385 15.3404C23.9002 15.3841 23.8724 15.4312 23.8434 15.4801L23.8385 15.4885C23.8077 15.5423 23.7788 15.5942 23.7577 15.6538C23.7365 15.7135 23.7288 15.775 23.7212 15.8404C23.7181 15.8524 23.7142 15.8644 23.7102 15.8767C23.7014 15.9035 23.6923 15.9311 23.6923 15.9615V33.0962C22.8865 32.6077 21.8942 32.3077 20.8077 32.3077C18.1558 32.3077 16 34.0327 16 36.1538C16 38.275 18.1558 40 20.8077 40C23.4596 40 25.6154 38.275 25.6154 36.1538V24.9462C27.0596 25.4981 29.4231 26.9038 30.0731 30.1865C30.0425 30.2317 30.0123 30.2778 29.9821 30.324L29.982 30.324C29.8925 30.4607 29.8026 30.598 29.7019 30.7115C29.35 31.1096 29.3904 31.7173 29.7885 32.0673C29.9712 32.2288 30.1981 32.3077 30.4231 32.3077C30.6904 32.3077 30.9538 32.1962 31.1442 31.9808C31.4 31.6904 31.6288 31.3462 31.8481 30.9923C31.8731 30.9615 31.8923 30.9327 31.9135 30.9C32.6904 29.6 33.2058 27.9558 33.3038 26.3308C33.3673 25.2865 33.1346 24.1904 32.6308 23.1596ZM20.8077 38.0769C19.2442 38.0769 17.9231 37.1962 17.9231 36.1538C17.9231 35.1115 19.2442 34.2308 20.8077 34.2308C22.3712 34.2308 23.6923 35.1115 23.6923 36.1538C23.6923 37.1962 22.3712 38.0769 20.8077 38.0769ZM31.1923 27.55C31.2904 27.1096 31.3596 26.6596 31.3865 26.2096C31.4288 25.5096 31.2596 24.7231 30.9058 24.0019C30.3423 22.8462 29.2538 22.1173 28.1019 21.3462C27.2442 20.7731 26.3692 20.1712 25.6154 19.3673V22.9C27.3885 23.4231 29.8404 24.8365 31.1923 27.55Z" fill="white"/>
</svg>
