<svg width="25" height="24" viewBox="0 0 25 24" fill="none" xmlns="http://www.w3.org/2000/svg">
<path fill-rule="evenodd" clip-rule="evenodd" d="M22.8436 5.67664H15.2292L17.933 1.24019C18.1674 0.855565 18.0456 0.35371 17.661 0.119312C17.2764 -0.115195 16.7745 0.00665289 16.5401 0.391282L13.3189 5.67664H11.3117L8.09058 0.391282C7.85618 0.00676161 7.35432 -0.115032 6.9697 0.119312C6.58507 0.353765 6.46327 0.855565 6.69773 1.24019L9.40154 5.67664H1.78694C0.801609 5.67664 0 6.47824 0 7.46352V22.2131C0 23.1984 0.801609 24 1.78694 24H22.8437C23.829 24 24.6306 23.1984 24.6306 22.2131V7.46352C24.6306 6.47824 23.829 5.67664 22.8436 5.67664ZM22.3153 21.6936C22.3153 21.7734 22.2499 21.8383 22.1695 21.8383H2.46112C2.38072 21.8383 2.31532 21.7734 2.31532 21.6936V7.98307C2.31532 7.90326 2.38072 7.83832 2.46112 7.83832H22.1695C22.2499 7.83832 22.3153 7.90326 22.3153 7.98307V21.6936ZM15.1991 9.77778H4.9491C4.50677 9.77778 4.14815 10.131 4.14815 10.5666V19.063C4.14815 19.4986 4.50673 19.8519 4.9491 19.8519H15.1991C15.6414 19.8519 16 19.4986 16 19.063V10.5666C16 10.1309 15.6414 9.77778 15.1991 9.77778ZM15.0741 18.8148H5.07407V10.8148H15.0741V18.8148ZM19.1608 9.91766C18.2314 9.91766 17.4752 10.6738 17.4752 11.6032C17.4752 12.5326 18.2314 13.2887 19.1608 13.2887C20.0901 13.2887 20.8463 12.5326 20.8463 11.6032C20.8463 10.6738 20.0901 9.91766 19.1608 9.91766ZM17.4752 18.0735C17.4752 17.1441 18.2314 16.388 19.1608 16.388C20.0901 16.388 20.8463 17.1441 20.8463 18.0735C20.8463 19.0029 20.0901 19.759 19.1608 19.759C18.2314 19.759 17.4752 19.0029 17.4752 18.0735Z" fill="#232323"/>
</svg>
