<svg width="72" height="70" viewBox="0 0 72 70" fill="none" xmlns="http://www.w3.org/2000/svg">
<path fill-rule="evenodd" clip-rule="evenodd" d="M66.6273 16.5569H44.4184L52.3045 3.61723C52.9883 2.4954 52.6331 1.03166 51.5113 0.347993C50.3896 -0.335986 48.9257 0.0194043 48.242 1.14124L38.8469 16.5569H32.9926L23.5975 1.14124C22.9139 0.0197214 21.4501 -0.33551 20.3283 0.347993C19.2064 1.03181 18.8512 2.4954 19.535 3.61723L27.4212 16.5569H5.21191C2.33803 16.5569 0 18.8949 0 21.7686V64.7882C0 67.662 2.33803 70 5.21191 70H66.6275C69.5014 70 71.8394 67.662 71.8394 64.7882V21.7686C71.8392 18.8949 69.5012 16.5569 66.6273 16.5569ZM67.0818 64.7882C67.0817 65.0387 66.8779 65.2424 66.6273 65.2424H5.21191C4.96135 65.2424 4.75756 65.0387 4.75756 64.7882V21.7686C4.75756 21.5182 4.96135 21.3144 5.21191 21.3144H66.6275C66.878 21.3144 67.0818 21.5182 67.0818 21.7686V64.7882ZM47.5458 25.188H11.2894C9.72478 25.188 8.45625 26.4566 8.45625 28.0212V58.5359C8.45625 60.1005 9.72462 61.369 11.2894 61.369H47.5457C49.1103 61.369 50.3788 60.1005 50.3788 58.5359V28.0212C50.3788 26.4564 49.1104 25.188 47.5458 25.188ZM45.6214 56.6113H13.214V29.9456H45.6214V56.6113ZM58.8022 28.9265C56.0915 28.9265 53.8861 31.1318 53.8861 33.8427C53.8861 36.5535 56.0915 38.7588 58.8022 38.7588C61.5129 38.7588 63.7184 36.5535 63.7184 33.8427C63.7184 31.1318 61.5129 28.9265 58.8022 28.9265ZM53.8861 52.7143C53.8861 50.0035 56.0915 47.7982 58.8022 47.7982C61.5129 47.7982 63.7184 50.0035 63.7184 52.7143C63.7184 55.4252 61.5129 57.6305 58.8022 57.6305C56.0915 57.6305 53.8861 55.4252 53.8861 52.7143Z" fill="#232323"/>
</svg>
