<svg width="25" height="26" viewBox="0 0 25 26" fill="none" xmlns="http://www.w3.org/2000/svg">
<path fill-rule="evenodd" clip-rule="evenodd" d="M23.2031 1H0.703125C0.314813 1 0 1.31481 0 1.70312V24.2969C0 24.6852 0.314813 25 0.703125 25H23.2031C23.5914 25 23.9062 24.6852 23.9062 24.2969V1.70312C23.9062 1.31481 23.5914 1 23.2031 1ZM1.40625 19.8438V6.15625H22.5V19.8438H1.40625ZM20.1562 4.75H22.5V2.40625H20.1562V4.75ZM18.75 4.75H16.4062V2.40625H18.75V4.75ZM12.6562 4.75H15V2.40625H12.6562V4.75ZM11.25 4.75H8.90625V2.40625H11.25V4.75ZM5.15625 4.75H7.5V2.40625H5.15625V4.75ZM1.40625 2.40625H3.75V4.75H1.40625V2.40625ZM3.75 21.25H1.40625V23.5938H3.75V21.25ZM5.15625 21.25H7.5V23.5938H5.15625V21.25ZM11.25 21.25H8.90625V23.5938H11.25V21.25ZM12.6562 21.25H15V23.5938H12.6562V21.25ZM18.75 21.25H16.4062V23.5938H18.75V21.25ZM22.5 23.5938H20.1562V21.25H22.5V23.5938ZM16.5207 12.3895L9.95822 8.63955C9.74063 8.51519 9.47325 8.51608 9.25645 8.64189C9.03966 8.76766 8.90625 8.99936 8.90625 9.25V16.75C8.90625 17.0006 9.03966 17.2323 9.25645 17.3582C9.36558 17.4215 9.48745 17.4531 9.60938 17.4531C9.7297 17.4531 9.85013 17.4222 9.95822 17.3605L16.5207 13.6105C16.7398 13.4853 16.875 13.2523 16.875 13C16.875 12.7477 16.7398 12.5147 16.5207 12.3895ZM10.3125 10.4616L14.7547 13L10.3125 15.5384V10.4616Z" fill="#232323"/>
<path d="M1.40625 6.15625V5.95625H1.20625V6.15625H1.40625ZM1.40625 19.8438H1.20625V20.0438H1.40625V19.8438ZM22.5 6.15625H22.7V5.95625H22.5V6.15625ZM22.5 19.8438V20.0438H22.7V19.8438H22.5ZM22.5 4.75V4.95H22.7V4.75H22.5ZM20.1562 4.75H19.9562V4.95H20.1562V4.75ZM22.5 2.40625H22.7V2.20625H22.5V2.40625ZM20.1562 2.40625V2.20625H19.9562V2.40625H20.1562ZM16.4062 4.75H16.2062V4.95H16.4062V4.75ZM18.75 4.75V4.95H18.95V4.75H18.75ZM16.4062 2.40625V2.20625H16.2062V2.40625H16.4062ZM18.75 2.40625H18.95V2.20625H18.75V2.40625ZM15 4.75V4.95H15.2V4.75H15ZM12.6562 4.75H12.4563V4.95H12.6562V4.75ZM15 2.40625H15.2V2.20625H15V2.40625ZM12.6562 2.40625V2.20625H12.4563V2.40625H12.6562ZM8.90625 4.75H8.70625V4.95H8.90625V4.75ZM11.25 4.75V4.95H11.45V4.75H11.25ZM8.90625 2.40625V2.20625H8.70625V2.40625H8.90625ZM11.25 2.40625H11.45V2.20625H11.25V2.40625ZM7.5 4.75V4.95H7.7V4.75H7.5ZM5.15625 4.75H4.95625V4.95H5.15625V4.75ZM7.5 2.40625H7.7V2.20625H7.5V2.40625ZM5.15625 2.40625V2.20625H4.95625V2.40625H5.15625ZM3.75 2.40625H3.95V2.20625H3.75V2.40625ZM1.40625 2.40625V2.20625H1.20625V2.40625H1.40625ZM3.75 4.75V4.95H3.95V4.75H3.75ZM1.40625 4.75H1.20625V4.95H1.40625V4.75ZM1.40625 21.25V21.05H1.20625V21.25H1.40625ZM3.75 21.25H3.95V21.05H3.75V21.25ZM1.40625 23.5938H1.20625V23.7938H1.40625V23.5938ZM3.75 23.5938V23.7938H3.95V23.5938H3.75ZM7.5 21.25H7.7V21.05H7.5V21.25ZM5.15625 21.25V21.05H4.95625V21.25H5.15625ZM7.5 23.5938V23.7938H7.7V23.5938H7.5ZM5.15625 23.5938H4.95625V23.7938H5.15625V23.5938ZM8.90625 21.25V21.05H8.70625V21.25H8.90625ZM11.25 21.25H11.45V21.05H11.25V21.25ZM8.90625 23.5938H8.70625V23.7938H8.90625V23.5938ZM11.25 23.5938V23.7938H11.45V23.5938H11.25ZM15 21.25H15.2V21.05H15V21.25ZM12.6562 21.25V21.05H12.4563V21.25H12.6562ZM15 23.5938V23.7938H15.2V23.5938H15ZM12.6562 23.5938H12.4563V23.7938H12.6562V23.5938ZM16.4062 21.25V21.05H16.2062V21.25H16.4062ZM18.75 21.25H18.95V21.05H18.75V21.25ZM16.4062 23.5938H16.2062V23.7938H16.4062V23.5938ZM18.75 23.5938V23.7938H18.95V23.5938H18.75ZM20.1562 23.5938H19.9562V23.7938H20.1562V23.5938ZM22.5 23.5938V23.7938H22.7V23.5938H22.5ZM20.1562 21.25V21.05H19.9562V21.25H20.1562ZM22.5 21.25H22.7V21.05H22.5V21.25ZM9.95822 8.63955L9.85898 8.81319L9.85899 8.8132L9.95822 8.63955ZM16.5207 12.3895L16.4215 12.5632L16.4215 12.5632L16.5207 12.3895ZM9.25645 8.64189L9.35681 8.81489L9.35684 8.81487L9.25645 8.64189ZM9.25645 17.3582L9.35684 17.1852L9.25645 17.3582ZM9.95822 17.3605L9.85899 17.1868L9.85897 17.1868L9.95822 17.3605ZM16.5207 13.6105L16.4215 13.4368L16.4215 13.4368L16.5207 13.6105ZM14.7547 13L14.8539 13.1736L15.1578 13L14.8539 12.8264L14.7547 13ZM10.3125 10.4616L10.4117 10.288L10.1125 10.117V10.4616H10.3125ZM10.3125 15.5384H10.1125V15.883L10.4117 15.712L10.3125 15.5384ZM0.703125 1.2H23.2031V0.8H0.703125V1.2ZM0.2 1.70312C0.2 1.42527 0.425269 1.2 0.703125 1.2V0.8C0.204356 0.8 -0.2 1.20436 -0.2 1.70312H0.2ZM0.2 24.2969V1.70312H-0.2V24.2969H0.2ZM0.703125 24.8C0.425269 24.8 0.2 24.5747 0.2 24.2969H-0.2C-0.2 24.7956 0.204356 25.2 0.703125 25.2V24.8ZM23.2031 24.8H0.703125V25.2H23.2031V24.8ZM23.7062 24.2969C23.7062 24.5747 23.481 24.8 23.2031 24.8V25.2C23.7019 25.2 24.1063 24.7956 24.1063 24.2969H23.7062ZM23.7062 1.70312V24.2969H24.1063V1.70312H23.7062ZM23.2031 1.2C23.481 1.2 23.7062 1.42527 23.7062 1.70312H24.1063C24.1063 1.20436 23.7019 0.8 23.2031 0.8V1.2ZM1.20625 6.15625V19.8438H1.60625V6.15625H1.20625ZM22.5 5.95625H1.40625V6.35625H22.5V5.95625ZM22.7 19.8438V6.15625H22.3V19.8438H22.7ZM1.40625 20.0438H22.5V19.6437H1.40625V20.0438ZM22.5 4.55H20.1562V4.95H22.5V4.55ZM22.3 2.40625V4.75H22.7V2.40625H22.3ZM20.1562 2.60625H22.5V2.20625H20.1562V2.60625ZM20.3563 4.75V2.40625H19.9562V4.75H20.3563ZM16.4062 4.95H18.75V4.55H16.4062V4.95ZM16.2062 2.40625V4.75H16.6063V2.40625H16.2062ZM18.75 2.20625H16.4062V2.60625H18.75V2.20625ZM18.95 4.75V2.40625H18.55V4.75H18.95ZM15 4.55H12.6562V4.95H15V4.55ZM14.8 2.40625V4.75H15.2V2.40625H14.8ZM12.6562 2.60625H15V2.20625H12.6562V2.60625ZM12.8562 4.75V2.40625H12.4563V4.75H12.8562ZM8.90625 4.95H11.25V4.55H8.90625V4.95ZM8.70625 2.40625V4.75H9.10625V2.40625H8.70625ZM11.25 2.20625H8.90625V2.60625H11.25V2.20625ZM11.45 4.75V2.40625H11.05V4.75H11.45ZM7.5 4.55H5.15625V4.95H7.5V4.55ZM7.3 2.40625V4.75H7.7V2.40625H7.3ZM5.15625 2.60625H7.5V2.20625H5.15625V2.60625ZM5.35625 4.75V2.40625H4.95625V4.75H5.35625ZM3.75 2.20625H1.40625V2.60625H3.75V2.20625ZM3.95 4.75V2.40625H3.55V4.75H3.95ZM1.40625 4.95H3.75V4.55H1.40625V4.95ZM1.20625 2.40625V4.75H1.60625V2.40625H1.20625ZM1.40625 21.45H3.75V21.05H1.40625V21.45ZM1.60625 23.5938V21.25H1.20625V23.5938H1.60625ZM3.75 23.3937H1.40625V23.7938H3.75V23.3937ZM3.55 21.25V23.5938H3.95V21.25H3.55ZM7.5 21.05H5.15625V21.45H7.5V21.05ZM7.7 23.5938V21.25H7.3V23.5938H7.7ZM5.15625 23.7938H7.5V23.3937H5.15625V23.7938ZM4.95625 21.25V23.5938H5.35625V21.25H4.95625ZM8.90625 21.45H11.25V21.05H8.90625V21.45ZM9.10625 23.5938V21.25H8.70625V23.5938H9.10625ZM11.25 23.3937H8.90625V23.7938H11.25V23.3937ZM11.05 21.25V23.5938H11.45V21.25H11.05ZM15 21.05H12.6562V21.45H15V21.05ZM15.2 23.5938V21.25H14.8V23.5938H15.2ZM12.6562 23.7938H15V23.3937H12.6562V23.7938ZM12.4563 21.25V23.5938H12.8562V21.25H12.4563ZM16.4062 21.45H18.75V21.05H16.4062V21.45ZM16.6063 23.5938V21.25H16.2062V23.5938H16.6063ZM18.75 23.3937H16.4062V23.7938H18.75V23.3937ZM18.55 21.25V23.5938H18.95V21.25H18.55ZM20.1562 23.7938H22.5V23.3937H20.1562V23.7938ZM19.9562 21.25V23.5938H20.3563V21.25H19.9562ZM22.5 21.05H20.1562V21.45H22.5V21.05ZM22.7 23.5938V21.25H22.3V23.5938H22.7ZM9.85899 8.8132L16.4215 12.5632L16.6199 12.2159L10.0574 8.4659L9.85899 8.8132ZM9.35684 8.81487C9.51198 8.72484 9.7033 8.72421 9.85898 8.81319L10.0575 8.46591C9.77795 8.30616 9.43452 8.30731 9.15607 8.46891L9.35684 8.81487ZM9.10625 9.25C9.10625 9.07064 9.20172 8.90486 9.35681 8.81489L9.1561 8.46889C8.8776 8.63045 8.70625 8.92808 8.70625 9.25H9.10625ZM9.10625 16.75V9.25H8.70625V16.75H9.10625ZM9.35684 17.1852C9.20171 17.0952 9.10625 16.9294 9.10625 16.75H8.70625C8.70625 17.0719 8.8776 17.3695 9.15607 17.5311L9.35684 17.1852ZM9.60938 17.2531C9.52207 17.2531 9.43492 17.2305 9.35684 17.1852L9.15607 17.5311C9.29624 17.6125 9.45284 17.6531 9.60938 17.6531V17.2531ZM9.85897 17.1868C9.78162 17.231 9.69549 17.2531 9.60938 17.2531V17.6531C9.76392 17.6531 9.91863 17.6134 10.0575 17.5341L9.85897 17.1868ZM16.4215 13.4368L9.85899 17.1868L10.0574 17.5341L16.6199 13.7841L16.4215 13.4368ZM16.675 13C16.675 13.1805 16.5783 13.3473 16.4215 13.4368L16.6199 13.7841C16.9014 13.6233 17.075 13.324 17.075 13H16.675ZM16.4215 12.5632C16.5783 12.6527 16.675 12.8195 16.675 13H17.075C17.075 12.676 16.9014 12.3767 16.6199 12.2159L16.4215 12.5632ZM14.8539 12.8264L10.4117 10.288L10.2133 10.6353L14.6555 13.1736L14.8539 12.8264ZM10.4117 15.712L14.8539 13.1736L14.6555 12.8264L10.2133 15.3647L10.4117 15.712ZM10.1125 10.4616V15.5384H10.5125V10.4616H10.1125Z" fill="#232323"/>
</svg>
