<svg width="71" height="72" viewBox="0 0 71 72" fill="none" xmlns="http://www.w3.org/2000/svg">
<path fill-rule="evenodd" clip-rule="evenodd" d="M68.6758 1H3.05078C1.9182 1 1 1.9182 1 3.05078V68.9492C1 70.0818 1.9182 71 3.05078 71H68.6758C69.8084 71 70.7266 70.0818 70.7266 68.9492V3.05078C70.7266 1.9182 69.8084 1 68.6758 1ZM5.10156 55.9609V16.0391H66.625V55.9609H5.10156ZM59.7891 11.9375H66.625V5.10156H59.7891V11.9375ZM55.6875 11.9375H48.8516V5.10156H55.6875V11.9375ZM37.9141 11.9375H44.75V5.10156H37.9141V11.9375ZM33.8125 11.9375H26.9766V5.10156H33.8125V11.9375ZM16.0391 11.9375H22.875V5.10156H16.0391V11.9375ZM5.10156 5.10156H11.9375V11.9375H5.10156V5.10156ZM11.9375 60.0625H5.10156V66.8984H11.9375V60.0625ZM16.0391 60.0625H22.875V66.8984H16.0391V60.0625ZM33.8125 60.0625H26.9766V66.8984H33.8125V60.0625ZM37.9141 60.0625H44.75V66.8984H37.9141V60.0625ZM55.6875 60.0625H48.8516V66.8984H55.6875V60.0625ZM66.625 66.8984H59.7891V60.0625H66.625V66.8984ZM47.0664 34.2179L29.7722 23.2705C29.1988 22.9074 28.4942 22.91 27.9229 23.2773C27.3516 23.6445 27 24.3209 27 25.0526V46.9474C27 47.6791 27.3516 48.3555 27.9229 48.7228C28.2105 48.9076 28.5316 49 28.8529 49C29.17 49 29.4874 48.9098 29.7722 48.7295L47.0664 37.7821C47.6437 37.4167 48 36.7365 48 36C48 35.2635 47.6437 34.5832 47.0664 34.2179ZM31 29L43 36.5L31 44V29Z" fill="#232323"/>
<path d="M5.10156 16.0391V15.8391H4.90156V16.0391H5.10156ZM5.10156 55.9609H4.90156V56.1609H5.10156V55.9609ZM66.625 16.0391H66.825V15.8391H66.625V16.0391ZM66.625 55.9609V56.1609H66.825V55.9609H66.625ZM66.625 11.9375V12.1375H66.825V11.9375H66.625ZM59.7891 11.9375H59.5891V12.1375H59.7891V11.9375ZM66.625 5.10156H66.825V4.90156H66.625V5.10156ZM59.7891 5.10156V4.90156H59.5891V5.10156H59.7891ZM48.8516 11.9375H48.6516V12.1375H48.8516V11.9375ZM55.6875 11.9375V12.1375H55.8875V11.9375H55.6875ZM48.8516 5.10156V4.90156H48.6516V5.10156H48.8516ZM55.6875 5.10156H55.8875V4.90156H55.6875V5.10156ZM44.75 11.9375V12.1375H44.95V11.9375H44.75ZM37.9141 11.9375H37.7141V12.1375H37.9141V11.9375ZM44.75 5.10156H44.95V4.90156H44.75V5.10156ZM37.9141 5.10156V4.90156H37.7141V5.10156H37.9141ZM26.9766 11.9375H26.7766V12.1375H26.9766V11.9375ZM33.8125 11.9375V12.1375H34.0125V11.9375H33.8125ZM26.9766 5.10156V4.90156H26.7766V5.10156H26.9766ZM33.8125 5.10156H34.0125V4.90156H33.8125V5.10156ZM22.875 11.9375V12.1375H23.075V11.9375H22.875ZM16.0391 11.9375H15.8391V12.1375H16.0391V11.9375ZM22.875 5.10156H23.075V4.90156H22.875V5.10156ZM16.0391 5.10156V4.90156H15.8391V5.10156H16.0391ZM11.9375 5.10156H12.1375V4.90156H11.9375V5.10156ZM5.10156 5.10156V4.90156H4.90156V5.10156H5.10156ZM11.9375 11.9375V12.1375H12.1375V11.9375H11.9375ZM5.10156 11.9375H4.90156V12.1375H5.10156V11.9375ZM5.10156 60.0625V59.8625H4.90156V60.0625H5.10156ZM11.9375 60.0625H12.1375V59.8625H11.9375V60.0625ZM5.10156 66.8984H4.90156V67.0984H5.10156V66.8984ZM11.9375 66.8984V67.0984H12.1375V66.8984H11.9375ZM22.875 60.0625H23.075V59.8625H22.875V60.0625ZM16.0391 60.0625V59.8625H15.8391V60.0625H16.0391ZM22.875 66.8984V67.0984H23.075V66.8984H22.875ZM16.0391 66.8984H15.8391V67.0984H16.0391V66.8984ZM26.9766 60.0625V59.8625H26.7766V60.0625H26.9766ZM33.8125 60.0625H34.0125V59.8625H33.8125V60.0625ZM26.9766 66.8984H26.7766V67.0984H26.9766V66.8984ZM33.8125 66.8984V67.0984H34.0125V66.8984H33.8125ZM44.75 60.0625H44.95V59.8625H44.75V60.0625ZM37.9141 60.0625V59.8625H37.7141V60.0625H37.9141ZM44.75 66.8984V67.0984H44.95V66.8984H44.75ZM37.9141 66.8984H37.7141V67.0984H37.9141V66.8984ZM48.8516 60.0625V59.8625H48.6516V60.0625H48.8516ZM55.6875 60.0625H55.8875V59.8625H55.6875V60.0625ZM48.8516 66.8984H48.6516V67.0984H48.8516V66.8984ZM55.6875 66.8984V67.0984H55.8875V66.8984H55.6875ZM59.7891 66.8984H59.5891V67.0984H59.7891V66.8984ZM66.625 66.8984V67.0984H66.825V66.8984H66.625ZM59.7891 60.0625V59.8625H59.5891V60.0625H59.7891ZM66.625 60.0625H66.825V59.8625H66.625V60.0625ZM29.7722 23.2705L29.6653 23.4394L29.6653 23.4395L29.7722 23.2705ZM47.0664 34.2179L46.9594 34.3869L46.9594 34.3869L47.0664 34.2179ZM27.9229 23.2773L28.031 23.4456L28.031 23.4455L27.9229 23.2773ZM27.9229 48.7228L28.031 48.5545H28.031L27.9229 48.7228ZM29.7722 48.7295L29.6653 48.5605L29.6653 48.5605L29.7722 48.7295ZM47.0664 37.7821L46.9594 37.6131L46.9594 37.6131L47.0664 37.7821ZM43 36.5L43.106 36.6696L43.3774 36.5L43.106 36.3304L43 36.5ZM31 29L31.106 28.8304L30.8 28.6392V29H31ZM31 44H30.8V44.3609L31.106 44.1696L31 44ZM3.05078 1.2H68.6758V0.8H3.05078V1.2ZM1.2 3.05078C1.2 2.02866 2.02866 1.2 3.05078 1.2V0.8C1.80775 0.8 0.8 1.80775 0.8 3.05078H1.2ZM1.2 68.9492V3.05078H0.8V68.9492H1.2ZM3.05078 70.8C2.02866 70.8 1.2 69.9713 1.2 68.9492H0.8C0.8 70.1923 1.80775 71.2 3.05078 71.2V70.8ZM68.6758 70.8H3.05078V71.2H68.6758V70.8ZM70.5266 68.9492C70.5266 69.9713 69.6979 70.8 68.6758 70.8V71.2C69.9188 71.2 70.9266 70.1923 70.9266 68.9492H70.5266ZM70.5266 3.05078V68.9492H70.9266V3.05078H70.5266ZM68.6758 1.2C69.6979 1.2 70.5266 2.02866 70.5266 3.05078H70.9266C70.9266 1.80775 69.9188 0.8 68.6758 0.8V1.2ZM4.90156 16.0391V55.9609H5.30156V16.0391H4.90156ZM66.625 15.8391H5.10156V16.2391H66.625V15.8391ZM66.825 55.9609V16.0391H66.425V55.9609H66.825ZM5.10156 56.1609H66.625V55.7609H5.10156V56.1609ZM66.625 11.7375H59.7891V12.1375H66.625V11.7375ZM66.425 5.10156V11.9375H66.825V5.10156H66.425ZM59.7891 5.30156H66.625V4.90156H59.7891V5.30156ZM59.9891 11.9375V5.10156H59.5891V11.9375H59.9891ZM48.8516 12.1375H55.6875V11.7375H48.8516V12.1375ZM48.6516 5.10156V11.9375H49.0516V5.10156H48.6516ZM55.6875 4.90156H48.8516V5.30156H55.6875V4.90156ZM55.8875 11.9375V5.10156H55.4875V11.9375H55.8875ZM44.75 11.7375H37.9141V12.1375H44.75V11.7375ZM44.55 5.10156V11.9375H44.95V5.10156H44.55ZM37.9141 5.30156H44.75V4.90156H37.9141V5.30156ZM38.1141 11.9375V5.10156H37.7141V11.9375H38.1141ZM26.9766 12.1375H33.8125V11.7375H26.9766V12.1375ZM26.7766 5.10156V11.9375H27.1766V5.10156H26.7766ZM33.8125 4.90156H26.9766V5.30156H33.8125V4.90156ZM34.0125 11.9375V5.10156H33.6125V11.9375H34.0125ZM22.875 11.7375H16.0391V12.1375H22.875V11.7375ZM22.675 5.10156V11.9375H23.075V5.10156H22.675ZM16.0391 5.30156H22.875V4.90156H16.0391V5.30156ZM16.2391 11.9375V5.10156H15.8391V11.9375H16.2391ZM11.9375 4.90156H5.10156V5.30156H11.9375V4.90156ZM12.1375 11.9375V5.10156H11.7375V11.9375H12.1375ZM5.10156 12.1375H11.9375V11.7375H5.10156V12.1375ZM4.90156 5.10156V11.9375H5.30156V5.10156H4.90156ZM5.10156 60.2625H11.9375V59.8625H5.10156V60.2625ZM5.30156 66.8984V60.0625H4.90156V66.8984H5.30156ZM11.9375 66.6984H5.10156V67.0984H11.9375V66.6984ZM11.7375 60.0625V66.8984H12.1375V60.0625H11.7375ZM22.875 59.8625H16.0391V60.2625H22.875V59.8625ZM23.075 66.8984V60.0625H22.675V66.8984H23.075ZM16.0391 67.0984H22.875V66.6984H16.0391V67.0984ZM15.8391 60.0625V66.8984H16.2391V60.0625H15.8391ZM26.9766 60.2625H33.8125V59.8625H26.9766V60.2625ZM27.1766 66.8984V60.0625H26.7766V66.8984H27.1766ZM33.8125 66.6984H26.9766V67.0984H33.8125V66.6984ZM33.6125 60.0625V66.8984H34.0125V60.0625H33.6125ZM44.75 59.8625H37.9141V60.2625H44.75V59.8625ZM44.95 66.8984V60.0625H44.55V66.8984H44.95ZM37.9141 67.0984H44.75V66.6984H37.9141V67.0984ZM37.7141 60.0625V66.8984H38.1141V60.0625H37.7141ZM48.8516 60.2625H55.6875V59.8625H48.8516V60.2625ZM49.0516 66.8984V60.0625H48.6516V66.8984H49.0516ZM55.6875 66.6984H48.8516V67.0984H55.6875V66.6984ZM55.4875 60.0625V66.8984H55.8875V60.0625H55.4875ZM59.7891 67.0984H66.625V66.6984H59.7891V67.0984ZM59.5891 60.0625V66.8984H59.9891V60.0625H59.5891ZM66.625 59.8625H59.7891V60.2625H66.625V59.8625ZM66.825 66.8984V60.0625H66.425V66.8984H66.825ZM29.6653 23.4395L46.9594 34.3869L47.1733 34.0489L29.8792 23.1015L29.6653 23.4395ZM28.031 23.4455C28.537 23.1203 29.1577 23.1181 29.6653 23.4394L29.8792 23.1015C29.24 22.6968 28.4515 22.6997 27.8147 23.1091L28.031 23.4455ZM27.2 25.0526C27.2 24.3826 27.5221 23.7726 28.031 23.4456L27.8148 23.1091C27.1811 23.5163 26.8 24.2591 26.8 25.0526H27.2ZM27.2 46.9474V25.0526H26.8V46.9474H27.2ZM28.031 48.5545C27.5221 48.2273 27.2 47.6173 27.2 46.9474H26.8C26.8 47.7408 27.1811 48.4836 27.8147 48.891L28.031 48.5545ZM28.8529 48.8C28.5704 48.8 28.2867 48.7189 28.031 48.5545L27.8147 48.891C28.1342 49.0964 28.4929 49.2 28.8529 49.2V48.8ZM29.6653 48.5605C29.412 48.7208 29.1317 48.8 28.8529 48.8V49.2C29.2084 49.2 29.5627 49.0988 29.8792 48.8984L29.6653 48.5605ZM46.9594 37.6131L29.6653 48.5605L29.8792 48.8984L47.1733 37.951L46.9594 37.6131ZM47.8 36C47.8 36.6743 47.4736 37.2877 46.9594 37.6131L47.1733 37.9511C47.8139 37.5457 48.2 36.7986 48.2 36H47.8ZM46.9594 34.3869C47.4736 34.7123 47.8 35.3256 47.8 36H48.2C48.2 35.2014 47.8139 34.4542 47.1733 34.0489L46.9594 34.3869ZM43.106 36.3304L31.106 28.8304L30.894 29.1696L42.894 36.6696L43.106 36.3304ZM31.106 44.1696L43.106 36.6696L42.894 36.3304L30.894 43.8304L31.106 44.1696ZM30.8 29V44H31.2V29H30.8Z" fill="#232323"/>
</svg>
