<svg width="21" height="20" viewBox="0 0 21 20" fill="none" xmlns="http://www.w3.org/2000/svg">
<path fill-rule="evenodd" clip-rule="evenodd" d="M20.199 18.4489L16.4285 15.1435C19.4178 11.5064 19.2144 6.10716 15.8175 2.71027C12.2038 -0.903422 6.32395 -0.903422 2.71027 2.71027C-0.903422 6.32395 -0.903422 12.2038 2.71027 15.8175C6.10625 19.2135 11.5048 19.4191 15.1435 16.4285L18.914 19.7339C19.2689 20.0887 19.8441 20.0887 20.1989 19.7339C20.5538 19.379 20.5538 18.8037 20.199 18.4489ZM14.5326 14.5325C11.6274 17.4377 6.9004 17.4376 3.99524 14.5325C1.09008 11.6274 1.09008 6.90035 3.99524 3.99519C6.90031 1.09017 11.6273 1.08995 14.5326 3.99519C17.4377 6.90035 17.4377 11.6274 14.5326 14.5325ZM10.1725 8.35525H13.7126C14.2144 8.35525 14.6212 8.76204 14.6212 9.26386C14.6212 9.76568 14.2144 10.1725 13.7126 10.1725H10.1725V13.7126C10.1725 14.2144 9.76568 14.6212 9.26386 14.6212C8.76204 14.6212 8.35525 14.2144 8.35525 13.7126V10.1725H4.8151C4.31328 10.1725 3.90649 9.76568 3.90649 9.26386C3.90649 8.76204 4.31328 8.35525 4.8151 8.35525H8.35525V4.8151C8.35525 4.31328 8.76204 3.90649 9.26386 3.90649C9.76568 3.90649 10.1725 4.31328 10.1725 4.8151V8.35525Z" fill="#232323"/>
</svg>
