<svg width="783" height="410" viewBox="0 0 783 410" fill="none" xmlns="http://www.w3.org/2000/svg">
<path d="M646.716 10.5141C647.305 10.1269 647.857 9.76635 648.371 9.43272L696.063 80.1397C692.313 82.7111 685.659 87.2459 673.862 95.2359C647.785 112.896 596.616 147.413 496.218 214.864C503.016 155.955 539.49 105.376 576.1 68.4816C595.573 48.8572 614.886 33.3063 629.333 22.6628C636.551 17.3444 642.543 13.2603 646.716 10.5141Z" stroke="#232323" stroke-width="12"/>
<path d="M24.9896 175.316C31.4066 172.877 40.3316 170.637 52.4192 168.809C148.669 166.892 424.525 168.506 468.595 168.78V220.097H53.2606C50.784 218.904 44.675 215.861 37.8076 211.716C29.8202 206.896 21.367 200.912 16.2163 194.914C13.6388 191.912 12.2964 189.369 11.8979 187.375C11.5648 185.709 11.8111 184.168 13.2837 182.38C14.9705 180.332 18.4316 177.809 24.9896 175.316Z" stroke="#232323" stroke-width="12"/>
<rect opacity="0.3" x="715.057" y="124.85" width="18.9838" height="31.6397" rx="8.93356" fill="#232323"/>
<rect opacity="0.6" x="715.057" y="169.146" width="18.9838" height="31.6397" rx="8.93356" fill="#232323"/>
<rect opacity="0.8" x="715.057" y="213.441" width="18.9838" height="31.6397" rx="8.93356" fill="#232323"/>
<path fill-rule="evenodd" clip-rule="evenodd" d="M513.554 244.984C513.007 245.266 512.385 245.425 511.727 245.425H16.6562C14.4471 245.425 12.6562 243.634 12.6562 241.425V236.425C12.6562 234.216 14.4471 232.425 16.6562 232.425H508.257C508.339 232.36 508.423 232.297 508.509 232.235C508.598 232.17 508.689 232.107 508.782 232.047L717.231 95.7083C719.998 93.8986 723.708 94.681 725.509 97.4538C727.29 100.196 726.534 103.862 723.813 105.676L516.577 243.85C515.631 244.481 514.598 244.851 513.554 244.984ZM12.6562 256.573C12.6562 255.468 13.5517 254.573 14.6562 254.573H738.656C739.761 254.573 740.656 255.468 740.656 256.573V264.573C740.656 265.677 739.761 266.573 738.656 266.573H14.6562C13.5517 266.573 12.6562 265.677 12.6562 264.573V256.573ZM107.863 276.72H119.863V338C119.863 339.104 118.967 340 117.863 340H109.863C108.758 340 107.863 339.104 107.863 338V276.72ZM683.049 276.72H671.049V338C671.049 339.104 671.944 340 673.049 340H681.049C682.154 340 683.049 339.104 683.049 338V276.72Z" fill="#232323"/>
<g opacity="0.614258" filter="url(#filter0_f)">
<path fill-rule="evenodd" clip-rule="evenodd" d="M395 347C574.493 347 720 338.493 720 328C720 317.507 574.493 309 395 309C215.507 309 70 317.507 70 328C70 338.493 215.507 347 395 347Z" fill="black"/>
</g>
<defs>
<filter id="filter0_f" x="7.47952" y="246.48" width="775.041" height="163.041" filterUnits="userSpaceOnUse" color-interpolation-filters="sRGB">
<feFlood flood-opacity="0" result="BackgroundImageFix"/>
<feBlend mode="normal" in="SourceGraphic" in2="BackgroundImageFix" result="shape"/>
<feGaussianBlur stdDeviation="31.2602" result="effect1_foregroundBlur"/>
</filter>
</defs>
</svg>
