<svg width="72" height="72" viewBox="0 0 72 72" fill="none" xmlns="http://www.w3.org/2000/svg">
<path fill-rule="evenodd" clip-rule="evenodd" d="M31.0165 8.56647L30.3051 7.67329C29.2609 6.36243 29.2594 4.52999 30.3014 3.21721C30.7709 2.62577 30.6719 1.76581 30.0805 1.29645C29.4889 0.826823 28.6291 0.925945 28.1596 1.51739C26.3218 3.83286 26.3246 7.06475 28.1663 9.37694L28.8776 10.2701C30.2422 11.9832 30.2443 14.3778 28.8826 16.0935L28.1536 17.012C27.6841 17.6034 27.7831 18.4634 28.3745 18.9328C28.6259 19.1322 28.9258 19.2292 29.2235 19.2292C29.6263 19.2292 30.0254 19.052 30.2954 18.7118L31.0244 17.7933C33.1818 15.0751 33.1787 11.2809 31.0165 8.56647ZM69.6328 29.2325H58.4219V26.3385C58.4219 25.5834 57.8096 24.9714 57.0547 24.9714H13.6256H12.5234H11.6834L11.6639 24.9715H2.36719C1.61223 24.9715 1 25.5836 1 26.3387V38.1875C1 43.3555 2.38906 48.4229 5.01707 52.8415C6.78936 55.8215 9.08896 58.4531 11.7819 60.6094H2.36719C1.61223 60.6094 1 61.2215 1 61.9766C1 66.9522 5.04783 71 10.0234 71H52.6797C57.6553 71 61.7031 66.9522 61.7031 61.9766C61.7031 61.2215 61.0909 60.6094 60.3359 60.6094H47.64C50.1185 58.6248 52.2627 56.2367 53.9703 53.5456H57.8295C65.0917 53.5456 71 47.6373 71 40.375V30.5997C71 29.8446 70.3879 29.2325 69.6328 29.2325ZM12.0757 27.7059H3.73438V38.1875C3.73438 47.3951 8.65037 55.9531 16.5884 60.6093H42.8335C50.7715 55.9529 55.6875 47.3951 55.6875 38.1874V27.7057H13.8259C13.7564 27.7159 13.6852 27.7208 13.6128 27.7201L12.0757 27.7059ZM58.819 63.3438C58.1931 66.1564 55.6781 68.2657 52.6797 68.2657H10.0234C7.02506 68.2657 4.51012 66.1564 3.88408 63.3438H16.2221H43.1997H58.819ZM58.4219 37.4356V38.1875C58.4219 40.6136 58.1158 43.0174 57.519 45.3424H57.8295C60.5685 45.3424 62.7969 43.1141 62.7969 40.375V37.4356H58.4219ZM68.2656 40.375C68.2656 46.1295 63.584 50.8112 57.8295 50.8112H55.5025C55.9391 49.9197 56.329 49.0069 56.6697 48.0768H57.8295C62.0764 48.0768 65.5312 44.6218 65.5312 40.375V36.0684C65.5312 35.3133 64.919 34.7012 64.1641 34.7012H58.4219V31.9668H68.2656V40.375ZM37.8833 10.7474L38.5947 11.6405C40.7567 14.3551 40.7599 18.1494 38.6023 20.8675L37.8736 21.7858C37.6037 22.1258 37.2045 22.3032 36.8017 22.3032C36.5039 22.3032 36.2041 22.2064 35.9527 22.0069C35.3613 21.5375 35.2623 20.6776 35.7318 20.0861L36.4606 19.1678C37.8223 17.4522 37.8203 15.0575 36.4558 13.3442L35.7445 12.4511C33.9027 10.1387 33.9 6.90684 35.7378 4.59137C36.2073 3.99993 37.0671 3.90081 37.6587 4.37044C38.2501 4.83979 38.3491 5.69975 37.8796 6.2912C36.8375 7.60397 36.839 9.43641 37.8833 10.7474ZM23.4383 11.6406L22.7269 10.7475C21.6827 9.43669 21.6812 7.60411 22.7231 6.29134C23.1926 5.69989 23.0936 4.83993 22.5022 4.37044C21.9106 3.90094 21.0508 4.0002 20.5813 4.59137C18.7436 6.90684 18.7464 10.1389 20.5881 12.4511L21.2995 13.3442C22.6639 15.0575 22.666 17.4522 21.3044 19.1676L20.5754 20.086C20.1059 20.6774 20.2047 21.5374 20.7962 22.0069C21.0476 22.2064 21.3473 22.3033 21.6452 22.3033C22.048 22.3033 22.4471 22.1261 22.717 21.7861L23.4461 20.8676C25.6035 18.1495 25.6004 14.3553 23.4383 11.6406ZM49.125 38.1875C49.125 37.4324 49.7372 36.8204 50.4922 36.8204C51.2471 36.8204 51.8594 37.4324 51.8594 38.1875C51.8594 43.9777 49.5122 49.6666 45.4196 53.7955C45.1524 54.0652 44.8004 54.2003 44.4485 54.2005C44.1006 54.2005 43.7526 54.0685 43.486 53.8042C42.9498 53.2727 42.9459 52.407 43.4774 51.8708C47.0666 48.2498 49.125 43.2624 49.125 38.1875Z" fill="white"/>
<path d="M30.3051 7.67329L30.4616 7.54869L30.4615 7.54867L30.3051 7.67329ZM31.0165 8.56647L30.86 8.69107L30.86 8.69108L31.0165 8.56647ZM30.3014 3.21721L30.1448 3.09287V3.09287L30.3014 3.21721ZM30.0805 1.29645L29.9561 1.45309L29.9562 1.45312L30.0805 1.29645ZM28.1596 1.51739L28.0029 1.39304L28.0029 1.39305L28.1596 1.51739ZM28.1663 9.37694L28.3227 9.25234L28.3227 9.25233L28.1663 9.37694ZM28.8776 10.2701L28.7212 10.3947L28.7212 10.3947L28.8776 10.2701ZM28.8826 16.0935L28.7259 15.9692L28.8826 16.0935ZM28.1536 17.012L28.3102 17.1363L28.3102 17.1363L28.1536 17.012ZM28.3745 18.9328L28.2502 19.0894L28.2502 19.0894L28.3745 18.9328ZM30.2954 18.7118L30.4521 18.8362L30.4521 18.8362L30.2954 18.7118ZM31.0244 17.7933L31.181 17.9177L31.1811 17.9177L31.0244 17.7933ZM58.4219 29.2325H58.2219V29.4325H58.4219V29.2325ZM11.6834 24.9714V24.7714L11.682 24.7714L11.6834 24.9714ZM11.6639 24.9715V25.1715L11.6653 25.1715L11.6639 24.9715ZM5.01707 52.8415L5.18897 52.7392L5.18897 52.7392L5.01707 52.8415ZM11.7819 60.6094V60.8094H12.3517L11.9069 60.4533L11.7819 60.6094ZM47.64 60.6094L47.515 60.4533L47.0702 60.8094H47.64V60.6094ZM53.9703 53.5456V53.3456H53.8604L53.8014 53.4384L53.9703 53.5456ZM3.73438 27.7059V27.5059H3.53437V27.7059H3.73438ZM12.0757 27.7059L12.0776 27.5059H12.0757V27.7059ZM16.5884 60.6093L16.4872 60.7818L16.5341 60.8093H16.5884V60.6093ZM42.8335 60.6093V60.8093H42.8878L42.9347 60.7818L42.8335 60.6093ZM55.6875 27.7057H55.8875V27.5057H55.6875V27.7057ZM13.8259 27.7057V27.5057H13.8113L13.797 27.5078L13.8259 27.7057ZM13.6128 27.7201L13.611 27.9201H13.611L13.6128 27.7201ZM58.819 63.3438L59.0143 63.3872L59.0684 63.1438H58.819V63.3438ZM3.88408 63.3438V63.1438H3.63467L3.68886 63.3872L3.88408 63.3438ZM58.4219 37.4356V37.2356H58.2219V37.4356H58.4219ZM57.519 45.3424L57.3253 45.2927L57.2612 45.5424H57.519V45.3424ZM62.7969 37.4356H62.9969V37.2356H62.7969V37.4356ZM55.5025 50.8112L55.3229 50.7232L55.1819 51.0112H55.5025V50.8112ZM56.6697 48.0768V47.8768H56.53L56.4819 48.008L56.6697 48.0768ZM58.4219 34.7012H58.2219V34.9012H58.4219V34.7012ZM58.4219 31.9668V31.7668H58.2219V31.9668H58.4219ZM68.2656 31.9668H68.4656V31.7668H68.2656V31.9668ZM38.5947 11.6405L38.7511 11.5159L38.7511 11.5158L38.5947 11.6405ZM37.8833 10.7474L37.7269 10.872V10.872L37.8833 10.7474ZM38.6023 20.8675L38.4457 20.7431L38.4456 20.7432L38.6023 20.8675ZM37.8736 21.7858L38.0302 21.9101L38.0303 21.9101L37.8736 21.7858ZM35.9527 22.0069L35.8284 22.1635L35.8284 22.1636L35.9527 22.0069ZM35.7318 20.0861L35.8884 20.2105L35.8884 20.2105L35.7318 20.0861ZM36.4606 19.1678L36.304 19.0434L36.3039 19.0434L36.4606 19.1678ZM36.4558 13.3442L36.2994 13.4688H36.2994L36.4558 13.3442ZM35.7445 12.4511L35.9009 12.3265L35.9009 12.3265L35.7445 12.4511ZM35.7378 4.59137L35.5811 4.46703L35.5811 4.46704L35.7378 4.59137ZM37.6587 4.37044L37.5343 4.52708L37.5343 4.5271L37.6587 4.37044ZM37.8796 6.2912L37.723 6.16685V6.16685L37.8796 6.2912ZM22.7269 10.7475L22.8834 10.6229L22.8834 10.6229L22.7269 10.7475ZM23.4383 11.6406L23.5947 11.516L23.5947 11.516L23.4383 11.6406ZM22.7231 6.29134L22.5665 6.16699L22.5665 6.167L22.7231 6.29134ZM22.5022 4.37044L22.6265 4.21379L22.6265 4.21378L22.5022 4.37044ZM20.5813 4.59137L20.4247 4.46699L20.4246 4.46704L20.5813 4.59137ZM20.5881 12.4511L20.7446 12.3265L20.7445 12.3265L20.5881 12.4511ZM21.2995 13.3442L21.143 13.4688V13.4688L21.2995 13.3442ZM21.3044 19.1676L21.461 19.292L21.461 19.292L21.3044 19.1676ZM20.5754 20.086L20.732 20.2103L20.5754 20.086ZM20.7962 22.0069L20.6718 22.1635L20.6719 22.1636L20.7962 22.0069ZM22.717 21.7861L22.5603 21.6617L22.5603 21.6617L22.717 21.7861ZM23.4461 20.8676L23.6027 20.992L23.6027 20.9919L23.4461 20.8676ZM45.4196 53.7955L45.2776 53.6547L45.2776 53.6547L45.4196 53.7955ZM44.4485 54.2005V54.4005H44.4486L44.4485 54.2005ZM43.486 53.8042L43.3452 53.9463L43.3452 53.9463L43.486 53.8042ZM43.4774 51.8708L43.6195 52.0116L43.6195 52.0116L43.4774 51.8708ZM30.1487 7.79789L30.86 8.69107L31.1729 8.44187L30.4616 7.54869L30.1487 7.79789ZM30.1448 3.09287C29.0448 4.47855 29.0464 6.41421 30.1487 7.7979L30.4615 7.54867C29.4753 6.31064 29.4739 4.58142 30.4581 3.34156L30.1448 3.09287ZM29.9562 1.45312C30.4611 1.85381 30.5456 2.58795 30.1448 3.09287L30.4581 3.34156C30.9963 2.66358 30.8828 1.67781 30.2048 1.13979L29.9562 1.45312ZM28.3162 1.64174C28.7171 1.13676 29.4511 1.05218 29.9561 1.45309L30.2048 1.13981C29.5267 0.601464 28.5411 0.715131 28.0029 1.39304L28.3162 1.64174ZM28.3227 9.25233C26.539 7.01297 26.5363 3.88428 28.3162 1.64173L28.0029 1.39305C26.1073 3.78144 26.1101 7.11654 28.0099 9.50155L28.3227 9.25233ZM29.0341 10.1455L28.3227 9.25234L28.0098 9.50154L28.7212 10.3947L29.0341 10.1455ZM29.0392 16.2179C30.4588 14.4293 30.4567 11.9314 29.0341 10.1455L28.7212 10.3947C30.0278 12.035 30.0298 14.3264 28.7259 15.9692L29.0392 16.2179ZM28.3102 17.1363L29.0392 16.2179L28.7259 15.9692L27.9969 16.8877L28.3102 17.1363ZM28.4988 18.7761C27.9939 18.3754 27.9094 17.6413 28.3102 17.1363L27.9969 16.8877C27.4587 17.5656 27.5722 18.5514 28.2502 19.0894L28.4988 18.7761ZM29.2235 19.0292C28.9693 19.0292 28.7137 18.9465 28.4988 18.7761L28.2502 19.0894C28.5382 19.3179 28.8822 19.4292 29.2235 19.4292V19.0292ZM30.1388 18.5875C29.9083 18.8778 29.5679 19.0292 29.2235 19.0292V19.4292C29.6847 19.4292 30.1425 19.2261 30.4521 18.8362L30.1388 18.5875ZM30.8677 17.669L30.1388 18.5875L30.4521 18.8362L31.181 17.9177L30.8677 17.669ZM30.86 8.69108C32.9642 11.3327 32.9673 15.0237 30.8677 17.669L31.1811 17.9177C33.3963 15.1265 33.3931 11.2291 31.1729 8.44186L30.86 8.69108ZM58.4219 29.4325H69.6328V29.0325H58.4219V29.4325ZM58.2219 26.3385V29.2325H58.6219V26.3385H58.2219ZM57.0547 25.1714C57.6992 25.1714 58.2219 25.6939 58.2219 26.3385H58.6219C58.6219 25.473 57.9201 24.7714 57.0547 24.7714V25.1714ZM13.6256 25.1714H57.0547V24.7714H13.6256V25.1714ZM12.5234 25.1714H13.6256V24.7714H12.5234V25.1714ZM11.6834 25.1714H12.5234V24.7714H11.6834V25.1714ZM11.6653 25.1715L11.6848 25.1714L11.682 24.7714L11.6625 24.7715L11.6653 25.1715ZM2.36719 25.1715H11.6639V24.7715H2.36719V25.1715ZM1.2 26.3387C1.2 25.6941 1.72267 25.1715 2.36719 25.1715V24.7715C1.50178 24.7715 0.8 25.4731 0.8 26.3387H1.2ZM1.2 38.1875V26.3387H0.8V38.1875H1.2ZM5.18897 52.7392C2.57946 48.3517 1.2 43.3197 1.2 38.1875H0.8C0.8 43.3913 2.19867 48.494 4.84518 52.9437L5.18897 52.7392ZM11.9069 60.4533C9.23253 58.3118 6.94887 55.6985 5.18897 52.7392L4.84517 52.9437C6.62984 55.9446 8.9454 58.5943 11.6569 60.7655L11.9069 60.4533ZM2.36719 60.8094H11.7819V60.4094H2.36719V60.8094ZM1.2 61.9766C1.2 61.332 1.72267 60.8094 2.36719 60.8094V60.4094C1.50178 60.4094 0.8 61.111 0.8 61.9766H1.2ZM10.0234 70.8C5.15829 70.8 1.2 66.8418 1.2 61.9766H0.8C0.8 67.0627 4.93738 71.2 10.0234 71.2V70.8ZM52.6797 70.8H10.0234V71.2H52.6797V70.8ZM61.5031 61.9766C61.5031 66.8418 57.5448 70.8 52.6797 70.8V71.2C57.7658 71.2 61.9031 67.0627 61.9031 61.9766H61.5031ZM60.3359 60.8094C60.9805 60.8094 61.5031 61.332 61.5031 61.9766H61.9031C61.9031 61.111 61.2013 60.4094 60.3359 60.4094V60.8094ZM47.64 60.8094H60.3359V60.4094H47.64V60.8094ZM53.8014 53.4384C52.1057 56.1109 49.9764 58.4824 47.515 60.4533L47.765 60.7655C50.2607 58.7672 52.4197 56.3626 54.1392 53.6527L53.8014 53.4384ZM57.8295 53.3456H53.9703V53.7456H57.8295V53.3456ZM70.8 40.375C70.8 47.5268 64.9812 53.3456 57.8295 53.3456V53.7456C65.2022 53.7456 71.2 47.7477 71.2 40.375H70.8ZM70.8 30.5997V40.375H71.2V30.5997H70.8ZM69.6328 29.4325C70.2775 29.4325 70.8 29.955 70.8 30.5997H71.2C71.2 29.7341 70.4984 29.0325 69.6328 29.0325V29.4325ZM3.73438 27.9059H12.0757V27.5059H3.73438V27.9059ZM3.93438 38.1875V27.7059H3.53437V38.1875H3.93438ZM16.6896 60.4368C8.8126 55.8163 3.93438 47.324 3.93438 38.1875H3.53437C3.53437 47.4663 8.48814 56.0898 16.4872 60.7818L16.6896 60.4368ZM42.8335 60.4093H16.5884V60.8093H42.8335V60.4093ZM55.4875 38.1874C55.4875 47.324 50.6093 55.8162 42.7323 60.4368L42.9347 60.7818C50.9337 56.0896 55.8875 47.4663 55.8875 38.1874H55.4875ZM55.4875 27.7057V38.1874H55.8875V27.7057H55.4875ZM13.8259 27.9057H55.6875V27.5057H13.8259V27.9057ZM13.611 27.9201C13.6937 27.9209 13.7751 27.9153 13.8547 27.9036L13.797 27.5078C13.7376 27.5165 13.6768 27.5207 13.6147 27.5201L13.611 27.9201ZM12.0739 27.9059L13.611 27.9201L13.6147 27.5201L12.0776 27.5059L12.0739 27.9059ZM52.6797 68.4657C55.7739 68.4657 58.3685 66.2892 59.0143 63.3872L58.6238 63.3004C58.0178 66.0236 55.5822 68.0657 52.6797 68.0657V68.4657ZM10.0234 68.4657H52.6797V68.0657H10.0234V68.4657ZM3.68886 63.3872C4.33478 66.2892 6.92917 68.4657 10.0234 68.4657V68.0657C7.12095 68.0657 4.68546 66.0236 4.0793 63.3003L3.68886 63.3872ZM16.2221 63.1438H3.88408V63.5438H16.2221V63.1438ZM43.1997 63.1438H16.2221V63.5438H43.1997V63.1438ZM58.819 63.1438H43.1997V63.5438H58.819V63.1438ZM58.6219 38.1875V37.4356H58.2219V38.1875H58.6219ZM57.7127 45.3922C58.3136 43.0509 58.6219 40.6304 58.6219 38.1875H58.2219C58.2219 40.5968 57.9179 42.9839 57.3253 45.2927L57.7127 45.3922ZM57.8295 45.1424H57.519V45.5424H57.8295V45.1424ZM62.5969 40.375C62.5969 43.0036 60.458 45.1424 57.8295 45.1424V45.5424C60.679 45.5424 62.9969 43.2245 62.9969 40.375H62.5969ZM62.5969 37.4356V40.375H62.9969V37.4356H62.5969ZM58.4219 37.6356H62.7969V37.2356H58.4219V37.6356ZM57.8295 51.0112C63.6944 51.0112 68.4656 46.24 68.4656 40.375H68.0656C68.0656 46.0191 63.4735 50.6112 57.8295 50.6112V51.0112ZM55.5025 51.0112H57.8295V50.6112H55.5025V51.0112ZM56.4819 48.008C56.1436 48.9315 55.7564 49.8379 55.3229 50.7232L55.6821 50.8992C56.1217 50.0014 56.5144 49.0823 56.8575 48.1456L56.4819 48.008ZM57.8295 47.8768H56.6697V48.2768H57.8295V47.8768ZM65.3313 40.375C65.3313 44.5113 61.9659 47.8768 57.8295 47.8768V48.2768C62.1868 48.2768 65.7312 44.7323 65.7312 40.375H65.3313ZM65.3313 36.0684V40.375H65.7312V36.0684H65.3313ZM64.1641 34.9012C64.8086 34.9012 65.3313 35.4238 65.3313 36.0684H65.7312C65.7312 35.2028 65.0295 34.5012 64.1641 34.5012V34.9012ZM58.4219 34.9012H64.1641V34.5012H58.4219V34.9012ZM58.2219 31.9668V34.7012H58.6219V31.9668H58.2219ZM68.2656 31.7668H58.4219V32.1668H68.2656V31.7668ZM68.4656 40.375V31.9668H68.0656V40.375H68.4656ZM38.7511 11.5158L38.0397 10.6228L37.7269 10.872L38.4382 11.7651L38.7511 11.5158ZM38.759 20.9918C40.9744 18.2008 40.9712 14.3034 38.7511 11.5159L38.4382 11.7651C40.5423 14.4069 40.5453 18.0979 38.4457 20.7431L38.759 20.9918ZM38.0303 21.9101L38.759 20.9918L38.4456 20.7432L37.7169 21.6615L38.0303 21.9101ZM36.8017 22.5032C37.2629 22.5032 37.7208 22.3 38.0302 21.9101L37.7169 21.6615C37.4866 21.9517 37.1461 22.1032 36.8017 22.1032V22.5032ZM35.8284 22.1636C36.1164 22.3921 36.4604 22.5032 36.8017 22.5032V22.1032C36.5475 22.1032 36.2918 22.0206 36.077 21.8502L35.8284 22.1636ZM35.5751 19.9618C35.0369 20.6398 35.1504 21.6255 35.8284 22.1635L36.077 21.8502C35.5721 21.4495 35.4876 20.7154 35.8884 20.2105L35.5751 19.9618ZM36.3039 19.0434L35.5751 19.9618L35.8884 20.2105L36.6173 19.2921L36.3039 19.0434ZM36.2994 13.4688C37.6058 15.1092 37.6078 17.4008 36.304 19.0434L36.6173 19.2921C38.0369 17.5037 38.0347 15.0057 36.6123 13.2196L36.2994 13.4688ZM35.588 12.5757L36.2994 13.4688L36.6123 13.2196L35.9009 12.3265L35.588 12.5757ZM35.5811 4.46704C33.6855 6.85542 33.6883 10.1905 35.588 12.5757L35.9009 12.3265C34.1172 10.087 34.1145 6.95826 35.8944 4.71571L35.5811 4.46704ZM37.783 4.21379C37.1049 3.67545 36.1193 3.78912 35.5811 4.46703L35.8944 4.71572C36.2953 4.21074 37.0293 4.12617 37.5343 4.52708L37.783 4.21379ZM38.0363 6.41554C38.5744 5.73757 38.461 4.75179 37.783 4.21377L37.5343 4.5271C38.0393 4.92779 38.1238 5.66194 37.723 6.16685L38.0363 6.41554ZM38.0397 10.6228C37.0535 9.38463 37.0521 7.6554 38.0363 6.41554L37.723 6.16685C36.623 7.55254 36.6246 9.4882 37.7269 10.872L38.0397 10.6228ZM22.5705 10.8722L23.2818 11.7652L23.5947 11.516L22.8834 10.6229L22.5705 10.8722ZM22.5665 6.167C21.4667 7.55268 21.4682 9.48847 22.5705 10.8722L22.8834 10.6229C21.8971 9.3849 21.8957 7.65554 22.8798 6.41567L22.5665 6.167ZM22.3778 4.52708C22.8828 4.92792 22.9673 5.66208 22.5665 6.16699L22.8798 6.41568C23.4179 5.73769 23.3044 4.75194 22.6265 4.21379L22.3778 4.52708ZM20.7379 4.71576C21.1388 4.21099 21.8728 4.12631 22.3778 4.5271L22.6265 4.21378C21.9483 3.67558 20.9628 3.78942 20.4247 4.46699L20.7379 4.71576ZM20.7445 12.3265C18.9608 10.0871 18.9582 6.95826 20.7379 4.7157L20.4246 4.46704C18.5291 6.85542 18.5319 10.1907 20.4317 12.5757L20.7445 12.3265ZM21.4559 13.2196L20.7446 12.3265L20.4317 12.5757L21.143 13.4688L21.4559 13.2196ZM21.461 19.292C22.8805 17.5037 22.8783 15.0057 21.4559 13.2196L21.143 13.4688C22.4495 15.1093 22.4514 17.4008 21.1477 19.0433L21.461 19.292ZM20.732 20.2103L21.461 19.292L21.1477 19.0433L20.4187 19.9616L20.732 20.2103ZM20.9205 21.8502C20.4156 21.4494 20.3312 20.7153 20.732 20.2103L20.4187 19.9616C19.8806 20.6396 19.9939 21.6254 20.6718 22.1635L20.9205 21.8502ZM21.6452 22.1033C21.3909 22.1033 21.1354 22.0207 20.9205 21.8502L20.6719 22.1636C20.9599 22.392 21.3037 22.5033 21.6452 22.5033V22.1033ZM22.5603 21.6617C22.33 21.9519 21.9896 22.1033 21.6452 22.1033V22.5033C22.1064 22.5033 22.5642 22.3003 22.8736 21.9104L22.5603 21.6617ZM23.2894 20.7433L22.5603 21.6617L22.8736 21.9104L23.6027 20.992L23.2894 20.7433ZM23.2818 11.7652C25.3859 14.4071 25.389 18.0981 23.2894 20.7433L23.6027 20.9919C25.818 18.2009 25.8148 14.3035 23.5947 11.516L23.2818 11.7652ZM50.4922 36.6204C49.6268 36.6204 48.925 37.322 48.925 38.1875H49.325C49.325 37.5429 49.8477 37.0204 50.4922 37.0204V36.6204ZM52.0594 38.1875C52.0594 37.322 51.3576 36.6204 50.4922 36.6204V37.0204C51.1367 37.0204 51.6594 37.5429 51.6594 38.1875H52.0594ZM45.5617 53.9363C49.6912 49.7701 52.0594 44.0307 52.0594 38.1875H51.6594C51.6594 43.9247 49.3332 49.5631 45.2776 53.6547L45.5617 53.9363ZM44.4486 54.4005C44.8516 54.4003 45.2554 54.2454 45.5617 53.9363L45.2776 53.6547C45.0494 53.885 44.7493 54.0003 44.4485 54.0005L44.4486 54.4005ZM43.3452 53.9463C43.6508 54.2492 44.05 54.4005 44.4485 54.4005V54.0005C44.1512 54.0005 43.8545 53.8879 43.6268 53.6622L43.3452 53.9463ZM43.3354 51.73C42.726 52.3447 42.7306 53.337 43.3452 53.9463L43.6268 53.6622C43.169 53.2084 43.1657 52.4693 43.6195 52.0116L43.3354 51.73ZM48.925 38.1875C48.925 43.2094 46.8876 48.1462 43.3354 51.73L43.6195 52.0116C47.2455 48.3533 49.325 43.3154 49.325 38.1875H48.925Z" fill="white"/>
</svg>
