<svg width="78" height="71" viewBox="0 0 78 71" fill="none" xmlns="http://www.w3.org/2000/svg">
<path fill-rule="evenodd" clip-rule="evenodd" d="M61.23 49.2273C60.366 53.1061 59.2153 57.0031 57.6841 60.5054H67.7021C68.4137 60.5054 68.991 61.0827 68.991 61.795C68.991 62.5066 68.4137 63.0839 67.7021 63.0839H64.4281C61.8758 63.0839 59.498 64.2265 57.9042 66.219C57.5639 66.6439 57.1926 67.0353 56.7972 67.3938H62.5484C63.26 67.3938 63.8374 67.9711 63.8374 68.6827C63.8374 69.395 63.26 69.9717 62.5484 69.9717H7.4426C6.731 69.9717 6.15367 69.395 6.15367 68.6827C6.15367 67.9711 6.731 67.3938 7.4426 67.3938H13.1938C12.7984 67.036 12.4278 66.6453 12.0881 66.2203C10.4931 64.2265 8.11526 63.0839 5.56291 63.0839H2.28893C1.57733 63.0839 1 62.5066 1 61.795C1 61.0827 1.57733 60.5061 2.28893 60.5061H12.3076C7.13446 48.6741 6.30807 32.3396 6.1785 27.4148C6.15971 26.6925 6.42622 26.0097 6.92904 25.4935C7.43588 24.9739 8.11593 24.6872 8.84498 24.6872H11.0704C15.1077 20.4868 24.3793 17.7988 34.9955 17.7988C45.6124 17.7988 54.8833 20.4868 58.9213 24.6872H61.1467C61.8758 24.6872 62.5558 24.9739 63.062 25.4935C63.5655 26.0097 63.832 26.6925 63.8132 27.4148C63.8004 27.9069 63.7803 28.5137 63.7494 29.218C64.6966 28.9548 65.6768 28.8199 66.6811 28.8199C72.7095 28.8199 77.6135 33.7245 77.6135 39.7523C77.6135 45.7807 72.7095 50.6847 66.6811 50.6847C64.7618 50.6847 62.8787 50.1745 61.23 49.2273ZM75.0356 39.7523C75.0356 35.1457 71.2876 31.3977 66.6811 31.3977C65.611 31.3977 64.5765 31.5971 63.5984 31.9865C63.5285 33.0559 63.4379 34.2367 63.3204 35.5022C64.2455 34.7698 65.4123 34.3307 66.6811 34.3307C69.6704 34.3307 72.1026 36.7629 72.1026 39.7523C72.1026 42.7423 69.6704 45.1745 66.6811 45.1745C64.9356 45.1745 63.3815 44.3448 62.3893 43.0599C62.2121 44.1957 62.012 45.3544 61.7892 46.5232C63.2056 47.547 64.9229 48.1068 66.6811 48.1068C71.2876 48.1068 75.0356 44.3589 75.0356 39.7523ZM63.8374 39.7523C63.8374 38.1841 65.1129 36.9086 66.6811 36.9086C68.2493 36.9086 69.5248 38.1841 69.5248 39.7523C69.5248 41.3205 68.2493 42.5967 66.6811 42.5967C65.1129 42.5967 63.8374 41.3205 63.8374 39.7523ZM49.0717 22.2624C44.9653 21.0292 40.0975 20.3767 34.9955 20.3767C29.8935 20.3767 25.0258 21.0292 20.9193 22.2624C18.6852 22.9337 16.7565 23.7615 15.2339 24.6872H54.7571C53.2346 23.7615 51.3059 22.9337 49.0717 22.2624ZM10.3675 44.038C10.0312 42.0549 9.76402 40.1215 9.55121 38.3016C11.0563 38.3673 11.9035 38.6345 12.7923 38.9151C13.9034 39.2662 15.1621 39.6637 17.5412 39.6637C19.9204 39.6637 21.1798 39.2662 22.2908 38.9151C23.3146 38.5916 24.2819 38.2861 26.2637 38.2861C28.2447 38.2861 29.2114 38.5916 30.2345 38.9151C31.3449 39.2662 32.6036 39.6637 34.9821 39.6637C37.3619 39.6637 38.622 39.2662 39.733 38.9151C40.7574 38.5916 41.7248 38.2861 43.7079 38.2861C44.5034 38.2861 45.1915 38.3351 45.8111 38.4352C46.5133 38.5486 47.1752 38.0713 47.2894 37.3684C47.4028 36.6656 46.9255 36.0043 46.2226 35.8902C45.4654 35.768 44.643 35.7083 43.7079 35.7083C41.3274 35.7083 40.068 36.1057 38.957 36.4568C37.9325 36.7804 36.9645 37.0858 34.9821 37.0858C33.0014 37.0858 32.0354 36.7805 31.0118 36.457L31.0112 36.4568C29.9009 36.1057 28.6422 35.7083 26.2637 35.7083C23.8845 35.7083 22.6251 36.1057 21.5141 36.4568C20.4903 36.7804 19.523 37.0858 17.5412 37.0858C15.5595 37.0858 14.5928 36.7804 13.569 36.4568C12.5319 36.1292 11.3644 35.7606 9.27731 35.713C8.9242 32.0214 8.79933 29.0132 8.7557 27.3463C8.75502 27.3302 8.75704 27.3114 8.77584 27.2919C8.80202 27.2651 8.83424 27.2651 8.84498 27.2651H61.1467C61.1575 27.2651 61.189 27.2651 61.2152 27.2919C61.2347 27.3114 61.2367 27.3302 61.236 27.3463C61.1924 29.0132 61.0668 32.0214 60.7144 35.7136C60.7442 35.713 60.4398 38.3016 60.4398 38.3016C60.2277 40.1215 59.9605 42.0542 59.6242 44.0373C58.1956 44.1622 57.2511 44.4596 56.4173 44.7227C55.3922 45.0463 54.4235 45.3517 52.439 45.3517C50.4546 45.3517 49.4866 45.0463 48.4615 44.7227C47.3491 44.3716 46.089 43.9742 43.7079 43.9742C41.3274 43.9742 40.068 44.3716 38.957 44.7227C37.9325 45.0463 36.9645 45.3517 34.9821 45.3517C33.0014 45.3517 32.0354 45.0464 31.0118 44.7229L31.0112 44.7227C29.9009 44.3716 28.6422 43.9742 26.2637 43.9742C23.8845 43.9742 22.6251 44.3716 21.5141 44.7227L21.5092 44.7243L21.5091 44.7243C20.9195 44.9103 20.3621 45.0862 19.6364 45.2034C18.9336 45.3168 18.4556 45.9788 18.5697 46.6816C18.6831 47.3838 19.3457 47.8611 20.0473 47.7483C20.9609 47.6007 21.6369 47.3872 22.2908 47.1804L22.2957 47.1789C23.3177 46.8565 24.2851 46.5514 26.2643 46.5514C28.2447 46.5514 29.2114 46.8568 30.2345 47.1804C31.3449 47.5315 32.6036 47.9289 34.9821 47.9289C37.3626 47.9289 38.622 47.5315 39.733 47.1804L39.7379 47.1789C40.7605 46.8565 41.7286 46.5514 43.7079 46.5514C45.6912 46.5514 46.6599 46.8572 47.6844 47.1806L47.6861 47.1811L47.6871 47.1814C48.7986 47.5318 50.0586 47.9289 52.4397 47.9289C54.8194 47.9289 56.0794 47.532 57.1912 47.1817L57.1933 47.1811C57.7955 46.9904 58.3728 46.8092 59.1375 46.6903C58.1922 51.4513 56.8261 56.3338 54.8531 60.5054H15.1386C13.1656 56.3345 10.8542 46.691 10.8542 46.691C10.8542 46.691 10.3599 44.0373 10.3675 44.038ZM50.0975 67.3938C52.3632 67.3938 54.4745 66.3788 55.8896 64.6098C56.3401 64.0466 56.8409 63.5391 57.3793 63.0833H12.6124C13.1495 63.5384 13.6503 64.0459 14.1001 64.6085C15.5165 66.3794 17.6278 67.3938 19.8935 67.3938H50.0975Z" fill="white"/>
<path d="M57.6841 60.5054L57.5008 60.4253L57.3783 60.7054H57.6841V60.5054ZM61.23 49.2273L61.3296 49.0538L61.0938 48.9184L61.0347 49.1838L61.23 49.2273ZM57.9042 66.219L58.0603 66.344L58.0604 66.3439L57.9042 66.219ZM56.7972 67.3938L56.6629 67.2456L56.2789 67.5938H56.7972V67.3938ZM13.1938 67.3938V67.5938H13.7129L13.328 67.2455L13.1938 67.3938ZM12.0881 66.2203L12.2443 66.0955L12.2443 66.0954L12.0881 66.2203ZM12.3076 60.5061V60.7061H12.6134L12.4909 60.426L12.3076 60.5061ZM6.1785 27.4148L5.97857 27.42L5.97857 27.42L6.1785 27.4148ZM6.92904 25.4935L6.78587 25.3538L6.78577 25.3539L6.92904 25.4935ZM11.0704 24.6872V24.8872H11.1556L11.2146 24.8258L11.0704 24.6872ZM58.9213 24.6872L58.7771 24.8258L58.8361 24.8872H58.9213V24.6872ZM63.062 25.4935L62.9187 25.633L62.9188 25.6331L63.062 25.4935ZM63.8132 27.4148L63.6133 27.4096V27.4096L63.8132 27.4148ZM63.7494 29.218L63.5496 29.2092L63.5375 29.4844L63.8029 29.4107L63.7494 29.218ZM63.5984 31.9865L63.5244 31.8006L63.407 31.8474L63.3988 31.9734L63.5984 31.9865ZM63.3204 35.5022L63.1213 35.4837L63.0781 35.9491L63.4446 35.659L63.3204 35.5022ZM62.3893 43.0599L62.5476 42.9376L62.2634 42.5696L62.1917 43.029L62.3893 43.0599ZM61.7892 46.5232L61.5927 46.4857L61.5689 46.6107L61.672 46.6853L61.7892 46.5232ZM49.0717 22.2624L49.1293 22.0709L49.1292 22.0709L49.0717 22.2624ZM20.9193 22.2624L20.8618 22.0709L20.8618 22.0709L20.9193 22.2624ZM15.2339 24.6872L15.13 24.5163L14.52 24.8872H15.2339V24.6872ZM54.7571 24.6872V24.8872H55.471L54.861 24.5163L54.7571 24.6872ZM9.55121 38.3016L9.55994 38.1017L9.32528 38.0915L9.35256 38.3248L9.55121 38.3016ZM10.3675 44.038L10.3501 44.2372L10.608 44.2597L10.5647 44.0045L10.3675 44.038ZM12.7923 38.9151L12.8526 38.7244L12.8525 38.7244L12.7923 38.9151ZM22.2908 38.9151L22.3511 39.1058L22.3511 39.1058L22.2908 38.9151ZM30.2345 38.9151L30.1742 39.1058L30.1742 39.1058L30.2345 38.9151ZM39.733 38.9151L39.6728 38.7244L39.6727 38.7244L39.733 38.9151ZM45.8111 38.4352L45.843 38.2377L45.843 38.2377L45.8111 38.4352ZM47.2894 37.3684L47.4868 37.4005L47.4868 37.4003L47.2894 37.3684ZM46.2226 35.8902L46.2547 35.6928L46.2545 35.6927L46.2226 35.8902ZM38.957 36.4568L39.0172 36.6475L39.0172 36.6475L38.957 36.4568ZM31.0118 36.457L31.0721 36.2663L31.0717 36.2661L31.0118 36.457ZM31.0112 36.4568L30.9509 36.6475L30.9514 36.6476L31.0112 36.4568ZM21.5141 36.4568L21.4538 36.2661L21.4538 36.2661L21.5141 36.4568ZM13.569 36.4568L13.6293 36.2661L13.6293 36.2661L13.569 36.4568ZM9.27731 35.713L9.07822 35.732L9.09513 35.9088L9.27274 35.9129L9.27731 35.713ZM8.7557 27.3463L8.95565 27.3411L8.95552 27.338L8.7557 27.3463ZM8.77584 27.2919L8.63263 27.1523L8.63195 27.153L8.77584 27.2919ZM61.2152 27.2919L61.072 27.4316L61.0738 27.4334L61.2152 27.2919ZM61.236 27.3463L61.0361 27.338L61.0361 27.3411L61.236 27.3463ZM60.7144 35.7136L60.5153 35.6946L60.4939 35.9186L60.7189 35.9136L60.7144 35.7136ZM60.4398 38.3016L60.2412 38.2782L60.2412 38.2784L60.4398 38.3016ZM59.6242 44.0373L59.6416 44.2365L59.7955 44.2231L59.8213 44.0707L59.6242 44.0373ZM56.4173 44.7227L56.3571 44.532L56.3571 44.532L56.4173 44.7227ZM48.4615 44.7227L48.5217 44.532L48.5217 44.532L48.4615 44.7227ZM38.957 44.7227L39.0172 44.9134L39.0172 44.9134L38.957 44.7227ZM31.0118 44.7229L31.0721 44.5322L31.0713 44.5319L31.0118 44.7229ZM31.0112 44.7227L30.9509 44.9134L30.9518 44.9137L31.0112 44.7227ZM21.5141 44.7227L21.5743 44.9134L21.5744 44.9134L21.5141 44.7227ZM21.5092 44.7243L21.4489 44.5335L21.4459 44.5345L21.5092 44.7243ZM21.5091 44.7243L21.5693 44.915L21.5724 44.914L21.5091 44.7243ZM19.6364 45.2034L19.6683 45.4008L19.6683 45.4008L19.6364 45.2034ZM18.5697 46.6816L18.7671 46.6497L18.7671 46.6496L18.5697 46.6816ZM20.0473 47.7483L20.079 47.9458L20.0792 47.9458L20.0473 47.7483ZM22.2908 47.1804L22.2307 46.9897L22.2305 46.9897L22.2908 47.1804ZM22.2957 47.1789L22.3558 47.3696L22.3559 47.3696L22.2957 47.1789ZM30.2345 47.1804L30.1742 47.3711L30.1742 47.3711L30.2345 47.1804ZM39.733 47.1804L39.6729 46.9897L39.6727 46.9897L39.733 47.1804ZM39.7379 47.1789L39.6778 46.9881L39.6777 46.9881L39.7379 47.1789ZM47.6844 47.1806L47.7447 46.9899L47.7446 46.9898L47.6844 47.1806ZM47.6861 47.1811L47.6258 47.3718L47.6261 47.3719L47.6861 47.1811ZM47.6871 47.1814L47.7473 46.9907L47.7471 46.9906L47.6871 47.1814ZM57.1912 47.1817L57.1312 46.991L57.1312 46.991L57.1912 47.1817ZM57.1933 47.1811L57.2534 47.3718L57.2537 47.3718L57.1933 47.1811ZM59.1375 46.6903L59.3336 46.7293L59.3893 46.4488L59.1067 46.4927L59.1375 46.6903ZM54.8531 60.5054V60.7054H54.9798L55.0339 60.5909L54.8531 60.5054ZM15.1386 60.5054L14.9578 60.5909L15.0119 60.7054H15.1386V60.5054ZM10.8542 46.691L10.6574 46.7277L10.6597 46.7376L10.8542 46.691ZM55.8896 64.6098L56.0458 64.7348L56.0458 64.7348L55.8896 64.6098ZM57.3793 63.0833L57.5085 63.2359L57.925 62.8833H57.3793V63.0833ZM12.6124 63.0833V62.8833H12.0671L12.4831 63.2358L12.6124 63.0833ZM14.1001 64.6085L13.9438 64.7334L13.9439 64.7334L14.1001 64.6085ZM57.8673 60.5855C59.4053 57.068 60.5594 53.1578 61.4252 49.2707L61.0347 49.1838C60.1726 53.0545 59.0254 56.9383 57.5008 60.4253L57.8673 60.5855ZM67.7021 60.3054H57.6841V60.7054H67.7021V60.3054ZM69.191 61.795C69.191 60.9724 68.5242 60.3054 67.7021 60.3054V60.7054C68.3032 60.7054 68.791 61.1931 68.791 61.795H69.191ZM67.7021 63.2839C68.5241 63.2839 69.191 62.6171 69.191 61.795H68.791C68.791 62.3961 68.3032 62.8839 67.7021 62.8839V63.2839ZM64.4281 63.2839H67.7021V62.8839H64.4281V63.2839ZM58.0604 66.3439C59.6162 64.3989 61.9365 63.2839 64.4281 63.2839V62.8839C61.815 62.8839 59.3797 64.0541 57.7481 66.0941L58.0604 66.3439ZM56.9316 67.542C57.3345 67.1767 57.7131 66.7776 58.0603 66.344L57.7481 66.094C57.4147 66.5103 57.0508 66.894 56.6629 67.2456L56.9316 67.542ZM62.5484 67.1938H56.7972V67.5938H62.5484V67.1938ZM64.0374 68.6827C64.0374 67.8607 63.3705 67.1938 62.5484 67.1938V67.5938C63.1496 67.5938 63.6374 68.0816 63.6374 68.6827H64.0374ZM62.5484 70.1717C63.3704 70.1717 64.0374 69.5055 64.0374 68.6827H63.6374C63.6374 69.2845 63.1496 69.7717 62.5484 69.7717V70.1717ZM7.4426 70.1717H62.5484V69.7717H7.4426V70.1717ZM5.95367 68.6827C5.95367 69.5055 6.62061 70.1717 7.4426 70.1717V69.7717C6.84139 69.7717 6.35367 69.2845 6.35367 68.6827H5.95367ZM7.4426 67.1938C6.62054 67.1938 5.95367 67.8607 5.95367 68.6827H6.35367C6.35367 68.0816 6.84146 67.5938 7.4426 67.5938V67.1938ZM13.1938 67.1938H7.4426V67.5938H13.1938V67.1938ZM11.9319 66.3452C12.2786 66.7789 12.6566 67.1774 13.0596 67.5421L13.328 67.2455C12.9402 66.8946 12.5771 66.5117 12.2443 66.0955L11.9319 66.3452ZM5.56291 63.2839C8.0545 63.2839 10.3748 64.3989 11.9319 66.3453L12.2443 66.0954C10.6113 64.0541 8.17601 62.8839 5.56291 62.8839V63.2839ZM2.28893 63.2839H5.56291V62.8839H2.28893V63.2839ZM0.8 61.795C0.8 62.6171 1.46688 63.2839 2.28893 63.2839V62.8839C1.68779 62.8839 1.2 62.3961 1.2 61.795H0.8ZM2.28893 60.3061C1.46695 60.3061 0.8 60.9722 0.8 61.795H1.2C1.2 61.1933 1.68772 60.7061 2.28893 60.7061V60.3061ZM12.3076 60.3061H2.28893V60.7061H12.3076V60.3061ZM5.97857 27.42C6.10814 32.3447 6.93399 48.7148 12.1244 60.5862L12.4909 60.426C7.33493 48.6334 6.508 32.3345 6.37844 27.4095L5.97857 27.42ZM6.78577 25.3539C6.24516 25.909 5.95838 26.644 5.97857 27.42L6.37844 27.4096C6.36104 26.7409 6.60728 26.1105 7.07231 25.633L6.78577 25.3539ZM8.84498 24.4872C8.06215 24.4872 7.33044 24.7955 6.78587 25.3538L7.07221 25.6331C7.54132 25.1522 8.16971 24.8872 8.84498 24.8872V24.4872ZM11.0704 24.4872H8.84498V24.8872H11.0704V24.4872ZM34.9955 17.5988C29.6715 17.5988 24.6806 18.2727 20.5104 19.4757C16.3444 20.6775 12.9793 22.4126 10.9262 24.5486L11.2146 24.8258C13.1988 22.7614 16.4881 21.0523 20.6213 19.86C24.7503 18.6689 29.7033 17.9988 34.9955 17.9988V17.5988ZM59.0655 24.5486C57.0121 22.4126 53.6469 20.6775 49.4809 19.4757C45.3108 18.2727 40.3199 17.5988 34.9955 17.5988V17.9988C40.2881 17.9988 45.241 18.6689 49.3701 19.86C53.5032 21.0523 56.7925 22.7614 58.7771 24.8258L59.0655 24.5486ZM61.1467 24.4872H58.9213V24.8872H61.1467V24.4872ZM63.2052 25.3539C62.6613 24.7955 61.9295 24.4872 61.1467 24.4872V24.8872C61.822 24.8872 62.4503 25.1522 62.9187 25.633L63.2052 25.3539ZM64.0131 27.42C64.0333 26.6439 63.7465 25.9089 63.2052 25.3538L62.9188 25.6331C63.3844 26.1105 63.6307 26.741 63.6133 27.4096L64.0131 27.42ZM63.9492 29.2267C63.9802 28.5213 64.0003 27.9132 64.0131 27.42L63.6133 27.4096C63.6005 27.9005 63.5804 28.5062 63.5496 29.2092L63.9492 29.2267ZM66.6811 28.6199C65.6587 28.6199 64.6606 28.7572 63.6959 29.0252L63.8029 29.4107C64.7327 29.1523 65.6948 29.0199 66.6811 29.0199V28.6199ZM77.8135 39.7523C77.8135 33.6141 72.82 28.6199 66.6811 28.6199V29.0199C72.599 29.0199 77.4135 33.835 77.4135 39.7523H77.8135ZM66.6811 50.8847C72.82 50.8847 77.8135 45.8912 77.8135 39.7523H77.4135C77.4135 45.6703 72.599 50.4847 66.6811 50.4847V50.8847ZM61.1303 49.4007C62.8091 50.3651 64.7264 50.8847 66.6811 50.8847V50.4847C64.7971 50.4847 62.9484 49.9838 61.3296 49.0538L61.1303 49.4007ZM66.6811 31.5977C71.1772 31.5977 74.8356 35.2561 74.8356 39.7523H75.2356C75.2356 35.0352 71.3981 31.1977 66.6811 31.1977V31.5977ZM63.6723 32.1723C64.6268 31.7923 65.6362 31.5977 66.6811 31.5977V31.1977C65.5857 31.1977 64.5261 31.4019 63.5244 31.8006L63.6723 32.1723ZM63.5196 35.5206C63.6372 34.2532 63.728 33.0706 63.7979 31.9995L63.3988 31.9734C63.3291 33.0412 63.2386 34.2202 63.1213 35.4837L63.5196 35.5206ZM66.6811 34.1307C65.3653 34.1307 64.1552 34.5862 63.1963 35.3454L63.4446 35.659C64.3359 34.9533 65.4593 34.5307 66.6811 34.5307V34.1307ZM72.3026 39.7523C72.3026 36.6524 69.7809 34.1307 66.6811 34.1307V34.5307C69.56 34.5307 71.9026 36.8734 71.9026 39.7523H72.3026ZM66.6811 45.3745C69.7809 45.3745 72.3026 42.8528 72.3026 39.7523H71.9026C71.9026 42.6319 69.56 44.9745 66.6811 44.9745V45.3745ZM62.231 43.1821C63.2593 44.5137 64.8707 45.3745 66.6811 45.3745V44.9745C65.0005 44.9745 63.5038 44.1759 62.5476 42.9376L62.231 43.1821ZM61.9856 46.5607C62.2089 45.3896 62.4094 44.2287 62.5869 43.0907L62.1917 43.029C62.0148 44.1627 61.8152 45.3192 61.5927 46.4857L61.9856 46.5607ZM66.6811 47.9068C64.9651 47.9068 63.2889 47.3603 61.9063 46.3611L61.672 46.6853C63.1224 47.7336 64.8806 48.3068 66.6811 48.3068V47.9068ZM74.8356 39.7523C74.8356 44.2484 71.1772 47.9068 66.6811 47.9068V48.3068C71.3981 48.3068 75.2356 44.4693 75.2356 39.7523H74.8356ZM66.6811 36.7086C65.0024 36.7086 63.6374 38.0736 63.6374 39.7523H64.0374C64.0374 38.2945 65.2233 37.1086 66.6811 37.1086V36.7086ZM69.7248 39.7523C69.7248 38.0736 68.3597 36.7086 66.6811 36.7086V37.1086C68.1388 37.1086 69.3248 38.2945 69.3248 39.7523H69.7248ZM66.6811 42.7967C68.3598 42.7967 69.7248 41.4309 69.7248 39.7523H69.3248C69.3248 41.2101 68.1387 42.3967 66.6811 42.3967V42.7967ZM63.6374 39.7523C63.6374 41.4309 65.0023 42.7967 66.6811 42.7967V42.3967C65.2234 42.3967 64.0374 41.2101 64.0374 39.7523H63.6374ZM34.9955 20.5767C40.0816 20.5767 44.9295 21.2273 49.0142 22.454L49.1292 22.0709C45.001 20.8311 40.1134 20.1767 34.9955 20.1767V20.5767ZM20.9768 22.454C25.0615 21.2273 29.9094 20.5767 34.9955 20.5767V20.1767C29.8776 20.1767 24.99 20.8311 20.8618 22.0709L20.9768 22.454ZM15.3378 24.8581C16.8425 23.9432 18.7548 23.1217 20.9769 22.454L20.8618 22.0709C18.6155 22.7458 16.6704 23.5797 15.13 24.5163L15.3378 24.8581ZM54.7571 24.4872H15.2339V24.8872H54.7571V24.4872ZM49.0142 22.454C51.2362 23.1217 53.1485 23.9432 54.6532 24.8581L54.861 24.5163C53.3206 23.5797 51.3755 22.7458 49.1293 22.0709L49.0142 22.454ZM9.35256 38.3248C9.56571 40.1476 9.83336 42.0845 10.1703 44.0714L10.5647 44.0045C10.229 42.0253 9.96232 40.0954 9.74985 38.2783L9.35256 38.3248ZM12.8525 38.7244C11.958 38.442 11.0912 38.1687 9.55994 38.1017L9.54247 38.5014C11.0215 38.566 11.849 38.8271 12.7321 39.1059L12.8525 38.7244ZM17.5412 39.4637C15.191 39.4637 13.9543 39.0726 12.8526 38.7244L12.7321 39.1058C13.8524 39.4599 15.1332 39.8637 17.5412 39.8637V39.4637ZM22.2305 38.7244C21.1289 39.0726 19.8915 39.4637 17.5412 39.4637V39.8637C19.9493 39.8637 21.2307 39.4599 22.3511 39.1058L22.2305 38.7244ZM26.2637 38.0861C24.2534 38.0861 23.2641 38.3978 22.2305 38.7244L22.3511 39.1058C23.365 38.7854 24.3105 38.4861 26.2637 38.4861V38.0861ZM30.2948 38.7245C29.2619 38.3978 28.2733 38.0861 26.2637 38.0861V38.4861C28.2161 38.4861 29.161 38.7854 30.1742 39.1058L30.2948 38.7245ZM34.9821 39.4637C32.6325 39.4637 31.3958 39.0726 30.2948 38.7244L30.1742 39.1058C31.2939 39.4599 32.5747 39.8637 34.9821 39.8637V39.4637ZM39.6727 38.7244C38.5711 39.0726 37.333 39.4637 34.9821 39.4637V39.8637C37.3908 39.8637 38.6729 39.4599 39.7933 39.1058L39.6727 38.7244ZM43.7079 38.0861C41.6962 38.0861 40.707 38.3978 39.6728 38.7244L39.7932 39.1059C40.8079 38.7854 41.7534 38.4861 43.7079 38.4861V38.0861ZM45.843 38.2377C45.2105 38.1356 44.5115 38.0861 43.7079 38.0861V38.4861C44.4953 38.4861 45.1725 38.5346 45.7792 38.6326L45.843 38.2377ZM47.0919 37.3364C46.9955 37.9303 46.4362 38.3335 45.843 38.2377L45.7792 38.6326C46.5905 38.7637 47.355 38.2123 47.4868 37.4005L47.0919 37.3364ZM46.1906 36.0876C46.7846 36.184 47.1878 36.7427 47.0919 37.3366L47.4868 37.4003C47.6179 36.5884 47.0664 35.8246 46.2547 35.6928L46.1906 36.0876ZM43.7079 35.9083C44.6345 35.9083 45.446 35.9675 46.1908 36.0876L46.2545 35.6927C45.4848 35.5685 44.6515 35.5083 43.7079 35.5083V35.9083ZM39.0172 36.6475C40.1189 36.2993 41.3563 35.9083 43.7079 35.9083V35.5083C41.2985 35.5083 40.0171 35.912 38.8967 36.2661L39.0172 36.6475ZM34.9821 37.2858C36.9931 37.2858 37.983 36.9742 39.0172 36.6475L38.8967 36.2661C37.8821 36.5865 36.9359 36.8858 34.9821 36.8858V37.2858ZM30.9515 36.6477C31.9849 36.9743 32.9728 37.2858 34.9821 37.2858V36.8858C33.03 36.8858 32.0858 36.5867 31.0721 36.2663L30.9515 36.6477ZM30.9514 36.6476L30.952 36.6478L31.0717 36.2661L31.0711 36.2659L30.9514 36.6476ZM26.2637 35.9083C28.6132 35.9083 29.8499 36.2993 30.9509 36.6475L31.0715 36.2661C29.9518 35.912 28.6711 35.5083 26.2637 35.5083V35.9083ZM21.5744 36.6475C22.6761 36.2993 23.9134 35.9083 26.2637 35.9083V35.5083C23.8556 35.5083 22.5742 35.912 21.4538 36.2661L21.5744 36.6475ZM17.5412 37.2858C19.5516 37.2858 20.5408 36.9742 21.5744 36.6475L21.4538 36.2661C20.4399 36.5865 19.4944 36.8858 17.5412 36.8858V37.2858ZM13.5088 36.6475C14.5423 36.9742 15.5309 37.2858 17.5412 37.2858V36.8858C15.5881 36.8858 14.6433 36.5865 13.6293 36.2661L13.5088 36.6475ZM9.27274 35.9129C11.3324 35.9599 12.479 36.3222 13.5088 36.6475L13.6293 36.2661C12.5847 35.9361 11.3965 35.5613 9.28188 35.513L9.27274 35.9129ZM8.55576 27.3515C8.59949 29.0219 8.72457 32.0348 9.07822 35.732L9.4764 35.6939C9.12382 32.0079 8.99917 29.0045 8.95563 27.3411L8.55576 27.3515ZM8.63195 27.153C8.56236 27.2251 8.55382 27.3055 8.55587 27.3546L8.95552 27.338C8.95566 27.3413 8.95618 27.3575 8.94988 27.3783C8.94307 27.4009 8.93141 27.4187 8.91972 27.4309L8.63195 27.153ZM8.84498 27.0651C8.82745 27.0651 8.71997 27.0627 8.63264 27.1523L8.91903 27.4316C8.88406 27.4674 8.84103 27.4651 8.84498 27.4651V27.0651ZM61.1467 27.0651H8.84498V27.4651H61.1467V27.0651ZM61.3584 27.1523C61.2715 27.0632 61.1655 27.0651 61.1467 27.0651V27.4651C61.1494 27.4651 61.1065 27.467 61.072 27.4316L61.3584 27.1523ZM61.4358 27.3546C61.4379 27.3045 61.4288 27.2227 61.3566 27.1505L61.0738 27.4334C61.0619 27.4215 61.0495 27.4034 61.0422 27.3799C61.0355 27.3583 61.036 27.3413 61.0362 27.338L61.4358 27.3546ZM60.9135 35.7326C61.2664 32.0348 61.3922 29.0219 61.4359 27.3515L61.0361 27.3411C60.9925 29.0044 60.8672 32.0079 60.5153 35.6946L60.9135 35.7326ZM60.4398 38.3016C60.6384 38.3249 60.6384 38.3249 60.6384 38.3249C60.6385 38.3249 60.6385 38.3248 60.6385 38.3248C60.6385 38.3247 60.6385 38.3246 60.6385 38.3244C60.6385 38.3241 60.6386 38.3236 60.6387 38.323C60.6388 38.3218 60.639 38.3199 60.6393 38.3175C60.6399 38.3125 60.6408 38.3053 60.6419 38.2958C60.6441 38.2768 60.6473 38.2489 60.6515 38.2135C60.6598 38.1427 60.6715 38.0415 60.6856 37.9201C60.7137 37.6773 60.7508 37.3534 60.7871 37.0296C60.8233 36.7059 60.8586 36.3814 60.8831 36.1377C60.8953 36.0161 60.9049 35.9131 60.9106 35.84C60.9133 35.804 60.9154 35.7725 60.9161 35.7488C60.9165 35.738 60.9167 35.7232 60.9158 35.7087C60.9155 35.7033 60.9145 35.6868 60.9097 35.6674C60.9077 35.6594 60.9014 35.6349 60.8846 35.6081C60.8696 35.5841 60.8148 35.5113 60.7099 35.5137L60.7189 35.9136C60.6144 35.9159 60.56 35.8434 60.5454 35.8201C60.529 35.7939 60.5231 35.7704 60.5214 35.7636C60.5172 35.7467 60.5166 35.7338 60.5166 35.7333C60.5163 35.7286 60.5166 35.7283 60.5163 35.7364C60.5159 35.7505 60.5144 35.7745 60.5118 35.8092C60.5065 35.8776 60.4972 35.9768 60.4851 36.0977C60.4609 36.3392 60.4257 36.6617 60.3895 36.9851C60.3534 37.3083 60.3163 37.6316 60.2882 37.8741C60.2742 37.9954 60.2624 38.0964 60.2542 38.1671C60.2501 38.2025 60.2468 38.2303 60.2446 38.2492C60.2435 38.2587 60.2426 38.2659 60.2421 38.2708C60.2418 38.2733 60.2415 38.2751 60.2414 38.2763C60.2413 38.277 60.2413 38.2774 60.2412 38.2777C60.2412 38.2779 60.2412 38.278 60.2412 38.2781C60.2412 38.2781 60.2412 38.2782 60.2412 38.2782C60.2412 38.2782 60.2412 38.2782 60.4398 38.3016ZM59.8213 44.0707C60.1583 42.0838 60.426 40.1476 60.6385 38.3247L60.2412 38.2784C60.0294 40.0954 59.7627 42.0246 59.427 44.0039L59.8213 44.0707ZM56.4775 44.9134C57.3081 44.6513 58.2356 44.3594 59.6416 44.2365L59.6067 43.8381C58.1556 43.9649 57.194 44.2678 56.3571 44.532L56.4775 44.9134ZM52.439 45.5517C54.452 45.5517 55.4426 45.2401 56.4775 44.9134L56.3571 44.532C55.3418 44.8525 54.3949 45.1517 52.439 45.1517V45.5517ZM48.4013 44.9134C49.4362 45.2401 50.4261 45.5517 52.439 45.5517V45.1517C50.4832 45.1517 49.537 44.8525 48.5217 44.532L48.4013 44.9134ZM43.7079 44.1742C46.0602 44.1742 47.2982 44.5653 48.4013 44.9134L48.5217 44.532C47.4 44.178 46.1179 43.7742 43.7079 43.7742V44.1742ZM39.0172 44.9134C40.1189 44.5653 41.3563 44.1742 43.7079 44.1742V43.7742C41.2985 43.7742 40.0171 44.178 38.8967 44.532L39.0172 44.9134ZM34.9821 45.5517C36.9931 45.5517 37.983 45.2401 39.0172 44.9134L38.8967 44.532C37.8821 44.8525 36.9359 45.1517 34.9821 45.1517V45.5517ZM30.9516 44.9136C31.9849 45.2402 32.9728 45.5517 34.9821 45.5517V45.1517C33.03 45.1517 32.0859 44.8526 31.0721 44.5322L30.9516 44.9136ZM30.9518 44.9137L30.9524 44.9139L31.0713 44.5319L31.0707 44.5318L30.9518 44.9137ZM26.2637 44.1742C28.6132 44.1742 29.8499 44.5653 30.9509 44.9134L31.0715 44.532C29.9518 44.178 28.6711 43.7742 26.2637 43.7742V44.1742ZM21.5744 44.9134C22.6761 44.5653 23.9134 44.1742 26.2637 44.1742V43.7742C23.8556 43.7742 22.5742 44.178 21.4538 44.532L21.5744 44.9134ZM21.5694 44.915L21.5743 44.9134L21.4539 44.532L21.4489 44.5336L21.5694 44.915ZM21.5724 44.914L21.5724 44.914L21.4459 44.5345L21.4459 44.5345L21.5724 44.914ZM19.6683 45.4008C20.4099 45.2811 20.9798 45.101 21.5693 44.915L21.449 44.5336C20.8592 44.7196 20.3143 44.8914 19.6045 45.0059L19.6683 45.4008ZM18.7671 46.6496C18.6707 46.0559 19.0744 45.4967 19.6683 45.4008L19.6046 45.0059C18.7927 45.137 18.2404 45.9016 18.3723 46.7137L18.7671 46.6496ZM20.0155 47.5509C19.4228 47.6462 18.8629 47.2427 18.7671 46.6497L18.3723 46.7135C18.5034 47.5249 19.2687 48.0761 20.079 47.9458L20.0155 47.5509ZM22.2305 46.9897C21.5773 47.1963 20.9134 47.4057 20.0154 47.5509L20.0792 47.9458C21.0085 47.7956 21.6966 47.5781 22.3511 47.3711L22.2305 46.9897ZM22.2356 46.9881L22.2307 46.9897L22.3509 47.3712L22.3558 47.3696L22.2356 46.9881ZM26.2643 46.3514C24.2566 46.3514 23.2673 46.6627 22.2356 46.9881L22.3559 47.3696C23.3681 47.0503 24.3137 46.7514 26.2643 46.7514V46.3514ZM30.2948 46.9897C29.2619 46.663 28.2733 46.3514 26.2643 46.3514V46.7514C28.2161 46.7514 29.161 47.0506 30.1742 47.3711L30.2948 46.9897ZM34.9821 47.7289C32.6325 47.7289 31.3958 47.3379 30.2948 46.9897L30.1742 47.3711C31.2939 47.7252 32.5747 48.1289 34.9821 48.1289V47.7289ZM39.6727 46.9897C38.5711 47.3379 37.3337 47.7289 34.9821 47.7289V48.1289C37.3915 48.1289 38.6729 47.7252 39.7933 47.3711L39.6727 46.9897ZM39.6777 46.9881L39.6729 46.9897L39.7931 47.3712L39.798 47.3696L39.6777 46.9881ZM43.7079 46.3514C41.7001 46.3514 40.7101 46.6627 39.6778 46.9881L39.798 47.3696C40.8109 47.0504 41.7572 46.7514 43.7079 46.7514V46.3514ZM47.7446 46.9898C46.7104 46.6634 45.7198 46.3514 43.7079 46.3514V46.7514C45.6626 46.7514 46.6095 47.051 47.6242 47.3713L47.7446 46.9898ZM47.7464 46.9904L47.7447 46.9899L47.6241 47.3712L47.6258 47.3718L47.7464 46.9904ZM47.7471 46.9906L47.7461 46.9903L47.6261 47.3719L47.6271 47.3722L47.7471 46.9906ZM52.4397 47.7289C50.0875 47.7289 48.8494 47.3381 47.7473 46.9907L47.627 47.3722C48.7477 47.7254 50.0297 48.1289 52.4397 48.1289V47.7289ZM57.1312 46.991C56.0285 47.3383 54.7906 47.7289 52.4397 47.7289V48.1289C54.8483 48.1289 56.1302 47.7257 57.2513 47.3725L57.1312 46.991ZM57.1332 46.9903L57.1312 46.991L57.2513 47.3725L57.2534 47.3718L57.1332 46.9903ZM59.1067 46.4927C58.3257 46.6141 57.7356 46.7996 57.1329 46.9904L57.2537 47.3718C57.8553 47.1813 58.42 47.0042 59.1682 46.888L59.1067 46.4927ZM55.0339 60.5909C57.0165 56.399 58.3867 51.499 59.3336 46.7293L58.9413 46.6514C57.9978 51.4037 56.6357 56.2687 54.6723 60.4199L55.0339 60.5909ZM15.1386 60.7054H54.8531V60.3054H15.1386V60.7054ZM10.8542 46.691C10.6597 46.7376 10.6598 46.7377 10.6598 46.7378C10.6598 46.7378 10.6598 46.738 10.6599 46.7381C10.6599 46.7384 10.66 46.7389 10.6602 46.7395C10.6605 46.7407 10.6609 46.7424 10.6615 46.7448C10.6626 46.7495 10.6643 46.7565 10.6665 46.7657C10.671 46.7842 10.6776 46.8116 10.6863 46.8476C10.7038 46.9194 10.7296 47.0253 10.7632 47.1614C10.8304 47.4337 10.9285 47.8273 11.0524 48.3125C11.3002 49.2828 11.6512 50.6202 12.064 52.0883C12.8881 55.0193 13.9632 58.4883 14.9578 60.5909L15.3194 60.4199C14.341 58.3516 13.2739 54.9134 12.4491 51.98C12.0374 50.5158 11.6872 49.1816 11.44 48.2135C11.3164 47.7295 11.2185 47.337 11.1516 47.0656C11.1181 46.93 11.0924 46.8246 11.075 46.7531C11.0663 46.7174 11.0598 46.6902 11.0553 46.6719C11.0531 46.6628 11.0515 46.6559 11.0504 46.6513C11.0498 46.649 11.0494 46.6472 11.0491 46.6461C11.049 46.6455 11.0489 46.6451 11.0488 46.6448C11.0488 46.6447 11.0488 46.6446 11.0487 46.6445C11.0487 46.6444 11.0487 46.6444 10.8542 46.691ZM10.3849 43.8387C10.3174 43.8444 10.2218 43.9009 10.1952 43.9364C10.1849 43.9563 10.1736 43.9891 10.1709 44.0011C10.1673 44.0205 10.1674 44.0361 10.1674 44.039C10.1675 44.049 10.1683 44.0571 10.1685 44.059C10.169 44.065 10.1698 44.0705 10.1702 44.0737C10.1713 44.081 10.1727 44.0902 10.1744 44.1002C10.1778 44.1207 10.1829 44.1501 10.1893 44.1865C10.2022 44.2596 10.2209 44.3636 10.2436 44.488C10.2889 44.737 10.35 45.0689 10.4113 45.4006C10.4727 45.7324 10.5342 46.0641 10.5805 46.3129C10.6036 46.4373 10.6229 46.541 10.6364 46.6136C10.6431 46.6499 10.6484 46.6784 10.6521 46.6978C10.6539 46.7076 10.6553 46.715 10.6562 46.72C10.6567 46.7225 10.657 46.7244 10.6573 46.7257C10.6574 46.7264 10.6575 46.7268 10.6575 46.7272C10.6576 46.7273 10.6576 46.7274 10.6576 46.7275C10.6576 46.7276 10.6576 46.7276 10.6576 46.7276C10.6576 46.7276 10.6576 46.7276 10.8542 46.691C11.0509 46.6544 11.0509 46.6544 11.0508 46.6544C11.0508 46.6543 11.0508 46.6543 11.0508 46.6543C11.0508 46.6542 11.0508 46.6541 11.0508 46.6539C11.0507 46.6536 11.0506 46.6531 11.0505 46.6525C11.0503 46.6512 11.0499 46.6493 11.0494 46.6468C11.0485 46.6418 11.0471 46.6343 11.0453 46.6246C11.0417 46.6052 11.0364 46.5767 11.0296 46.5404C11.0161 46.4679 10.9969 46.3642 10.9737 46.2398C10.9275 45.9911 10.866 45.6595 10.8047 45.3279C10.7434 44.9963 10.6823 44.6648 10.6371 44.4164C10.6145 44.2921 10.5959 44.189 10.5832 44.117C10.5768 44.081 10.5721 44.0534 10.5691 44.0351C10.5675 44.0257 10.5666 44.0201 10.5663 44.0174C10.566 44.0155 10.5663 44.0173 10.5666 44.0207C10.5667 44.0214 10.5674 44.0285 10.5674 44.0379C10.5674 44.0404 10.5676 44.0558 10.564 44.075C10.5614 44.087 10.55 44.1197 10.5398 44.1396C10.5132 44.175 10.4177 44.2316 10.3501 44.2372L10.3849 43.8387ZM55.7334 64.4849C54.3563 66.2064 52.3024 67.1938 50.0975 67.1938V67.5938C52.424 67.5938 54.5927 66.5511 56.0458 64.7348L55.7334 64.4849ZM57.25 62.9306C56.7024 63.3943 56.1925 63.911 55.7334 64.4849L56.0458 64.7348C56.4877 64.1823 56.9793 63.6839 57.5085 63.2359L57.25 62.9306ZM12.6124 63.2833H57.3793V62.8833H12.6124V63.2833ZM14.2563 64.4836C13.7979 63.9103 13.2879 63.3936 12.7417 62.9307L12.4831 63.2358C13.011 63.6832 13.5027 64.1816 13.9438 64.7334L14.2563 64.4836ZM19.8935 67.1938C17.6886 67.1938 15.6348 66.2071 14.2562 64.4836L13.9439 64.7334C15.3983 66.5518 17.5671 67.5938 19.8935 67.5938V67.1938ZM50.0975 67.1938H19.8935V67.5938H50.0975V67.1938Z" fill="white"/>
<path fill-rule="evenodd" clip-rule="evenodd" d="M33.4241 14.836C33.4241 15.4285 33.8833 15.9091 34.4494 15.9091C35.0155 15.9091 35.4748 15.4285 35.4748 14.836C35.4748 14.1648 35.7327 13.8653 36.27 13.3036C36.8596 12.6877 37.6665 11.8438 37.6665 10.2532C37.6665 8.66174 36.8598 7.81672 36.2707 7.19974L36.2705 7.1995C35.7333 6.63671 35.4748 6.33659 35.4748 5.66314C35.4748 4.98968 35.7333 4.68957 36.2705 4.12677L36.2707 4.12653C36.8598 3.50955 37.6665 2.66454 37.6665 1.07305C37.6665 0.480637 37.2072 0 36.6411 0C36.075 0 35.6158 0.480637 35.6158 1.07305C35.6158 1.7465 35.3573 2.04662 34.82 2.60941L34.8198 2.60965C34.2308 3.22664 33.4241 4.07165 33.4241 5.66314C33.4241 7.25462 34.2308 8.09964 34.8198 8.71662L34.82 8.71686C35.3573 9.27965 35.6158 9.57977 35.6158 10.2532C35.6158 10.9239 35.3578 11.224 34.8206 11.7851C34.231 12.4016 33.4241 13.2455 33.4241 14.836ZM29.641 12.2995C29.433 12.8953 29.7796 13.5361 30.4147 13.7311C30.5395 13.7696 30.6661 13.7879 30.7909 13.7879C31.3 13.7879 31.7738 13.4841 31.9408 13.0059C32.1979 12.2682 32.5955 11.5932 33.1556 10.943C33.5135 10.5269 33.5135 9.9334 33.1556 9.51728C32.1097 8.30023 31.6012 6.94605 31.6012 5.37731C31.6012 4.75017 31.0593 4.24242 30.3914 4.24242C29.7235 4.24242 29.1816 4.75017 29.1816 5.37731C29.1816 7.15648 29.6971 8.78433 30.7153 10.2284C30.2515 10.8821 29.8974 11.566 29.641 12.2995ZM39.1533 12.3002C39.3768 11.6566 39.4908 10.9604 39.4908 10.2316C39.4908 8.66125 38.982 7.3066 37.9348 6.09025C37.5154 5.60264 37.5966 4.88808 38.1161 4.49445C38.6356 4.10082 39.3963 4.17648 39.8164 4.66408C41.2049 6.2776 41.9089 8.15118 41.9089 10.2316C41.9089 11.2003 41.7553 12.133 41.4517 13.0048C41.2855 13.4835 40.8113 13.7879 40.3025 13.7879C40.1784 13.7879 40.0519 13.7696 39.9272 13.7311C39.2924 13.5367 38.9455 12.896 39.1533 12.3002Z" fill="white"/>
</svg>
