<svg width="34" height="72" viewBox="0 0 34 72" fill="none" xmlns="http://www.w3.org/2000/svg">
<path fill-rule="evenodd" clip-rule="evenodd" d="M1.13322 9.25622C1.0087 8.04362 1.89787 6.95855 3.12157 6.85088C13.3346 -0.961586 21.4031 -0.933778 31.5797 6.85088C32.8038 6.95869 33.6925 8.0443 33.5679 9.25622L28.2544 61.0464L33.0316 67.4613C34.1073 68.9062 33.0718 70.9622 31.2736 70.9622H3.42746C1.62596 70.9622 0.595682 68.9036 1.66952 67.4613L6.44664 61.0464L1.13322 9.25622ZM8.92608 60.886H25.8124L27.5484 40.886H7.03533L8.92608 60.886ZM27.7294 38.9276H6.85772L5.71664 24.8861H29.1932L27.7294 38.9276ZM4.24431 10.352L5.4688 22.4798H29.3195L30.57 10.352H4.24431ZM29.1999 8.00061H5.19993C13.6355 2.66821 20.7608 2.66633 29.1999 8.00061ZM8.09917 63.1205L4.23748 68.7412H30.6913L26.4878 63.1205H8.09917Z" fill="white"/>
<path d="M3.12157 6.85088L3.1391 7.05011L3.19696 7.04502L3.24309 7.00973L3.12157 6.85088ZM1.13322 9.25622L1.33217 9.23581L1.33217 9.23579L1.13322 9.25622ZM31.5797 6.85088L31.4581 7.00973L31.5043 7.04501L31.5621 7.05011L31.5797 6.85088ZM33.5679 9.25622L33.3689 9.23576L33.3689 9.23581L33.5679 9.25622ZM28.2544 61.0464L28.0555 61.0259L28.0476 61.1034L28.094 61.1658L28.2544 61.0464ZM33.0316 67.4613L33.192 67.3419L33.192 67.3418L33.0316 67.4613ZM1.66952 67.4613L1.50911 67.3418L1.5091 67.3419L1.66952 67.4613ZM6.44664 61.0464L6.60705 61.1658L6.65354 61.1034L6.6456 61.0259L6.44664 61.0464ZM25.8124 60.886V61.086H25.9958L26.0117 60.9033L25.8124 60.886ZM8.92608 60.886L8.72696 60.9048L8.74409 61.086H8.92608V60.886ZM27.5484 40.886L27.7476 40.9033L27.7665 40.686H27.5484V40.886ZM7.03533 40.886V40.686H6.81553L6.83622 40.9048L7.03533 40.886ZM6.85772 38.9276L6.65837 38.9438L6.67331 39.1276H6.85772V38.9276ZM27.7294 38.9276V39.1276H27.9097L27.9283 38.9483L27.7294 38.9276ZM5.71664 24.8861V24.6861H5.49973L5.5173 24.9023L5.71664 24.8861ZM29.1932 24.8861L29.3921 24.9068L29.4151 24.6861H29.1932V24.8861ZM5.4688 22.4798L5.26981 22.4999L5.28798 22.6798H5.4688V22.4798ZM4.24431 10.352V10.152H4.0231L4.04533 10.3721L4.24431 10.352ZM29.3195 22.4798V22.6798H29.4999L29.5185 22.5003L29.3195 22.4798ZM30.57 10.352L30.7689 10.3726L30.7917 10.152H30.57V10.352ZM29.1999 8.00061V8.2006H29.8907L29.3068 7.83155L29.1999 8.00061ZM5.19993 8.00061L5.09306 7.83155L4.50924 8.2006H5.19993V8.00061ZM4.23748 68.7412L4.07263 68.628L3.85741 68.9412H4.23748V68.7412ZM8.09917 63.1205V62.9205H7.99393L7.93433 63.0072L8.09917 63.1205ZM30.6913 68.7412V68.9412H31.0906L30.8515 68.6214L30.6913 68.7412ZM26.4878 63.1205L26.648 63.0007L26.588 62.9205H26.4878V63.1205ZM3.10404 6.65165C1.76884 6.76913 0.798377 7.95338 0.934263 9.27665L1.33217 9.23579C1.21901 8.13386 2.02691 7.14797 3.1391 7.05011L3.10404 6.65165ZM31.7012 6.69203C26.5945 2.78561 21.9911 0.80548 17.3644 0.801958C12.7377 0.798436 8.12512 2.7716 3.00006 6.69203L3.24309 7.00973C8.33104 3.1177 12.8592 1.19853 17.3641 1.20196C21.8691 1.20539 26.3883 3.13149 31.4581 7.00973L31.7012 6.69203ZM33.7668 9.27669C33.9029 7.95411 32.9328 6.76928 31.5972 6.65165L31.5621 7.05011C32.6747 7.14809 33.4822 8.1345 33.3689 9.23576L33.7668 9.27669ZM28.4534 61.0668L33.7668 9.27663L33.3689 9.23581L28.0555 61.0259L28.4534 61.0668ZM33.192 67.3418L28.4149 60.9269L28.094 61.1658L32.8712 67.5807L33.192 67.3418ZM31.2736 71.1622C33.2361 71.1622 34.3661 68.9189 33.192 67.3419L32.8711 67.5807C33.8485 68.8935 32.9076 70.7623 31.2736 70.7623V71.1622ZM3.42746 71.1622H31.2736V70.7623H3.42746V71.1622ZM1.5091 67.3419C0.337228 68.9159 1.46115 71.1622 3.42746 71.1622V70.7623C1.79077 70.7623 0.854136 68.8914 1.82994 67.5807L1.5091 67.3419ZM6.28623 60.9269L1.50911 67.3418L1.82993 67.5807L6.60705 61.1658L6.28623 60.9269ZM0.934261 9.27663L6.24769 61.0668L6.6456 61.0259L1.33217 9.23581L0.934261 9.27663ZM25.8124 60.686H8.92608V61.086H25.8124V60.686ZM27.3491 40.8687L25.6132 60.8687L26.0117 60.9033L27.7476 40.9033L27.3491 40.8687ZM7.03533 41.086H27.5484V40.686H7.03533V41.086ZM9.12519 60.8672L7.23444 40.8672L6.83622 40.9048L8.72696 60.9048L9.12519 60.8672ZM6.85772 39.1276H27.7294V38.7276H6.85772V39.1276ZM5.5173 24.9023L6.65837 38.9438L7.05706 38.9114L5.91598 24.8699L5.5173 24.9023ZM29.1932 24.6861H5.71664V25.0861H29.1932V24.6861ZM27.9283 38.9483L29.3921 24.9068L28.9942 24.8653L27.5305 38.9069L27.9283 38.9483ZM5.66779 22.4597L4.4433 10.332L4.04533 10.3721L5.26981 22.4999L5.66779 22.4597ZM29.3195 22.2798H5.4688V22.6798H29.3195V22.2798ZM30.3711 10.3315L29.1206 22.4593L29.5185 22.5003L30.7689 10.3726L30.3711 10.3315ZM4.24431 10.552H30.57V10.152H4.24431V10.552ZM29.1999 7.80061H5.19993V8.2006H29.1999V7.80061ZM5.30679 8.16966C9.50315 5.517 13.3566 4.20084 17.1986 4.20061C21.0406 4.20037 24.8949 5.51607 29.0931 8.16966L29.3068 7.83155C25.0658 5.15087 21.1379 3.80037 17.1986 3.80061C13.2593 3.80084 9.33225 5.15182 5.09306 7.83155L5.30679 8.16966ZM4.40232 68.8545L8.26402 63.2337L7.93433 63.0072L4.07263 68.628L4.40232 68.8545ZM30.6913 68.5412H4.23748V68.9412H30.6913V68.5412ZM26.3277 63.2403L30.5312 68.861L30.8515 68.6214L26.648 63.0007L26.3277 63.2403ZM8.09917 63.3205H26.4878V62.9205H8.09917V63.3205Z" fill="white"/>
</svg>
