<svg width="58" height="72" viewBox="0 0 58 72" fill="none" xmlns="http://www.w3.org/2000/svg">
<path fill-rule="evenodd" clip-rule="evenodd" d="M48.8333 26.6667H43V20.8333C43 20.189 42.4776 19.6667 41.8333 19.6667H38.1186C38.257 19.293 38.3293 18.8982 38.3333 18.5C38.3311 16.922 37.2755 15.54 35.7539 15.1225C36.1208 14.1968 36.0763 13.1583 35.6309 12.2673C35.1854 11.3764 34.3816 10.7179 33.4206 10.4558C33.8473 9.37801 33.7134 8.15894 33.0617 7.19963C32.41 6.24089 31.3259 5.66667 30.1667 5.66667H26.5499C25.9922 2.95223 23.6042 1.00285 20.8333 1C20.189 1 19.6667 1.52238 19.6667 2.16667C19.6667 4.09953 18.0995 5.66667 16.1667 5.66667H13.8333C12.6741 5.66667 11.59 6.24089 10.9383 7.19963C10.2866 8.15894 10.1528 9.37801 10.5794 10.4558C9.61841 10.7179 8.81462 11.3764 8.36914 12.2673C7.92367 13.1583 7.87923 14.1968 8.24609 15.1225C6.72453 15.54 5.66895 16.922 5.66667 18.5C5.67065 18.8982 5.743 19.293 5.88143 19.6667H2.16667C1.52238 19.6667 1 20.189 1 20.8333V29.9861C1.00228 34.8732 1.60441 39.7421 2.79329 44.4828C3.92635 49.0173 4.5 53.6737 4.5 58.3472V65.1667C4.50399 68.387 7.11304 70.996 10.3333 71H33.6667C36.887 70.996 39.496 68.387 39.5 65.1667V64H41.8333C50.2056 63.9903 56.9903 57.2056 57 48.8333V34.8333C56.9949 30.325 53.3416 26.6718 48.8333 26.6667ZM41.2232 44.4162C42.1034 40.8911 42.6588 37.2931 42.8832 33.6667H48.8333C49.4776 33.6667 50 34.189 50 34.8333V48.8333C49.9949 53.3416 46.3416 56.9949 41.8333 57H39.5422C39.635 52.756 40.1984 48.536 41.2232 44.4162ZM8 22V26.6667H36V22H8ZM9.70671 43.8505C8.57365 39.316 8 34.6596 8 29.9861V29H36V29.9861C35.9983 34.6824 35.4195 39.3616 34.2768 43.9172C33.0976 48.6368 32.5006 53.4829 32.5 58.3473V64H11.5V58.3473C11.4977 53.4601 10.8956 48.5912 9.70671 43.8505ZM12.6667 17.3333H9.16667C8.52238 17.3333 8 17.8557 8 18.5C8 19.1443 8.52238 19.6667 9.16667 19.6667H34.8333C35.4776 19.6667 36 19.1443 36 18.5C36 17.8557 35.4776 17.3333 34.8333 17.3333H22C21.3557 17.3333 20.8333 16.811 20.8333 16.1667C20.8333 15.5224 21.3557 15 22 15H32.5C33.1443 15 33.6667 14.4776 33.6667 13.8333C33.6667 13.189 33.1443 12.6667 32.5 12.6667H29C28.3557 12.6667 27.8333 12.1443 27.8333 11.5C27.8333 10.8557 28.3557 10.3333 29 10.3333H30.1667C30.811 10.3333 31.3333 9.81095 31.3333 9.16667C31.3333 8.52238 30.811 8 30.1667 8H25.5C24.8557 8 24.3333 7.47762 24.3333 6.83333C24.3316 5.2924 23.3239 3.93319 21.8496 3.48372C21.2338 6.12581 18.88 7.99658 16.1667 8H13.8333C13.189 8 12.6667 8.52238 12.6667 9.16667C12.6667 9.81095 13.189 10.3333 13.8333 10.3333H24.3333C24.9776 10.3333 25.5 10.8557 25.5 11.5C25.5 12.1443 24.9776 12.6667 24.3333 12.6667H11.5C10.8557 12.6667 10.3333 13.189 10.3333 13.8333C10.3333 14.4776 10.8557 15 11.5 15H12.6667C13.311 15 13.8333 15.5224 13.8333 16.1667C13.8333 16.811 13.311 17.3333 12.6667 17.3333ZM37.1667 65.1667C37.1667 67.0995 35.5995 68.6667 33.6667 68.6667H10.3333C8.40047 68.6667 6.83333 67.0995 6.83333 65.1667V58.3472C6.83105 53.4601 6.22892 48.5912 5.04004 43.8505C3.90698 39.316 3.33333 34.6596 3.33333 29.9861V22H5.66667V29.9861C5.66895 34.8732 6.27108 39.7421 7.45996 44.4828C8.59302 49.0173 9.16667 53.6737 9.16667 58.3472V65.1667C9.16667 65.811 9.68905 66.3333 10.3333 66.3333H33.6667C34.311 66.3333 34.8333 65.811 34.8333 65.1667V58.3472C34.835 53.651 35.4138 48.9718 36.5566 44.4162C37.7358 39.6965 38.3328 34.8504 38.3333 29.9861V22H40.6667V29.9861C40.665 34.6824 40.0862 39.3616 38.9434 43.9172C37.783 48.5673 37.1889 53.3411 37.1735 58.1342C37.1723 58.1387 37.1712 58.1431 37.1703 58.1476C37.1689 58.154 37.1677 58.1603 37.1667 58.1667V65.1667ZM41.8333 61.6667C48.9176 61.6581 54.6581 55.9176 54.6667 48.8333V34.8333C54.6627 31.613 52.0536 29.004 48.8333 29H43V31.3333H48.8333C50.7662 31.3333 52.3333 32.9005 52.3333 34.8333V48.8333C52.3271 54.6296 47.6296 59.3271 41.8333 59.3333H39.5V61.6667H41.8333Z" fill="white"/>
<path d="M43 26.6667H42.8V26.8667H43V26.6667ZM48.8333 26.6667L48.8336 26.4667H48.8333V26.6667ZM38.1186 19.6667L37.931 19.5972L37.8312 19.8667H38.1186V19.6667ZM38.3333 18.5L38.5333 18.502L38.5333 18.4997L38.3333 18.5ZM35.7539 15.1225L35.568 15.0488L35.4857 15.2563L35.701 15.3153L35.7539 15.1225ZM33.4206 10.4558L33.2346 10.3822L33.1524 10.59L33.368 10.6488L33.4206 10.4558ZM33.0617 7.19963L33.2271 7.08724L33.2271 7.08719L33.0617 7.19963ZM26.5499 5.66667L26.354 5.70692L26.3868 5.86667H26.5499V5.66667ZM20.8333 1L20.8335 0.8H20.8333V1ZM10.9383 7.19963L10.7729 7.08719L10.7729 7.08724L10.9383 7.19963ZM10.5794 10.4558L10.632 10.6488L10.8476 10.59L10.7654 10.3822L10.5794 10.4558ZM8.24609 15.1225L8.29902 15.3153L8.51425 15.2563L8.43202 15.0488L8.24609 15.1225ZM5.66667 18.5L5.46665 18.4997L5.46668 18.502L5.66667 18.5ZM5.88143 19.6667V19.8667H6.1688L6.06898 19.5972L5.88143 19.6667ZM1 29.9861H0.8L0.8 29.9862L1 29.9861ZM2.79329 44.4828L2.98733 44.4343L2.98729 44.4342L2.79329 44.4828ZM4.5 65.1667H4.3L4.3 65.1669L4.5 65.1667ZM10.3333 71L10.3331 71.2H10.3333V71ZM33.6667 71V71.2H33.6669L33.6667 71ZM39.5 65.1667L39.7 65.1669V65.1667H39.5ZM39.5 64V63.8H39.3V64H39.5ZM41.8333 64V64.2H41.8336L41.8333 64ZM57 48.8333L57.2 48.8336V48.8333H57ZM57 34.8333H57.2V34.8331L57 34.8333ZM42.8832 33.6667V33.4667H42.6952L42.6836 33.6543L42.8832 33.6667ZM41.2232 44.4162L41.0292 44.3677L41.0291 44.3679L41.2232 44.4162ZM50 48.8333L50.2 48.8336V48.8333H50ZM41.8333 57V57.2H41.8336L41.8333 57ZM39.5422 57L39.3422 56.9956L39.3377 57.2H39.5422V57ZM8 26.6667H7.8V26.8667H8V26.6667ZM8 22V21.8H7.8V22H8ZM36 26.6667V26.8667H36.2V26.6667H36ZM36 22H36.2V21.8H36V22ZM9.70671 43.8505L9.51267 43.899L9.51271 43.8992L9.70671 43.8505ZM8 29V28.8H7.8V29H8ZM36 29H36.2V28.8H36V29ZM36 29.9861L36.2 29.9862V29.9861H36ZM34.2768 43.9172L34.0828 43.8685L34.0827 43.8687L34.2768 43.9172ZM32.5 58.3473L32.3 58.3472V58.3473H32.5ZM32.5 64V64.2H32.7V64H32.5ZM11.5 64H11.3V64.2H11.5V64ZM11.5 58.3473H11.7V58.3472L11.5 58.3473ZM24.3333 6.83333H24.5333V6.83311L24.3333 6.83333ZM21.8496 3.48372L21.9079 3.29242L21.7034 3.23005L21.6548 3.43833L21.8496 3.48372ZM16.1667 8V8.2L16.1669 8.2L16.1667 8ZM6.83333 58.3472H7.03333V58.3472L6.83333 58.3472ZM5.04004 43.8505L4.846 43.899L4.84605 43.8992L5.04004 43.8505ZM3.33333 22V21.8H3.13333V22H3.33333ZM5.66667 22H5.86667V21.8H5.66667V22ZM5.66667 29.9861H5.46667V29.9862L5.66667 29.9861ZM7.45996 44.4828L7.654 44.4343L7.65395 44.4342L7.45996 44.4828ZM34.8333 58.3472L34.6333 58.3472V58.3472H34.8333ZM36.5566 44.4162L36.7505 44.4648L36.7506 44.4647L36.5566 44.4162ZM38.3333 29.9861L38.5333 29.9861V29.9861H38.3333ZM38.3333 22V21.8H38.1333V22H38.3333ZM40.6667 22H40.8667V21.8H40.6667V22ZM40.6667 29.9861L40.8667 29.9862V29.9861H40.6667ZM38.9434 43.9172L38.7495 43.8685L38.7494 43.8687L38.9434 43.9172ZM37.1735 58.1342L37.3669 58.1851L37.3734 58.1604L37.3735 58.1348L37.1735 58.1342ZM37.1703 58.1476L37.3656 58.1905L37.3656 58.1905L37.1703 58.1476ZM37.1667 58.1667L36.9691 58.1355L36.9667 58.151V58.1667H37.1667ZM54.6667 48.8333L54.8667 48.8336V48.8333H54.6667ZM41.8333 61.6667V61.8667H41.8336L41.8333 61.6667ZM54.6667 34.8333H54.8667V34.8331L54.6667 34.8333ZM48.8333 29L48.8336 28.8H48.8333V29ZM43 29V28.8H42.8V29H43ZM43 31.3333H42.8V31.5333H43V31.3333ZM52.3333 48.8333L52.5333 48.8336V48.8333H52.3333ZM41.8333 59.3333V59.5333H41.8335L41.8333 59.3333ZM39.5 59.3333V59.1333H39.3V59.3333H39.5ZM39.5 61.6667H39.3V61.8667H39.5V61.6667ZM43 26.8667H48.8333V26.4667H43V26.8667ZM42.8 20.8333V26.6667H43.2V20.8333H42.8ZM41.8333 19.8667C42.3672 19.8667 42.8 20.2995 42.8 20.8333H43.2C43.2 20.0786 42.5881 19.4667 41.8333 19.4667V19.8667ZM38.1186 19.8667H41.8333V19.4667H38.1186V19.8667ZM38.1333 18.498C38.1296 18.8733 38.0614 19.2452 37.931 19.5972L38.3061 19.7361C38.4526 19.3407 38.5291 18.9231 38.5333 18.502L38.1333 18.498ZM35.701 15.3153C37.1358 15.7091 38.1312 17.0123 38.1333 18.5003L38.5333 18.4997C38.5309 16.8318 37.4151 15.371 35.8068 14.9296L35.701 15.3153ZM35.452 12.3568C35.872 13.1968 35.9139 14.1759 35.568 15.0488L35.9398 15.1962C36.3276 14.2176 36.2807 13.1198 35.8097 12.1779L35.452 12.3568ZM33.368 10.6488C34.2741 10.8959 35.032 11.5168 35.452 12.3568L35.8097 12.1779C35.3388 11.236 34.4891 10.5399 33.4732 10.2629L33.368 10.6488ZM32.8963 7.31201C33.5107 8.21649 33.6369 9.36591 33.2346 10.3822L33.6065 10.5294C34.0576 9.39011 33.9161 8.10138 33.2271 7.08724L32.8963 7.31201ZM30.1667 5.86667C31.2597 5.86667 32.2818 6.40807 32.8963 7.31206L33.2271 7.08719C32.5382 6.07371 31.3922 5.46667 30.1667 5.46667V5.86667ZM26.5499 5.86667H30.1667V5.46667H26.5499V5.86667ZM20.8331 1.2C23.5091 1.20275 25.8154 3.08539 26.354 5.70692L26.7458 5.62642C26.169 2.81906 23.6992 0.802946 20.8335 0.8L20.8331 1.2ZM19.8667 2.16667C19.8667 1.63284 20.2995 1.2 20.8333 1.2V0.8C20.0786 0.8 19.4667 1.41192 19.4667 2.16667H19.8667ZM16.1667 5.86667C18.21 5.86667 19.8667 4.20998 19.8667 2.16667H19.4667C19.4667 3.98907 17.9891 5.46667 16.1667 5.46667V5.86667ZM13.8333 5.86667H16.1667V5.46667H13.8333V5.86667ZM11.1037 7.31206C11.7182 6.40807 12.7403 5.86667 13.8333 5.86667V5.46667C12.6078 5.46667 11.4618 6.07371 10.7729 7.08719L11.1037 7.31206ZM10.7654 10.3822C10.3631 9.36591 10.4893 8.21649 11.1038 7.31201L10.7729 7.08724C10.0839 8.10138 9.94244 9.39011 10.3935 10.5294L10.7654 10.3822ZM8.54803 12.3568C8.96803 11.5168 9.72588 10.8959 10.632 10.6488L10.5268 10.2629C9.51094 10.5399 8.6612 11.236 8.19026 12.1779L8.54803 12.3568ZM8.43202 15.0488C8.08611 14.1759 8.12802 13.1968 8.54803 12.3568L8.19026 12.1779C7.71931 13.1198 7.67235 14.2176 8.06016 15.1962L8.43202 15.0488ZM5.86667 18.5003C5.86881 17.0123 6.8642 15.7091 8.29902 15.3153L8.19316 14.9296C6.58485 15.371 5.46908 16.8318 5.46667 18.4997L5.86667 18.5003ZM6.06898 19.5972C5.9386 19.2452 5.87042 18.8733 5.86666 18.498L5.46668 18.502C5.47089 18.9231 5.5474 19.3407 5.69388 19.7361L6.06898 19.5972ZM2.16667 19.8667H5.88143V19.4667H2.16667V19.8667ZM1.2 20.8333C1.2 20.2995 1.63284 19.8667 2.16667 19.8667V19.4667C1.41192 19.4667 0.8 20.0786 0.8 20.8333H1.2ZM1.2 29.9861V20.8333H0.8V29.9861H1.2ZM2.98729 44.4342C1.80239 39.7093 1.20227 34.8568 1.2 29.986L0.8 29.9862C0.802286 34.8897 1.40643 39.7749 2.5993 44.5315L2.98729 44.4342ZM4.7 58.3472C4.7 53.6574 4.12434 48.9847 2.98733 44.4343L2.59926 44.5313C3.72836 49.05 4.3 53.6901 4.3 58.3472H4.7ZM4.7 65.1667V58.3472H4.3V65.1667H4.7ZM10.3336 70.8C7.22355 70.7962 4.70385 68.2765 4.7 65.1664L4.3 65.1669C4.30412 68.4975 7.00253 71.1959 10.3331 71.2L10.3336 70.8ZM33.6667 70.8H10.3333V71.2H33.6667V70.8ZM39.3 65.1664C39.2962 68.2765 36.7765 70.7962 33.6664 70.8L33.6669 71.2C36.9975 71.1959 39.6959 68.4975 39.7 65.1669L39.3 65.1664ZM39.3 64V65.1667H39.7V64H39.3ZM41.8333 63.8H39.5V64.2H41.8333V63.8ZM56.8 48.8331C56.7904 57.0951 50.0951 63.7904 41.8331 63.8L41.8336 64.2C50.3162 64.1902 57.1902 57.3162 57.2 48.8336L56.8 48.8331ZM56.8 34.8333V48.8333H57.2V34.8333H56.8ZM48.8331 26.8667C53.2311 26.8717 56.795 30.4355 56.8 34.8336L57.2 34.8331C57.1947 30.2145 53.4521 26.4719 48.8336 26.4667L48.8331 26.8667ZM42.6836 33.6543C42.4599 37.2686 41.9064 40.8545 41.0292 44.3677L41.4173 44.4646C42.3004 40.9277 42.8576 37.3177 43.0828 33.679L42.6836 33.6543ZM48.8333 33.4667H42.8832V33.8667H48.8333V33.4667ZM50.2 34.8333C50.2 34.0786 49.5881 33.4667 48.8333 33.4667V33.8667C49.3672 33.8667 49.8 34.2995 49.8 34.8333H50.2ZM50.2 48.8333V34.8333H49.8V48.8333H50.2ZM41.8336 57.2C46.4521 57.1948 50.1947 53.4521 50.2 48.8336L49.8 48.8331C49.795 53.2311 46.2311 56.795 41.8331 56.8L41.8336 57.2ZM39.5422 57.2H41.8333V56.8H39.5422V57.2ZM41.0291 44.3679C40.0007 48.5021 39.4354 52.7369 39.3422 56.9956L39.7421 57.0044C39.8346 52.7752 40.3961 48.5699 41.4173 44.4645L41.0291 44.3679ZM8.2 26.6667V22H7.8V26.6667H8.2ZM36 26.4667H8V26.8667H36V26.4667ZM35.8 22V26.6667H36.2V22H35.8ZM8 22.2H36V21.8H8V22.2ZM7.8 29.9861C7.8 34.676 8.37566 39.3486 9.51267 43.899L9.90074 43.802C8.77164 39.2834 8.2 34.6432 8.2 29.9861H7.8ZM7.8 29V29.9861H8.2V29H7.8ZM36 28.8H8V29.2H36V28.8ZM36.2 29.9861V29H35.8V29.9861H36.2ZM34.4708 43.9658C35.6175 39.3943 36.1983 34.6988 36.2 29.9862L35.8 29.986C35.7983 34.6659 35.2215 39.3288 34.0828 43.8685L34.4708 43.9658ZM32.7 58.3473C32.7006 53.4993 33.2956 48.6694 34.4708 43.9656L34.0827 43.8687C32.8996 48.6042 32.3006 53.4665 32.3 58.3472L32.7 58.3473ZM32.7 64V58.3473H32.3V64H32.7ZM11.5 64.2H32.5V63.8H11.5V64.2ZM11.3 58.3473V64H11.7V58.3473H11.3ZM9.51271 43.8992C10.6976 48.624 11.2977 53.4766 11.3 58.3473L11.7 58.3472C11.6977 53.4437 11.0936 48.5585 9.9007 43.8019L9.51271 43.8992ZM9.16667 17.5333H12.6667V17.1333H9.16667V17.5333ZM8.2 18.5C8.2 17.9662 8.63284 17.5333 9.16667 17.5333V17.1333C8.41192 17.1333 7.8 17.7453 7.8 18.5H8.2ZM9.16667 19.4667C8.63284 19.4667 8.2 19.0338 8.2 18.5H7.8C7.8 19.2547 8.41192 19.8667 9.16667 19.8667V19.4667ZM34.8333 19.4667H9.16667V19.8667H34.8333V19.4667ZM35.8 18.5C35.8 19.0338 35.3672 19.4667 34.8333 19.4667V19.8667C35.5881 19.8667 36.2 19.2547 36.2 18.5H35.8ZM34.8333 17.5333C35.3672 17.5333 35.8 17.9662 35.8 18.5H36.2C36.2 17.7453 35.5881 17.1333 34.8333 17.1333V17.5333ZM22 17.5333H34.8333V17.1333H22V17.5333ZM20.6333 16.1667C20.6333 16.9214 21.2453 17.5333 22 17.5333V17.1333C21.4662 17.1333 21.0333 16.7005 21.0333 16.1667H20.6333ZM22 14.8C21.2453 14.8 20.6333 15.4119 20.6333 16.1667H21.0333C21.0333 15.6328 21.4662 15.2 22 15.2V14.8ZM32.5 14.8H22V15.2H32.5V14.8ZM33.4667 13.8333C33.4667 14.3672 33.0338 14.8 32.5 14.8V15.2C33.2547 15.2 33.8667 14.5881 33.8667 13.8333H33.4667ZM32.5 12.8667C33.0338 12.8667 33.4667 13.2995 33.4667 13.8333H33.8667C33.8667 13.0786 33.2547 12.4667 32.5 12.4667V12.8667ZM29 12.8667H32.5V12.4667H29V12.8667ZM27.6333 11.5C27.6333 12.2547 28.2453 12.8667 29 12.8667V12.4667C28.4662 12.4667 28.0333 12.0338 28.0333 11.5H27.6333ZM29 10.1333C28.2453 10.1333 27.6333 10.7453 27.6333 11.5H28.0333C28.0333 10.9662 28.4662 10.5333 29 10.5333V10.1333ZM30.1667 10.1333H29V10.5333H30.1667V10.1333ZM31.1333 9.16667C31.1333 9.7005 30.7005 10.1333 30.1667 10.1333V10.5333C30.9214 10.5333 31.5333 9.92141 31.5333 9.16667H31.1333ZM30.1667 8.2C30.7005 8.2 31.1333 8.63284 31.1333 9.16667H31.5333C31.5333 8.41192 30.9214 7.8 30.1667 7.8V8.2ZM25.5 8.2H30.1667V7.8H25.5V8.2ZM24.1333 6.83333C24.1333 7.58808 24.7453 8.2 25.5 8.2V7.8C24.9662 7.8 24.5333 7.36716 24.5333 6.83333H24.1333ZM21.7913 3.67503C23.1815 4.09886 24.1317 5.38054 24.1333 6.83355L24.5333 6.83311C24.5315 5.20426 23.4663 3.76751 21.9079 3.29242L21.7913 3.67503ZM16.1669 8.2C18.9731 8.19646 21.4075 6.26167 22.0444 3.52912L21.6548 3.43833C21.0601 5.98996 18.7868 7.7967 16.1664 7.8L16.1669 8.2ZM13.8333 8.2H16.1667V7.8H13.8333V8.2ZM12.8667 9.16667C12.8667 8.63284 13.2995 8.2 13.8333 8.2V7.8C13.0786 7.8 12.4667 8.41192 12.4667 9.16667H12.8667ZM13.8333 10.1333C13.2995 10.1333 12.8667 9.7005 12.8667 9.16667H12.4667C12.4667 9.92141 13.0786 10.5333 13.8333 10.5333V10.1333ZM24.3333 10.1333H13.8333V10.5333H24.3333V10.1333ZM25.7 11.5C25.7 10.7453 25.0881 10.1333 24.3333 10.1333V10.5333C24.8672 10.5333 25.3 10.9662 25.3 11.5H25.7ZM24.3333 12.8667C25.0881 12.8667 25.7 12.2547 25.7 11.5H25.3C25.3 12.0338 24.8672 12.4667 24.3333 12.4667V12.8667ZM11.5 12.8667H24.3333V12.4667H11.5V12.8667ZM10.5333 13.8333C10.5333 13.2995 10.9662 12.8667 11.5 12.8667V12.4667C10.7453 12.4667 10.1333 13.0786 10.1333 13.8333H10.5333ZM11.5 14.8C10.9662 14.8 10.5333 14.3672 10.5333 13.8333H10.1333C10.1333 14.5881 10.7453 15.2 11.5 15.2V14.8ZM12.6667 14.8H11.5V15.2H12.6667V14.8ZM14.0333 16.1667C14.0333 15.4119 13.4214 14.8 12.6667 14.8V15.2C13.2005 15.2 13.6333 15.6328 13.6333 16.1667H14.0333ZM12.6667 17.5333C13.4214 17.5333 14.0333 16.9214 14.0333 16.1667H13.6333C13.6333 16.7005 13.2005 17.1333 12.6667 17.1333V17.5333ZM33.6667 68.8667C35.71 68.8667 37.3667 67.21 37.3667 65.1667H36.9667C36.9667 66.9891 35.4891 68.4667 33.6667 68.4667V68.8667ZM10.3333 68.8667H33.6667V68.4667H10.3333V68.8667ZM6.63333 65.1667C6.63333 67.21 8.29001 68.8667 10.3333 68.8667V68.4667C8.51093 68.4667 7.03333 66.9891 7.03333 65.1667H6.63333ZM6.63333 58.3472V65.1667H7.03333V58.3472H6.63333ZM4.84605 43.8992C6.03095 48.624 6.63106 53.4766 6.63333 58.3473L7.03333 58.3472C7.03105 53.4437 6.4269 48.5585 5.23403 43.8019L4.84605 43.8992ZM3.13333 29.9861C3.13333 34.676 3.70899 39.3486 4.846 43.899L5.23407 43.802C4.10497 39.2834 3.53333 34.6432 3.53333 29.9861H3.13333ZM3.13333 22V29.9861H3.53333V22H3.13333ZM5.66667 21.8H3.33333V22.2H5.66667V21.8ZM5.86667 29.9861V22H5.46667V29.9861H5.86667ZM7.65395 44.4342C6.46905 39.7093 5.86894 34.8568 5.86667 29.986L5.46667 29.9862C5.46895 34.8897 6.0731 39.7749 7.26597 44.5315L7.65395 44.4342ZM9.36667 58.3472C9.36667 53.6574 8.79101 48.9847 7.654 44.4343L7.26593 44.5313C8.39503 49.05 8.96667 53.6901 8.96667 58.3472H9.36667ZM9.36667 65.1667V58.3472H8.96667V65.1667H9.36667ZM10.3333 66.1333C9.7995 66.1333 9.36667 65.7005 9.36667 65.1667H8.96667C8.96667 65.9214 9.57859 66.5333 10.3333 66.5333V66.1333ZM33.6667 66.1333H10.3333V66.5333H33.6667V66.1333ZM34.6333 65.1667C34.6333 65.7005 34.2005 66.1333 33.6667 66.1333V66.5333C34.4214 66.5333 35.0333 65.9214 35.0333 65.1667H34.6333ZM34.6333 58.3472V65.1667H35.0333V58.3472H34.6333ZM36.3626 44.3675C35.2158 48.939 34.635 53.6345 34.6333 58.3472L35.0333 58.3473C35.035 53.6674 35.6118 49.0045 36.7505 44.4648L36.3626 44.3675ZM38.1333 29.9861C38.1328 34.834 37.5378 39.6639 36.3625 44.3677L36.7506 44.4647C37.9337 39.7292 38.5328 34.8668 38.5333 29.9861L38.1333 29.9861ZM38.1333 22V29.9861H38.5333V22H38.1333ZM40.6667 21.8H38.3333V22.2H40.6667V21.8ZM40.8667 29.9861V22H40.4667V29.9861H40.8667ZM39.1374 43.9658C40.2842 39.3943 40.8649 34.6988 40.8667 29.9862L40.4667 29.986C40.465 34.6659 39.8882 39.3288 38.7495 43.8685L39.1374 43.9658ZM37.3735 58.1348C37.3888 53.3578 37.981 48.6001 39.1375 43.9656L38.7494 43.8687C37.5851 48.5345 36.9889 53.3243 36.9735 58.1336L37.3735 58.1348ZM37.3656 58.1905C37.366 58.1887 37.3664 58.1869 37.3669 58.1851L36.9801 58.0833C36.9782 58.0904 36.9765 58.0975 36.9749 58.1047L37.3656 58.1905ZM37.3642 58.1979C37.3646 58.1955 37.365 58.1931 37.3656 58.1905L36.9749 58.1047C36.9727 58.1148 36.9707 58.1251 36.9691 58.1355L37.3642 58.1979ZM37.3667 65.1667V58.1667H36.9667V65.1667H37.3667ZM54.4667 48.8331C54.4583 55.8071 48.8071 61.4583 41.8331 61.4667L41.8336 61.8667C49.0282 61.858 54.858 56.0282 54.8667 48.8336L54.4667 48.8331ZM54.4667 34.8333V48.8333H54.8667V34.8333H54.4667ZM48.8331 29.2C51.9431 29.2039 54.4628 31.7235 54.4667 34.8336L54.8667 34.8331C54.8625 31.5025 52.1641 28.8041 48.8336 28.8L48.8331 29.2ZM43 29.2H48.8333V28.8H43V29.2ZM43.2 31.3333V29H42.8V31.3333H43.2ZM48.8333 31.1333H43V31.5333H48.8333V31.1333ZM52.5333 34.8333C52.5333 32.79 50.8767 31.1333 48.8333 31.1333V31.5333C50.6557 31.5333 52.1333 33.0109 52.1333 34.8333H52.5333ZM52.5333 48.8333V34.8333H52.1333V48.8333H52.5333ZM41.8335 59.5333C47.7401 59.527 52.527 54.7401 52.5333 48.8336L52.1333 48.8331C52.1272 54.5191 47.5191 59.1272 41.8331 59.1333L41.8335 59.5333ZM39.5 59.5333H41.8333V59.1333H39.5V59.5333ZM39.7 61.6667V59.3333H39.3V61.6667H39.7ZM41.8333 61.4667H39.5V61.8667H41.8333V61.4667Z" fill="white"/>
</svg>
